<svg xmlns="http://www.w3.org/2000/svg" viewBox="0 0 128 128" width="128" height="128">
  <!-- Background -->
  <rect width="128" height="128" rx="24" fill="#6366f1"/>

  <!-- V Shape (monogram for Victor) -->
  <g fill="white">
    <!-- Left arm of V -->
    <polygon points="32,40 56,40 56,48 44,48 44,64 56,64 56,72 36,72 36,80 44,88 64,88 64,96 32,96"/>

    <!-- Right arm of V -->
    <polygon points="96,40 72,40 72,48 84,48 84,64 72,64 72,72 92,72 92,80 84,88 64,88 64,96 96,96"/>

    <!-- Center connector -->
    <rect x="56" y="48" width="16" height="16"/>
    <rect x="54" y="80" width="20" height="4"/>

    <!-- AI dots (representing intelligence) -->
    <circle cx="42" cy="104" r="4" opacity="0.8"/>
    <circle cx="64" cy="104" r="4" opacity="0.8"/>
    <circle cx="86" cy="104" r="4" opacity="0.8"/>
  </g>

  <!-- Subtle accent -->
  <circle cx="100" cy="28" r="6" fill="#a5b4fc" opacity="0.6"/>
</svg>