<svg xmlns="http://www.w3.org/2000/svg" viewBox="0 0 128 128" width="128" height="128" role="img" aria-label="Victor">
  <!-- Victor mark: many providers / modalities converge into one contract-first framework.
       - rounded indigo tile (brand)
       - converging strokes form the "V" funnelling to a single point (24 providers -> one)
       - bracket frame = contract-first
       - linked node triad = multi-agent teams -->
  <defs>
    <linearGradient id="vbg" x1="0" y1="0" x2="1" y2="1">
      <stop offset="0" stop-color="#6366f1"/>
      <stop offset="1" stop-color="#4f46e5"/>
    </linearGradient>
  </defs>

  <rect width="128" height="128" rx="26" fill="url(#vbg)"/>

  <!-- contract-first brackets -->
  <g fill="none" stroke="#c7d2fe" stroke-width="3" stroke-linecap="round" stroke-linejoin="round" opacity="0.55">
    <path d="M32 28 H22 V100 H32"/>
    <path d="M96 28 H106 V100 H96"/>
  </g>

  <!-- converging paths -> the V -->
  <g fill="none" stroke="#ffffff" stroke-linecap="round" stroke-linejoin="round">
    <path d="M30 36 L64 86" stroke-width="4" opacity="0.65"/>
    <path d="M98 36 L64 86" stroke-width="4" opacity="0.65"/>
    <path d="M42 33 L64 86" stroke-width="6"/>
    <path d="M86 33 L64 86" stroke-width="6"/>
    <path d="M54 32 L64 86" stroke-width="6"/>
    <path d="M74 32 L64 86" stroke-width="6"/>
  </g>

  <!-- convergence point -->
  <circle cx="64" cy="87" r="6" fill="#ffffff"/>

  <!-- multi-agent node triad -->
  <g stroke="#a5b4fc" stroke-width="2" opacity="0.7">
    <line x1="50" y1="105" x2="64" y2="110"/>
    <line x1="64" y1="110" x2="78" y2="105"/>
  </g>
  <g fill="#a5b4fc">
    <circle cx="50" cy="105" r="4"/>
    <circle cx="64" cy="110" r="4.5"/>
    <circle cx="78" cy="105" r="4"/>
  </g>
</svg>
