<?xml version="1.0" encoding="UTF-8" standalone="no"?>
<!DOCTYPE svg PUBLIC "-//W3C//DTD SVG 1.1//EN"
 "http://www.w3.org/Graphics/SVG/1.1/DTD/svg11.dtd">
<!-- Generated by graphviz version 14.0.4 (20251115.1723)
 -->
<!-- Title: workflow Pages: 1 -->
<svg width="462pt" height="1243pt"
 viewBox="0.00 0.00 462.00 1243.00" xmlns="http://www.w3.org/2000/svg" xmlns:xlink="http://www.w3.org/1999/xlink">
<g id="graph0" class="graph" transform="scale(1 1) rotate(0) translate(4 1239.25)">
<title>workflow</title>
<polygon fill="white" stroke="none" points="-4,4 -4,-1239.25 457.9,-1239.25 457.9,4 -4,4"/>
<text xml:space="preserve" text-anchor="middle" x="226.95" y="-1217.95" font-family="Times,serif" font-size="14.00">live_code_bench</text>
<!-- parse_task -->
<g id="node1" class="node">
<title>parse_task</title>
<path fill="#e3f2fd" stroke="black" d="M321.75,-1210.75C321.75,-1210.75 182.75,-1210.75 182.75,-1210.75 176.75,-1210.75 170.75,-1204.75 170.75,-1198.75 170.75,-1198.75 170.75,-1169.75 170.75,-1169.75 170.75,-1163.75 176.75,-1157.75 182.75,-1157.75 182.75,-1157.75 321.75,-1157.75 321.75,-1157.75 327.75,-1157.75 333.75,-1163.75 333.75,-1169.75 333.75,-1169.75 333.75,-1198.75 333.75,-1198.75 333.75,-1204.75 327.75,-1210.75 321.75,-1210.75"/>
<text xml:space="preserve" text-anchor="middle" x="252.25" y="-1193.45" font-family="Helvetica,sans-Serif" font-size="14.00">Parse Task Specification</text>
<text xml:space="preserve" text-anchor="middle" x="252.25" y="-1178.45" font-family="Helvetica,sans-Serif" font-size="14.00">(agent)</text>
<text xml:space="preserve" text-anchor="middle" x="252.25" y="-1163.45" font-family="Helvetica,sans-Serif" font-size="14.00">role: analyst</text>
</g>
<!-- setup_environment -->
<g id="node2" class="node">
<title>setup_environment</title>
<polygon fill="#e8f5e9" stroke="black" points="453.9,-1120.75 133.12,-1120.75 50.6,-924.75 371.38,-924.75 453.9,-1120.75"/>
<text xml:space="preserve" text-anchor="middle" x="252.25" y="-1054.45" font-family="Helvetica,sans-Serif" font-size="14.00">Setup Execution Environment</text>
<text xml:space="preserve" text-anchor="middle" x="252.25" y="-1039.45" font-family="Helvetica,sans-Serif" font-size="14.00">(compute)</text>
<text xml:space="preserve" text-anchor="middle" x="252.25" y="-1024.45" font-family="Helvetica,sans-Serif" font-size="14.00">exec: in&#45;process</text>
<text xml:space="preserve" text-anchor="middle" x="252.25" y="-1009.45" font-family="Helvetica,sans-Serif" font-size="14.00">handler: environment_setup</text>
<text xml:space="preserve" text-anchor="middle" x="252.25" y="-994.45" font-family="Helvetica,sans-Serif" font-size="14.00">blocked: [llm, write]</text>
<text xml:space="preserve" text-anchor="middle" x="252.25" y="-979.45" font-family="Helvetica,sans-Serif" font-size="14.00">timeout: 60s</text>
</g>
<!-- parse_task&#45;&gt;setup_environment -->
<g id="edge1" class="edge">
<title>parse_task&#45;&gt;setup_environment</title>
<path fill="none" stroke="black" d="M252.25,-1157.27C252.25,-1149.93 252.25,-1141.45 252.25,-1132.39"/>
<polygon fill="black" stroke="black" points="255.75,-1132.61 252.25,-1122.61 248.75,-1132.61 255.75,-1132.61"/>
</g>
<!-- plan_solution -->
<g id="node3" class="node">
<title>plan_solution</title>
<path fill="#e3f2fd" stroke="black" d="M288,-887.75C288,-887.75 216.5,-887.75 216.5,-887.75 210.5,-887.75 204.5,-881.75 204.5,-875.75 204.5,-875.75 204.5,-846.75 204.5,-846.75 204.5,-840.75 210.5,-834.75 216.5,-834.75 216.5,-834.75 288,-834.75 288,-834.75 294,-834.75 300,-840.75 300,-846.75 300,-846.75 300,-875.75 300,-875.75 300,-881.75 294,-887.75 288,-887.75"/>
<text xml:space="preserve" text-anchor="middle" x="252.25" y="-870.45" font-family="Helvetica,sans-Serif" font-size="14.00">Plan Solution</text>
<text xml:space="preserve" text-anchor="middle" x="252.25" y="-855.45" font-family="Helvetica,sans-Serif" font-size="14.00">(agent)</text>
<text xml:space="preserve" text-anchor="middle" x="252.25" y="-840.45" font-family="Helvetica,sans-Serif" font-size="14.00">role: planner</text>
</g>
<!-- setup_environment&#45;&gt;plan_solution -->
<g id="edge2" class="edge">
<title>setup_environment&#45;&gt;plan_solution</title>
<path fill="none" stroke="black" d="M252.25,-924.37C252.25,-915.61 252.25,-907.14 252.25,-899.42"/>
<polygon fill="black" stroke="black" points="255.75,-899.49 252.25,-889.49 248.75,-899.49 255.75,-899.49"/>
</g>
<!-- generate_code -->
<g id="node4" class="node">
<title>generate_code</title>
<path fill="#e3f2fd" stroke="black" d="M321,-797.75C321,-797.75 183.5,-797.75 183.5,-797.75 177.5,-797.75 171.5,-791.75 171.5,-785.75 171.5,-785.75 171.5,-756.75 171.5,-756.75 171.5,-750.75 177.5,-744.75 183.5,-744.75 183.5,-744.75 321,-744.75 321,-744.75 327,-744.75 333,-750.75 333,-756.75 333,-756.75 333,-785.75 333,-785.75 333,-791.75 327,-797.75 321,-797.75"/>
<text xml:space="preserve" text-anchor="middle" x="252.25" y="-780.45" font-family="Helvetica,sans-Serif" font-size="14.00">Generate Solution Code</text>
<text xml:space="preserve" text-anchor="middle" x="252.25" y="-765.45" font-family="Helvetica,sans-Serif" font-size="14.00">(agent)</text>
<text xml:space="preserve" text-anchor="middle" x="252.25" y="-750.45" font-family="Helvetica,sans-Serif" font-size="14.00">role: executor</text>
</g>
<!-- plan_solution&#45;&gt;generate_code -->
<g id="edge3" class="edge">
<title>plan_solution&#45;&gt;generate_code</title>
<path fill="none" stroke="black" d="M252.25,-834.32C252.25,-826.54 252.25,-817.83 252.25,-809.47"/>
<polygon fill="black" stroke="black" points="255.75,-809.51 252.25,-799.51 248.75,-809.51 255.75,-809.51"/>
</g>
<!-- execute_live -->
<g id="node5" class="node">
<title>execute_live</title>
<polygon fill="#e8f5e9" stroke="black" points="405.69,-707.75 161.6,-707.75 98.81,-511.75 342.9,-511.75 405.69,-707.75"/>
<text xml:space="preserve" text-anchor="middle" x="252.25" y="-641.45" font-family="Helvetica,sans-Serif" font-size="14.00">Execute Code Live</text>
<text xml:space="preserve" text-anchor="middle" x="252.25" y="-626.45" font-family="Helvetica,sans-Serif" font-size="14.00">(compute)</text>
<text xml:space="preserve" text-anchor="middle" x="252.25" y="-611.45" font-family="Helvetica,sans-Serif" font-size="14.00">exec: in&#45;process</text>
<text xml:space="preserve" text-anchor="middle" x="252.25" y="-596.45" font-family="Helvetica,sans-Serif" font-size="14.00">handler: live_executor</text>
<text xml:space="preserve" text-anchor="middle" x="252.25" y="-581.45" font-family="Helvetica,sans-Serif" font-size="14.00">blocked: [llm, write]</text>
<text xml:space="preserve" text-anchor="middle" x="252.25" y="-566.45" font-family="Helvetica,sans-Serif" font-size="14.00">timeout: 60s</text>
</g>
<!-- generate_code&#45;&gt;execute_live -->
<g id="edge4" class="edge">
<title>generate_code&#45;&gt;execute_live</title>
<path fill="none" stroke="black" d="M252.25,-744.27C252.25,-736.93 252.25,-728.45 252.25,-719.39"/>
<polygon fill="black" stroke="black" points="255.75,-719.61 252.25,-709.61 248.75,-719.61 255.75,-719.61"/>
</g>
<!-- check_execution -->
<g id="node6" class="node">
<title>check_execution</title>
<polygon fill="#fff3e0" stroke="black" points="159.25,-474.75 0,-436.75 159.25,-398.75 318.5,-436.75 159.25,-474.75"/>
<text xml:space="preserve" text-anchor="middle" x="159.25" y="-438.45" font-family="Helvetica,sans-Serif" font-size="14.00">Check Execution Result</text>
<text xml:space="preserve" text-anchor="middle" x="159.25" y="-423.45" font-family="Helvetica,sans-Serif" font-size="14.00">(condition)</text>
</g>
<!-- execute_live&#45;&gt;check_execution -->
<g id="edge5" class="edge">
<title>execute_live&#45;&gt;check_execution</title>
<path fill="none" stroke="black" d="M199.23,-511.26C193.42,-500.58 187.75,-490.15 182.58,-480.66"/>
<polygon fill="black" stroke="black" points="185.78,-479.2 177.93,-472.09 179.63,-482.55 185.78,-479.2"/>
</g>
<!-- analyze_error -->
<g id="node7" class="node">
<title>analyze_error</title>
<path fill="#e3f2fd" stroke="black" d="M218.62,-351.5C218.62,-351.5 81.88,-351.5 81.88,-351.5 75.88,-351.5 69.88,-345.5 69.88,-339.5 69.88,-339.5 69.88,-310.5 69.88,-310.5 69.88,-304.5 75.88,-298.5 81.88,-298.5 81.88,-298.5 218.62,-298.5 218.62,-298.5 224.62,-298.5 230.62,-304.5 230.62,-310.5 230.62,-310.5 230.62,-339.5 230.62,-339.5 230.62,-345.5 224.62,-351.5 218.62,-351.5"/>
<text xml:space="preserve" text-anchor="middle" x="150.25" y="-334.2" font-family="Helvetica,sans-Serif" font-size="14.00">Analyze Execution Error</text>
<text xml:space="preserve" text-anchor="middle" x="150.25" y="-319.2" font-family="Helvetica,sans-Serif" font-size="14.00">(agent)</text>
<text xml:space="preserve" text-anchor="middle" x="150.25" y="-304.2" font-family="Helvetica,sans-Serif" font-size="14.00">role: analyst</text>
</g>
<!-- check_execution&#45;&gt;analyze_error -->
<g id="edge7" class="edge">
<title>check_execution&#45;&gt;analyze_error</title>
<path fill="none" stroke="black" stroke-dasharray="5,2" d="M123.46,-406.89C116.35,-399.22 109.89,-390.36 106,-380.75 103.23,-373.91 104.23,-367.25 107.37,-361.07"/>
<polygon fill="black" stroke="black" points="110.13,-363.23 112.98,-353.03 104.39,-359.23 110.13,-363.23"/>
<text xml:space="preserve" text-anchor="middle" x="117.62" y="-371.25" font-family="Helvetica,sans-Serif" font-size="10.00">failed</text>
</g>
<!-- check_execution&#45;&gt;analyze_error -->
<g id="edge8" class="edge">
<title>check_execution&#45;&gt;analyze_error</title>
<path fill="none" stroke="black" stroke-dasharray="5,2" d="M153.98,-399.71C153.21,-393.4 152.5,-386.89 152,-380.75 151.53,-375.03 151.19,-368.97 150.94,-363.04"/>
<polygon fill="black" stroke="black" points="154.45,-363.32 150.6,-353.44 147.45,-363.56 154.45,-363.32"/>
<text xml:space="preserve" text-anchor="middle" x="168.12" y="-371.25" font-family="Helvetica,sans-Serif" font-size="10.00">timeout</text>
</g>
<!-- check_execution&#45;&gt;analyze_error -->
<g id="edge9" class="edge">
<title>check_execution&#45;&gt;analyze_error</title>
<path fill="none" stroke="black" stroke-dasharray="5,2" d="M180.84,-403.54C185.54,-392.76 188.09,-380.66 184.25,-369.5 183.32,-366.8 182.15,-364.15 180.8,-361.56"/>
<polygon fill="black" stroke="black" points="183.91,-359.92 175.69,-353.24 177.95,-363.59 183.91,-359.92"/>
<text xml:space="preserve" text-anchor="middle" x="214.61" y="-371.25" font-family="Helvetica,sans-Serif" font-size="10.00">runtime_error</text>
</g>
<!-- submit_solution -->
<g id="node11" class="node">
<title>submit_solution</title>
<polygon fill="#eceff1" stroke="black" points="302.88,-120.5 191.62,-120.5 191.62,-82.5 302.88,-82.5 302.88,-120.5"/>
<text xml:space="preserve" text-anchor="middle" x="247.25" y="-103.2" font-family="Helvetica,sans-Serif" font-size="14.00">Submit Solution</text>
<text xml:space="preserve" text-anchor="middle" x="247.25" y="-88.2" font-family="Helvetica,sans-Serif" font-size="14.00">(transform)</text>
</g>
<!-- check_execution&#45;&gt;submit_solution -->
<g id="edge6" class="edge">
<title>check_execution&#45;&gt;submit_solution</title>
<path fill="none" stroke="black" stroke-dasharray="5,2" d="M214.55,-411.66C227.2,-403.61 239.26,-393.39 247.25,-380.75 300.71,-296.24 267.46,-257.09 273.25,-157.25 273.54,-152.26 274.58,-150.82 273.25,-146 271.8,-140.76 269.54,-135.52 266.94,-130.58"/>
<polygon fill="black" stroke="black" points="270.14,-129.12 262.06,-122.27 264.11,-132.67 270.14,-129.12"/>
<text xml:space="preserve" text-anchor="middle" x="293.96" y="-271" font-family="Helvetica,sans-Serif" font-size="10.00">passed</text>
</g>
<!-- should_retry -->
<g id="node8" class="node">
<title>should_retry</title>
<polygon fill="#fff3e0" stroke="black" points="144.25,-251.25 50.25,-213.25 144.25,-175.25 238.25,-213.25 144.25,-251.25"/>
<text xml:space="preserve" text-anchor="middle" x="144.25" y="-214.95" font-family="Helvetica,sans-Serif" font-size="14.00">Should Retry</text>
<text xml:space="preserve" text-anchor="middle" x="144.25" y="-199.95" font-family="Helvetica,sans-Serif" font-size="14.00">(condition)</text>
</g>
<!-- analyze_error&#45;&gt;should_retry -->
<g id="edge10" class="edge">
<title>analyze_error&#45;&gt;should_retry</title>
<path fill="none" stroke="black" d="M148.84,-298.27C148.25,-287.4 147.54,-274.39 146.85,-261.89"/>
<polygon fill="black" stroke="black" points="150.36,-261.93 146.32,-252.13 143.37,-262.31 150.36,-261.93"/>
</g>
<!-- refine_code -->
<g id="node9" class="node">
<title>refine_code</title>
<path fill="#e3f2fd" stroke="black" d="M127.12,-128C127.12,-128 53.38,-128 53.38,-128 47.37,-128 41.38,-122 41.38,-116 41.38,-116 41.38,-87 41.38,-87 41.38,-81 47.38,-75 53.38,-75 53.38,-75 127.12,-75 127.12,-75 133.12,-75 139.12,-81 139.12,-87 139.12,-87 139.12,-116 139.12,-116 139.12,-122 133.12,-128 127.12,-128"/>
<text xml:space="preserve" text-anchor="middle" x="90.25" y="-110.7" font-family="Helvetica,sans-Serif" font-size="14.00">Refine Code</text>
<text xml:space="preserve" text-anchor="middle" x="90.25" y="-95.7" font-family="Helvetica,sans-Serif" font-size="14.00">(agent)</text>
<text xml:space="preserve" text-anchor="middle" x="90.25" y="-80.7" font-family="Helvetica,sans-Serif" font-size="14.00">role: executor</text>
</g>
<!-- should_retry&#45;&gt;refine_code -->
<g id="edge11" class="edge">
<title>should_retry&#45;&gt;refine_code</title>
<path fill="none" stroke="black" stroke-dasharray="5,2" d="M97.03,-194.22C81.07,-185.59 65.02,-173.51 56,-157.25 52.5,-150.95 52.92,-144.35 55.51,-138.02"/>
<polygon fill="black" stroke="black" points="58.37,-140.06 60.36,-129.65 52.32,-136.55 58.37,-140.06"/>
<text xml:space="preserve" text-anchor="middle" x="88.62" y="-147.75" font-family="Helvetica,sans-Serif" font-size="10.00">continue_fixing</text>
</g>
<!-- should_retry&#45;&gt;submit_solution -->
<g id="edge12" class="edge">
<title>should_retry&#45;&gt;submit_solution</title>
<path fill="none" stroke="black" stroke-dasharray="5,2" d="M137.1,-177.75C136.62,-166.82 138.15,-155.2 144.25,-146 152.93,-132.92 166.4,-123.76 180.77,-117.35"/>
<polygon fill="black" stroke="black" points="181.93,-120.66 189.94,-113.71 179.35,-114.15 181.93,-120.66"/>
<text xml:space="preserve" text-anchor="middle" x="184.75" y="-147.75" font-family="Helvetica,sans-Serif" font-size="10.00">submit_best_effort</text>
</g>
<!-- should_retry&#45;&gt;submit_solution -->
<g id="edge13" class="edge">
<title>should_retry&#45;&gt;submit_solution</title>
<path fill="none" stroke="black" stroke-dasharray="5,2" d="M184.69,-191.41C199.01,-182.45 214.27,-170.88 225.25,-157.25 231.26,-149.79 235.81,-140.47 239.18,-131.65"/>
<polygon fill="black" stroke="black" points="242.43,-132.95 242.33,-122.36 235.8,-130.7 242.43,-132.95"/>
<text xml:space="preserve" text-anchor="middle" x="250.71" y="-147.75" font-family="Helvetica,sans-Serif" font-size="10.00">escalate</text>
</g>
<!-- increment_iteration -->
<g id="node10" class="node">
<title>increment_iteration</title>
<polygon fill="#eceff1" stroke="black" points="299.88,-38 170.62,-38 170.62,0 299.88,0 299.88,-38"/>
<text xml:space="preserve" text-anchor="middle" x="235.25" y="-20.7" font-family="Helvetica,sans-Serif" font-size="14.00">Increment Iteration</text>
<text xml:space="preserve" text-anchor="middle" x="235.25" y="-5.7" font-family="Helvetica,sans-Serif" font-size="14.00">(transform)</text>
</g>
<!-- refine_code&#45;&gt;increment_iteration -->
<g id="edge14" class="edge">
<title>refine_code&#45;&gt;increment_iteration</title>
<path fill="none" stroke="black" d="M136.93,-74.59C154.64,-64.75 174.73,-53.6 192.1,-43.95"/>
<polygon fill="black" stroke="black" points="193.62,-47.12 200.66,-39.2 190.22,-41 193.62,-47.12"/>
</g>
<!-- increment_iteration&#45;&gt;execute_live -->
<g id="edge15" class="edge">
<title>increment_iteration&#45;&gt;execute_live</title>
<path fill="none" stroke="black" d="M293.03,-38.44C320,-51.01 346.25,-70.86 346.25,-100.5 346.25,-437.75 346.25,-437.75 346.25,-437.75 346.25,-459.39 340.4,-480.87 331.62,-500.93"/>
<polygon fill="black" stroke="black" points="328.48,-499.37 327.41,-509.91 334.82,-502.34 328.48,-499.37"/>
</g>
</g>
</svg>
