<?xml version="1.0" encoding="UTF-8" standalone="no"?>
<!DOCTYPE svg PUBLIC "-//W3C//DTD SVG 1.1//EN"
 "http://www.w3.org/Graphics/SVG/1.1/DTD/svg11.dtd">
<!-- Generated by graphviz version 14.0.4 (20251115.1723)
 -->
<!-- Title: workflow Pages: 1 -->
<svg width="354pt" height="890pt"
 viewBox="0.00 0.00 354.00 890.00" xmlns="http://www.w3.org/2000/svg" xmlns:xlink="http://www.w3.org/1999/xlink">
<g id="graph0" class="graph" transform="scale(1 1) rotate(0) translate(4 886.25)">
<title>workflow</title>
<polygon fill="white" stroke="none" points="-4,4 -4,-886.25 350.15,-886.25 350.15,4 -4,4"/>
<text xml:space="preserve" text-anchor="middle" x="173.08" y="-864.95" font-family="Times,serif" font-size="14.00">multi_function</text>
<!-- analyze_requirements -->
<g id="node1" class="node">
<title>analyze_requirements</title>
<path fill="#e3f2fd" stroke="black" d="M278.62,-857.75C278.62,-857.75 150.12,-857.75 150.12,-857.75 144.12,-857.75 138.12,-851.75 138.12,-845.75 138.12,-845.75 138.12,-816.75 138.12,-816.75 138.12,-810.75 144.12,-804.75 150.12,-804.75 150.12,-804.75 278.62,-804.75 278.62,-804.75 284.62,-804.75 290.62,-810.75 290.62,-816.75 290.62,-816.75 290.62,-845.75 290.62,-845.75 290.62,-851.75 284.62,-857.75 278.62,-857.75"/>
<text xml:space="preserve" text-anchor="middle" x="214.38" y="-840.45" font-family="Helvetica,sans-Serif" font-size="14.00">Analyze Requirements</text>
<text xml:space="preserve" text-anchor="middle" x="214.38" y="-825.45" font-family="Helvetica,sans-Serif" font-size="14.00">(agent)</text>
<text xml:space="preserve" text-anchor="middle" x="214.38" y="-810.45" font-family="Helvetica,sans-Serif" font-size="14.00">role: analyst</text>
</g>
<!-- parallel_generate -->
<g id="node2" class="node">
<title>parallel_generate</title>
<polygon fill="#f3e5f5" stroke="black" points="282,-763.75 146.75,-763.75 146.75,-725.75 282,-725.75 282,-763.75"/>
<polygon fill="none" stroke="black" points="286,-767.75 142.75,-767.75 142.75,-721.75 286,-721.75 286,-767.75"/>
<text xml:space="preserve" text-anchor="middle" x="214.38" y="-746.45" font-family="Helvetica,sans-Serif" font-size="14.00">Generate Functions</text>
<text xml:space="preserve" text-anchor="middle" x="214.38" y="-731.45" font-family="Helvetica,sans-Serif" font-size="14.00">(parallel)</text>
</g>
<!-- analyze_requirements&#45;&gt;parallel_generate -->
<g id="edge1" class="edge">
<title>analyze_requirements&#45;&gt;parallel_generate</title>
<path fill="none" stroke="black" d="M214.38,-804.44C214.38,-796.52 214.38,-787.69 214.38,-779.33"/>
<polygon fill="black" stroke="black" points="217.88,-779.49 214.38,-769.49 210.88,-779.49 217.88,-779.49"/>
</g>
<!-- generate_helpers -->
<g id="node3" class="node">
<title>generate_helpers</title>
<path fill="#e3f2fd" stroke="black" d="M166.75,-674.5C166.75,-674.5 12,-674.5 12,-674.5 6,-674.5 0,-668.5 0,-662.5 0,-662.5 0,-633.5 0,-633.5 0,-627.5 6,-621.5 12,-621.5 12,-621.5 166.75,-621.5 166.75,-621.5 172.75,-621.5 178.75,-627.5 178.75,-633.5 178.75,-633.5 178.75,-662.5 178.75,-662.5 178.75,-668.5 172.75,-674.5 166.75,-674.5"/>
<text xml:space="preserve" text-anchor="middle" x="89.38" y="-657.2" font-family="Helvetica,sans-Serif" font-size="14.00">Generate Helper Functions</text>
<text xml:space="preserve" text-anchor="middle" x="89.38" y="-642.2" font-family="Helvetica,sans-Serif" font-size="14.00">(agent)</text>
<text xml:space="preserve" text-anchor="middle" x="89.38" y="-627.2" font-family="Helvetica,sans-Serif" font-size="14.00">role: executor</text>
</g>
<!-- parallel_generate&#45;&gt;generate_helpers -->
<g id="edge2" class="edge">
<title>parallel_generate&#45;&gt;generate_helpers</title>
<path fill="none" stroke="black" d="M184.75,-721.3C169.14,-709.46 149.69,-694.72 132.44,-681.64"/>
<polygon fill="black" stroke="black" points="134.94,-679.15 124.86,-675.9 130.71,-684.73 134.94,-679.15"/>
<text xml:space="preserve" text-anchor="middle" x="167.61" y="-694.25" font-family="Helvetica,sans-Serif" font-size="10.00">fork</text>
</g>
<!-- generate_main -->
<g id="node4" class="node">
<title>generate_main</title>
<path fill="#e3f2fd" stroke="black" d="M219.5,-574.25C219.5,-574.25 81.25,-574.25 81.25,-574.25 75.25,-574.25 69.25,-568.25 69.25,-562.25 69.25,-562.25 69.25,-533.25 69.25,-533.25 69.25,-527.25 75.25,-521.25 81.25,-521.25 81.25,-521.25 219.5,-521.25 219.5,-521.25 225.5,-521.25 231.5,-527.25 231.5,-533.25 231.5,-533.25 231.5,-562.25 231.5,-562.25 231.5,-568.25 225.5,-574.25 219.5,-574.25"/>
<text xml:space="preserve" text-anchor="middle" x="150.38" y="-556.95" font-family="Helvetica,sans-Serif" font-size="14.00">Generate Main Function</text>
<text xml:space="preserve" text-anchor="middle" x="150.38" y="-541.95" font-family="Helvetica,sans-Serif" font-size="14.00">(agent)</text>
<text xml:space="preserve" text-anchor="middle" x="150.38" y="-526.95" font-family="Helvetica,sans-Serif" font-size="14.00">role: executor</text>
</g>
<!-- parallel_generate&#45;&gt;generate_main -->
<g id="edge3" class="edge">
<title>parallel_generate&#45;&gt;generate_main</title>
<path fill="none" stroke="black" d="M211.22,-721.64C207.28,-696.79 199.54,-655.47 187.38,-621.5 182.95,-609.14 176.88,-596.2 170.94,-584.72"/>
<polygon fill="black" stroke="black" points="174.07,-583.15 166.28,-575.98 167.89,-586.45 174.07,-583.15"/>
<text xml:space="preserve" text-anchor="middle" x="210.15" y="-644.12" font-family="Helvetica,sans-Serif" font-size="10.00">fork</text>
</g>
<!-- integrate_test -->
<g id="node5" class="node">
<title>integrate_test</title>
<polygon fill="#e8f5e9" stroke="black" points="346.15,-484.25 120.62,-484.25 62.6,-288.25 288.13,-288.25 346.15,-484.25"/>
<text xml:space="preserve" text-anchor="middle" x="204.38" y="-417.95" font-family="Helvetica,sans-Serif" font-size="14.00">Integrate and Test</text>
<text xml:space="preserve" text-anchor="middle" x="204.38" y="-402.95" font-family="Helvetica,sans-Serif" font-size="14.00">(compute)</text>
<text xml:space="preserve" text-anchor="middle" x="204.38" y="-387.95" font-family="Helvetica,sans-Serif" font-size="14.00">exec: in&#45;process</text>
<text xml:space="preserve" text-anchor="middle" x="204.38" y="-372.95" font-family="Helvetica,sans-Serif" font-size="14.00">handler: test_runner</text>
<text xml:space="preserve" text-anchor="middle" x="204.38" y="-357.95" font-family="Helvetica,sans-Serif" font-size="14.00">blocked: [llm, write]</text>
<text xml:space="preserve" text-anchor="middle" x="204.38" y="-342.95" font-family="Helvetica,sans-Serif" font-size="14.00">timeout: 120s</text>
</g>
<!-- parallel_generate&#45;&gt;integrate_test -->
<g id="edge4" class="edge">
<title>parallel_generate&#45;&gt;integrate_test</title>
<path fill="none" stroke="black" d="M220.68,-721.3C231.14,-681.13 250.02,-594.32 240.38,-521.25 239.28,-512.95 237.82,-504.43 236.11,-495.91"/>
<polygon fill="black" stroke="black" points="239.55,-495.25 234.04,-486.2 232.7,-496.71 239.55,-495.25"/>
<text xml:space="preserve" text-anchor="middle" x="249.55" y="-594" font-family="Helvetica,sans-Serif" font-size="10.00">join</text>
</g>
<!-- generate_helpers&#45;&gt;generate_main -->
<g id="edge5" class="edge">
<title>generate_helpers&#45;&gt;generate_main</title>
<path fill="none" stroke="black" d="M105.4,-621.19C112.42,-609.88 120.77,-596.43 128.36,-584.21"/>
<polygon fill="black" stroke="black" points="131.14,-586.36 133.44,-576.02 125.2,-582.67 131.14,-586.36"/>
</g>
<!-- generate_main&#45;&gt;integrate_test -->
<g id="edge6" class="edge">
<title>generate_main&#45;&gt;integrate_test</title>
<path fill="none" stroke="black" d="M159.17,-520.77C161.71,-513.26 164.65,-504.57 167.8,-495.29"/>
<polygon fill="black" stroke="black" points="171.04,-496.62 170.93,-486.03 164.41,-494.38 171.04,-496.62"/>
</g>
<!-- check_integration -->
<g id="node6" class="node">
<title>check_integration</title>
<polygon fill="#fff3e0" stroke="black" points="204.38,-251.25 82.63,-213.25 204.37,-175.25 326.12,-213.25 204.38,-251.25"/>
<text xml:space="preserve" text-anchor="middle" x="204.38" y="-214.95" font-family="Helvetica,sans-Serif" font-size="14.00">Check Integration</text>
<text xml:space="preserve" text-anchor="middle" x="204.38" y="-199.95" font-family="Helvetica,sans-Serif" font-size="14.00">(condition)</text>
</g>
<!-- integrate_test&#45;&gt;check_integration -->
<g id="edge7" class="edge">
<title>integrate_test&#45;&gt;check_integration</title>
<path fill="none" stroke="black" d="M204.38,-287.76C204.38,-279.29 204.38,-270.99 204.38,-263.18"/>
<polygon fill="black" stroke="black" points="207.88,-263.28 204.38,-253.28 200.88,-263.28 207.88,-263.28"/>
</g>
<!-- fix_integration -->
<g id="node7" class="node">
<title>fix_integration</title>
<path fill="#e3f2fd" stroke="black" d="M228.5,-128C228.5,-128 108.25,-128 108.25,-128 102.25,-128 96.25,-122 96.25,-116 96.25,-116 96.25,-87 96.25,-87 96.25,-81 102.25,-75 108.25,-75 108.25,-75 228.5,-75 228.5,-75 234.5,-75 240.5,-81 240.5,-87 240.5,-87 240.5,-116 240.5,-116 240.5,-122 234.5,-128 228.5,-128"/>
<text xml:space="preserve" text-anchor="middle" x="168.38" y="-110.7" font-family="Helvetica,sans-Serif" font-size="14.00">Fix Integration Issues</text>
<text xml:space="preserve" text-anchor="middle" x="168.38" y="-95.7" font-family="Helvetica,sans-Serif" font-size="14.00">(agent)</text>
<text xml:space="preserve" text-anchor="middle" x="168.38" y="-80.7" font-family="Helvetica,sans-Serif" font-size="14.00">role: executor</text>
</g>
<!-- check_integration&#45;&gt;fix_integration -->
<g id="edge9" class="edge">
<title>check_integration&#45;&gt;fix_integration</title>
<path fill="none" stroke="black" stroke-dasharray="5,2" d="M146.07,-192.98C129.88,-184.64 114.2,-173.06 104.88,-157.25 100.45,-149.75 101.56,-142.77 105.86,-136.47"/>
<polygon fill="black" stroke="black" points="108.17,-139.12 112.45,-129.42 103.06,-134.34 108.17,-139.12"/>
<text xml:space="preserve" text-anchor="middle" x="131.12" y="-147.75" font-family="Helvetica,sans-Serif" font-size="10.00">partial_pass</text>
</g>
<!-- check_integration&#45;&gt;fix_integration -->
<g id="edge10" class="edge">
<title>check_integration&#45;&gt;fix_integration</title>
<path fill="none" stroke="black" stroke-dasharray="5,2" d="M189.16,-179.77C186.07,-172.46 183.03,-164.67 180.62,-157.25 178.79,-151.6 177.14,-145.54 175.68,-139.59"/>
<polygon fill="black" stroke="black" points="179.1,-138.84 173.46,-129.87 172.28,-140.4 179.1,-138.84"/>
<text xml:space="preserve" text-anchor="middle" x="194.5" y="-147.75" font-family="Helvetica,sans-Serif" font-size="10.00">all_fail</text>
</g>
<!-- check_integration&#45;&gt;fix_integration -->
<g id="edge11" class="edge">
<title>check_integration&#45;&gt;fix_integration</title>
<path fill="none" stroke="black" stroke-dasharray="5,2" d="M211.96,-177.34C212.78,-166.96 212.18,-155.77 208.38,-146 207.26,-143.14 205.86,-140.36 204.26,-137.67"/>
<polygon fill="black" stroke="black" points="207.21,-135.78 198.58,-129.63 201.49,-139.82 207.21,-135.78"/>
<text xml:space="preserve" text-anchor="middle" x="220.95" y="-147.75" font-family="Helvetica,sans-Serif" font-size="10.00">error</text>
</g>
<!-- done -->
<g id="node8" class="node">
<title>done</title>
<polygon fill="#eceff1" stroke="black" points="263.75,-38 181,-38 181,0 263.75,0 263.75,-38"/>
<text xml:space="preserve" text-anchor="middle" x="222.38" y="-20.7" font-family="Helvetica,sans-Serif" font-size="14.00">Complete</text>
<text xml:space="preserve" text-anchor="middle" x="222.38" y="-5.7" font-family="Helvetica,sans-Serif" font-size="14.00">(transform)</text>
</g>
<!-- check_integration&#45;&gt;done -->
<g id="edge8" class="edge">
<title>check_integration&#45;&gt;done</title>
<path fill="none" stroke="black" stroke-dasharray="5,2" d="M225.5,-181.78C234.86,-166.41 244.78,-147.02 249.38,-128 254.9,-105.1 254.7,-97.95 249.38,-75 247.24,-65.82 243.35,-56.41 239.18,-48.02"/>
<polygon fill="black" stroke="black" points="242.36,-46.55 234.56,-39.38 236.19,-49.85 242.36,-46.55"/>
<text xml:space="preserve" text-anchor="middle" x="271.45" y="-97.62" font-family="Helvetica,sans-Serif" font-size="10.00">all_pass</text>
</g>
<!-- fix_integration&#45;&gt;done -->
<g id="edge12" class="edge">
<title>fix_integration&#45;&gt;done</title>
<path fill="none" stroke="black" d="M185.76,-74.59C191.49,-66.04 197.89,-56.5 203.72,-47.81"/>
<polygon fill="black" stroke="black" points="206.48,-49.98 209.14,-39.73 200.67,-46.08 206.48,-49.98"/>
</g>
</g>
</svg>
