<?xml version="1.0" encoding="UTF-8" standalone="no"?>
<!DOCTYPE svg PUBLIC "-//W3C//DTD SVG 1.1//EN"
 "http://www.w3.org/Graphics/SVG/1.1/DTD/svg11.dtd">
<!-- Generated by graphviz version 14.0.4 (20251115.1723)
 -->
<!-- Title: workflow Pages: 1 -->
<svg width="441pt" height="805pt"
 viewBox="0.00 0.00 441.00 805.00" xmlns="http://www.w3.org/2000/svg" xmlns:xlink="http://www.w3.org/1999/xlink">
<g id="graph0" class="graph" transform="scale(1 1) rotate(0) translate(4 801)">
<title>workflow</title>
<polygon fill="white" stroke="none" points="-4,4 -4,-801 437.25,-801 437.25,4 -4,4"/>
<text xml:space="preserve" text-anchor="middle" x="216.62" y="-779.7" font-family="Times,serif" font-size="14.00">passk_refined</text>
<!-- initial_generation -->
<g id="node1" class="node">
<title>initial_generation</title>
<path fill="#e3f2fd" stroke="black" d="M279.88,-772.5C279.88,-772.5 143.12,-772.5 143.12,-772.5 137.12,-772.5 131.12,-766.5 131.12,-760.5 131.12,-760.5 131.12,-731.5 131.12,-731.5 131.12,-725.5 137.12,-719.5 143.12,-719.5 143.12,-719.5 279.88,-719.5 279.88,-719.5 285.88,-719.5 291.88,-725.5 291.88,-731.5 291.88,-731.5 291.88,-760.5 291.88,-760.5 291.88,-766.5 285.88,-772.5 279.88,-772.5"/>
<text xml:space="preserve" text-anchor="middle" x="211.5" y="-755.2" font-family="Helvetica,sans-Serif" font-size="14.00">Generate Initial Solution</text>
<text xml:space="preserve" text-anchor="middle" x="211.5" y="-740.2" font-family="Helvetica,sans-Serif" font-size="14.00">(agent)</text>
<text xml:space="preserve" text-anchor="middle" x="211.5" y="-725.2" font-family="Helvetica,sans-Serif" font-size="14.00">role: executor</text>
</g>
<!-- test_solution -->
<g id="node2" class="node">
<title>test_solution</title>
<polygon fill="#e8f5e9" stroke="black" points="355.61,-682.5 126.36,-682.5 67.39,-486.5 296.64,-486.5 355.61,-682.5"/>
<text xml:space="preserve" text-anchor="middle" x="211.5" y="-616.2" font-family="Helvetica,sans-Serif" font-size="14.00">Test Solution</text>
<text xml:space="preserve" text-anchor="middle" x="211.5" y="-601.2" font-family="Helvetica,sans-Serif" font-size="14.00">(compute)</text>
<text xml:space="preserve" text-anchor="middle" x="211.5" y="-586.2" font-family="Helvetica,sans-Serif" font-size="14.00">exec: in&#45;process</text>
<text xml:space="preserve" text-anchor="middle" x="211.5" y="-571.2" font-family="Helvetica,sans-Serif" font-size="14.00">handler: code_tester</text>
<text xml:space="preserve" text-anchor="middle" x="211.5" y="-556.2" font-family="Helvetica,sans-Serif" font-size="14.00">blocked: [llm, write]</text>
<text xml:space="preserve" text-anchor="middle" x="211.5" y="-541.2" font-family="Helvetica,sans-Serif" font-size="14.00">timeout: 60s</text>
</g>
<!-- initial_generation&#45;&gt;test_solution -->
<g id="edge1" class="edge">
<title>initial_generation&#45;&gt;test_solution</title>
<path fill="none" stroke="black" d="M211.5,-719.02C211.5,-711.68 211.5,-703.2 211.5,-694.14"/>
<polygon fill="black" stroke="black" points="215,-694.36 211.5,-684.36 208,-694.36 215,-694.36"/>
</g>
<!-- check_tests -->
<g id="node3" class="node">
<title>check_tests</title>
<polygon fill="#fff3e0" stroke="black" points="131.5,-449.5 0,-411.5 131.5,-373.5 263,-411.5 131.5,-449.5"/>
<text xml:space="preserve" text-anchor="middle" x="131.5" y="-413.2" font-family="Helvetica,sans-Serif" font-size="14.00">Check Test Results</text>
<text xml:space="preserve" text-anchor="middle" x="131.5" y="-398.2" font-family="Helvetica,sans-Serif" font-size="14.00">(condition)</text>
</g>
<!-- test_solution&#45;&gt;check_tests -->
<g id="edge2" class="edge">
<title>test_solution&#45;&gt;check_tests</title>
<path fill="none" stroke="black" d="M165.89,-486.01C160.95,-475.44 156.12,-465.12 151.71,-455.71"/>
<polygon fill="black" stroke="black" points="154.99,-454.45 147.58,-446.88 148.65,-457.42 154.99,-454.45"/>
</g>
<!-- analyze_and_refine -->
<g id="node4" class="node">
<title>analyze_and_refine</title>
<path fill="#e3f2fd" stroke="black" d="M235,-326.25C235,-326.25 126,-326.25 126,-326.25 120,-326.25 114,-320.25 114,-314.25 114,-314.25 114,-285.25 114,-285.25 114,-279.25 120,-273.25 126,-273.25 126,-273.25 235,-273.25 235,-273.25 241,-273.25 247,-279.25 247,-285.25 247,-285.25 247,-314.25 247,-314.25 247,-320.25 241,-326.25 235,-326.25"/>
<text xml:space="preserve" text-anchor="middle" x="180.5" y="-308.95" font-family="Helvetica,sans-Serif" font-size="14.00">Analyze and Refine</text>
<text xml:space="preserve" text-anchor="middle" x="180.5" y="-293.95" font-family="Helvetica,sans-Serif" font-size="14.00">(agent)</text>
<text xml:space="preserve" text-anchor="middle" x="180.5" y="-278.95" font-family="Helvetica,sans-Serif" font-size="14.00">role: executor</text>
</g>
<!-- check_tests&#45;&gt;analyze_and_refine -->
<g id="edge4" class="edge">
<title>check_tests&#45;&gt;analyze_and_refine</title>
<path fill="none" stroke="black" stroke-dasharray="5,2" d="M148.04,-377.82C151.59,-370.53 155.25,-362.79 158.5,-355.5 161.17,-349.51 163.88,-343.08 166.45,-336.82"/>
<polygon fill="black" stroke="black" points="169.53,-338.53 170.03,-327.94 163.04,-335.91 169.53,-338.53"/>
<text xml:space="preserve" text-anchor="middle" x="174.61" y="-346" font-family="Helvetica,sans-Serif" font-size="10.00">failed</text>
</g>
<!-- check_tests&#45;&gt;analyze_and_refine -->
<g id="edge5" class="edge">
<title>check_tests&#45;&gt;analyze_and_refine</title>
<path fill="none" stroke="black" stroke-dasharray="5,2" d="M123.67,-375.58C122.91,-365.1 123.75,-353.84 128.25,-344.25 129.73,-341.09 131.56,-338.08 133.65,-335.23"/>
<polygon fill="black" stroke="black" points="136.17,-337.67 140.06,-327.81 130.88,-333.09 136.17,-337.67"/>
<text xml:space="preserve" text-anchor="middle" x="141.38" y="-346" font-family="Helvetica,sans-Serif" font-size="10.00">partial</text>
</g>
<!-- finalize -->
<g id="node7" class="node">
<title>finalize</title>
<polygon fill="#eceff1" stroke="black" points="270,-38 155,-38 155,0 270,0 270,-38"/>
<text xml:space="preserve" text-anchor="middle" x="212.5" y="-20.7" font-family="Helvetica,sans-Serif" font-size="14.00">Finalize Solution</text>
<text xml:space="preserve" text-anchor="middle" x="212.5" y="-5.7" font-family="Helvetica,sans-Serif" font-size="14.00">(transform)</text>
</g>
<!-- check_tests&#45;&gt;finalize -->
<g id="edge3" class="edge">
<title>check_tests&#45;&gt;finalize</title>
<path fill="none" stroke="black" stroke-dasharray="5,2" d="M109.75,-379.41C97.05,-358.24 83.5,-329.03 83.5,-300.75 83.5,-300.75 83.5,-300.75 83.5,-122.25 83.5,-85.34 116.33,-59.65 148.86,-43.25"/>
<polygon fill="black" stroke="black" points="150.03,-46.58 157.55,-39.11 147.01,-40.26 150.03,-46.58"/>
<text xml:space="preserve" text-anchor="middle" x="99.25" y="-213.38" font-family="Helvetica,sans-Serif" font-size="10.00">passed</text>
</g>
<!-- increment_refinement -->
<g id="node5" class="node">
<title>increment_refinement</title>
<polygon fill="#eceff1" stroke="black" points="263.5,-236.25 133.5,-236.25 133.5,-198.25 263.5,-198.25 263.5,-236.25"/>
<text xml:space="preserve" text-anchor="middle" x="198.5" y="-218.95" font-family="Helvetica,sans-Serif" font-size="14.00">Track Refinements</text>
<text xml:space="preserve" text-anchor="middle" x="198.5" y="-203.95" font-family="Helvetica,sans-Serif" font-size="14.00">(transform)</text>
</g>
<!-- analyze_and_refine&#45;&gt;increment_refinement -->
<g id="edge6" class="edge">
<title>analyze_and_refine&#45;&gt;increment_refinement</title>
<path fill="none" stroke="black" d="M186.29,-272.84C188.08,-264.84 190.07,-255.97 191.9,-247.75"/>
<polygon fill="black" stroke="black" points="195.27,-248.72 194.04,-238.2 188.44,-247.19 195.27,-248.72"/>
</g>
<!-- check_refinement_limit -->
<g id="node6" class="node">
<title>check_refinement_limit</title>
<polygon fill="#fff3e0" stroke="black" points="272.5,-161.25 111.75,-123.25 272.5,-85.25 433.25,-123.25 272.5,-161.25"/>
<text xml:space="preserve" text-anchor="middle" x="272.5" y="-124.95" font-family="Helvetica,sans-Serif" font-size="14.00">Check Refinement Limit</text>
<text xml:space="preserve" text-anchor="middle" x="272.5" y="-109.95" font-family="Helvetica,sans-Serif" font-size="14.00">(condition)</text>
</g>
<!-- increment_refinement&#45;&gt;check_refinement_limit -->
<g id="edge7" class="edge">
<title>increment_refinement&#45;&gt;check_refinement_limit</title>
<path fill="none" stroke="black" d="M213.12,-198.07C220.91,-188.39 230.81,-176.08 240.29,-164.29"/>
<polygon fill="black" stroke="black" points="242.93,-166.6 246.47,-156.62 237.47,-162.21 242.93,-166.6"/>
</g>
<!-- check_refinement_limit&#45;&gt;test_solution -->
<g id="edge8" class="edge">
<title>check_refinement_limit&#45;&gt;test_solution</title>
<path fill="none" stroke="black" stroke-dasharray="5,2" d="M283.11,-158.85C287.46,-175.95 291.5,-197.01 291.5,-216.25 291.5,-412.5 291.5,-412.5 291.5,-412.5 291.5,-433.85 286.32,-455.41 278.6,-475.69"/>
<polygon fill="black" stroke="black" points="275.43,-474.18 274.91,-484.76 281.91,-476.82 275.43,-474.18"/>
<text xml:space="preserve" text-anchor="middle" x="324.12" y="-295.88" font-family="Helvetica,sans-Serif" font-size="10.00">continue_fixing</text>
</g>
<!-- check_refinement_limit&#45;&gt;finalize -->
<g id="edge9" class="edge">
<title>check_refinement_limit&#45;&gt;finalize</title>
<path fill="none" stroke="black" stroke-dasharray="5,2" d="M264.24,-86.76C260.91,-76.37 256.42,-65.31 250.5,-56 248.39,-52.68 245.9,-49.45 243.23,-46.38"/>
<polygon fill="black" stroke="black" points="245.86,-44.07 236.41,-39.28 240.82,-48.92 245.86,-44.07"/>
<text xml:space="preserve" text-anchor="middle" x="296.52" y="-57.75" font-family="Helvetica,sans-Serif" font-size="10.00">submit_best_effort</text>
</g>
<!-- check_refinement_limit&#45;&gt;finalize -->
<g id="edge10" class="edge">
<title>check_refinement_limit&#45;&gt;finalize</title>
<path fill="none" stroke="black" stroke-dasharray="5,2" d="M230.76,-94.68C222.26,-86.9 214.47,-77.67 209.75,-67.25 207.27,-61.78 206.43,-55.58 206.5,-49.51"/>
<polygon fill="black" stroke="black" points="209.96,-50.02 207.41,-39.74 202.99,-49.37 209.96,-50.02"/>
<text xml:space="preserve" text-anchor="middle" x="228.12" y="-57.75" font-family="Helvetica,sans-Serif" font-size="10.00">escalate</text>
</g>
</g>
</svg>
