<?xml version="1.0" encoding="UTF-8" standalone="no"?>
<!DOCTYPE svg PUBLIC "-//W3C//DTD SVG 1.1//EN"
 "http://www.w3.org/Graphics/SVG/1.1/DTD/svg11.dtd">
<!-- Generated by graphviz version 14.0.4 (20251115.1723)
 -->
<!-- Title: workflow Pages: 1 -->
<svg width="444pt" height="917pt"
 viewBox="0.00 0.00 444.00 917.00" xmlns="http://www.w3.org/2000/svg" xmlns:xlink="http://www.w3.org/1999/xlink">
<g id="graph0" class="graph" transform="scale(1 1) rotate(0) translate(4 913)">
<title>workflow</title>
<polygon fill="white" stroke="none" points="-4,4 -4,-913 439.95,-913 439.95,4 -4,4"/>
<text xml:space="preserve" text-anchor="middle" x="217.98" y="-891.7" font-family="Times,serif" font-size="14.00">passk_generation</text>
<!-- parse_problem -->
<g id="node1" class="node">
<title>parse_problem</title>
<path fill="#e3f2fd" stroke="black" d="M235.98,-884.5C235.98,-884.5 153.98,-884.5 153.98,-884.5 147.98,-884.5 141.98,-878.5 141.98,-872.5 141.98,-872.5 141.98,-843.5 141.98,-843.5 141.98,-837.5 147.98,-831.5 153.98,-831.5 153.98,-831.5 235.98,-831.5 235.98,-831.5 241.98,-831.5 247.98,-837.5 247.98,-843.5 247.98,-843.5 247.98,-872.5 247.98,-872.5 247.98,-878.5 241.98,-884.5 235.98,-884.5"/>
<text xml:space="preserve" text-anchor="middle" x="194.98" y="-867.2" font-family="Helvetica,sans-Serif" font-size="14.00">Parse Problem</text>
<text xml:space="preserve" text-anchor="middle" x="194.98" y="-852.2" font-family="Helvetica,sans-Serif" font-size="14.00">(agent)</text>
<text xml:space="preserve" text-anchor="middle" x="194.98" y="-837.2" font-family="Helvetica,sans-Serif" font-size="14.00">role: analyst</text>
</g>
<!-- generate_solutions -->
<g id="node2" class="node">
<title>generate_solutions</title>
<polygon fill="#f3e5f5" stroke="black" points="267.48,-790.5 122.48,-790.5 122.48,-752.5 267.48,-752.5 267.48,-790.5"/>
<polygon fill="none" stroke="black" points="271.48,-794.5 118.48,-794.5 118.48,-748.5 271.48,-748.5 271.48,-794.5"/>
<text xml:space="preserve" text-anchor="middle" x="194.98" y="-773.2" font-family="Helvetica,sans-Serif" font-size="14.00">Generate K Solutions</text>
<text xml:space="preserve" text-anchor="middle" x="194.98" y="-758.2" font-family="Helvetica,sans-Serif" font-size="14.00">(parallel)</text>
</g>
<!-- parse_problem&#45;&gt;generate_solutions -->
<g id="edge1" class="edge">
<title>parse_problem&#45;&gt;generate_solutions</title>
<path fill="none" stroke="black" d="M194.98,-831.19C194.98,-823.27 194.98,-814.44 194.98,-806.08"/>
<polygon fill="black" stroke="black" points="198.48,-806.24 194.98,-796.24 191.48,-806.24 198.48,-806.24"/>
</g>
<!-- solution_1 -->
<g id="node3" class="node">
<title>solution_1</title>
<path fill="#e3f2fd" stroke="black" d="M124.48,-701.25C124.48,-701.25 21.48,-701.25 21.48,-701.25 15.48,-701.25 9.48,-695.25 9.48,-689.25 9.48,-689.25 9.48,-660.25 9.48,-660.25 9.48,-654.25 15.48,-648.25 21.48,-648.25 21.48,-648.25 124.48,-648.25 124.48,-648.25 130.48,-648.25 136.48,-654.25 136.48,-660.25 136.48,-660.25 136.48,-689.25 136.48,-689.25 136.48,-695.25 130.48,-701.25 124.48,-701.25"/>
<text xml:space="preserve" text-anchor="middle" x="72.98" y="-683.95" font-family="Helvetica,sans-Serif" font-size="14.00">Solution Attempt 1</text>
<text xml:space="preserve" text-anchor="middle" x="72.98" y="-668.95" font-family="Helvetica,sans-Serif" font-size="14.00">(agent)</text>
<text xml:space="preserve" text-anchor="middle" x="72.98" y="-653.95" font-family="Helvetica,sans-Serif" font-size="14.00">role: executor</text>
</g>
<!-- generate_solutions&#45;&gt;solution_1 -->
<g id="edge2" class="edge">
<title>generate_solutions&#45;&gt;solution_1</title>
<path fill="none" stroke="black" d="M165.48,-748.16C157.96,-742.43 149.91,-736.25 142.48,-730.5 133.37,-723.44 123.63,-715.82 114.42,-708.57"/>
<polygon fill="black" stroke="black" points="116.63,-705.86 106.61,-702.42 112.3,-711.36 116.63,-705.86"/>
<text xml:space="preserve" text-anchor="middle" x="150.73" y="-721" font-family="Helvetica,sans-Serif" font-size="10.00">fork</text>
</g>
<!-- solution_2 -->
<g id="node4" class="node">
<title>solution_2</title>
<path fill="#e3f2fd" stroke="black" d="M177.48,-601C177.48,-601 74.48,-601 74.48,-601 68.48,-601 62.48,-595 62.48,-589 62.48,-589 62.48,-560 62.48,-560 62.48,-554 68.48,-548 74.48,-548 74.48,-548 177.48,-548 177.48,-548 183.48,-548 189.48,-554 189.48,-560 189.48,-560 189.48,-589 189.48,-589 189.48,-595 183.48,-601 177.48,-601"/>
<text xml:space="preserve" text-anchor="middle" x="125.98" y="-583.7" font-family="Helvetica,sans-Serif" font-size="14.00">Solution Attempt 2</text>
<text xml:space="preserve" text-anchor="middle" x="125.98" y="-568.7" font-family="Helvetica,sans-Serif" font-size="14.00">(agent)</text>
<text xml:space="preserve" text-anchor="middle" x="125.98" y="-553.7" font-family="Helvetica,sans-Serif" font-size="14.00">role: executor</text>
</g>
<!-- generate_solutions&#45;&gt;solution_2 -->
<g id="edge3" class="edge">
<title>generate_solutions&#45;&gt;solution_2</title>
<path fill="none" stroke="black" d="M187.06,-748.13C175.28,-714.85 153.02,-651.92 138.87,-611.93"/>
<polygon fill="black" stroke="black" points="142.25,-610.99 135.61,-602.73 135.65,-613.33 142.25,-610.99"/>
<text xml:space="preserve" text-anchor="middle" x="177.83" y="-670.88" font-family="Helvetica,sans-Serif" font-size="10.00">fork</text>
</g>
<!-- solution_3 -->
<g id="node5" class="node">
<title>solution_3</title>
<path fill="#e3f2fd" stroke="black" d="M223.48,-511C223.48,-511 120.48,-511 120.48,-511 114.48,-511 108.48,-505 108.48,-499 108.48,-499 108.48,-470 108.48,-470 108.48,-464 114.48,-458 120.48,-458 120.48,-458 223.48,-458 223.48,-458 229.48,-458 235.48,-464 235.48,-470 235.48,-470 235.48,-499 235.48,-499 235.48,-505 229.48,-511 223.48,-511"/>
<text xml:space="preserve" text-anchor="middle" x="171.98" y="-493.7" font-family="Helvetica,sans-Serif" font-size="14.00">Solution Attempt 3</text>
<text xml:space="preserve" text-anchor="middle" x="171.98" y="-478.7" font-family="Helvetica,sans-Serif" font-size="14.00">(agent)</text>
<text xml:space="preserve" text-anchor="middle" x="171.98" y="-463.7" font-family="Helvetica,sans-Serif" font-size="14.00">role: executor</text>
</g>
<!-- generate_solutions&#45;&gt;solution_3 -->
<g id="edge4" class="edge">
<title>generate_solutions&#45;&gt;solution_3</title>
<path fill="none" stroke="black" d="M198.6,-748.09C204.44,-707.63 213.84,-619.89 198.98,-548 197.18,-539.31 194.11,-530.34 190.68,-522"/>
<polygon fill="black" stroke="black" points="193.88,-520.59 186.64,-512.86 187.48,-523.43 193.88,-520.59"/>
<text xml:space="preserve" text-anchor="middle" x="215.15" y="-620.75" font-family="Helvetica,sans-Serif" font-size="10.00">fork</text>
</g>
<!-- collect_solutions -->
<g id="node6" class="node">
<title>collect_solutions</title>
<polygon fill="#eceff1" stroke="black" points="276.23,-421 159.73,-421 159.73,-383 276.23,-383 276.23,-421"/>
<text xml:space="preserve" text-anchor="middle" x="217.98" y="-403.7" font-family="Helvetica,sans-Serif" font-size="14.00">Collect Solutions</text>
<text xml:space="preserve" text-anchor="middle" x="217.98" y="-388.7" font-family="Helvetica,sans-Serif" font-size="14.00">(transform)</text>
</g>
<!-- generate_solutions&#45;&gt;collect_solutions -->
<g id="edge5" class="edge">
<title>generate_solutions&#45;&gt;collect_solutions</title>
<path fill="none" stroke="black" d="M223.84,-748.06C242.75,-730.64 263.98,-704.65 263.98,-675.75 263.98,-675.75 263.98,-675.75 263.98,-483.5 263.98,-464.09 253.77,-445.1 242.97,-430.45"/>
<polygon fill="black" stroke="black" points="245.78,-428.35 236.83,-422.67 240.28,-432.69 245.78,-428.35"/>
<text xml:space="preserve" text-anchor="middle" x="271.48" y="-570.62" font-family="Helvetica,sans-Serif" font-size="10.00">join</text>
</g>
<!-- solution_1&#45;&gt;solution_2 -->
<g id="edge6" class="edge">
<title>solution_1&#45;&gt;solution_2</title>
<path fill="none" stroke="black" d="M86.9,-647.94C92.94,-636.74 100.11,-623.45 106.65,-611.32"/>
<polygon fill="black" stroke="black" points="109.58,-613.28 111.24,-602.81 103.41,-609.95 109.58,-613.28"/>
</g>
<!-- solution_2&#45;&gt;solution_3 -->
<g id="edge7" class="edge">
<title>solution_2&#45;&gt;solution_3</title>
<path fill="none" stroke="black" d="M139.53,-547.57C143.83,-539.34 148.67,-530.08 153.28,-521.28"/>
<polygon fill="black" stroke="black" points="156.29,-523.07 157.82,-512.58 150.09,-519.82 156.29,-523.07"/>
</g>
<!-- solution_3&#45;&gt;collect_solutions -->
<g id="edge8" class="edge">
<title>solution_3&#45;&gt;collect_solutions</title>
<path fill="none" stroke="black" d="M186.79,-457.59C191.57,-449.22 196.89,-439.91 201.76,-431.37"/>
<polygon fill="black" stroke="black" points="204.75,-433.2 206.67,-422.78 198.67,-429.73 204.75,-433.2"/>
</g>
<!-- validate_solutions -->
<g id="node7" class="node">
<title>validate_solutions</title>
<polygon fill="#e8f5e9" stroke="black" points="435.95,-346 89.2,-346 0,-150 346.75,-150 435.95,-346"/>
<text xml:space="preserve" text-anchor="middle" x="217.98" y="-279.7" font-family="Helvetica,sans-Serif" font-size="14.00">Validate All Solutions</text>
<text xml:space="preserve" text-anchor="middle" x="217.98" y="-264.7" font-family="Helvetica,sans-Serif" font-size="14.00">(compute)</text>
<text xml:space="preserve" text-anchor="middle" x="217.98" y="-249.7" font-family="Helvetica,sans-Serif" font-size="14.00">exec: in&#45;process</text>
<text xml:space="preserve" text-anchor="middle" x="217.98" y="-234.7" font-family="Helvetica,sans-Serif" font-size="14.00">handler: multi_solution_validator</text>
<text xml:space="preserve" text-anchor="middle" x="217.98" y="-219.7" font-family="Helvetica,sans-Serif" font-size="14.00">blocked: [llm, write]</text>
<text xml:space="preserve" text-anchor="middle" x="217.98" y="-204.7" font-family="Helvetica,sans-Serif" font-size="14.00">timeout: 180s</text>
</g>
<!-- collect_solutions&#45;&gt;validate_solutions -->
<g id="edge9" class="edge">
<title>collect_solutions&#45;&gt;validate_solutions</title>
<path fill="none" stroke="black" d="M217.98,-382.67C217.98,-375.68 217.98,-367.13 217.98,-357.75"/>
<polygon fill="black" stroke="black" points="221.48,-357.92 217.98,-347.92 214.48,-357.92 221.48,-357.92"/>
</g>
<!-- calculate_metrics -->
<g id="node8" class="node">
<title>calculate_metrics</title>
<polygon fill="#eceff1" stroke="black" points="281.48,-113 154.48,-113 154.48,-75 281.48,-75 281.48,-113"/>
<text xml:space="preserve" text-anchor="middle" x="217.98" y="-95.7" font-family="Helvetica,sans-Serif" font-size="14.00">Calculate Pass@k</text>
<text xml:space="preserve" text-anchor="middle" x="217.98" y="-80.7" font-family="Helvetica,sans-Serif" font-size="14.00">(transform)</text>
</g>
<!-- validate_solutions&#45;&gt;calculate_metrics -->
<g id="edge10" class="edge">
<title>validate_solutions&#45;&gt;calculate_metrics</title>
<path fill="none" stroke="black" d="M217.98,-149.88C217.98,-140.82 217.98,-132.2 217.98,-124.59"/>
<polygon fill="black" stroke="black" points="221.48,-124.7 217.98,-114.7 214.48,-124.7 221.48,-124.7"/>
</g>
<!-- format_output -->
<g id="node9" class="node">
<title>format_output</title>
<polygon fill="#eceff1" stroke="black" points="270.23,-38 165.73,-38 165.73,0 270.23,0 270.23,-38"/>
<text xml:space="preserve" text-anchor="middle" x="217.98" y="-20.7" font-family="Helvetica,sans-Serif" font-size="14.00">Format Output</text>
<text xml:space="preserve" text-anchor="middle" x="217.98" y="-5.7" font-family="Helvetica,sans-Serif" font-size="14.00">(transform)</text>
</g>
<!-- calculate_metrics&#45;&gt;format_output -->
<g id="edge11" class="edge">
<title>calculate_metrics&#45;&gt;format_output</title>
<path fill="none" stroke="black" d="M217.98,-74.58C217.98,-67.06 217.98,-58.17 217.98,-49.77"/>
<polygon fill="black" stroke="black" points="221.48,-49.93 217.98,-39.93 214.48,-49.93 221.48,-49.93"/>
</g>
</g>
</svg>
