<?xml version="1.0" encoding="UTF-8" standalone="no"?>
<!DOCTYPE svg PUBLIC "-//W3C//DTD SVG 1.1//EN"
 "http://www.w3.org/Graphics/SVG/1.1/DTD/svg11.dtd">
<!-- Generated by graphviz version 14.0.4 (20251115.1723)
 -->
<!-- Title: workflow Pages: 1 -->
<svg width="505pt" height="1044pt"
 viewBox="0.00 0.00 505.00 1044.00" xmlns="http://www.w3.org/2000/svg" xmlns:xlink="http://www.w3.org/1999/xlink">
<g id="graph0" class="graph" transform="scale(1 1) rotate(0) translate(4 1039.5)">
<title>workflow</title>
<polygon fill="white" stroke="none" points="-4,4 -4,-1039.5 500.88,-1039.5 500.88,4 -4,4"/>
<text xml:space="preserve" text-anchor="middle" x="248.44" y="-1018.2" font-family="Times,serif" font-size="14.00">big_code_bench</text>
<!-- understand_context -->
<g id="node1" class="node">
<title>understand_context</title>
<path fill="#e3f2fd" stroke="black" d="M324,-1011C324,-1011 146.75,-1011 146.75,-1011 140.75,-1011 134.75,-1005 134.75,-999 134.75,-999 134.75,-970 134.75,-970 134.75,-964 140.75,-958 146.75,-958 146.75,-958 324,-958 324,-958 330,-958 336,-964 336,-970 336,-970 336,-999 336,-999 336,-1005 330,-1011 324,-1011"/>
<text xml:space="preserve" text-anchor="middle" x="235.38" y="-993.7" font-family="Helvetica,sans-Serif" font-size="14.00">Understand Codebase Context</text>
<text xml:space="preserve" text-anchor="middle" x="235.38" y="-978.7" font-family="Helvetica,sans-Serif" font-size="14.00">(agent)</text>
<text xml:space="preserve" text-anchor="middle" x="235.38" y="-963.7" font-family="Helvetica,sans-Serif" font-size="14.00">role: researcher</text>
</g>
<!-- analyze_task -->
<g id="node2" class="node">
<title>analyze_task</title>
<path fill="#e3f2fd" stroke="black" d="M315.38,-921C315.38,-921 155.38,-921 155.38,-921 149.38,-921 143.38,-915 143.38,-909 143.38,-909 143.38,-880 143.38,-880 143.38,-874 149.38,-868 155.38,-868 155.38,-868 315.38,-868 315.38,-868 321.38,-868 327.38,-874 327.38,-880 327.38,-880 327.38,-909 327.38,-909 327.38,-915 321.38,-921 315.38,-921"/>
<text xml:space="preserve" text-anchor="middle" x="235.38" y="-903.7" font-family="Helvetica,sans-Serif" font-size="14.00">Analyze Task Requirements</text>
<text xml:space="preserve" text-anchor="middle" x="235.38" y="-888.7" font-family="Helvetica,sans-Serif" font-size="14.00">(agent)</text>
<text xml:space="preserve" text-anchor="middle" x="235.38" y="-873.7" font-family="Helvetica,sans-Serif" font-size="14.00">role: analyst</text>
</g>
<!-- understand_context&#45;&gt;analyze_task -->
<g id="edge1" class="edge">
<title>understand_context&#45;&gt;analyze_task</title>
<path fill="none" stroke="black" d="M235.38,-957.57C235.38,-949.79 235.38,-941.08 235.38,-932.72"/>
<polygon fill="black" stroke="black" points="238.88,-932.76 235.38,-922.76 231.88,-932.76 238.88,-932.76"/>
</g>
<!-- check_complexity -->
<g id="node3" class="node">
<title>check_complexity</title>
<polygon fill="#fff3e0" stroke="black" points="235.38,-831 78.38,-793 235.37,-755 392.38,-793 235.38,-831"/>
<text xml:space="preserve" text-anchor="middle" x="235.38" y="-794.7" font-family="Helvetica,sans-Serif" font-size="14.00">Check Task Complexity</text>
<text xml:space="preserve" text-anchor="middle" x="235.38" y="-779.7" font-family="Helvetica,sans-Serif" font-size="14.00">(condition)</text>
</g>
<!-- analyze_task&#45;&gt;check_complexity -->
<g id="edge2" class="edge">
<title>analyze_task&#45;&gt;check_complexity</title>
<path fill="none" stroke="black" d="M235.38,-867.62C235.38,-859.93 235.38,-851.25 235.38,-842.61"/>
<polygon fill="black" stroke="black" points="238.88,-842.88 235.38,-832.88 231.88,-842.88 238.88,-842.88"/>
</g>
<!-- direct_implementation -->
<g id="node4" class="node">
<title>direct_implementation</title>
<path fill="#e3f2fd" stroke="black" d="M136.75,-707.75C136.75,-707.75 12,-707.75 12,-707.75 6,-707.75 0,-701.75 0,-695.75 0,-695.75 0,-666.75 0,-666.75 0,-660.75 6,-654.75 12,-654.75 12,-654.75 136.75,-654.75 136.75,-654.75 142.75,-654.75 148.75,-660.75 148.75,-666.75 148.75,-666.75 148.75,-695.75 148.75,-695.75 148.75,-701.75 142.75,-707.75 136.75,-707.75"/>
<text xml:space="preserve" text-anchor="middle" x="74.38" y="-690.45" font-family="Helvetica,sans-Serif" font-size="14.00">Direct Implementation</text>
<text xml:space="preserve" text-anchor="middle" x="74.38" y="-675.45" font-family="Helvetica,sans-Serif" font-size="14.00">(agent)</text>
<text xml:space="preserve" text-anchor="middle" x="74.38" y="-660.45" font-family="Helvetica,sans-Serif" font-size="14.00">role: executor</text>
</g>
<!-- check_complexity&#45;&gt;direct_implementation -->
<g id="edge3" class="edge">
<title>check_complexity&#45;&gt;direct_implementation</title>
<path fill="none" stroke="black" stroke-dasharray="5,2" d="M195.16,-764.59C172.9,-749.41 145.09,-730.46 121.77,-714.56"/>
<polygon fill="black" stroke="black" points="123.9,-711.77 113.67,-709.03 119.96,-717.56 123.9,-711.77"/>
<text xml:space="preserve" text-anchor="middle" x="164.3" y="-727.5" font-family="Helvetica,sans-Serif" font-size="10.00">simple</text>
</g>
<!-- plan_then_implement -->
<g id="node5" class="node">
<title>plan_then_implement</title>
<path fill="#e3f2fd" stroke="black" d="M292.12,-707.75C292.12,-707.75 178.62,-707.75 178.62,-707.75 172.62,-707.75 166.62,-701.75 166.62,-695.75 166.62,-695.75 166.62,-666.75 166.62,-666.75 166.62,-660.75 172.62,-654.75 178.62,-654.75 178.62,-654.75 292.12,-654.75 292.12,-654.75 298.12,-654.75 304.12,-660.75 304.12,-666.75 304.12,-666.75 304.12,-695.75 304.12,-695.75 304.12,-701.75 298.12,-707.75 292.12,-707.75"/>
<text xml:space="preserve" text-anchor="middle" x="235.38" y="-690.45" font-family="Helvetica,sans-Serif" font-size="14.00">Plan and Implement</text>
<text xml:space="preserve" text-anchor="middle" x="235.38" y="-675.45" font-family="Helvetica,sans-Serif" font-size="14.00">(agent)</text>
<text xml:space="preserve" text-anchor="middle" x="235.38" y="-660.45" font-family="Helvetica,sans-Serif" font-size="14.00">role: planner</text>
</g>
<!-- check_complexity&#45;&gt;plan_then_implement -->
<g id="edge4" class="edge">
<title>check_complexity&#45;&gt;plan_then_implement</title>
<path fill="none" stroke="black" stroke-dasharray="5,2" d="M235.38,-754.54C235.38,-743.2 235.38,-730.76 235.38,-719.44"/>
<polygon fill="black" stroke="black" points="238.88,-719.65 235.38,-709.65 231.88,-719.65 238.88,-719.65"/>
<text xml:space="preserve" text-anchor="middle" x="255.62" y="-727.5" font-family="Helvetica,sans-Serif" font-size="10.00">moderate</text>
</g>
<!-- multi_step_implementation -->
<g id="node6" class="node">
<title>multi_step_implementation</title>
<path fill="#e3f2fd" stroke="black" d="M484.88,-707.75C484.88,-707.75 333.88,-707.75 333.88,-707.75 327.88,-707.75 321.88,-701.75 321.88,-695.75 321.88,-695.75 321.88,-666.75 321.88,-666.75 321.88,-660.75 327.88,-654.75 333.88,-654.75 333.88,-654.75 484.88,-654.75 484.88,-654.75 490.88,-654.75 496.88,-660.75 496.88,-666.75 496.88,-666.75 496.88,-695.75 496.88,-695.75 496.88,-701.75 490.88,-707.75 484.88,-707.75"/>
<text xml:space="preserve" text-anchor="middle" x="409.38" y="-690.45" font-family="Helvetica,sans-Serif" font-size="14.00">Multi&#45;Step Implementation</text>
<text xml:space="preserve" text-anchor="middle" x="409.38" y="-675.45" font-family="Helvetica,sans-Serif" font-size="14.00">(agent)</text>
<text xml:space="preserve" text-anchor="middle" x="409.38" y="-660.45" font-family="Helvetica,sans-Serif" font-size="14.00">role: architect</text>
</g>
<!-- check_complexity&#45;&gt;multi_step_implementation -->
<g id="edge5" class="edge">
<title>check_complexity&#45;&gt;multi_step_implementation</title>
<path fill="none" stroke="black" stroke-dasharray="5,2" d="M277.94,-765.15C302.38,-749.73 333.23,-730.28 358.89,-714.09"/>
<polygon fill="black" stroke="black" points="360.58,-717.17 367.17,-708.87 356.84,-711.25 360.58,-717.17"/>
<text xml:space="preserve" text-anchor="middle" x="356.33" y="-727.5" font-family="Helvetica,sans-Serif" font-size="10.00">complex</text>
</g>
<!-- run_verification -->
<g id="node7" class="node">
<title>run_verification</title>
<polygon fill="#e8f5e9" stroke="black" points="377.15,-617.75 151.62,-617.75 93.6,-421.75 319.13,-421.75 377.15,-617.75"/>
<text xml:space="preserve" text-anchor="middle" x="235.38" y="-551.45" font-family="Helvetica,sans-Serif" font-size="14.00">Run Verification</text>
<text xml:space="preserve" text-anchor="middle" x="235.38" y="-536.45" font-family="Helvetica,sans-Serif" font-size="14.00">(compute)</text>
<text xml:space="preserve" text-anchor="middle" x="235.38" y="-521.45" font-family="Helvetica,sans-Serif" font-size="14.00">exec: in&#45;process</text>
<text xml:space="preserve" text-anchor="middle" x="235.38" y="-506.45" font-family="Helvetica,sans-Serif" font-size="14.00">handler: test_runner</text>
<text xml:space="preserve" text-anchor="middle" x="235.38" y="-491.45" font-family="Helvetica,sans-Serif" font-size="14.00">blocked: [llm, write]</text>
<text xml:space="preserve" text-anchor="middle" x="235.38" y="-476.45" font-family="Helvetica,sans-Serif" font-size="14.00">timeout: 360s</text>
</g>
<!-- direct_implementation&#45;&gt;run_verification -->
<g id="edge6" class="edge">
<title>direct_implementation&#45;&gt;run_verification</title>
<path fill="none" stroke="black" d="M100.6,-654.27C111.8,-643.17 125.63,-629.47 140.12,-615.12"/>
<polygon fill="black" stroke="black" points="142.5,-617.68 147.14,-608.16 137.58,-612.71 142.5,-617.68"/>
</g>
<!-- plan_then_implement&#45;&gt;run_verification -->
<g id="edge7" class="edge">
<title>plan_then_implement&#45;&gt;run_verification</title>
<path fill="none" stroke="black" d="M235.38,-654.27C235.38,-646.93 235.38,-638.45 235.38,-629.39"/>
<polygon fill="black" stroke="black" points="238.88,-629.61 235.38,-619.61 231.88,-629.61 238.88,-629.61"/>
</g>
<!-- multi_step_implementation&#45;&gt;run_verification -->
<g id="edge8" class="edge">
<title>multi_step_implementation&#45;&gt;run_verification</title>
<path fill="none" stroke="black" d="M381.03,-654.27C371.97,-645.96 361.31,-636.19 349.95,-625.78"/>
<polygon fill="black" stroke="black" points="352.42,-623.3 342.69,-619.12 347.69,-628.46 352.42,-623.3"/>
</g>
<!-- check_verification -->
<g id="node8" class="node">
<title>check_verification</title>
<polygon fill="#fff3e0" stroke="black" points="159.38,-384.75 34.63,-346.75 159.37,-308.75 284.12,-346.75 159.38,-384.75"/>
<text xml:space="preserve" text-anchor="middle" x="159.38" y="-348.45" font-family="Helvetica,sans-Serif" font-size="14.00">Check Verification</text>
<text xml:space="preserve" text-anchor="middle" x="159.38" y="-333.45" font-family="Helvetica,sans-Serif" font-size="14.00">(condition)</text>
</g>
<!-- run_verification&#45;&gt;check_verification -->
<g id="edge9" class="edge">
<title>run_verification&#45;&gt;check_verification</title>
<path fill="none" stroke="black" d="M192.05,-421.26C187.4,-410.8 182.86,-400.59 178.71,-391.26"/>
<polygon fill="black" stroke="black" points="181.92,-389.86 174.66,-382.14 175.52,-392.7 181.92,-389.86"/>
</g>
<!-- fix_issues -->
<g id="node9" class="node">
<title>fix_issues</title>
<path fill="#e3f2fd" stroke="black" d="M259.25,-261.5C259.25,-261.5 185.5,-261.5 185.5,-261.5 179.5,-261.5 173.5,-255.5 173.5,-249.5 173.5,-249.5 173.5,-220.5 173.5,-220.5 173.5,-214.5 179.5,-208.5 185.5,-208.5 185.5,-208.5 259.25,-208.5 259.25,-208.5 265.25,-208.5 271.25,-214.5 271.25,-220.5 271.25,-220.5 271.25,-249.5 271.25,-249.5 271.25,-255.5 265.25,-261.5 259.25,-261.5"/>
<text xml:space="preserve" text-anchor="middle" x="222.38" y="-244.2" font-family="Helvetica,sans-Serif" font-size="14.00">Fix Issues</text>
<text xml:space="preserve" text-anchor="middle" x="222.38" y="-229.2" font-family="Helvetica,sans-Serif" font-size="14.00">(agent)</text>
<text xml:space="preserve" text-anchor="middle" x="222.38" y="-214.2" font-family="Helvetica,sans-Serif" font-size="14.00">role: executor</text>
</g>
<!-- check_verification&#45;&gt;fix_issues -->
<g id="edge11" class="edge">
<title>check_verification&#45;&gt;fix_issues</title>
<path fill="none" stroke="black" stroke-dasharray="5,2" d="M183.83,-315.87C189.67,-307.97 195.6,-299.27 200.38,-290.75 203.62,-284.97 206.63,-278.61 209.31,-272.34"/>
<polygon fill="black" stroke="black" points="212.43,-273.97 212.95,-263.39 205.94,-271.34 212.43,-273.97"/>
<text xml:space="preserve" text-anchor="middle" x="217.16" y="-281.25" font-family="Helvetica,sans-Serif" font-size="10.00">failed</text>
</g>
<!-- check_verification&#45;&gt;fix_issues -->
<g id="edge12" class="edge">
<title>check_verification&#45;&gt;fix_issues</title>
<path fill="none" stroke="black" stroke-dasharray="5,2" d="M160.67,-308.76C162.25,-298.78 165.1,-288.3 170.12,-279.5 171.97,-276.27 174.15,-273.18 176.56,-270.24"/>
<polygon fill="black" stroke="black" points="179.05,-272.69 183.31,-262.99 173.93,-267.92 179.05,-272.69"/>
<text xml:space="preserve" text-anchor="middle" x="183.25" y="-281.25" font-family="Helvetica,sans-Serif" font-size="10.00">partial</text>
</g>
<!-- format_output -->
<g id="node11" class="node">
<title>format_output</title>
<polygon fill="#eceff1" stroke="black" points="276.62,-38 172.12,-38 172.12,0 276.62,0 276.62,-38"/>
<text xml:space="preserve" text-anchor="middle" x="224.38" y="-20.7" font-family="Helvetica,sans-Serif" font-size="14.00">Format Output</text>
<text xml:space="preserve" text-anchor="middle" x="224.38" y="-5.7" font-family="Helvetica,sans-Serif" font-size="14.00">(transform)</text>
</g>
<!-- check_verification&#45;&gt;format_output -->
<g id="edge10" class="edge">
<title>check_verification&#45;&gt;format_output</title>
<path fill="none" stroke="black" stroke-dasharray="5,2" d="M151.24,-310.83C140.99,-259.26 128.21,-160.7 159.38,-85.25 165.66,-70.03 177.41,-56.49 189.21,-45.75"/>
<polygon fill="black" stroke="black" points="191.28,-48.59 196.59,-39.42 186.72,-43.28 191.28,-48.59"/>
<text xml:space="preserve" text-anchor="middle" x="155.92" y="-181" font-family="Helvetica,sans-Serif" font-size="10.00">passed</text>
</g>
<!-- should_continue -->
<g id="node10" class="node">
<title>should_continue</title>
<polygon fill="#fff3e0" stroke="black" points="284.38,-161.25 168.62,-123.25 284.37,-85.25 400.12,-123.25 284.38,-161.25"/>
<text xml:space="preserve" text-anchor="middle" x="284.38" y="-124.95" font-family="Helvetica,sans-Serif" font-size="14.00">Should Continue</text>
<text xml:space="preserve" text-anchor="middle" x="284.38" y="-109.95" font-family="Helvetica,sans-Serif" font-size="14.00">(condition)</text>
</g>
<!-- fix_issues&#45;&gt;should_continue -->
<g id="edge13" class="edge">
<title>fix_issues&#45;&gt;should_continue</title>
<path fill="none" stroke="black" d="M236.91,-208.27C244.12,-195.5 253.01,-179.77 261.14,-165.39"/>
<polygon fill="black" stroke="black" points="264,-167.44 265.87,-157.01 257.9,-164 264,-167.44"/>
</g>
<!-- should_continue&#45;&gt;run_verification -->
<g id="edge14" class="edge">
<title>should_continue&#45;&gt;run_verification</title>
<path fill="none" stroke="black" stroke-dasharray="5,2" d="M290.79,-159.25C298.86,-209.67 309.8,-305.43 293.38,-384.75 291.6,-393.3 289.26,-401.98 286.53,-410.59"/>
<polygon fill="black" stroke="black" points="283.23,-409.43 283.35,-420.02 289.86,-411.66 283.23,-409.43"/>
<text xml:space="preserve" text-anchor="middle" x="334.53" y="-281.25" font-family="Helvetica,sans-Serif" font-size="10.00">continue_fixing</text>
</g>
<!-- should_continue&#45;&gt;format_output -->
<g id="edge15" class="edge">
<title>should_continue&#45;&gt;format_output</title>
<path fill="none" stroke="black" stroke-dasharray="5,2" d="M276.33,-87.44C272.98,-76.85 268.42,-65.51 262.38,-56 260.26,-52.68 257.78,-49.45 255.11,-46.38"/>
<polygon fill="black" stroke="black" points="257.74,-44.07 248.29,-39.28 252.69,-48.92 257.74,-44.07"/>
<text xml:space="preserve" text-anchor="middle" x="308.39" y="-57.75" font-family="Helvetica,sans-Serif" font-size="10.00">submit_best_effort</text>
</g>
<!-- should_continue&#45;&gt;format_output -->
<g id="edge16" class="edge">
<title>should_continue&#45;&gt;format_output</title>
<path fill="none" stroke="black" stroke-dasharray="5,2" d="M245.9,-97.56C236.15,-89.22 226.95,-78.99 221.62,-67.25 219.14,-61.78 218.31,-55.58 218.37,-49.51"/>
<polygon fill="black" stroke="black" points="221.84,-50.02 219.28,-39.74 214.87,-49.37 221.84,-50.02"/>
<text xml:space="preserve" text-anchor="middle" x="240" y="-57.75" font-family="Helvetica,sans-Serif" font-size="10.00">escalate</text>
</g>
</g>
</svg>
