<?xml version="1.0" encoding="UTF-8" standalone="no"?>
<!DOCTYPE svg PUBLIC "-//W3C//DTD SVG 1.1//EN"
 "http://www.w3.org/Graphics/SVG/1.1/DTD/svg11.dtd">
<!-- Generated by graphviz version 14.0.4 (20251115.1723)
 -->
<!-- Title: workflow Pages: 1 -->
<svg width="480pt" height="947pt"
 viewBox="0.00 0.00 480.00 947.00" xmlns="http://www.w3.org/2000/svg" xmlns:xlink="http://www.w3.org/1999/xlink">
<g id="graph0" class="graph" transform="scale(1 1) rotate(0) translate(4 943)">
<title>workflow</title>
<polygon fill="white" stroke="none" points="-4,4 -4,-943 475.53,-943 475.53,4 -4,4"/>
<text xml:space="preserve" text-anchor="middle" x="235.76" y="-921.7" font-family="Times,serif" font-size="14.00">code_generation</text>
<!-- understand_task -->
<g id="node1" class="node">
<title>understand_task</title>
<path fill="#e3f2fd" stroke="black" d="M376.38,-914.5C376.38,-914.5 283.12,-914.5 283.12,-914.5 277.12,-914.5 271.12,-908.5 271.12,-902.5 271.12,-902.5 271.12,-873.5 271.12,-873.5 271.12,-867.5 277.12,-861.5 283.12,-861.5 283.12,-861.5 376.38,-861.5 376.38,-861.5 382.38,-861.5 388.38,-867.5 388.38,-873.5 388.38,-873.5 388.38,-902.5 388.38,-902.5 388.38,-908.5 382.38,-914.5 376.38,-914.5"/>
<text xml:space="preserve" text-anchor="middle" x="329.75" y="-897.2" font-family="Helvetica,sans-Serif" font-size="14.00">Understand Task</text>
<text xml:space="preserve" text-anchor="middle" x="329.75" y="-882.2" font-family="Helvetica,sans-Serif" font-size="14.00">(agent)</text>
<text xml:space="preserve" text-anchor="middle" x="329.75" y="-867.2" font-family="Helvetica,sans-Serif" font-size="14.00">role: analyst</text>
</g>
<!-- generate_code -->
<g id="node2" class="node">
<title>generate_code</title>
<path fill="#e3f2fd" stroke="black" d="M372.25,-824.5C372.25,-824.5 287.25,-824.5 287.25,-824.5 281.25,-824.5 275.25,-818.5 275.25,-812.5 275.25,-812.5 275.25,-783.5 275.25,-783.5 275.25,-777.5 281.25,-771.5 287.25,-771.5 287.25,-771.5 372.25,-771.5 372.25,-771.5 378.25,-771.5 384.25,-777.5 384.25,-783.5 384.25,-783.5 384.25,-812.5 384.25,-812.5 384.25,-818.5 378.25,-824.5 372.25,-824.5"/>
<text xml:space="preserve" text-anchor="middle" x="329.75" y="-807.2" font-family="Helvetica,sans-Serif" font-size="14.00">Generate Code</text>
<text xml:space="preserve" text-anchor="middle" x="329.75" y="-792.2" font-family="Helvetica,sans-Serif" font-size="14.00">(agent)</text>
<text xml:space="preserve" text-anchor="middle" x="329.75" y="-777.2" font-family="Helvetica,sans-Serif" font-size="14.00">role: executor</text>
</g>
<!-- understand_task&#45;&gt;generate_code -->
<g id="edge1" class="edge">
<title>understand_task&#45;&gt;generate_code</title>
<path fill="none" stroke="black" d="M329.75,-861.07C329.75,-853.29 329.75,-844.58 329.75,-836.22"/>
<polygon fill="black" stroke="black" points="333.25,-836.26 329.75,-826.26 326.25,-836.26 333.25,-836.26"/>
</g>
<!-- test_code -->
<g id="node3" class="node">
<title>test_code</title>
<polygon fill="#e8f5e9" stroke="black" points="471.53,-734.5 245.99,-734.5 187.97,-538.5 413.51,-538.5 471.53,-734.5"/>
<text xml:space="preserve" text-anchor="middle" x="329.75" y="-668.2" font-family="Helvetica,sans-Serif" font-size="14.00">Execute Tests</text>
<text xml:space="preserve" text-anchor="middle" x="329.75" y="-653.2" font-family="Helvetica,sans-Serif" font-size="14.00">(compute)</text>
<text xml:space="preserve" text-anchor="middle" x="329.75" y="-638.2" font-family="Helvetica,sans-Serif" font-size="14.00">exec: in&#45;process</text>
<text xml:space="preserve" text-anchor="middle" x="329.75" y="-623.2" font-family="Helvetica,sans-Serif" font-size="14.00">handler: test_runner</text>
<text xml:space="preserve" text-anchor="middle" x="329.75" y="-608.2" font-family="Helvetica,sans-Serif" font-size="14.00">blocked: [llm, write]</text>
<text xml:space="preserve" text-anchor="middle" x="329.75" y="-593.2" font-family="Helvetica,sans-Serif" font-size="14.00">timeout: 120s</text>
</g>
<!-- generate_code&#45;&gt;test_code -->
<g id="edge2" class="edge">
<title>generate_code&#45;&gt;test_code</title>
<path fill="none" stroke="black" d="M329.75,-771.02C329.75,-763.68 329.75,-755.2 329.75,-746.14"/>
<polygon fill="black" stroke="black" points="333.25,-746.36 329.75,-736.36 326.25,-746.36 333.25,-746.36"/>
</g>
<!-- check_tests -->
<g id="node4" class="node">
<title>check_tests</title>
<polygon fill="#fff3e0" stroke="black" points="249.75,-501.5 118.25,-463.5 249.75,-425.5 381.25,-463.5 249.75,-501.5"/>
<text xml:space="preserve" text-anchor="middle" x="249.75" y="-465.2" font-family="Helvetica,sans-Serif" font-size="14.00">Check Test Results</text>
<text xml:space="preserve" text-anchor="middle" x="249.75" y="-450.2" font-family="Helvetica,sans-Serif" font-size="14.00">(condition)</text>
</g>
<!-- test_code&#45;&gt;check_tests -->
<g id="edge3" class="edge">
<title>test_code&#45;&gt;check_tests</title>
<path fill="none" stroke="black" d="M284.14,-538.01C279.2,-527.44 274.37,-517.12 269.96,-507.71"/>
<polygon fill="black" stroke="black" points="273.24,-506.45 265.83,-498.88 266.9,-509.42 273.24,-506.45"/>
</g>
<!-- handle_error -->
<g id="node5" class="node">
<title>handle_error</title>
<path fill="#e3f2fd" stroke="black" d="M143.5,-378.25C143.5,-378.25 12,-378.25 12,-378.25 6,-378.25 0,-372.25 0,-366.25 0,-366.25 0,-337.25 0,-337.25 0,-331.25 6,-325.25 12,-325.25 12,-325.25 143.5,-325.25 143.5,-325.25 149.5,-325.25 155.5,-331.25 155.5,-337.25 155.5,-337.25 155.5,-366.25 155.5,-366.25 155.5,-372.25 149.5,-378.25 143.5,-378.25"/>
<text xml:space="preserve" text-anchor="middle" x="77.75" y="-360.95" font-family="Helvetica,sans-Serif" font-size="14.00">Handle Execution Error</text>
<text xml:space="preserve" text-anchor="middle" x="77.75" y="-345.95" font-family="Helvetica,sans-Serif" font-size="14.00">(agent)</text>
<text xml:space="preserve" text-anchor="middle" x="77.75" y="-330.95" font-family="Helvetica,sans-Serif" font-size="14.00">role: analyst</text>
</g>
<!-- check_tests&#45;&gt;handle_error -->
<g id="edge7" class="edge">
<title>check_tests&#45;&gt;handle_error</title>
<path fill="none" stroke="black" stroke-dasharray="5,2" d="M207.6,-437.43C192.28,-428.17 174.9,-417.5 159.25,-407.5 148.14,-400.4 136.31,-392.59 125.2,-385.15"/>
<polygon fill="black" stroke="black" points="127.17,-382.26 116.91,-379.58 123.26,-388.07 127.17,-382.26"/>
<text xml:space="preserve" text-anchor="middle" x="169" y="-398" font-family="Helvetica,sans-Serif" font-size="10.00">error</text>
</g>
<!-- analyze_and_fix -->
<g id="node6" class="node">
<title>analyze_and_fix</title>
<polygon fill="#eceff1" stroke="black" points="289.62,-370.75 173.88,-370.75 173.88,-332.75 289.62,-332.75 289.62,-370.75"/>
<text xml:space="preserve" text-anchor="middle" x="231.75" y="-353.45" font-family="Helvetica,sans-Serif" font-size="14.00">Analyze Failures</text>
<text xml:space="preserve" text-anchor="middle" x="231.75" y="-338.45" font-family="Helvetica,sans-Serif" font-size="14.00">(transform)</text>
</g>
<!-- check_tests&#45;&gt;analyze_and_fix -->
<g id="edge5" class="edge">
<title>check_tests&#45;&gt;analyze_and_fix</title>
<path fill="none" stroke="black" stroke-dasharray="5,2" d="M208.26,-436.98C198.59,-428.85 189.58,-418.94 184.25,-407.5 179.42,-397.13 184.01,-387.22 191.94,-378.75"/>
<polygon fill="black" stroke="black" points="194.2,-381.43 199.25,-372.12 189.5,-376.24 194.2,-381.43"/>
<text xml:space="preserve" text-anchor="middle" x="210.5" y="-398" font-family="Helvetica,sans-Serif" font-size="10.00">partial_pass</text>
</g>
<!-- check_tests&#45;&gt;analyze_and_fix -->
<g id="edge6" class="edge">
<title>check_tests&#45;&gt;analyze_and_fix</title>
<path fill="none" stroke="black" stroke-dasharray="5,2" d="M243.91,-426.87C241.54,-412.44 238.84,-395.98 236.59,-382.25"/>
<polygon fill="black" stroke="black" points="240.06,-381.79 234.99,-372.49 233.15,-382.92 240.06,-381.79"/>
<text xml:space="preserve" text-anchor="middle" x="254.09" y="-398" font-family="Helvetica,sans-Serif" font-size="10.00">all_fail</text>
</g>
<!-- complete_success -->
<g id="node10" class="node">
<title>complete_success</title>
<polygon fill="#eceff1" stroke="black" points="394.38,-307.25 241.12,-307.25 241.12,-269.25 394.38,-269.25 394.38,-307.25"/>
<text xml:space="preserve" text-anchor="middle" x="317.75" y="-289.95" font-family="Helvetica,sans-Serif" font-size="14.00">Complete Successfully</text>
<text xml:space="preserve" text-anchor="middle" x="317.75" y="-274.95" font-family="Helvetica,sans-Serif" font-size="14.00">(transform)</text>
</g>
<!-- check_tests&#45;&gt;complete_success -->
<g id="edge4" class="edge">
<title>check_tests&#45;&gt;complete_success</title>
<path fill="none" stroke="black" stroke-dasharray="5,2" d="M271.09,-431.29C280.77,-415.9 291.62,-396.72 298.75,-378.25 306.15,-359.09 310.93,-336.44 313.85,-318.78"/>
<polygon fill="black" stroke="black" points="317.3,-319.37 315.35,-308.96 310.38,-318.31 317.3,-319.37"/>
<text xml:space="preserve" text-anchor="middle" x="308.27" y="-398" font-family="Helvetica,sans-Serif" font-size="10.00">all_pass</text>
</g>
<!-- should_retry -->
<g id="node7" class="node">
<title>should_retry</title>
<polygon fill="#fff3e0" stroke="black" points="182.75,-251.25 88.75,-213.25 182.75,-175.25 276.75,-213.25 182.75,-251.25"/>
<text xml:space="preserve" text-anchor="middle" x="182.75" y="-214.95" font-family="Helvetica,sans-Serif" font-size="14.00">Should Retry</text>
<text xml:space="preserve" text-anchor="middle" x="182.75" y="-199.95" font-family="Helvetica,sans-Serif" font-size="14.00">(condition)</text>
</g>
<!-- handle_error&#45;&gt;should_retry -->
<g id="edge8" class="edge">
<title>handle_error&#45;&gt;should_retry</title>
<path fill="none" stroke="black" d="M97.75,-324.75C113.72,-303.99 136.3,-274.64 154.17,-251.4"/>
<polygon fill="black" stroke="black" points="156.77,-253.76 160.09,-243.7 151.22,-249.49 156.77,-253.76"/>
</g>
<!-- analyze_and_fix&#45;&gt;should_retry -->
<g id="edge9" class="edge">
<title>analyze_and_fix&#45;&gt;should_retry</title>
<path fill="none" stroke="black" d="M225.14,-332.34C218.32,-313.32 207.41,-282.96 198.38,-257.78"/>
<polygon fill="black" stroke="black" points="201.69,-256.65 195.02,-248.42 195.1,-259.01 201.69,-256.65"/>
</g>
<!-- refine_code -->
<g id="node8" class="node">
<title>refine_code</title>
<path fill="#e3f2fd" stroke="black" d="M131.62,-128C131.62,-128 57.88,-128 57.88,-128 51.87,-128 45.88,-122 45.88,-116 45.88,-116 45.88,-87 45.88,-87 45.88,-81 51.88,-75 57.88,-75 57.88,-75 131.62,-75 131.62,-75 137.62,-75 143.62,-81 143.62,-87 143.62,-87 143.62,-116 143.62,-116 143.62,-122 137.62,-128 131.62,-128"/>
<text xml:space="preserve" text-anchor="middle" x="94.75" y="-110.7" font-family="Helvetica,sans-Serif" font-size="14.00">Refine Code</text>
<text xml:space="preserve" text-anchor="middle" x="94.75" y="-95.7" font-family="Helvetica,sans-Serif" font-size="14.00">(agent)</text>
<text xml:space="preserve" text-anchor="middle" x="94.75" y="-80.7" font-family="Helvetica,sans-Serif" font-size="14.00">role: executor</text>
</g>
<!-- should_retry&#45;&gt;refine_code -->
<g id="edge10" class="edge">
<title>should_retry&#45;&gt;refine_code</title>
<path fill="none" stroke="black" stroke-dasharray="5,2" d="M144.88,-190.36C132.37,-181.5 119.4,-170.26 110.5,-157.25 106.74,-151.76 103.87,-145.37 101.68,-138.94"/>
<polygon fill="black" stroke="black" points="105.15,-138.33 99.02,-129.68 98.42,-140.26 105.15,-138.33"/>
<text xml:space="preserve" text-anchor="middle" x="143.12" y="-147.75" font-family="Helvetica,sans-Serif" font-size="10.00">continue_fixing</text>
</g>
<!-- complete_partial -->
<g id="node11" class="node">
<title>complete_partial</title>
<polygon fill="#eceff1" stroke="black" points="360.25,-120.5 161.25,-120.5 161.25,-82.5 360.25,-82.5 360.25,-120.5"/>
<text xml:space="preserve" text-anchor="middle" x="260.75" y="-103.2" font-family="Helvetica,sans-Serif" font-size="14.00">Complete with Partial Success</text>
<text xml:space="preserve" text-anchor="middle" x="260.75" y="-88.2" font-family="Helvetica,sans-Serif" font-size="14.00">(transform)</text>
</g>
<!-- should_retry&#45;&gt;complete_partial -->
<g id="edge11" class="edge">
<title>should_retry&#45;&gt;complete_partial</title>
<path fill="none" stroke="black" stroke-dasharray="5,2" d="M176.97,-177.06C176.87,-166.45 178.53,-155.19 184,-146 188.41,-138.6 194.58,-132.35 201.54,-127.1"/>
<polygon fill="black" stroke="black" points="203.06,-130.29 209.43,-121.82 199.17,-124.47 203.06,-130.29"/>
<text xml:space="preserve" text-anchor="middle" x="202.38" y="-147.75" font-family="Helvetica,sans-Serif" font-size="10.00">escalate</text>
</g>
<!-- should_retry&#45;&gt;complete_partial -->
<g id="edge12" class="edge">
<title>should_retry&#45;&gt;complete_partial</title>
<path fill="none" stroke="black" stroke-dasharray="5,2" d="M203.45,-183.13C215.22,-166.56 229.87,-145.95 241.41,-129.72"/>
<polygon fill="black" stroke="black" points="243.98,-132.14 246.92,-121.96 238.27,-128.08 243.98,-132.14"/>
<text xml:space="preserve" text-anchor="middle" x="269.24" y="-147.75" font-family="Helvetica,sans-Serif" font-size="10.00">submit_best_effort</text>
</g>
<!-- update_iteration -->
<g id="node9" class="node">
<title>update_iteration</title>
<polygon fill="#eceff1" stroke="black" points="338.62,-38 186.88,-38 186.88,0 338.62,0 338.62,-38"/>
<text xml:space="preserve" text-anchor="middle" x="262.75" y="-20.7" font-family="Helvetica,sans-Serif" font-size="14.00">Update Iteration Count</text>
<text xml:space="preserve" text-anchor="middle" x="262.75" y="-5.7" font-family="Helvetica,sans-Serif" font-size="14.00">(transform)</text>
</g>
<!-- refine_code&#45;&gt;update_iteration -->
<g id="edge13" class="edge">
<title>refine_code&#45;&gt;update_iteration</title>
<path fill="none" stroke="black" d="M143.79,-77C165.95,-66.38 192.06,-53.87 214.16,-43.28"/>
<polygon fill="black" stroke="black" points="215.46,-46.54 222.96,-39.07 212.43,-40.23 215.46,-46.54"/>
</g>
<!-- update_iteration&#45;&gt;test_code -->
<g id="edge14" class="edge">
<title>update_iteration&#45;&gt;test_code</title>
<path fill="none" stroke="black" d="M338.83,-33.09C374.7,-44.08 409.75,-64.13 409.75,-100.5 409.75,-464.5 409.75,-464.5 409.75,-464.5 409.75,-485.85 404.57,-507.41 396.85,-527.69"/>
<polygon fill="black" stroke="black" points="393.68,-526.18 393.16,-536.76 400.16,-528.82 393.68,-526.18"/>
</g>
<!-- complete_success&#45;&gt;complete_partial -->
<g id="edge15" class="edge">
<title>complete_success&#45;&gt;complete_partial</title>
<path fill="none" stroke="black" d="M321.78,-269.18C327.07,-241.17 333.52,-186.31 313.75,-146 310.55,-139.48 305.87,-133.59 300.58,-128.41"/>
<polygon fill="black" stroke="black" points="302.9,-125.79 293.06,-121.85 298.3,-131.06 302.9,-125.79"/>
</g>
</g>
</svg>
