<?xml version="1.0" encoding="UTF-8" standalone="no"?>
<!DOCTYPE svg PUBLIC "-//W3C//DTD SVG 1.1//EN"
 "http://www.w3.org/Graphics/SVG/1.1/DTD/svg11.dtd">
<!-- Generated by graphviz version 14.0.4 (20251115.1723)
 -->
<!-- Title: workflow Pages: 1 -->
<svg width="351pt" height="689pt"
 viewBox="0.00 0.00 351.00 689.00" xmlns="http://www.w3.org/2000/svg" xmlns:xlink="http://www.w3.org/1999/xlink">
<g id="graph0" class="graph" transform="scale(1 1) rotate(0) translate(4 684.7)">
<title>workflow</title>
<polygon fill="white" stroke="none" points="-4,4 -4,-684.7 347.08,-684.7 347.08,4 -4,4"/>
<text xml:space="preserve" text-anchor="middle" x="171.54" y="-663.4" font-family="Times,serif" font-size="14.00">bugfix</text>
<!-- investigate -->
<g id="node1" class="node">
<title>investigate</title>
<path fill="#e3f2fd" stroke="black" d="M309.58,-656.2C309.58,-656.2 223.08,-656.2 223.08,-656.2 217.08,-656.2 211.08,-650.2 211.08,-644.2 211.08,-644.2 211.08,-615.2 211.08,-615.2 211.08,-609.2 217.08,-603.2 223.08,-603.2 223.08,-603.2 309.58,-603.2 309.58,-603.2 315.58,-603.2 321.58,-609.2 321.58,-615.2 321.58,-615.2 321.58,-644.2 321.58,-644.2 321.58,-650.2 315.58,-656.2 309.58,-656.2"/>
<text xml:space="preserve" text-anchor="middle" x="266.33" y="-638.9" font-family="Helvetica,sans-Serif" font-size="14.00">Investigate Bug</text>
<text xml:space="preserve" text-anchor="middle" x="266.33" y="-623.9" font-family="Helvetica,sans-Serif" font-size="14.00">(agent)</text>
<text xml:space="preserve" text-anchor="middle" x="266.33" y="-608.9" font-family="Helvetica,sans-Serif" font-size="14.00">role: researcher</text>
</g>
<!-- confirm_cause -->
<g id="node2" class="node">
<title>confirm_cause</title>
<ellipse fill="#ffebee" stroke="black" cx="172.33" cy="-528.73" rx="98.29" ry="37.48"/>
<text xml:space="preserve" text-anchor="middle" x="172.33" y="-537.93" font-family="Helvetica,sans-Serif" font-size="14.00">Confirm Root Cause</text>
<text xml:space="preserve" text-anchor="middle" x="172.33" y="-522.93" font-family="Helvetica,sans-Serif" font-size="14.00">(hitl)</text>
<text xml:space="preserve" text-anchor="middle" x="172.33" y="-507.93" font-family="Helvetica,sans-Serif" font-size="14.00">timeout: 600s</text>
</g>
<!-- investigate&#45;&gt;confirm_cause -->
<g id="edge1" class="edge">
<title>investigate&#45;&gt;confirm_cause</title>
<path fill="none" stroke="black" d="M241.88,-602.96C233.04,-593.65 222.8,-582.87 212.95,-572.49"/>
<polygon fill="black" stroke="black" points="215.62,-570.23 206.2,-565.39 210.55,-575.05 215.62,-570.23"/>
</g>
<!-- implement_fix -->
<g id="node3" class="node">
<title>implement_fix</title>
<path fill="#e3f2fd" stroke="black" d="M189.46,-454.25C189.46,-454.25 111.21,-454.25 111.21,-454.25 105.21,-454.25 99.21,-448.25 99.21,-442.25 99.21,-442.25 99.21,-413.25 99.21,-413.25 99.21,-407.25 105.21,-401.25 111.21,-401.25 111.21,-401.25 189.46,-401.25 189.46,-401.25 195.46,-401.25 201.46,-407.25 201.46,-413.25 201.46,-413.25 201.46,-442.25 201.46,-442.25 201.46,-448.25 195.46,-454.25 189.46,-454.25"/>
<text xml:space="preserve" text-anchor="middle" x="150.33" y="-436.95" font-family="Helvetica,sans-Serif" font-size="14.00">Implement Fix</text>
<text xml:space="preserve" text-anchor="middle" x="150.33" y="-421.95" font-family="Helvetica,sans-Serif" font-size="14.00">(agent)</text>
<text xml:space="preserve" text-anchor="middle" x="150.33" y="-406.95" font-family="Helvetica,sans-Serif" font-size="14.00">role: executor</text>
</g>
<!-- confirm_cause&#45;&gt;implement_fix -->
<g id="edge2" class="edge">
<title>confirm_cause&#45;&gt;implement_fix</title>
<path fill="none" stroke="black" d="M164.2,-491.15C162.35,-482.82 160.38,-473.97 158.53,-465.63"/>
<polygon fill="black" stroke="black" points="162.01,-465.15 156.42,-456.15 155.18,-466.67 162.01,-465.15"/>
</g>
<!-- verify_fix -->
<g id="node4" class="node">
<title>verify_fix</title>
<polygon fill="#e8f5e9" stroke="black" points="272.67,-364.25 55.79,-364.25 0,-198.25 216.88,-198.25 272.67,-364.25"/>
<text xml:space="preserve" text-anchor="middle" x="136.33" y="-305.45" font-family="Helvetica,sans-Serif" font-size="14.00">Verify Fix</text>
<text xml:space="preserve" text-anchor="middle" x="136.33" y="-290.45" font-family="Helvetica,sans-Serif" font-size="14.00">(compute)</text>
<text xml:space="preserve" text-anchor="middle" x="136.33" y="-275.45" font-family="Helvetica,sans-Serif" font-size="14.00">exec: in&#45;process</text>
<text xml:space="preserve" text-anchor="middle" x="136.33" y="-260.45" font-family="Helvetica,sans-Serif" font-size="14.00">blocked: [llm, write]</text>
<text xml:space="preserve" text-anchor="middle" x="136.33" y="-245.45" font-family="Helvetica,sans-Serif" font-size="14.00">timeout: 300s</text>
</g>
<!-- implement_fix&#45;&gt;verify_fix -->
<g id="edge3" class="edge">
<title>implement_fix&#45;&gt;verify_fix</title>
<path fill="none" stroke="black" d="M147.83,-400.92C147.11,-393.47 146.28,-384.89 145.4,-375.81"/>
<polygon fill="black" stroke="black" points="148.9,-375.66 144.45,-366.04 141.93,-376.33 148.9,-375.66"/>
</g>
<!-- check_verification -->
<g id="node5" class="node">
<title>check_verification</title>
<polygon fill="#fff3e0" stroke="black" points="218.33,-161.25 93.58,-123.25 218.33,-85.25 343.08,-123.25 218.33,-161.25"/>
<text xml:space="preserve" text-anchor="middle" x="218.33" y="-124.95" font-family="Helvetica,sans-Serif" font-size="14.00">Check Verification</text>
<text xml:space="preserve" text-anchor="middle" x="218.33" y="-109.95" font-family="Helvetica,sans-Serif" font-size="14.00">(condition)</text>
</g>
<!-- verify_fix&#45;&gt;check_verification -->
<g id="edge4" class="edge">
<title>verify_fix&#45;&gt;check_verification</title>
<path fill="none" stroke="black" d="M179.49,-198.14C185.28,-187.13 191.01,-176.24 196.21,-166.33"/>
<polygon fill="black" stroke="black" points="199.17,-168.22 200.73,-157.74 192.98,-164.97 199.17,-168.22"/>
</g>
<!-- check_verification&#45;&gt;investigate -->
<g id="edge6" class="edge">
<title>check_verification&#45;&gt;investigate</title>
<path fill="none" stroke="black" stroke-dasharray="5,2" d="M247.96,-152.48C259.95,-165.39 272.91,-181.52 281.33,-198.25 298.16,-231.66 300.33,-242.84 300.33,-280.25 300.33,-529.73 300.33,-529.73 300.33,-529.73 300.33,-551.45 292.92,-574.46 285.02,-592.83"/>
<polygon fill="black" stroke="black" points="281.94,-591.13 280.99,-601.68 288.31,-594.03 281.94,-591.13"/>
<text xml:space="preserve" text-anchor="middle" x="310.83" y="-423.88" font-family="Helvetica,sans-Serif" font-size="10.00">false</text>
</g>
<!-- complete -->
<g id="node6" class="node">
<title>complete</title>
<polygon fill="#eceff1" stroke="black" points="259.71,-38 176.96,-38 176.96,0 259.71,0 259.71,-38"/>
<text xml:space="preserve" text-anchor="middle" x="218.33" y="-20.7" font-family="Helvetica,sans-Serif" font-size="14.00">Bug Fixed</text>
<text xml:space="preserve" text-anchor="middle" x="218.33" y="-5.7" font-family="Helvetica,sans-Serif" font-size="14.00">(transform)</text>
</g>
<!-- check_verification&#45;&gt;complete -->
<g id="edge5" class="edge">
<title>check_verification&#45;&gt;complete</title>
<path fill="none" stroke="black" stroke-dasharray="5,2" d="M218.33,-84.76C218.33,-73.12 218.33,-60.47 218.33,-49.46"/>
<polygon fill="black" stroke="black" points="221.83,-49.8 218.33,-39.8 214.83,-49.8 221.83,-49.8"/>
<text xml:space="preserve" text-anchor="middle" x="226.58" y="-57.75" font-family="Helvetica,sans-Serif" font-size="10.00">true</text>
</g>
</g>
</svg>
