<?xml version="1.0" encoding="UTF-8" standalone="no"?>
<!DOCTYPE svg PUBLIC "-//W3C//DTD SVG 1.1//EN"
 "http://www.w3.org/Graphics/SVG/1.1/DTD/svg11.dtd">
<!-- Generated by graphviz version 14.0.4 (20251115.1723)
 -->
<!-- Title: workflow Pages: 1 -->
<svg width="281pt" height="562pt"
 viewBox="0.00 0.00 281.00 562.00" xmlns="http://www.w3.org/2000/svg" xmlns:xlink="http://www.w3.org/1999/xlink">
<g id="graph0" class="graph" transform="scale(1 1) rotate(0) translate(4 557.75)">
<title>workflow</title>
<polygon fill="white" stroke="none" points="-4,4 -4,-557.75 276.67,-557.75 276.67,4 -4,4"/>
<text xml:space="preserve" text-anchor="middle" x="136.33" y="-536.45" font-family="Times,serif" font-size="14.00">quick_review</text>
<!-- gather -->
<g id="node1" class="node">
<title>gather</title>
<polygon fill="#e8f5e9" stroke="black" points="272.67,-529.25 55.79,-529.25 0,-363.25 216.88,-363.25 272.67,-529.25"/>
<text xml:space="preserve" text-anchor="middle" x="136.33" y="-470.45" font-family="Helvetica,sans-Serif" font-size="14.00">Gather Changes</text>
<text xml:space="preserve" text-anchor="middle" x="136.33" y="-455.45" font-family="Helvetica,sans-Serif" font-size="14.00">(compute)</text>
<text xml:space="preserve" text-anchor="middle" x="136.33" y="-440.45" font-family="Helvetica,sans-Serif" font-size="14.00">exec: in&#45;process</text>
<text xml:space="preserve" text-anchor="middle" x="136.33" y="-425.45" font-family="Helvetica,sans-Serif" font-size="14.00">blocked: [llm, write]</text>
<text xml:space="preserve" text-anchor="middle" x="136.33" y="-410.45" font-family="Helvetica,sans-Serif" font-size="14.00">timeout: 30s</text>
</g>
<!-- review -->
<g id="node2" class="node">
<title>review</title>
<path fill="#e3f2fd" stroke="black" d="M173.96,-326.25C173.96,-326.25 98.71,-326.25 98.71,-326.25 92.71,-326.25 86.71,-320.25 86.71,-314.25 86.71,-314.25 86.71,-285.25 86.71,-285.25 86.71,-279.25 92.71,-273.25 98.71,-273.25 98.71,-273.25 173.96,-273.25 173.96,-273.25 179.96,-273.25 185.96,-279.25 185.96,-285.25 185.96,-285.25 185.96,-314.25 185.96,-314.25 185.96,-320.25 179.96,-326.25 173.96,-326.25"/>
<text xml:space="preserve" text-anchor="middle" x="136.33" y="-308.95" font-family="Helvetica,sans-Serif" font-size="14.00">Quick Review</text>
<text xml:space="preserve" text-anchor="middle" x="136.33" y="-293.95" font-family="Helvetica,sans-Serif" font-size="14.00">(agent)</text>
<text xml:space="preserve" text-anchor="middle" x="136.33" y="-278.95" font-family="Helvetica,sans-Serif" font-size="14.00">role: reviewer</text>
</g>
<!-- gather&#45;&gt;review -->
<g id="edge1" class="edge">
<title>gather&#45;&gt;review</title>
<path fill="none" stroke="black" d="M136.33,-362.87C136.33,-354.12 136.33,-345.56 136.33,-337.74"/>
<polygon fill="black" stroke="black" points="139.83,-338.01 136.33,-328.01 132.83,-338.01 139.83,-338.01"/>
</g>
<!-- verdict -->
<g id="node3" class="node">
<title>verdict</title>
<polygon fill="#fff3e0" stroke="black" points="136.33,-236.25 30.33,-198.25 136.33,-160.25 242.33,-198.25 136.33,-236.25"/>
<text xml:space="preserve" text-anchor="middle" x="136.33" y="-199.95" font-family="Helvetica,sans-Serif" font-size="14.00">Review Verdict</text>
<text xml:space="preserve" text-anchor="middle" x="136.33" y="-184.95" font-family="Helvetica,sans-Serif" font-size="14.00">(condition)</text>
</g>
<!-- review&#45;&gt;verdict -->
<g id="edge2" class="edge">
<title>review&#45;&gt;verdict</title>
<path fill="none" stroke="black" d="M136.33,-272.87C136.33,-265.18 136.33,-256.5 136.33,-247.86"/>
<polygon fill="black" stroke="black" points="139.83,-248.13 136.33,-238.13 132.83,-248.13 139.83,-248.13"/>
</g>
<!-- needs_attention -->
<g id="node4" class="node">
<title>needs_attention</title>
<polygon fill="#eceff1" stroke="black" points="146.33,-113 34.33,-113 34.33,-75 146.33,-75 146.33,-113"/>
<text xml:space="preserve" text-anchor="middle" x="90.33" y="-95.7" font-family="Helvetica,sans-Serif" font-size="14.00">Needs Attention</text>
<text xml:space="preserve" text-anchor="middle" x="90.33" y="-80.7" font-family="Helvetica,sans-Serif" font-size="14.00">(transform)</text>
</g>
<!-- verdict&#45;&gt;needs_attention -->
<g id="edge3" class="edge">
<title>verdict&#45;&gt;needs_attention</title>
<path fill="none" stroke="black" stroke-dasharray="5,2" d="M121.9,-165.18C115.89,-151.82 108.97,-136.43 103.14,-123.48"/>
<polygon fill="black" stroke="black" points="106.47,-122.33 99.17,-114.64 100.08,-125.2 106.47,-122.33"/>
<text xml:space="preserve" text-anchor="middle" x="118.83" y="-132.75" font-family="Helvetica,sans-Serif" font-size="10.00">true</text>
</g>
<!-- approved -->
<g id="node5" class="node">
<title>approved</title>
<polygon fill="#eceff1" stroke="black" points="177.71,-38 94.96,-38 94.96,0 177.71,0 177.71,-38"/>
<text xml:space="preserve" text-anchor="middle" x="136.33" y="-20.7" font-family="Helvetica,sans-Serif" font-size="14.00">Approved</text>
<text xml:space="preserve" text-anchor="middle" x="136.33" y="-5.7" font-family="Helvetica,sans-Serif" font-size="14.00">(transform)</text>
</g>
<!-- verdict&#45;&gt;approved -->
<g id="edge4" class="edge">
<title>verdict&#45;&gt;approved</title>
<path fill="none" stroke="black" stroke-dasharray="5,2" d="M147.36,-163.75C154.03,-139.16 160.36,-104.97 155.33,-75 153.88,-66.37 151.24,-57.28 148.38,-49.04"/>
<polygon fill="black" stroke="black" points="151.73,-48 144.95,-39.85 145.17,-50.44 151.73,-48"/>
<text xml:space="preserve" text-anchor="middle" x="167.65" y="-90.12" font-family="Helvetica,sans-Serif" font-size="10.00">false</text>
</g>
<!-- needs_attention&#45;&gt;approved -->
<g id="edge5" class="edge">
<title>needs_attention&#45;&gt;approved</title>
<path fill="none" stroke="black" d="M101.94,-74.58C107.01,-66.54 113.06,-56.93 118.67,-48.04"/>
<polygon fill="black" stroke="black" points="121.55,-50.02 123.92,-39.7 115.63,-46.29 121.55,-50.02"/>
</g>
</g>
</svg>
