<?xml version="1.0" encoding="UTF-8" standalone="no"?>
<!DOCTYPE svg PUBLIC "-//W3C//DTD SVG 1.1//EN"
 "http://www.w3.org/Graphics/SVG/1.1/DTD/svg11.dtd">
<!-- Generated by graphviz version 14.0.4 (20251115.1723)
 -->
<!-- Title: workflow Pages: 1 -->
<svg width="761pt" height="2122pt"
 viewBox="0.00 0.00 761.00 2122.00" xmlns="http://www.w3.org/2000/svg" xmlns:xlink="http://www.w3.org/1999/xlink">
<g id="graph0" class="graph" transform="scale(1 1) rotate(0) translate(4 2117.91)">
<title>workflow</title>
<polygon fill="white" stroke="none" points="-4,4 -4,-2117.91 756.55,-2117.91 756.55,4 -4,4"/>
<text xml:space="preserve" text-anchor="middle" x="376.27" y="-2096.61" font-family="Times,serif" font-size="14.00">refactor</text>
<!-- analyze_code -->
<g id="node1" class="node">
<title>analyze_code</title>
<path fill="#e3f2fd" stroke="black" d="M486.46,-2089.41C486.46,-2089.41 351.96,-2089.41 351.96,-2089.41 345.96,-2089.41 339.96,-2083.41 339.96,-2077.41 339.96,-2077.41 339.96,-2048.41 339.96,-2048.41 339.96,-2042.41 345.96,-2036.41 351.96,-2036.41 351.96,-2036.41 486.46,-2036.41 486.46,-2036.41 492.46,-2036.41 498.46,-2042.41 498.46,-2048.41 498.46,-2048.41 498.46,-2077.41 498.46,-2077.41 498.46,-2083.41 492.46,-2089.41 486.46,-2089.41"/>
<text xml:space="preserve" text-anchor="middle" x="419.21" y="-2072.11" font-family="Helvetica,sans-Serif" font-size="14.00">Analyze Code Structure</text>
<text xml:space="preserve" text-anchor="middle" x="419.21" y="-2057.11" font-family="Helvetica,sans-Serif" font-size="14.00">(agent)</text>
<text xml:space="preserve" text-anchor="middle" x="419.21" y="-2042.11" font-family="Helvetica,sans-Serif" font-size="14.00">role: researcher</text>
</g>
<!-- run_baseline_tests -->
<g id="node2" class="node">
<title>run_baseline_tests</title>
<polygon fill="#e8f5e9" stroke="black" points="560.99,-1999.41 335.46,-1999.41 277.44,-1803.41 502.97,-1803.41 560.99,-1999.41"/>
<text xml:space="preserve" text-anchor="middle" x="419.21" y="-1933.11" font-family="Helvetica,sans-Serif" font-size="14.00">Run Baseline Tests</text>
<text xml:space="preserve" text-anchor="middle" x="419.21" y="-1918.11" font-family="Helvetica,sans-Serif" font-size="14.00">(compute)</text>
<text xml:space="preserve" text-anchor="middle" x="419.21" y="-1903.11" font-family="Helvetica,sans-Serif" font-size="14.00">exec: in&#45;process</text>
<text xml:space="preserve" text-anchor="middle" x="419.21" y="-1888.11" font-family="Helvetica,sans-Serif" font-size="14.00">handler: test_runner</text>
<text xml:space="preserve" text-anchor="middle" x="419.21" y="-1873.11" font-family="Helvetica,sans-Serif" font-size="14.00">blocked: [llm, write]</text>
<text xml:space="preserve" text-anchor="middle" x="419.21" y="-1858.11" font-family="Helvetica,sans-Serif" font-size="14.00">timeout: 180s</text>
</g>
<!-- analyze_code&#45;&gt;run_baseline_tests -->
<g id="edge1" class="edge">
<title>analyze_code&#45;&gt;run_baseline_tests</title>
<path fill="none" stroke="black" d="M419.21,-2035.93C419.21,-2028.58 419.21,-2020.1 419.21,-2011.05"/>
<polygon fill="black" stroke="black" points="422.71,-2011.27 419.21,-2001.27 415.71,-2011.27 422.71,-2011.27"/>
</g>
<!-- check_baseline -->
<g id="node3" class="node">
<title>check_baseline</title>
<polygon fill="#fff3e0" stroke="black" points="419.21,-1766.41 274.21,-1728.41 419.21,-1690.41 564.21,-1728.41 419.21,-1766.41"/>
<text xml:space="preserve" text-anchor="middle" x="419.21" y="-1730.11" font-family="Helvetica,sans-Serif" font-size="14.00">Check Baseline Tests</text>
<text xml:space="preserve" text-anchor="middle" x="419.21" y="-1715.11" font-family="Helvetica,sans-Serif" font-size="14.00">(condition)</text>
</g>
<!-- run_baseline_tests&#45;&gt;check_baseline -->
<g id="edge2" class="edge">
<title>run_baseline_tests&#45;&gt;check_baseline</title>
<path fill="none" stroke="black" d="M419.21,-1802.92C419.21,-1794.45 419.21,-1786.14 419.21,-1778.34"/>
<polygon fill="black" stroke="black" points="422.71,-1778.43 419.21,-1768.43 415.71,-1778.43 422.71,-1778.43"/>
</g>
<!-- warn_failing_tests -->
<g id="node4" class="node">
<title>warn_failing_tests</title>
<ellipse fill="#ffebee" stroke="black" cx="592.21" cy="-1605.68" rx="117.38" ry="37.48"/>
<text xml:space="preserve" text-anchor="middle" x="592.21" y="-1614.88" font-family="Helvetica,sans-Serif" font-size="14.00">Warn About Failing Tests</text>
<text xml:space="preserve" text-anchor="middle" x="592.21" y="-1599.88" font-family="Helvetica,sans-Serif" font-size="14.00">(hitl)</text>
<text xml:space="preserve" text-anchor="middle" x="592.21" y="-1584.88" font-family="Helvetica,sans-Serif" font-size="14.00">timeout: 300s</text>
</g>
<!-- check_baseline&#45;&gt;warn_failing_tests -->
<g id="edge4" class="edge">
<title>check_baseline&#45;&gt;warn_failing_tests</title>
<path fill="none" stroke="black" stroke-dasharray="5,2" d="M458.04,-1700.31C480.75,-1684.46 509.84,-1664.16 535.13,-1646.52"/>
<polygon fill="black" stroke="black" points="536.81,-1649.61 543.01,-1641.01 532.81,-1643.87 536.81,-1649.61"/>
<text xml:space="preserve" text-anchor="middle" x="523.65" y="-1662.91" font-family="Helvetica,sans-Serif" font-size="10.00">failing</text>
</g>
<!-- plan_refactor -->
<g id="node5" class="node">
<title>plan_refactor</title>
<path fill="#e3f2fd" stroke="black" d="M465.09,-1531.2C465.09,-1531.2 373.34,-1531.2 373.34,-1531.2 367.34,-1531.2 361.34,-1525.2 361.34,-1519.2 361.34,-1519.2 361.34,-1490.2 361.34,-1490.2 361.34,-1484.2 367.34,-1478.2 373.34,-1478.2 373.34,-1478.2 465.09,-1478.2 465.09,-1478.2 471.09,-1478.2 477.09,-1484.2 477.09,-1490.2 477.09,-1490.2 477.09,-1519.2 477.09,-1519.2 477.09,-1525.2 471.09,-1531.2 465.09,-1531.2"/>
<text xml:space="preserve" text-anchor="middle" x="419.21" y="-1513.9" font-family="Helvetica,sans-Serif" font-size="14.00">Plan Refactoring</text>
<text xml:space="preserve" text-anchor="middle" x="419.21" y="-1498.9" font-family="Helvetica,sans-Serif" font-size="14.00">(agent)</text>
<text xml:space="preserve" text-anchor="middle" x="419.21" y="-1483.9" font-family="Helvetica,sans-Serif" font-size="14.00">role: planner</text>
</g>
<!-- check_baseline&#45;&gt;plan_refactor -->
<g id="edge3" class="edge">
<title>check_baseline&#45;&gt;plan_refactor</title>
<path fill="none" stroke="black" stroke-dasharray="5,2" d="M392.69,-1696.86C381.32,-1681.76 369.33,-1662.64 363.46,-1643.16 353.86,-1611.26 351.6,-1599.33 363.46,-1568.2 367.35,-1558.02 373.73,-1548.44 380.83,-1539.98"/>
<polygon fill="black" stroke="black" points="383.28,-1542.49 387.39,-1532.73 378.09,-1537.8 383.28,-1542.49"/>
<text xml:space="preserve" text-anchor="middle" x="380.34" y="-1601.8" font-family="Helvetica,sans-Serif" font-size="10.00">passing</text>
</g>
<!-- check_baseline&#45;&gt;plan_refactor -->
<g id="edge5" class="edge">
<title>check_baseline&#45;&gt;plan_refactor</title>
<path fill="none" stroke="black" stroke-dasharray="5,2" d="M419.21,-1690.05C419.21,-1649.05 419.21,-1583.65 419.21,-1542.77"/>
<polygon fill="black" stroke="black" points="422.71,-1542.94 419.21,-1532.94 415.71,-1542.94 422.71,-1542.94"/>
<text xml:space="preserve" text-anchor="middle" x="437.96" y="-1601.8" font-family="Helvetica,sans-Serif" font-size="10.00">no_tests</text>
</g>
<!-- warn_failing_tests&#45;&gt;plan_refactor -->
<g id="edge6" class="edge">
<title>warn_failing_tests&#45;&gt;plan_refactor</title>
<path fill="none" stroke="black" d="M536.05,-1572.55C516.21,-1561.2 493.94,-1548.46 474.2,-1537.16"/>
<polygon fill="black" stroke="black" points="476.17,-1534.26 465.76,-1532.33 472.7,-1540.34 476.17,-1534.26"/>
</g>
<!-- assess_complexity -->
<g id="node6" class="node">
<title>assess_complexity</title>
<polygon fill="#fff3e0" stroke="black" points="419.21,-1441.2 288.46,-1403.2 419.21,-1365.2 549.96,-1403.2 419.21,-1441.2"/>
<text xml:space="preserve" text-anchor="middle" x="419.21" y="-1404.9" font-family="Helvetica,sans-Serif" font-size="14.00">Assess Complexity</text>
<text xml:space="preserve" text-anchor="middle" x="419.21" y="-1389.9" font-family="Helvetica,sans-Serif" font-size="14.00">(condition)</text>
</g>
<!-- plan_refactor&#45;&gt;assess_complexity -->
<g id="edge7" class="edge">
<title>plan_refactor&#45;&gt;assess_complexity</title>
<path fill="none" stroke="black" d="M419.21,-1477.82C419.21,-1470.13 419.21,-1461.45 419.21,-1452.81"/>
<polygon fill="black" stroke="black" points="422.71,-1453.09 419.21,-1443.09 415.71,-1453.09 422.71,-1453.09"/>
</g>
<!-- quick_refactor -->
<g id="node7" class="node">
<title>quick_refactor</title>
<path fill="#e3f2fd" stroke="black" d="M289.21,-1225C289.21,-1225 207.21,-1225 207.21,-1225 201.21,-1225 195.21,-1219 195.21,-1213 195.21,-1213 195.21,-1184 195.21,-1184 195.21,-1178 201.21,-1172 207.21,-1172 207.21,-1172 289.21,-1172 289.21,-1172 295.21,-1172 301.21,-1178 301.21,-1184 301.21,-1184 301.21,-1213 301.21,-1213 301.21,-1219 295.21,-1225 289.21,-1225"/>
<text xml:space="preserve" text-anchor="middle" x="248.21" y="-1207.7" font-family="Helvetica,sans-Serif" font-size="14.00">Quick Refactor</text>
<text xml:space="preserve" text-anchor="middle" x="248.21" y="-1192.7" font-family="Helvetica,sans-Serif" font-size="14.00">(agent)</text>
<text xml:space="preserve" text-anchor="middle" x="248.21" y="-1177.7" font-family="Helvetica,sans-Serif" font-size="14.00">role: executor</text>
</g>
<!-- assess_complexity&#45;&gt;quick_refactor -->
<g id="edge8" class="edge">
<title>assess_complexity&#45;&gt;quick_refactor</title>
<path fill="none" stroke="black" stroke-dasharray="5,2" d="M385.21,-1374.64C375.6,-1366.23 365.4,-1356.69 356.71,-1347.2 323.95,-1311.42 291.72,-1265.85 271.01,-1234.86"/>
<polygon fill="black" stroke="black" points="273.98,-1233.01 265.54,-1226.6 268.15,-1236.87 273.98,-1233.01"/>
<text xml:space="preserve" text-anchor="middle" x="370.96" y="-1337.7" font-family="Helvetica,sans-Serif" font-size="10.00">simple</text>
</g>
<!-- standard_refactor -->
<g id="node8" class="node">
<title>standard_refactor</title>
<path fill="#e3f2fd" stroke="black" d="M419.96,-1225C419.96,-1225 318.46,-1225 318.46,-1225 312.46,-1225 306.46,-1219 306.46,-1213 306.46,-1213 306.46,-1184 306.46,-1184 306.46,-1178 312.46,-1172 318.46,-1172 318.46,-1172 419.96,-1172 419.96,-1172 425.96,-1172 431.96,-1178 431.96,-1184 431.96,-1184 431.96,-1213 431.96,-1213 431.96,-1219 425.96,-1225 419.96,-1225"/>
<text xml:space="preserve" text-anchor="middle" x="369.21" y="-1207.7" font-family="Helvetica,sans-Serif" font-size="14.00">Standard Refactor</text>
<text xml:space="preserve" text-anchor="middle" x="369.21" y="-1192.7" font-family="Helvetica,sans-Serif" font-size="14.00">(agent)</text>
<text xml:space="preserve" text-anchor="middle" x="369.21" y="-1177.7" font-family="Helvetica,sans-Serif" font-size="14.00">role: executor</text>
</g>
<!-- assess_complexity&#45;&gt;standard_refactor -->
<g id="edge9" class="edge">
<title>assess_complexity&#45;&gt;standard_refactor</title>
<path fill="none" stroke="black" stroke-dasharray="5,2" d="M401.77,-1369.98C398.35,-1362.65 395.09,-1354.79 392.71,-1347.2 381.24,-1310.56 375.18,-1266.97 372.11,-1236.68"/>
<polygon fill="black" stroke="black" points="375.61,-1236.5 371.18,-1226.88 368.64,-1237.16 375.61,-1236.5"/>
<text xml:space="preserve" text-anchor="middle" x="412.96" y="-1337.7" font-family="Helvetica,sans-Serif" font-size="10.00">moderate</text>
</g>
<!-- staged_refactor -->
<g id="node9" class="node">
<title>staged_refactor</title>
<path fill="#e3f2fd" stroke="black" d="M494.96,-1154C494.96,-1154 405.46,-1154 405.46,-1154 399.46,-1154 393.46,-1148 393.46,-1142 393.46,-1142 393.46,-1113 393.46,-1113 393.46,-1107 399.46,-1101 405.46,-1101 405.46,-1101 494.96,-1101 494.96,-1101 500.96,-1101 506.96,-1107 506.96,-1113 506.96,-1113 506.96,-1142 506.96,-1142 506.96,-1148 500.96,-1154 494.96,-1154"/>
<text xml:space="preserve" text-anchor="middle" x="450.21" y="-1136.7" font-family="Helvetica,sans-Serif" font-size="14.00">Staged Refactor</text>
<text xml:space="preserve" text-anchor="middle" x="450.21" y="-1121.7" font-family="Helvetica,sans-Serif" font-size="14.00">(agent)</text>
<text xml:space="preserve" text-anchor="middle" x="450.21" y="-1106.7" font-family="Helvetica,sans-Serif" font-size="14.00">role: executor</text>
</g>
<!-- assess_complexity&#45;&gt;staged_refactor -->
<g id="edge10" class="edge">
<title>assess_complexity&#45;&gt;staged_refactor</title>
<path fill="none" stroke="black" stroke-dasharray="5,2" d="M428.94,-1367.77C430.58,-1361 432.11,-1353.91 433.21,-1347.2 443.63,-1284 447.7,-1209.45 449.26,-1165.74"/>
<polygon fill="black" stroke="black" points="452.76,-1165.88 449.59,-1155.77 445.76,-1165.65 452.76,-1165.88"/>
<text xml:space="preserve" text-anchor="middle" x="463.29" y="-1276.6" font-family="Helvetica,sans-Serif" font-size="10.00">complex</text>
</g>
<!-- approve_major -->
<g id="node10" class="node">
<title>approve_major</title>
<ellipse fill="#ffebee" stroke="black" cx="627.21" cy="-1280.48" rx="125.33" ry="37.48"/>
<text xml:space="preserve" text-anchor="middle" x="627.21" y="-1289.68" font-family="Helvetica,sans-Serif" font-size="14.00">Approve Major Refactoring</text>
<text xml:space="preserve" text-anchor="middle" x="627.21" y="-1274.68" font-family="Helvetica,sans-Serif" font-size="14.00">(hitl)</text>
<text xml:space="preserve" text-anchor="middle" x="627.21" y="-1259.68" font-family="Helvetica,sans-Serif" font-size="14.00">timeout: 600s</text>
</g>
<!-- assess_complexity&#45;&gt;approve_major -->
<g id="edge11" class="edge">
<title>assess_complexity&#45;&gt;approve_major</title>
<path fill="none" stroke="black" stroke-dasharray="5,2" d="M462.06,-1377.34C490.51,-1360.82 528.44,-1338.81 560.77,-1320.04"/>
<polygon fill="black" stroke="black" points="562.4,-1323.14 569.29,-1315.09 558.89,-1317.09 562.4,-1323.14"/>
<text xml:space="preserve" text-anchor="middle" x="541.45" y="-1337.7" font-family="Helvetica,sans-Serif" font-size="10.00">major</text>
</g>
<!-- verify_changes -->
<g id="node11" class="node">
<title>verify_changes</title>
<polygon fill="#e8f5e9" stroke="black" points="534.2,-1064 265.38,-1064 196.22,-868 465.05,-868 534.2,-1064"/>
<text xml:space="preserve" text-anchor="middle" x="365.21" y="-997.7" font-family="Helvetica,sans-Serif" font-size="14.00">Run Tests After Refactor</text>
<text xml:space="preserve" text-anchor="middle" x="365.21" y="-982.7" font-family="Helvetica,sans-Serif" font-size="14.00">(compute)</text>
<text xml:space="preserve" text-anchor="middle" x="365.21" y="-967.7" font-family="Helvetica,sans-Serif" font-size="14.00">exec: in&#45;process</text>
<text xml:space="preserve" text-anchor="middle" x="365.21" y="-952.7" font-family="Helvetica,sans-Serif" font-size="14.00">handler: test_runner</text>
<text xml:space="preserve" text-anchor="middle" x="365.21" y="-937.7" font-family="Helvetica,sans-Serif" font-size="14.00">blocked: [llm, write]</text>
<text xml:space="preserve" text-anchor="middle" x="365.21" y="-922.7" font-family="Helvetica,sans-Serif" font-size="14.00">timeout: 180s</text>
</g>
<!-- quick_refactor&#45;&gt;verify_changes -->
<g id="edge12" class="edge">
<title>quick_refactor&#45;&gt;verify_changes</title>
<path fill="none" stroke="black" d="M261.41,-1171.51C273.53,-1147.62 292.35,-1110.54 310.66,-1074.48"/>
<polygon fill="black" stroke="black" points="313.71,-1076.2 315.11,-1065.7 307.47,-1073.03 313.71,-1076.2"/>
</g>
<!-- standard_refactor&#45;&gt;verify_changes -->
<g id="edge13" class="edge">
<title>standard_refactor&#45;&gt;verify_changes</title>
<path fill="none" stroke="black" d="M368.76,-1171.51C368.35,-1147.82 367.72,-1111.17 367.09,-1075.4"/>
<polygon fill="black" stroke="black" points="370.6,-1075.8 366.93,-1065.86 363.6,-1075.92 370.6,-1075.8"/>
</g>
<!-- staged_refactor&#45;&gt;verify_changes -->
<g id="edge14" class="edge">
<title>staged_refactor&#45;&gt;verify_changes</title>
<path fill="none" stroke="black" d="M436.37,-1100.52C432.28,-1092.85 427.54,-1083.95 422.47,-1074.44"/>
<polygon fill="black" stroke="black" points="425.59,-1072.86 417.8,-1065.68 419.42,-1076.15 425.59,-1072.86"/>
</g>
<!-- approve_major&#45;&gt;staged_refactor -->
<g id="edge15" class="edge">
<title>approve_major&#45;&gt;staged_refactor</title>
<path fill="none" stroke="black" d="M586.61,-1244.84C557.38,-1219.91 518.18,-1186.47 489.3,-1161.84"/>
<polygon fill="black" stroke="black" points="491.73,-1159.31 481.85,-1155.48 487.18,-1164.63 491.73,-1159.31"/>
</g>
<!-- check_tests -->
<g id="node12" class="node">
<title>check_tests</title>
<polygon fill="#fff3e0" stroke="black" points="258.21,-831 126.71,-793 258.21,-755 389.71,-793 258.21,-831"/>
<text xml:space="preserve" text-anchor="middle" x="258.21" y="-794.7" font-family="Helvetica,sans-Serif" font-size="14.00">Check Test Results</text>
<text xml:space="preserve" text-anchor="middle" x="258.21" y="-779.7" font-family="Helvetica,sans-Serif" font-size="14.00">(condition)</text>
</g>
<!-- verify_changes&#45;&gt;check_tests -->
<g id="edge16" class="edge">
<title>verify_changes&#45;&gt;check_tests</title>
<path fill="none" stroke="black" d="M304.21,-867.51C297.1,-856.15 290.17,-845.07 283.94,-835.11"/>
<polygon fill="black" stroke="black" points="287.03,-833.45 278.76,-826.83 281.1,-837.17 287.03,-833.45"/>
</g>
<!-- fix_failures -->
<g id="node13" class="node">
<title>fix_failures</title>
<path fill="#e3f2fd" stroke="black" d="M370.34,-707.75C370.34,-707.75 280.09,-707.75 280.09,-707.75 274.09,-707.75 268.09,-701.75 268.09,-695.75 268.09,-695.75 268.09,-666.75 268.09,-666.75 268.09,-660.75 274.09,-654.75 280.09,-654.75 280.09,-654.75 370.34,-654.75 370.34,-654.75 376.34,-654.75 382.34,-660.75 382.34,-666.75 382.34,-666.75 382.34,-695.75 382.34,-695.75 382.34,-701.75 376.34,-707.75 370.34,-707.75"/>
<text xml:space="preserve" text-anchor="middle" x="325.21" y="-690.45" font-family="Helvetica,sans-Serif" font-size="14.00">Fix Test Failures</text>
<text xml:space="preserve" text-anchor="middle" x="325.21" y="-675.45" font-family="Helvetica,sans-Serif" font-size="14.00">(agent)</text>
<text xml:space="preserve" text-anchor="middle" x="325.21" y="-660.45" font-family="Helvetica,sans-Serif" font-size="14.00">role: executor</text>
</g>
<!-- check_tests&#45;&gt;fix_failures -->
<g id="edge18" class="edge">
<title>check_tests&#45;&gt;fix_failures</title>
<path fill="none" stroke="black" stroke-dasharray="5,2" d="M277.59,-760.26C285.74,-746.91 295.25,-731.33 303.62,-717.61"/>
<polygon fill="black" stroke="black" points="306.47,-719.67 308.69,-709.31 300.5,-716.02 306.47,-719.67"/>
<text xml:space="preserve" text-anchor="middle" x="310.46" y="-727.5" font-family="Helvetica,sans-Serif" font-size="10.00">failing</text>
</g>
<!-- check_quality -->
<g id="node16" class="node">
<title>check_quality</title>
<polygon fill="#e8f5e9" stroke="black" points="336.43,-484.25 68.84,-484.25 0,-288.25 267.59,-288.25 336.43,-484.25"/>
<text xml:space="preserve" text-anchor="middle" x="168.21" y="-417.95" font-family="Helvetica,sans-Serif" font-size="14.00">Check Code Quality</text>
<text xml:space="preserve" text-anchor="middle" x="168.21" y="-402.95" font-family="Helvetica,sans-Serif" font-size="14.00">(compute)</text>
<text xml:space="preserve" text-anchor="middle" x="168.21" y="-387.95" font-family="Helvetica,sans-Serif" font-size="14.00">exec: in&#45;process</text>
<text xml:space="preserve" text-anchor="middle" x="168.21" y="-372.95" font-family="Helvetica,sans-Serif" font-size="14.00">handler: code_validation</text>
<text xml:space="preserve" text-anchor="middle" x="168.21" y="-357.95" font-family="Helvetica,sans-Serif" font-size="14.00">blocked: [llm, write]</text>
<text xml:space="preserve" text-anchor="middle" x="168.21" y="-342.95" font-family="Helvetica,sans-Serif" font-size="14.00">timeout: 120s</text>
</g>
<!-- check_tests&#45;&gt;check_quality -->
<g id="edge17" class="edge">
<title>check_tests&#45;&gt;check_quality</title>
<path fill="none" stroke="black" stroke-dasharray="5,2" d="M250.38,-756.79C237.57,-699.15 211.6,-582.38 192.27,-495.45"/>
<polygon fill="black" stroke="black" points="195.75,-494.95 190.16,-485.95 188.91,-496.47 195.75,-494.95"/>
<text xml:space="preserve" text-anchor="middle" x="240.39" y="-627.25" font-family="Helvetica,sans-Serif" font-size="10.00">passing</text>
</g>
<!-- check_tests&#45;&gt;check_quality -->
<g id="edge19" class="edge">
<title>check_tests&#45;&gt;check_quality</title>
<path fill="none" stroke="black" stroke-dasharray="5,2" d="M237.3,-760.59C218.39,-730.31 191.73,-682.46 179.71,-636.75 167.85,-591.61 163.92,-540.33 163.37,-496.04"/>
<polygon fill="black" stroke="black" points="166.87,-496.14 163.3,-486.16 159.87,-496.18 166.87,-496.14"/>
<text xml:space="preserve" text-anchor="middle" x="198.46" y="-627.25" font-family="Helvetica,sans-Serif" font-size="10.00">no_tests</text>
</g>
<!-- should_retry -->
<g id="node14" class="node">
<title>should_retry</title>
<polygon fill="#fff3e0" stroke="black" points="325.21,-607.5 231.21,-569.5 325.21,-531.5 419.21,-569.5 325.21,-607.5"/>
<text xml:space="preserve" text-anchor="middle" x="325.21" y="-571.2" font-family="Helvetica,sans-Serif" font-size="14.00">Should Retry</text>
<text xml:space="preserve" text-anchor="middle" x="325.21" y="-556.2" font-family="Helvetica,sans-Serif" font-size="14.00">(condition)</text>
</g>
<!-- fix_failures&#45;&gt;should_retry -->
<g id="edge20" class="edge">
<title>fix_failures&#45;&gt;should_retry</title>
<path fill="none" stroke="black" d="M325.21,-654.52C325.21,-643.96 325.21,-631.36 325.21,-619.18"/>
<polygon fill="black" stroke="black" points="328.71,-619.22 325.21,-609.22 321.71,-619.22 328.71,-619.22"/>
</g>
<!-- should_retry&#45;&gt;verify_changes -->
<g id="edge21" class="edge">
<title>should_retry&#45;&gt;verify_changes</title>
<path fill="none" stroke="black" stroke-dasharray="5,2" d="M352.4,-596.74C366.58,-612.19 382.7,-632.94 391.21,-654.75 416.14,-718.63 409.98,-795.38 397.42,-856.56"/>
<polygon fill="black" stroke="black" points="394,-855.8 395.32,-866.32 400.85,-857.28 394,-855.8"/>
<text xml:space="preserve" text-anchor="middle" x="440.45" y="-727.5" font-family="Helvetica,sans-Serif" font-size="10.00">continue_fixing</text>
</g>
<!-- escalate_human -->
<g id="node15" class="node">
<title>escalate_human</title>
<ellipse fill="#ffebee" stroke="black" cx="447.21" cy="-386.25" rx="92.45" ry="37.48"/>
<text xml:space="preserve" text-anchor="middle" x="447.21" y="-395.45" font-family="Helvetica,sans-Serif" font-size="14.00">Escalate to Human</text>
<text xml:space="preserve" text-anchor="middle" x="447.21" y="-380.45" font-family="Helvetica,sans-Serif" font-size="14.00">(hitl)</text>
<text xml:space="preserve" text-anchor="middle" x="447.21" y="-365.45" font-family="Helvetica,sans-Serif" font-size="14.00">timeout: 600s</text>
</g>
<!-- should_retry&#45;&gt;escalate_human -->
<g id="edge23" class="edge">
<title>should_retry&#45;&gt;escalate_human</title>
<path fill="none" stroke="black" stroke-dasharray="5,2" d="M344.81,-539.38C364.33,-510.38 394.55,-465.48 417.11,-431.97"/>
<polygon fill="black" stroke="black" points="419.73,-434.34 422.41,-424.09 413.93,-430.43 419.73,-434.34"/>
<text xml:space="preserve" text-anchor="middle" x="386.53" y="-504" font-family="Helvetica,sans-Serif" font-size="10.00">escalate</text>
</g>
<!-- should_retry&#45;&gt;check_quality -->
<g id="edge22" class="edge">
<title>should_retry&#45;&gt;check_quality</title>
<path fill="none" stroke="black" stroke-dasharray="5,2" d="M301.37,-540.97C289.76,-527.57 275,-510.53 259.55,-492.69"/>
<polygon fill="black" stroke="black" points="262.59,-490.86 253.4,-485.59 257.3,-495.44 262.59,-490.86"/>
<text xml:space="preserve" text-anchor="middle" x="314.93" y="-504" font-family="Helvetica,sans-Serif" font-size="10.00">submit_best_effort</text>
</g>
<!-- escalate_human&#45;&gt;fix_failures -->
<g id="edge24" class="edge">
<title>escalate_human&#45;&gt;fix_failures</title>
<path fill="none" stroke="black" d="M452.98,-423.93C458.34,-470.04 461.16,-550.08 428.21,-607.5 418.92,-623.7 404.38,-637.18 389.13,-647.95"/>
<polygon fill="black" stroke="black" points="387.23,-645.02 380.84,-653.47 391.11,-650.84 387.23,-645.02"/>
</g>
<!-- assess_quality -->
<g id="node17" class="node">
<title>assess_quality</title>
<polygon fill="#fff3e0" stroke="black" points="168.21,-251.25 62.21,-213.25 168.21,-175.25 274.21,-213.25 168.21,-251.25"/>
<text xml:space="preserve" text-anchor="middle" x="168.21" y="-214.95" font-family="Helvetica,sans-Serif" font-size="14.00">Assess Quality</text>
<text xml:space="preserve" text-anchor="middle" x="168.21" y="-199.95" font-family="Helvetica,sans-Serif" font-size="14.00">(condition)</text>
</g>
<!-- check_quality&#45;&gt;assess_quality -->
<g id="edge25" class="edge">
<title>check_quality&#45;&gt;assess_quality</title>
<path fill="none" stroke="black" d="M168.21,-287.76C168.21,-279.29 168.21,-270.99 168.21,-263.18"/>
<polygon fill="black" stroke="black" points="171.71,-263.28 168.21,-253.28 164.71,-263.28 171.71,-263.28"/>
</g>
<!-- improve_quality -->
<g id="node18" class="node">
<title>improve_quality</title>
<path fill="#e3f2fd" stroke="black" d="M291.21,-128C291.21,-128 203.21,-128 203.21,-128 197.21,-128 191.21,-122 191.21,-116 191.21,-116 191.21,-87 191.21,-87 191.21,-81 197.21,-75 203.21,-75 203.21,-75 291.21,-75 291.21,-75 297.21,-75 303.21,-81 303.21,-87 303.21,-87 303.21,-116 303.21,-116 303.21,-122 297.21,-128 291.21,-128"/>
<text xml:space="preserve" text-anchor="middle" x="247.21" y="-110.7" font-family="Helvetica,sans-Serif" font-size="14.00">Improve Quality</text>
<text xml:space="preserve" text-anchor="middle" x="247.21" y="-95.7" font-family="Helvetica,sans-Serif" font-size="14.00">(agent)</text>
<text xml:space="preserve" text-anchor="middle" x="247.21" y="-80.7" font-family="Helvetica,sans-Serif" font-size="14.00">role: executor</text>
</g>
<!-- assess_quality&#45;&gt;improve_quality -->
<g id="edge28" class="edge">
<title>assess_quality&#45;&gt;improve_quality</title>
<path fill="none" stroke="black" stroke-dasharray="5,2" d="M173.03,-176.59C175.66,-166.08 179.71,-154.99 185.96,-146 188.38,-142.53 191.16,-139.24 194.18,-136.14"/>
<polygon fill="black" stroke="black" points="196.51,-138.75 201.53,-129.42 191.79,-133.59 196.51,-138.75"/>
<text xml:space="preserve" text-anchor="middle" x="209.59" y="-147.75" font-family="Helvetica,sans-Serif" font-size="10.00">acceptable</text>
</g>
<!-- assess_quality&#45;&gt;improve_quality -->
<g id="edge29" class="edge">
<title>assess_quality&#45;&gt;improve_quality</title>
<path fill="none" stroke="black" stroke-dasharray="5,2" d="M204.84,-187.92C215.34,-179.35 225.92,-168.9 233.21,-157.25 236.6,-151.85 239.17,-145.66 241.11,-139.43"/>
<polygon fill="black" stroke="black" points="244.49,-140.36 243.61,-129.8 237.71,-138.6 244.49,-140.36"/>
<text xml:space="preserve" text-anchor="middle" x="282.56" y="-147.75" font-family="Helvetica,sans-Serif" font-size="10.00">needs_improvement</text>
</g>
<!-- finalize -->
<g id="node19" class="node">
<title>finalize</title>
<polygon fill="#eceff1" stroke="black" points="219.84,-38 84.59,-38 84.59,0 219.84,0 219.84,-38"/>
<text xml:space="preserve" text-anchor="middle" x="152.21" y="-20.7" font-family="Helvetica,sans-Serif" font-size="14.00">Finalize Refactoring</text>
<text xml:space="preserve" text-anchor="middle" x="152.21" y="-5.7" font-family="Helvetica,sans-Serif" font-size="14.00">(transform)</text>
</g>
<!-- assess_quality&#45;&gt;finalize -->
<g id="edge26" class="edge">
<title>assess_quality&#45;&gt;finalize</title>
<path fill="none" stroke="black" stroke-dasharray="5,2" d="M135.4,-186.78C118.74,-171.72 100.18,-151.09 91.21,-128 82.69,-106.04 81.64,-96.52 91.21,-75 96.22,-63.74 104.79,-53.82 113.96,-45.62"/>
<polygon fill="black" stroke="black" points="116.18,-48.32 121.66,-39.25 111.72,-42.92 116.18,-48.32"/>
<text xml:space="preserve" text-anchor="middle" x="110.71" y="-97.62" font-family="Helvetica,sans-Serif" font-size="10.00">excellent</text>
</g>
<!-- assess_quality&#45;&gt;finalize -->
<g id="edge27" class="edge">
<title>assess_quality&#45;&gt;finalize</title>
<path fill="none" stroke="black" stroke-dasharray="5,2" d="M165.2,-176.09C162.16,-139.47 157.5,-83.52 154.67,-49.5"/>
<polygon fill="black" stroke="black" points="158.16,-49.21 153.84,-39.54 151.18,-49.79 158.16,-49.21"/>
<text xml:space="preserve" text-anchor="middle" x="171.51" y="-97.62" font-family="Helvetica,sans-Serif" font-size="10.00">good</text>
</g>
<!-- improve_quality&#45;&gt;finalize -->
<g id="edge30" class="edge">
<title>improve_quality&#45;&gt;finalize</title>
<path fill="none" stroke="black" d="M216.63,-74.59C205.78,-65.39 193.58,-55.05 182.74,-45.87"/>
<polygon fill="black" stroke="black" points="185.05,-43.24 175.16,-39.45 180.53,-48.58 185.05,-43.24"/>
</g>
</g>
</svg>
