<?xml version="1.0" encoding="UTF-8" standalone="no"?>
<!DOCTYPE svg PUBLIC "-//W3C//DTD SVG 1.1//EN"
 "http://www.w3.org/Graphics/SVG/1.1/DTD/svg11.dtd">
<!-- Generated by graphviz version 14.0.4 (20251115.1723)
 -->
<!-- Title: workflow Pages: 1 -->
<svg width="419pt" height="958pt"
 viewBox="0.00 0.00 419.00 958.00" xmlns="http://www.w3.org/2000/svg" xmlns:xlink="http://www.w3.org/1999/xlink">
<g id="graph0" class="graph" transform="scale(1 1) rotate(0) translate(4 953.66)">
<title>workflow</title>
<polygon fill="white" stroke="none" points="-4,4 -4,-953.66 415.41,-953.66 415.41,4 -4,4"/>
<text xml:space="preserve" text-anchor="middle" x="205.7" y="-932.36" font-family="Times,serif" font-size="14.00">pr_review</text>
<!-- fetch_pr -->
<g id="node1" class="node">
<title>fetch_pr</title>
<polygon fill="#e8f5e9" stroke="black" points="368.67,-925.16 119.63,-925.16 55.57,-729.16 304.61,-729.16 368.67,-925.16"/>
<text xml:space="preserve" text-anchor="middle" x="212.12" y="-858.86" font-family="Helvetica,sans-Serif" font-size="14.00">Fetch PR Changes</text>
<text xml:space="preserve" text-anchor="middle" x="212.12" y="-843.86" font-family="Helvetica,sans-Serif" font-size="14.00">(compute)</text>
<text xml:space="preserve" text-anchor="middle" x="212.12" y="-828.86" font-family="Helvetica,sans-Serif" font-size="14.00">exec: in&#45;process</text>
<text xml:space="preserve" text-anchor="middle" x="212.12" y="-813.86" font-family="Helvetica,sans-Serif" font-size="14.00">handler: git_pr_fetcher</text>
<text xml:space="preserve" text-anchor="middle" x="212.12" y="-798.86" font-family="Helvetica,sans-Serif" font-size="14.00">blocked: [llm, write]</text>
<text xml:space="preserve" text-anchor="middle" x="212.12" y="-783.86" font-family="Helvetica,sans-Serif" font-size="14.00">timeout: 120s</text>
</g>
<!-- analyze_impact -->
<g id="node2" class="node">
<title>analyze_impact</title>
<path fill="#e3f2fd" stroke="black" d="M255.37,-692.16C255.37,-692.16 168.87,-692.16 168.87,-692.16 162.87,-692.16 156.87,-686.16 156.87,-680.16 156.87,-680.16 156.87,-651.16 156.87,-651.16 156.87,-645.16 162.87,-639.16 168.87,-639.16 168.87,-639.16 255.37,-639.16 255.37,-639.16 261.37,-639.16 267.37,-645.16 267.37,-651.16 267.37,-651.16 267.37,-680.16 267.37,-680.16 267.37,-686.16 261.37,-692.16 255.37,-692.16"/>
<text xml:space="preserve" text-anchor="middle" x="212.12" y="-674.86" font-family="Helvetica,sans-Serif" font-size="14.00">Analyze Impact</text>
<text xml:space="preserve" text-anchor="middle" x="212.12" y="-659.86" font-family="Helvetica,sans-Serif" font-size="14.00">(agent)</text>
<text xml:space="preserve" text-anchor="middle" x="212.12" y="-644.86" font-family="Helvetica,sans-Serif" font-size="14.00">role: researcher</text>
</g>
<!-- fetch_pr&#45;&gt;analyze_impact -->
<g id="edge1" class="edge">
<title>fetch_pr&#45;&gt;analyze_impact</title>
<path fill="none" stroke="black" d="M212.12,-728.78C212.12,-720.01 212.12,-711.54 212.12,-703.83"/>
<polygon fill="black" stroke="black" points="215.62,-703.9 212.12,-693.9 208.62,-703.9 215.62,-703.9"/>
</g>
<!-- check_tests -->
<g id="node3" class="node">
<title>check_tests</title>
<path fill="#e3f2fd" stroke="black" d="M272.62,-602.16C272.62,-602.16 151.62,-602.16 151.62,-602.16 145.62,-602.16 139.62,-596.16 139.62,-590.16 139.62,-590.16 139.62,-561.16 139.62,-561.16 139.62,-555.16 145.62,-549.16 151.62,-549.16 151.62,-549.16 272.62,-549.16 272.62,-549.16 278.62,-549.16 284.62,-555.16 284.62,-561.16 284.62,-561.16 284.62,-590.16 284.62,-590.16 284.62,-596.16 278.62,-602.16 272.62,-602.16"/>
<text xml:space="preserve" text-anchor="middle" x="212.12" y="-584.86" font-family="Helvetica,sans-Serif" font-size="14.00">Check Test Coverage</text>
<text xml:space="preserve" text-anchor="middle" x="212.12" y="-569.86" font-family="Helvetica,sans-Serif" font-size="14.00">(agent)</text>
<text xml:space="preserve" text-anchor="middle" x="212.12" y="-554.86" font-family="Helvetica,sans-Serif" font-size="14.00">role: reviewer</text>
</g>
<!-- analyze_impact&#45;&gt;check_tests -->
<g id="edge2" class="edge">
<title>analyze_impact&#45;&gt;check_tests</title>
<path fill="none" stroke="black" d="M212.12,-638.73C212.12,-630.94 212.12,-622.24 212.12,-613.87"/>
<polygon fill="black" stroke="black" points="215.62,-613.91 212.12,-603.91 208.62,-613.91 215.62,-613.91"/>
</g>
<!-- generate_review -->
<g id="node4" class="node">
<title>generate_review</title>
<path fill="#e3f2fd" stroke="black" d="M260.62,-512.16C260.62,-512.16 163.62,-512.16 163.62,-512.16 157.62,-512.16 151.62,-506.16 151.62,-500.16 151.62,-500.16 151.62,-471.16 151.62,-471.16 151.62,-465.16 157.62,-459.16 163.62,-459.16 163.62,-459.16 260.62,-459.16 260.62,-459.16 266.62,-459.16 272.62,-465.16 272.62,-471.16 272.62,-471.16 272.62,-500.16 272.62,-500.16 272.62,-506.16 266.62,-512.16 260.62,-512.16"/>
<text xml:space="preserve" text-anchor="middle" x="212.12" y="-494.86" font-family="Helvetica,sans-Serif" font-size="14.00">Generate Review</text>
<text xml:space="preserve" text-anchor="middle" x="212.12" y="-479.86" font-family="Helvetica,sans-Serif" font-size="14.00">(agent)</text>
<text xml:space="preserve" text-anchor="middle" x="212.12" y="-464.86" font-family="Helvetica,sans-Serif" font-size="14.00">role: planner</text>
</g>
<!-- check_tests&#45;&gt;generate_review -->
<g id="edge3" class="edge">
<title>check_tests&#45;&gt;generate_review</title>
<path fill="none" stroke="black" d="M212.12,-548.73C212.12,-540.94 212.12,-532.24 212.12,-523.87"/>
<polygon fill="black" stroke="black" points="215.62,-523.91 212.12,-513.91 208.62,-523.91 215.62,-523.91"/>
</g>
<!-- check_verdict -->
<g id="node5" class="node">
<title>check_verdict</title>
<polygon fill="#fff3e0" stroke="black" points="212.12,-422.16 64.12,-384.16 212.12,-346.16 360.12,-384.16 212.12,-422.16"/>
<text xml:space="preserve" text-anchor="middle" x="212.12" y="-385.86" font-family="Helvetica,sans-Serif" font-size="14.00">Check Review Verdict</text>
<text xml:space="preserve" text-anchor="middle" x="212.12" y="-370.86" font-family="Helvetica,sans-Serif" font-size="14.00">(condition)</text>
</g>
<!-- generate_review&#45;&gt;check_verdict -->
<g id="edge4" class="edge">
<title>generate_review&#45;&gt;check_verdict</title>
<path fill="none" stroke="black" d="M212.12,-458.77C212.12,-451.09 212.12,-442.4 212.12,-433.77"/>
<polygon fill="black" stroke="black" points="215.62,-434.04 212.12,-424.04 208.62,-434.04 215.62,-434.04"/>
</g>
<!-- pr_approved -->
<g id="node6" class="node">
<title>pr_approved</title>
<ellipse fill="#ffebee" stroke="black" cx="69.12" cy="-261.43" rx="69.12" ry="37.48"/>
<text xml:space="preserve" text-anchor="middle" x="69.12" y="-270.63" font-family="Helvetica,sans-Serif" font-size="14.00">PR Approved</text>
<text xml:space="preserve" text-anchor="middle" x="69.12" y="-255.63" font-family="Helvetica,sans-Serif" font-size="14.00">(hitl)</text>
<text xml:space="preserve" text-anchor="middle" x="69.12" y="-240.63" font-family="Helvetica,sans-Serif" font-size="14.00">timeout: 600s</text>
</g>
<!-- check_verdict&#45;&gt;pr_approved -->
<g id="edge5" class="edge">
<title>check_verdict&#45;&gt;pr_approved</title>
<path fill="none" stroke="black" stroke-dasharray="5,2" d="M178.23,-354.55C159.22,-338.5 135.26,-318.27 114.64,-300.86"/>
<polygon fill="black" stroke="black" points="117.08,-298.34 107.18,-294.56 112.57,-303.69 117.08,-298.34"/>
<text xml:space="preserve" text-anchor="middle" x="164.78" y="-318.66" font-family="Helvetica,sans-Serif" font-size="10.00">approved</text>
</g>
<!-- pr_changes_requested -->
<g id="node7" class="node">
<title>pr_changes_requested</title>
<ellipse fill="#ffebee" stroke="black" cx="313.12" cy="-168.48" rx="98.29" ry="37.48"/>
<text xml:space="preserve" text-anchor="middle" x="313.12" y="-177.68" font-family="Helvetica,sans-Serif" font-size="14.00">Changes Requested</text>
<text xml:space="preserve" text-anchor="middle" x="313.12" y="-162.68" font-family="Helvetica,sans-Serif" font-size="14.00">(hitl)</text>
<text xml:space="preserve" text-anchor="middle" x="313.12" y="-147.68" font-family="Helvetica,sans-Serif" font-size="14.00">timeout: 600s</text>
</g>
<!-- check_verdict&#45;&gt;pr_changes_requested -->
<g id="edge6" class="edge">
<title>check_verdict&#45;&gt;pr_changes_requested</title>
<path fill="none" stroke="black" stroke-dasharray="5,2" d="M260.83,-358.53C272.49,-350.4 283.69,-340.27 291.12,-328.16 311.41,-295.07 316.12,-250.91 316.2,-217.57"/>
<polygon fill="black" stroke="black" points="319.7,-217.74 316.08,-207.78 312.7,-217.83 319.7,-217.74"/>
<text xml:space="preserve" text-anchor="middle" x="339.38" y="-318.66" font-family="Helvetica,sans-Serif" font-size="10.00">changes_requested</text>
</g>
<!-- pr_needs_discussion -->
<g id="node8" class="node">
<title>pr_needs_discussion</title>
<polygon fill="#eceff1" stroke="black" points="280.12,-280.43 156.12,-280.43 156.12,-242.43 280.12,-242.43 280.12,-280.43"/>
<text xml:space="preserve" text-anchor="middle" x="218.12" y="-263.13" font-family="Helvetica,sans-Serif" font-size="14.00">Needs Discussion</text>
<text xml:space="preserve" text-anchor="middle" x="218.12" y="-248.13" font-family="Helvetica,sans-Serif" font-size="14.00">(transform)</text>
</g>
<!-- check_verdict&#45;&gt;pr_needs_discussion -->
<g id="edge7" class="edge">
<title>check_verdict&#45;&gt;pr_needs_discussion</title>
<path fill="none" stroke="black" stroke-dasharray="5,2" d="M212.18,-346C212.33,-336.51 212.62,-326.33 213.12,-316.91 213.55,-308.81 214.25,-300.06 214.99,-291.99"/>
<polygon fill="black" stroke="black" points="218.45,-292.61 215.93,-282.32 211.48,-291.93 218.45,-292.61"/>
<text xml:space="preserve" text-anchor="middle" x="252.12" y="-318.66" font-family="Helvetica,sans-Serif" font-size="10.00">needs_discussion</text>
</g>
<!-- complete_approved -->
<g id="node9" class="node">
<title>complete_approved</title>
<polygon fill="#eceff1" stroke="black" points="248.24,-113 151.99,-113 151.99,-75 248.24,-75 248.24,-113"/>
<text xml:space="preserve" text-anchor="middle" x="200.12" y="-95.7" font-family="Helvetica,sans-Serif" font-size="14.00">PR Approved</text>
<text xml:space="preserve" text-anchor="middle" x="200.12" y="-80.7" font-family="Helvetica,sans-Serif" font-size="14.00">(transform)</text>
</g>
<!-- pr_approved&#45;&gt;complete_approved -->
<g id="edge8" class="edge">
<title>pr_approved&#45;&gt;complete_approved</title>
<path fill="none" stroke="black" d="M95.95,-226.55C120.29,-195.81 155.74,-151.04 178.37,-122.47"/>
<polygon fill="black" stroke="black" points="181.11,-124.65 184.57,-114.63 175.62,-120.3 181.11,-124.65"/>
</g>
<!-- complete_changes -->
<g id="node10" class="node">
<title>complete_changes</title>
<polygon fill="#eceff1" stroke="black" points="325.62,-38 186.62,-38 186.62,0 325.62,0 325.62,-38"/>
<text xml:space="preserve" text-anchor="middle" x="256.12" y="-20.7" font-family="Helvetica,sans-Serif" font-size="14.00">Changes Requested</text>
<text xml:space="preserve" text-anchor="middle" x="256.12" y="-5.7" font-family="Helvetica,sans-Serif" font-size="14.00">(transform)</text>
</g>
<!-- pr_changes_requested&#45;&gt;complete_changes -->
<g id="edge9" class="edge">
<title>pr_changes_requested&#45;&gt;complete_changes</title>
<path fill="none" stroke="black" d="M299.03,-131.02C289.23,-105.66 276.34,-72.31 267.25,-48.81"/>
<polygon fill="black" stroke="black" points="270.55,-47.61 263.68,-39.55 264.02,-50.14 270.55,-47.61"/>
</g>
<!-- pr_needs_discussion&#45;&gt;complete_approved -->
<g id="edge10" class="edge">
<title>pr_needs_discussion&#45;&gt;complete_approved</title>
<path fill="none" stroke="black" d="M216.12,-242.09C213.03,-213.65 207.04,-158.62 203.33,-124.53"/>
<polygon fill="black" stroke="black" points="206.85,-124.49 202.29,-114.92 199.89,-125.24 206.85,-124.49"/>
</g>
<!-- complete_approved&#45;&gt;complete_changes -->
<g id="edge11" class="edge">
<title>complete_approved&#45;&gt;complete_changes</title>
<path fill="none" stroke="black" d="M214.25,-74.58C220.55,-66.37 228.11,-56.52 235.05,-47.46"/>
<polygon fill="black" stroke="black" points="237.76,-49.68 241.07,-39.62 232.21,-45.42 237.76,-49.68"/>
</g>
</g>
</svg>
