<?xml version="1.0" encoding="UTF-8" standalone="no"?>
<!DOCTYPE svg PUBLIC "-//W3C//DTD SVG 1.1//EN"
 "http://www.w3.org/Graphics/SVG/1.1/DTD/svg11.dtd">
<!-- Generated by graphviz version 14.0.4 (20251115.1723)
 -->
<!-- Title: workflow Pages: 1 -->
<svg width="607pt" height="1568pt"
 viewBox="0.00 0.00 607.00 1568.00" xmlns="http://www.w3.org/2000/svg" xmlns:xlink="http://www.w3.org/1999/xlink">
<g id="graph0" class="graph" transform="scale(1 1) rotate(0) translate(4 1564.45)">
<title>workflow</title>
<polygon fill="white" stroke="none" points="-4,4 -4,-1564.45 603.45,-1564.45 603.45,4 -4,4"/>
<text xml:space="preserve" text-anchor="middle" x="299.73" y="-1543.15" font-family="Times,serif" font-size="14.00">bug_fix</text>
<!-- investigate -->
<g id="node1" class="node">
<title>investigate</title>
<path fill="#e3f2fd" stroke="black" d="M464.25,-1535.95C464.25,-1535.95 377.75,-1535.95 377.75,-1535.95 371.75,-1535.95 365.75,-1529.95 365.75,-1523.95 365.75,-1523.95 365.75,-1494.95 365.75,-1494.95 365.75,-1488.95 371.75,-1482.95 377.75,-1482.95 377.75,-1482.95 464.25,-1482.95 464.25,-1482.95 470.25,-1482.95 476.25,-1488.95 476.25,-1494.95 476.25,-1494.95 476.25,-1523.95 476.25,-1523.95 476.25,-1529.95 470.25,-1535.95 464.25,-1535.95"/>
<text xml:space="preserve" text-anchor="middle" x="421" y="-1518.65" font-family="Helvetica,sans-Serif" font-size="14.00">Investigate Bug</text>
<text xml:space="preserve" text-anchor="middle" x="421" y="-1503.65" font-family="Helvetica,sans-Serif" font-size="14.00">(agent)</text>
<text xml:space="preserve" text-anchor="middle" x="421" y="-1488.65" font-family="Helvetica,sans-Serif" font-size="14.00">role: researcher</text>
</g>
<!-- diagnose -->
<g id="node2" class="node">
<title>diagnose</title>
<path fill="#e3f2fd" stroke="black" d="M463.5,-1445.95C463.5,-1445.95 378.5,-1445.95 378.5,-1445.95 372.5,-1445.95 366.5,-1439.95 366.5,-1433.95 366.5,-1433.95 366.5,-1404.95 366.5,-1404.95 366.5,-1398.95 372.5,-1392.95 378.5,-1392.95 378.5,-1392.95 463.5,-1392.95 463.5,-1392.95 469.5,-1392.95 475.5,-1398.95 475.5,-1404.95 475.5,-1404.95 475.5,-1433.95 475.5,-1433.95 475.5,-1439.95 469.5,-1445.95 463.5,-1445.95"/>
<text xml:space="preserve" text-anchor="middle" x="421" y="-1428.65" font-family="Helvetica,sans-Serif" font-size="14.00">Diagnose Issue</text>
<text xml:space="preserve" text-anchor="middle" x="421" y="-1413.65" font-family="Helvetica,sans-Serif" font-size="14.00">(agent)</text>
<text xml:space="preserve" text-anchor="middle" x="421" y="-1398.65" font-family="Helvetica,sans-Serif" font-size="14.00">role: planner</text>
</g>
<!-- investigate&#45;&gt;diagnose -->
<g id="edge1" class="edge">
<title>investigate&#45;&gt;diagnose</title>
<path fill="none" stroke="black" d="M421,-1482.53C421,-1474.74 421,-1466.04 421,-1457.67"/>
<polygon fill="black" stroke="black" points="424.5,-1457.71 421,-1447.71 417.5,-1457.71 424.5,-1457.71"/>
</g>
<!-- approve_fix -->
<g id="node3" class="node">
<title>approve_fix</title>
<ellipse fill="#ffebee" stroke="black" cx="421" cy="-1318.48" rx="83.97" ry="37.48"/>
<text xml:space="preserve" text-anchor="middle" x="421" y="-1327.68" font-family="Helvetica,sans-Serif" font-size="14.00">Approve Fix Plan</text>
<text xml:space="preserve" text-anchor="middle" x="421" y="-1312.68" font-family="Helvetica,sans-Serif" font-size="14.00">(hitl)</text>
<text xml:space="preserve" text-anchor="middle" x="421" y="-1297.68" font-family="Helvetica,sans-Serif" font-size="14.00">timeout: 300s</text>
</g>
<!-- diagnose&#45;&gt;approve_fix -->
<g id="edge2" class="edge">
<title>diagnose&#45;&gt;approve_fix</title>
<path fill="none" stroke="black" d="M421,-1392.71C421,-1384.98 421,-1376.24 421,-1367.56"/>
<polygon fill="black" stroke="black" points="424.5,-1367.79 421,-1357.79 417.5,-1367.79 424.5,-1367.79"/>
</g>
<!-- apply_fix -->
<g id="node4" class="node">
<title>apply_fix</title>
<path fill="#e3f2fd" stroke="black" d="M458.62,-1244C458.62,-1244 383.38,-1244 383.38,-1244 377.38,-1244 371.38,-1238 371.38,-1232 371.38,-1232 371.38,-1203 371.38,-1203 371.38,-1197 377.38,-1191 383.38,-1191 383.38,-1191 458.62,-1191 458.62,-1191 464.62,-1191 470.62,-1197 470.62,-1203 470.62,-1203 470.62,-1232 470.62,-1232 470.62,-1238 464.62,-1244 458.62,-1244"/>
<text xml:space="preserve" text-anchor="middle" x="421" y="-1226.7" font-family="Helvetica,sans-Serif" font-size="14.00">Apply Bug Fix</text>
<text xml:space="preserve" text-anchor="middle" x="421" y="-1211.7" font-family="Helvetica,sans-Serif" font-size="14.00">(agent)</text>
<text xml:space="preserve" text-anchor="middle" x="421" y="-1196.7" font-family="Helvetica,sans-Serif" font-size="14.00">role: executor</text>
</g>
<!-- approve_fix&#45;&gt;apply_fix -->
<g id="edge3" class="edge">
<title>approve_fix&#45;&gt;apply_fix</title>
<path fill="none" stroke="black" d="M421,-1280.62C421,-1272.5 421,-1263.89 421,-1255.75"/>
<polygon fill="black" stroke="black" points="424.5,-1255.78 421,-1245.78 417.5,-1255.78 424.5,-1255.78"/>
</g>
<!-- run_tests -->
<g id="node5" class="node">
<title>run_tests</title>
<polygon fill="#e8f5e9" stroke="black" points="385.78,-1154 160.24,-1154 102.22,-958 327.76,-958 385.78,-1154"/>
<text xml:space="preserve" text-anchor="middle" x="244" y="-1087.7" font-family="Helvetica,sans-Serif" font-size="14.00">Run Tests</text>
<text xml:space="preserve" text-anchor="middle" x="244" y="-1072.7" font-family="Helvetica,sans-Serif" font-size="14.00">(compute)</text>
<text xml:space="preserve" text-anchor="middle" x="244" y="-1057.7" font-family="Helvetica,sans-Serif" font-size="14.00">exec: in&#45;process</text>
<text xml:space="preserve" text-anchor="middle" x="244" y="-1042.7" font-family="Helvetica,sans-Serif" font-size="14.00">handler: test_runner</text>
<text xml:space="preserve" text-anchor="middle" x="244" y="-1027.7" font-family="Helvetica,sans-Serif" font-size="14.00">blocked: [llm, write]</text>
<text xml:space="preserve" text-anchor="middle" x="244" y="-1012.7" font-family="Helvetica,sans-Serif" font-size="14.00">timeout: 180s</text>
</g>
<!-- apply_fix&#45;&gt;run_tests -->
<g id="edge4" class="edge">
<title>apply_fix&#45;&gt;run_tests</title>
<path fill="none" stroke="black" d="M392.17,-1190.52C382.95,-1182.21 372.1,-1172.44 360.55,-1162.03"/>
<polygon fill="black" stroke="black" points="362.92,-1159.45 353.15,-1155.36 358.24,-1164.65 362.92,-1159.45"/>
</g>
<!-- check_tests -->
<g id="node6" class="node">
<title>check_tests</title>
<polygon fill="#fff3e0" stroke="black" points="225,-921 93.5,-883 225,-845 356.5,-883 225,-921"/>
<text xml:space="preserve" text-anchor="middle" x="225" y="-884.7" font-family="Helvetica,sans-Serif" font-size="14.00">Check Test Results</text>
<text xml:space="preserve" text-anchor="middle" x="225" y="-869.7" font-family="Helvetica,sans-Serif" font-size="14.00">(condition)</text>
</g>
<!-- run_tests&#45;&gt;check_tests -->
<g id="edge5" class="edge">
<title>run_tests&#45;&gt;check_tests</title>
<path fill="none" stroke="black" d="M233.17,-957.51C232.16,-948.44 231.17,-939.55 230.25,-931.26"/>
<polygon fill="black" stroke="black" points="233.75,-931.05 229.17,-921.49 226.79,-931.82 233.75,-931.05"/>
</g>
<!-- analyze_failure -->
<g id="node7" class="node">
<title>analyze_failure</title>
<path fill="#e3f2fd" stroke="black" d="M381.12,-797.75C381.12,-797.75 260.88,-797.75 260.88,-797.75 254.88,-797.75 248.88,-791.75 248.88,-785.75 248.88,-785.75 248.88,-756.75 248.88,-756.75 248.88,-750.75 254.88,-744.75 260.88,-744.75 260.88,-744.75 381.12,-744.75 381.12,-744.75 387.12,-744.75 393.12,-750.75 393.12,-756.75 393.12,-756.75 393.12,-785.75 393.12,-785.75 393.12,-791.75 387.12,-797.75 381.12,-797.75"/>
<text xml:space="preserve" text-anchor="middle" x="321" y="-780.45" font-family="Helvetica,sans-Serif" font-size="14.00">Analyze Test Failures</text>
<text xml:space="preserve" text-anchor="middle" x="321" y="-765.45" font-family="Helvetica,sans-Serif" font-size="14.00">(agent)</text>
<text xml:space="preserve" text-anchor="middle" x="321" y="-750.45" font-family="Helvetica,sans-Serif" font-size="14.00">role: analyst</text>
</g>
<!-- check_tests&#45;&gt;analyze_failure -->
<g id="edge7" class="edge">
<title>check_tests&#45;&gt;analyze_failure</title>
<path fill="none" stroke="black" stroke-dasharray="5,2" d="M250.98,-852.3C263.33,-838.18 278.16,-821.23 290.98,-806.57"/>
<polygon fill="black" stroke="black" points="293.32,-809.21 297.27,-799.38 288.05,-804.6 293.32,-809.21"/>
<text xml:space="preserve" text-anchor="middle" x="294.35" y="-817.5" font-family="Helvetica,sans-Serif" font-size="10.00">failing</text>
</g>
<!-- check_quality -->
<g id="node10" class="node">
<title>check_quality</title>
<polygon fill="#e8f5e9" stroke="black" points="389.21,-574.25 121.62,-574.25 52.79,-378.25 320.38,-378.25 389.21,-574.25"/>
<text xml:space="preserve" text-anchor="middle" x="221" y="-507.95" font-family="Helvetica,sans-Serif" font-size="14.00">Check Code Quality</text>
<text xml:space="preserve" text-anchor="middle" x="221" y="-492.95" font-family="Helvetica,sans-Serif" font-size="14.00">(compute)</text>
<text xml:space="preserve" text-anchor="middle" x="221" y="-477.95" font-family="Helvetica,sans-Serif" font-size="14.00">exec: in&#45;process</text>
<text xml:space="preserve" text-anchor="middle" x="221" y="-462.95" font-family="Helvetica,sans-Serif" font-size="14.00">handler: code_validation</text>
<text xml:space="preserve" text-anchor="middle" x="221" y="-447.95" font-family="Helvetica,sans-Serif" font-size="14.00">blocked: [llm, write]</text>
<text xml:space="preserve" text-anchor="middle" x="221" y="-432.95" font-family="Helvetica,sans-Serif" font-size="14.00">timeout: 120s</text>
</g>
<!-- check_tests&#45;&gt;check_quality -->
<g id="edge6" class="edge">
<title>check_tests&#45;&gt;check_quality</title>
<path fill="none" stroke="black" stroke-dasharray="5,2" d="M224.63,-844.65C224.06,-786.4 222.92,-671.72 222.07,-585.9"/>
<polygon fill="black" stroke="black" points="225.57,-586 221.98,-576.03 218.58,-586.07 225.57,-586"/>
<text xml:space="preserve" text-anchor="middle" x="240.33" y="-717.25" font-family="Helvetica,sans-Serif" font-size="10.00">passing</text>
</g>
<!-- check_tests&#45;&gt;check_quality -->
<g id="edge8" class="edge">
<title>check_tests&#45;&gt;check_quality</title>
<path fill="none" stroke="black" stroke-dasharray="5,2" d="M212.69,-848.34C202.01,-817.27 187.39,-769.59 181.5,-726.75 175.14,-680.49 180.91,-629.54 189.81,-585.82"/>
<polygon fill="black" stroke="black" points="193.23,-586.56 191.88,-576.05 186.38,-585.11 193.23,-586.56"/>
<text xml:space="preserve" text-anchor="middle" x="200.25" y="-717.25" font-family="Helvetica,sans-Serif" font-size="10.00">no_tests</text>
</g>
<!-- should_retry -->
<g id="node8" class="node">
<title>should_retry</title>
<polygon fill="#fff3e0" stroke="black" points="368,-697.5 252.25,-659.5 368,-621.5 483.75,-659.5 368,-697.5"/>
<text xml:space="preserve" text-anchor="middle" x="368" y="-661.2" font-family="Helvetica,sans-Serif" font-size="14.00">Should Retry Fix</text>
<text xml:space="preserve" text-anchor="middle" x="368" y="-646.2" font-family="Helvetica,sans-Serif" font-size="14.00">(condition)</text>
</g>
<!-- analyze_failure&#45;&gt;should_retry -->
<g id="edge9" class="edge">
<title>analyze_failure&#45;&gt;should_retry</title>
<path fill="none" stroke="black" d="M332.02,-744.52C337.25,-732.3 343.65,-717.37 349.59,-703.5"/>
<polygon fill="black" stroke="black" points="352.7,-705.12 353.42,-694.55 346.26,-702.37 352.7,-705.12"/>
</g>
<!-- should_retry&#45;&gt;apply_fix -->
<g id="edge10" class="edge">
<title>should_retry&#45;&gt;apply_fix</title>
<path fill="none" stroke="black" stroke-dasharray="5,2" d="M391.09,-689.89C405.37,-711.01 421,-740.84 421,-770.25 421,-1057 421,-1057 421,-1057 421,-1098.93 421,-1147.05 421,-1179.38"/>
<polygon fill="black" stroke="black" points="417.5,-1179.02 421,-1189.02 424.5,-1179.02 417.5,-1179.02"/>
<text xml:space="preserve" text-anchor="middle" x="453.62" y="-879.12" font-family="Helvetica,sans-Serif" font-size="10.00">continue_fixing</text>
</g>
<!-- escalate_to_human -->
<g id="node9" class="node">
<title>escalate_to_human</title>
<ellipse fill="#ffebee" stroke="black" cx="507" cy="-476.25" rx="92.45" ry="37.48"/>
<text xml:space="preserve" text-anchor="middle" x="507" y="-485.45" font-family="Helvetica,sans-Serif" font-size="14.00">Escalate to Human</text>
<text xml:space="preserve" text-anchor="middle" x="507" y="-470.45" font-family="Helvetica,sans-Serif" font-size="14.00">(hitl)</text>
<text xml:space="preserve" text-anchor="middle" x="507" y="-455.45" font-family="Helvetica,sans-Serif" font-size="14.00">timeout: 600s</text>
</g>
<!-- should_retry&#45;&gt;escalate_to_human -->
<g id="edge11" class="edge">
<title>should_retry&#45;&gt;escalate_to_human</title>
<path fill="none" stroke="black" stroke-dasharray="5,2" d="M390.95,-628.57C413.3,-599.44 447.52,-554.81 473.02,-521.56"/>
<polygon fill="black" stroke="black" points="475.73,-523.78 479.04,-513.71 470.18,-519.52 475.73,-523.78"/>
<text xml:space="preserve" text-anchor="middle" x="435.3" y="-594" font-family="Helvetica,sans-Serif" font-size="10.00">escalate</text>
</g>
<!-- should_retry&#45;&gt;check_quality -->
<g id="edge12" class="edge">
<title>should_retry&#45;&gt;check_quality</title>
<path fill="none" stroke="black" stroke-dasharray="5,2" d="M344.05,-628.98C333.59,-616.08 320.63,-600.09 307.07,-583.37"/>
<polygon fill="black" stroke="black" points="309.91,-581.32 300.89,-575.75 304.47,-585.73 309.91,-581.32"/>
<text xml:space="preserve" text-anchor="middle" x="360.95" y="-594" font-family="Helvetica,sans-Serif" font-size="10.00">submit_best_effort</text>
</g>
<!-- escalate_to_human&#45;&gt;apply_fix -->
<g id="edge13" class="edge">
<title>escalate_to_human&#45;&gt;apply_fix</title>
<path fill="none" stroke="black" d="M509.25,-514.03C511.3,-550.64 514,-608.43 514,-658.5 514,-1057 514,-1057 514,-1057 514,-1105.28 481.8,-1151.97 455.3,-1182.22"/>
<polygon fill="black" stroke="black" points="452.77,-1179.79 448.66,-1189.56 457.97,-1184.49 452.77,-1179.79"/>
</g>
<!-- assess_quality -->
<g id="node11" class="node">
<title>assess_quality</title>
<polygon fill="#fff3e0" stroke="black" points="221,-341.25 115,-303.25 221,-265.25 327,-303.25 221,-341.25"/>
<text xml:space="preserve" text-anchor="middle" x="221" y="-304.95" font-family="Helvetica,sans-Serif" font-size="14.00">Assess Quality</text>
<text xml:space="preserve" text-anchor="middle" x="221" y="-289.95" font-family="Helvetica,sans-Serif" font-size="14.00">(condition)</text>
</g>
<!-- check_quality&#45;&gt;assess_quality -->
<g id="edge14" class="edge">
<title>check_quality&#45;&gt;assess_quality</title>
<path fill="none" stroke="black" d="M221,-377.76C221,-369.29 221,-360.99 221,-353.18"/>
<polygon fill="black" stroke="black" points="224.5,-353.28 221,-343.28 217.5,-353.28 224.5,-353.28"/>
</g>
<!-- improve_quality -->
<g id="node12" class="node">
<title>improve_quality</title>
<path fill="#e3f2fd" stroke="black" d="M136,-218C136,-218 12,-218 12,-218 6,-218 0,-212 0,-206 0,-206 0,-177 0,-177 0,-171 6,-165 12,-165 12,-165 136,-165 136,-165 142,-165 148,-171 148,-177 148,-177 148,-206 148,-206 148,-212 142,-218 136,-218"/>
<text xml:space="preserve" text-anchor="middle" x="74" y="-200.7" font-family="Helvetica,sans-Serif" font-size="14.00">Improve Code Quality</text>
<text xml:space="preserve" text-anchor="middle" x="74" y="-185.7" font-family="Helvetica,sans-Serif" font-size="14.00">(agent)</text>
<text xml:space="preserve" text-anchor="middle" x="74" y="-170.7" font-family="Helvetica,sans-Serif" font-size="14.00">role: executor</text>
</g>
<!-- assess_quality&#45;&gt;improve_quality -->
<g id="edge18" class="edge">
<title>assess_quality&#45;&gt;improve_quality</title>
<path fill="none" stroke="black" stroke-dasharray="5,2" d="M151.16,-289.76C125.81,-281.76 99.26,-268.65 82.25,-247.25 78.25,-242.22 75.78,-236.08 74.31,-229.75"/>
<polygon fill="black" stroke="black" points="77.77,-229.25 72.85,-219.87 70.85,-230.27 77.77,-229.25"/>
<text xml:space="preserve" text-anchor="middle" x="126.12" y="-237.75" font-family="Helvetica,sans-Serif" font-size="10.00">needs_improvement</text>
</g>
<!-- commit_fix -->
<g id="node13" class="node">
<title>commit_fix</title>
<path fill="#e3f2fd" stroke="black" d="M265.75,-128C265.75,-128 176.25,-128 176.25,-128 170.25,-128 164.25,-122 164.25,-116 164.25,-116 164.25,-87 164.25,-87 164.25,-81 170.25,-75 176.25,-75 176.25,-75 265.75,-75 265.75,-75 271.75,-75 277.75,-81 277.75,-87 277.75,-87 277.75,-116 277.75,-116 277.75,-122 271.75,-128 265.75,-128"/>
<text xml:space="preserve" text-anchor="middle" x="221" y="-110.7" font-family="Helvetica,sans-Serif" font-size="14.00">Commit Bug Fix</text>
<text xml:space="preserve" text-anchor="middle" x="221" y="-95.7" font-family="Helvetica,sans-Serif" font-size="14.00">(agent)</text>
<text xml:space="preserve" text-anchor="middle" x="221" y="-80.7" font-family="Helvetica,sans-Serif" font-size="14.00">role: executor</text>
</g>
<!-- assess_quality&#45;&gt;commit_fix -->
<g id="edge15" class="edge">
<title>assess_quality&#45;&gt;commit_fix</title>
<path fill="none" stroke="black" stroke-dasharray="5,2" d="M209.08,-269.22C200.57,-241.39 191.66,-200.56 198,-165 199.54,-156.37 202.18,-147.38 205.14,-138.98"/>
<polygon fill="black" stroke="black" points="208.35,-140.39 208.61,-129.8 201.8,-137.92 208.35,-140.39"/>
<text xml:space="preserve" text-anchor="middle" x="217.5" y="-187.62" font-family="Helvetica,sans-Serif" font-size="10.00">excellent</text>
</g>
<!-- assess_quality&#45;&gt;commit_fix -->
<g id="edge16" class="edge">
<title>assess_quality&#45;&gt;commit_fix</title>
<path fill="none" stroke="black" stroke-dasharray="5,2" d="M229.63,-267.82C235.48,-240.05 241.41,-199.99 237,-165 235.94,-156.6 234.11,-147.7 232.06,-139.34"/>
<polygon fill="black" stroke="black" points="235.49,-138.62 229.56,-129.83 228.72,-140.4 235.49,-138.62"/>
<text xml:space="preserve" text-anchor="middle" x="249.03" y="-187.62" font-family="Helvetica,sans-Serif" font-size="10.00">good</text>
</g>
<!-- assess_quality&#45;&gt;commit_fix -->
<g id="edge17" class="edge">
<title>assess_quality&#45;&gt;commit_fix</title>
<path fill="none" stroke="black" stroke-dasharray="5,2" d="M241.32,-272.01C257.42,-244.2 275.45,-201.84 264,-165 261.02,-155.4 255.99,-145.98 250.41,-137.47"/>
<polygon fill="black" stroke="black" points="253.44,-135.69 244.82,-129.54 247.72,-139.73 253.44,-135.69"/>
<text xml:space="preserve" text-anchor="middle" x="291.24" y="-187.62" font-family="Helvetica,sans-Serif" font-size="10.00">acceptable</text>
</g>
<!-- improve_quality&#45;&gt;commit_fix -->
<g id="edge19" class="edge">
<title>improve_quality&#45;&gt;commit_fix</title>
<path fill="none" stroke="black" d="M117.31,-164.57C133.24,-155.04 151.46,-144.13 168.13,-134.15"/>
<polygon fill="black" stroke="black" points="169.67,-137.31 176.45,-129.17 166.07,-131.3 169.67,-137.31"/>
</g>
<!-- complete -->
<g id="node14" class="node">
<title>complete</title>
<polygon fill="#eceff1" stroke="black" points="275.5,-38 166.5,-38 166.5,0 275.5,0 275.5,-38"/>
<text xml:space="preserve" text-anchor="middle" x="221" y="-20.7" font-family="Helvetica,sans-Serif" font-size="14.00">Mark Complete</text>
<text xml:space="preserve" text-anchor="middle" x="221" y="-5.7" font-family="Helvetica,sans-Serif" font-size="14.00">(transform)</text>
</g>
<!-- commit_fix&#45;&gt;complete -->
<g id="edge20" class="edge">
<title>commit_fix&#45;&gt;complete</title>
<path fill="none" stroke="black" d="M221,-74.59C221,-66.68 221,-57.93 221,-49.79"/>
<polygon fill="black" stroke="black" points="224.5,-49.98 221,-39.98 217.5,-49.98 224.5,-49.98"/>
</g>
</g>
</svg>
