<?xml version="1.0" encoding="UTF-8" standalone="no"?>
<!DOCTYPE svg PUBLIC "-//W3C//DTD SVG 1.1//EN"
 "http://www.w3.org/Graphics/SVG/1.1/DTD/svg11.dtd">
<!-- Generated by graphviz version 14.0.4 (20251115.1723)
 -->
<!-- Title: workflow Pages: 1 -->
<svg width="162pt" height="427pt"
 viewBox="0.00 0.00 162.00 427.00" xmlns="http://www.w3.org/2000/svg" xmlns:xlink="http://www.w3.org/1999/xlink">
<g id="graph0" class="graph" transform="scale(1 1) rotate(0) translate(4 422.5)">
<title>workflow</title>
<polygon fill="white" stroke="none" points="-4,4 -4,-422.5 158,-422.5 158,4 -4,4"/>
<text xml:space="preserve" text-anchor="middle" x="77" y="-401.2" font-family="Times,serif" font-size="14.00">debug_investigation</text>
<!-- gather_context -->
<g id="node1" class="node">
<title>gather_context</title>
<path fill="#e3f2fd" stroke="black" d="M120.25,-394C120.25,-394 33.75,-394 33.75,-394 27.75,-394 21.75,-388 21.75,-382 21.75,-382 21.75,-353 21.75,-353 21.75,-347 27.75,-341 33.75,-341 33.75,-341 120.25,-341 120.25,-341 126.25,-341 132.25,-347 132.25,-353 132.25,-353 132.25,-382 132.25,-382 132.25,-388 126.25,-394 120.25,-394"/>
<text xml:space="preserve" text-anchor="middle" x="77" y="-376.7" font-family="Helvetica,sans-Serif" font-size="14.00">Gather Context</text>
<text xml:space="preserve" text-anchor="middle" x="77" y="-361.7" font-family="Helvetica,sans-Serif" font-size="14.00">(agent)</text>
<text xml:space="preserve" text-anchor="middle" x="77" y="-346.7" font-family="Helvetica,sans-Serif" font-size="14.00">role: researcher</text>
</g>
<!-- trace_execution -->
<g id="node2" class="node">
<title>trace_execution</title>
<path fill="#e3f2fd" stroke="black" d="M137.5,-305C137.5,-305 16.5,-305 16.5,-305 10.5,-305 4.5,-299 4.5,-293 4.5,-293 4.5,-264 4.5,-264 4.5,-258 10.5,-252 16.5,-252 16.5,-252 137.5,-252 137.5,-252 143.5,-252 149.5,-258 149.5,-264 149.5,-264 149.5,-293 149.5,-293 149.5,-299 143.5,-305 137.5,-305"/>
<text xml:space="preserve" text-anchor="middle" x="77" y="-287.7" font-family="Helvetica,sans-Serif" font-size="14.00">Trace Execution Path</text>
<text xml:space="preserve" text-anchor="middle" x="77" y="-272.7" font-family="Helvetica,sans-Serif" font-size="14.00">(agent)</text>
<text xml:space="preserve" text-anchor="middle" x="77" y="-257.7" font-family="Helvetica,sans-Serif" font-size="14.00">role: researcher</text>
</g>
<!-- gather_context&#45;&gt;trace_execution -->
<g id="edge1" class="edge">
<title>gather_context&#45;&gt;trace_execution</title>
<path fill="none" stroke="black" d="M77,-340.87C77,-333.24 77,-324.72 77,-316.51"/>
<polygon fill="black" stroke="black" points="80.5,-316.76 77,-306.76 73.5,-316.76 80.5,-316.76"/>
</g>
<!-- identify_cause -->
<g id="node3" class="node">
<title>identify_cause</title>
<path fill="#e3f2fd" stroke="black" d="M132.25,-216C132.25,-216 21.75,-216 21.75,-216 15.75,-216 9.75,-210 9.75,-204 9.75,-204 9.75,-175 9.75,-175 9.75,-169 15.75,-163 21.75,-163 21.75,-163 132.25,-163 132.25,-163 138.25,-163 144.25,-169 144.25,-175 144.25,-175 144.25,-204 144.25,-204 144.25,-210 138.25,-216 132.25,-216"/>
<text xml:space="preserve" text-anchor="middle" x="77" y="-198.7" font-family="Helvetica,sans-Serif" font-size="14.00">Identify Root Cause</text>
<text xml:space="preserve" text-anchor="middle" x="77" y="-183.7" font-family="Helvetica,sans-Serif" font-size="14.00">(agent)</text>
<text xml:space="preserve" text-anchor="middle" x="77" y="-168.7" font-family="Helvetica,sans-Serif" font-size="14.00">role: analyst</text>
</g>
<!-- trace_execution&#45;&gt;identify_cause -->
<g id="edge2" class="edge">
<title>trace_execution&#45;&gt;identify_cause</title>
<path fill="none" stroke="black" d="M77,-251.87C77,-244.24 77,-235.72 77,-227.51"/>
<polygon fill="black" stroke="black" points="80.5,-227.76 77,-217.76 73.5,-227.76 80.5,-227.76"/>
</g>
<!-- propose_fixes -->
<g id="node4" class="node">
<title>propose_fixes</title>
<path fill="#e3f2fd" stroke="black" d="M116.12,-127C116.12,-127 37.88,-127 37.88,-127 31.88,-127 25.88,-121 25.88,-115 25.88,-115 25.88,-86 25.88,-86 25.88,-80 31.88,-74 37.88,-74 37.88,-74 116.12,-74 116.12,-74 122.12,-74 128.12,-80 128.12,-86 128.12,-86 128.12,-115 128.12,-115 128.12,-121 122.12,-127 116.12,-127"/>
<text xml:space="preserve" text-anchor="middle" x="77" y="-109.7" font-family="Helvetica,sans-Serif" font-size="14.00">Propose Fixes</text>
<text xml:space="preserve" text-anchor="middle" x="77" y="-94.7" font-family="Helvetica,sans-Serif" font-size="14.00">(agent)</text>
<text xml:space="preserve" text-anchor="middle" x="77" y="-79.7" font-family="Helvetica,sans-Serif" font-size="14.00">role: planner</text>
</g>
<!-- identify_cause&#45;&gt;propose_fixes -->
<g id="edge3" class="edge">
<title>identify_cause&#45;&gt;propose_fixes</title>
<path fill="none" stroke="black" d="M77,-162.87C77,-155.24 77,-146.72 77,-138.51"/>
<polygon fill="black" stroke="black" points="80.5,-138.76 77,-128.76 73.5,-138.76 80.5,-138.76"/>
</g>
<!-- complete -->
<g id="node5" class="node">
<title>complete</title>
<polygon fill="#eceff1" stroke="black" points="154,-38 0,-38 0,0 154,0 154,-38"/>
<text xml:space="preserve" text-anchor="middle" x="77" y="-20.7" font-family="Helvetica,sans-Serif" font-size="14.00">Complete Investigation</text>
<text xml:space="preserve" text-anchor="middle" x="77" y="-5.7" font-family="Helvetica,sans-Serif" font-size="14.00">(transform)</text>
</g>
<!-- propose_fixes&#45;&gt;complete -->
<g id="edge4" class="edge">
<title>propose_fixes&#45;&gt;complete</title>
<path fill="none" stroke="black" d="M77,-73.91C77,-66.25 77,-57.79 77,-49.88"/>
<polygon fill="black" stroke="black" points="80.5,-50 77,-40 73.5,-50 80.5,-50"/>
</g>
</g>
</svg>
