<?xml version="1.0" encoding="UTF-8" standalone="no"?>
<!DOCTYPE svg PUBLIC "-//W3C//DTD SVG 1.1//EN"
 "http://www.w3.org/Graphics/SVG/1.1/DTD/svg11.dtd">
<!-- Generated by graphviz version 14.0.4 (20251115.1723)
 -->
<!-- Title: workflow Pages: 1 -->
<svg width="341pt" height="622pt"
 viewBox="0.00 0.00 341.00 622.00" xmlns="http://www.w3.org/2000/svg" xmlns:xlink="http://www.w3.org/1999/xlink">
<g id="graph0" class="graph" transform="scale(1 1) rotate(0) translate(4 617.75)">
<title>workflow</title>
<polygon fill="white" stroke="none" points="-4,4 -4,-617.75 336.78,-617.75 336.78,4 -4,4"/>
<text xml:space="preserve" text-anchor="middle" x="166.39" y="-596.45" font-family="Times,serif" font-size="14.00">extract</text>
<!-- analyze_extraction -->
<g id="node1" class="node">
<title>analyze_extraction</title>
<path fill="#e3f2fd" stroke="black" d="M242.88,-589.25C242.88,-589.25 139.12,-589.25 139.12,-589.25 133.12,-589.25 127.12,-583.25 127.12,-577.25 127.12,-577.25 127.12,-548.25 127.12,-548.25 127.12,-542.25 133.12,-536.25 139.12,-536.25 139.12,-536.25 242.88,-536.25 242.88,-536.25 248.88,-536.25 254.88,-542.25 254.88,-548.25 254.88,-548.25 254.88,-577.25 254.88,-577.25 254.88,-583.25 248.88,-589.25 242.88,-589.25"/>
<text xml:space="preserve" text-anchor="middle" x="191" y="-571.95" font-family="Helvetica,sans-Serif" font-size="14.00">Analyze Extraction</text>
<text xml:space="preserve" text-anchor="middle" x="191" y="-556.95" font-family="Helvetica,sans-Serif" font-size="14.00">(agent)</text>
<text xml:space="preserve" text-anchor="middle" x="191" y="-541.95" font-family="Helvetica,sans-Serif" font-size="14.00">role: researcher</text>
</g>
<!-- create_function -->
<g id="node2" class="node">
<title>create_function</title>
<path fill="#e3f2fd" stroke="black" d="M250.38,-499.25C250.38,-499.25 131.62,-499.25 131.62,-499.25 125.62,-499.25 119.62,-493.25 119.62,-487.25 119.62,-487.25 119.62,-458.25 119.62,-458.25 119.62,-452.25 125.62,-446.25 131.62,-446.25 131.62,-446.25 250.38,-446.25 250.38,-446.25 256.38,-446.25 262.38,-452.25 262.38,-458.25 262.38,-458.25 262.38,-487.25 262.38,-487.25 262.38,-493.25 256.38,-499.25 250.38,-499.25"/>
<text xml:space="preserve" text-anchor="middle" x="191" y="-481.95" font-family="Helvetica,sans-Serif" font-size="14.00">Create New Function</text>
<text xml:space="preserve" text-anchor="middle" x="191" y="-466.95" font-family="Helvetica,sans-Serif" font-size="14.00">(agent)</text>
<text xml:space="preserve" text-anchor="middle" x="191" y="-451.95" font-family="Helvetica,sans-Serif" font-size="14.00">role: executor</text>
</g>
<!-- analyze_extraction&#45;&gt;create_function -->
<g id="edge1" class="edge">
<title>analyze_extraction&#45;&gt;create_function</title>
<path fill="none" stroke="black" d="M191,-535.82C191,-528.04 191,-519.33 191,-510.97"/>
<polygon fill="black" stroke="black" points="194.5,-511.01 191,-501.01 187.5,-511.01 194.5,-511.01"/>
</g>
<!-- verify_extraction -->
<g id="node3" class="node">
<title>verify_extraction</title>
<polygon fill="#e8f5e9" stroke="black" points="332.78,-409.25 107.24,-409.25 49.22,-213.25 274.76,-213.25 332.78,-409.25"/>
<text xml:space="preserve" text-anchor="middle" x="191" y="-342.95" font-family="Helvetica,sans-Serif" font-size="14.00">Verify Extraction</text>
<text xml:space="preserve" text-anchor="middle" x="191" y="-327.95" font-family="Helvetica,sans-Serif" font-size="14.00">(compute)</text>
<text xml:space="preserve" text-anchor="middle" x="191" y="-312.95" font-family="Helvetica,sans-Serif" font-size="14.00">exec: in&#45;process</text>
<text xml:space="preserve" text-anchor="middle" x="191" y="-297.95" font-family="Helvetica,sans-Serif" font-size="14.00">handler: test_runner</text>
<text xml:space="preserve" text-anchor="middle" x="191" y="-282.95" font-family="Helvetica,sans-Serif" font-size="14.00">blocked: [llm, write]</text>
<text xml:space="preserve" text-anchor="middle" x="191" y="-267.95" font-family="Helvetica,sans-Serif" font-size="14.00">timeout: 120s</text>
</g>
<!-- create_function&#45;&gt;verify_extraction -->
<g id="edge2" class="edge">
<title>create_function&#45;&gt;verify_extraction</title>
<path fill="none" stroke="black" d="M191,-445.77C191,-438.43 191,-429.95 191,-420.89"/>
<polygon fill="black" stroke="black" points="194.5,-421.11 191,-411.11 187.5,-421.11 194.5,-421.11"/>
</g>
<!-- check_extraction -->
<g id="node4" class="node">
<title>check_extraction</title>
<polygon fill="#fff3e0" stroke="black" points="118,-176.25 0,-138.25 118,-100.25 236,-138.25 118,-176.25"/>
<text xml:space="preserve" text-anchor="middle" x="118" y="-139.95" font-family="Helvetica,sans-Serif" font-size="14.00">Check Extraction</text>
<text xml:space="preserve" text-anchor="middle" x="118" y="-124.95" font-family="Helvetica,sans-Serif" font-size="14.00">(condition)</text>
</g>
<!-- verify_extraction&#45;&gt;check_extraction -->
<g id="edge3" class="edge">
<title>verify_extraction&#45;&gt;check_extraction</title>
<path fill="none" stroke="black" d="M149.38,-212.76C144.87,-202.2 140.47,-191.88 136.45,-182.47"/>
<polygon fill="black" stroke="black" points="139.67,-181.11 132.53,-173.28 133.24,-183.86 139.67,-181.11"/>
</g>
<!-- fix_extraction -->
<g id="node5" class="node">
<title>fix_extraction</title>
<path fill="#e3f2fd" stroke="black" d="M300.25,-53C300.25,-53 183.75,-53 183.75,-53 177.75,-53 171.75,-47 171.75,-41 171.75,-41 171.75,-12 171.75,-12 171.75,-6 177.75,0 183.75,0 183.75,0 300.25,0 300.25,0 306.25,0 312.25,-6 312.25,-12 312.25,-12 312.25,-41 312.25,-41 312.25,-47 306.25,-53 300.25,-53"/>
<text xml:space="preserve" text-anchor="middle" x="242" y="-35.7" font-family="Helvetica,sans-Serif" font-size="14.00">Fix Extraction Issues</text>
<text xml:space="preserve" text-anchor="middle" x="242" y="-20.7" font-family="Helvetica,sans-Serif" font-size="14.00">(agent)</text>
<text xml:space="preserve" text-anchor="middle" x="242" y="-5.7" font-family="Helvetica,sans-Serif" font-size="14.00">role: executor</text>
</g>
<!-- check_extraction&#45;&gt;fix_extraction -->
<g id="edge5" class="edge">
<title>check_extraction&#45;&gt;fix_extraction</title>
<path fill="none" stroke="black" stroke-dasharray="5,2" d="M148.97,-109.84C165.74,-95 186.59,-76.55 204.29,-60.87"/>
<polygon fill="black" stroke="black" points="206.4,-63.68 211.57,-54.43 201.76,-58.44 206.4,-63.68"/>
<text xml:space="preserve" text-anchor="middle" x="203.86" y="-72.75" font-family="Helvetica,sans-Serif" font-size="10.00">failing</text>
</g>
<!-- complete -->
<g id="node6" class="node">
<title>complete</title>
<polygon fill="#eceff1" stroke="black" points="132.38,-45.5 49.62,-45.5 49.62,-7.5 132.38,-7.5 132.38,-45.5"/>
<text xml:space="preserve" text-anchor="middle" x="91" y="-28.2" font-family="Helvetica,sans-Serif" font-size="14.00">Complete</text>
<text xml:space="preserve" text-anchor="middle" x="91" y="-13.2" font-family="Helvetica,sans-Serif" font-size="14.00">(transform)</text>
</g>
<!-- check_extraction&#45;&gt;complete -->
<g id="edge4" class="edge">
<title>check_extraction&#45;&gt;complete</title>
<path fill="none" stroke="black" stroke-dasharray="5,2" d="M91.99,-108.3C86.37,-100.39 81.22,-91.44 78.25,-82.25 75.61,-74.08 76.29,-65.06 78.32,-56.73"/>
<polygon fill="black" stroke="black" points="81.59,-57.99 81.28,-47.4 74.92,-55.87 81.59,-57.99"/>
<text xml:space="preserve" text-anchor="middle" x="95.12" y="-72.75" font-family="Helvetica,sans-Serif" font-size="10.00">passing</text>
</g>
<!-- check_extraction&#45;&gt;complete -->
<g id="edge6" class="edge">
<title>check_extraction&#45;&gt;complete</title>
<path fill="none" stroke="black" stroke-dasharray="5,2" d="M117.02,-100.38C116.12,-90.7 114.59,-80.35 112,-71 110.63,-66.05 108.71,-60.97 106.59,-56.12"/>
<polygon fill="black" stroke="black" points="109.86,-54.86 102.39,-47.34 103.55,-57.88 109.86,-54.86"/>
<text xml:space="preserve" text-anchor="middle" x="133.19" y="-72.75" font-family="Helvetica,sans-Serif" font-size="10.00">no_tests</text>
</g>
<!-- fix_extraction&#45;&gt;verify_extraction -->
<g id="edge7" class="edge">
<title>fix_extraction&#45;&gt;verify_extraction</title>
<path fill="none" stroke="black" d="M243.33,-53.42C243.97,-67.3 244.68,-84.7 245,-100.25 245.7,-134.02 251.43,-143.09 245,-176.25 243.35,-184.73 241.17,-193.36 238.63,-201.94"/>
<polygon fill="black" stroke="black" points="235.34,-200.73 235.69,-211.32 242.02,-202.83 235.34,-200.73"/>
</g>
</g>
</svg>
