<?xml version="1.0" encoding="UTF-8" standalone="no"?>
<!DOCTYPE svg PUBLIC "-//W3C//DTD SVG 1.1//EN"
 "http://www.w3.org/Graphics/SVG/1.1/DTD/svg11.dtd">
<!-- Generated by graphviz version 14.0.4 (20251115.1723)
 -->
<!-- Title: workflow Pages: 1 -->
<svg width="179pt" height="552pt"
 viewBox="0.00 0.00 179.00 552.00" xmlns="http://www.w3.org/2000/svg" xmlns:xlink="http://www.w3.org/1999/xlink">
<g id="graph0" class="graph" transform="scale(1 1) rotate(0) translate(4 548.45)">
<title>workflow</title>
<polygon fill="white" stroke="none" points="-4,4 -4,-548.45 174.5,-548.45 174.5,4 -4,4"/>
<text xml:space="preserve" text-anchor="middle" x="85.25" y="-527.15" font-family="Times,serif" font-size="14.00">plan</text>
<!-- understand_requirements -->
<g id="node1" class="node">
<title>understand_requirements</title>
<path fill="#e3f2fd" stroke="black" d="M158.5,-519.95C158.5,-519.95 12,-519.95 12,-519.95 6,-519.95 0,-513.95 0,-507.95 0,-507.95 0,-478.95 0,-478.95 0,-472.95 6,-466.95 12,-466.95 12,-466.95 158.5,-466.95 158.5,-466.95 164.5,-466.95 170.5,-472.95 170.5,-478.95 170.5,-478.95 170.5,-507.95 170.5,-507.95 170.5,-513.95 164.5,-519.95 158.5,-519.95"/>
<text xml:space="preserve" text-anchor="middle" x="85.25" y="-502.65" font-family="Helvetica,sans-Serif" font-size="14.00">understand_requirements</text>
<text xml:space="preserve" text-anchor="middle" x="85.25" y="-487.65" font-family="Helvetica,sans-Serif" font-size="14.00">(agent)</text>
<text xml:space="preserve" text-anchor="middle" x="85.25" y="-472.65" font-family="Helvetica,sans-Serif" font-size="14.00">role: analyst</text>
</g>
<!-- explore_codebase -->
<g id="node2" class="node">
<title>explore_codebase</title>
<path fill="#e3f2fd" stroke="black" d="M136.38,-430.95C136.38,-430.95 34.12,-430.95 34.12,-430.95 28.13,-430.95 22.12,-424.95 22.12,-418.95 22.12,-418.95 22.12,-389.95 22.12,-389.95 22.12,-383.95 28.12,-377.95 34.12,-377.95 34.12,-377.95 136.38,-377.95 136.38,-377.95 142.38,-377.95 148.38,-383.95 148.38,-389.95 148.38,-389.95 148.38,-418.95 148.38,-418.95 148.38,-424.95 142.38,-430.95 136.38,-430.95"/>
<text xml:space="preserve" text-anchor="middle" x="85.25" y="-413.65" font-family="Helvetica,sans-Serif" font-size="14.00">explore_codebase</text>
<text xml:space="preserve" text-anchor="middle" x="85.25" y="-398.65" font-family="Helvetica,sans-Serif" font-size="14.00">(agent)</text>
<text xml:space="preserve" text-anchor="middle" x="85.25" y="-383.65" font-family="Helvetica,sans-Serif" font-size="14.00">role: explorer</text>
</g>
<!-- understand_requirements&#45;&gt;explore_codebase -->
<g id="edge1" class="edge">
<title>understand_requirements&#45;&gt;explore_codebase</title>
<path fill="none" stroke="black" d="M85.25,-466.82C85.25,-459.19 85.25,-450.67 85.25,-442.47"/>
<polygon fill="black" stroke="black" points="88.75,-442.72 85.25,-432.72 81.75,-442.72 88.75,-442.72"/>
</g>
<!-- identify_changes -->
<g id="node3" class="node">
<title>identify_changes</title>
<path fill="#e3f2fd" stroke="black" d="M131.88,-341.95C131.88,-341.95 38.62,-341.95 38.62,-341.95 32.62,-341.95 26.62,-335.95 26.62,-329.95 26.62,-329.95 26.62,-300.95 26.62,-300.95 26.62,-294.95 32.62,-288.95 38.62,-288.95 38.62,-288.95 131.88,-288.95 131.88,-288.95 137.88,-288.95 143.88,-294.95 143.88,-300.95 143.88,-300.95 143.88,-329.95 143.88,-329.95 143.88,-335.95 137.88,-341.95 131.88,-341.95"/>
<text xml:space="preserve" text-anchor="middle" x="85.25" y="-324.65" font-family="Helvetica,sans-Serif" font-size="14.00">identify_changes</text>
<text xml:space="preserve" text-anchor="middle" x="85.25" y="-309.65" font-family="Helvetica,sans-Serif" font-size="14.00">(agent)</text>
<text xml:space="preserve" text-anchor="middle" x="85.25" y="-294.65" font-family="Helvetica,sans-Serif" font-size="14.00">role: architect</text>
</g>
<!-- explore_codebase&#45;&gt;identify_changes -->
<g id="edge2" class="edge">
<title>explore_codebase&#45;&gt;identify_changes</title>
<path fill="none" stroke="black" d="M85.25,-377.82C85.25,-370.19 85.25,-361.67 85.25,-353.47"/>
<polygon fill="black" stroke="black" points="88.75,-353.72 85.25,-343.72 81.75,-353.72 88.75,-353.72"/>
</g>
<!-- design_approach -->
<g id="node4" class="node">
<title>design_approach</title>
<path fill="#e3f2fd" stroke="black" d="M133,-252.95C133,-252.95 37.5,-252.95 37.5,-252.95 31.5,-252.95 25.5,-246.95 25.5,-240.95 25.5,-240.95 25.5,-211.95 25.5,-211.95 25.5,-205.95 31.5,-199.95 37.5,-199.95 37.5,-199.95 133,-199.95 133,-199.95 139,-199.95 145,-205.95 145,-211.95 145,-211.95 145,-240.95 145,-240.95 145,-246.95 139,-252.95 133,-252.95"/>
<text xml:space="preserve" text-anchor="middle" x="85.25" y="-235.65" font-family="Helvetica,sans-Serif" font-size="14.00">design_approach</text>
<text xml:space="preserve" text-anchor="middle" x="85.25" y="-220.65" font-family="Helvetica,sans-Serif" font-size="14.00">(agent)</text>
<text xml:space="preserve" text-anchor="middle" x="85.25" y="-205.65" font-family="Helvetica,sans-Serif" font-size="14.00">role: architect</text>
</g>
<!-- identify_changes&#45;&gt;design_approach -->
<g id="edge3" class="edge">
<title>identify_changes&#45;&gt;design_approach</title>
<path fill="none" stroke="black" d="M85.25,-288.82C85.25,-281.19 85.25,-272.67 85.25,-264.47"/>
<polygon fill="black" stroke="black" points="88.75,-264.72 85.25,-254.72 81.75,-264.72 88.75,-264.72"/>
</g>
<!-- review_plan -->
<g id="node5" class="node">
<title>review_plan</title>
<ellipse fill="#ffebee" stroke="black" cx="85.25" cy="-126.48" rx="69.12" ry="37.48"/>
<text xml:space="preserve" text-anchor="middle" x="85.25" y="-135.68" font-family="Helvetica,sans-Serif" font-size="14.00">review_plan</text>
<text xml:space="preserve" text-anchor="middle" x="85.25" y="-120.68" font-family="Helvetica,sans-Serif" font-size="14.00">(hitl)</text>
<text xml:space="preserve" text-anchor="middle" x="85.25" y="-105.68" font-family="Helvetica,sans-Serif" font-size="14.00">timeout: 600s</text>
</g>
<!-- design_approach&#45;&gt;review_plan -->
<g id="edge4" class="edge">
<title>design_approach&#45;&gt;review_plan</title>
<path fill="none" stroke="black" d="M85.25,-199.45C85.25,-192.13 85.25,-183.93 85.25,-175.75"/>
<polygon fill="black" stroke="black" points="88.75,-175.81 85.25,-165.81 81.75,-175.81 88.75,-175.81"/>
</g>
<!-- create_plan_doc -->
<g id="node6" class="node">
<title>create_plan_doc</title>
<path fill="#e3f2fd" stroke="black" d="M131.12,-53C131.12,-53 39.37,-53 39.37,-53 33.38,-53 27.38,-47 27.38,-41 27.38,-41 27.38,-12 27.38,-12 27.38,-6 33.38,0 39.38,0 39.38,0 131.12,0 131.12,0 137.12,0 143.12,-6 143.12,-12 143.12,-12 143.12,-41 143.12,-41 143.12,-47 137.12,-53 131.12,-53"/>
<text xml:space="preserve" text-anchor="middle" x="85.25" y="-35.7" font-family="Helvetica,sans-Serif" font-size="14.00">create_plan_doc</text>
<text xml:space="preserve" text-anchor="middle" x="85.25" y="-20.7" font-family="Helvetica,sans-Serif" font-size="14.00">(agent)</text>
<text xml:space="preserve" text-anchor="middle" x="85.25" y="-5.7" font-family="Helvetica,sans-Serif" font-size="14.00">role: writer</text>
</g>
<!-- review_plan&#45;&gt;create_plan_doc -->
<g id="edge5" class="edge">
<title>review_plan&#45;&gt;create_plan_doc</title>
<path fill="none" stroke="black" d="M85.25,-88.72C85.25,-80.93 85.25,-72.7 85.25,-64.89"/>
<polygon fill="black" stroke="black" points="88.75,-64.98 85.25,-54.98 81.75,-64.98 88.75,-64.98"/>
</g>
</g>
</svg>
