<?xml version="1.0" encoding="UTF-8" standalone="no"?>
<!DOCTYPE svg PUBLIC "-//W3C//DTD SVG 1.1//EN"
 "http://www.w3.org/Graphics/SVG/1.1/DTD/svg11.dtd">
<!-- Generated by graphviz version 14.0.4 (20251115.1723)
 -->
<!-- Title: workflow Pages: 1 -->
<svg width="343pt" height="520pt"
 viewBox="0.00 0.00 343.00 520.00" xmlns="http://www.w3.org/2000/svg" xmlns:xlink="http://www.w3.org/1999/xlink">
<g id="graph0" class="graph" transform="scale(1 1) rotate(0) translate(4 515.5)">
<title>workflow</title>
<polygon fill="white" stroke="none" points="-4,4 -4,-515.5 338.87,-515.5 338.87,4 -4,4"/>
<text xml:space="preserve" text-anchor="middle" x="167.44" y="-494.2" font-family="Times,serif" font-size="14.00">automl_quick</text>
<!-- load -->
<g id="node1" class="node">
<title>load</title>
<polygon fill="#e8f5e9" stroke="black" points="303.77,-487 86.89,-487 31.1,-321 247.98,-321 303.77,-487"/>
<text xml:space="preserve" text-anchor="middle" x="167.44" y="-428.2" font-family="Helvetica,sans-Serif" font-size="14.00">Load Data</text>
<text xml:space="preserve" text-anchor="middle" x="167.44" y="-413.2" font-family="Helvetica,sans-Serif" font-size="14.00">(compute)</text>
<text xml:space="preserve" text-anchor="middle" x="167.44" y="-398.2" font-family="Helvetica,sans-Serif" font-size="14.00">exec: in&#45;process</text>
<text xml:space="preserve" text-anchor="middle" x="167.44" y="-383.2" font-family="Helvetica,sans-Serif" font-size="14.00">blocked: [llm, write]</text>
<text xml:space="preserve" text-anchor="middle" x="167.44" y="-368.2" font-family="Helvetica,sans-Serif" font-size="14.00">timeout: 60s</text>
</g>
<!-- quick_automl -->
<g id="node2" class="node">
<title>quick_automl</title>
<polygon fill="#e8f5e9" stroke="black" points="334.87,-285 68.52,-285 0,-89 266.35,-89 334.87,-285"/>
<text xml:space="preserve" text-anchor="middle" x="167.44" y="-218.7" font-family="Helvetica,sans-Serif" font-size="14.00">Quick PyCaret AutoML</text>
<text xml:space="preserve" text-anchor="middle" x="167.44" y="-203.7" font-family="Helvetica,sans-Serif" font-size="14.00">(compute)</text>
<text xml:space="preserve" text-anchor="middle" x="167.44" y="-188.7" font-family="Helvetica,sans-Serif" font-size="14.00">exec: in&#45;process</text>
<text xml:space="preserve" text-anchor="middle" x="167.44" y="-173.7" font-family="Helvetica,sans-Serif" font-size="14.00">handler: pycaret_automl</text>
<text xml:space="preserve" text-anchor="middle" x="167.44" y="-158.7" font-family="Helvetica,sans-Serif" font-size="14.00">blocked: [llm, write]</text>
<text xml:space="preserve" text-anchor="middle" x="167.44" y="-143.7" font-family="Helvetica,sans-Serif" font-size="14.00">timeout: 300s</text>
</g>
<!-- load&#45;&gt;quick_automl -->
<g id="edge1" class="edge">
<title>load&#45;&gt;quick_automl</title>
<path fill="none" stroke="black" d="M167.44,-320.8C167.44,-312.9 167.44,-304.81 167.44,-296.71"/>
<polygon fill="black" stroke="black" points="170.94,-296.79 167.44,-286.79 163.94,-296.79 170.94,-296.79"/>
</g>
<!-- summary -->
<g id="node3" class="node">
<title>summary</title>
<path fill="#e3f2fd" stroke="black" d="M212.56,-53C212.56,-53 122.31,-53 122.31,-53 116.31,-53 110.31,-47 110.31,-41 110.31,-41 110.31,-12 110.31,-12 110.31,-6 116.31,0 122.31,0 122.31,0 212.56,0 212.56,0 218.56,0 224.56,-6 224.56,-12 224.56,-12 224.56,-41 224.56,-41 224.56,-47 218.56,-53 212.56,-53"/>
<text xml:space="preserve" text-anchor="middle" x="167.44" y="-35.7" font-family="Helvetica,sans-Serif" font-size="14.00">Quick Summary</text>
<text xml:space="preserve" text-anchor="middle" x="167.44" y="-20.7" font-family="Helvetica,sans-Serif" font-size="14.00">(agent)</text>
<text xml:space="preserve" text-anchor="middle" x="167.44" y="-5.7" font-family="Helvetica,sans-Serif" font-size="14.00">role: analyst</text>
</g>
<!-- quick_automl&#45;&gt;summary -->
<g id="edge2" class="edge">
<title>quick_automl&#45;&gt;summary</title>
<path fill="none" stroke="black" d="M167.44,-88.78C167.44,-80.39 167.44,-72.28 167.44,-64.86"/>
<polygon fill="black" stroke="black" points="170.94,-64.97 167.44,-54.97 163.94,-64.97 170.94,-64.97"/>
</g>
</g>
</svg>
