<?xml version="1.0" encoding="UTF-8" standalone="no"?>
<!DOCTYPE svg PUBLIC "-//W3C//DTD SVG 1.1//EN"
 "http://www.w3.org/Graphics/SVG/1.1/DTD/svg11.dtd">
<!-- Generated by graphviz version 14.0.4 (20251115.1723)
 -->
<!-- Title: workflow Pages: 1 -->
<svg width="798pt" height="645pt"
 viewBox="0.00 0.00 798.00 645.00" xmlns="http://www.w3.org/2000/svg" xmlns:xlink="http://www.w3.org/1999/xlink">
<g id="graph0" class="graph" transform="scale(1 1) rotate(0) translate(4 640.75)">
<title>workflow</title>
<polygon fill="white" stroke="none" points="-4,4 -4,-640.75 794.19,-640.75 794.19,4 -4,4"/>
<text xml:space="preserve" text-anchor="middle" x="395.1" y="-619.45" font-family="Times,serif" font-size="14.00">eda_quick</text>
<!-- quick_stats -->
<g id="node1" class="node">
<title>quick_stats</title>
<polygon fill="#e8f5e9" stroke="black" points="588.19,-612.25 281.02,-612.25 202,-416.25 509.17,-416.25 588.19,-612.25"/>
<text xml:space="preserve" text-anchor="middle" x="395.1" y="-545.95" font-family="Helvetica,sans-Serif" font-size="14.00">Quick Statistics</text>
<text xml:space="preserve" text-anchor="middle" x="395.1" y="-530.95" font-family="Helvetica,sans-Serif" font-size="14.00">(compute)</text>
<text xml:space="preserve" text-anchor="middle" x="395.1" y="-515.95" font-family="Helvetica,sans-Serif" font-size="14.00">exec: in&#45;process</text>
<text xml:space="preserve" text-anchor="middle" x="395.1" y="-500.95" font-family="Helvetica,sans-Serif" font-size="14.00">handler: parallel_tools</text>
<text xml:space="preserve" text-anchor="middle" x="395.1" y="-485.95" font-family="Helvetica,sans-Serif" font-size="14.00">blocked: [llm, network, write]</text>
<text xml:space="preserve" text-anchor="middle" x="395.1" y="-470.95" font-family="Helvetica,sans-Serif" font-size="14.00">timeout: 45s</text>
</g>
<!-- quick_check -->
<g id="node2" class="node">
<title>quick_check</title>
<polygon fill="#fff3e0" stroke="black" points="395.1,-379.25 278.6,-341.25 395.1,-303.25 511.6,-341.25 395.1,-379.25"/>
<text xml:space="preserve" text-anchor="middle" x="395.1" y="-342.95" font-family="Helvetica,sans-Serif" font-size="14.00">Data Size Check</text>
<text xml:space="preserve" text-anchor="middle" x="395.1" y="-327.95" font-family="Helvetica,sans-Serif" font-size="14.00">(condition)</text>
</g>
<!-- quick_stats&#45;&gt;quick_check -->
<g id="edge1" class="edge">
<title>quick_stats&#45;&gt;quick_check</title>
<path fill="none" stroke="black" d="M395.1,-415.76C395.1,-407.29 395.1,-398.99 395.1,-391.18"/>
<polygon fill="black" stroke="black" points="398.6,-391.28 395.1,-381.28 391.6,-391.28 398.6,-391.28"/>
</g>
<!-- sample_analysis -->
<g id="node3" class="node">
<title>sample_analysis</title>
<polygon fill="#e8f5e9" stroke="black" points="386.19,-256 79.02,-256 0,-90 307.17,-90 386.19,-256"/>
<text xml:space="preserve" text-anchor="middle" x="193.1" y="-197.2" font-family="Helvetica,sans-Serif" font-size="14.00">Sample&#45;based Analysis</text>
<text xml:space="preserve" text-anchor="middle" x="193.1" y="-182.2" font-family="Helvetica,sans-Serif" font-size="14.00">(compute)</text>
<text xml:space="preserve" text-anchor="middle" x="193.1" y="-167.2" font-family="Helvetica,sans-Serif" font-size="14.00">exec: in&#45;process</text>
<text xml:space="preserve" text-anchor="middle" x="193.1" y="-152.2" font-family="Helvetica,sans-Serif" font-size="14.00">blocked: [llm, network, write]</text>
<text xml:space="preserve" text-anchor="middle" x="193.1" y="-137.2" font-family="Helvetica,sans-Serif" font-size="14.00">timeout: 30s</text>
</g>
<!-- quick_check&#45;&gt;sample_analysis -->
<g id="edge2" class="edge">
<title>quick_check&#45;&gt;sample_analysis</title>
<path fill="none" stroke="black" stroke-dasharray="5,2" d="M362.64,-313.54C345.8,-299.68 324.16,-281.87 302,-263.63"/>
<polygon fill="black" stroke="black" points="304.27,-260.97 294.33,-257.32 299.82,-266.37 304.27,-260.97"/>
<text xml:space="preserve" text-anchor="middle" x="332.24" y="-275.75" font-family="Helvetica,sans-Serif" font-size="10.00">true</text>
</g>
<!-- full_quick_analysis -->
<g id="node4" class="node">
<title>full_quick_analysis</title>
<polygon fill="#e8f5e9" stroke="black" points="790.19,-256 483.02,-256 404,-90 711.17,-90 790.19,-256"/>
<text xml:space="preserve" text-anchor="middle" x="597.1" y="-197.2" font-family="Helvetica,sans-Serif" font-size="14.00">Full Quick Analysis</text>
<text xml:space="preserve" text-anchor="middle" x="597.1" y="-182.2" font-family="Helvetica,sans-Serif" font-size="14.00">(compute)</text>
<text xml:space="preserve" text-anchor="middle" x="597.1" y="-167.2" font-family="Helvetica,sans-Serif" font-size="14.00">exec: in&#45;process</text>
<text xml:space="preserve" text-anchor="middle" x="597.1" y="-152.2" font-family="Helvetica,sans-Serif" font-size="14.00">blocked: [llm, network, write]</text>
<text xml:space="preserve" text-anchor="middle" x="597.1" y="-137.2" font-family="Helvetica,sans-Serif" font-size="14.00">timeout: 60s</text>
</g>
<!-- quick_check&#45;&gt;full_quick_analysis -->
<g id="edge3" class="edge">
<title>quick_check&#45;&gt;full_quick_analysis</title>
<path fill="none" stroke="black" stroke-dasharray="5,2" d="M427.55,-313.54C444.39,-299.68 466.03,-281.87 488.19,-263.63"/>
<polygon fill="black" stroke="black" points="490.37,-266.37 495.86,-257.32 485.92,-260.97 490.37,-266.37"/>
<text xml:space="preserve" text-anchor="middle" x="482.56" y="-275.75" font-family="Helvetica,sans-Serif" font-size="10.00">false</text>
</g>
<!-- quick_insights -->
<g id="node5" class="node">
<title>quick_insights</title>
<path fill="#e3f2fd" stroke="black" d="M432.85,-53C432.85,-53 355.35,-53 355.35,-53 349.35,-53 343.35,-47 343.35,-41 343.35,-41 343.35,-12 343.35,-12 343.35,-6 349.35,0 355.35,0 355.35,0 432.85,0 432.85,0 438.85,0 444.85,-6 444.85,-12 444.85,-12 444.85,-41 444.85,-41 444.85,-47 438.85,-53 432.85,-53"/>
<text xml:space="preserve" text-anchor="middle" x="394.1" y="-35.7" font-family="Helvetica,sans-Serif" font-size="14.00">Quick Insights</text>
<text xml:space="preserve" text-anchor="middle" x="394.1" y="-20.7" font-family="Helvetica,sans-Serif" font-size="14.00">(agent)</text>
<text xml:space="preserve" text-anchor="middle" x="394.1" y="-5.7" font-family="Helvetica,sans-Serif" font-size="14.00">role: analyst</text>
</g>
<!-- sample_analysis&#45;&gt;quick_insights -->
<g id="edge4" class="edge">
<title>sample_analysis&#45;&gt;quick_insights</title>
<path fill="none" stroke="black" d="M307.39,-89.83C322.04,-79.3 336.3,-69.05 348.87,-60.01"/>
<polygon fill="black" stroke="black" points="350.83,-62.91 356.91,-54.23 346.75,-57.23 350.83,-62.91"/>
</g>
<!-- full_quick_analysis&#45;&gt;quick_insights -->
<g id="edge5" class="edge">
<title>full_quick_analysis&#45;&gt;quick_insights</title>
<path fill="none" stroke="black" d="M481.36,-89.62C466.61,-79.11 452.26,-68.9 439.6,-59.89"/>
<polygon fill="black" stroke="black" points="441.68,-57.08 431.5,-54.13 437.62,-62.78 441.68,-57.08"/>
</g>
</g>
</svg>
