<?xml version="1.0" encoding="UTF-8" standalone="no"?>
<!DOCTYPE svg PUBLIC "-//W3C//DTD SVG 1.1//EN"
 "http://www.w3.org/Graphics/SVG/1.1/DTD/svg11.dtd">
<!-- Generated by graphviz version 14.0.4 (20251115.1723)
 -->
<!-- Title: workflow Pages: 1 -->
<svg width="1247pt" height="3106pt"
 viewBox="0.00 0.00 1247.00 3106.00" xmlns="http://www.w3.org/2000/svg" xmlns:xlink="http://www.w3.org/1999/xlink">
<g id="graph0" class="graph" transform="scale(1 1) rotate(0) translate(4 3101.91)">
<title>workflow</title>
<polygon fill="white" stroke="none" points="-4,4 -4,-3101.91 1242.63,-3101.91 1242.63,4 -4,4"/>
<text xml:space="preserve" text-anchor="middle" x="619.32" y="-3080.61" font-family="Times,serif" font-size="14.00">automl</text>
<!-- load_data -->
<g id="node1" class="node">
<title>load_data</title>
<polygon fill="#e8f5e9" stroke="black" points="824.63,-3073.41 607.76,-3073.41 551.97,-2907.41 768.84,-2907.41 824.63,-3073.41"/>
<text xml:space="preserve" text-anchor="middle" x="688.3" y="-3014.61" font-family="Helvetica,sans-Serif" font-size="14.00">Load Dataset</text>
<text xml:space="preserve" text-anchor="middle" x="688.3" y="-2999.61" font-family="Helvetica,sans-Serif" font-size="14.00">(compute)</text>
<text xml:space="preserve" text-anchor="middle" x="688.3" y="-2984.61" font-family="Helvetica,sans-Serif" font-size="14.00">exec: in&#45;process</text>
<text xml:space="preserve" text-anchor="middle" x="688.3" y="-2969.61" font-family="Helvetica,sans-Serif" font-size="14.00">blocked: [llm, write]</text>
<text xml:space="preserve" text-anchor="middle" x="688.3" y="-2954.61" font-family="Helvetica,sans-Serif" font-size="14.00">timeout: 120s</text>
</g>
<!-- analyze_task -->
<g id="node2" class="node">
<title>analyze_task</title>
<path fill="#e3f2fd" stroke="black" d="M735.68,-2870.41C735.68,-2870.41 640.93,-2870.41 640.93,-2870.41 634.93,-2870.41 628.93,-2864.41 628.93,-2858.41 628.93,-2858.41 628.93,-2829.41 628.93,-2829.41 628.93,-2823.41 634.93,-2817.41 640.93,-2817.41 640.93,-2817.41 735.68,-2817.41 735.68,-2817.41 741.68,-2817.41 747.68,-2823.41 747.68,-2829.41 747.68,-2829.41 747.68,-2858.41 747.68,-2858.41 747.68,-2864.41 741.68,-2870.41 735.68,-2870.41"/>
<text xml:space="preserve" text-anchor="middle" x="688.3" y="-2853.11" font-family="Helvetica,sans-Serif" font-size="14.00">Analyze ML Task</text>
<text xml:space="preserve" text-anchor="middle" x="688.3" y="-2838.11" font-family="Helvetica,sans-Serif" font-size="14.00">(agent)</text>
<text xml:space="preserve" text-anchor="middle" x="688.3" y="-2823.11" font-family="Helvetica,sans-Serif" font-size="14.00">role: analyst</text>
</g>
<!-- load_data&#45;&gt;analyze_task -->
<g id="edge1" class="edge">
<title>load_data&#45;&gt;analyze_task</title>
<path fill="none" stroke="black" d="M688.3,-2907.03C688.3,-2898.27 688.3,-2889.72 688.3,-2881.9"/>
<polygon fill="black" stroke="black" points="691.8,-2882.17 688.3,-2872.17 684.8,-2882.17 691.8,-2882.17"/>
</g>
<!-- route_task -->
<g id="node3" class="node">
<title>route_task</title>
<polygon fill="#fff3e0" stroke="black" points="688.3,-2780.41 553.05,-2742.41 688.3,-2704.41 823.55,-2742.41 688.3,-2780.41"/>
<text xml:space="preserve" text-anchor="middle" x="688.3" y="-2744.11" font-family="Helvetica,sans-Serif" font-size="14.00">Route by Task Type</text>
<text xml:space="preserve" text-anchor="middle" x="688.3" y="-2729.11" font-family="Helvetica,sans-Serif" font-size="14.00">(condition)</text>
</g>
<!-- analyze_task&#45;&gt;route_task -->
<g id="edge2" class="edge">
<title>analyze_task&#45;&gt;route_task</title>
<path fill="none" stroke="black" d="M688.3,-2817.02C688.3,-2809.34 688.3,-2800.65 688.3,-2792.02"/>
<polygon fill="black" stroke="black" points="691.8,-2792.29 688.3,-2782.29 684.8,-2792.29 691.8,-2792.29"/>
</g>
<!-- preprocess_supervised -->
<g id="node4" class="node">
<title>preprocess_supervised</title>
<polygon fill="#e8f5e9" stroke="black" points="1008.05,-2657.16 626.66,-2657.16 528.55,-2461.16 909.94,-2461.16 1008.05,-2657.16"/>
<text xml:space="preserve" text-anchor="middle" x="768.3" y="-2590.86" font-family="Helvetica,sans-Serif" font-size="14.00">Preprocess for Supervised Learning</text>
<text xml:space="preserve" text-anchor="middle" x="768.3" y="-2575.86" font-family="Helvetica,sans-Serif" font-size="14.00">(compute)</text>
<text xml:space="preserve" text-anchor="middle" x="768.3" y="-2560.86" font-family="Helvetica,sans-Serif" font-size="14.00">exec: in&#45;process</text>
<text xml:space="preserve" text-anchor="middle" x="768.3" y="-2545.86" font-family="Helvetica,sans-Serif" font-size="14.00">handler: stats_compute</text>
<text xml:space="preserve" text-anchor="middle" x="768.3" y="-2530.86" font-family="Helvetica,sans-Serif" font-size="14.00">blocked: [llm, write]</text>
<text xml:space="preserve" text-anchor="middle" x="768.3" y="-2515.86" font-family="Helvetica,sans-Serif" font-size="14.00">timeout: 120s</text>
</g>
<!-- route_task&#45;&gt;preprocess_supervised -->
<g id="edge3" class="edge">
<title>route_task&#45;&gt;preprocess_supervised</title>
<path fill="none" stroke="black" stroke-dasharray="5,2" d="M685.06,-2705.03C685.2,-2695.15 686.3,-2684.58 689.3,-2675.16 690.03,-2672.86 690.83,-2670.56 691.68,-2668.28"/>
<polygon fill="black" stroke="black" points="694.91,-2669.63 695.48,-2659.05 688.44,-2666.96 694.91,-2669.63"/>
<text xml:space="preserve" text-anchor="middle" x="717.8" y="-2676.91" font-family="Helvetica,sans-Serif" font-size="10.00">classification</text>
</g>
<!-- route_task&#45;&gt;preprocess_supervised -->
<g id="edge4" class="edge">
<title>route_task&#45;&gt;preprocess_supervised</title>
<path fill="none" stroke="black" stroke-dasharray="5,2" d="M724.2,-2714.2C732.65,-2706.13 740.79,-2696.68 746.3,-2686.41 749.4,-2680.63 752.08,-2674.51 754.39,-2668.2"/>
<polygon fill="black" stroke="black" points="757.65,-2669.47 757.47,-2658.87 751.01,-2667.27 757.65,-2669.47"/>
<text xml:space="preserve" text-anchor="middle" x="773.31" y="-2676.91" font-family="Helvetica,sans-Serif" font-size="10.00">regression</text>
</g>
<!-- preprocess_unsupervised -->
<g id="node5" class="node">
<title>preprocess_unsupervised</title>
<polygon fill="#e8f5e9" stroke="black" points="510.6,-2657.16 104.48,-2657.16 0,-2461.16 406.13,-2461.16 510.6,-2657.16"/>
<text xml:space="preserve" text-anchor="middle" x="255.3" y="-2590.86" font-family="Helvetica,sans-Serif" font-size="14.00">Preprocess for Unsupervised Learning</text>
<text xml:space="preserve" text-anchor="middle" x="255.3" y="-2575.86" font-family="Helvetica,sans-Serif" font-size="14.00">(compute)</text>
<text xml:space="preserve" text-anchor="middle" x="255.3" y="-2560.86" font-family="Helvetica,sans-Serif" font-size="14.00">exec: in&#45;process</text>
<text xml:space="preserve" text-anchor="middle" x="255.3" y="-2545.86" font-family="Helvetica,sans-Serif" font-size="14.00">handler: stats_compute</text>
<text xml:space="preserve" text-anchor="middle" x="255.3" y="-2530.86" font-family="Helvetica,sans-Serif" font-size="14.00">blocked: [llm, write]</text>
<text xml:space="preserve" text-anchor="middle" x="255.3" y="-2515.86" font-family="Helvetica,sans-Serif" font-size="14.00">timeout: 120s</text>
</g>
<!-- route_task&#45;&gt;preprocess_unsupervised -->
<g id="edge5" class="edge">
<title>route_task&#45;&gt;preprocess_unsupervised</title>
<path fill="none" stroke="black" stroke-dasharray="5,2" d="M612.97,-2725.18C574.65,-2715.83 527.74,-2702.69 487.3,-2686.41 469.53,-2679.25 451.39,-2671.08 433.46,-2662.4"/>
<polygon fill="black" stroke="black" points="435.41,-2659.45 424.89,-2658.19 432.33,-2665.74 435.41,-2659.45"/>
<text xml:space="preserve" text-anchor="middle" x="508.3" y="-2676.91" font-family="Helvetica,sans-Serif" font-size="10.00">clustering</text>
</g>
<!-- route_task&#45;&gt;preprocess_unsupervised -->
<g id="edge6" class="edge">
<title>route_task&#45;&gt;preprocess_unsupervised</title>
<path fill="none" stroke="black" stroke-dasharray="5,2" d="M634.77,-2719C599.24,-2704.13 549.81,-2683.44 498.35,-2661.89"/>
<polygon fill="black" stroke="black" points="500,-2658.79 489.43,-2658.16 497.3,-2665.25 500,-2658.79"/>
<text xml:space="preserve" text-anchor="middle" x="566.62" y="-2676.91" font-family="Helvetica,sans-Serif" font-size="10.00">anomaly</text>
</g>
<!-- setup_rl_env -->
<g id="node22" class="node">
<title>setup_rl_env</title>
<path fill="#e3f2fd" stroke="black" d="M1166.55,-2585.66C1166.55,-2585.66 1038.05,-2585.66 1038.05,-2585.66 1032.05,-2585.66 1026.05,-2579.66 1026.05,-2573.66 1026.05,-2573.66 1026.05,-2544.66 1026.05,-2544.66 1026.05,-2538.66 1032.05,-2532.66 1038.05,-2532.66 1038.05,-2532.66 1166.55,-2532.66 1166.55,-2532.66 1172.55,-2532.66 1178.55,-2538.66 1178.55,-2544.66 1178.55,-2544.66 1178.55,-2573.66 1178.55,-2573.66 1178.55,-2579.66 1172.55,-2585.66 1166.55,-2585.66"/>
<text xml:space="preserve" text-anchor="middle" x="1102.3" y="-2568.36" font-family="Helvetica,sans-Serif" font-size="14.00">Setup RL Environment</text>
<text xml:space="preserve" text-anchor="middle" x="1102.3" y="-2553.36" font-family="Helvetica,sans-Serif" font-size="14.00">(agent)</text>
<text xml:space="preserve" text-anchor="middle" x="1102.3" y="-2538.36" font-family="Helvetica,sans-Serif" font-size="14.00">role: executor</text>
</g>
<!-- route_task&#45;&gt;setup_rl_env -->
<g id="edge7" class="edge">
<title>route_task&#45;&gt;setup_rl_env</title>
<path fill="none" stroke="black" stroke-dasharray="5,2" d="M787.15,-2731.7C855.82,-2721.36 947.22,-2700.22 1017.3,-2657.16 1042.61,-2641.6 1064.52,-2616.12 1079.75,-2595.17"/>
<polygon fill="black" stroke="black" points="1082.5,-2597.35 1085.4,-2587.16 1076.78,-2593.32 1082.5,-2597.35"/>
<text xml:space="preserve" text-anchor="middle" x="979.46" y="-2676.91" font-family="Helvetica,sans-Serif" font-size="10.00">rl</text>
</g>
<!-- select_framework -->
<g id="node6" class="node">
<title>select_framework</title>
<ellipse fill="#ffebee" stroke="black" cx="539.3" cy="-2326.16" rx="124.8" ry="37.48"/>
<text xml:space="preserve" text-anchor="middle" x="539.3" y="-2335.36" font-family="Helvetica,sans-Serif" font-size="14.00">Select AutoML Framework</text>
<text xml:space="preserve" text-anchor="middle" x="539.3" y="-2320.36" font-family="Helvetica,sans-Serif" font-size="14.00">(hitl)</text>
<text xml:space="preserve" text-anchor="middle" x="539.3" y="-2305.36" font-family="Helvetica,sans-Serif" font-size="14.00">timeout: 300s</text>
</g>
<!-- preprocess_supervised&#45;&gt;select_framework -->
<g id="edge8" class="edge">
<title>preprocess_supervised&#45;&gt;select_framework</title>
<path fill="none" stroke="black" d="M671.85,-2460.86C640.63,-2429.37 607.58,-2396.04 582.29,-2370.53"/>
<polygon fill="black" stroke="black" points="584.96,-2368.24 575.43,-2363.61 579.99,-2373.17 584.96,-2368.24"/>
</g>
<!-- run_pycaret -->
<g id="node8" class="node">
<title>run_pycaret</title>
<polygon fill="#e8f5e9" stroke="black" points="434.74,-2026.16 168.38,-2026.16 99.86,-1830.16 366.22,-1830.16 434.74,-2026.16"/>
<text xml:space="preserve" text-anchor="middle" x="267.3" y="-1959.86" font-family="Helvetica,sans-Serif" font-size="14.00">Run PyCaret AutoML</text>
<text xml:space="preserve" text-anchor="middle" x="267.3" y="-1944.86" font-family="Helvetica,sans-Serif" font-size="14.00">(compute)</text>
<text xml:space="preserve" text-anchor="middle" x="267.3" y="-1929.86" font-family="Helvetica,sans-Serif" font-size="14.00">exec: in&#45;process</text>
<text xml:space="preserve" text-anchor="middle" x="267.3" y="-1914.86" font-family="Helvetica,sans-Serif" font-size="14.00">handler: pycaret_automl</text>
<text xml:space="preserve" text-anchor="middle" x="267.3" y="-1899.86" font-family="Helvetica,sans-Serif" font-size="14.00">blocked: [llm, write]</text>
<text xml:space="preserve" text-anchor="middle" x="267.3" y="-1884.86" font-family="Helvetica,sans-Serif" font-size="14.00">timeout: 3600s</text>
</g>
<!-- preprocess_unsupervised&#45;&gt;run_pycaret -->
<g id="edge9" class="edge">
<title>preprocess_unsupervised&#45;&gt;run_pycaret</title>
<path fill="none" stroke="black" d="M257.16,-2460.91C259.34,-2346.49 262.95,-2157.06 265.23,-2037.88"/>
<polygon fill="black" stroke="black" points="268.72,-2038.15 265.41,-2028.09 261.72,-2038.02 268.72,-2038.15"/>
</g>
<!-- route_framework -->
<g id="node7" class="node">
<title>route_framework</title>
<polygon fill="#fff3e0" stroke="black" points="481.3,-2191.16 339.3,-2153.16 481.3,-2115.16 623.3,-2153.16 481.3,-2191.16"/>
<text xml:space="preserve" text-anchor="middle" x="481.3" y="-2154.86" font-family="Helvetica,sans-Serif" font-size="14.00">Route by Framework</text>
<text xml:space="preserve" text-anchor="middle" x="481.3" y="-2139.86" font-family="Helvetica,sans-Serif" font-size="14.00">(condition)</text>
</g>
<!-- select_framework&#45;&gt;route_framework -->
<g id="edge10" class="edge">
<title>select_framework&#45;&gt;route_framework</title>
<path fill="none" stroke="black" d="M526.86,-2288.47C517.98,-2262.31 506,-2226.97 496.55,-2199.11"/>
<polygon fill="black" stroke="black" points="499.95,-2198.23 493.42,-2189.88 493.32,-2200.48 499.95,-2198.23"/>
</g>
<!-- route_framework&#45;&gt;run_pycaret -->
<g id="edge11" class="edge">
<title>route_framework&#45;&gt;run_pycaret</title>
<path fill="none" stroke="black" stroke-dasharray="5,2" d="M444.42,-2124.83C433.72,-2116.35 422.24,-2106.71 412.3,-2097.16 392.32,-2077.94 372.12,-2056.26 353.39,-2035.01"/>
<polygon fill="black" stroke="black" points="356.24,-2032.94 347.02,-2027.72 350.97,-2037.55 356.24,-2032.94"/>
<text xml:space="preserve" text-anchor="middle" x="430.3" y="-2066.78" font-family="Helvetica,sans-Serif" font-size="10.00">PyCaret</text>
</g>
<!-- run_autosklearn -->
<g id="node14" class="node">
<title>run_autosklearn</title>
<polygon fill="#e8f5e9" stroke="black" points="650.17,-955.75 341.77,-955.75 262.43,-759.75 570.84,-759.75 650.17,-955.75"/>
<text xml:space="preserve" text-anchor="middle" x="456.3" y="-889.45" font-family="Helvetica,sans-Serif" font-size="14.00">Run Auto&#45;sklearn</text>
<text xml:space="preserve" text-anchor="middle" x="456.3" y="-874.45" font-family="Helvetica,sans-Serif" font-size="14.00">(compute)</text>
<text xml:space="preserve" text-anchor="middle" x="456.3" y="-859.45" font-family="Helvetica,sans-Serif" font-size="14.00">exec: in&#45;process</text>
<text xml:space="preserve" text-anchor="middle" x="456.3" y="-844.45" font-family="Helvetica,sans-Serif" font-size="14.00">handler: autosklearn_automl</text>
<text xml:space="preserve" text-anchor="middle" x="456.3" y="-829.45" font-family="Helvetica,sans-Serif" font-size="14.00">blocked: [llm, write]</text>
<text xml:space="preserve" text-anchor="middle" x="456.3" y="-814.45" font-family="Helvetica,sans-Serif" font-size="14.00">timeout: 7200s</text>
</g>
<!-- route_framework&#45;&gt;run_autosklearn -->
<g id="edge12" class="edge">
<title>route_framework&#45;&gt;run_autosklearn</title>
<path fill="none" stroke="black" stroke-dasharray="5,2" d="M476.36,-2116.32C470.73,-2072.33 462.3,-1995.41 462.3,-1929.16 462.3,-1929.16 462.3,-1929.16 462.3,-1103.7 462.3,-1059.18 461.3,-1010.13 460.11,-967.68"/>
<polygon fill="black" stroke="black" points="463.61,-967.59 459.83,-957.7 456.61,-967.79 463.61,-967.59"/>
<text xml:space="preserve" text-anchor="middle" x="489.68" y="-1437.78" font-family="Helvetica,sans-Serif" font-size="10.00">Auto&#45;sklearn</text>
</g>
<!-- run_both_frameworks -->
<g id="node17" class="node">
<title>run_both_frameworks</title>
<polygon fill="#f3e5f5" stroke="black" points="782.3,-1947.16 580.3,-1947.16 580.3,-1909.16 782.3,-1909.16 782.3,-1947.16"/>
<polygon fill="none" stroke="black" points="786.3,-1951.16 576.3,-1951.16 576.3,-1905.16 786.3,-1905.16 786.3,-1951.16"/>
<text xml:space="preserve" text-anchor="middle" x="681.3" y="-1929.86" font-family="Helvetica,sans-Serif" font-size="14.00">Run Both AutoML Frameworks</text>
<text xml:space="preserve" text-anchor="middle" x="681.3" y="-1914.86" font-family="Helvetica,sans-Serif" font-size="14.00">(parallel)</text>
</g>
<!-- route_framework&#45;&gt;run_both_frameworks -->
<g id="edge13" class="edge">
<title>route_framework&#45;&gt;run_both_frameworks</title>
<path fill="none" stroke="black" stroke-dasharray="5,2" d="M508.27,-2122.08C546.38,-2079.59 615.59,-2002.42 653.92,-1959.69"/>
<polygon fill="black" stroke="black" points="656.3,-1962.28 660.37,-1952.5 651.09,-1957.6 656.3,-1962.28"/>
<text xml:space="preserve" text-anchor="middle" x="585.43" y="-2066.78" font-family="Helvetica,sans-Serif" font-size="10.00">Both</text>
</g>
<!-- check_pycaret -->
<g id="node9" class="node">
<title>check_pycaret</title>
<polygon fill="#fff3e0" stroke="black" points="270.3,-1722.91 108.8,-1684.91 270.3,-1646.91 431.8,-1684.91 270.3,-1722.91"/>
<text xml:space="preserve" text-anchor="middle" x="270.3" y="-1686.61" font-family="Helvetica,sans-Serif" font-size="14.00">Check PyCaret Success</text>
<text xml:space="preserve" text-anchor="middle" x="270.3" y="-1671.61" font-family="Helvetica,sans-Serif" font-size="14.00">(condition)</text>
</g>
<!-- run_pycaret&#45;&gt;check_pycaret -->
<g id="edge14" class="edge">
<title>run_pycaret&#45;&gt;check_pycaret</title>
<path fill="none" stroke="black" d="M268.51,-1829.73C268.92,-1796.89 269.36,-1761.66 269.7,-1734.29"/>
<polygon fill="black" stroke="black" points="273.19,-1734.63 269.82,-1724.59 266.2,-1734.54 273.19,-1734.63"/>
</g>
<!-- pycaret_fallback -->
<g id="node10" class="node">
<title>pycaret_fallback</title>
<path fill="#e3f2fd" stroke="black" d="M336.43,-1468.16C336.43,-1468.16 204.18,-1468.16 204.18,-1468.16 198.18,-1468.16 192.18,-1462.16 192.18,-1456.16 192.18,-1456.16 192.18,-1427.16 192.18,-1427.16 192.18,-1421.16 198.18,-1415.16 204.18,-1415.16 204.18,-1415.16 336.43,-1415.16 336.43,-1415.16 342.43,-1415.16 348.43,-1421.16 348.43,-1427.16 348.43,-1427.16 348.43,-1456.16 348.43,-1456.16 348.43,-1462.16 342.43,-1468.16 336.43,-1468.16"/>
<text xml:space="preserve" text-anchor="middle" x="270.3" y="-1450.86" font-family="Helvetica,sans-Serif" font-size="14.00">Handle PyCaret Failure</text>
<text xml:space="preserve" text-anchor="middle" x="270.3" y="-1435.86" font-family="Helvetica,sans-Serif" font-size="14.00">(agent)</text>
<text xml:space="preserve" text-anchor="middle" x="270.3" y="-1420.86" font-family="Helvetica,sans-Serif" font-size="14.00">role: executor</text>
</g>
<!-- check_pycaret&#45;&gt;pycaret_fallback -->
<g id="edge16" class="edge">
<title>check_pycaret&#45;&gt;pycaret_fallback</title>
<path fill="none" stroke="black" stroke-dasharray="5,2" d="M270.3,-1646.48C270.3,-1601.16 270.3,-1525.3 270.3,-1480.02"/>
<polygon fill="black" stroke="black" points="273.8,-1480.16 270.3,-1470.16 266.8,-1480.16 273.8,-1480.16"/>
<text xml:space="preserve" text-anchor="middle" x="280.8" y="-1559.41" font-family="Helvetica,sans-Serif" font-size="10.00">false</text>
</g>
<!-- analyze_pycaret -->
<g id="node13" class="node">
<title>analyze_pycaret</title>
<path fill="#e3f2fd" stroke="black" d="M630.93,-1325.66C630.93,-1325.66 489.68,-1325.66 489.68,-1325.66 483.68,-1325.66 477.68,-1319.66 477.68,-1313.66 477.68,-1313.66 477.68,-1284.66 477.68,-1284.66 477.68,-1278.66 483.68,-1272.66 489.68,-1272.66 489.68,-1272.66 630.93,-1272.66 630.93,-1272.66 636.93,-1272.66 642.93,-1278.66 642.93,-1284.66 642.93,-1284.66 642.93,-1313.66 642.93,-1313.66 642.93,-1319.66 636.93,-1325.66 630.93,-1325.66"/>
<text xml:space="preserve" text-anchor="middle" x="560.3" y="-1308.36" font-family="Helvetica,sans-Serif" font-size="14.00">Analyze PyCaret Results</text>
<text xml:space="preserve" text-anchor="middle" x="560.3" y="-1293.36" font-family="Helvetica,sans-Serif" font-size="14.00">(agent)</text>
<text xml:space="preserve" text-anchor="middle" x="560.3" y="-1278.36" font-family="Helvetica,sans-Serif" font-size="14.00">role: analyst</text>
</g>
<!-- check_pycaret&#45;&gt;analyze_pycaret -->
<g id="edge15" class="edge">
<title>check_pycaret&#45;&gt;analyze_pycaret</title>
<path fill="none" stroke="black" stroke-dasharray="5,2" d="M339.68,-1662.83C397.76,-1641.42 477.9,-1602.38 521.3,-1539.66 563.69,-1478.4 566.13,-1387.5 563.58,-1337.14"/>
<polygon fill="black" stroke="black" points="567.09,-1337.12 562.98,-1327.35 560.1,-1337.54 567.09,-1337.12"/>
<text xml:space="preserve" text-anchor="middle" x="512.36" y="-1559.41" font-family="Helvetica,sans-Serif" font-size="10.00">true</text>
</g>
<!-- suggest_alternative -->
<g id="node11" class="node">
<title>suggest_alternative</title>
<ellipse fill="#ffebee" stroke="black" cx="270.3" cy="-1217.18" rx="129.05" ry="37.48"/>
<text xml:space="preserve" text-anchor="middle" x="270.3" y="-1226.38" font-family="Helvetica,sans-Serif" font-size="14.00">Try Alternative Framework?</text>
<text xml:space="preserve" text-anchor="middle" x="270.3" y="-1211.38" font-family="Helvetica,sans-Serif" font-size="14.00">(hitl)</text>
<text xml:space="preserve" text-anchor="middle" x="270.3" y="-1196.38" font-family="Helvetica,sans-Serif" font-size="14.00">timeout: 300s</text>
</g>
<!-- pycaret_fallback&#45;&gt;suggest_alternative -->
<g id="edge17" class="edge">
<title>pycaret_fallback&#45;&gt;suggest_alternative</title>
<path fill="none" stroke="black" d="M270.3,-1414.7C270.3,-1378.43 270.3,-1311.92 270.3,-1266.41"/>
<polygon fill="black" stroke="black" points="273.8,-1266.55 270.3,-1256.55 266.8,-1266.55 273.8,-1266.55"/>
</g>
<!-- route_alternative -->
<g id="node12" class="node">
<title>route_alternative</title>
<polygon fill="#fff3e0" stroke="black" points="270.3,-1142.7 150.8,-1104.7 270.3,-1066.7 389.8,-1104.7 270.3,-1142.7"/>
<text xml:space="preserve" text-anchor="middle" x="270.3" y="-1106.4" font-family="Helvetica,sans-Serif" font-size="14.00">Route Alternative</text>
<text xml:space="preserve" text-anchor="middle" x="270.3" y="-1091.4" font-family="Helvetica,sans-Serif" font-size="14.00">(condition)</text>
</g>
<!-- suggest_alternative&#45;&gt;route_alternative -->
<g id="edge18" class="edge">
<title>suggest_alternative&#45;&gt;route_alternative</title>
<path fill="none" stroke="black" d="M270.3,-1179.39C270.3,-1171.37 270.3,-1162.75 270.3,-1154.35"/>
<polygon fill="black" stroke="black" points="273.8,-1154.6 270.3,-1144.6 266.8,-1154.6 273.8,-1154.6"/>
</g>
<!-- route_alternative&#45;&gt;run_autosklearn -->
<g id="edge19" class="edge">
<title>route_alternative&#45;&gt;run_autosklearn</title>
<path fill="none" stroke="black" stroke-dasharray="5,2" d="M293.11,-1073.67C313.81,-1046.41 345.59,-1004.55 375.63,-964.99"/>
<polygon fill="black" stroke="black" points="378.24,-967.34 381.5,-957.26 372.66,-963.11 378.24,-967.34"/>
<text xml:space="preserve" text-anchor="middle" x="377.13" y="-1007.35" font-family="Helvetica,sans-Serif" font-size="10.00">true</text>
</g>
<!-- complete_failed -->
<g id="node29" class="node">
<title>complete_failed</title>
<polygon fill="#eceff1" stroke="black" points="511.55,-38 407.05,-38 407.05,0 511.55,0 511.55,-38"/>
<text xml:space="preserve" text-anchor="middle" x="459.3" y="-20.7" font-family="Helvetica,sans-Serif" font-size="14.00">Pipeline Failed</text>
<text xml:space="preserve" text-anchor="middle" x="459.3" y="-5.7" font-family="Helvetica,sans-Serif" font-size="14.00">(transform)</text>
</g>
<!-- route_alternative&#45;&gt;complete_failed -->
<g id="edge20" class="edge">
<title>route_alternative&#45;&gt;complete_failed</title>
<path fill="none" stroke="black" stroke-dasharray="5,2" d="M261.95,-1069.05C251.32,-1021.81 234.3,-934.4 234.3,-858.75 234.3,-858.75 234.3,-858.75 234.3,-93 234.3,-58.89 329.06,-38.3 395.59,-28.06"/>
<polygon fill="black" stroke="black" points="395.96,-31.54 405.33,-26.61 394.93,-24.62 395.96,-31.54"/>
<text xml:space="preserve" text-anchor="middle" x="244.8" y="-482.62" font-family="Helvetica,sans-Serif" font-size="10.00">false</text>
</g>
<!-- finalize_model -->
<g id="node25" class="node">
<title>finalize_model</title>
<polygon fill="#f3e5f5" stroke="black" points="869.55,-505.5 735.05,-505.5 735.05,-467.5 869.55,-467.5 869.55,-505.5"/>
<polygon fill="none" stroke="black" points="873.55,-509.5 731.05,-509.5 731.05,-463.5 873.55,-463.5 873.55,-509.5"/>
<text xml:space="preserve" text-anchor="middle" x="802.3" y="-488.2" font-family="Helvetica,sans-Serif" font-size="14.00">Finalize Best Model</text>
<text xml:space="preserve" text-anchor="middle" x="802.3" y="-473.2" font-family="Helvetica,sans-Serif" font-size="14.00">(parallel)</text>
</g>
<!-- analyze_pycaret&#45;&gt;finalize_model -->
<g id="edge21" class="edge">
<title>analyze_pycaret&#45;&gt;finalize_model</title>
<path fill="none" stroke="black" d="M603.23,-1272.23C636.97,-1248.23 678.3,-1209.15 678.3,-1161.7 678.3,-1161.7 678.3,-1161.7 678.3,-572 678.3,-545.79 697.46,-527.12 720.71,-514.13"/>
<polygon fill="black" stroke="black" points="722.25,-517.28 729.54,-509.59 719.05,-511.05 722.25,-517.28"/>
</g>
<!-- check_autosklearn -->
<g id="node15" class="node">
<title>check_autosklearn</title>
<polygon fill="#fff3e0" stroke="black" points="459.3,-722.75 270.8,-684.75 459.3,-646.75 647.8,-684.75 459.3,-722.75"/>
<text xml:space="preserve" text-anchor="middle" x="459.3" y="-686.45" font-family="Helvetica,sans-Serif" font-size="14.00">Check Auto&#45;sklearn Success</text>
<text xml:space="preserve" text-anchor="middle" x="459.3" y="-671.45" font-family="Helvetica,sans-Serif" font-size="14.00">(condition)</text>
</g>
<!-- run_autosklearn&#45;&gt;check_autosklearn -->
<g id="edge22" class="edge">
<title>run_autosklearn&#45;&gt;check_autosklearn</title>
<path fill="none" stroke="black" d="M458.01,-759.26C458.16,-750.59 458.31,-742.09 458.45,-734.13"/>
<polygon fill="black" stroke="black" points="461.95,-734.45 458.62,-724.39 454.95,-734.33 461.95,-734.45"/>
</g>
<!-- analyze_autosklearn -->
<g id="node16" class="node">
<title>analyze_autosklearn</title>
<path fill="#e3f2fd" stroke="black" d="M886.43,-599.5C886.43,-599.5 718.18,-599.5 718.18,-599.5 712.18,-599.5 706.18,-593.5 706.18,-587.5 706.18,-587.5 706.18,-558.5 706.18,-558.5 706.18,-552.5 712.18,-546.5 718.18,-546.5 718.18,-546.5 886.43,-546.5 886.43,-546.5 892.43,-546.5 898.43,-552.5 898.43,-558.5 898.43,-558.5 898.43,-587.5 898.43,-587.5 898.43,-593.5 892.43,-599.5 886.43,-599.5"/>
<text xml:space="preserve" text-anchor="middle" x="802.3" y="-582.2" font-family="Helvetica,sans-Serif" font-size="14.00">Analyze Auto&#45;sklearn Results</text>
<text xml:space="preserve" text-anchor="middle" x="802.3" y="-567.2" font-family="Helvetica,sans-Serif" font-size="14.00">(agent)</text>
<text xml:space="preserve" text-anchor="middle" x="802.3" y="-552.2" font-family="Helvetica,sans-Serif" font-size="14.00">role: analyst</text>
</g>
<!-- check_autosklearn&#45;&gt;analyze_autosklearn -->
<g id="edge23" class="edge">
<title>check_autosklearn&#45;&gt;analyze_autosklearn</title>
<path fill="none" stroke="black" stroke-dasharray="5,2" d="M531.2,-660.74C583.34,-644.06 654.27,-621.37 710.5,-603.38"/>
<polygon fill="black" stroke="black" points="711.28,-606.8 719.73,-600.42 709.14,-600.13 711.28,-606.8"/>
<text xml:space="preserve" text-anchor="middle" x="669.77" y="-619.25" font-family="Helvetica,sans-Serif" font-size="10.00">true</text>
</g>
<!-- check_autosklearn&#45;&gt;complete_failed -->
<g id="edge24" class="edge">
<title>check_autosklearn&#45;&gt;complete_failed</title>
<path fill="none" stroke="black" stroke-dasharray="5,2" d="M459.3,-646.41C459.3,-625.18 459.3,-598.1 459.3,-574 459.3,-574 459.3,-574 459.3,-93 459.3,-78.74 459.3,-62.9 459.3,-49.64"/>
<polygon fill="black" stroke="black" points="462.8,-49.81 459.3,-39.81 455.8,-49.81 462.8,-49.81"/>
<text xml:space="preserve" text-anchor="middle" x="469.8" y="-329.38" font-family="Helvetica,sans-Serif" font-size="10.00">false</text>
</g>
<!-- analyze_autosklearn&#45;&gt;finalize_model -->
<g id="edge25" class="edge">
<title>analyze_autosklearn&#45;&gt;finalize_model</title>
<path fill="none" stroke="black" d="M802.3,-546.19C802.3,-538.27 802.3,-529.44 802.3,-521.08"/>
<polygon fill="black" stroke="black" points="805.8,-521.24 802.3,-511.24 798.8,-521.24 805.8,-521.24"/>
</g>
<!-- pycaret_parallel -->
<g id="node18" class="node">
<title>pycaret_parallel</title>
<polygon fill="#e8f5e9" stroke="black" points="1073.74,-1782.91 807.38,-1782.91 738.86,-1586.91 1005.22,-1586.91 1073.74,-1782.91"/>
<text xml:space="preserve" text-anchor="middle" x="906.3" y="-1716.61" font-family="Helvetica,sans-Serif" font-size="14.00">PyCaret (Parallel)</text>
<text xml:space="preserve" text-anchor="middle" x="906.3" y="-1701.61" font-family="Helvetica,sans-Serif" font-size="14.00">(compute)</text>
<text xml:space="preserve" text-anchor="middle" x="906.3" y="-1686.61" font-family="Helvetica,sans-Serif" font-size="14.00">exec: in&#45;process</text>
<text xml:space="preserve" text-anchor="middle" x="906.3" y="-1671.61" font-family="Helvetica,sans-Serif" font-size="14.00">handler: pycaret_automl</text>
<text xml:space="preserve" text-anchor="middle" x="906.3" y="-1656.61" font-family="Helvetica,sans-Serif" font-size="14.00">blocked: [llm, write]</text>
<text xml:space="preserve" text-anchor="middle" x="906.3" y="-1641.61" font-family="Helvetica,sans-Serif" font-size="14.00">timeout: 1800s</text>
</g>
<!-- run_both_frameworks&#45;&gt;pycaret_parallel -->
<g id="edge26" class="edge">
<title>run_both_frameworks&#45;&gt;pycaret_parallel</title>
<path fill="none" stroke="black" d="M702.06,-1904.89C726.34,-1878.87 768.24,-1833.94 807.8,-1791.52"/>
<polygon fill="black" stroke="black" points="810.12,-1794.17 814.38,-1784.47 805,-1789.39 810.12,-1794.17"/>
<text xml:space="preserve" text-anchor="middle" x="802.05" y="-1802.66" font-family="Helvetica,sans-Serif" font-size="10.00">fork</text>
</g>
<!-- autosklearn_parallel -->
<g id="node19" class="node">
<title>autosklearn_parallel</title>
<polygon fill="#e8f5e9" stroke="black" points="1074.17,-1539.66 765.77,-1539.66 686.43,-1343.66 994.84,-1343.66 1074.17,-1539.66"/>
<text xml:space="preserve" text-anchor="middle" x="880.3" y="-1473.36" font-family="Helvetica,sans-Serif" font-size="14.00">Auto&#45;sklearn (Parallel)</text>
<text xml:space="preserve" text-anchor="middle" x="880.3" y="-1458.36" font-family="Helvetica,sans-Serif" font-size="14.00">(compute)</text>
<text xml:space="preserve" text-anchor="middle" x="880.3" y="-1443.36" font-family="Helvetica,sans-Serif" font-size="14.00">exec: in&#45;process</text>
<text xml:space="preserve" text-anchor="middle" x="880.3" y="-1428.36" font-family="Helvetica,sans-Serif" font-size="14.00">handler: autosklearn_automl</text>
<text xml:space="preserve" text-anchor="middle" x="880.3" y="-1413.36" font-family="Helvetica,sans-Serif" font-size="14.00">blocked: [llm, write]</text>
<text xml:space="preserve" text-anchor="middle" x="880.3" y="-1398.36" font-family="Helvetica,sans-Serif" font-size="14.00">timeout: 3600s</text>
</g>
<!-- run_both_frameworks&#45;&gt;autosklearn_parallel -->
<g id="edge27" class="edge">
<title>run_both_frameworks&#45;&gt;autosklearn_parallel</title>
<path fill="none" stroke="black" d="M681.3,-1904.94C681.62,-1838.54 685.04,-1642.68 713.8,-1586.91 723.58,-1567.95 737,-1550.4 752.01,-1534.55"/>
<polygon fill="black" stroke="black" points="754.42,-1537.09 758.93,-1527.5 749.43,-1532.18 754.42,-1537.09"/>
<text xml:space="preserve" text-anchor="middle" x="722.05" y="-1681.03" font-family="Helvetica,sans-Serif" font-size="10.00">fork</text>
</g>
<!-- compare_frameworks -->
<g id="node20" class="node">
<title>compare_frameworks</title>
<path fill="#e3f2fd" stroke="black" d="M964.8,-1243.68C964.8,-1243.68 795.8,-1243.68 795.8,-1243.68 789.8,-1243.68 783.8,-1237.68 783.8,-1231.68 783.8,-1231.68 783.8,-1202.68 783.8,-1202.68 783.8,-1196.68 789.8,-1190.68 795.8,-1190.68 795.8,-1190.68 964.8,-1190.68 964.8,-1190.68 970.8,-1190.68 976.8,-1196.68 976.8,-1202.68 976.8,-1202.68 976.8,-1231.68 976.8,-1231.68 976.8,-1237.68 970.8,-1243.68 964.8,-1243.68"/>
<text xml:space="preserve" text-anchor="middle" x="880.3" y="-1226.38" font-family="Helvetica,sans-Serif" font-size="14.00">Compare Framework Results</text>
<text xml:space="preserve" text-anchor="middle" x="880.3" y="-1211.38" font-family="Helvetica,sans-Serif" font-size="14.00">(agent)</text>
<text xml:space="preserve" text-anchor="middle" x="880.3" y="-1196.38" font-family="Helvetica,sans-Serif" font-size="14.00">role: analyst</text>
</g>
<!-- run_both_frameworks&#45;&gt;compare_frameworks -->
<g id="edge28" class="edge">
<title>run_both_frameworks&#45;&gt;compare_frameworks</title>
<path fill="none" stroke="black" d="M673.87,-1904.87C648.1,-1823.39 569.89,-1536.33 677.3,-1343.66 702,-1299.36 749.49,-1268.74 792.33,-1248.84"/>
<polygon fill="black" stroke="black" points="793.74,-1252.04 801.43,-1244.75 790.88,-1245.65 793.74,-1252.04"/>
<text xml:space="preserve" text-anchor="middle" x="630.16" y="-1559.41" font-family="Helvetica,sans-Serif" font-size="10.00">join</text>
</g>
<!-- pycaret_parallel&#45;&gt;autosklearn_parallel -->
<g id="edge29" class="edge">
<title>pycaret_parallel&#45;&gt;autosklearn_parallel</title>
<path fill="none" stroke="black" d="M895.8,-1586.48C894.55,-1574.88 893.27,-1562.99 892,-1551.25"/>
<polygon fill="black" stroke="black" points="895.51,-1551.13 890.96,-1541.56 888.55,-1551.88 895.51,-1551.13"/>
</g>
<!-- autosklearn_parallel&#45;&gt;compare_frameworks -->
<g id="edge30" class="edge">
<title>autosklearn_parallel&#45;&gt;compare_frameworks</title>
<path fill="none" stroke="black" d="M880.3,-1343.4C880.3,-1312.19 880.3,-1279.49 880.3,-1255.34"/>
<polygon fill="black" stroke="black" points="883.8,-1255.39 880.3,-1245.39 876.8,-1255.39 883.8,-1255.39"/>
</g>
<!-- select_best -->
<g id="node21" class="node">
<title>select_best</title>
<ellipse fill="#ffebee" stroke="black" cx="913.3" cy="-1011.23" rx="88.74" ry="37.48"/>
<text xml:space="preserve" text-anchor="middle" x="913.3" y="-1020.43" font-family="Helvetica,sans-Serif" font-size="14.00">Select Best Model</text>
<text xml:space="preserve" text-anchor="middle" x="913.3" y="-1005.43" font-family="Helvetica,sans-Serif" font-size="14.00">(hitl)</text>
<text xml:space="preserve" text-anchor="middle" x="913.3" y="-990.43" font-family="Helvetica,sans-Serif" font-size="14.00">timeout: 600s</text>
</g>
<!-- compare_frameworks&#45;&gt;select_best -->
<g id="edge31" class="edge">
<title>compare_frameworks&#45;&gt;select_best</title>
<path fill="none" stroke="black" d="M884.48,-1190.35C889.76,-1157.69 898.96,-1100.84 905.55,-1060.14"/>
<polygon fill="black" stroke="black" points="908.99,-1060.79 907.13,-1050.36 902.08,-1059.67 908.99,-1060.79"/>
</g>
<!-- select_best&#45;&gt;finalize_model -->
<g id="edge32" class="edge">
<title>select_best&#45;&gt;finalize_model</title>
<path fill="none" stroke="black" d="M916.22,-973.34C920.05,-921.62 926.3,-824.58 926.3,-741.75 926.3,-741.75 926.3,-741.75 926.3,-572 926.3,-545.79 907.14,-527.12 883.89,-514.13"/>
<polygon fill="black" stroke="black" points="885.55,-511.05 875.06,-509.59 882.35,-517.28 885.55,-511.05"/>
</g>
<!-- run_rl_training -->
<g id="node23" class="node">
<title>run_rl_training</title>
<polygon fill="#e8f5e9" stroke="black" points="1238.63,-2424.16 1021.76,-2424.16 965.97,-2228.16 1182.84,-2228.16 1238.63,-2424.16"/>
<text xml:space="preserve" text-anchor="middle" x="1102.3" y="-2357.86" font-family="Helvetica,sans-Serif" font-size="14.00">Train RL Agent</text>
<text xml:space="preserve" text-anchor="middle" x="1102.3" y="-2342.86" font-family="Helvetica,sans-Serif" font-size="14.00">(compute)</text>
<text xml:space="preserve" text-anchor="middle" x="1102.3" y="-2327.86" font-family="Helvetica,sans-Serif" font-size="14.00">exec: in&#45;process</text>
<text xml:space="preserve" text-anchor="middle" x="1102.3" y="-2312.86" font-family="Helvetica,sans-Serif" font-size="14.00">handler: rl_training</text>
<text xml:space="preserve" text-anchor="middle" x="1102.3" y="-2297.86" font-family="Helvetica,sans-Serif" font-size="14.00">blocked: [llm, write]</text>
<text xml:space="preserve" text-anchor="middle" x="1102.3" y="-2282.86" font-family="Helvetica,sans-Serif" font-size="14.00">timeout: 7200s</text>
</g>
<!-- setup_rl_env&#45;&gt;run_rl_training -->
<g id="edge33" class="edge">
<title>setup_rl_env&#45;&gt;run_rl_training</title>
<path fill="none" stroke="black" d="M1102.3,-2532.55C1102.3,-2508.81 1102.3,-2471.81 1102.3,-2435.72"/>
<polygon fill="black" stroke="black" points="1105.8,-2436.08 1102.3,-2426.08 1098.8,-2436.08 1105.8,-2436.08"/>
</g>
<!-- analyze_rl -->
<g id="node24" class="node">
<title>analyze_rl</title>
<path fill="#e3f2fd" stroke="black" d="M1157.18,-2097.16C1157.18,-2097.16 1047.43,-2097.16 1047.43,-2097.16 1041.43,-2097.16 1035.43,-2091.16 1035.43,-2085.16 1035.43,-2085.16 1035.43,-2056.16 1035.43,-2056.16 1035.43,-2050.16 1041.43,-2044.16 1047.43,-2044.16 1047.43,-2044.16 1157.18,-2044.16 1157.18,-2044.16 1163.18,-2044.16 1169.18,-2050.16 1169.18,-2056.16 1169.18,-2056.16 1169.18,-2085.16 1169.18,-2085.16 1169.18,-2091.16 1163.18,-2097.16 1157.18,-2097.16"/>
<text xml:space="preserve" text-anchor="middle" x="1102.3" y="-2079.86" font-family="Helvetica,sans-Serif" font-size="14.00">Analyze RL Results</text>
<text xml:space="preserve" text-anchor="middle" x="1102.3" y="-2064.86" font-family="Helvetica,sans-Serif" font-size="14.00">(agent)</text>
<text xml:space="preserve" text-anchor="middle" x="1102.3" y="-2049.86" font-family="Helvetica,sans-Serif" font-size="14.00">role: analyst</text>
</g>
<!-- run_rl_training&#45;&gt;analyze_rl -->
<g id="edge34" class="edge">
<title>run_rl_training&#45;&gt;analyze_rl</title>
<path fill="none" stroke="black" d="M1102.3,-2227.87C1102.3,-2186.15 1102.3,-2139.92 1102.3,-2108.65"/>
<polygon fill="black" stroke="black" points="1105.8,-2108.95 1102.3,-2098.95 1098.8,-2108.95 1105.8,-2108.95"/>
</g>
<!-- analyze_rl&#45;&gt;finalize_model -->
<g id="edge35" class="edge">
<title>analyze_rl&#45;&gt;finalize_model</title>
<path fill="none" stroke="black" d="M1102.3,-2043.98C1102.3,-1997.04 1102.3,-1894.22 1102.3,-1807.53 1102.3,-1807.53 1102.3,-1807.53 1102.3,-572 1102.3,-526.71 974,-504.52 885.21,-494.58"/>
<polygon fill="black" stroke="black" points="885.6,-491.1 875.28,-493.51 884.85,-498.06 885.6,-491.1"/>
</g>
<!-- save_model -->
<g id="node26" class="node">
<title>save_model</title>
<polygon fill="#e8f5e9" stroke="black" points="1088.96,-416.25 857.25,-416.25 797.64,-250.25 1029.36,-250.25 1088.96,-416.25"/>
<text xml:space="preserve" text-anchor="middle" x="943.3" y="-357.45" font-family="Helvetica,sans-Serif" font-size="14.00">Save Model Artifacts</text>
<text xml:space="preserve" text-anchor="middle" x="943.3" y="-342.45" font-family="Helvetica,sans-Serif" font-size="14.00">(compute)</text>
<text xml:space="preserve" text-anchor="middle" x="943.3" y="-327.45" font-family="Helvetica,sans-Serif" font-size="14.00">exec: in&#45;process</text>
<text xml:space="preserve" text-anchor="middle" x="943.3" y="-312.45" font-family="Helvetica,sans-Serif" font-size="14.00">blocked: [llm]</text>
<text xml:space="preserve" text-anchor="middle" x="943.3" y="-297.45" font-family="Helvetica,sans-Serif" font-size="14.00">timeout: 300s</text>
</g>
<!-- finalize_model&#45;&gt;save_model -->
<g id="edge36" class="edge">
<title>finalize_model&#45;&gt;save_model</title>
<path fill="none" stroke="black" d="M823.11,-463.18C832.97,-452.6 845.47,-439.19 858.66,-425.05"/>
<polygon fill="black" stroke="black" points="861.2,-427.45 865.46,-417.75 856.08,-422.68 861.2,-427.45"/>
<text xml:space="preserve" text-anchor="middle" x="856.16" y="-436" font-family="Helvetica,sans-Serif" font-size="10.00">fork</text>
</g>
<!-- generate_report -->
<g id="node27" class="node">
<title>generate_report</title>
<path fill="#e3f2fd" stroke="black" d="M868.43,-203C868.43,-203 724.18,-203 724.18,-203 718.18,-203 712.18,-197 712.18,-191 712.18,-191 712.18,-162 712.18,-162 712.18,-156 718.18,-150 724.18,-150 724.18,-150 868.43,-150 868.43,-150 874.43,-150 880.43,-156 880.43,-162 880.43,-162 880.43,-191 880.43,-191 880.43,-197 874.43,-203 868.43,-203"/>
<text xml:space="preserve" text-anchor="middle" x="796.3" y="-185.7" font-family="Helvetica,sans-Serif" font-size="14.00">Generate AutoML Report</text>
<text xml:space="preserve" text-anchor="middle" x="796.3" y="-170.7" font-family="Helvetica,sans-Serif" font-size="14.00">(agent)</text>
<text xml:space="preserve" text-anchor="middle" x="796.3" y="-155.7" font-family="Helvetica,sans-Serif" font-size="14.00">role: writer</text>
</g>
<!-- finalize_model&#45;&gt;generate_report -->
<g id="edge37" class="edge">
<title>finalize_model&#45;&gt;generate_report</title>
<path fill="none" stroke="black" d="M789.65,-463.22C782.89,-450.02 775.26,-432.7 771.8,-416.25 756.61,-344.05 759.87,-323.06 771.8,-250.25 773.79,-238.09 777.54,-225.23 781.52,-213.75"/>
<polygon fill="black" stroke="black" points="784.69,-215.26 784.83,-204.66 778.12,-212.86 784.69,-215.26"/>
<text xml:space="preserve" text-anchor="middle" x="780.05" y="-329.38" font-family="Helvetica,sans-Serif" font-size="10.00">fork</text>
</g>
<!-- complete -->
<g id="node28" class="node">
<title>complete</title>
<polygon fill="#eceff1" stroke="black" points="747.43,-113 621.18,-113 621.18,-75 747.43,-75 747.43,-113"/>
<text xml:space="preserve" text-anchor="middle" x="684.3" y="-95.7" font-family="Helvetica,sans-Serif" font-size="14.00">Pipeline Complete</text>
<text xml:space="preserve" text-anchor="middle" x="684.3" y="-80.7" font-family="Helvetica,sans-Serif" font-size="14.00">(transform)</text>
</g>
<!-- finalize_model&#45;&gt;complete -->
<g id="edge38" class="edge">
<title>finalize_model&#45;&gt;complete</title>
<path fill="none" stroke="black" d="M784.38,-463.07C774.91,-450.1 763.91,-433.07 757.3,-416.25 716.79,-313.12 695.79,-182.12 687.97,-124.48"/>
<polygon fill="black" stroke="black" points="691.47,-124.28 686.69,-114.83 684.53,-125.2 691.47,-124.28"/>
<text xml:space="preserve" text-anchor="middle" x="713.42" y="-222.75" font-family="Helvetica,sans-Serif" font-size="10.00">join</text>
</g>
<!-- save_model&#45;&gt;generate_report -->
<g id="edge39" class="edge">
<title>save_model&#45;&gt;generate_report</title>
<path fill="none" stroke="black" d="M865.07,-249.89C852.28,-236.43 839.69,-223.17 828.84,-211.76"/>
<polygon fill="black" stroke="black" points="831.38,-209.35 821.96,-204.51 826.31,-214.17 831.38,-209.35"/>
</g>
<!-- generate_report&#45;&gt;complete -->
<g id="edge40" class="edge">
<title>generate_report&#45;&gt;complete</title>
<path fill="none" stroke="black" d="M760.25,-149.59C747.07,-140.12 732.21,-129.43 719.14,-120.04"/>
<polygon fill="black" stroke="black" points="721.39,-117.35 711.22,-114.35 717.3,-123.03 721.39,-117.35"/>
</g>
<!-- complete&#45;&gt;complete_failed -->
<g id="edge41" class="edge">
<title>complete&#45;&gt;complete_failed</title>
<path fill="none" stroke="black" d="M627.52,-74.58C595.59,-64.22 555.65,-51.26 522.7,-40.57"/>
<polygon fill="black" stroke="black" points="523.85,-37.26 513.25,-37.5 521.68,-43.92 523.85,-37.26"/>
</g>
</g>
</svg>
