<?xml version="1.0" encoding="UTF-8" standalone="no"?>
<!DOCTYPE svg PUBLIC "-//W3C//DTD SVG 1.1//EN"
 "http://www.w3.org/Graphics/SVG/1.1/DTD/svg11.dtd">
<!-- Generated by graphviz version 14.0.4 (20251115.1723)
 -->
<!-- Title: workflow Pages: 1 -->
<svg width="394pt" height="407pt"
 viewBox="0.00 0.00 394.00 407.00" xmlns="http://www.w3.org/2000/svg" xmlns:xlink="http://www.w3.org/1999/xlink">
<g id="graph0" class="graph" transform="scale(1 1) rotate(0) translate(4 402.5)">
<title>workflow</title>
<polygon fill="white" stroke="none" points="-4,4 -4,-402.5 390.19,-402.5 390.19,4 -4,4"/>
<text xml:space="preserve" text-anchor="middle" x="193.1" y="-381.2" font-family="Times,serif" font-size="14.00">data_cleaning_quick</text>
<!-- quick_assess -->
<g id="node1" class="node">
<title>quick_assess</title>
<polygon fill="#e8f5e9" stroke="black" points="386.19,-374 79.02,-374 0,-178 307.17,-178 386.19,-374"/>
<text xml:space="preserve" text-anchor="middle" x="193.1" y="-307.7" font-family="Helvetica,sans-Serif" font-size="14.00">Quick Quality Assessment</text>
<text xml:space="preserve" text-anchor="middle" x="193.1" y="-292.7" font-family="Helvetica,sans-Serif" font-size="14.00">(compute)</text>
<text xml:space="preserve" text-anchor="middle" x="193.1" y="-277.7" font-family="Helvetica,sans-Serif" font-size="14.00">exec: in&#45;process</text>
<text xml:space="preserve" text-anchor="middle" x="193.1" y="-262.7" font-family="Helvetica,sans-Serif" font-size="14.00">handler: stats_compute</text>
<text xml:space="preserve" text-anchor="middle" x="193.1" y="-247.7" font-family="Helvetica,sans-Serif" font-size="14.00">blocked: [llm, network, write]</text>
<text xml:space="preserve" text-anchor="middle" x="193.1" y="-232.7" font-family="Helvetica,sans-Serif" font-size="14.00">timeout: 30s</text>
</g>
<!-- auto_clean -->
<g id="node2" class="node">
<title>auto_clean</title>
<path fill="#e3f2fd" stroke="black" d="M250.6,-142C250.6,-142 135.6,-142 135.6,-142 129.6,-142 123.6,-136 123.6,-130 123.6,-130 123.6,-101 123.6,-101 123.6,-95 129.6,-89 135.6,-89 135.6,-89 250.6,-89 250.6,-89 256.6,-89 262.6,-95 262.6,-101 262.6,-101 262.6,-130 262.6,-130 262.6,-136 256.6,-142 250.6,-142"/>
<text xml:space="preserve" text-anchor="middle" x="193.1" y="-124.7" font-family="Helvetica,sans-Serif" font-size="14.00">Automated Cleaning</text>
<text xml:space="preserve" text-anchor="middle" x="193.1" y="-109.7" font-family="Helvetica,sans-Serif" font-size="14.00">(agent)</text>
<text xml:space="preserve" text-anchor="middle" x="193.1" y="-94.7" font-family="Helvetica,sans-Serif" font-size="14.00">role: executor</text>
</g>
<!-- quick_assess&#45;&gt;auto_clean -->
<g id="edge1" class="edge">
<title>quick_assess&#45;&gt;auto_clean</title>
<path fill="none" stroke="black" d="M193.1,-177.78C193.1,-169.39 193.1,-161.28 193.1,-153.86"/>
<polygon fill="black" stroke="black" points="196.6,-153.97 193.1,-143.97 189.6,-153.97 196.6,-153.97"/>
</g>
<!-- quick_summary -->
<g id="node3" class="node">
<title>quick_summary</title>
<path fill="#e3f2fd" stroke="black" d="M238.22,-53C238.22,-53 147.97,-53 147.97,-53 141.97,-53 135.97,-47 135.97,-41 135.97,-41 135.97,-12 135.97,-12 135.97,-6 141.97,0 147.97,0 147.97,0 238.22,0 238.22,0 244.22,0 250.22,-6 250.22,-12 250.22,-12 250.22,-41 250.22,-41 250.22,-47 244.22,-53 238.22,-53"/>
<text xml:space="preserve" text-anchor="middle" x="193.1" y="-35.7" font-family="Helvetica,sans-Serif" font-size="14.00">Quick Summary</text>
<text xml:space="preserve" text-anchor="middle" x="193.1" y="-20.7" font-family="Helvetica,sans-Serif" font-size="14.00">(agent)</text>
<text xml:space="preserve" text-anchor="middle" x="193.1" y="-5.7" font-family="Helvetica,sans-Serif" font-size="14.00">role: writer</text>
</g>
<!-- auto_clean&#45;&gt;quick_summary -->
<g id="edge2" class="edge">
<title>auto_clean&#45;&gt;quick_summary</title>
<path fill="none" stroke="black" d="M193.1,-88.87C193.1,-81.24 193.1,-72.72 193.1,-64.51"/>
<polygon fill="black" stroke="black" points="196.6,-64.76 193.1,-54.76 189.6,-64.76 196.6,-64.76"/>
</g>
</g>
</svg>
