<?xml version="1.0" encoding="UTF-8" standalone="no"?>
<!DOCTYPE svg PUBLIC "-//W3C//DTD SVG 1.1//EN"
 "http://www.w3.org/Graphics/SVG/1.1/DTD/svg11.dtd">
<!-- Generated by graphviz version 14.0.4 (20251115.1723)
 -->
<!-- Title: workflow Pages: 1 -->
<svg width="420pt" height="1039pt"
 viewBox="0.00 0.00 420.00 1039.00" xmlns="http://www.w3.org/2000/svg" xmlns:xlink="http://www.w3.org/1999/xlink">
<g id="graph0" class="graph" transform="scale(1 1) rotate(0) translate(4 1035.2)">
<title>workflow</title>
<polygon fill="white" stroke="none" points="-4,4 -4,-1035.2 415.75,-1035.2 415.75,4 -4,4"/>
<text xml:space="preserve" text-anchor="middle" x="205.88" y="-1013.9" font-family="Times,serif" font-size="14.00">statistical_analysis</text>
<!-- formulate_hypotheses -->
<g id="node1" class="node">
<title>formulate_hypotheses</title>
<path fill="#e3f2fd" stroke="black" d="M298,-1006.7C298,-1006.7 169.5,-1006.7 169.5,-1006.7 163.5,-1006.7 157.5,-1000.7 157.5,-994.7 157.5,-994.7 157.5,-965.7 157.5,-965.7 157.5,-959.7 163.5,-953.7 169.5,-953.7 169.5,-953.7 298,-953.7 298,-953.7 304,-953.7 310,-959.7 310,-965.7 310,-965.7 310,-994.7 310,-994.7 310,-1000.7 304,-1006.7 298,-1006.7"/>
<text xml:space="preserve" text-anchor="middle" x="233.75" y="-989.4" font-family="Helvetica,sans-Serif" font-size="14.00">Formulate Hypotheses</text>
<text xml:space="preserve" text-anchor="middle" x="233.75" y="-974.4" font-family="Helvetica,sans-Serif" font-size="14.00">(agent)</text>
<text xml:space="preserve" text-anchor="middle" x="233.75" y="-959.4" font-family="Helvetica,sans-Serif" font-size="14.00">role: researcher</text>
</g>
<!-- prepare_data -->
<g id="node2" class="node">
<title>prepare_data</title>
<polygon fill="#f3e5f5" stroke="black" points="318.62,-912.7 148.88,-912.7 148.88,-874.7 318.62,-874.7 318.62,-912.7"/>
<polygon fill="none" stroke="black" points="322.62,-916.7 144.88,-916.7 144.88,-870.7 322.62,-870.7 322.62,-916.7"/>
<text xml:space="preserve" text-anchor="middle" x="233.75" y="-895.4" font-family="Helvetica,sans-Serif" font-size="14.00">Prepare Data for Analysis</text>
<text xml:space="preserve" text-anchor="middle" x="233.75" y="-880.4" font-family="Helvetica,sans-Serif" font-size="14.00">(parallel)</text>
</g>
<!-- formulate_hypotheses&#45;&gt;prepare_data -->
<g id="edge1" class="edge">
<title>formulate_hypotheses&#45;&gt;prepare_data</title>
<path fill="none" stroke="black" d="M233.75,-953.39C233.75,-945.47 233.75,-936.64 233.75,-928.29"/>
<polygon fill="black" stroke="black" points="237.25,-928.45 233.75,-918.45 230.25,-928.45 237.25,-928.45"/>
</g>
<!-- check_assumptions -->
<g id="node3" class="node">
<title>check_assumptions</title>
<path fill="#e3f2fd" stroke="black" d="M185.5,-823.45C185.5,-823.45 12,-823.45 12,-823.45 6,-823.45 0,-817.45 0,-811.45 0,-811.45 0,-782.45 0,-782.45 0,-776.45 6,-770.45 12,-770.45 12,-770.45 185.5,-770.45 185.5,-770.45 191.5,-770.45 197.5,-776.45 197.5,-782.45 197.5,-782.45 197.5,-811.45 197.5,-811.45 197.5,-817.45 191.5,-823.45 185.5,-823.45"/>
<text xml:space="preserve" text-anchor="middle" x="98.75" y="-806.15" font-family="Helvetica,sans-Serif" font-size="14.00">Check Statistical Assumptions</text>
<text xml:space="preserve" text-anchor="middle" x="98.75" y="-791.15" font-family="Helvetica,sans-Serif" font-size="14.00">(agent)</text>
<text xml:space="preserve" text-anchor="middle" x="98.75" y="-776.15" font-family="Helvetica,sans-Serif" font-size="14.00">role: analyst</text>
</g>
<!-- prepare_data&#45;&gt;check_assumptions -->
<g id="edge2" class="edge">
<title>prepare_data&#45;&gt;check_assumptions</title>
<path fill="none" stroke="black" d="M201.76,-870.25C184.81,-858.36 163.7,-843.54 145.01,-830.42"/>
<polygon fill="black" stroke="black" points="147.21,-827.69 137.01,-824.81 143.18,-833.42 147.21,-827.69"/>
<text xml:space="preserve" text-anchor="middle" x="182.58" y="-843.2" font-family="Helvetica,sans-Serif" font-size="10.00">fork</text>
</g>
<!-- prepare_variables -->
<g id="node4" class="node">
<title>prepare_variables</title>
<path fill="#e3f2fd" stroke="black" d="M238.75,-723.2C238.75,-723.2 138.75,-723.2 138.75,-723.2 132.75,-723.2 126.75,-717.2 126.75,-711.2 126.75,-711.2 126.75,-682.2 126.75,-682.2 126.75,-676.2 132.75,-670.2 138.75,-670.2 138.75,-670.2 238.75,-670.2 238.75,-670.2 244.75,-670.2 250.75,-676.2 250.75,-682.2 250.75,-682.2 250.75,-711.2 250.75,-711.2 250.75,-717.2 244.75,-723.2 238.75,-723.2"/>
<text xml:space="preserve" text-anchor="middle" x="188.75" y="-705.9" font-family="Helvetica,sans-Serif" font-size="14.00">Prepare Variables</text>
<text xml:space="preserve" text-anchor="middle" x="188.75" y="-690.9" font-family="Helvetica,sans-Serif" font-size="14.00">(agent)</text>
<text xml:space="preserve" text-anchor="middle" x="188.75" y="-675.9" font-family="Helvetica,sans-Serif" font-size="14.00">role: executor</text>
</g>
<!-- prepare_data&#45;&gt;prepare_variables -->
<g id="edge3" class="edge">
<title>prepare_data&#45;&gt;prepare_variables</title>
<path fill="none" stroke="black" d="M229.04,-870.58C223.78,-846.06 214.92,-805.37 206.75,-770.45 204.01,-758.77 200.91,-746.06 198.06,-734.58"/>
<polygon fill="black" stroke="black" points="201.51,-733.91 195.69,-725.06 194.71,-735.61 201.51,-733.91"/>
<text xml:space="preserve" text-anchor="middle" x="226.83" y="-793.08" font-family="Helvetica,sans-Serif" font-size="10.00">fork</text>
</g>
<!-- assumption_check -->
<g id="node5" class="node">
<title>assumption_check</title>
<polygon fill="#fff3e0" stroke="black" points="233.75,-633.2 55.75,-595.2 233.75,-557.2 411.75,-595.2 233.75,-633.2"/>
<text xml:space="preserve" text-anchor="middle" x="233.75" y="-596.9" font-family="Helvetica,sans-Serif" font-size="14.00">Check Assumption Results</text>
<text xml:space="preserve" text-anchor="middle" x="233.75" y="-581.9" font-family="Helvetica,sans-Serif" font-size="14.00">(condition)</text>
</g>
<!-- prepare_data&#45;&gt;assumption_check -->
<g id="edge4" class="edge">
<title>prepare_data&#45;&gt;assumption_check</title>
<path fill="none" stroke="black" d="M240.52,-870.49C251.83,-830.32 272.17,-743.04 259.75,-670.2 258.1,-660.56 255.33,-650.49 252.2,-641.01"/>
<polygon fill="black" stroke="black" points="255.52,-639.9 248.9,-631.62 248.91,-642.22 255.52,-639.9"/>
<text xml:space="preserve" text-anchor="middle" x="270.46" y="-742.95" font-family="Helvetica,sans-Serif" font-size="10.00">join</text>
</g>
<!-- check_assumptions&#45;&gt;prepare_variables -->
<g id="edge5" class="edge">
<title>check_assumptions&#45;&gt;prepare_variables</title>
<path fill="none" stroke="black" d="M122.4,-770.14C133.06,-758.5 145.81,-744.58 157.26,-732.08"/>
<polygon fill="black" stroke="black" points="159.75,-734.54 163.93,-724.8 154.59,-729.81 159.75,-734.54"/>
</g>
<!-- prepare_variables&#45;&gt;assumption_check -->
<g id="edge6" class="edge">
<title>prepare_variables&#45;&gt;assumption_check</title>
<path fill="none" stroke="black" d="M200.46,-669.82C204.51,-660.85 209.19,-650.51 213.72,-640.48"/>
<polygon fill="black" stroke="black" points="216.82,-642.14 217.75,-631.58 210.44,-639.25 216.82,-642.14"/>
</g>
<!-- suggest_alternatives -->
<g id="node6" class="node">
<title>suggest_alternatives</title>
<path fill="#e3f2fd" stroke="black" d="M185.88,-509.95C185.88,-509.95 41.62,-509.95 41.62,-509.95 35.62,-509.95 29.62,-503.95 29.62,-497.95 29.62,-497.95 29.62,-468.95 29.62,-468.95 29.62,-462.95 35.62,-456.95 41.62,-456.95 41.62,-456.95 185.88,-456.95 185.88,-456.95 191.88,-456.95 197.88,-462.95 197.88,-468.95 197.88,-468.95 197.88,-497.95 197.88,-497.95 197.88,-503.95 191.88,-509.95 185.88,-509.95"/>
<text xml:space="preserve" text-anchor="middle" x="113.75" y="-492.65" font-family="Helvetica,sans-Serif" font-size="14.00">Suggest Alternative Tests</text>
<text xml:space="preserve" text-anchor="middle" x="113.75" y="-477.65" font-family="Helvetica,sans-Serif" font-size="14.00">(agent)</text>
<text xml:space="preserve" text-anchor="middle" x="113.75" y="-462.65" font-family="Helvetica,sans-Serif" font-size="14.00">role: analyst</text>
</g>
<!-- assumption_check&#45;&gt;suggest_alternatives -->
<g id="edge8" class="edge">
<title>assumption_check&#45;&gt;suggest_alternatives</title>
<path fill="none" stroke="black" stroke-dasharray="5,2" d="M200.64,-563.92C184.93,-549.55 166.11,-532.34 150.01,-517.62"/>
<polygon fill="black" stroke="black" points="152.73,-515.36 142.99,-511.19 148.01,-520.53 152.73,-515.36"/>
<text xml:space="preserve" text-anchor="middle" x="180.65" y="-529.7" font-family="Helvetica,sans-Serif" font-size="10.00">false</text>
</g>
<!-- run_tests -->
<g id="node7" class="node">
<title>run_tests</title>
<path fill="#e3f2fd" stroke="black" d="M302.5,-419.95C302.5,-419.95 165,-419.95 165,-419.95 159,-419.95 153,-413.95 153,-407.95 153,-407.95 153,-378.95 153,-378.95 153,-372.95 159,-366.95 165,-366.95 165,-366.95 302.5,-366.95 302.5,-366.95 308.5,-366.95 314.5,-372.95 314.5,-378.95 314.5,-378.95 314.5,-407.95 314.5,-407.95 314.5,-413.95 308.5,-419.95 302.5,-419.95"/>
<text xml:space="preserve" text-anchor="middle" x="233.75" y="-402.65" font-family="Helvetica,sans-Serif" font-size="14.00">Execute Statistical Tests</text>
<text xml:space="preserve" text-anchor="middle" x="233.75" y="-387.65" font-family="Helvetica,sans-Serif" font-size="14.00">(agent)</text>
<text xml:space="preserve" text-anchor="middle" x="233.75" y="-372.65" font-family="Helvetica,sans-Serif" font-size="14.00">role: executor</text>
</g>
<!-- assumption_check&#45;&gt;run_tests -->
<g id="edge7" class="edge">
<title>assumption_check&#45;&gt;run_tests</title>
<path fill="none" stroke="black" stroke-dasharray="5,2" d="M233.75,-557.1C233.75,-521.32 233.75,-467.46 233.75,-431.65"/>
<polygon fill="black" stroke="black" points="237.25,-431.76 233.75,-421.76 230.25,-431.76 237.25,-431.76"/>
<text xml:space="preserve" text-anchor="middle" x="242" y="-479.58" font-family="Helvetica,sans-Serif" font-size="10.00">true</text>
</g>
<!-- assumption_check&#45;&gt;run_tests -->
<g id="edge9" class="edge">
<title>assumption_check&#45;&gt;run_tests</title>
<path fill="none" stroke="black" stroke-dasharray="5,2" d="M245.2,-559.2C252.8,-531.44 260.43,-491.69 254.75,-456.95 253.35,-448.39 250.94,-439.42 248.24,-431.03"/>
<polygon fill="black" stroke="black" points="251.64,-430.17 245.07,-421.86 245.02,-432.46 251.64,-430.17"/>
<text xml:space="preserve" text-anchor="middle" x="271.35" y="-479.58" font-family="Helvetica,sans-Serif" font-size="10.00">default</text>
</g>
<!-- suggest_alternatives&#45;&gt;run_tests -->
<g id="edge10" class="edge">
<title>suggest_alternatives&#45;&gt;run_tests</title>
<path fill="none" stroke="black" d="M149.1,-456.53C161.8,-447.22 176.28,-436.6 189.62,-426.81"/>
<polygon fill="black" stroke="black" points="191.43,-429.83 197.43,-421.09 187.29,-424.18 191.43,-429.83"/>
</g>
<!-- interpret_results -->
<g id="node8" class="node">
<title>interpret_results</title>
<path fill="#e3f2fd" stroke="black" d="M279.25,-329.95C279.25,-329.95 188.25,-329.95 188.25,-329.95 182.25,-329.95 176.25,-323.95 176.25,-317.95 176.25,-317.95 176.25,-288.95 176.25,-288.95 176.25,-282.95 182.25,-276.95 188.25,-276.95 188.25,-276.95 279.25,-276.95 279.25,-276.95 285.25,-276.95 291.25,-282.95 291.25,-288.95 291.25,-288.95 291.25,-317.95 291.25,-317.95 291.25,-323.95 285.25,-329.95 279.25,-329.95"/>
<text xml:space="preserve" text-anchor="middle" x="233.75" y="-312.65" font-family="Helvetica,sans-Serif" font-size="14.00">Interpret Results</text>
<text xml:space="preserve" text-anchor="middle" x="233.75" y="-297.65" font-family="Helvetica,sans-Serif" font-size="14.00">(agent)</text>
<text xml:space="preserve" text-anchor="middle" x="233.75" y="-282.65" font-family="Helvetica,sans-Serif" font-size="14.00">role: analyst</text>
</g>
<!-- run_tests&#45;&gt;interpret_results -->
<g id="edge11" class="edge">
<title>run_tests&#45;&gt;interpret_results</title>
<path fill="none" stroke="black" d="M233.75,-366.53C233.75,-358.74 233.75,-350.04 233.75,-341.67"/>
<polygon fill="black" stroke="black" points="237.25,-341.71 233.75,-331.71 230.25,-341.71 237.25,-341.71"/>
</g>
<!-- review_gate -->
<g id="node9" class="node">
<title>review_gate</title>
<ellipse fill="#ffebee" stroke="black" cx="233.75" cy="-202.48" rx="86.09" ry="37.48"/>
<text xml:space="preserve" text-anchor="middle" x="233.75" y="-211.68" font-family="Helvetica,sans-Serif" font-size="14.00">Statistical Review</text>
<text xml:space="preserve" text-anchor="middle" x="233.75" y="-196.68" font-family="Helvetica,sans-Serif" font-size="14.00">(hitl)</text>
<text xml:space="preserve" text-anchor="middle" x="233.75" y="-181.68" font-family="Helvetica,sans-Serif" font-size="14.00">timeout: 900s</text>
</g>
<!-- interpret_results&#45;&gt;review_gate -->
<g id="edge12" class="edge">
<title>interpret_results&#45;&gt;review_gate</title>
<path fill="none" stroke="black" d="M233.75,-276.71C233.75,-268.98 233.75,-260.24 233.75,-251.56"/>
<polygon fill="black" stroke="black" points="237.25,-251.79 233.75,-241.79 230.25,-251.79 237.25,-251.79"/>
</g>
<!-- generate_report -->
<g id="node10" class="node">
<title>generate_report</title>
<path fill="#e3f2fd" stroke="black" d="M311.12,-128C311.12,-128 156.38,-128 156.38,-128 150.38,-128 144.38,-122 144.38,-116 144.38,-116 144.38,-87 144.38,-87 144.38,-81 150.38,-75 156.38,-75 156.38,-75 311.12,-75 311.12,-75 317.12,-75 323.12,-81 323.12,-87 323.12,-87 323.12,-116 323.12,-116 323.12,-122 317.12,-128 311.12,-128"/>
<text xml:space="preserve" text-anchor="middle" x="233.75" y="-110.7" font-family="Helvetica,sans-Serif" font-size="14.00">Generate Statistical Report</text>
<text xml:space="preserve" text-anchor="middle" x="233.75" y="-95.7" font-family="Helvetica,sans-Serif" font-size="14.00">(agent)</text>
<text xml:space="preserve" text-anchor="middle" x="233.75" y="-80.7" font-family="Helvetica,sans-Serif" font-size="14.00">role: writer</text>
</g>
<!-- review_gate&#45;&gt;generate_report -->
<g id="edge13" class="edge">
<title>review_gate&#45;&gt;generate_report</title>
<path fill="none" stroke="black" d="M233.75,-164.62C233.75,-156.5 233.75,-147.89 233.75,-139.75"/>
<polygon fill="black" stroke="black" points="237.25,-139.78 233.75,-129.78 230.25,-139.78 237.25,-139.78"/>
</g>
<!-- complete -->
<g id="node11" class="node">
<title>complete</title>
<polygon fill="#eceff1" stroke="black" points="298,-38 169.5,-38 169.5,0 298,0 298,-38"/>
<text xml:space="preserve" text-anchor="middle" x="233.75" y="-20.7" font-family="Helvetica,sans-Serif" font-size="14.00">Analysis Complete</text>
<text xml:space="preserve" text-anchor="middle" x="233.75" y="-5.7" font-family="Helvetica,sans-Serif" font-size="14.00">(transform)</text>
</g>
<!-- generate_report&#45;&gt;complete -->
<g id="edge14" class="edge">
<title>generate_report&#45;&gt;complete</title>
<path fill="none" stroke="black" d="M233.75,-74.59C233.75,-66.68 233.75,-57.93 233.75,-49.79"/>
<polygon fill="black" stroke="black" points="237.25,-49.98 233.75,-39.98 230.25,-49.98 237.25,-49.98"/>
</g>
</g>
</svg>
