<?xml version="1.0" encoding="UTF-8" standalone="no"?>
<!DOCTYPE svg PUBLIC "-//W3C//DTD SVG 1.1//EN"
 "http://www.w3.org/Graphics/SVG/1.1/DTD/svg11.dtd">
<!-- Generated by graphviz version 14.0.4 (20251115.1723)
 -->
<!-- Title: workflow Pages: 1 -->
<svg width="281pt" height="692pt"
 viewBox="0.00 0.00 281.00 692.00" xmlns="http://www.w3.org/2000/svg" xmlns:xlink="http://www.w3.org/1999/xlink">
<g id="graph0" class="graph" transform="scale(1 1) rotate(0) translate(4 687.5)">
<title>workflow</title>
<polygon fill="white" stroke="none" points="-4,4 -4,-687.5 276.67,-687.5 276.67,4 -4,4"/>
<text xml:space="preserve" text-anchor="middle" x="136.33" y="-666.2" font-family="Times,serif" font-size="14.00">ml_quick</text>
<!-- load -->
<g id="node1" class="node">
<title>load</title>
<polygon fill="#e8f5e9" stroke="black" points="272.67,-659 55.79,-659 0,-493 216.88,-493 272.67,-659"/>
<text xml:space="preserve" text-anchor="middle" x="136.33" y="-600.2" font-family="Helvetica,sans-Serif" font-size="14.00">load</text>
<text xml:space="preserve" text-anchor="middle" x="136.33" y="-585.2" font-family="Helvetica,sans-Serif" font-size="14.00">(compute)</text>
<text xml:space="preserve" text-anchor="middle" x="136.33" y="-570.2" font-family="Helvetica,sans-Serif" font-size="14.00">exec: in&#45;process</text>
<text xml:space="preserve" text-anchor="middle" x="136.33" y="-555.2" font-family="Helvetica,sans-Serif" font-size="14.00">blocked: [llm, write]</text>
<text xml:space="preserve" text-anchor="middle" x="136.33" y="-540.2" font-family="Helvetica,sans-Serif" font-size="14.00">timeout: 30s</text>
</g>
<!-- quick_train -->
<g id="node2" class="node">
<title>quick_train</title>
<polygon fill="#e8f5e9" stroke="black" points="272.67,-457 55.79,-457 0,-291 216.88,-291 272.67,-457"/>
<text xml:space="preserve" text-anchor="middle" x="136.33" y="-398.2" font-family="Helvetica,sans-Serif" font-size="14.00">Train Quick Model</text>
<text xml:space="preserve" text-anchor="middle" x="136.33" y="-383.2" font-family="Helvetica,sans-Serif" font-size="14.00">(compute)</text>
<text xml:space="preserve" text-anchor="middle" x="136.33" y="-368.2" font-family="Helvetica,sans-Serif" font-size="14.00">exec: in&#45;process</text>
<text xml:space="preserve" text-anchor="middle" x="136.33" y="-353.2" font-family="Helvetica,sans-Serif" font-size="14.00">blocked: [llm, write]</text>
<text xml:space="preserve" text-anchor="middle" x="136.33" y="-338.2" font-family="Helvetica,sans-Serif" font-size="14.00">timeout: 180s</text>
</g>
<!-- load&#45;&gt;quick_train -->
<g id="edge1" class="edge">
<title>load&#45;&gt;quick_train</title>
<path fill="none" stroke="black" d="M136.33,-492.79C136.33,-484.8 136.33,-476.67 136.33,-468.58"/>
<polygon fill="black" stroke="black" points="139.83,-468.73 136.33,-458.73 132.83,-468.73 139.83,-468.73"/>
</g>
<!-- quick_eval -->
<g id="node3" class="node">
<title>quick_eval</title>
<polygon fill="#e8f5e9" stroke="black" points="272.67,-255 55.79,-255 0,-89 216.88,-89 272.67,-255"/>
<text xml:space="preserve" text-anchor="middle" x="136.33" y="-196.2" font-family="Helvetica,sans-Serif" font-size="14.00">Quick Evaluation</text>
<text xml:space="preserve" text-anchor="middle" x="136.33" y="-181.2" font-family="Helvetica,sans-Serif" font-size="14.00">(compute)</text>
<text xml:space="preserve" text-anchor="middle" x="136.33" y="-166.2" font-family="Helvetica,sans-Serif" font-size="14.00">exec: in&#45;process</text>
<text xml:space="preserve" text-anchor="middle" x="136.33" y="-151.2" font-family="Helvetica,sans-Serif" font-size="14.00">blocked: [llm, write]</text>
<text xml:space="preserve" text-anchor="middle" x="136.33" y="-136.2" font-family="Helvetica,sans-Serif" font-size="14.00">timeout: 60s</text>
</g>
<!-- quick_train&#45;&gt;quick_eval -->
<g id="edge2" class="edge">
<title>quick_train&#45;&gt;quick_eval</title>
<path fill="none" stroke="black" d="M136.33,-290.79C136.33,-282.8 136.33,-274.67 136.33,-266.58"/>
<polygon fill="black" stroke="black" points="139.83,-266.73 136.33,-256.73 132.83,-266.73 139.83,-266.73"/>
</g>
<!-- summary -->
<g id="node4" class="node">
<title>summary</title>
<path fill="#e3f2fd" stroke="black" d="M181.46,-53C181.46,-53 91.21,-53 91.21,-53 85.21,-53 79.21,-47 79.21,-41 79.21,-41 79.21,-12 79.21,-12 79.21,-6 85.21,0 91.21,0 91.21,0 181.46,0 181.46,0 187.46,0 193.46,-6 193.46,-12 193.46,-12 193.46,-41 193.46,-41 193.46,-47 187.46,-53 181.46,-53"/>
<text xml:space="preserve" text-anchor="middle" x="136.33" y="-35.7" font-family="Helvetica,sans-Serif" font-size="14.00">Quick Summary</text>
<text xml:space="preserve" text-anchor="middle" x="136.33" y="-20.7" font-family="Helvetica,sans-Serif" font-size="14.00">(agent)</text>
<text xml:space="preserve" text-anchor="middle" x="136.33" y="-5.7" font-family="Helvetica,sans-Serif" font-size="14.00">role: analyst</text>
</g>
<!-- quick_eval&#45;&gt;summary -->
<g id="edge3" class="edge">
<title>quick_eval&#45;&gt;summary</title>
<path fill="none" stroke="black" d="M136.33,-88.77C136.33,-80.49 136.33,-72.4 136.33,-64.95"/>
<polygon fill="black" stroke="black" points="139.83,-64.99 136.33,-54.99 132.83,-64.99 139.83,-64.99"/>
</g>
</g>
</svg>
