<?xml version="1.0" encoding="UTF-8" standalone="no"?>
<!DOCTYPE svg PUBLIC "-//W3C//DTD SVG 1.1//EN"
 "http://www.w3.org/Graphics/SVG/1.1/DTD/svg11.dtd">
<!-- Generated by graphviz version 14.0.4 (20251115.1723)
 -->
<!-- Title: workflow Pages: 1 -->
<svg width="909pt" height="3985pt"
 viewBox="0.00 0.00 909.00 3985.00" xmlns="http://www.w3.org/2000/svg" xmlns:xlink="http://www.w3.org/1999/xlink">
<g id="graph0" class="graph" transform="scale(1 1) rotate(0) translate(4 3981.16)">
<title>workflow</title>
<polygon fill="white" stroke="none" points="-4,4 -4,-3981.16 904.97,-3981.16 904.97,4 -4,4"/>
<text xml:space="preserve" text-anchor="middle" x="450.49" y="-3959.86" font-family="Times,serif" font-size="14.00">eda_pipeline</text>
<!-- load_data -->
<g id="node1" class="node">
<title>load_data</title>
<polygon fill="#e8f5e9" stroke="black" points="575.97,-3952.66 268.8,-3952.66 189.78,-3786.66 496.95,-3786.66 575.97,-3952.66"/>
<text xml:space="preserve" text-anchor="middle" x="382.88" y="-3893.86" font-family="Helvetica,sans-Serif" font-size="14.00">Load Dataset</text>
<text xml:space="preserve" text-anchor="middle" x="382.88" y="-3878.86" font-family="Helvetica,sans-Serif" font-size="14.00">(compute)</text>
<text xml:space="preserve" text-anchor="middle" x="382.88" y="-3863.86" font-family="Helvetica,sans-Serif" font-size="14.00">exec: in&#45;process</text>
<text xml:space="preserve" text-anchor="middle" x="382.88" y="-3848.86" font-family="Helvetica,sans-Serif" font-size="14.00">blocked: [llm, network, write]</text>
<text xml:space="preserve" text-anchor="middle" x="382.88" y="-3833.86" font-family="Helvetica,sans-Serif" font-size="14.00">timeout: 30s</text>
</g>
<!-- validate -->
<g id="node2" class="node">
<title>validate</title>
<polygon fill="#e8f5e9" stroke="black" points="575.97,-3749.66 268.8,-3749.66 189.78,-3553.66 496.95,-3553.66 575.97,-3749.66"/>
<text xml:space="preserve" text-anchor="middle" x="382.88" y="-3683.36" font-family="Helvetica,sans-Serif" font-size="14.00">Validate Data Quality</text>
<text xml:space="preserve" text-anchor="middle" x="382.88" y="-3668.36" font-family="Helvetica,sans-Serif" font-size="14.00">(compute)</text>
<text xml:space="preserve" text-anchor="middle" x="382.88" y="-3653.36" font-family="Helvetica,sans-Serif" font-size="14.00">exec: in&#45;process</text>
<text xml:space="preserve" text-anchor="middle" x="382.88" y="-3638.36" font-family="Helvetica,sans-Serif" font-size="14.00">handler: data_transform</text>
<text xml:space="preserve" text-anchor="middle" x="382.88" y="-3623.36" font-family="Helvetica,sans-Serif" font-size="14.00">blocked: [llm, network, write]</text>
<text xml:space="preserve" text-anchor="middle" x="382.88" y="-3608.36" font-family="Helvetica,sans-Serif" font-size="14.00">timeout: 60s</text>
</g>
<!-- load_data&#45;&gt;validate -->
<g id="edge1" class="edge">
<title>load_data&#45;&gt;validate</title>
<path fill="none" stroke="black" d="M382.88,-3786.38C382.88,-3778.18 382.88,-3769.78 382.88,-3761.37"/>
<polygon fill="black" stroke="black" points="386.38,-3761.42 382.88,-3751.42 379.38,-3761.42 386.38,-3761.42"/>
</g>
<!-- check_quality -->
<g id="node3" class="node">
<title>check_quality</title>
<polygon fill="#fff3e0" stroke="black" points="382.88,-3516.66 249.88,-3478.66 382.87,-3440.66 515.88,-3478.66 382.88,-3516.66"/>
<text xml:space="preserve" text-anchor="middle" x="382.88" y="-3480.36" font-family="Helvetica,sans-Serif" font-size="14.00">Check Data Quality</text>
<text xml:space="preserve" text-anchor="middle" x="382.88" y="-3465.36" font-family="Helvetica,sans-Serif" font-size="14.00">(condition)</text>
</g>
<!-- validate&#45;&gt;check_quality -->
<g id="edge2" class="edge">
<title>validate&#45;&gt;check_quality</title>
<path fill="none" stroke="black" d="M382.88,-3553.17C382.88,-3544.7 382.88,-3536.39 382.88,-3528.59"/>
<polygon fill="black" stroke="black" points="386.38,-3528.68 382.88,-3518.68 379.38,-3528.68 386.38,-3528.68"/>
</g>
<!-- data_cleanup -->
<g id="node4" class="node">
<title>data_cleanup</title>
<path fill="#e3f2fd" stroke="black" d="M674,-3393.41C674,-3393.41 571.75,-3393.41 571.75,-3393.41 565.75,-3393.41 559.75,-3387.41 559.75,-3381.41 559.75,-3381.41 559.75,-3352.41 559.75,-3352.41 559.75,-3346.41 565.75,-3340.41 571.75,-3340.41 571.75,-3340.41 674,-3340.41 674,-3340.41 680,-3340.41 686,-3346.41 686,-3352.41 686,-3352.41 686,-3381.41 686,-3381.41 686,-3387.41 680,-3393.41 674,-3393.41"/>
<text xml:space="preserve" text-anchor="middle" x="622.88" y="-3376.11" font-family="Helvetica,sans-Serif" font-size="14.00">Clean Data Issues</text>
<text xml:space="preserve" text-anchor="middle" x="622.88" y="-3361.11" font-family="Helvetica,sans-Serif" font-size="14.00">(agent)</text>
<text xml:space="preserve" text-anchor="middle" x="622.88" y="-3346.11" font-family="Helvetica,sans-Serif" font-size="14.00">role: executor</text>
</g>
<!-- check_quality&#45;&gt;data_cleanup -->
<g id="edge4" class="edge">
<title>check_quality&#45;&gt;data_cleanup</title>
<path fill="none" stroke="black" stroke-dasharray="5,2" d="M433.19,-3454.65C468.89,-3438.32 517.2,-3416.23 556.13,-3398.43"/>
<polygon fill="black" stroke="black" points="557.31,-3401.74 564.95,-3394.4 554.4,-3395.37 557.31,-3401.74"/>
<text xml:space="preserve" text-anchor="middle" x="534.87" y="-3413.16" font-family="Helvetica,sans-Serif" font-size="10.00">false</text>
</g>
<!-- parallel_stats -->
<g id="node7" class="node">
<title>parallel_stats</title>
<polygon fill="#f3e5f5" stroke="black" points="530,-2943.16 337.75,-2943.16 337.75,-2905.16 530,-2905.16 530,-2943.16"/>
<polygon fill="none" stroke="black" points="534,-2947.16 333.75,-2947.16 333.75,-2901.16 534,-2901.16 534,-2947.16"/>
<text xml:space="preserve" text-anchor="middle" x="433.88" y="-2925.86" font-family="Helvetica,sans-Serif" font-size="14.00">Compute Statistics in Parallel</text>
<text xml:space="preserve" text-anchor="middle" x="433.88" y="-2910.86" font-family="Helvetica,sans-Serif" font-size="14.00">(parallel)</text>
</g>
<!-- check_quality&#45;&gt;parallel_stats -->
<g id="edge3" class="edge">
<title>check_quality&#45;&gt;parallel_stats</title>
<path fill="none" stroke="black" stroke-dasharray="5,2" d="M359.17,-3447.35C345.05,-3426.29 329.88,-3396.89 329.88,-3367.91 329.88,-3367.91 329.88,-3367.91 329.88,-3031.41 329.88,-2998.65 355.44,-2972.26 381.21,-2953.97"/>
<polygon fill="black" stroke="black" points="383.08,-2956.93 389.42,-2948.45 379.17,-2951.13 383.08,-2956.93"/>
<text xml:space="preserve" text-anchor="middle" x="338.12" y="-3201.53" font-family="Helvetica,sans-Serif" font-size="10.00">true</text>
</g>
<!-- check_quality&#45;&gt;parallel_stats -->
<g id="edge5" class="edge">
<title>check_quality&#45;&gt;parallel_stats</title>
<path fill="none" stroke="black" stroke-dasharray="5,2" d="M382.88,-3440.32C382.88,-3419.09 382.88,-3392.01 382.88,-3367.91 382.88,-3367.91 382.88,-3367.91 382.88,-3031.41 382.88,-3004.33 396.51,-2976.85 409.67,-2956.62"/>
<polygon fill="black" stroke="black" points="412.43,-2958.79 415.18,-2948.56 406.65,-2954.84 412.43,-2958.79"/>
<text xml:space="preserve" text-anchor="middle" x="397.5" y="-3201.53" font-family="Helvetica,sans-Serif" font-size="10.00">default</text>
</g>
<!-- validate_cleanup -->
<g id="node5" class="node">
<title>validate_cleanup</title>
<polygon fill="#e8f5e9" stroke="black" points="815.97,-3303.41 508.8,-3303.41 429.78,-3107.41 736.95,-3107.41 815.97,-3303.41"/>
<text xml:space="preserve" text-anchor="middle" x="622.88" y="-3237.11" font-family="Helvetica,sans-Serif" font-size="14.00">Re&#45;validate Cleaned Data</text>
<text xml:space="preserve" text-anchor="middle" x="622.88" y="-3222.11" font-family="Helvetica,sans-Serif" font-size="14.00">(compute)</text>
<text xml:space="preserve" text-anchor="middle" x="622.88" y="-3207.11" font-family="Helvetica,sans-Serif" font-size="14.00">exec: in&#45;process</text>
<text xml:space="preserve" text-anchor="middle" x="622.88" y="-3192.11" font-family="Helvetica,sans-Serif" font-size="14.00">handler: data_transform</text>
<text xml:space="preserve" text-anchor="middle" x="622.88" y="-3177.11" font-family="Helvetica,sans-Serif" font-size="14.00">blocked: [llm, network, write]</text>
<text xml:space="preserve" text-anchor="middle" x="622.88" y="-3162.11" font-family="Helvetica,sans-Serif" font-size="14.00">timeout: 30s</text>
</g>
<!-- data_cleanup&#45;&gt;validate_cleanup -->
<g id="edge6" class="edge">
<title>data_cleanup&#45;&gt;validate_cleanup</title>
<path fill="none" stroke="black" d="M622.88,-3339.93C622.88,-3332.58 622.88,-3324.1 622.88,-3315.05"/>
<polygon fill="black" stroke="black" points="626.38,-3315.27 622.88,-3305.27 619.38,-3315.27 626.38,-3315.27"/>
</g>
<!-- cleanup_loop_check -->
<g id="node6" class="node">
<title>cleanup_loop_check</title>
<polygon fill="#fff3e0" stroke="black" points="597.88,-3070.41 434.88,-3032.41 597.87,-2994.41 760.88,-3032.41 597.88,-3070.41"/>
<text xml:space="preserve" text-anchor="middle" x="597.88" y="-3034.11" font-family="Helvetica,sans-Serif" font-size="14.00">Check Cleanup Success</text>
<text xml:space="preserve" text-anchor="middle" x="597.88" y="-3019.11" font-family="Helvetica,sans-Serif" font-size="14.00">(condition)</text>
</g>
<!-- validate_cleanup&#45;&gt;cleanup_loop_check -->
<g id="edge7" class="edge">
<title>validate_cleanup&#45;&gt;cleanup_loop_check</title>
<path fill="none" stroke="black" d="M608.62,-3106.92C607.3,-3097.84 606,-3088.95 604.78,-3080.67"/>
<polygon fill="black" stroke="black" points="608.27,-3080.28 603.36,-3070.89 601.34,-3081.3 608.27,-3080.28"/>
</g>
<!-- cleanup_loop_check&#45;&gt;data_cleanup -->
<g id="edge8" class="edge">
<title>cleanup_loop_check&#45;&gt;data_cleanup</title>
<path fill="none" stroke="black" stroke-dasharray="5,2" d="M714.95,-3043.51C756.53,-3053.4 799.31,-3072.18 824.88,-3107.41 876.04,-3177.91 876.57,-3233.29 824.88,-3303.41 795.75,-3342.9 741.97,-3358.19 697.22,-3363.79"/>
<polygon fill="black" stroke="black" points="697.12,-3360.28 687.56,-3364.84 697.88,-3367.23 697.12,-3360.28"/>
<text xml:space="preserve" text-anchor="middle" x="871.7" y="-3201.53" font-family="Helvetica,sans-Serif" font-size="10.00">true</text>
</g>
<!-- cleanup_loop_check&#45;&gt;parallel_stats -->
<g id="edge9" class="edge">
<title>cleanup_loop_check&#45;&gt;parallel_stats</title>
<path fill="none" stroke="black" stroke-dasharray="5,2" d="M555.64,-3004.04C531.87,-2988.64 502.21,-2969.43 478.12,-2953.82"/>
<polygon fill="black" stroke="black" points="480.07,-2950.92 469.78,-2948.42 476.27,-2956.79 480.07,-2950.92"/>
<text xml:space="preserve" text-anchor="middle" x="521.46" y="-2966.91" font-family="Helvetica,sans-Serif" font-size="10.00">false</text>
</g>
<!-- cleanup_loop_check&#45;&gt;parallel_stats -->
<g id="edge10" class="edge">
<title>cleanup_loop_check&#45;&gt;parallel_stats</title>
<path fill="none" stroke="black" stroke-dasharray="5,2" d="M573.49,-2999.82C562.94,-2987.75 549.82,-2974.62 535.88,-2965.16 528.98,-2960.48 521.46,-2956.23 513.73,-2952.4"/>
<polygon fill="black" stroke="black" points="515.39,-2949.31 504.85,-2948.25 512.42,-2955.66 515.39,-2949.31"/>
<text xml:space="preserve" text-anchor="middle" x="564.17" y="-2966.91" font-family="Helvetica,sans-Serif" font-size="10.00">default</text>
</g>
<!-- basic_stats -->
<g id="node8" class="node">
<title>basic_stats</title>
<polygon fill="#e8f5e9" stroke="black" points="900.97,-2853.91 593.8,-2853.91 514.78,-2687.91 821.95,-2687.91 900.97,-2853.91"/>
<text xml:space="preserve" text-anchor="middle" x="707.88" y="-2795.11" font-family="Helvetica,sans-Serif" font-size="14.00">Basic Statistics</text>
<text xml:space="preserve" text-anchor="middle" x="707.88" y="-2780.11" font-family="Helvetica,sans-Serif" font-size="14.00">(compute)</text>
<text xml:space="preserve" text-anchor="middle" x="707.88" y="-2765.11" font-family="Helvetica,sans-Serif" font-size="14.00">exec: in&#45;process</text>
<text xml:space="preserve" text-anchor="middle" x="707.88" y="-2750.11" font-family="Helvetica,sans-Serif" font-size="14.00">blocked: [llm, network, write]</text>
<text xml:space="preserve" text-anchor="middle" x="707.88" y="-2735.11" font-family="Helvetica,sans-Serif" font-size="14.00">timeout: 60s</text>
</g>
<!-- parallel_stats&#45;&gt;basic_stats -->
<g id="edge11" class="edge">
<title>parallel_stats&#45;&gt;basic_stats</title>
<path fill="none" stroke="black" d="M474.6,-2900.68C501.9,-2885.61 539.52,-2864.84 576.58,-2844.39"/>
<polygon fill="black" stroke="black" points="578.1,-2847.54 585.16,-2839.64 574.72,-2841.41 578.1,-2847.54"/>
<text xml:space="preserve" text-anchor="middle" x="530.75" y="-2873.66" font-family="Helvetica,sans-Serif" font-size="10.00">fork</text>
</g>
<!-- correlations -->
<g id="node9" class="node">
<title>correlations</title>
<polygon fill="#e8f5e9" stroke="black" points="847.97,-2640.66 540.8,-2640.66 461.78,-2444.66 768.95,-2444.66 847.97,-2640.66"/>
<text xml:space="preserve" text-anchor="middle" x="654.88" y="-2574.36" font-family="Helvetica,sans-Serif" font-size="14.00">Correlation Matrix</text>
<text xml:space="preserve" text-anchor="middle" x="654.88" y="-2559.36" font-family="Helvetica,sans-Serif" font-size="14.00">(compute)</text>
<text xml:space="preserve" text-anchor="middle" x="654.88" y="-2544.36" font-family="Helvetica,sans-Serif" font-size="14.00">exec: in&#45;process</text>
<text xml:space="preserve" text-anchor="middle" x="654.88" y="-2529.36" font-family="Helvetica,sans-Serif" font-size="14.00">handler: parallel_tools</text>
<text xml:space="preserve" text-anchor="middle" x="654.88" y="-2514.36" font-family="Helvetica,sans-Serif" font-size="14.00">blocked: [llm, network, write]</text>
<text xml:space="preserve" text-anchor="middle" x="654.88" y="-2499.36" font-family="Helvetica,sans-Serif" font-size="14.00">timeout: 60s</text>
</g>
<!-- parallel_stats&#45;&gt;correlations -->
<g id="edge12" class="edge">
<title>parallel_stats&#45;&gt;correlations</title>
<path fill="none" stroke="black" d="M442.23,-2900.89C444.23,-2895.16 446.25,-2888.97 447.88,-2883.16 471.8,-2797.73 444.4,-2764.38 489.38,-2687.91 499.91,-2670 513.45,-2653.18 528.26,-2637.8"/>
<polygon fill="black" stroke="black" points="530.48,-2640.53 535.04,-2630.96 525.51,-2635.6 530.48,-2640.53"/>
<text xml:space="preserve" text-anchor="middle" x="497.62" y="-2767.03" font-family="Helvetica,sans-Serif" font-size="10.00">fork</text>
</g>
<!-- distributions -->
<g id="node10" class="node">
<title>distributions</title>
<polygon fill="#e8f5e9" stroke="black" points="802.97,-2397.41 495.8,-2397.41 416.78,-2231.41 723.95,-2231.41 802.97,-2397.41"/>
<text xml:space="preserve" text-anchor="middle" x="609.88" y="-2338.61" font-family="Helvetica,sans-Serif" font-size="14.00">Distribution Analysis</text>
<text xml:space="preserve" text-anchor="middle" x="609.88" y="-2323.61" font-family="Helvetica,sans-Serif" font-size="14.00">(compute)</text>
<text xml:space="preserve" text-anchor="middle" x="609.88" y="-2308.61" font-family="Helvetica,sans-Serif" font-size="14.00">exec: in&#45;process</text>
<text xml:space="preserve" text-anchor="middle" x="609.88" y="-2293.61" font-family="Helvetica,sans-Serif" font-size="14.00">blocked: [llm, network, write]</text>
<text xml:space="preserve" text-anchor="middle" x="609.88" y="-2278.61" font-family="Helvetica,sans-Serif" font-size="14.00">timeout: 60s</text>
</g>
<!-- parallel_stats&#45;&gt;distributions -->
<g id="edge13" class="edge">
<title>parallel_stats&#45;&gt;distributions</title>
<path fill="none" stroke="black" d="M432.4,-2900.88C427.23,-2817.74 412.44,-2526.1 452.88,-2444.66 460.94,-2428.42 472.08,-2413.5 484.74,-2400.02"/>
<polygon fill="black" stroke="black" points="487.24,-2402.47 491.75,-2392.89 482.24,-2397.57 487.24,-2402.47"/>
<text xml:space="preserve" text-anchor="middle" x="433.92" y="-2660.41" font-family="Helvetica,sans-Serif" font-size="10.00">fork</text>
</g>
<!-- anomaly_detection -->
<g id="node11" class="node">
<title>anomaly_detection</title>
<polygon fill="#e8f5e9" stroke="black" points="756.97,-2194.41 449.8,-2194.41 370.78,-2028.41 677.95,-2028.41 756.97,-2194.41"/>
<text xml:space="preserve" text-anchor="middle" x="563.88" y="-2135.61" font-family="Helvetica,sans-Serif" font-size="14.00">Detect Anomalies</text>
<text xml:space="preserve" text-anchor="middle" x="563.88" y="-2120.61" font-family="Helvetica,sans-Serif" font-size="14.00">(compute)</text>
<text xml:space="preserve" text-anchor="middle" x="563.88" y="-2105.61" font-family="Helvetica,sans-Serif" font-size="14.00">exec: in&#45;process</text>
<text xml:space="preserve" text-anchor="middle" x="563.88" y="-2090.61" font-family="Helvetica,sans-Serif" font-size="14.00">blocked: [llm, network, write]</text>
<text xml:space="preserve" text-anchor="middle" x="563.88" y="-2075.61" font-family="Helvetica,sans-Serif" font-size="14.00">timeout: 120s</text>
</g>
<!-- parallel_stats&#45;&gt;anomaly_detection -->
<g id="edge14" class="edge">
<title>parallel_stats&#45;&gt;anomaly_detection</title>
<path fill="none" stroke="black" d="M422.75,-2900.72C409.43,-2871.71 388.88,-2819.3 388.88,-2771.91 388.88,-2771.91 388.88,-2771.91 388.88,-2313.41 388.88,-2276 387.58,-2262.83 407.88,-2231.41 416.2,-2218.51 426.43,-2206.47 437.64,-2195.38"/>
<polygon fill="black" stroke="black" points="440.02,-2197.94 444.86,-2188.52 435.2,-2192.87 440.02,-2197.94"/>
<text xml:space="preserve" text-anchor="middle" x="397.12" y="-2538.78" font-family="Helvetica,sans-Serif" font-size="10.00">fork</text>
</g>
<!-- aggregate_stats -->
<g id="node12" class="node">
<title>aggregate_stats</title>
<polygon fill="#eceff1" stroke="black" points="418.38,-1991.41 291.38,-1991.41 291.38,-1953.41 418.38,-1953.41 418.38,-1991.41"/>
<text xml:space="preserve" text-anchor="middle" x="354.88" y="-1974.11" font-family="Helvetica,sans-Serif" font-size="14.00">Aggregate Results</text>
<text xml:space="preserve" text-anchor="middle" x="354.88" y="-1959.11" font-family="Helvetica,sans-Serif" font-size="14.00">(transform)</text>
</g>
<!-- parallel_stats&#45;&gt;aggregate_stats -->
<g id="edge15" class="edge">
<title>parallel_stats&#45;&gt;aggregate_stats</title>
<path fill="none" stroke="black" d="M409.97,-2901.06C383,-2873.61 342.88,-2824 342.88,-2771.91 342.88,-2771.91 342.88,-2771.91 342.88,-2110.41 342.88,-2073.18 347.33,-2030.48 350.81,-2002.78"/>
<polygon fill="black" stroke="black" points="354.26,-2003.4 352.08,-1993.04 347.31,-2002.5 354.26,-2003.4"/>
<text xml:space="preserve" text-anchor="middle" x="350.38" y="-2417.16" font-family="Helvetica,sans-Serif" font-size="10.00">join</text>
</g>
<!-- basic_stats&#45;&gt;correlations -->
<g id="edge16" class="edge">
<title>basic_stats&#45;&gt;correlations</title>
<path fill="none" stroke="black" d="M688.59,-2687.59C685.87,-2675.98 683.04,-2663.9 680.23,-2651.9"/>
<polygon fill="black" stroke="black" points="683.69,-2651.32 678,-2642.38 676.88,-2652.92 683.69,-2651.32"/>
</g>
<!-- correlations&#45;&gt;distributions -->
<g id="edge17" class="edge">
<title>correlations&#45;&gt;distributions</title>
<path fill="none" stroke="black" d="M635.53,-2444.39C633.18,-2432.59 630.79,-2420.56 628.45,-2408.82"/>
<polygon fill="black" stroke="black" points="631.92,-2408.28 626.53,-2399.15 625.05,-2409.64 631.92,-2408.28"/>
</g>
<!-- distributions&#45;&gt;anomaly_detection -->
<g id="edge18" class="edge">
<title>distributions&#45;&gt;anomaly_detection</title>
<path fill="none" stroke="black" d="M591.03,-2231.07C589.12,-2222.7 587.16,-2214.16 585.22,-2205.69"/>
<polygon fill="black" stroke="black" points="588.67,-2205.06 583.03,-2196.09 581.85,-2206.62 588.67,-2205.06"/>
</g>
<!-- anomaly_detection&#45;&gt;aggregate_stats -->
<g id="edge19" class="edge">
<title>anomaly_detection&#45;&gt;aggregate_stats</title>
<path fill="none" stroke="black" d="M438.08,-2027.95C421.38,-2017 405.44,-2006.55 392.07,-1997.79"/>
<polygon fill="black" stroke="black" points="394.35,-1995.1 384.07,-1992.54 390.51,-2000.95 394.35,-1995.1"/>
</g>
<!-- analyze -->
<g id="node13" class="node">
<title>analyze</title>
<path fill="#e3f2fd" stroke="black" d="M413.12,-1916.41C413.12,-1916.41 296.62,-1916.41 296.62,-1916.41 290.62,-1916.41 284.62,-1910.41 284.62,-1904.41 284.62,-1904.41 284.62,-1875.41 284.62,-1875.41 284.62,-1869.41 290.62,-1863.41 296.62,-1863.41 296.62,-1863.41 413.12,-1863.41 413.12,-1863.41 419.12,-1863.41 425.12,-1869.41 425.12,-1875.41 425.12,-1875.41 425.12,-1904.41 425.12,-1904.41 425.12,-1910.41 419.12,-1916.41 413.12,-1916.41"/>
<text xml:space="preserve" text-anchor="middle" x="354.88" y="-1899.11" font-family="Helvetica,sans-Serif" font-size="14.00">AI&#45;Powered Analysis</text>
<text xml:space="preserve" text-anchor="middle" x="354.88" y="-1884.11" font-family="Helvetica,sans-Serif" font-size="14.00">(agent)</text>
<text xml:space="preserve" text-anchor="middle" x="354.88" y="-1869.11" font-family="Helvetica,sans-Serif" font-size="14.00">role: analyst</text>
</g>
<!-- aggregate_stats&#45;&gt;analyze -->
<g id="edge20" class="edge">
<title>aggregate_stats&#45;&gt;analyze</title>
<path fill="none" stroke="black" d="M354.88,-1953.14C354.88,-1945.66 354.88,-1936.71 354.88,-1927.97"/>
<polygon fill="black" stroke="black" points="358.38,-1928.24 354.88,-1918.24 351.38,-1928.24 358.38,-1928.24"/>
</g>
<!-- check_confidence -->
<g id="node14" class="node">
<title>check_confidence</title>
<polygon fill="#fff3e0" stroke="black" points="354.88,-1826.41 174.63,-1788.41 354.87,-1750.41 535.12,-1788.41 354.88,-1826.41"/>
<text xml:space="preserve" text-anchor="middle" x="354.88" y="-1790.11" font-family="Helvetica,sans-Serif" font-size="14.00">Check Analysis Confidence</text>
<text xml:space="preserve" text-anchor="middle" x="354.88" y="-1775.11" font-family="Helvetica,sans-Serif" font-size="14.00">(condition)</text>
</g>
<!-- analyze&#45;&gt;check_confidence -->
<g id="edge21" class="edge">
<title>analyze&#45;&gt;check_confidence</title>
<path fill="none" stroke="black" d="M354.88,-1863.02C354.88,-1855.34 354.88,-1846.65 354.88,-1838.02"/>
<polygon fill="black" stroke="black" points="358.38,-1838.29 354.88,-1828.29 351.38,-1838.29 358.38,-1838.29"/>
</g>
<!-- deep_dive -->
<g id="node15" class="node">
<title>deep_dive</title>
<path fill="#e3f2fd" stroke="black" d="M472.38,-1610.2C472.38,-1610.2 363.38,-1610.2 363.38,-1610.2 357.38,-1610.2 351.38,-1604.2 351.38,-1598.2 351.38,-1598.2 351.38,-1569.2 351.38,-1569.2 351.38,-1563.2 357.38,-1557.2 363.38,-1557.2 363.38,-1557.2 472.38,-1557.2 472.38,-1557.2 478.38,-1557.2 484.38,-1563.2 484.38,-1569.2 484.38,-1569.2 484.38,-1598.2 484.38,-1598.2 484.38,-1604.2 478.38,-1610.2 472.38,-1610.2"/>
<text xml:space="preserve" text-anchor="middle" x="417.88" y="-1592.9" font-family="Helvetica,sans-Serif" font-size="14.00">Deep Dive Analysis</text>
<text xml:space="preserve" text-anchor="middle" x="417.88" y="-1577.9" font-family="Helvetica,sans-Serif" font-size="14.00">(agent)</text>
<text xml:space="preserve" text-anchor="middle" x="417.88" y="-1562.9" font-family="Helvetica,sans-Serif" font-size="14.00">role: researcher</text>
</g>
<!-- check_confidence&#45;&gt;deep_dive -->
<g id="edge23" class="edge">
<title>check_confidence&#45;&gt;deep_dive</title>
<path fill="none" stroke="black" stroke-dasharray="5,2" d="M360.47,-1751.1C366.26,-1718.23 376.73,-1668.88 392.88,-1628.2 393.92,-1625.58 395.09,-1622.93 396.36,-1620.29"/>
<polygon fill="black" stroke="black" points="399.34,-1622.15 400.84,-1611.66 393.13,-1618.92 399.34,-1622.15"/>
<text xml:space="preserve" text-anchor="middle" x="383.3" y="-1722.91" font-family="Helvetica,sans-Serif" font-size="10.00">medium</text>
</g>
<!-- human_assist -->
<g id="node16" class="node">
<title>human_assist</title>
<ellipse fill="#ffebee" stroke="black" cx="526.88" cy="-1665.68" rx="124.8" ry="37.48"/>
<text xml:space="preserve" text-anchor="middle" x="526.88" y="-1674.88" font-family="Helvetica,sans-Serif" font-size="14.00">Request Human Guidance</text>
<text xml:space="preserve" text-anchor="middle" x="526.88" y="-1659.88" font-family="Helvetica,sans-Serif" font-size="14.00">(hitl)</text>
<text xml:space="preserve" text-anchor="middle" x="526.88" y="-1644.88" font-family="Helvetica,sans-Serif" font-size="14.00">timeout: 1800s</text>
</g>
<!-- check_confidence&#45;&gt;human_assist -->
<g id="edge24" class="edge">
<title>check_confidence&#45;&gt;human_assist</title>
<path fill="none" stroke="black" stroke-dasharray="5,2" d="M395.64,-1758.8C417.56,-1743.41 444.97,-1724.17 469.06,-1707.26"/>
<polygon fill="black" stroke="black" points="471.05,-1710.14 477.22,-1701.53 467.02,-1704.41 471.05,-1710.14"/>
<text xml:space="preserve" text-anchor="middle" x="453.53" y="-1722.91" font-family="Helvetica,sans-Serif" font-size="10.00">low</text>
</g>
<!-- visualize -->
<g id="node19" class="node">
<title>visualize</title>
<polygon fill="#f3e5f5" stroke="black" points="415.5,-1370.2 256.25,-1370.2 256.25,-1332.2 415.5,-1332.2 415.5,-1370.2"/>
<polygon fill="none" stroke="black" points="419.5,-1374.2 252.25,-1374.2 252.25,-1328.2 419.5,-1328.2 419.5,-1374.2"/>
<text xml:space="preserve" text-anchor="middle" x="335.88" y="-1352.9" font-family="Helvetica,sans-Serif" font-size="14.00">Generate Visualizations</text>
<text xml:space="preserve" text-anchor="middle" x="335.88" y="-1337.9" font-family="Helvetica,sans-Serif" font-size="14.00">(parallel)</text>
</g>
<!-- check_confidence&#45;&gt;visualize -->
<g id="edge22" class="edge">
<title>check_confidence&#45;&gt;visualize</title>
<path fill="none" stroke="black" stroke-dasharray="5,2" d="M323.49,-1756.63C303.71,-1733.86 281.88,-1700.97 281.88,-1666.68 281.88,-1666.68 281.88,-1666.68 281.88,-1429.2 281.88,-1412.09 290.93,-1396.08 301.62,-1383.14"/>
<polygon fill="black" stroke="black" points="304.11,-1385.61 308.18,-1375.83 298.9,-1380.93 304.11,-1385.61"/>
<text xml:space="preserve" text-anchor="middle" x="290.88" y="-1508.83" font-family="Helvetica,sans-Serif" font-size="10.00">high</text>
</g>
<!-- check_confidence&#45;&gt;visualize -->
<g id="edge25" class="edge">
<title>check_confidence&#45;&gt;visualize</title>
<path fill="none" stroke="black" stroke-dasharray="5,2" d="M346.26,-1751.72C341.24,-1727.8 335.88,-1695.54 335.88,-1666.68 335.88,-1666.68 335.88,-1666.68 335.88,-1429.2 335.88,-1414.94 335.88,-1399.18 335.88,-1385.66"/>
<polygon fill="black" stroke="black" points="339.38,-1385.96 335.88,-1375.96 332.38,-1385.96 339.38,-1385.96"/>
<text xml:space="preserve" text-anchor="middle" x="350.5" y="-1508.83" font-family="Helvetica,sans-Serif" font-size="10.00">default</text>
</g>
<!-- merge_insights -->
<g id="node18" class="node">
<title>merge_insights</title>
<polygon fill="#eceff1" stroke="black" points="487.88,-1449.2 363.88,-1449.2 363.88,-1411.2 487.88,-1411.2 487.88,-1449.2"/>
<text xml:space="preserve" text-anchor="middle" x="425.88" y="-1431.9" font-family="Helvetica,sans-Serif" font-size="14.00">Merge All Insights</text>
<text xml:space="preserve" text-anchor="middle" x="425.88" y="-1416.9" font-family="Helvetica,sans-Serif" font-size="14.00">(transform)</text>
</g>
<!-- deep_dive&#45;&gt;merge_insights -->
<g id="edge26" class="edge">
<title>deep_dive&#45;&gt;merge_insights</title>
<path fill="none" stroke="black" d="M419.23,-1557C420.64,-1530.38 422.83,-1488.83 424.31,-1460.84"/>
<polygon fill="black" stroke="black" points="427.8,-1461.08 424.83,-1450.91 420.81,-1460.71 427.8,-1461.08"/>
</g>
<!-- refine_analysis -->
<g id="node17" class="node">
<title>refine_analysis</title>
<path fill="#e3f2fd" stroke="black" d="M597.12,-1539.2C597.12,-1539.2 456.62,-1539.2 456.62,-1539.2 450.62,-1539.2 444.62,-1533.2 444.62,-1527.2 444.62,-1527.2 444.62,-1498.2 444.62,-1498.2 444.62,-1492.2 450.62,-1486.2 456.62,-1486.2 456.62,-1486.2 597.12,-1486.2 597.12,-1486.2 603.12,-1486.2 609.12,-1492.2 609.12,-1498.2 609.12,-1498.2 609.12,-1527.2 609.12,-1527.2 609.12,-1533.2 603.12,-1539.2 597.12,-1539.2"/>
<text xml:space="preserve" text-anchor="middle" x="526.88" y="-1521.9" font-family="Helvetica,sans-Serif" font-size="14.00">Refine with Human Input</text>
<text xml:space="preserve" text-anchor="middle" x="526.88" y="-1506.9" font-family="Helvetica,sans-Serif" font-size="14.00">(agent)</text>
<text xml:space="preserve" text-anchor="middle" x="526.88" y="-1491.9" font-family="Helvetica,sans-Serif" font-size="14.00">role: analyst</text>
</g>
<!-- human_assist&#45;&gt;refine_analysis -->
<g id="edge27" class="edge">
<title>human_assist&#45;&gt;refine_analysis</title>
<path fill="none" stroke="black" d="M526.88,-1627.75C526.88,-1604.3 526.88,-1574.06 526.88,-1550.62"/>
<polygon fill="black" stroke="black" points="530.38,-1550.89 526.88,-1540.89 523.38,-1550.89 530.38,-1550.89"/>
</g>
<!-- refine_analysis&#45;&gt;merge_insights -->
<g id="edge28" class="edge">
<title>refine_analysis&#45;&gt;merge_insights</title>
<path fill="none" stroke="black" d="M494.36,-1485.79C482.71,-1476.51 469.6,-1466.05 457.98,-1456.79"/>
<polygon fill="black" stroke="black" points="460.23,-1454.11 450.23,-1450.62 455.87,-1459.58 460.23,-1454.11"/>
</g>
<!-- merge_insights&#45;&gt;visualize -->
<g id="edge29" class="edge">
<title>merge_insights&#45;&gt;visualize</title>
<path fill="none" stroke="black" d="M404.55,-1410.96C394.36,-1402.24 381.9,-1391.58 370.41,-1381.75"/>
<polygon fill="black" stroke="black" points="372.89,-1379.27 363.02,-1375.42 368.34,-1384.59 372.89,-1379.27"/>
</g>
<!-- summary_charts -->
<g id="node20" class="node">
<title>summary_charts</title>
<polygon fill="#e8f5e9" stroke="black" points="704.65,-1280.95 456.85,-1280.95 393.1,-1114.95 640.9,-1114.95 704.65,-1280.95"/>
<text xml:space="preserve" text-anchor="middle" x="548.88" y="-1222.15" font-family="Helvetica,sans-Serif" font-size="14.00">Summary Charts</text>
<text xml:space="preserve" text-anchor="middle" x="548.88" y="-1207.15" font-family="Helvetica,sans-Serif" font-size="14.00">(compute)</text>
<text xml:space="preserve" text-anchor="middle" x="548.88" y="-1192.15" font-family="Helvetica,sans-Serif" font-size="14.00">exec: in&#45;process</text>
<text xml:space="preserve" text-anchor="middle" x="548.88" y="-1177.15" font-family="Helvetica,sans-Serif" font-size="14.00">blocked: [llm, network]</text>
<text xml:space="preserve" text-anchor="middle" x="548.88" y="-1162.15" font-family="Helvetica,sans-Serif" font-size="14.00">timeout: 120s</text>
</g>
<!-- visualize&#45;&gt;summary_charts -->
<g id="edge30" class="edge">
<title>visualize&#45;&gt;summary_charts</title>
<path fill="none" stroke="black" d="M367.3,-1327.89C387.47,-1313.56 414.95,-1294.05 442.43,-1274.54"/>
<polygon fill="black" stroke="black" points="444.37,-1277.45 450.5,-1268.81 440.32,-1271.74 444.37,-1277.45"/>
<text xml:space="preserve" text-anchor="middle" x="413.02" y="-1300.7" font-family="Helvetica,sans-Serif" font-size="10.00">fork</text>
</g>
<!-- correlation_heatmap -->
<g id="node21" class="node">
<title>correlation_heatmap</title>
<polygon fill="#e8f5e9" stroke="black" points="652.65,-1067.7 404.85,-1067.7 341.1,-901.7 588.9,-901.7 652.65,-1067.7"/>
<text xml:space="preserve" text-anchor="middle" x="496.88" y="-1008.9" font-family="Helvetica,sans-Serif" font-size="14.00">Correlation Heatmap</text>
<text xml:space="preserve" text-anchor="middle" x="496.88" y="-993.9" font-family="Helvetica,sans-Serif" font-size="14.00">(compute)</text>
<text xml:space="preserve" text-anchor="middle" x="496.88" y="-978.9" font-family="Helvetica,sans-Serif" font-size="14.00">exec: in&#45;process</text>
<text xml:space="preserve" text-anchor="middle" x="496.88" y="-963.9" font-family="Helvetica,sans-Serif" font-size="14.00">blocked: [llm, network]</text>
<text xml:space="preserve" text-anchor="middle" x="496.88" y="-948.9" font-family="Helvetica,sans-Serif" font-size="14.00">timeout: 60s</text>
</g>
<!-- visualize&#45;&gt;correlation_heatmap -->
<g id="edge31" class="edge">
<title>visualize&#45;&gt;correlation_heatmap</title>
<path fill="none" stroke="black" d="M334.26,-1327.76C332.1,-1284.25 332,-1186.41 367.38,-1114.95 374.83,-1099.89 384.74,-1085.53 395.76,-1072.23"/>
<polygon fill="black" stroke="black" points="398.3,-1074.66 402.17,-1064.8 392.99,-1070.09 398.3,-1074.66"/>
<text xml:space="preserve" text-anchor="middle" x="375.62" y="-1194.08" font-family="Helvetica,sans-Serif" font-size="10.00">fork</text>
</g>
<!-- anomaly_plots -->
<g id="node22" class="node">
<title>anomaly_plots</title>
<polygon fill="#e8f5e9" stroke="black" points="620.09,-864.7 363.63,-864.7 297.66,-698.7 554.12,-698.7 620.09,-864.7"/>
<text xml:space="preserve" text-anchor="middle" x="458.88" y="-805.9" font-family="Helvetica,sans-Serif" font-size="14.00">Anomaly Visualizations</text>
<text xml:space="preserve" text-anchor="middle" x="458.88" y="-790.9" font-family="Helvetica,sans-Serif" font-size="14.00">(compute)</text>
<text xml:space="preserve" text-anchor="middle" x="458.88" y="-775.9" font-family="Helvetica,sans-Serif" font-size="14.00">exec: in&#45;process</text>
<text xml:space="preserve" text-anchor="middle" x="458.88" y="-760.9" font-family="Helvetica,sans-Serif" font-size="14.00">blocked: [llm, network]</text>
<text xml:space="preserve" text-anchor="middle" x="458.88" y="-745.9" font-family="Helvetica,sans-Serif" font-size="14.00">timeout: 90s</text>
</g>
<!-- visualize&#45;&gt;anomaly_plots -->
<g id="edge32" class="edge">
<title>visualize&#45;&gt;anomaly_plots</title>
<path fill="none" stroke="black" d="M329.55,-1327.93C311.59,-1260.26 265.68,-1052.5 331.88,-901.7 337.34,-889.26 344.8,-877.52 353.39,-866.61"/>
<polygon fill="black" stroke="black" points="355.84,-869.14 359.54,-859.21 350.46,-864.66 355.84,-869.14"/>
<text xml:space="preserve" text-anchor="middle" x="305.55" y="-1087.45" font-family="Helvetica,sans-Serif" font-size="10.00">fork</text>
</g>
<!-- review -->
<g id="node23" class="node">
<title>review</title>
<ellipse fill="#ffebee" stroke="black" cx="281.88" cy="-624.23" rx="76.54" ry="37.48"/>
<text xml:space="preserve" text-anchor="middle" x="281.88" y="-633.43" font-family="Helvetica,sans-Serif" font-size="14.00">Human Review</text>
<text xml:space="preserve" text-anchor="middle" x="281.88" y="-618.43" font-family="Helvetica,sans-Serif" font-size="14.00">(hitl)</text>
<text xml:space="preserve" text-anchor="middle" x="281.88" y="-603.43" font-family="Helvetica,sans-Serif" font-size="14.00">timeout: 900s</text>
</g>
<!-- visualize&#45;&gt;review -->
<g id="edge33" class="edge">
<title>visualize&#45;&gt;review</title>
<path fill="none" stroke="black" d="M319.05,-1327.71C299.5,-1299.27 269.88,-1248.09 269.88,-1198.95 269.88,-1198.95 269.88,-1198.95 269.88,-780.7 269.88,-744.57 273.14,-703.86 276.26,-673.16"/>
<polygon fill="black" stroke="black" points="279.72,-673.74 277.28,-663.42 272.76,-673 279.72,-673.74"/>
<text xml:space="preserve" text-anchor="middle" x="277.38" y="-980.83" font-family="Helvetica,sans-Serif" font-size="10.00">join</text>
</g>
<!-- summary_charts&#45;&gt;correlation_heatmap -->
<g id="edge34" class="edge">
<title>summary_charts&#45;&gt;correlation_heatmap</title>
<path fill="none" stroke="black" d="M528.62,-1114.67C525.74,-1102.97 522.76,-1090.85 519.83,-1078.96"/>
<polygon fill="black" stroke="black" points="523.31,-1078.45 517.52,-1069.58 516.51,-1080.12 523.31,-1078.45"/>
</g>
<!-- correlation_heatmap&#45;&gt;anomaly_plots -->
<g id="edge35" class="edge">
<title>correlation_heatmap&#45;&gt;anomaly_plots</title>
<path fill="none" stroke="black" d="M481.31,-901.37C479.73,-893 478.11,-884.46 476.51,-875.99"/>
<polygon fill="black" stroke="black" points="479.99,-875.57 474.7,-866.4 473.12,-876.87 479.99,-875.57"/>
</g>
<!-- anomaly_plots&#45;&gt;review -->
<g id="edge36" class="edge">
<title>anomaly_plots&#45;&gt;review</title>
<path fill="none" stroke="black" d="M365.19,-698.41C351.85,-686.69 338.66,-675.11 326.85,-664.73"/>
<polygon fill="black" stroke="black" points="329.47,-662.37 319.65,-658.41 324.85,-667.63 329.47,-662.37"/>
</g>
<!-- check_approval -->
<g id="node24" class="node">
<title>check_approval</title>
<polygon fill="#fff3e0" stroke="black" points="171.88,-549.75 5.13,-511.75 171.87,-473.75 338.62,-511.75 171.88,-549.75"/>
<text xml:space="preserve" text-anchor="middle" x="171.88" y="-513.45" font-family="Helvetica,sans-Serif" font-size="14.00">Check Approval Decision</text>
<text xml:space="preserve" text-anchor="middle" x="171.88" y="-498.45" font-family="Helvetica,sans-Serif" font-size="14.00">(condition)</text>
</g>
<!-- review&#45;&gt;check_approval -->
<g id="edge37" class="edge">
<title>review&#45;&gt;check_approval</title>
<path fill="none" stroke="black" d="M248.87,-590.08C236.72,-577.88 222.86,-563.96 210.28,-551.32"/>
<polygon fill="black" stroke="black" points="212.83,-548.92 203.29,-544.31 207.87,-553.86 212.83,-548.92"/>
</g>
<!-- revision_loop -->
<g id="node25" class="node">
<title>revision_loop</title>
<path fill="#e3f2fd" stroke="black" d="M308.88,-426.5C308.88,-426.5 220.88,-426.5 220.88,-426.5 214.88,-426.5 208.88,-420.5 208.88,-414.5 208.88,-414.5 208.88,-385.5 208.88,-385.5 208.88,-379.5 214.88,-373.5 220.88,-373.5 220.88,-373.5 308.88,-373.5 308.88,-373.5 314.88,-373.5 320.88,-379.5 320.88,-385.5 320.88,-385.5 320.88,-414.5 320.88,-414.5 320.88,-420.5 314.88,-426.5 308.88,-426.5"/>
<text xml:space="preserve" text-anchor="middle" x="264.88" y="-409.2" font-family="Helvetica,sans-Serif" font-size="14.00">Apply Revisions</text>
<text xml:space="preserve" text-anchor="middle" x="264.88" y="-394.2" font-family="Helvetica,sans-Serif" font-size="14.00">(agent)</text>
<text xml:space="preserve" text-anchor="middle" x="264.88" y="-379.2" font-family="Helvetica,sans-Serif" font-size="14.00">role: executor</text>
</g>
<!-- check_approval&#45;&gt;revision_loop -->
<g id="edge39" class="edge">
<title>check_approval&#45;&gt;revision_loop</title>
<path fill="none" stroke="black" stroke-dasharray="5,2" d="M198.28,-479.59C210.02,-465.74 223.87,-449.39 235.9,-435.19"/>
<polygon fill="black" stroke="black" points="238.34,-437.73 242.14,-427.83 233,-433.2 238.34,-437.73"/>
<text xml:space="preserve" text-anchor="middle" x="246.2" y="-446.25" font-family="Helvetica,sans-Serif" font-size="10.00">revisions</text>
</g>
<!-- report -->
<g id="node28" class="node">
<title>report</title>
<path fill="#e3f2fd" stroke="black" d="M235,-128C235,-128 108.75,-128 108.75,-128 102.75,-128 96.75,-122 96.75,-116 96.75,-116 96.75,-87 96.75,-87 96.75,-81 102.75,-75 108.75,-75 108.75,-75 235,-75 235,-75 241,-75 247,-81 247,-87 247,-87 247,-116 247,-116 247,-122 241,-128 235,-128"/>
<text xml:space="preserve" text-anchor="middle" x="171.88" y="-110.7" font-family="Helvetica,sans-Serif" font-size="14.00">Generate Final Report</text>
<text xml:space="preserve" text-anchor="middle" x="171.88" y="-95.7" font-family="Helvetica,sans-Serif" font-size="14.00">(agent)</text>
<text xml:space="preserve" text-anchor="middle" x="171.88" y="-80.7" font-family="Helvetica,sans-Serif" font-size="14.00">role: writer</text>
</g>
<!-- check_approval&#45;&gt;report -->
<g id="edge38" class="edge">
<title>check_approval&#45;&gt;report</title>
<path fill="none" stroke="black" stroke-dasharray="5,2" d="M139.28,-480.9C120.62,-460.48 100.88,-431.64 100.88,-401 100.88,-401 100.88,-401 100.88,-212.25 100.88,-183.78 117.92,-156.86 135.31,-136.81"/>
<polygon fill="black" stroke="black" points="137.83,-139.24 141.98,-129.49 132.65,-134.53 137.83,-139.24"/>
<text xml:space="preserve" text-anchor="middle" x="118.12" y="-313.62" font-family="Helvetica,sans-Serif" font-size="10.00">approve</text>
</g>
<!-- check_approval&#45;&gt;report -->
<g id="edge41" class="edge">
<title>check_approval&#45;&gt;report</title>
<path fill="none" stroke="black" stroke-dasharray="5,2" d="M171.88,-473.41C171.88,-452.18 171.88,-425.1 171.88,-401 171.88,-401 171.88,-401 171.88,-212.25 171.88,-188.09 171.88,-160.93 171.88,-139.68"/>
<polygon fill="black" stroke="black" points="175.38,-139.74 171.88,-129.74 168.38,-139.74 175.38,-139.74"/>
<text xml:space="preserve" text-anchor="middle" x="186.5" y="-313.62" font-family="Helvetica,sans-Serif" font-size="10.00">default</text>
</g>
<!-- end -->
<g id="node29" class="node">
<title>end</title>
<polygon fill="#eceff1" stroke="black" points="133.75,-38 0,-38 0,0 133.75,0 133.75,-38"/>
<text xml:space="preserve" text-anchor="middle" x="66.88" y="-20.7" font-family="Helvetica,sans-Serif" font-size="14.00">Workflow Complete</text>
<text xml:space="preserve" text-anchor="middle" x="66.88" y="-5.7" font-family="Helvetica,sans-Serif" font-size="14.00">(transform)</text>
</g>
<!-- check_approval&#45;&gt;end -->
<g id="edge40" class="edge">
<title>check_approval&#45;&gt;end</title>
<path fill="none" stroke="black" stroke-dasharray="5,2" d="M118.17,-485.57C87.41,-467.06 54.88,-438.6 54.88,-401 54.88,-401 54.88,-401 54.88,-100.5 54.88,-83.55 57.51,-64.82 60.31,-49.69"/>
<polygon fill="black" stroke="black" points="63.73,-50.4 62.25,-39.91 56.87,-49.04 63.73,-50.4"/>
<text xml:space="preserve" text-anchor="middle" x="63.88" y="-271" font-family="Helvetica,sans-Serif" font-size="10.00">skip</text>
</g>
<!-- increment_revision -->
<g id="node26" class="node">
<title>increment_revision</title>
<polygon fill="#eceff1" stroke="black" points="364.38,-336.5 219.38,-336.5 219.38,-298.5 364.38,-298.5 364.38,-336.5"/>
<text xml:space="preserve" text-anchor="middle" x="291.88" y="-319.2" font-family="Helvetica,sans-Serif" font-size="14.00">Track Revision Count</text>
<text xml:space="preserve" text-anchor="middle" x="291.88" y="-304.2" font-family="Helvetica,sans-Serif" font-size="14.00">(transform)</text>
</g>
<!-- revision_loop&#45;&gt;increment_revision -->
<g id="edge42" class="edge">
<title>revision_loop&#45;&gt;increment_revision</title>
<path fill="none" stroke="black" d="M273.57,-373.09C276.28,-365 279.29,-356.02 282.07,-347.72"/>
<polygon fill="black" stroke="black" points="285.34,-349 285.2,-338.4 278.7,-346.77 285.34,-349"/>
</g>
<!-- revision_limit_check -->
<g id="node27" class="node">
<title>revision_limit_check</title>
<polygon fill="#fff3e0" stroke="black" points="342.88,-251.25 200.13,-213.25 342.87,-175.25 485.62,-213.25 342.88,-251.25"/>
<text xml:space="preserve" text-anchor="middle" x="342.88" y="-214.95" font-family="Helvetica,sans-Serif" font-size="14.00">Check Revision Limit</text>
<text xml:space="preserve" text-anchor="middle" x="342.88" y="-199.95" font-family="Helvetica,sans-Serif" font-size="14.00">(condition)</text>
</g>
<!-- increment_revision&#45;&gt;revision_limit_check -->
<g id="edge43" class="edge">
<title>increment_revision&#45;&gt;revision_limit_check</title>
<path fill="none" stroke="black" d="M300.99,-298.22C306.66,-286.85 314.21,-271.72 321.33,-257.44"/>
<polygon fill="black" stroke="black" points="324.41,-259.12 325.74,-248.61 318.14,-255.99 324.41,-259.12"/>
</g>
<!-- revision_limit_check&#45;&gt;review -->
<g id="edge44" class="edge">
<title>revision_limit_check&#45;&gt;review</title>
<path fill="none" stroke="black" stroke-dasharray="5,2" d="M367,-245.06C379.78,-264.45 392.88,-290.61 392.88,-316.5 392.88,-512.75 392.88,-512.75 392.88,-512.75 392.88,-545.22 368.72,-571.44 342.95,-590.17"/>
<polygon fill="black" stroke="black" points="341.29,-587.06 335.05,-595.62 345.26,-592.82 341.29,-587.06"/>
<text xml:space="preserve" text-anchor="middle" x="401.12" y="-396.12" font-family="Helvetica,sans-Serif" font-size="10.00">true</text>
</g>
<!-- revision_limit_check&#45;&gt;report -->
<g id="edge45" class="edge">
<title>revision_limit_check&#45;&gt;report</title>
<path fill="none" stroke="black" stroke-dasharray="5,2" d="M301.92,-185.96C277.82,-170.5 247.18,-150.83 221.7,-134.48"/>
<polygon fill="black" stroke="black" points="223.78,-131.66 213.48,-129.2 220,-137.55 223.78,-131.66"/>
<text xml:space="preserve" text-anchor="middle" x="262.75" y="-147.75" font-family="Helvetica,sans-Serif" font-size="10.00">false</text>
</g>
<!-- revision_limit_check&#45;&gt;report -->
<g id="edge46" class="edge">
<title>revision_limit_check&#45;&gt;report</title>
<path fill="none" stroke="black" stroke-dasharray="5,2" d="M317.44,-181.88C305.99,-169.57 291.71,-155.94 276.88,-146 270.17,-141.51 262.92,-137.34 255.48,-133.51"/>
<polygon fill="black" stroke="black" points="257.13,-130.42 246.61,-129.16 254.05,-136.71 257.13,-130.42"/>
<text xml:space="preserve" text-anchor="middle" x="305.75" y="-147.75" font-family="Helvetica,sans-Serif" font-size="10.00">default</text>
</g>
<!-- report&#45;&gt;end -->
<g id="edge47" class="edge">
<title>report&#45;&gt;end</title>
<path fill="none" stroke="black" d="M138.07,-74.59C125.84,-65.21 112.06,-54.64 99.9,-45.32"/>
<polygon fill="black" stroke="black" points="102.23,-42.7 92.17,-39.39 97.97,-48.25 102.23,-42.7"/>
</g>
</g>
</svg>
