<?xml version="1.0" encoding="UTF-8" standalone="no"?>
<!DOCTYPE svg PUBLIC "-//W3C//DTD SVG 1.1//EN"
 "http://www.w3.org/Graphics/SVG/1.1/DTD/svg11.dtd">
<!-- Generated by graphviz version 14.0.4 (20251115.1723)
 -->
<!-- Title: workflow Pages: 1 -->
<svg width="326pt" height="520pt"
 viewBox="0.00 0.00 326.00 520.00" xmlns="http://www.w3.org/2000/svg" xmlns:xlink="http://www.w3.org/1999/xlink">
<g id="graph0" class="graph" transform="scale(1 1) rotate(0) translate(4 515.5)">
<title>workflow</title>
<polygon fill="white" stroke="none" points="-4,4 -4,-515.5 321.76,-515.5 321.76,4 -4,4"/>
<text xml:space="preserve" text-anchor="middle" x="158.88" y="-494.2" font-family="Times,serif" font-size="14.00">container_quick</text>
<!-- quick_analyze -->
<g id="node1" class="node">
<title>quick_analyze</title>
<path fill="#e3f2fd" stroke="black" d="M199.51,-487C199.51,-487 118.26,-487 118.26,-487 112.26,-487 106.26,-481 106.26,-475 106.26,-475 106.26,-446 106.26,-446 106.26,-440 112.26,-434 118.26,-434 118.26,-434 199.51,-434 199.51,-434 205.51,-434 211.51,-440 211.51,-446 211.51,-446 211.51,-475 211.51,-475 211.51,-481 205.51,-487 199.51,-487"/>
<text xml:space="preserve" text-anchor="middle" x="158.88" y="-469.7" font-family="Helvetica,sans-Serif" font-size="14.00">Quick Analysis</text>
<text xml:space="preserve" text-anchor="middle" x="158.88" y="-454.7" font-family="Helvetica,sans-Serif" font-size="14.00">(agent)</text>
<text xml:space="preserve" text-anchor="middle" x="158.88" y="-439.7" font-family="Helvetica,sans-Serif" font-size="14.00">role: analyst</text>
</g>
<!-- quick_build -->
<g id="node2" class="node">
<title>quick_build</title>
<polygon fill="#e8f5e9" stroke="black" points="317.76,-398 65.02,-398 0,-202 252.75,-202 317.76,-398"/>
<text xml:space="preserve" text-anchor="middle" x="158.88" y="-331.7" font-family="Helvetica,sans-Serif" font-size="14.00">Quick Build</text>
<text xml:space="preserve" text-anchor="middle" x="158.88" y="-316.7" font-family="Helvetica,sans-Serif" font-size="14.00">(compute)</text>
<text xml:space="preserve" text-anchor="middle" x="158.88" y="-301.7" font-family="Helvetica,sans-Serif" font-size="14.00">exec: in&#45;process</text>
<text xml:space="preserve" text-anchor="middle" x="158.88" y="-286.7" font-family="Helvetica,sans-Serif" font-size="14.00">handler: container_ops</text>
<text xml:space="preserve" text-anchor="middle" x="158.88" y="-271.7" font-family="Helvetica,sans-Serif" font-size="14.00">blocked: [llm]</text>
<text xml:space="preserve" text-anchor="middle" x="158.88" y="-256.7" font-family="Helvetica,sans-Serif" font-size="14.00">timeout: 300s</text>
</g>
<!-- quick_analyze&#45;&gt;quick_build -->
<g id="edge1" class="edge">
<title>quick_analyze&#45;&gt;quick_build</title>
<path fill="none" stroke="black" d="M158.88,-433.68C158.88,-426.59 158.88,-418.43 158.88,-409.71"/>
<polygon fill="black" stroke="black" points="162.38,-409.93 158.88,-399.93 155.38,-409.93 162.38,-409.93"/>
</g>
<!-- quick_test -->
<g id="node3" class="node">
<title>quick_test</title>
<polygon fill="#e8f5e9" stroke="black" points="277.33,-166 88.91,-166 40.43,0 228.86,0 277.33,-166"/>
<text xml:space="preserve" text-anchor="middle" x="158.88" y="-107.2" font-family="Helvetica,sans-Serif" font-size="14.00">Quick Test</text>
<text xml:space="preserve" text-anchor="middle" x="158.88" y="-92.2" font-family="Helvetica,sans-Serif" font-size="14.00">(compute)</text>
<text xml:space="preserve" text-anchor="middle" x="158.88" y="-77.2" font-family="Helvetica,sans-Serif" font-size="14.00">exec: in&#45;process</text>
<text xml:space="preserve" text-anchor="middle" x="158.88" y="-62.2" font-family="Helvetica,sans-Serif" font-size="14.00">blocked: [llm]</text>
<text xml:space="preserve" text-anchor="middle" x="158.88" y="-47.2" font-family="Helvetica,sans-Serif" font-size="14.00">timeout: 60s</text>
</g>
<!-- quick_build&#45;&gt;quick_test -->
<g id="edge2" class="edge">
<title>quick_build&#45;&gt;quick_test</title>
<path fill="none" stroke="black" d="M158.88,-201.57C158.88,-193.65 158.88,-185.67 158.88,-177.78"/>
<polygon fill="black" stroke="black" points="162.38,-177.83 158.88,-167.83 155.38,-177.83 162.38,-177.83"/>
</g>
</g>
</svg>
