<?xml version="1.0" encoding="UTF-8" standalone="no"?>
<!DOCTYPE svg PUBLIC "-//W3C//DTD SVG 1.1//EN"
 "http://www.w3.org/Graphics/SVG/1.1/DTD/svg11.dtd">
<!-- Generated by graphviz version 14.0.4 (20251115.1723)
 -->
<!-- Title: workflow Pages: 1 -->
<svg width="1139pt" height="3593pt"
 viewBox="0.00 0.00 1139.00 3593.00" xmlns="http://www.w3.org/2000/svg" xmlns:xlink="http://www.w3.org/1999/xlink">
<g id="graph0" class="graph" transform="scale(1 1) rotate(0) translate(4 3588.91)">
<title>workflow</title>
<polygon fill="white" stroke="none" points="-4,4 -4,-3588.91 1135.21,-3588.91 1135.21,4 -4,4"/>
<text xml:space="preserve" text-anchor="middle" x="565.61" y="-3567.61" font-family="Times,serif" font-size="14.00">deploy</text>
<!-- validate_config -->
<g id="node1" class="node">
<title>validate_config</title>
<polygon fill="#e8f5e9" stroke="black" points="1131.21,-3560.41 824.04,-3560.41 745.02,-3394.41 1052.19,-3394.41 1131.21,-3560.41"/>
<text xml:space="preserve" text-anchor="middle" x="938.12" y="-3501.61" font-family="Helvetica,sans-Serif" font-size="14.00">Validate Configuration</text>
<text xml:space="preserve" text-anchor="middle" x="938.12" y="-3486.61" font-family="Helvetica,sans-Serif" font-size="14.00">(compute)</text>
<text xml:space="preserve" text-anchor="middle" x="938.12" y="-3471.61" font-family="Helvetica,sans-Serif" font-size="14.00">exec: in&#45;process</text>
<text xml:space="preserve" text-anchor="middle" x="938.12" y="-3456.61" font-family="Helvetica,sans-Serif" font-size="14.00">blocked: [llm, network, write]</text>
<text xml:space="preserve" text-anchor="middle" x="938.12" y="-3441.61" font-family="Helvetica,sans-Serif" font-size="14.00">timeout: 60s</text>
</g>
<!-- check_config -->
<g id="node2" class="node">
<title>check_config</title>
<polygon fill="#fff3e0" stroke="black" points="852.12,-3357.41 707.87,-3319.41 852.12,-3281.41 996.37,-3319.41 852.12,-3357.41"/>
<text xml:space="preserve" text-anchor="middle" x="852.12" y="-3321.11" font-family="Helvetica,sans-Serif" font-size="14.00">Check Config Validity</text>
<text xml:space="preserve" text-anchor="middle" x="852.12" y="-3306.11" font-family="Helvetica,sans-Serif" font-size="14.00">(condition)</text>
</g>
<!-- validate_config&#45;&gt;check_config -->
<g id="edge1" class="edge">
<title>validate_config&#45;&gt;check_config</title>
<path fill="none" stroke="black" d="M892.85,-3394.3C886.84,-3383.4 880.89,-3372.61 875.48,-3362.78"/>
<polygon fill="black" stroke="black" points="878.67,-3361.32 870.77,-3354.25 872.54,-3364.7 878.67,-3361.32"/>
</g>
<!-- fix_config -->
<g id="node3" class="node">
<title>fix_config</title>
<path fill="#e3f2fd" stroke="black" d="M1092.49,-3162.66C1092.49,-3162.66 955.74,-3162.66 955.74,-3162.66 949.74,-3162.66 943.74,-3156.66 943.74,-3150.66 943.74,-3150.66 943.74,-3121.66 943.74,-3121.66 943.74,-3115.66 949.74,-3109.66 955.74,-3109.66 955.74,-3109.66 1092.49,-3109.66 1092.49,-3109.66 1098.49,-3109.66 1104.49,-3115.66 1104.49,-3121.66 1104.49,-3121.66 1104.49,-3150.66 1104.49,-3150.66 1104.49,-3156.66 1098.49,-3162.66 1092.49,-3162.66"/>
<text xml:space="preserve" text-anchor="middle" x="1024.12" y="-3145.36" font-family="Helvetica,sans-Serif" font-size="14.00">Fix Configuration Issues</text>
<text xml:space="preserve" text-anchor="middle" x="1024.12" y="-3130.36" font-family="Helvetica,sans-Serif" font-size="14.00">(agent)</text>
<text xml:space="preserve" text-anchor="middle" x="1024.12" y="-3115.36" font-family="Helvetica,sans-Serif" font-size="14.00">role: executor</text>
</g>
<!-- check_config&#45;&gt;fix_config -->
<g id="edge3" class="edge">
<title>check_config&#45;&gt;fix_config</title>
<path fill="none" stroke="black" stroke-dasharray="5,2" d="M881.13,-3288.94C896.9,-3272.84 916.68,-3252.5 934.12,-3234.16 953.88,-3213.36 975.77,-3189.77 993.02,-3171.07"/>
<polygon fill="black" stroke="black" points="995.37,-3173.68 999.57,-3163.95 990.22,-3168.94 995.37,-3173.68"/>
<text xml:space="preserve" text-anchor="middle" x="926.8" y="-3253.91" font-family="Helvetica,sans-Serif" font-size="10.00">false</text>
</g>
<!-- check_dependencies -->
<g id="node4" class="node">
<title>check_dependencies</title>
<polygon fill="#e8f5e9" stroke="black" points="925.55,-3234.16 681.47,-3234.16 618.68,-3038.16 862.76,-3038.16 925.55,-3234.16"/>
<text xml:space="preserve" text-anchor="middle" x="772.12" y="-3167.86" font-family="Helvetica,sans-Serif" font-size="14.00">Check Dependencies</text>
<text xml:space="preserve" text-anchor="middle" x="772.12" y="-3152.86" font-family="Helvetica,sans-Serif" font-size="14.00">(compute)</text>
<text xml:space="preserve" text-anchor="middle" x="772.12" y="-3137.86" font-family="Helvetica,sans-Serif" font-size="14.00">exec: in&#45;process</text>
<text xml:space="preserve" text-anchor="middle" x="772.12" y="-3122.86" font-family="Helvetica,sans-Serif" font-size="14.00">handler: parallel_tools</text>
<text xml:space="preserve" text-anchor="middle" x="772.12" y="-3107.86" font-family="Helvetica,sans-Serif" font-size="14.00">blocked: [llm, write]</text>
<text xml:space="preserve" text-anchor="middle" x="772.12" y="-3092.86" font-family="Helvetica,sans-Serif" font-size="14.00">timeout: 120s</text>
</g>
<!-- check_config&#45;&gt;check_dependencies -->
<g id="edge2" class="edge">
<title>check_config&#45;&gt;check_dependencies</title>
<path fill="none" stroke="black" stroke-dasharray="5,2" d="M837.44,-3285.16C832.24,-3273.37 826.06,-3259.38 819.62,-3244.78"/>
<polygon fill="black" stroke="black" points="822.97,-3243.71 815.73,-3235.97 816.57,-3246.53 822.97,-3243.71"/>
<text xml:space="preserve" text-anchor="middle" x="834.49" y="-3253.91" font-family="Helvetica,sans-Serif" font-size="10.00">true</text>
</g>
<!-- fix_config&#45;&gt;validate_config -->
<g id="edge4" class="edge">
<title>fix_config&#45;&gt;validate_config</title>
<path fill="none" stroke="black" d="M1025.37,-3162.93C1026.65,-3204.75 1026.06,-3289.56 1005.12,-3357.41 1002.43,-3366.1 999.04,-3374.87 995.23,-3383.49"/>
<polygon fill="black" stroke="black" points="992.06,-3381.99 991.01,-3392.54 998.41,-3384.95 992.06,-3381.99"/>
</g>
<!-- verify_dependencies -->
<g id="node5" class="node">
<title>verify_dependencies</title>
<polygon fill="#fff3e0" stroke="black" points="688.12,-3001.16 547.62,-2963.16 688.12,-2925.16 828.62,-2963.16 688.12,-3001.16"/>
<text xml:space="preserve" text-anchor="middle" x="688.12" y="-2964.86" font-family="Helvetica,sans-Serif" font-size="14.00">Verify Dependencies</text>
<text xml:space="preserve" text-anchor="middle" x="688.12" y="-2949.86" font-family="Helvetica,sans-Serif" font-size="14.00">(condition)</text>
</g>
<!-- check_dependencies&#45;&gt;verify_dependencies -->
<g id="edge5" class="edge">
<title>check_dependencies&#45;&gt;verify_dependencies</title>
<path fill="none" stroke="black" d="M724.23,-3037.67C719.03,-3027.1 713.96,-3016.77 709.34,-3007.36"/>
<polygon fill="black" stroke="black" points="712.55,-3005.96 705,-2998.52 706.26,-3009.04 712.55,-3005.96"/>
</g>
<!-- resolve_dependencies -->
<g id="node6" class="node">
<title>resolve_dependencies</title>
<ellipse fill="#ffebee" stroke="black" cx="857.12" cy="-2794.91" rx="144.96" ry="37.48"/>
<text xml:space="preserve" text-anchor="middle" x="857.12" y="-2804.11" font-family="Helvetica,sans-Serif" font-size="14.00">Resolve Missing Dependencies</text>
<text xml:space="preserve" text-anchor="middle" x="857.12" y="-2789.11" font-family="Helvetica,sans-Serif" font-size="14.00">(hitl)</text>
<text xml:space="preserve" text-anchor="middle" x="857.12" y="-2774.11" font-family="Helvetica,sans-Serif" font-size="14.00">timeout: 1800s</text>
</g>
<!-- verify_dependencies&#45;&gt;resolve_dependencies -->
<g id="edge7" class="edge">
<title>verify_dependencies&#45;&gt;resolve_dependencies</title>
<path fill="none" stroke="black" stroke-dasharray="5,2" d="M717.94,-2932.82C744.18,-2907 782.76,-2869.05 812.65,-2839.65"/>
<polygon fill="black" stroke="black" points="815.08,-2842.17 819.75,-2832.66 810.17,-2837.18 815.08,-2842.17"/>
<text xml:space="preserve" text-anchor="middle" x="763.01" y="-2897.66" font-family="Helvetica,sans-Serif" font-size="10.00">false</text>
</g>
<!-- backup_current -->
<g id="node7" class="node">
<title>backup_current</title>
<polygon fill="#e8f5e9" stroke="black" points="694.21,-2877.91 387.04,-2877.91 308.02,-2711.91 615.19,-2711.91 694.21,-2877.91"/>
<text xml:space="preserve" text-anchor="middle" x="501.12" y="-2819.11" font-family="Helvetica,sans-Serif" font-size="14.00">Backup Current Deployment</text>
<text xml:space="preserve" text-anchor="middle" x="501.12" y="-2804.11" font-family="Helvetica,sans-Serif" font-size="14.00">(compute)</text>
<text xml:space="preserve" text-anchor="middle" x="501.12" y="-2789.11" font-family="Helvetica,sans-Serif" font-size="14.00">exec: in&#45;process</text>
<text xml:space="preserve" text-anchor="middle" x="501.12" y="-2774.11" font-family="Helvetica,sans-Serif" font-size="14.00">blocked: [llm]</text>
<text xml:space="preserve" text-anchor="middle" x="501.12" y="-2759.11" font-family="Helvetica,sans-Serif" font-size="14.00">timeout: 300s</text>
</g>
<!-- verify_dependencies&#45;&gt;backup_current -->
<g id="edge6" class="edge">
<title>verify_dependencies&#45;&gt;backup_current</title>
<path fill="none" stroke="black" stroke-dasharray="5,2" d="M655.97,-2933.58C640.71,-2920.01 621.55,-2902.97 601.95,-2885.55"/>
<polygon fill="black" stroke="black" points="604.47,-2883.11 594.67,-2879.08 599.82,-2888.34 604.47,-2883.11"/>
<text xml:space="preserve" text-anchor="middle" x="630.54" y="-2897.66" font-family="Helvetica,sans-Serif" font-size="10.00">true</text>
</g>
<!-- resolve_dependencies&#45;&gt;check_dependencies -->
<g id="edge8" class="edge">
<title>resolve_dependencies&#45;&gt;check_dependencies</title>
<path fill="none" stroke="black" d="M857.7,-2832.6C857.46,-2874.24 854.29,-2943.81 838.12,-3001.16 835.66,-3009.85 832.65,-3018.66 829.29,-3027.39"/>
<polygon fill="black" stroke="black" points="826.07,-3026.01 825.58,-3036.59 832.57,-3028.62 826.07,-3026.01"/>
</g>
<!-- approval_gate -->
<g id="node8" class="node">
<title>approval_gate</title>
<ellipse fill="#ffebee" stroke="black" cx="501.12" cy="-2637.43" rx="103.06" ry="37.48"/>
<text xml:space="preserve" text-anchor="middle" x="501.12" y="-2646.63" font-family="Helvetica,sans-Serif" font-size="14.00">Deployment Approval</text>
<text xml:space="preserve" text-anchor="middle" x="501.12" y="-2631.63" font-family="Helvetica,sans-Serif" font-size="14.00">(hitl)</text>
<text xml:space="preserve" text-anchor="middle" x="501.12" y="-2616.63" font-family="Helvetica,sans-Serif" font-size="14.00">timeout: 900s</text>
</g>
<!-- backup_current&#45;&gt;approval_gate -->
<g id="edge9" class="edge">
<title>backup_current&#45;&gt;approval_gate</title>
<path fill="none" stroke="black" d="M501.12,-2711.62C501.12,-2703 501.12,-2694.46 501.12,-2686.43"/>
<polygon fill="black" stroke="black" points="504.62,-2686.57 501.12,-2676.57 497.62,-2686.57 504.62,-2686.57"/>
</g>
<!-- deploy -->
<g id="node9" class="node">
<title>deploy</title>
<polygon fill="#e8f5e9" stroke="black" points="647.56,-2562.95 414.6,-2562.95 354.67,-2396.95 587.63,-2396.95 647.56,-2562.95"/>
<text xml:space="preserve" text-anchor="middle" x="501.12" y="-2504.15" font-family="Helvetica,sans-Serif" font-size="14.00">Execute Deployment</text>
<text xml:space="preserve" text-anchor="middle" x="501.12" y="-2489.15" font-family="Helvetica,sans-Serif" font-size="14.00">(compute)</text>
<text xml:space="preserve" text-anchor="middle" x="501.12" y="-2474.15" font-family="Helvetica,sans-Serif" font-size="14.00">exec: in&#45;process</text>
<text xml:space="preserve" text-anchor="middle" x="501.12" y="-2459.15" font-family="Helvetica,sans-Serif" font-size="14.00">blocked: [llm]</text>
<text xml:space="preserve" text-anchor="middle" x="501.12" y="-2444.15" font-family="Helvetica,sans-Serif" font-size="14.00">timeout: 600s</text>
</g>
<!-- approval_gate&#45;&gt;deploy -->
<g id="edge10" class="edge">
<title>approval_gate&#45;&gt;deploy</title>
<path fill="none" stroke="black" d="M501.12,-2599.58C501.12,-2591.82 501.12,-2583.29 501.12,-2574.48"/>
<polygon fill="black" stroke="black" points="504.62,-2574.72 501.12,-2564.72 497.62,-2574.72 504.62,-2574.72"/>
</g>
<!-- check_deploy -->
<g id="node10" class="node">
<title>check_deploy</title>
<polygon fill="#fff3e0" stroke="black" points="501.12,-2359.95 328.37,-2321.95 501.12,-2283.95 673.87,-2321.95 501.12,-2359.95"/>
<text xml:space="preserve" text-anchor="middle" x="501.12" y="-2323.65" font-family="Helvetica,sans-Serif" font-size="14.00">Check Deployment Status</text>
<text xml:space="preserve" text-anchor="middle" x="501.12" y="-2308.65" font-family="Helvetica,sans-Serif" font-size="14.00">(condition)</text>
</g>
<!-- deploy&#45;&gt;check_deploy -->
<g id="edge11" class="edge">
<title>deploy&#45;&gt;check_deploy</title>
<path fill="none" stroke="black" d="M501.12,-2396.84C501.12,-2388.26 501.12,-2379.75 501.12,-2371.71"/>
<polygon fill="black" stroke="black" points="504.62,-2371.86 501.12,-2361.86 497.62,-2371.86 504.62,-2371.86"/>
</g>
<!-- health_check -->
<g id="node11" class="node">
<title>health_check</title>
<polygon fill="#e8f5e9" stroke="black" points="578.66,-2236.7 285.09,-2236.7 209.57,-2040.7 503.14,-2040.7 578.66,-2236.7"/>
<text xml:space="preserve" text-anchor="middle" x="394.12" y="-2170.4" font-family="Helvetica,sans-Serif" font-size="14.00">Run Health Checks</text>
<text xml:space="preserve" text-anchor="middle" x="394.12" y="-2155.4" font-family="Helvetica,sans-Serif" font-size="14.00">(compute)</text>
<text xml:space="preserve" text-anchor="middle" x="394.12" y="-2140.4" font-family="Helvetica,sans-Serif" font-size="14.00">exec: in&#45;process</text>
<text xml:space="preserve" text-anchor="middle" x="394.12" y="-2125.4" font-family="Helvetica,sans-Serif" font-size="14.00">handler: retry_with_backoff</text>
<text xml:space="preserve" text-anchor="middle" x="394.12" y="-2110.4" font-family="Helvetica,sans-Serif" font-size="14.00">blocked: [llm, write]</text>
<text xml:space="preserve" text-anchor="middle" x="394.12" y="-2095.4" font-family="Helvetica,sans-Serif" font-size="14.00">timeout: 300s</text>
</g>
<!-- check_deploy&#45;&gt;health_check -->
<g id="edge12" class="edge">
<title>check_deploy&#45;&gt;health_check</title>
<path fill="none" stroke="black" stroke-dasharray="5,2" d="M481.74,-2288.13C474.67,-2276.16 466.25,-2261.89 457.45,-2246.99"/>
<polygon fill="black" stroke="black" points="460.5,-2245.27 452.4,-2238.43 454.47,-2248.83 460.5,-2245.27"/>
<text xml:space="preserve" text-anchor="middle" x="474.76" y="-2256.45" font-family="Helvetica,sans-Serif" font-size="10.00">true</text>
</g>
<!-- rollback -->
<g id="node18" class="node">
<title>rollback</title>
<polygon fill="#e8f5e9" stroke="black" points="651.45,-1218.75 434.57,-1218.75 378.78,-1052.75 595.66,-1052.75 651.45,-1218.75"/>
<text xml:space="preserve" text-anchor="middle" x="515.12" y="-1159.95" font-family="Helvetica,sans-Serif" font-size="14.00">Execute Rollback</text>
<text xml:space="preserve" text-anchor="middle" x="515.12" y="-1144.95" font-family="Helvetica,sans-Serif" font-size="14.00">(compute)</text>
<text xml:space="preserve" text-anchor="middle" x="515.12" y="-1129.95" font-family="Helvetica,sans-Serif" font-size="14.00">exec: in&#45;process</text>
<text xml:space="preserve" text-anchor="middle" x="515.12" y="-1114.95" font-family="Helvetica,sans-Serif" font-size="14.00">blocked: [llm, write]</text>
<text xml:space="preserve" text-anchor="middle" x="515.12" y="-1099.95" font-family="Helvetica,sans-Serif" font-size="14.00">timeout: 300s</text>
</g>
<!-- check_deploy&#45;&gt;rollback -->
<g id="edge13" class="edge">
<title>check_deploy&#45;&gt;rollback</title>
<path fill="none" stroke="black" stroke-dasharray="5,2" d="M540.27,-2292.15C557.52,-2277.44 576.48,-2258.14 588.12,-2236.7 609.08,-2198.1 607.12,-2183.63 607.12,-2139.7 607.12,-2139.7 607.12,-2139.7 607.12,-1303 607.12,-1277.43 598.68,-1252.09 586.91,-1229.2"/>
<polygon fill="black" stroke="black" points="590.06,-1227.66 582.21,-1220.54 583.9,-1231 590.06,-1227.66"/>
<text xml:space="preserve" text-anchor="middle" x="617.62" y="-1749.1" font-family="Helvetica,sans-Serif" font-size="10.00">false</text>
</g>
<!-- verify_health -->
<g id="node12" class="node">
<title>verify_health</title>
<polygon fill="#fff3e0" stroke="black" points="344.12,-2003.7 208.87,-1965.7 344.12,-1927.7 479.37,-1965.7 344.12,-2003.7"/>
<text xml:space="preserve" text-anchor="middle" x="344.12" y="-1967.4" font-family="Helvetica,sans-Serif" font-size="14.00">Verify Health Status</text>
<text xml:space="preserve" text-anchor="middle" x="344.12" y="-1952.4" font-family="Helvetica,sans-Serif" font-size="14.00">(condition)</text>
</g>
<!-- health_check&#45;&gt;verify_health -->
<g id="edge14" class="edge">
<title>health_check&#45;&gt;verify_health</title>
<path fill="none" stroke="black" d="M365.61,-2040.22C362.74,-2030.41 359.94,-2020.81 357.35,-2011.96"/>
<polygon fill="black" stroke="black" points="360.79,-2011.26 354.62,-2002.64 354.07,-2013.23 360.79,-2011.26"/>
</g>
<!-- investigate_health -->
<g id="node13" class="node">
<title>investigate_health</title>
<path fill="#e3f2fd" stroke="black" d="M434.49,-1880.45C434.49,-1880.45 291.74,-1880.45 291.74,-1880.45 285.74,-1880.45 279.74,-1874.45 279.74,-1868.45 279.74,-1868.45 279.74,-1839.45 279.74,-1839.45 279.74,-1833.45 285.74,-1827.45 291.74,-1827.45 291.74,-1827.45 434.49,-1827.45 434.49,-1827.45 440.49,-1827.45 446.49,-1833.45 446.49,-1839.45 446.49,-1839.45 446.49,-1868.45 446.49,-1868.45 446.49,-1874.45 440.49,-1880.45 434.49,-1880.45"/>
<text xml:space="preserve" text-anchor="middle" x="363.12" y="-1863.15" font-family="Helvetica,sans-Serif" font-size="14.00">Investigate Health Issues</text>
<text xml:space="preserve" text-anchor="middle" x="363.12" y="-1848.15" font-family="Helvetica,sans-Serif" font-size="14.00">(agent)</text>
<text xml:space="preserve" text-anchor="middle" x="363.12" y="-1833.15" font-family="Helvetica,sans-Serif" font-size="14.00">role: analyst</text>
</g>
<!-- verify_health&#45;&gt;investigate_health -->
<g id="edge16" class="edge">
<title>verify_health&#45;&gt;investigate_health</title>
<path fill="none" stroke="black" stroke-dasharray="5,2" d="M350.28,-1929.07C352.35,-1917.12 354.66,-1903.77 356.75,-1891.73"/>
<polygon fill="black" stroke="black" points="360.15,-1892.62 358.4,-1882.17 353.25,-1891.43 360.15,-1892.62"/>
<text xml:space="preserve" text-anchor="middle" x="365.82" y="-1900.2" font-family="Helvetica,sans-Serif" font-size="10.00">false</text>
</g>
<!-- smoke_tests -->
<g id="node16" class="node">
<title>smoke_tests</title>
<polygon fill="#e8f5e9" stroke="black" points="487.45,-1555.25 270.57,-1555.25 214.78,-1389.25 431.66,-1389.25 487.45,-1555.25"/>
<text xml:space="preserve" text-anchor="middle" x="351.12" y="-1496.45" font-family="Helvetica,sans-Serif" font-size="14.00">Run Smoke Tests</text>
<text xml:space="preserve" text-anchor="middle" x="351.12" y="-1481.45" font-family="Helvetica,sans-Serif" font-size="14.00">(compute)</text>
<text xml:space="preserve" text-anchor="middle" x="351.12" y="-1466.45" font-family="Helvetica,sans-Serif" font-size="14.00">exec: in&#45;process</text>
<text xml:space="preserve" text-anchor="middle" x="351.12" y="-1451.45" font-family="Helvetica,sans-Serif" font-size="14.00">blocked: [llm, write]</text>
<text xml:space="preserve" text-anchor="middle" x="351.12" y="-1436.45" font-family="Helvetica,sans-Serif" font-size="14.00">timeout: 300s</text>
</g>
<!-- verify_health&#45;&gt;smoke_tests -->
<g id="edge15" class="edge">
<title>verify_health&#45;&gt;smoke_tests</title>
<path fill="none" stroke="black" stroke-dasharray="5,2" d="M297.81,-1940.27C268.89,-1921.33 237.12,-1892.08 237.12,-1854.95 237.12,-1854.95 237.12,-1854.95 237.12,-1639.5 237.12,-1611.82 248,-1585.37 263.04,-1562.04"/>
<polygon fill="black" stroke="black" points="265.9,-1564.06 268.63,-1553.82 260.11,-1560.12 265.9,-1564.06"/>
<text xml:space="preserve" text-anchor="middle" x="245.37" y="-1749.1" font-family="Helvetica,sans-Serif" font-size="10.00">true</text>
</g>
<!-- health_decision -->
<g id="node14" class="node">
<title>health_decision</title>
<ellipse fill="#ffebee" stroke="black" cx="375.12" cy="-1752.98" rx="103.59" ry="37.48"/>
<text xml:space="preserve" text-anchor="middle" x="375.12" y="-1762.18" font-family="Helvetica,sans-Serif" font-size="14.00">Health Issue Decision</text>
<text xml:space="preserve" text-anchor="middle" x="375.12" y="-1747.18" font-family="Helvetica,sans-Serif" font-size="14.00">(hitl)</text>
<text xml:space="preserve" text-anchor="middle" x="375.12" y="-1732.18" font-family="Helvetica,sans-Serif" font-size="14.00">timeout: 600s</text>
</g>
<!-- investigate_health&#45;&gt;health_decision -->
<g id="edge17" class="edge">
<title>investigate_health&#45;&gt;health_decision</title>
<path fill="none" stroke="black" d="M366.24,-1827.21C367.17,-1819.48 368.23,-1810.74 369.29,-1802.06"/>
<polygon fill="black" stroke="black" points="372.74,-1802.62 370.47,-1792.28 365.79,-1801.78 372.74,-1802.62"/>
</g>
<!-- handle_health_decision -->
<g id="node15" class="node">
<title>handle_health_decision</title>
<polygon fill="#fff3e0" stroke="black" points="422.12,-1678.5 265.12,-1640.5 422.12,-1602.5 579.12,-1640.5 422.12,-1678.5"/>
<text xml:space="preserve" text-anchor="middle" x="422.12" y="-1642.2" font-family="Helvetica,sans-Serif" font-size="14.00">Handle Health Decision</text>
<text xml:space="preserve" text-anchor="middle" x="422.12" y="-1627.2" font-family="Helvetica,sans-Serif" font-size="14.00">(condition)</text>
</g>
<!-- health_decision&#45;&gt;handle_health_decision -->
<g id="edge18" class="edge">
<title>health_decision&#45;&gt;handle_health_decision</title>
<path fill="none" stroke="black" d="M390.64,-1715.5C394.68,-1705.99 399.08,-1695.64 403.28,-1685.78"/>
<polygon fill="black" stroke="black" points="406.44,-1687.29 407.13,-1676.72 400,-1684.55 406.44,-1687.29"/>
</g>
<!-- handle_health_decision&#45;&gt;health_check -->
<g id="edge21" class="edge">
<title>handle_health_decision&#45;&gt;health_check</title>
<path fill="none" stroke="black" stroke-dasharray="5,2" d="M460.14,-1669.43C482.77,-1689.51 507.12,-1718.82 507.12,-1751.98 507.12,-1966.7 507.12,-1966.7 507.12,-1966.7 507.12,-1988.93 500.39,-2010.48 490.22,-2030.37"/>
<polygon fill="black" stroke="black" points="487.24,-2028.53 485.52,-2038.98 493.38,-2031.89 487.24,-2028.53"/>
<text xml:space="preserve" text-anchor="middle" x="519.12" y="-1850.08" font-family="Helvetica,sans-Serif" font-size="10.00">Retry</text>
</g>
<!-- handle_health_decision&#45;&gt;smoke_tests -->
<g id="edge19" class="edge">
<title>handle_health_decision&#45;&gt;smoke_tests</title>
<path fill="none" stroke="black" stroke-dasharray="5,2" d="M407.75,-1605.86C402.73,-1594.1 396.82,-1580.26 390.75,-1566.05"/>
<polygon fill="black" stroke="black" points="394.05,-1564.87 386.9,-1557.04 387.61,-1567.62 394.05,-1564.87"/>
<text xml:space="preserve" text-anchor="middle" x="416.62" y="-1575" font-family="Helvetica,sans-Serif" font-size="10.00">Continue</text>
</g>
<!-- handle_health_decision&#45;&gt;rollback -->
<g id="edge20" class="edge">
<title>handle_health_decision&#45;&gt;rollback</title>
<path fill="none" stroke="black" stroke-dasharray="5,2" d="M456.34,-1610.64C471.41,-1595.79 487.6,-1576.38 496.12,-1555.25 538.5,-1450.07 536.3,-1317.77 528.11,-1230.4"/>
<polygon fill="black" stroke="black" points="531.61,-1230.29 527.15,-1220.68 524.65,-1230.98 531.61,-1230.29"/>
<text xml:space="preserve" text-anchor="middle" x="551.39" y="-1361.75" font-family="Helvetica,sans-Serif" font-size="10.00">Rollback</text>
</g>
<!-- verify_smoke -->
<g id="node17" class="node">
<title>verify_smoke</title>
<polygon fill="#fff3e0" stroke="black" points="351.12,-1342 218.87,-1304 351.12,-1266 483.37,-1304 351.12,-1342"/>
<text xml:space="preserve" text-anchor="middle" x="351.12" y="-1305.7" font-family="Helvetica,sans-Serif" font-size="14.00">Verify Smoke Tests</text>
<text xml:space="preserve" text-anchor="middle" x="351.12" y="-1290.7" font-family="Helvetica,sans-Serif" font-size="14.00">(condition)</text>
</g>
<!-- smoke_tests&#45;&gt;verify_smoke -->
<g id="edge22" class="edge">
<title>smoke_tests&#45;&gt;verify_smoke</title>
<path fill="none" stroke="black" d="M351.12,-1389.1C351.12,-1376.96 351.12,-1364.79 351.12,-1353.62"/>
<polygon fill="black" stroke="black" points="354.62,-1353.91 351.12,-1343.91 347.62,-1353.91 354.62,-1353.91"/>
</g>
<!-- verify_smoke&#45;&gt;rollback -->
<g id="edge24" class="edge">
<title>verify_smoke&#45;&gt;rollback</title>
<path fill="none" stroke="black" stroke-dasharray="5,2" d="M379.68,-1274.04C392.97,-1260.57 409.58,-1243.73 426.56,-1226.52"/>
<polygon fill="black" stroke="black" points="428.79,-1229.24 433.32,-1219.67 423.81,-1224.33 428.79,-1229.24"/>
<text xml:space="preserve" text-anchor="middle" x="424.1" y="-1238.5" font-family="Helvetica,sans-Serif" font-size="10.00">false</text>
</g>
<!-- complete -->
<g id="node22" class="node">
<title>complete</title>
<polygon fill="#f3e5f5" stroke="black" points="442.37,-633.5 283.87,-633.5 283.87,-595.5 442.37,-595.5 442.37,-633.5"/>
<polygon fill="none" stroke="black" points="446.37,-637.5 279.87,-637.5 279.87,-591.5 446.37,-591.5 446.37,-637.5"/>
<text xml:space="preserve" text-anchor="middle" x="363.12" y="-616.2" font-family="Helvetica,sans-Serif" font-size="14.00">Post&#45;Deployment Tasks</text>
<text xml:space="preserve" text-anchor="middle" x="363.12" y="-601.2" font-family="Helvetica,sans-Serif" font-size="14.00">(parallel)</text>
</g>
<!-- verify_smoke&#45;&gt;complete -->
<g id="edge23" class="edge">
<title>verify_smoke&#45;&gt;complete</title>
<path fill="none" stroke="black" stroke-dasharray="5,2" d="M351.12,-1265.69C351.12,-1232 351.12,-1181.05 351.12,-1136.75 351.12,-1136.75 351.12,-1136.75 351.12,-692.5 351.12,-678.16 353.17,-662.5 355.58,-649.07"/>
<polygon fill="black" stroke="black" points="358.99,-649.9 357.46,-639.42 352.11,-648.56 358.99,-649.9"/>
<text xml:space="preserve" text-anchor="middle" x="359.37" y="-822.25" font-family="Helvetica,sans-Serif" font-size="10.00">true</text>
</g>
<!-- verify_rollback -->
<g id="node19" class="node">
<title>verify_rollback</title>
<polygon fill="#e8f5e9" stroke="black" points="651.45,-1015.75 434.57,-1015.75 378.78,-849.75 595.66,-849.75 651.45,-1015.75"/>
<text xml:space="preserve" text-anchor="middle" x="515.12" y="-956.95" font-family="Helvetica,sans-Serif" font-size="14.00">Verify Rollback</text>
<text xml:space="preserve" text-anchor="middle" x="515.12" y="-941.95" font-family="Helvetica,sans-Serif" font-size="14.00">(compute)</text>
<text xml:space="preserve" text-anchor="middle" x="515.12" y="-926.95" font-family="Helvetica,sans-Serif" font-size="14.00">exec: in&#45;process</text>
<text xml:space="preserve" text-anchor="middle" x="515.12" y="-911.95" font-family="Helvetica,sans-Serif" font-size="14.00">blocked: [llm, write]</text>
<text xml:space="preserve" text-anchor="middle" x="515.12" y="-896.95" font-family="Helvetica,sans-Serif" font-size="14.00">timeout: 120s</text>
</g>
<!-- rollback&#45;&gt;verify_rollback -->
<g id="edge25" class="edge">
<title>rollback&#45;&gt;verify_rollback</title>
<path fill="none" stroke="black" d="M515.12,-1052.42C515.12,-1044.14 515.12,-1035.7 515.12,-1027.32"/>
<polygon fill="black" stroke="black" points="518.62,-1027.47 515.12,-1017.47 511.62,-1027.47 518.62,-1027.47"/>
</g>
<!-- notify_rollback -->
<g id="node20" class="node">
<title>notify_rollback</title>
<path fill="#e3f2fd" stroke="black" d="M564.49,-802.5C564.49,-802.5 415.74,-802.5 415.74,-802.5 409.74,-802.5 403.74,-796.5 403.74,-790.5 403.74,-790.5 403.74,-761.5 403.74,-761.5 403.74,-755.5 409.74,-749.5 415.74,-749.5 415.74,-749.5 564.49,-749.5 564.49,-749.5 570.49,-749.5 576.49,-755.5 576.49,-761.5 576.49,-761.5 576.49,-790.5 576.49,-790.5 576.49,-796.5 570.49,-802.5 564.49,-802.5"/>
<text xml:space="preserve" text-anchor="middle" x="490.12" y="-785.2" font-family="Helvetica,sans-Serif" font-size="14.00">Generate Rollback Report</text>
<text xml:space="preserve" text-anchor="middle" x="490.12" y="-770.2" font-family="Helvetica,sans-Serif" font-size="14.00">(agent)</text>
<text xml:space="preserve" text-anchor="middle" x="490.12" y="-755.2" font-family="Helvetica,sans-Serif" font-size="14.00">role: writer</text>
</g>
<!-- verify_rollback&#45;&gt;notify_rollback -->
<g id="edge26" class="edge">
<title>verify_rollback&#45;&gt;notify_rollback</title>
<path fill="none" stroke="black" d="M501.81,-849.39C499.81,-836.99 497.83,-824.75 496.09,-813.98"/>
<polygon fill="black" stroke="black" points="499.59,-813.72 494.54,-804.41 492.68,-814.84 499.59,-813.72"/>
</g>
<!-- failed -->
<g id="node21" class="node">
<title>failed</title>
<polygon fill="#eceff1" stroke="black" points="518.74,-712.5 389.49,-712.5 389.49,-674.5 518.74,-674.5 518.74,-712.5"/>
<text xml:space="preserve" text-anchor="middle" x="454.12" y="-695.2" font-family="Helvetica,sans-Serif" font-size="14.00">Deployment Failed</text>
<text xml:space="preserve" text-anchor="middle" x="454.12" y="-680.2" font-family="Helvetica,sans-Serif" font-size="14.00">(transform)</text>
</g>
<!-- notify_rollback&#45;&gt;failed -->
<g id="edge27" class="edge">
<title>notify_rollback&#45;&gt;failed</title>
<path fill="none" stroke="black" d="M478.53,-749.09C474.87,-740.9 470.8,-731.81 467.06,-723.44"/>
<polygon fill="black" stroke="black" points="470.27,-722.05 462.99,-714.35 463.88,-724.91 470.27,-722.05"/>
</g>
<!-- failed&#45;&gt;complete -->
<g id="edge28" class="edge">
<title>failed&#45;&gt;complete</title>
<path fill="none" stroke="black" d="M432.55,-674.25C422.25,-665.53 409.65,-654.88 398.04,-645.05"/>
<polygon fill="black" stroke="black" points="400.45,-642.5 390.55,-638.72 395.92,-647.85 400.45,-642.5"/>
</g>
<!-- update_monitoring -->
<g id="node23" class="node">
<title>update_monitoring</title>
<polygon fill="#e8f5e9" stroke="black" points="370.45,-544.25 153.57,-544.25 97.78,-378.25 314.66,-378.25 370.45,-544.25"/>
<text xml:space="preserve" text-anchor="middle" x="234.12" y="-485.45" font-family="Helvetica,sans-Serif" font-size="14.00">Update Monitoring</text>
<text xml:space="preserve" text-anchor="middle" x="234.12" y="-470.45" font-family="Helvetica,sans-Serif" font-size="14.00">(compute)</text>
<text xml:space="preserve" text-anchor="middle" x="234.12" y="-455.45" font-family="Helvetica,sans-Serif" font-size="14.00">exec: in&#45;process</text>
<text xml:space="preserve" text-anchor="middle" x="234.12" y="-440.45" font-family="Helvetica,sans-Serif" font-size="14.00">blocked: [llm, write]</text>
<text xml:space="preserve" text-anchor="middle" x="234.12" y="-425.45" font-family="Helvetica,sans-Serif" font-size="14.00">timeout: 60s</text>
</g>
<!-- complete&#45;&gt;update_monitoring -->
<g id="edge29" class="edge">
<title>complete&#45;&gt;update_monitoring</title>
<path fill="none" stroke="black" d="M344.08,-591.18C335.06,-580.6 323.62,-567.19 311.55,-553.05"/>
<polygon fill="black" stroke="black" points="314.52,-551.13 305.37,-545.8 309.2,-555.68 314.52,-551.13"/>
<text xml:space="preserve" text-anchor="middle" x="336.77" y="-564" font-family="Helvetica,sans-Serif" font-size="10.00">fork</text>
</g>
<!-- notify_success -->
<g id="node24" class="node">
<title>notify_success</title>
<polygon fill="#e8f5e9" stroke="black" points="436.21,-331 151.31,-331 78.02,-165 362.92,-165 436.21,-331"/>
<text xml:space="preserve" text-anchor="middle" x="257.12" y="-272.2" font-family="Helvetica,sans-Serif" font-size="14.00">Send Success Notification</text>
<text xml:space="preserve" text-anchor="middle" x="257.12" y="-257.2" font-family="Helvetica,sans-Serif" font-size="14.00">(compute)</text>
<text xml:space="preserve" text-anchor="middle" x="257.12" y="-242.2" font-family="Helvetica,sans-Serif" font-size="14.00">exec: in&#45;process</text>
<text xml:space="preserve" text-anchor="middle" x="257.12" y="-227.2" font-family="Helvetica,sans-Serif" font-size="14.00">blocked: [llm, write]</text>
<text xml:space="preserve" text-anchor="middle" x="257.12" y="-212.2" font-family="Helvetica,sans-Serif" font-size="14.00">timeout: 30s</text>
</g>
<!-- complete&#45;&gt;notify_success -->
<g id="edge30" class="edge">
<title>complete&#45;&gt;notify_success</title>
<path fill="none" stroke="black" d="M370.85,-591.11C384.38,-548.1 408.29,-451.67 379.12,-378.25 373.8,-364.88 366.38,-352.1 357.79,-340.13"/>
<polygon fill="black" stroke="black" points="360.74,-338.22 351.92,-332.34 355.15,-342.43 360.74,-338.22"/>
<text xml:space="preserve" text-anchor="middle" x="401.21" y="-457.38" font-family="Helvetica,sans-Serif" font-size="10.00">fork</text>
</g>
<!-- update_docs -->
<g id="node25" class="node">
<title>update_docs</title>
<path fill="#e3f2fd" stroke="black" d="M330.37,-128C330.37,-128 183.87,-128 183.87,-128 177.87,-128 171.87,-122 171.87,-116 171.87,-116 171.87,-87 171.87,-87 171.87,-81 177.87,-75 183.87,-75 183.87,-75 330.37,-75 330.37,-75 336.37,-75 342.37,-81 342.37,-87 342.37,-87 342.37,-116 342.37,-116 342.37,-122 336.37,-128 330.37,-128"/>
<text xml:space="preserve" text-anchor="middle" x="257.12" y="-110.7" font-family="Helvetica,sans-Serif" font-size="14.00">Update Deployment Docs</text>
<text xml:space="preserve" text-anchor="middle" x="257.12" y="-95.7" font-family="Helvetica,sans-Serif" font-size="14.00">(agent)</text>
<text xml:space="preserve" text-anchor="middle" x="257.12" y="-80.7" font-family="Helvetica,sans-Serif" font-size="14.00">role: writer</text>
</g>
<!-- complete&#45;&gt;update_docs -->
<g id="edge31" class="edge">
<title>complete&#45;&gt;update_docs</title>
<path fill="none" stroke="black" d="M279.68,-603.05C208.47,-592.3 113.77,-573.03 89.12,-544.25 -20.7,-416.07 -29.63,-301.89 69.12,-165 90.36,-135.55 126.06,-119.76 160.67,-111.37"/>
<polygon fill="black" stroke="black" points="161.36,-114.8 170.37,-109.23 159.85,-107.97 161.36,-114.8"/>
<text xml:space="preserve" text-anchor="middle" x="9.24" y="-350.75" font-family="Helvetica,sans-Serif" font-size="10.00">fork</text>
</g>
<!-- done -->
<g id="node26" class="node">
<title>done</title>
<polygon fill="#eceff1" stroke="black" points="439.62,-38 288.62,-38 288.62,0 439.62,0 439.62,-38"/>
<text xml:space="preserve" text-anchor="middle" x="364.12" y="-20.7" font-family="Helvetica,sans-Serif" font-size="14.00">Deployment Complete</text>
<text xml:space="preserve" text-anchor="middle" x="364.12" y="-5.7" font-family="Helvetica,sans-Serif" font-size="14.00">(transform)</text>
</g>
<!-- complete&#45;&gt;done -->
<g id="edge32" class="edge">
<title>complete&#45;&gt;done</title>
<path fill="none" stroke="black" d="M393.19,-591.21C425.45,-564.49 472.12,-516.46 472.12,-462.25 472.12,-462.25 472.12,-462.25 472.12,-100.5 472.12,-74.83 452.26,-56.38 429.58,-43.67"/>
<polygon fill="black" stroke="black" points="431.22,-40.57 420.73,-39.09 428,-46.79 431.22,-40.57"/>
<text xml:space="preserve" text-anchor="middle" x="479.62" y="-244.12" font-family="Helvetica,sans-Serif" font-size="10.00">join</text>
</g>
<!-- update_monitoring&#45;&gt;notify_success -->
<g id="edge33" class="edge">
<title>update_monitoring&#45;&gt;notify_success</title>
<path fill="none" stroke="black" d="M243.07,-377.97C244.34,-366.38 245.64,-354.4 246.92,-342.62"/>
<polygon fill="black" stroke="black" points="250.38,-343.23 247.98,-332.91 243.42,-342.47 250.38,-343.23"/>
</g>
<!-- notify_success&#45;&gt;update_docs -->
<g id="edge34" class="edge">
<title>notify_success&#45;&gt;update_docs</title>
<path fill="none" stroke="black" d="M257.12,-164.62C257.12,-155.87 257.12,-147.31 257.12,-139.49"/>
<polygon fill="black" stroke="black" points="260.62,-139.76 257.12,-129.76 253.62,-139.76 260.62,-139.76"/>
</g>
<!-- update_docs&#45;&gt;done -->
<g id="edge35" class="edge">
<title>update_docs&#45;&gt;done</title>
<path fill="none" stroke="black" d="M291.56,-74.59C304.02,-65.21 318.07,-54.64 330.47,-45.32"/>
<polygon fill="black" stroke="black" points="332.47,-48.19 338.36,-39.38 328.26,-42.59 332.47,-48.19"/>
</g>
</g>
</svg>
