<?xml version="1.0" encoding="UTF-8" standalone="no"?>
<!DOCTYPE svg PUBLIC "-//W3C//DTD SVG 1.1//EN"
 "http://www.w3.org/Graphics/SVG/1.1/DTD/svg11.dtd">
<!-- Generated by graphviz version 14.0.4 (20251115.1723)
 -->
<!-- Title: workflow Pages: 1 -->
<svg width="588pt" height="1184pt"
 viewBox="0.00 0.00 588.00 1184.00" xmlns="http://www.w3.org/2000/svg" xmlns:xlink="http://www.w3.org/1999/xlink">
<g id="graph0" class="graph" transform="scale(1 1) rotate(0) translate(4 1180.25)">
<title>workflow</title>
<polygon fill="white" stroke="none" points="-4,4 -4,-1180.25 583.97,-1180.25 583.97,4 -4,4"/>
<text xml:space="preserve" text-anchor="middle" x="289.99" y="-1158.95" font-family="Times,serif" font-size="14.00">incremental_update</text>
<!-- detect_changes -->
<g id="node1" class="node">
<title>detect_changes</title>
<polygon fill="#e8f5e9" stroke="black" points="579.97,-1151.75 285.17,-1151.75 209.33,-985.75 504.13,-985.75 579.97,-1151.75"/>
<text xml:space="preserve" text-anchor="middle" x="394.65" y="-1092.95" font-family="Helvetica,sans-Serif" font-size="14.00">Detect Document Changes</text>
<text xml:space="preserve" text-anchor="middle" x="394.65" y="-1077.95" font-family="Helvetica,sans-Serif" font-size="14.00">(compute)</text>
<text xml:space="preserve" text-anchor="middle" x="394.65" y="-1062.95" font-family="Helvetica,sans-Serif" font-size="14.00">exec: in&#45;process</text>
<text xml:space="preserve" text-anchor="middle" x="394.65" y="-1047.95" font-family="Helvetica,sans-Serif" font-size="14.00">blocked: [llm, write]</text>
<text xml:space="preserve" text-anchor="middle" x="394.65" y="-1032.95" font-family="Helvetica,sans-Serif" font-size="14.00">timeout: 120s</text>
</g>
<!-- check_changes -->
<g id="node2" class="node">
<title>check_changes</title>
<polygon fill="#fff3e0" stroke="black" points="394.65,-948.75 263.15,-910.75 394.65,-872.75 526.15,-910.75 394.65,-948.75"/>
<text xml:space="preserve" text-anchor="middle" x="394.65" y="-912.45" font-family="Helvetica,sans-Serif" font-size="14.00">Check for Changes</text>
<text xml:space="preserve" text-anchor="middle" x="394.65" y="-897.45" font-family="Helvetica,sans-Serif" font-size="14.00">(condition)</text>
</g>
<!-- detect_changes&#45;&gt;check_changes -->
<g id="edge1" class="edge">
<title>detect_changes&#45;&gt;check_changes</title>
<path fill="none" stroke="black" d="M394.65,-985.64C394.65,-977.06 394.65,-968.54 394.65,-960.51"/>
<polygon fill="black" stroke="black" points="398.15,-960.65 394.65,-950.65 391.15,-960.65 398.15,-960.65"/>
</g>
<!-- no_changes -->
<g id="node3" class="node">
<title>no_changes</title>
<polygon fill="#eceff1" stroke="black" points="399.15,-825.5 308.15,-825.5 308.15,-787.5 399.15,-787.5 399.15,-825.5"/>
<text xml:space="preserve" text-anchor="middle" x="353.65" y="-808.2" font-family="Helvetica,sans-Serif" font-size="14.00">No Changes</text>
<text xml:space="preserve" text-anchor="middle" x="353.65" y="-793.2" font-family="Helvetica,sans-Serif" font-size="14.00">(transform)</text>
</g>
<!-- check_changes&#45;&gt;no_changes -->
<g id="edge3" class="edge">
<title>check_changes&#45;&gt;no_changes</title>
<path fill="none" stroke="black" stroke-dasharray="5,2" d="M381.23,-876.27C376.08,-863.43 370.25,-848.89 365.28,-836.5"/>
<polygon fill="black" stroke="black" points="368.54,-835.22 361.57,-827.24 362.04,-837.83 368.54,-835.22"/>
<text xml:space="preserve" text-anchor="middle" x="382.2" y="-845.25" font-family="Helvetica,sans-Serif" font-size="10.00">false</text>
</g>
<!-- process_changes -->
<g id="node4" class="node">
<title>process_changes</title>
<polygon fill="#f3e5f5" stroke="black" points="455.9,-746.5 333.4,-746.5 333.4,-708.5 455.9,-708.5 455.9,-746.5"/>
<polygon fill="none" stroke="black" points="459.9,-750.5 329.4,-750.5 329.4,-704.5 459.9,-704.5 459.9,-750.5"/>
<text xml:space="preserve" text-anchor="middle" x="394.65" y="-729.2" font-family="Helvetica,sans-Serif" font-size="14.00">Process Changes</text>
<text xml:space="preserve" text-anchor="middle" x="394.65" y="-714.2" font-family="Helvetica,sans-Serif" font-size="14.00">(parallel)</text>
</g>
<!-- check_changes&#45;&gt;process_changes -->
<g id="edge2" class="edge">
<title>check_changes&#45;&gt;process_changes</title>
<path fill="none" stroke="black" stroke-dasharray="5,2" d="M402.96,-874.7C407.71,-850.26 412.09,-816.89 408.65,-787.5 407.68,-779.18 405.96,-770.34 404.05,-762.1"/>
<polygon fill="black" stroke="black" points="407.46,-761.3 401.65,-752.44 400.66,-762.99 407.46,-761.3"/>
<text xml:space="preserve" text-anchor="middle" x="418.13" y="-802.62" font-family="Helvetica,sans-Serif" font-size="10.00">true</text>
</g>
<!-- no_changes&#45;&gt;process_changes -->
<g id="edge4" class="edge">
<title>no_changes&#45;&gt;process_changes</title>
<path fill="none" stroke="black" d="M363.37,-787.25C367.6,-779.3 372.69,-769.74 377.52,-760.67"/>
<polygon fill="black" stroke="black" points="380.49,-762.55 382.1,-752.07 374.31,-759.26 380.49,-762.55"/>
</g>
<!-- add_new -->
<g id="node5" class="node">
<title>add_new</title>
<polygon fill="#e8f5e9" stroke="black" points="336.42,-657.25 99.76,-657.25 38.88,-491.25 275.54,-491.25 336.42,-657.25"/>
<text xml:space="preserve" text-anchor="middle" x="187.65" y="-598.45" font-family="Helvetica,sans-Serif" font-size="14.00">Add New Documents</text>
<text xml:space="preserve" text-anchor="middle" x="187.65" y="-583.45" font-family="Helvetica,sans-Serif" font-size="14.00">(compute)</text>
<text xml:space="preserve" text-anchor="middle" x="187.65" y="-568.45" font-family="Helvetica,sans-Serif" font-size="14.00">exec: in&#45;process</text>
<text xml:space="preserve" text-anchor="middle" x="187.65" y="-553.45" font-family="Helvetica,sans-Serif" font-size="14.00">blocked: [llm, write]</text>
<text xml:space="preserve" text-anchor="middle" x="187.65" y="-538.45" font-family="Helvetica,sans-Serif" font-size="14.00">timeout: 300s</text>
</g>
<!-- process_changes&#45;&gt;add_new -->
<g id="edge5" class="edge">
<title>process_changes&#45;&gt;add_new</title>
<path fill="none" stroke="black" d="M364.11,-704.18C349.02,-693.16 329.73,-679.06 309.46,-664.26"/>
<polygon fill="black" stroke="black" points="311.78,-661.61 301.64,-658.54 307.65,-667.26 311.78,-661.61"/>
<text xml:space="preserve" text-anchor="middle" x="347.38" y="-677" font-family="Helvetica,sans-Serif" font-size="10.00">fork</text>
</g>
<!-- update_modified -->
<g id="node6" class="node">
<title>update_modified</title>
<polygon fill="#e8f5e9" stroke="black" points="389.3,-444 79.66,-444 0,-278 309.65,-278 389.3,-444"/>
<text xml:space="preserve" text-anchor="middle" x="194.65" y="-385.2" font-family="Helvetica,sans-Serif" font-size="14.00">Update Modified Documents</text>
<text xml:space="preserve" text-anchor="middle" x="194.65" y="-370.2" font-family="Helvetica,sans-Serif" font-size="14.00">(compute)</text>
<text xml:space="preserve" text-anchor="middle" x="194.65" y="-355.2" font-family="Helvetica,sans-Serif" font-size="14.00">exec: in&#45;process</text>
<text xml:space="preserve" text-anchor="middle" x="194.65" y="-340.2" font-family="Helvetica,sans-Serif" font-size="14.00">blocked: [llm, write]</text>
<text xml:space="preserve" text-anchor="middle" x="194.65" y="-325.2" font-family="Helvetica,sans-Serif" font-size="14.00">timeout: 300s</text>
</g>
<!-- process_changes&#45;&gt;update_modified -->
<g id="edge6" class="edge">
<title>process_changes&#45;&gt;update_modified</title>
<path fill="none" stroke="black" d="M391.89,-704.35C385.21,-653.02 367.1,-527.52 345.65,-491.25 337.51,-477.49 327.38,-464.49 316.24,-452.4"/>
<polygon fill="black" stroke="black" points="318.86,-450.09 309.42,-445.28 313.81,-454.93 318.86,-450.09"/>
<text xml:space="preserve" text-anchor="middle" x="393.48" y="-570.38" font-family="Helvetica,sans-Serif" font-size="10.00">fork</text>
</g>
<!-- remove_deleted -->
<g id="node7" class="node">
<title>remove_deleted</title>
<polygon fill="#e8f5e9" stroke="black" points="435.63,-241 122.28,-241 41.67,-75 355.02,-75 435.63,-241"/>
<text xml:space="preserve" text-anchor="middle" x="238.65" y="-182.2" font-family="Helvetica,sans-Serif" font-size="14.00">Remove Deleted Documents</text>
<text xml:space="preserve" text-anchor="middle" x="238.65" y="-167.2" font-family="Helvetica,sans-Serif" font-size="14.00">(compute)</text>
<text xml:space="preserve" text-anchor="middle" x="238.65" y="-152.2" font-family="Helvetica,sans-Serif" font-size="14.00">exec: in&#45;process</text>
<text xml:space="preserve" text-anchor="middle" x="238.65" y="-137.2" font-family="Helvetica,sans-Serif" font-size="14.00">blocked: [llm, write]</text>
<text xml:space="preserve" text-anchor="middle" x="238.65" y="-122.2" font-family="Helvetica,sans-Serif" font-size="14.00">timeout: 60s</text>
</g>
<!-- process_changes&#45;&gt;remove_deleted -->
<g id="edge7" class="edge">
<title>process_changes&#45;&gt;remove_deleted</title>
<path fill="none" stroke="black" d="M399.78,-704.18C400.92,-698.45 401.98,-692.27 402.65,-686.5 404.15,-673.58 403.43,-670.26 403.65,-657.25 406.53,-488.7 476.1,-427.72 398.65,-278 393.46,-267.97 387,-258.56 379.66,-249.78"/>
<polygon fill="black" stroke="black" points="382.32,-247.5 373.06,-242.34 377.08,-252.15 382.32,-247.5"/>
<text xml:space="preserve" text-anchor="middle" x="439.14" y="-463.75" font-family="Helvetica,sans-Serif" font-size="10.00">fork</text>
</g>
<!-- complete -->
<g id="node8" class="node">
<title>complete</title>
<polygon fill="#eceff1" stroke="black" points="411.53,-38 289.78,-38 289.78,0 411.53,0 411.53,-38"/>
<text xml:space="preserve" text-anchor="middle" x="350.65" y="-20.7" font-family="Helvetica,sans-Serif" font-size="14.00">Update Complete</text>
<text xml:space="preserve" text-anchor="middle" x="350.65" y="-5.7" font-family="Helvetica,sans-Serif" font-size="14.00">(transform)</text>
</g>
<!-- process_changes&#45;&gt;complete -->
<g id="edge8" class="edge">
<title>process_changes&#45;&gt;complete</title>
<path fill="none" stroke="black" d="M412.06,-704.37C432.5,-676.1 463.65,-624.89 463.65,-575.25 463.65,-575.25 463.65,-575.25 463.65,-157 463.65,-119.59 466.83,-105.13 444.65,-75 435.27,-62.26 421.98,-51.97 408.33,-43.89"/>
<polygon fill="black" stroke="black" points="410.16,-40.9 399.71,-39.13 406.77,-47.03 410.16,-40.9"/>
<text xml:space="preserve" text-anchor="middle" x="471.15" y="-357.12" font-family="Helvetica,sans-Serif" font-size="10.00">join</text>
</g>
<!-- add_new&#45;&gt;update_modified -->
<g id="edge9" class="edge">
<title>add_new&#45;&gt;update_modified</title>
<path fill="none" stroke="black" d="M190.38,-490.97C190.76,-479.38 191.16,-467.4 191.55,-455.62"/>
<polygon fill="black" stroke="black" points="195.04,-456.03 191.87,-445.92 188.04,-455.79 195.04,-456.03"/>
</g>
<!-- update_modified&#45;&gt;remove_deleted -->
<g id="edge10" class="edge">
<title>update_modified&#45;&gt;remove_deleted</title>
<path fill="none" stroke="black" d="M212.67,-277.67C214.51,-269.3 216.38,-260.76 218.23,-252.28"/>
<polygon fill="black" stroke="black" points="221.61,-253.2 220.33,-242.68 214.77,-251.71 221.61,-253.2"/>
</g>
<!-- remove_deleted&#45;&gt;complete -->
<g id="edge11" class="edge">
<title>remove_deleted&#45;&gt;complete</title>
<path fill="none" stroke="black" d="M306.06,-74.54C314.14,-64.66 321.89,-55.18 328.59,-46.98"/>
<polygon fill="black" stroke="black" points="331.11,-49.44 334.73,-39.48 325.69,-45.01 331.11,-49.44"/>
</g>
</g>
</svg>
