<?xml version="1.0" encoding="UTF-8" standalone="no"?>
<!DOCTYPE svg PUBLIC "-//W3C//DTD SVG 1.1//EN"
 "http://www.w3.org/Graphics/SVG/1.1/DTD/svg11.dtd">
<!-- Generated by graphviz version 14.0.4 (20251115.1723)
 -->
<!-- Title: workflow Pages: 1 -->
<svg width="722pt" height="1349pt"
 viewBox="0.00 0.00 722.00 1349.00" xmlns="http://www.w3.org/2000/svg" xmlns:xlink="http://www.w3.org/1999/xlink">
<g id="graph0" class="graph" transform="scale(1 1) rotate(0) translate(4 1345.25)">
<title>workflow</title>
<polygon fill="white" stroke="none" points="-4,4 -4,-1345.25 718.42,-1345.25 718.42,4 -4,4"/>
<text xml:space="preserve" text-anchor="middle" x="357.21" y="-1323.95" font-family="Times,serif" font-size="14.00">maintenance</text>
<!-- analyze_index -->
<g id="node1" class="node">
<title>analyze_index</title>
<polygon fill="#e8f5e9" stroke="black" points="568.41,-1316.75 261.24,-1316.75 182.22,-1120.75 489.39,-1120.75 568.41,-1316.75"/>
<text xml:space="preserve" text-anchor="middle" x="375.31" y="-1250.45" font-family="Helvetica,sans-Serif" font-size="14.00">Analyze Index State</text>
<text xml:space="preserve" text-anchor="middle" x="375.31" y="-1235.45" font-family="Helvetica,sans-Serif" font-size="14.00">(compute)</text>
<text xml:space="preserve" text-anchor="middle" x="375.31" y="-1220.45" font-family="Helvetica,sans-Serif" font-size="14.00">exec: in&#45;process</text>
<text xml:space="preserve" text-anchor="middle" x="375.31" y="-1205.45" font-family="Helvetica,sans-Serif" font-size="14.00">handler: index_analyzer</text>
<text xml:space="preserve" text-anchor="middle" x="375.31" y="-1190.45" font-family="Helvetica,sans-Serif" font-size="14.00">blocked: [llm, network, write]</text>
<text xml:space="preserve" text-anchor="middle" x="375.31" y="-1175.45" font-family="Helvetica,sans-Serif" font-size="14.00">timeout: 120s</text>
</g>
<!-- check_issues -->
<g id="node2" class="node">
<title>check_issues</title>
<polygon fill="#fff3e0" stroke="black" points="375.31,-1083.75 258.81,-1045.75 375.31,-1007.75 491.81,-1045.75 375.31,-1083.75"/>
<text xml:space="preserve" text-anchor="middle" x="375.31" y="-1047.45" font-family="Helvetica,sans-Serif" font-size="14.00">Check for Issues</text>
<text xml:space="preserve" text-anchor="middle" x="375.31" y="-1032.45" font-family="Helvetica,sans-Serif" font-size="14.00">(condition)</text>
</g>
<!-- analyze_index&#45;&gt;check_issues -->
<g id="edge1" class="edge">
<title>analyze_index&#45;&gt;check_issues</title>
<path fill="none" stroke="black" d="M375.31,-1120.26C375.31,-1111.79 375.31,-1103.49 375.31,-1095.68"/>
<polygon fill="black" stroke="black" points="378.81,-1095.78 375.31,-1085.78 371.81,-1095.78 378.81,-1095.78"/>
</g>
<!-- check_optimization -->
<g id="node3" class="node">
<title>check_optimization</title>
<polygon fill="#fff3e0" stroke="black" points="194.31,-900.5 8.81,-862.5 194.31,-824.5 379.81,-862.5 194.31,-900.5"/>
<text xml:space="preserve" text-anchor="middle" x="194.31" y="-864.2" font-family="Helvetica,sans-Serif" font-size="14.00">Check Optimization Needed</text>
<text xml:space="preserve" text-anchor="middle" x="194.31" y="-849.2" font-family="Helvetica,sans-Serif" font-size="14.00">(condition)</text>
</g>
<!-- check_issues&#45;&gt;check_optimization -->
<g id="edge3" class="edge">
<title>check_issues&#45;&gt;check_optimization</title>
<path fill="none" stroke="black" stroke-dasharray="5,2" d="M347.43,-1016.83C316.86,-986.21 267.59,-936.88 233.22,-902.46"/>
<polygon fill="black" stroke="black" points="235.88,-900.17 226.33,-895.56 230.92,-905.11 235.88,-900.17"/>
<text xml:space="preserve" text-anchor="middle" x="327.27" y="-980.25" font-family="Helvetica,sans-Serif" font-size="10.00">false</text>
</g>
<!-- cleanup -->
<g id="node4" class="node">
<title>cleanup</title>
<polygon fill="#e8f5e9" stroke="black" points="714.42,-960.5 462.91,-960.5 398.21,-764.5 649.72,-764.5 714.42,-960.5"/>
<text xml:space="preserve" text-anchor="middle" x="556.31" y="-894.2" font-family="Helvetica,sans-Serif" font-size="14.00">Cleanup Index</text>
<text xml:space="preserve" text-anchor="middle" x="556.31" y="-879.2" font-family="Helvetica,sans-Serif" font-size="14.00">(compute)</text>
<text xml:space="preserve" text-anchor="middle" x="556.31" y="-864.2" font-family="Helvetica,sans-Serif" font-size="14.00">exec: in&#45;process</text>
<text xml:space="preserve" text-anchor="middle" x="556.31" y="-849.2" font-family="Helvetica,sans-Serif" font-size="14.00">handler: index_cleaner</text>
<text xml:space="preserve" text-anchor="middle" x="556.31" y="-834.2" font-family="Helvetica,sans-Serif" font-size="14.00">blocked: [llm, network]</text>
<text xml:space="preserve" text-anchor="middle" x="556.31" y="-819.2" font-family="Helvetica,sans-Serif" font-size="14.00">timeout: 300s</text>
</g>
<!-- check_issues&#45;&gt;cleanup -->
<g id="edge2" class="edge">
<title>check_issues&#45;&gt;cleanup</title>
<path fill="none" stroke="black" stroke-dasharray="5,2" d="M403.2,-1016.83C417.25,-1002.75 435.26,-984.72 453.96,-965.99"/>
<polygon fill="black" stroke="black" points="456.35,-968.56 460.94,-959.01 451.39,-963.61 456.35,-968.56"/>
<text xml:space="preserve" text-anchor="middle" x="447.28" y="-980.25" font-family="Helvetica,sans-Serif" font-size="10.00">true</text>
</g>
<!-- optimize -->
<g id="node5" class="node">
<title>optimize</title>
<polygon fill="#e8f5e9" stroke="black" points="599.86,-717.25 306.29,-717.25 230.77,-521.25 524.34,-521.25 599.86,-717.25"/>
<text xml:space="preserve" text-anchor="middle" x="415.31" y="-650.95" font-family="Helvetica,sans-Serif" font-size="14.00">Optimize Index</text>
<text xml:space="preserve" text-anchor="middle" x="415.31" y="-635.95" font-family="Helvetica,sans-Serif" font-size="14.00">(compute)</text>
<text xml:space="preserve" text-anchor="middle" x="415.31" y="-620.95" font-family="Helvetica,sans-Serif" font-size="14.00">exec: in&#45;process</text>
<text xml:space="preserve" text-anchor="middle" x="415.31" y="-605.95" font-family="Helvetica,sans-Serif" font-size="14.00">handler: retry_with_backoff</text>
<text xml:space="preserve" text-anchor="middle" x="415.31" y="-590.95" font-family="Helvetica,sans-Serif" font-size="14.00">blocked: [llm, network]</text>
<text xml:space="preserve" text-anchor="middle" x="415.31" y="-575.95" font-family="Helvetica,sans-Serif" font-size="14.00">timeout: 600s</text>
</g>
<!-- check_optimization&#45;&gt;optimize -->
<g id="edge4" class="edge">
<title>check_optimization&#45;&gt;optimize</title>
<path fill="none" stroke="black" stroke-dasharray="5,2" d="M223.21,-829.96C247.67,-803.25 284.2,-763.37 318.86,-725.54"/>
<polygon fill="black" stroke="black" points="321.02,-728.36 325.2,-718.62 315.86,-723.63 321.02,-728.36"/>
<text xml:space="preserve" text-anchor="middle" x="313.06" y="-737" font-family="Helvetica,sans-Serif" font-size="10.00">true</text>
</g>
<!-- generate_report -->
<g id="node7" class="node">
<title>generate_report</title>
<polygon fill="#e8f5e9" stroke="black" points="412.63,-271 84.43,-271 0,-75 328.2,-75 412.63,-271"/>
<text xml:space="preserve" text-anchor="middle" x="206.31" y="-204.7" font-family="Helvetica,sans-Serif" font-size="14.00">Generate Maintenance Report</text>
<text xml:space="preserve" text-anchor="middle" x="206.31" y="-189.7" font-family="Helvetica,sans-Serif" font-size="14.00">(compute)</text>
<text xml:space="preserve" text-anchor="middle" x="206.31" y="-174.7" font-family="Helvetica,sans-Serif" font-size="14.00">exec: in&#45;process</text>
<text xml:space="preserve" text-anchor="middle" x="206.31" y="-159.7" font-family="Helvetica,sans-Serif" font-size="14.00">handler: report_generator</text>
<text xml:space="preserve" text-anchor="middle" x="206.31" y="-144.7" font-family="Helvetica,sans-Serif" font-size="14.00">blocked: [llm, network]</text>
<text xml:space="preserve" text-anchor="middle" x="206.31" y="-129.7" font-family="Helvetica,sans-Serif" font-size="14.00">timeout: 30s</text>
</g>
<!-- check_optimization&#45;&gt;generate_report -->
<g id="edge5" class="edge">
<title>check_optimization&#45;&gt;generate_report</title>
<path fill="none" stroke="black" stroke-dasharray="5,2" d="M194.96,-824.54C196.72,-723.49 201.68,-439.7 204.42,-282.4"/>
<polygon fill="black" stroke="black" points="207.91,-282.87 204.59,-272.81 200.92,-282.74 207.91,-282.87"/>
<text xml:space="preserve" text-anchor="middle" x="211.25" y="-493.75" font-family="Helvetica,sans-Serif" font-size="10.00">false</text>
</g>
<!-- cleanup&#45;&gt;optimize -->
<g id="edge6" class="edge">
<title>cleanup&#45;&gt;optimize</title>
<path fill="none" stroke="black" d="M499.37,-764.07C492.31,-752 485.07,-739.6 477.93,-727.39"/>
<polygon fill="black" stroke="black" points="481.07,-725.83 473,-718.96 475.03,-729.36 481.07,-725.83"/>
</g>
<!-- verify_optimization -->
<g id="node6" class="node">
<title>verify_optimization</title>
<polygon fill="#e8f5e9" stroke="black" points="608.41,-474 301.24,-474 222.22,-308 529.39,-308 608.41,-474"/>
<text xml:space="preserve" text-anchor="middle" x="415.31" y="-415.2" font-family="Helvetica,sans-Serif" font-size="14.00">Verify Optimization</text>
<text xml:space="preserve" text-anchor="middle" x="415.31" y="-400.2" font-family="Helvetica,sans-Serif" font-size="14.00">(compute)</text>
<text xml:space="preserve" text-anchor="middle" x="415.31" y="-385.2" font-family="Helvetica,sans-Serif" font-size="14.00">exec: in&#45;process</text>
<text xml:space="preserve" text-anchor="middle" x="415.31" y="-370.2" font-family="Helvetica,sans-Serif" font-size="14.00">blocked: [llm, network, write]</text>
<text xml:space="preserve" text-anchor="middle" x="415.31" y="-355.2" font-family="Helvetica,sans-Serif" font-size="14.00">timeout: 60s</text>
</g>
<!-- optimize&#45;&gt;verify_optimization -->
<g id="edge7" class="edge">
<title>optimize&#45;&gt;verify_optimization</title>
<path fill="none" stroke="black" d="M415.31,-520.99C415.31,-509.19 415.31,-497.15 415.31,-485.41"/>
<polygon fill="black" stroke="black" points="418.81,-485.77 415.31,-475.77 411.81,-485.77 418.81,-485.77"/>
</g>
<!-- verify_optimization&#45;&gt;generate_report -->
<g id="edge8" class="edge">
<title>verify_optimization&#45;&gt;generate_report</title>
<path fill="none" stroke="black" d="M335.7,-307.72C326.69,-298.41 317.42,-288.82 308.17,-279.27"/>
<polygon fill="black" stroke="black" points="310.94,-277.09 301.47,-272.34 305.91,-281.96 310.94,-277.09"/>
</g>
<!-- complete -->
<g id="node8" class="node">
<title>complete</title>
<polygon fill="#eceff1" stroke="black" points="284.44,-38 128.19,-38 128.19,0 284.44,0 284.44,-38"/>
<text xml:space="preserve" text-anchor="middle" x="206.31" y="-20.7" font-family="Helvetica,sans-Serif" font-size="14.00">Maintenance Complete</text>
<text xml:space="preserve" text-anchor="middle" x="206.31" y="-5.7" font-family="Helvetica,sans-Serif" font-size="14.00">(transform)</text>
</g>
<!-- generate_report&#45;&gt;complete -->
<g id="edge9" class="edge">
<title>generate_report&#45;&gt;complete</title>
<path fill="none" stroke="black" d="M206.31,-74.88C206.31,-65.82 206.31,-57.2 206.31,-49.59"/>
<polygon fill="black" stroke="black" points="209.81,-49.7 206.31,-39.7 202.81,-49.7 209.81,-49.7"/>
</g>
</g>
</svg>
