<?xml version="1.0" encoding="UTF-8" standalone="no"?>
<!DOCTYPE svg PUBLIC "-//W3C//DTD SVG 1.1//EN"
 "http://www.w3.org/Graphics/SVG/1.1/DTD/svg11.dtd">
<!-- Generated by graphviz version 14.0.4 (20251115.1723)
 -->
<!-- Title: workflow Pages: 1 -->
<svg width="646pt" height="3019pt"
 viewBox="0.00 0.00 646.00 3019.00" xmlns="http://www.w3.org/2000/svg" xmlns:xlink="http://www.w3.org/1999/xlink">
<g id="graph0" class="graph" transform="scale(1 1) rotate(0) translate(4 3015.45)">
<title>workflow</title>
<polygon fill="white" stroke="none" points="-4,4 -4,-3015.45 641.6,-3015.45 641.6,4 -4,4"/>
<text xml:space="preserve" text-anchor="middle" x="318.8" y="-2994.15" font-family="Times,serif" font-size="14.00">rag_query</text>
<!-- analyze_query -->
<g id="node1" class="node">
<title>analyze_query</title>
<path fill="#e3f2fd" stroke="black" d="M596.73,-2986.95C596.73,-2986.95 515.48,-2986.95 515.48,-2986.95 509.48,-2986.95 503.48,-2980.95 503.48,-2974.95 503.48,-2974.95 503.48,-2945.95 503.48,-2945.95 503.48,-2939.95 509.48,-2933.95 515.48,-2933.95 515.48,-2933.95 596.73,-2933.95 596.73,-2933.95 602.73,-2933.95 608.73,-2939.95 608.73,-2945.95 608.73,-2945.95 608.73,-2974.95 608.73,-2974.95 608.73,-2980.95 602.73,-2986.95 596.73,-2986.95"/>
<text xml:space="preserve" text-anchor="middle" x="556.1" y="-2969.65" font-family="Helvetica,sans-Serif" font-size="14.00">Analyze Query</text>
<text xml:space="preserve" text-anchor="middle" x="556.1" y="-2954.65" font-family="Helvetica,sans-Serif" font-size="14.00">(agent)</text>
<text xml:space="preserve" text-anchor="middle" x="556.1" y="-2939.65" font-family="Helvetica,sans-Serif" font-size="14.00">role: analyst</text>
</g>
<!-- expand_query -->
<g id="node2" class="node">
<title>expand_query</title>
<path fill="#e3f2fd" stroke="black" d="M516.23,-2896.95C516.23,-2896.95 419.98,-2896.95 419.98,-2896.95 413.98,-2896.95 407.98,-2890.95 407.98,-2884.95 407.98,-2884.95 407.98,-2855.95 407.98,-2855.95 407.98,-2849.95 413.98,-2843.95 419.98,-2843.95 419.98,-2843.95 516.23,-2843.95 516.23,-2843.95 522.23,-2843.95 528.23,-2849.95 528.23,-2855.95 528.23,-2855.95 528.23,-2884.95 528.23,-2884.95 528.23,-2890.95 522.23,-2896.95 516.23,-2896.95"/>
<text xml:space="preserve" text-anchor="middle" x="468.1" y="-2879.65" font-family="Helvetica,sans-Serif" font-size="14.00">Query Expansion</text>
<text xml:space="preserve" text-anchor="middle" x="468.1" y="-2864.65" font-family="Helvetica,sans-Serif" font-size="14.00">(agent)</text>
<text xml:space="preserve" text-anchor="middle" x="468.1" y="-2849.65" font-family="Helvetica,sans-Serif" font-size="14.00">role: executor</text>
</g>
<!-- analyze_query&#45;&gt;expand_query -->
<g id="edge1" class="edge">
<title>analyze_query&#45;&gt;expand_query</title>
<path fill="none" stroke="black" d="M530.18,-2933.53C521.32,-2924.66 511.27,-2914.62 501.88,-2905.23"/>
<polygon fill="black" stroke="black" points="504.46,-2902.86 494.92,-2898.27 499.51,-2907.81 504.46,-2902.86"/>
</g>
<!-- parallel_search -->
<g id="node3" class="node">
<title>parallel_search</title>
<polygon fill="#f3e5f5" stroke="black" points="384.85,-2802.95 283.35,-2802.95 283.35,-2764.95 384.85,-2764.95 384.85,-2802.95"/>
<polygon fill="none" stroke="black" points="388.85,-2806.95 279.35,-2806.95 279.35,-2760.95 388.85,-2760.95 388.85,-2806.95"/>
<text xml:space="preserve" text-anchor="middle" x="334.1" y="-2785.65" font-family="Helvetica,sans-Serif" font-size="14.00">Hybrid Search</text>
<text xml:space="preserve" text-anchor="middle" x="334.1" y="-2770.65" font-family="Helvetica,sans-Serif" font-size="14.00">(parallel)</text>
</g>
<!-- expand_query&#45;&gt;parallel_search -->
<g id="edge2" class="edge">
<title>expand_query&#45;&gt;parallel_search</title>
<path fill="none" stroke="black" d="M427.17,-2843.64C411.88,-2834 394.43,-2822.99 378.81,-2813.14"/>
<polygon fill="black" stroke="black" points="380.96,-2810.36 370.64,-2807.99 377.23,-2816.28 380.96,-2810.36"/>
</g>
<!-- dense_search -->
<g id="node4" class="node">
<title>dense_search</title>
<polygon fill="#e8f5e9" stroke="black" points="518.65,-2713.7 225.08,-2713.7 149.56,-2517.7 443.13,-2517.7 518.65,-2713.7"/>
<text xml:space="preserve" text-anchor="middle" x="334.1" y="-2647.4" font-family="Helvetica,sans-Serif" font-size="14.00">Dense Vector Search</text>
<text xml:space="preserve" text-anchor="middle" x="334.1" y="-2632.4" font-family="Helvetica,sans-Serif" font-size="14.00">(compute)</text>
<text xml:space="preserve" text-anchor="middle" x="334.1" y="-2617.4" font-family="Helvetica,sans-Serif" font-size="14.00">exec: in&#45;process</text>
<text xml:space="preserve" text-anchor="middle" x="334.1" y="-2602.4" font-family="Helvetica,sans-Serif" font-size="14.00">handler: retry_with_backoff</text>
<text xml:space="preserve" text-anchor="middle" x="334.1" y="-2587.4" font-family="Helvetica,sans-Serif" font-size="14.00">blocked: [llm, write]</text>
<text xml:space="preserve" text-anchor="middle" x="334.1" y="-2572.4" font-family="Helvetica,sans-Serif" font-size="14.00">timeout: 30s</text>
</g>
<!-- parallel_search&#45;&gt;dense_search -->
<g id="edge3" class="edge">
<title>parallel_search&#45;&gt;dense_search</title>
<path fill="none" stroke="black" d="M334.1,-2760.53C334.1,-2750.77 334.1,-2738.55 334.1,-2725.38"/>
<polygon fill="black" stroke="black" points="337.6,-2725.64 334.1,-2715.64 330.6,-2725.64 337.6,-2725.64"/>
<text xml:space="preserve" text-anchor="middle" x="342.35" y="-2733.45" font-family="Helvetica,sans-Serif" font-size="10.00">fork</text>
</g>
<!-- sparse_search -->
<g id="node5" class="node">
<title>sparse_search</title>
<polygon fill="#e8f5e9" stroke="black" points="535.2,-2470.45 228.03,-2470.45 149.01,-2304.45 456.18,-2304.45 535.2,-2470.45"/>
<text xml:space="preserve" text-anchor="middle" x="342.1" y="-2411.65" font-family="Helvetica,sans-Serif" font-size="14.00">Sparse BM25 Search</text>
<text xml:space="preserve" text-anchor="middle" x="342.1" y="-2396.65" font-family="Helvetica,sans-Serif" font-size="14.00">(compute)</text>
<text xml:space="preserve" text-anchor="middle" x="342.1" y="-2381.65" font-family="Helvetica,sans-Serif" font-size="14.00">exec: in&#45;process</text>
<text xml:space="preserve" text-anchor="middle" x="342.1" y="-2366.65" font-family="Helvetica,sans-Serif" font-size="14.00">blocked: [llm, network, write]</text>
<text xml:space="preserve" text-anchor="middle" x="342.1" y="-2351.65" font-family="Helvetica,sans-Serif" font-size="14.00">timeout: 15s</text>
</g>
<!-- parallel_search&#45;&gt;sparse_search -->
<g id="edge4" class="edge">
<title>parallel_search&#45;&gt;sparse_search</title>
<path fill="none" stroke="black" d="M389.09,-2779.89C434.68,-2774.11 496.89,-2757.99 528.1,-2713.7 578.29,-2642.5 568.47,-2594.9 528.1,-2517.7 520.63,-2503.41 510.77,-2490.37 499.49,-2478.56"/>
<polygon fill="black" stroke="black" points="502.09,-2476.21 492.53,-2471.65 497.16,-2481.18 502.09,-2476.21"/>
<text xml:space="preserve" text-anchor="middle" x="570.41" y="-2611.83" font-family="Helvetica,sans-Serif" font-size="10.00">fork</text>
</g>
<!-- entity_search -->
<g id="node6" class="node">
<title>entity_search</title>
<polygon fill="#e8f5e9" stroke="black" points="492.2,-2267.45 185.03,-2267.45 106.01,-2101.45 413.18,-2101.45 492.2,-2267.45"/>
<text xml:space="preserve" text-anchor="middle" x="299.1" y="-2208.65" font-family="Helvetica,sans-Serif" font-size="14.00">Entity&#45;Based Search</text>
<text xml:space="preserve" text-anchor="middle" x="299.1" y="-2193.65" font-family="Helvetica,sans-Serif" font-size="14.00">(compute)</text>
<text xml:space="preserve" text-anchor="middle" x="299.1" y="-2178.65" font-family="Helvetica,sans-Serif" font-size="14.00">exec: in&#45;process</text>
<text xml:space="preserve" text-anchor="middle" x="299.1" y="-2163.65" font-family="Helvetica,sans-Serif" font-size="14.00">blocked: [llm, network, write]</text>
<text xml:space="preserve" text-anchor="middle" x="299.1" y="-2148.65" font-family="Helvetica,sans-Serif" font-size="14.00">timeout: 15s</text>
</g>
<!-- parallel_search&#45;&gt;entity_search -->
<g id="edge5" class="edge">
<title>parallel_search&#45;&gt;entity_search</title>
<path fill="none" stroke="black" d="M279.12,-2779.89C233.53,-2774.11 171.32,-2757.99 140.1,-2713.7 87.71,-2639.37 99.39,-2385.78 140.1,-2304.45 147.77,-2289.15 158.43,-2275.31 170.65,-2262.94"/>
<polygon fill="black" stroke="black" points="173.01,-2265.52 177.8,-2256.07 168.16,-2260.48 173.01,-2265.52"/>
<text xml:space="preserve" text-anchor="middle" x="114.14" y="-2490.2" font-family="Helvetica,sans-Serif" font-size="10.00">fork</text>
</g>
<!-- merge_results -->
<g id="node7" class="node">
<title>merge_results</title>
<polygon fill="#e8f5e9" stroke="black" points="475.64,-2064.45 137.54,-2064.45 50.57,-1898.45 388.67,-1898.45 475.64,-2064.45"/>
<text xml:space="preserve" text-anchor="middle" x="263.1" y="-2005.65" font-family="Helvetica,sans-Serif" font-size="14.00">Merge and Deduplicate Results</text>
<text xml:space="preserve" text-anchor="middle" x="263.1" y="-1990.65" font-family="Helvetica,sans-Serif" font-size="14.00">(compute)</text>
<text xml:space="preserve" text-anchor="middle" x="263.1" y="-1975.65" font-family="Helvetica,sans-Serif" font-size="14.00">exec: in&#45;process</text>
<text xml:space="preserve" text-anchor="middle" x="263.1" y="-1960.65" font-family="Helvetica,sans-Serif" font-size="14.00">blocked: [llm, network, write]</text>
<text xml:space="preserve" text-anchor="middle" x="263.1" y="-1945.65" font-family="Helvetica,sans-Serif" font-size="14.00">timeout: 10s</text>
</g>
<!-- parallel_search&#45;&gt;merge_results -->
<g id="edge6" class="edge">
<title>parallel_search&#45;&gt;merge_results</title>
<path fill="none" stroke="black" d="M279.06,-2774.3C217.15,-2763.3 122.44,-2742.27 101.1,-2713.7 74.59,-2678.2 78.1,-2661.01 78.1,-2616.7 78.1,-2616.7 78.1,-2616.7 78.1,-2183.45 78.1,-2146.04 76.35,-2132.57 97.1,-2101.45 105.42,-2088.99 115.51,-2077.4 126.56,-2066.74"/>
<polygon fill="black" stroke="black" points="128.7,-2069.52 133.66,-2060.16 123.94,-2064.39 128.7,-2069.52"/>
<text xml:space="preserve" text-anchor="middle" x="85.6" y="-2383.58" font-family="Helvetica,sans-Serif" font-size="10.00">join</text>
</g>
<!-- dense_search&#45;&gt;sparse_search -->
<g id="edge7" class="edge">
<title>dense_search&#45;&gt;sparse_search</title>
<path fill="none" stroke="black" d="M337.54,-2517.44C337.96,-2505.64 338.39,-2493.61 338.8,-2481.87"/>
<polygon fill="black" stroke="black" points="342.29,-2482.34 339.14,-2472.23 335.29,-2482.1 342.29,-2482.34"/>
</g>
<!-- sparse_search&#45;&gt;entity_search -->
<g id="edge8" class="edge">
<title>sparse_search&#45;&gt;entity_search</title>
<path fill="none" stroke="black" d="M324.49,-2304.12C322.7,-2295.75 320.87,-2287.21 319.06,-2278.74"/>
<polygon fill="black" stroke="black" points="322.52,-2278.19 317.01,-2269.14 315.68,-2279.65 322.52,-2278.19"/>
</g>
<!-- entity_search&#45;&gt;merge_results -->
<g id="edge9" class="edge">
<title>entity_search&#45;&gt;merge_results</title>
<path fill="none" stroke="black" d="M284.36,-2101.12C282.86,-2092.75 281.33,-2084.21 279.81,-2075.74"/>
<polygon fill="black" stroke="black" points="283.3,-2075.38 278.1,-2066.15 276.41,-2076.61 283.3,-2075.38"/>
</g>
<!-- check_results -->
<g id="node8" class="node">
<title>check_results</title>
<polygon fill="#fff3e0" stroke="black" points="263.1,-1861.45 113.6,-1823.45 263.1,-1785.45 412.6,-1823.45 263.1,-1861.45"/>
<text xml:space="preserve" text-anchor="middle" x="263.1" y="-1825.15" font-family="Helvetica,sans-Serif" font-size="14.00">Check Search Results</text>
<text xml:space="preserve" text-anchor="middle" x="263.1" y="-1810.15" font-family="Helvetica,sans-Serif" font-size="14.00">(condition)</text>
</g>
<!-- merge_results&#45;&gt;check_results -->
<g id="edge10" class="edge">
<title>merge_results&#45;&gt;check_results</title>
<path fill="none" stroke="black" d="M263.1,-1898.34C263.1,-1889.76 263.1,-1881.25 263.1,-1873.21"/>
<polygon fill="black" stroke="black" points="266.6,-1873.36 263.1,-1863.36 259.6,-1873.36 266.6,-1873.36"/>
</g>
<!-- fallback_search -->
<g id="node9" class="node">
<title>fallback_search</title>
<polygon fill="#e8f5e9" stroke="black" points="316.21,-1738.2 64.7,-1738.2 0,-1572.2 251.51,-1572.2 316.21,-1738.2"/>
<text xml:space="preserve" text-anchor="middle" x="158.1" y="-1679.4" font-family="Helvetica,sans-Serif" font-size="14.00">Fallback Broad Search</text>
<text xml:space="preserve" text-anchor="middle" x="158.1" y="-1664.4" font-family="Helvetica,sans-Serif" font-size="14.00">(compute)</text>
<text xml:space="preserve" text-anchor="middle" x="158.1" y="-1649.4" font-family="Helvetica,sans-Serif" font-size="14.00">exec: in&#45;process</text>
<text xml:space="preserve" text-anchor="middle" x="158.1" y="-1634.4" font-family="Helvetica,sans-Serif" font-size="14.00">blocked: [llm, write]</text>
<text xml:space="preserve" text-anchor="middle" x="158.1" y="-1619.4" font-family="Helvetica,sans-Serif" font-size="14.00">timeout: 30s</text>
</g>
<!-- check_results&#45;&gt;fallback_search -->
<g id="edge12" class="edge">
<title>check_results&#45;&gt;fallback_search</title>
<path fill="none" stroke="black" stroke-dasharray="5,2" d="M242.86,-1790.4C235.06,-1778.05 225.72,-1763.25 216.12,-1748.06"/>
<polygon fill="black" stroke="black" points="219.23,-1746.43 210.93,-1739.85 213.31,-1750.17 219.23,-1746.43"/>
<text xml:space="preserve" text-anchor="middle" x="236.64" y="-1757.95" font-family="Helvetica,sans-Serif" font-size="10.00">false</text>
</g>
<!-- rerank -->
<g id="node13" class="node">
<title>rerank</title>
<path fill="#e3f2fd" stroke="black" d="M340.23,-1226.45C340.23,-1226.45 195.98,-1226.45 195.98,-1226.45 189.98,-1226.45 183.98,-1220.45 183.98,-1214.45 183.98,-1214.45 183.98,-1185.45 183.98,-1185.45 183.98,-1179.45 189.98,-1173.45 195.98,-1173.45 195.98,-1173.45 340.23,-1173.45 340.23,-1173.45 346.23,-1173.45 352.23,-1179.45 352.23,-1185.45 352.23,-1185.45 352.23,-1214.45 352.23,-1214.45 352.23,-1220.45 346.23,-1226.45 340.23,-1226.45"/>
<text xml:space="preserve" text-anchor="middle" x="268.1" y="-1209.15" font-family="Helvetica,sans-Serif" font-size="14.00">Rerank and Filter Results</text>
<text xml:space="preserve" text-anchor="middle" x="268.1" y="-1194.15" font-family="Helvetica,sans-Serif" font-size="14.00">(agent)</text>
<text xml:space="preserve" text-anchor="middle" x="268.1" y="-1179.15" font-family="Helvetica,sans-Serif" font-size="14.00">role: analyst</text>
</g>
<!-- check_results&#45;&gt;rerank -->
<g id="edge11" class="edge">
<title>check_results&#45;&gt;rerank</title>
<path fill="none" stroke="black" stroke-dasharray="5,2" d="M290.24,-1791.98C302.51,-1776.76 316.23,-1757.51 325.1,-1738.2 340.74,-1704.22 344.1,-1693.61 344.1,-1656.2 344.1,-1656.2 344.1,-1656.2 344.1,-1281.45 344.1,-1262.99 333.4,-1247.05 320.03,-1234.34"/>
<polygon fill="black" stroke="black" points="322.41,-1231.77 312.57,-1227.84 317.81,-1237.05 322.41,-1231.77"/>
<text xml:space="preserve" text-anchor="middle" x="352.35" y="-1421.45" font-family="Helvetica,sans-Serif" font-size="10.00">true</text>
</g>
<!-- check_fallback -->
<g id="node10" class="node">
<title>check_fallback</title>
<polygon fill="#fff3e0" stroke="black" points="159.1,-1524.95 2.1,-1486.95 159.1,-1448.95 316.1,-1486.95 159.1,-1524.95"/>
<text xml:space="preserve" text-anchor="middle" x="159.1" y="-1488.65" font-family="Helvetica,sans-Serif" font-size="14.00">Check Fallback Results</text>
<text xml:space="preserve" text-anchor="middle" x="159.1" y="-1473.65" font-family="Helvetica,sans-Serif" font-size="14.00">(condition)</text>
</g>
<!-- fallback_search&#45;&gt;check_fallback -->
<g id="edge13" class="edge">
<title>fallback_search&#45;&gt;check_fallback</title>
<path fill="none" stroke="black" d="M158.6,-1572.05C158.67,-1559.91 158.75,-1547.74 158.81,-1536.58"/>
<polygon fill="black" stroke="black" points="162.31,-1536.89 158.87,-1526.87 155.31,-1536.85 162.31,-1536.89"/>
</g>
<!-- no_context_answer -->
<g id="node11" class="node">
<title>no_context_answer</title>
<path fill="#e3f2fd" stroke="black" d="M227.85,-1401.7C227.85,-1401.7 90.35,-1401.7 90.35,-1401.7 84.35,-1401.7 78.35,-1395.7 78.35,-1389.7 78.35,-1389.7 78.35,-1360.7 78.35,-1360.7 78.35,-1354.7 84.35,-1348.7 90.35,-1348.7 90.35,-1348.7 227.85,-1348.7 227.85,-1348.7 233.85,-1348.7 239.85,-1354.7 239.85,-1360.7 239.85,-1360.7 239.85,-1389.7 239.85,-1389.7 239.85,-1395.7 233.85,-1401.7 227.85,-1401.7"/>
<text xml:space="preserve" text-anchor="middle" x="159.1" y="-1384.4" font-family="Helvetica,sans-Serif" font-size="14.00">Answer Without Context</text>
<text xml:space="preserve" text-anchor="middle" x="159.1" y="-1369.4" font-family="Helvetica,sans-Serif" font-size="14.00">(agent)</text>
<text xml:space="preserve" text-anchor="middle" x="159.1" y="-1354.4" font-family="Helvetica,sans-Serif" font-size="14.00">role: executor</text>
</g>
<!-- check_fallback&#45;&gt;no_context_answer -->
<g id="edge15" class="edge">
<title>check_fallback&#45;&gt;no_context_answer</title>
<path fill="none" stroke="black" stroke-dasharray="5,2" d="M159.1,-1448.49C159.1,-1437.15 159.1,-1424.71 159.1,-1413.39"/>
<polygon fill="black" stroke="black" points="162.6,-1413.61 159.1,-1403.61 155.6,-1413.61 162.6,-1413.61"/>
<text xml:space="preserve" text-anchor="middle" x="169.6" y="-1421.45" font-family="Helvetica,sans-Serif" font-size="10.00">false</text>
</g>
<!-- check_fallback&#45;&gt;rerank -->
<g id="edge14" class="edge">
<title>check_fallback&#45;&gt;rerank</title>
<path fill="none" stroke="black" stroke-dasharray="5,2" d="M199.66,-1458.67C217.98,-1444.05 237.97,-1424.37 249.1,-1401.7 274.79,-1349.39 275.1,-1280.23 272.18,-1238.25"/>
<polygon fill="black" stroke="black" points="275.68,-1238.11 271.39,-1228.42 268.71,-1238.67 275.68,-1238.11"/>
<text xml:space="preserve" text-anchor="middle" x="279.12" y="-1321.2" font-family="Helvetica,sans-Serif" font-size="10.00">true</text>
</g>
<!-- complete_no_context -->
<g id="node12" class="node">
<title>complete_no_context</title>
<polygon fill="#eceff1" stroke="black" points="239.48,-1301.45 84.73,-1301.45 84.73,-1263.45 239.48,-1263.45 239.48,-1301.45"/>
<text xml:space="preserve" text-anchor="middle" x="162.1" y="-1284.15" font-family="Helvetica,sans-Serif" font-size="14.00">Complete (No Context)</text>
<text xml:space="preserve" text-anchor="middle" x="162.1" y="-1269.15" font-family="Helvetica,sans-Serif" font-size="14.00">(transform)</text>
</g>
<!-- no_context_answer&#45;&gt;complete_no_context -->
<g id="edge16" class="edge">
<title>no_context_answer&#45;&gt;complete_no_context</title>
<path fill="none" stroke="black" d="M159.96,-1348.44C160.32,-1337.4 160.75,-1324.43 161.13,-1313"/>
<polygon fill="black" stroke="black" points="164.62,-1313.41 161.45,-1303.3 157.62,-1313.18 164.62,-1313.41"/>
</g>
<!-- complete_no_context&#45;&gt;rerank -->
<g id="edge17" class="edge">
<title>complete_no_context&#45;&gt;rerank</title>
<path fill="none" stroke="black" d="M186.42,-1262.98C197.95,-1254.24 212.05,-1243.52 225.28,-1233.47"/>
<polygon fill="black" stroke="black" points="227.21,-1236.41 233.06,-1227.57 222.97,-1230.83 227.21,-1236.41"/>
</g>
<!-- check_coverage -->
<g id="node14" class="node">
<title>check_coverage</title>
<path fill="#e3f2fd" stroke="black" d="M339.48,-1136.45C339.48,-1136.45 196.73,-1136.45 196.73,-1136.45 190.73,-1136.45 184.73,-1130.45 184.73,-1124.45 184.73,-1124.45 184.73,-1095.45 184.73,-1095.45 184.73,-1089.45 190.73,-1083.45 196.73,-1083.45 196.73,-1083.45 339.48,-1083.45 339.48,-1083.45 345.48,-1083.45 351.48,-1089.45 351.48,-1095.45 351.48,-1095.45 351.48,-1124.45 351.48,-1124.45 351.48,-1130.45 345.48,-1136.45 339.48,-1136.45"/>
<text xml:space="preserve" text-anchor="middle" x="268.1" y="-1119.15" font-family="Helvetica,sans-Serif" font-size="14.00">Check Context Coverage</text>
<text xml:space="preserve" text-anchor="middle" x="268.1" y="-1104.15" font-family="Helvetica,sans-Serif" font-size="14.00">(agent)</text>
<text xml:space="preserve" text-anchor="middle" x="268.1" y="-1089.15" font-family="Helvetica,sans-Serif" font-size="14.00">role: analyst</text>
</g>
<!-- rerank&#45;&gt;check_coverage -->
<g id="edge18" class="edge">
<title>rerank&#45;&gt;check_coverage</title>
<path fill="none" stroke="black" d="M268.1,-1173.03C268.1,-1165.24 268.1,-1156.54 268.1,-1148.17"/>
<polygon fill="black" stroke="black" points="271.6,-1148.21 268.1,-1138.21 264.6,-1148.21 271.6,-1148.21"/>
</g>
<!-- coverage_decision -->
<g id="node15" class="node">
<title>coverage_decision</title>
<polygon fill="#fff3e0" stroke="black" points="268.1,-1046.45 138.1,-1008.45 268.1,-970.45 398.1,-1008.45 268.1,-1046.45"/>
<text xml:space="preserve" text-anchor="middle" x="268.1" y="-1010.15" font-family="Helvetica,sans-Serif" font-size="14.00">Coverage Decision</text>
<text xml:space="preserve" text-anchor="middle" x="268.1" y="-995.15" font-family="Helvetica,sans-Serif" font-size="14.00">(condition)</text>
</g>
<!-- check_coverage&#45;&gt;coverage_decision -->
<g id="edge19" class="edge">
<title>check_coverage&#45;&gt;coverage_decision</title>
<path fill="none" stroke="black" d="M268.1,-1083.07C268.1,-1075.38 268.1,-1066.7 268.1,-1058.06"/>
<polygon fill="black" stroke="black" points="271.6,-1058.34 268.1,-1048.34 264.6,-1058.34 271.6,-1058.34"/>
</g>
<!-- handle_partial -->
<g id="node16" class="node">
<title>handle_partial</title>
<polygon fill="#fff3e0" stroke="black" points="410.1,-923.2 247.85,-885.2 410.1,-847.2 572.35,-885.2 410.1,-923.2"/>
<text xml:space="preserve" text-anchor="middle" x="410.1" y="-886.9" font-family="Helvetica,sans-Serif" font-size="14.00">Check Confidence Level</text>
<text xml:space="preserve" text-anchor="middle" x="410.1" y="-871.9" font-family="Helvetica,sans-Serif" font-size="14.00">(condition)</text>
</g>
<!-- coverage_decision&#45;&gt;handle_partial -->
<g id="edge21" class="edge">
<title>coverage_decision&#45;&gt;handle_partial</title>
<path fill="none" stroke="black" stroke-dasharray="5,2" d="M300.68,-979.64C320.4,-962.8 345.78,-941.13 367.13,-922.9"/>
<polygon fill="black" stroke="black" points="369.21,-925.72 374.55,-916.57 364.67,-920.4 369.21,-925.72"/>
<text xml:space="preserve" text-anchor="middle" x="353.86" y="-942.95" font-family="Helvetica,sans-Serif" font-size="10.00">false</text>
</g>
<!-- generate_answer -->
<g id="node19" class="node">
<title>generate_answer</title>
<path fill="#e3f2fd" stroke="black" d="M379.98,-554.5C379.98,-554.5 198.23,-554.5 198.23,-554.5 192.23,-554.5 186.23,-548.5 186.23,-542.5 186.23,-542.5 186.23,-513.5 186.23,-513.5 186.23,-507.5 192.23,-501.5 198.23,-501.5 198.23,-501.5 379.98,-501.5 379.98,-501.5 385.98,-501.5 391.98,-507.5 391.98,-513.5 391.98,-513.5 391.98,-542.5 391.98,-542.5 391.98,-548.5 385.98,-554.5 379.98,-554.5"/>
<text xml:space="preserve" text-anchor="middle" x="289.1" y="-537.2" font-family="Helvetica,sans-Serif" font-size="14.00">Generate Answer with Citations</text>
<text xml:space="preserve" text-anchor="middle" x="289.1" y="-522.2" font-family="Helvetica,sans-Serif" font-size="14.00">(agent)</text>
<text xml:space="preserve" text-anchor="middle" x="289.1" y="-507.2" font-family="Helvetica,sans-Serif" font-size="14.00">role: writer</text>
</g>
<!-- coverage_decision&#45;&gt;generate_answer -->
<g id="edge20" class="edge">
<title>coverage_decision&#45;&gt;generate_answer</title>
<path fill="none" stroke="black" stroke-dasharray="5,2" d="M248.03,-975.86C234.87,-952.14 220.1,-918.35 220.1,-886.2 220.1,-886.2 220.1,-886.2 220.1,-638.75 220.1,-610.32 236.9,-583.23 253.92,-563.07"/>
<polygon fill="black" stroke="black" points="256.42,-565.54 260.43,-555.73 251.18,-560.89 256.42,-565.54"/>
<text xml:space="preserve" text-anchor="middle" x="228.35" y="-758.6" font-family="Helvetica,sans-Serif" font-size="10.00">true</text>
</g>
<!-- request_clarification -->
<g id="node17" class="node">
<title>request_clarification</title>
<ellipse fill="#ffebee" stroke="black" cx="431.1" cy="-762.48" rx="128.52" ry="37.48"/>
<text xml:space="preserve" text-anchor="middle" x="431.1" y="-771.68" font-family="Helvetica,sans-Serif" font-size="14.00">Request Query Clarification</text>
<text xml:space="preserve" text-anchor="middle" x="431.1" y="-756.68" font-family="Helvetica,sans-Serif" font-size="14.00">(hitl)</text>
<text xml:space="preserve" text-anchor="middle" x="431.1" y="-741.68" font-family="Helvetica,sans-Serif" font-size="14.00">timeout: 300s</text>
</g>
<!-- handle_partial&#45;&gt;request_clarification -->
<g id="edge23" class="edge">
<title>handle_partial&#45;&gt;request_clarification</title>
<path fill="none" stroke="black" stroke-dasharray="5,2" d="M416.35,-848.31C418.37,-836.71 420.64,-823.65 422.78,-811.33"/>
<polygon fill="black" stroke="black" points="426.18,-812.22 424.44,-801.77 419.28,-811.02 426.18,-812.22"/>
<text xml:space="preserve" text-anchor="middle" x="431.73" y="-819.7" font-family="Helvetica,sans-Serif" font-size="10.00">false</text>
</g>
<!-- handle_partial&#45;&gt;generate_answer -->
<g id="edge22" class="edge">
<title>handle_partial&#45;&gt;generate_answer</title>
<path fill="none" stroke="black" stroke-dasharray="5,2" d="M355.75,-859.45C332.03,-845.58 306.59,-825.81 293.1,-799.95 253.78,-724.56 267.99,-620.57 279.74,-565.94"/>
<polygon fill="black" stroke="black" points="283.15,-566.74 281.94,-556.22 276.32,-565.2 283.15,-566.74"/>
<text xml:space="preserve" text-anchor="middle" x="276.62" y="-697.5" font-family="Helvetica,sans-Serif" font-size="10.00">true</text>
</g>
<!-- handle_clarification -->
<g id="node18" class="node">
<title>handle_clarification</title>
<polygon fill="#fff3e0" stroke="black" points="434.1,-677.75 301.1,-639.75 434.1,-601.75 567.1,-639.75 434.1,-677.75"/>
<text xml:space="preserve" text-anchor="middle" x="434.1" y="-641.45" font-family="Helvetica,sans-Serif" font-size="14.00">Handle Clarification</text>
<text xml:space="preserve" text-anchor="middle" x="434.1" y="-626.45" font-family="Helvetica,sans-Serif" font-size="14.00">(condition)</text>
</g>
<!-- request_clarification&#45;&gt;handle_clarification -->
<g id="edge24" class="edge">
<title>request_clarification&#45;&gt;handle_clarification</title>
<path fill="none" stroke="black" d="M432.02,-724.6C432.3,-713.47 432.61,-701.08 432.9,-689.31"/>
<polygon fill="black" stroke="black" points="436.4,-689.42 433.15,-679.33 429.4,-689.24 436.4,-689.42"/>
</g>
<!-- handle_clarification&#45;&gt;analyze_query -->
<g id="edge26" class="edge">
<title>handle_clarification&#45;&gt;analyze_query</title>
<path fill="none" stroke="black" stroke-dasharray="5,2" d="M499.24,-659.46C545.74,-677.28 600.1,-709.27 600.1,-761.48 600.1,-2871.45 600.1,-2871.45 600.1,-2871.45 600.1,-2890.09 592.11,-2908.82 582.94,-2924.19"/>
<polygon fill="black" stroke="black" points="580.07,-2922.18 577.63,-2932.49 585.97,-2925.95 580.07,-2922.18"/>
<text xml:space="preserve" text-anchor="middle" x="618.85" y="-1544.7" font-family="Helvetica,sans-Serif" font-size="10.00">rephrase</text>
</g>
<!-- handle_clarification&#45;&gt;generate_answer -->
<g id="edge25" class="edge">
<title>handle_clarification&#45;&gt;generate_answer</title>
<path fill="none" stroke="black" stroke-dasharray="5,2" d="M384.84,-615.47C368.54,-606.66 350.82,-595.81 336.1,-583.75 328.79,-577.76 321.71,-570.54 315.35,-563.34"/>
<polygon fill="black" stroke="black" points="318.37,-561.49 309.23,-556.13 313.03,-566.02 318.37,-561.49"/>
<text xml:space="preserve" text-anchor="middle" x="369.1" y="-574.25" font-family="Helvetica,sans-Serif" font-size="10.00">proceed_partial</text>
</g>
<!-- handle_clarification&#45;&gt;generate_answer -->
<g id="edge27" class="edge">
<title>handle_clarification&#45;&gt;generate_answer</title>
<path fill="none" stroke="black" stroke-dasharray="5,2" d="M423.41,-604.57C418.44,-593.15 411.5,-581.15 402.1,-572.5 397.35,-568.12 392.11,-564.17 386.56,-560.6"/>
<polygon fill="black" stroke="black" points="388.67,-557.78 378.28,-555.72 385.12,-563.81 388.67,-557.78"/>
<text xml:space="preserve" text-anchor="middle" x="423.28" y="-574.25" font-family="Helvetica,sans-Serif" font-size="10.00">focus</text>
</g>
<!-- verify_answer -->
<g id="node20" class="node">
<title>verify_answer</title>
<path fill="#e3f2fd" stroke="black" d="M356.35,-464.5C356.35,-464.5 221.85,-464.5 221.85,-464.5 215.85,-464.5 209.85,-458.5 209.85,-452.5 209.85,-452.5 209.85,-423.5 209.85,-423.5 209.85,-417.5 215.85,-411.5 221.85,-411.5 221.85,-411.5 356.35,-411.5 356.35,-411.5 362.35,-411.5 368.35,-417.5 368.35,-423.5 368.35,-423.5 368.35,-452.5 368.35,-452.5 368.35,-458.5 362.35,-464.5 356.35,-464.5"/>
<text xml:space="preserve" text-anchor="middle" x="289.1" y="-447.2" font-family="Helvetica,sans-Serif" font-size="14.00">Verify Answer Accuracy</text>
<text xml:space="preserve" text-anchor="middle" x="289.1" y="-432.2" font-family="Helvetica,sans-Serif" font-size="14.00">(agent)</text>
<text xml:space="preserve" text-anchor="middle" x="289.1" y="-417.2" font-family="Helvetica,sans-Serif" font-size="14.00">role: reviewer</text>
</g>
<!-- generate_answer&#45;&gt;verify_answer -->
<g id="edge28" class="edge">
<title>generate_answer&#45;&gt;verify_answer</title>
<path fill="none" stroke="black" d="M289.1,-501.07C289.1,-493.29 289.1,-484.58 289.1,-476.22"/>
<polygon fill="black" stroke="black" points="292.6,-476.26 289.1,-466.26 285.6,-476.26 292.6,-476.26"/>
</g>
<!-- check_verification -->
<g id="node21" class="node">
<title>check_verification</title>
<polygon fill="#fff3e0" stroke="black" points="200.1,-374.5 75.35,-336.5 200.1,-298.5 324.85,-336.5 200.1,-374.5"/>
<text xml:space="preserve" text-anchor="middle" x="200.1" y="-338.2" font-family="Helvetica,sans-Serif" font-size="14.00">Check Verification</text>
<text xml:space="preserve" text-anchor="middle" x="200.1" y="-323.2" font-family="Helvetica,sans-Serif" font-size="14.00">(condition)</text>
</g>
<!-- verify_answer&#45;&gt;check_verification -->
<g id="edge29" class="edge">
<title>verify_answer&#45;&gt;check_verification</title>
<path fill="none" stroke="black" d="M265.95,-411.12C256.17,-400.18 244.59,-387.23 233.88,-375.26"/>
<polygon fill="black" stroke="black" points="236.57,-373.02 227.29,-367.89 231.35,-377.68 236.57,-373.02"/>
</g>
<!-- revise_answer -->
<g id="node22" class="node">
<title>revise_answer</title>
<polygon fill="#fff3e0" stroke="black" points="200.1,-251.25 50.6,-213.25 200.1,-175.25 349.6,-213.25 200.1,-251.25"/>
<text xml:space="preserve" text-anchor="middle" x="200.1" y="-214.95" font-family="Helvetica,sans-Serif" font-size="14.00">Check Revision Count</text>
<text xml:space="preserve" text-anchor="middle" x="200.1" y="-199.95" font-family="Helvetica,sans-Serif" font-size="14.00">(condition)</text>
</g>
<!-- check_verification&#45;&gt;revise_answer -->
<g id="edge31" class="edge">
<title>check_verification&#45;&gt;revise_answer</title>
<path fill="none" stroke="black" stroke-dasharray="5,2" d="M200.1,-298.13C200.1,-287.07 200.1,-274.79 200.1,-263.11"/>
<polygon fill="black" stroke="black" points="203.6,-263.22 200.1,-253.22 196.6,-263.22 203.6,-263.22"/>
<text xml:space="preserve" text-anchor="middle" x="210.6" y="-271" font-family="Helvetica,sans-Serif" font-size="10.00">false</text>
</g>
<!-- format_response -->
<g id="node24" class="node">
<title>format_response</title>
<polygon fill="#eceff1" stroke="black" points="194.6,-120.5 37.6,-120.5 37.6,-82.5 194.6,-82.5 194.6,-120.5"/>
<text xml:space="preserve" text-anchor="middle" x="116.1" y="-103.2" font-family="Helvetica,sans-Serif" font-size="14.00">Format Final Response</text>
<text xml:space="preserve" text-anchor="middle" x="116.1" y="-88.2" font-family="Helvetica,sans-Serif" font-size="14.00">(transform)</text>
</g>
<!-- check_verification&#45;&gt;format_response -->
<g id="edge30" class="edge">
<title>check_verification&#45;&gt;format_response</title>
<path fill="none" stroke="black" stroke-dasharray="5,2" d="M127.39,-320.13C89.81,-308.1 47.19,-287.15 24.6,-251.25 6.62,-222.66 9.93,-205.67 24.6,-175.25 34.28,-155.2 52.46,-138.98 70.08,-126.98"/>
<polygon fill="black" stroke="black" points="71.97,-129.93 78.49,-121.57 68.18,-124.04 71.97,-129.93"/>
<text xml:space="preserve" text-anchor="middle" x="32.85" y="-209.38" font-family="Helvetica,sans-Serif" font-size="10.00">true</text>
</g>
<!-- apply_revision -->
<g id="node23" class="node">
<title>apply_revision</title>
<path fill="#e3f2fd" stroke="black" d="M324.1,-128C324.1,-128 242.1,-128 242.1,-128 236.1,-128 230.1,-122 230.1,-116 230.1,-116 230.1,-87 230.1,-87 230.1,-81 236.1,-75 242.1,-75 242.1,-75 324.1,-75 324.1,-75 330.1,-75 336.1,-81 336.1,-87 336.1,-87 336.1,-116 336.1,-116 336.1,-122 330.1,-128 324.1,-128"/>
<text xml:space="preserve" text-anchor="middle" x="283.1" y="-110.7" font-family="Helvetica,sans-Serif" font-size="14.00">Revise Answer</text>
<text xml:space="preserve" text-anchor="middle" x="283.1" y="-95.7" font-family="Helvetica,sans-Serif" font-size="14.00">(agent)</text>
<text xml:space="preserve" text-anchor="middle" x="283.1" y="-80.7" font-family="Helvetica,sans-Serif" font-size="14.00">role: executor</text>
</g>
<!-- revise_answer&#45;&gt;apply_revision -->
<g id="edge32" class="edge">
<title>revise_answer&#45;&gt;apply_revision</title>
<path fill="none" stroke="black" stroke-dasharray="5,2" d="M223.89,-180.8C234.18,-167.19 246.27,-151.21 256.83,-137.24"/>
<polygon fill="black" stroke="black" points="259.36,-139.7 262.6,-129.61 253.78,-135.48 259.36,-139.7"/>
<text xml:space="preserve" text-anchor="middle" x="257.29" y="-147.75" font-family="Helvetica,sans-Serif" font-size="10.00">true</text>
</g>
<!-- revise_answer&#45;&gt;format_response -->
<g id="edge33" class="edge">
<title>revise_answer&#45;&gt;format_response</title>
<path fill="none" stroke="black" stroke-dasharray="5,2" d="M176.26,-181.09C163.89,-164.93 148.91,-145.37 137,-129.8"/>
<polygon fill="black" stroke="black" points="139.81,-127.71 130.95,-121.89 134.25,-131.96 139.81,-127.71"/>
<text xml:space="preserve" text-anchor="middle" x="166.09" y="-147.75" font-family="Helvetica,sans-Serif" font-size="10.00">false</text>
</g>
<!-- apply_revision&#45;&gt;verify_answer -->
<g id="edge34" class="edge">
<title>apply_revision&#45;&gt;verify_answer</title>
<path fill="none" stroke="black" d="M320.48,-128.23C335.12,-140.57 350.26,-156.71 358.1,-175.25 392.86,-257.39 369.51,-292.63 334.1,-374.5 330.02,-383.95 324.32,-393.37 318.34,-401.93"/>
<polygon fill="black" stroke="black" points="315.55,-399.82 312.45,-409.95 321.19,-403.96 315.55,-399.82"/>
</g>
<!-- complete -->
<g id="node25" class="node">
<title>complete</title>
<polygon fill="#eceff1" stroke="black" points="173.98,-38 58.23,-38 58.23,0 173.98,0 173.98,-38"/>
<text xml:space="preserve" text-anchor="middle" x="116.1" y="-20.7" font-family="Helvetica,sans-Serif" font-size="14.00">Query Complete</text>
<text xml:space="preserve" text-anchor="middle" x="116.1" y="-5.7" font-family="Helvetica,sans-Serif" font-size="14.00">(transform)</text>
</g>
<!-- format_response&#45;&gt;complete -->
<g id="edge35" class="edge">
<title>format_response&#45;&gt;complete</title>
<path fill="none" stroke="black" d="M116.1,-82.23C116.1,-72.63 116.1,-60.61 116.1,-49.7"/>
<polygon fill="black" stroke="black" points="119.6,-49.99 116.1,-39.99 112.6,-49.99 119.6,-49.99"/>
</g>
</g>
</svg>
