<?xml version="1.0" encoding="UTF-8" standalone="no"?>
<!DOCTYPE svg PUBLIC "-//W3C//DTD SVG 1.1//EN"
 "http://www.w3.org/Graphics/SVG/1.1/DTD/svg11.dtd">
<!-- Generated by graphviz version 14.0.4 (20251115.1723)
 -->
<!-- Title: workflow Pages: 1 -->
<svg width="535pt" height="1226pt"
 viewBox="0.00 0.00 535.00 1226.00" xmlns="http://www.w3.org/2000/svg" xmlns:xlink="http://www.w3.org/1999/xlink">
<g id="graph0" class="graph" transform="scale(1 1) rotate(0) translate(4 1222.16)">
<title>workflow</title>
<polygon fill="white" stroke="none" points="-4,4 -4,-1222.16 530.55,-1222.16 530.55,4 -4,4"/>
<text xml:space="preserve" text-anchor="middle" x="263.27" y="-1200.86" font-family="Times,serif" font-size="14.00">fact_check</text>
<!-- parse_claims -->
<g id="node1" class="node">
<title>parse_claims</title>
<path fill="#e3f2fd" stroke="black" d="M399.55,-1193.66C399.55,-1193.66 254.55,-1193.66 254.55,-1193.66 248.55,-1193.66 242.55,-1187.66 242.55,-1181.66 242.55,-1181.66 242.55,-1152.66 242.55,-1152.66 242.55,-1146.66 248.55,-1140.66 254.55,-1140.66 254.55,-1140.66 399.55,-1140.66 399.55,-1140.66 405.55,-1140.66 411.55,-1146.66 411.55,-1152.66 411.55,-1152.66 411.55,-1181.66 411.55,-1181.66 411.55,-1187.66 405.55,-1193.66 399.55,-1193.66"/>
<text xml:space="preserve" text-anchor="middle" x="327.05" y="-1176.36" font-family="Helvetica,sans-Serif" font-size="14.00">Parse and Extract Claims</text>
<text xml:space="preserve" text-anchor="middle" x="327.05" y="-1161.36" font-family="Helvetica,sans-Serif" font-size="14.00">(agent)</text>
<text xml:space="preserve" text-anchor="middle" x="327.05" y="-1146.36" font-family="Helvetica,sans-Serif" font-size="14.00">role: analyst</text>
</g>
<!-- parallel_search -->
<g id="node2" class="node">
<title>parallel_search</title>
<polygon fill="#f3e5f5" stroke="black" points="453.55,-1099.66 200.55,-1099.66 200.55,-1061.66 453.55,-1061.66 453.55,-1099.66"/>
<polygon fill="none" stroke="black" points="457.55,-1103.66 196.55,-1103.66 196.55,-1057.66 457.55,-1057.66 457.55,-1103.66"/>
<text xml:space="preserve" text-anchor="middle" x="327.05" y="-1082.36" font-family="Helvetica,sans-Serif" font-size="14.00">Gather Evidence from Multiple Sources</text>
<text xml:space="preserve" text-anchor="middle" x="327.05" y="-1067.36" font-family="Helvetica,sans-Serif" font-size="14.00">(parallel)</text>
</g>
<!-- parse_claims&#45;&gt;parallel_search -->
<g id="edge1" class="edge">
<title>parse_claims&#45;&gt;parallel_search</title>
<path fill="none" stroke="black" d="M327.05,-1140.34C327.05,-1132.43 327.05,-1123.6 327.05,-1115.24"/>
<polygon fill="black" stroke="black" points="330.55,-1115.4 327.05,-1105.4 323.55,-1115.4 330.55,-1115.4"/>
</g>
<!-- primary_sources -->
<g id="node3" class="node">
<title>primary_sources</title>
<path fill="#e3f2fd" stroke="black" d="M256.55,-1010.41C256.55,-1010.41 117.55,-1010.41 117.55,-1010.41 111.55,-1010.41 105.55,-1004.41 105.55,-998.41 105.55,-998.41 105.55,-969.41 105.55,-969.41 105.55,-963.41 111.55,-957.41 117.55,-957.41 117.55,-957.41 256.55,-957.41 256.55,-957.41 262.55,-957.41 268.55,-963.41 268.55,-969.41 268.55,-969.41 268.55,-998.41 268.55,-998.41 268.55,-1004.41 262.55,-1010.41 256.55,-1010.41"/>
<text xml:space="preserve" text-anchor="middle" x="187.05" y="-993.11" font-family="Helvetica,sans-Serif" font-size="14.00">Search Primary Sources</text>
<text xml:space="preserve" text-anchor="middle" x="187.05" y="-978.11" font-family="Helvetica,sans-Serif" font-size="14.00">(agent)</text>
<text xml:space="preserve" text-anchor="middle" x="187.05" y="-963.11" font-family="Helvetica,sans-Serif" font-size="14.00">role: researcher</text>
</g>
<!-- parallel_search&#45;&gt;primary_sources -->
<g id="edge2" class="edge">
<title>parallel_search&#45;&gt;primary_sources</title>
<path fill="none" stroke="black" d="M293.87,-1057.2C276.22,-1045.26 254.2,-1030.36 234.75,-1017.19"/>
<polygon fill="black" stroke="black" points="236.94,-1014.44 226.69,-1011.74 233.01,-1020.24 236.94,-1014.44"/>
<text xml:space="preserve" text-anchor="middle" x="273.68" y="-1030.16" font-family="Helvetica,sans-Serif" font-size="10.00">fork</text>
</g>
<!-- fact_check_sites -->
<g id="node4" class="node">
<title>fact_check_sites</title>
<path fill="#e3f2fd" stroke="black" d="M310.42,-910.16C310.42,-910.16 155.67,-910.16 155.67,-910.16 149.67,-910.16 143.67,-904.16 143.67,-898.16 143.67,-898.16 143.67,-869.16 143.67,-869.16 143.67,-863.16 149.67,-857.16 155.67,-857.16 155.67,-857.16 310.42,-857.16 310.42,-857.16 316.42,-857.16 322.42,-863.16 322.42,-869.16 322.42,-869.16 322.42,-898.16 322.42,-898.16 322.42,-904.16 316.42,-910.16 310.42,-910.16"/>
<text xml:space="preserve" text-anchor="middle" x="233.05" y="-892.86" font-family="Helvetica,sans-Serif" font-size="14.00">Check Fact&#45;Checking Sites</text>
<text xml:space="preserve" text-anchor="middle" x="233.05" y="-877.86" font-family="Helvetica,sans-Serif" font-size="14.00">(agent)</text>
<text xml:space="preserve" text-anchor="middle" x="233.05" y="-862.86" font-family="Helvetica,sans-Serif" font-size="14.00">role: researcher</text>
</g>
<!-- parallel_search&#45;&gt;fact_check_sites -->
<g id="edge3" class="edge">
<title>parallel_search&#45;&gt;fact_check_sites</title>
<path fill="none" stroke="black" d="M319.48,-1057.51C310.68,-1032.63 295.16,-991.29 278.05,-957.41 271.72,-944.87 263.93,-931.68 256.62,-920.02"/>
<polygon fill="black" stroke="black" points="259.77,-918.46 251.45,-911.91 253.87,-922.22 259.77,-918.46"/>
<text xml:space="preserve" text-anchor="middle" x="309.26" y="-980.03" font-family="Helvetica,sans-Serif" font-size="10.00">fork</text>
</g>
<!-- news_archives -->
<g id="node5" class="node">
<title>news_archives</title>
<path fill="#e3f2fd" stroke="black" d="M355.92,-820.16C355.92,-820.16 228.17,-820.16 228.17,-820.16 222.17,-820.16 216.17,-814.16 216.17,-808.16 216.17,-808.16 216.17,-779.16 216.17,-779.16 216.17,-773.16 222.17,-767.16 228.17,-767.16 228.17,-767.16 355.92,-767.16 355.92,-767.16 361.92,-767.16 367.92,-773.16 367.92,-779.16 367.92,-779.16 367.92,-808.16 367.92,-808.16 367.92,-814.16 361.92,-820.16 355.92,-820.16"/>
<text xml:space="preserve" text-anchor="middle" x="292.05" y="-802.86" font-family="Helvetica,sans-Serif" font-size="14.00">Search News Archives</text>
<text xml:space="preserve" text-anchor="middle" x="292.05" y="-787.86" font-family="Helvetica,sans-Serif" font-size="14.00">(agent)</text>
<text xml:space="preserve" text-anchor="middle" x="292.05" y="-772.86" font-family="Helvetica,sans-Serif" font-size="14.00">role: researcher</text>
</g>
<!-- parallel_search&#45;&gt;news_archives -->
<g id="edge4" class="edge">
<title>parallel_search&#45;&gt;news_archives</title>
<path fill="none" stroke="black" d="M331.68,-1057.31C339.2,-1016.57 351.31,-927.91 331.05,-857.16 328.36,-847.79 323.82,-838.46 318.77,-829.98"/>
<polygon fill="black" stroke="black" points="321.83,-828.27 313.5,-821.74 315.94,-832.05 321.83,-828.27"/>
<text xml:space="preserve" text-anchor="middle" x="350.33" y="-929.91" font-family="Helvetica,sans-Serif" font-size="10.00">fork</text>
</g>
<!-- aggregate_evidence -->
<g id="node6" class="node">
<title>aggregate_evidence</title>
<polygon fill="#eceff1" stroke="black" points="422.17,-730.16 265.92,-730.16 265.92,-692.16 422.17,-692.16 422.17,-730.16"/>
<text xml:space="preserve" text-anchor="middle" x="344.05" y="-712.86" font-family="Helvetica,sans-Serif" font-size="14.00">Aggregate All Evidence</text>
<text xml:space="preserve" text-anchor="middle" x="344.05" y="-697.86" font-family="Helvetica,sans-Serif" font-size="14.00">(transform)</text>
</g>
<!-- parallel_search&#45;&gt;aggregate_evidence -->
<g id="edge5" class="edge">
<title>parallel_search&#45;&gt;aggregate_evidence</title>
<path fill="none" stroke="black" d="M355.91,-1057.21C374.82,-1039.79 396.05,-1013.8 396.05,-984.91 396.05,-984.91 396.05,-984.91 396.05,-792.66 396.05,-772.54 384.45,-753.47 372.21,-738.94"/>
<polygon fill="black" stroke="black" points="374.91,-736.72 365.61,-731.64 369.72,-741.41 374.91,-736.72"/>
<text xml:space="preserve" text-anchor="middle" x="403.55" y="-879.78" font-family="Helvetica,sans-Serif" font-size="10.00">join</text>
</g>
<!-- primary_sources&#45;&gt;fact_check_sites -->
<g id="edge6" class="edge">
<title>primary_sources&#45;&gt;fact_check_sites</title>
<path fill="none" stroke="black" d="M199.13,-957.09C204.32,-946.01 210.47,-932.87 216.11,-920.84"/>
<polygon fill="black" stroke="black" points="219.17,-922.55 220.24,-912.01 212.83,-919.58 219.17,-922.55"/>
</g>
<!-- fact_check_sites&#45;&gt;news_archives -->
<g id="edge7" class="edge">
<title>fact_check_sites&#45;&gt;news_archives</title>
<path fill="none" stroke="black" d="M250.43,-856.73C256.07,-848.32 262.43,-838.83 268.44,-829.86"/>
<polygon fill="black" stroke="black" points="271.28,-831.91 273.95,-821.66 265.47,-828.01 271.28,-831.91"/>
</g>
<!-- news_archives&#45;&gt;aggregate_evidence -->
<g id="edge8" class="edge">
<title>news_archives&#45;&gt;aggregate_evidence</title>
<path fill="none" stroke="black" d="M308.79,-766.74C314.25,-758.29 320.34,-748.86 325.9,-740.25"/>
<polygon fill="black" stroke="black" points="328.81,-742.2 331.3,-731.9 322.93,-738.4 328.81,-742.2"/>
</g>
<!-- evaluate_evidence -->
<g id="node7" class="node">
<title>evaluate_evidence</title>
<path fill="#e3f2fd" stroke="black" d="M419.17,-655.16C419.17,-655.16 268.92,-655.16 268.92,-655.16 262.92,-655.16 256.92,-649.16 256.92,-643.16 256.92,-643.16 256.92,-614.16 256.92,-614.16 256.92,-608.16 262.92,-602.16 268.92,-602.16 268.92,-602.16 419.17,-602.16 419.17,-602.16 425.17,-602.16 431.17,-608.16 431.17,-614.16 431.17,-614.16 431.17,-643.16 431.17,-643.16 431.17,-649.16 425.17,-655.16 419.17,-655.16"/>
<text xml:space="preserve" text-anchor="middle" x="344.05" y="-637.86" font-family="Helvetica,sans-Serif" font-size="14.00">Evaluate Evidence Quality</text>
<text xml:space="preserve" text-anchor="middle" x="344.05" y="-622.86" font-family="Helvetica,sans-Serif" font-size="14.00">(agent)</text>
<text xml:space="preserve" text-anchor="middle" x="344.05" y="-607.86" font-family="Helvetica,sans-Serif" font-size="14.00">role: analyst</text>
</g>
<!-- aggregate_evidence&#45;&gt;evaluate_evidence -->
<g id="edge9" class="edge">
<title>aggregate_evidence&#45;&gt;evaluate_evidence</title>
<path fill="none" stroke="black" d="M344.05,-691.89C344.05,-684.41 344.05,-675.46 344.05,-666.72"/>
<polygon fill="black" stroke="black" points="347.55,-666.99 344.05,-656.99 340.55,-666.99 347.55,-666.99"/>
</g>
<!-- check_evidence_quality -->
<g id="node8" class="node">
<title>check_evidence_quality</title>
<polygon fill="#fff3e0" stroke="black" points="344.05,-565.16 161.55,-527.16 344.05,-489.16 526.55,-527.16 344.05,-565.16"/>
<text xml:space="preserve" text-anchor="middle" x="344.05" y="-528.86" font-family="Helvetica,sans-Serif" font-size="14.00">Check Evidence Sufficiency</text>
<text xml:space="preserve" text-anchor="middle" x="344.05" y="-513.86" font-family="Helvetica,sans-Serif" font-size="14.00">(condition)</text>
</g>
<!-- evaluate_evidence&#45;&gt;check_evidence_quality -->
<g id="edge10" class="edge">
<title>evaluate_evidence&#45;&gt;check_evidence_quality</title>
<path fill="none" stroke="black" d="M344.05,-601.77C344.05,-594.09 344.05,-585.4 344.05,-576.77"/>
<polygon fill="black" stroke="black" points="347.55,-577.04 344.05,-567.04 340.55,-577.04 347.55,-577.04"/>
</g>
<!-- request_additional_sources -->
<g id="node9" class="node">
<title>request_additional_sources</title>
<ellipse fill="#ffebee" stroke="black" cx="129.05" cy="-404.43" rx="129.05" ry="37.48"/>
<text xml:space="preserve" text-anchor="middle" x="129.05" y="-413.63" font-family="Helvetica,sans-Serif" font-size="14.00">Request Additional Sources</text>
<text xml:space="preserve" text-anchor="middle" x="129.05" y="-398.63" font-family="Helvetica,sans-Serif" font-size="14.00">(hitl)</text>
<text xml:space="preserve" text-anchor="middle" x="129.05" y="-383.63" font-family="Helvetica,sans-Serif" font-size="14.00">timeout: 600s</text>
</g>
<!-- check_evidence_quality&#45;&gt;request_additional_sources -->
<g id="edge13" class="edge">
<title>check_evidence_quality&#45;&gt;request_additional_sources</title>
<path fill="none" stroke="black" stroke-dasharray="5,2" d="M281.12,-501.79C260.69,-493.04 238.23,-482.51 218.55,-471.16 206.16,-464.01 193.44,-455.49 181.62,-446.99"/>
<polygon fill="black" stroke="black" points="183.71,-444.18 173.57,-441.1 179.57,-449.83 183.71,-444.18"/>
<text xml:space="preserve" text-anchor="middle" x="249.3" y="-461.66" font-family="Helvetica,sans-Serif" font-size="10.00">low_credibility</text>
</g>
<!-- generate_verdicts -->
<g id="node10" class="node">
<title>generate_verdicts</title>
<path fill="#e3f2fd" stroke="black" d="M431.17,-329.95C431.17,-329.95 256.92,-329.95 256.92,-329.95 250.92,-329.95 244.92,-323.95 244.92,-317.95 244.92,-317.95 244.92,-288.95 244.92,-288.95 244.92,-282.95 250.92,-276.95 256.92,-276.95 256.92,-276.95 431.17,-276.95 431.17,-276.95 437.17,-276.95 443.17,-282.95 443.17,-288.95 443.17,-288.95 443.17,-317.95 443.17,-317.95 443.17,-323.95 437.17,-329.95 431.17,-329.95"/>
<text xml:space="preserve" text-anchor="middle" x="344.05" y="-312.65" font-family="Helvetica,sans-Serif" font-size="14.00">Generate Fact&#45;Check Verdicts</text>
<text xml:space="preserve" text-anchor="middle" x="344.05" y="-297.65" font-family="Helvetica,sans-Serif" font-size="14.00">(agent)</text>
<text xml:space="preserve" text-anchor="middle" x="344.05" y="-282.65" font-family="Helvetica,sans-Serif" font-size="14.00">role: reviewer</text>
</g>
<!-- check_evidence_quality&#45;&gt;generate_verdicts -->
<g id="edge11" class="edge">
<title>check_evidence_quality&#45;&gt;generate_verdicts</title>
<path fill="none" stroke="black" stroke-dasharray="5,2" d="M326.33,-492.71C319.3,-477.64 312.07,-459.33 308.55,-441.91 301.95,-409.25 300.04,-399.16 308.55,-366.95 310.97,-357.78 315.09,-348.53 319.68,-340.08"/>
<polygon fill="black" stroke="black" points="322.66,-341.91 324.67,-331.51 316.61,-338.39 322.66,-341.91"/>
<text xml:space="preserve" text-anchor="middle" x="340.8" y="-400.55" font-family="Helvetica,sans-Serif" font-size="10.00">high_credibility</text>
</g>
<!-- check_evidence_quality&#45;&gt;generate_verdicts -->
<g id="edge12" class="edge">
<title>check_evidence_quality&#45;&gt;generate_verdicts</title>
<path fill="none" stroke="black" stroke-dasharray="5,2" d="M358.69,-491.99C364.39,-476.93 370.21,-458.84 373.05,-441.91 378.54,-409.05 380.23,-399.48 373.05,-366.95 371.09,-358.08 367.74,-348.98 364,-340.55"/>
<polygon fill="black" stroke="black" points="367.24,-339.21 359.78,-331.69 360.92,-342.22 367.24,-339.21"/>
<text xml:space="preserve" text-anchor="middle" x="401.45" y="-400.55" font-family="Helvetica,sans-Serif" font-size="10.00">acceptable</text>
</g>
<!-- check_evidence_quality&#45;&gt;generate_verdicts -->
<g id="edge14" class="edge">
<title>check_evidence_quality&#45;&gt;generate_verdicts</title>
<path fill="none" stroke="black" stroke-dasharray="5,2" d="M385.08,-497.33C402.08,-482.87 419.93,-463.77 429.05,-441.91 441.86,-411.16 444.09,-396.68 429.05,-366.95 423.23,-355.45 414.18,-345.55 404.13,-337.24"/>
<polygon fill="black" stroke="black" points="406.36,-334.54 396.29,-331.26 402.12,-340.1 406.36,-334.54"/>
<text xml:space="preserve" text-anchor="middle" x="454.13" y="-400.55" font-family="Helvetica,sans-Serif" font-size="10.00">default</text>
</g>
<!-- request_additional_sources&#45;&gt;generate_verdicts -->
<g id="edge15" class="edge">
<title>request_additional_sources&#45;&gt;generate_verdicts</title>
<path fill="none" stroke="black" d="M197.07,-372.11C222.7,-360.32 251.8,-346.92 277.31,-335.18"/>
<polygon fill="black" stroke="black" points="278.63,-338.42 286.25,-331.06 275.71,-332.06 278.63,-338.42"/>
</g>
<!-- review_verdicts -->
<g id="node11" class="node">
<title>review_verdicts</title>
<ellipse fill="#ffebee" stroke="black" cx="344.05" cy="-202.48" rx="79.73" ry="37.48"/>
<text xml:space="preserve" text-anchor="middle" x="344.05" y="-211.68" font-family="Helvetica,sans-Serif" font-size="14.00">Review Verdicts</text>
<text xml:space="preserve" text-anchor="middle" x="344.05" y="-196.68" font-family="Helvetica,sans-Serif" font-size="14.00">(hitl)</text>
<text xml:space="preserve" text-anchor="middle" x="344.05" y="-181.68" font-family="Helvetica,sans-Serif" font-size="14.00">timeout: 900s</text>
</g>
<!-- generate_verdicts&#45;&gt;review_verdicts -->
<g id="edge16" class="edge">
<title>generate_verdicts&#45;&gt;review_verdicts</title>
<path fill="none" stroke="black" d="M344.05,-276.71C344.05,-268.98 344.05,-260.24 344.05,-251.56"/>
<polygon fill="black" stroke="black" points="347.55,-251.79 344.05,-241.79 340.55,-251.79 347.55,-251.79"/>
</g>
<!-- generate_report -->
<g id="node12" class="node">
<title>generate_report</title>
<path fill="#e3f2fd" stroke="black" d="M427.05,-128C427.05,-128 261.05,-128 261.05,-128 255.05,-128 249.05,-122 249.05,-116 249.05,-116 249.05,-87 249.05,-87 249.05,-81 255.05,-75 261.05,-75 261.05,-75 427.05,-75 427.05,-75 433.05,-75 439.05,-81 439.05,-87 439.05,-87 439.05,-116 439.05,-116 439.05,-122 433.05,-128 427.05,-128"/>
<text xml:space="preserve" text-anchor="middle" x="344.05" y="-110.7" font-family="Helvetica,sans-Serif" font-size="14.00">Generate Fact&#45;Check Report</text>
<text xml:space="preserve" text-anchor="middle" x="344.05" y="-95.7" font-family="Helvetica,sans-Serif" font-size="14.00">(agent)</text>
<text xml:space="preserve" text-anchor="middle" x="344.05" y="-80.7" font-family="Helvetica,sans-Serif" font-size="14.00">role: writer</text>
</g>
<!-- review_verdicts&#45;&gt;generate_report -->
<g id="edge17" class="edge">
<title>review_verdicts&#45;&gt;generate_report</title>
<path fill="none" stroke="black" d="M344.05,-164.62C344.05,-156.5 344.05,-147.89 344.05,-139.75"/>
<polygon fill="black" stroke="black" points="347.55,-139.78 344.05,-129.78 340.55,-139.78 347.55,-139.78"/>
</g>
<!-- complete -->
<g id="node13" class="node">
<title>complete</title>
<polygon fill="#eceff1" stroke="black" points="417.67,-38 270.42,-38 270.42,0 417.67,0 417.67,-38"/>
<text xml:space="preserve" text-anchor="middle" x="344.05" y="-20.7" font-family="Helvetica,sans-Serif" font-size="14.00">Fact&#45;Check Complete</text>
<text xml:space="preserve" text-anchor="middle" x="344.05" y="-5.7" font-family="Helvetica,sans-Serif" font-size="14.00">(transform)</text>
</g>
<!-- generate_report&#45;&gt;complete -->
<g id="edge18" class="edge">
<title>generate_report&#45;&gt;complete</title>
<path fill="none" stroke="black" d="M344.05,-74.59C344.05,-66.68 344.05,-57.93 344.05,-49.79"/>
<polygon fill="black" stroke="black" points="347.55,-49.98 344.05,-39.98 340.55,-49.98 347.55,-49.98"/>
</g>
</g>
</svg>
