<?xml version="1.0" encoding="UTF-8" standalone="no"?>
<!DOCTYPE svg PUBLIC "-//W3C//DTD SVG 1.1//EN"
 "http://www.w3.org/Graphics/SVG/1.1/DTD/svg11.dtd">
<!-- Generated by graphviz version 14.0.4 (20251115.1723)
 -->
<!-- Title: workflow Pages: 1 -->
<svg width="490pt" height="1639pt"
 viewBox="0.00 0.00 490.00 1639.00" xmlns="http://www.w3.org/2000/svg" xmlns:xlink="http://www.w3.org/1999/xlink">
<g id="graph0" class="graph" transform="scale(1 1) rotate(0) translate(4 1635.16)">
<title>workflow</title>
<polygon fill="white" stroke="none" points="-4,4 -4,-1635.16 486,-1635.16 486,4 -4,4"/>
<text xml:space="preserve" text-anchor="middle" x="241" y="-1613.86" font-family="Times,serif" font-size="14.00">literature_review</text>
<!-- define_scope -->
<g id="node1" class="node">
<title>define_scope</title>
<path fill="#e3f2fd" stroke="black" d="M346.62,-1606.66C346.62,-1606.66 225.62,-1606.66 225.62,-1606.66 219.62,-1606.66 213.62,-1600.66 213.62,-1594.66 213.62,-1594.66 213.62,-1565.66 213.62,-1565.66 213.62,-1559.66 219.62,-1553.66 225.62,-1553.66 225.62,-1553.66 346.62,-1553.66 346.62,-1553.66 352.62,-1553.66 358.62,-1559.66 358.62,-1565.66 358.62,-1565.66 358.62,-1594.66 358.62,-1594.66 358.62,-1600.66 352.62,-1606.66 346.62,-1606.66"/>
<text xml:space="preserve" text-anchor="middle" x="286.12" y="-1589.36" font-family="Helvetica,sans-Serif" font-size="14.00">Define Review Scope</text>
<text xml:space="preserve" text-anchor="middle" x="286.12" y="-1574.36" font-family="Helvetica,sans-Serif" font-size="14.00">(agent)</text>
<text xml:space="preserve" text-anchor="middle" x="286.12" y="-1559.36" font-family="Helvetica,sans-Serif" font-size="14.00">role: planner</text>
</g>
<!-- parallel_database_search -->
<g id="node2" class="node">
<title>parallel_database_search</title>
<polygon fill="#f3e5f5" stroke="black" points="381.5,-1512.66 190.75,-1512.66 190.75,-1474.66 381.5,-1474.66 381.5,-1512.66"/>
<polygon fill="none" stroke="black" points="385.5,-1516.66 186.75,-1516.66 186.75,-1470.66 385.5,-1470.66 385.5,-1516.66"/>
<text xml:space="preserve" text-anchor="middle" x="286.12" y="-1495.36" font-family="Helvetica,sans-Serif" font-size="14.00">Search Academic Databases</text>
<text xml:space="preserve" text-anchor="middle" x="286.12" y="-1480.36" font-family="Helvetica,sans-Serif" font-size="14.00">(parallel)</text>
</g>
<!-- define_scope&#45;&gt;parallel_database_search -->
<g id="edge1" class="edge">
<title>define_scope&#45;&gt;parallel_database_search</title>
<path fill="none" stroke="black" d="M286.12,-1553.34C286.12,-1545.43 286.12,-1536.6 286.12,-1528.24"/>
<polygon fill="black" stroke="black" points="289.63,-1528.4 286.13,-1518.4 282.63,-1528.4 289.63,-1528.4"/>
</g>
<!-- search_general -->
<g id="node3" class="node">
<title>search_general</title>
<path fill="#e3f2fd" stroke="black" d="M216.25,-1423.41C216.25,-1423.41 12,-1423.41 12,-1423.41 6,-1423.41 0,-1417.41 0,-1411.41 0,-1411.41 0,-1382.41 0,-1382.41 0,-1376.41 6,-1370.41 12,-1370.41 12,-1370.41 216.25,-1370.41 216.25,-1370.41 222.25,-1370.41 228.25,-1376.41 228.25,-1382.41 228.25,-1382.41 228.25,-1411.41 228.25,-1411.41 228.25,-1417.41 222.25,-1423.41 216.25,-1423.41"/>
<text xml:space="preserve" text-anchor="middle" x="114.12" y="-1406.11" font-family="Helvetica,sans-Serif" font-size="14.00">Search General Academic Sources</text>
<text xml:space="preserve" text-anchor="middle" x="114.12" y="-1391.11" font-family="Helvetica,sans-Serif" font-size="14.00">(agent)</text>
<text xml:space="preserve" text-anchor="middle" x="114.12" y="-1376.11" font-family="Helvetica,sans-Serif" font-size="14.00">role: researcher</text>
</g>
<!-- parallel_database_search&#45;&gt;search_general -->
<g id="edge2" class="edge">
<title>parallel_database_search&#45;&gt;search_general</title>
<path fill="none" stroke="black" d="M245.36,-1470.2C223.19,-1457.99 195.4,-1442.68 171.11,-1429.3"/>
<polygon fill="black" stroke="black" points="173.07,-1426.38 162.62,-1424.62 169.69,-1432.51 173.07,-1426.38"/>
<text xml:space="preserve" text-anchor="middle" x="218.67" y="-1443.16" font-family="Helvetica,sans-Serif" font-size="10.00">fork</text>
</g>
<!-- search_preprints -->
<g id="node4" class="node">
<title>search_preprints</title>
<path fill="#e3f2fd" stroke="black" d="M269.12,-1323.16C269.12,-1323.16 133.12,-1323.16 133.12,-1323.16 127.12,-1323.16 121.12,-1317.16 121.12,-1311.16 121.12,-1311.16 121.12,-1282.16 121.12,-1282.16 121.12,-1276.16 127.12,-1270.16 133.12,-1270.16 133.12,-1270.16 269.12,-1270.16 269.12,-1270.16 275.12,-1270.16 281.12,-1276.16 281.12,-1282.16 281.12,-1282.16 281.12,-1311.16 281.12,-1311.16 281.12,-1317.16 275.12,-1323.16 269.12,-1323.16"/>
<text xml:space="preserve" text-anchor="middle" x="201.12" y="-1305.86" font-family="Helvetica,sans-Serif" font-size="14.00">Search Preprint Servers</text>
<text xml:space="preserve" text-anchor="middle" x="201.12" y="-1290.86" font-family="Helvetica,sans-Serif" font-size="14.00">(agent)</text>
<text xml:space="preserve" text-anchor="middle" x="201.12" y="-1275.86" font-family="Helvetica,sans-Serif" font-size="14.00">role: researcher</text>
</g>
<!-- parallel_database_search&#45;&gt;search_preprints -->
<g id="edge3" class="edge">
<title>parallel_database_search&#45;&gt;search_preprints</title>
<path fill="none" stroke="black" d="M277.79,-1470.35C268.43,-1445.68 252.52,-1404.85 237.12,-1370.41 231.71,-1358.29 225.41,-1345.24 219.6,-1333.59"/>
<polygon fill="black" stroke="black" points="222.75,-1332.06 215.13,-1324.7 216.5,-1335.21 222.75,-1332.06"/>
<text xml:space="preserve" text-anchor="middle" x="267.23" y="-1393.03" font-family="Helvetica,sans-Serif" font-size="10.00">fork</text>
</g>
<!-- search_grey_lit -->
<g id="node5" class="node">
<title>search_grey_lit</title>
<path fill="#e3f2fd" stroke="black" d="M314.75,-1233.16C314.75,-1233.16 185.5,-1233.16 185.5,-1233.16 179.5,-1233.16 173.5,-1227.16 173.5,-1221.16 173.5,-1221.16 173.5,-1192.16 173.5,-1192.16 173.5,-1186.16 179.5,-1180.16 185.5,-1180.16 185.5,-1180.16 314.75,-1180.16 314.75,-1180.16 320.75,-1180.16 326.75,-1186.16 326.75,-1192.16 326.75,-1192.16 326.75,-1221.16 326.75,-1221.16 326.75,-1227.16 320.75,-1233.16 314.75,-1233.16"/>
<text xml:space="preserve" text-anchor="middle" x="250.12" y="-1215.86" font-family="Helvetica,sans-Serif" font-size="14.00">Search Grey Literature</text>
<text xml:space="preserve" text-anchor="middle" x="250.12" y="-1200.86" font-family="Helvetica,sans-Serif" font-size="14.00">(agent)</text>
<text xml:space="preserve" text-anchor="middle" x="250.12" y="-1185.86" font-family="Helvetica,sans-Serif" font-size="14.00">role: researcher</text>
</g>
<!-- parallel_database_search&#45;&gt;search_grey_lit -->
<g id="edge4" class="edge">
<title>parallel_database_search&#45;&gt;search_grey_lit</title>
<path fill="none" stroke="black" d="M290.84,-1470.29C298.49,-1429.51 310.79,-1340.79 290.12,-1270.16 287.37,-1260.74 282.71,-1251.39 277.53,-1242.9"/>
<polygon fill="black" stroke="black" points="280.52,-1241.09 272.11,-1234.65 274.67,-1244.93 280.52,-1241.09"/>
<text xml:space="preserve" text-anchor="middle" x="309.64" y="-1342.91" font-family="Helvetica,sans-Serif" font-size="10.00">fork</text>
</g>
<!-- deduplicate_results -->
<g id="node6" class="node">
<title>deduplicate_results</title>
<polygon fill="#eceff1" stroke="black" points="370.12,-1143.16 234.12,-1143.16 234.12,-1105.16 370.12,-1105.16 370.12,-1143.16"/>
<text xml:space="preserve" text-anchor="middle" x="302.12" y="-1125.86" font-family="Helvetica,sans-Serif" font-size="14.00">Deduplicate Results</text>
<text xml:space="preserve" text-anchor="middle" x="302.12" y="-1110.86" font-family="Helvetica,sans-Serif" font-size="14.00">(transform)</text>
</g>
<!-- parallel_database_search&#45;&gt;deduplicate_results -->
<g id="edge5" class="edge">
<title>parallel_database_search&#45;&gt;deduplicate_results</title>
<path fill="none" stroke="black" d="M314.99,-1470.21C333.9,-1452.79 355.12,-1426.8 355.12,-1397.91 355.12,-1397.91 355.12,-1397.91 355.12,-1205.66 355.12,-1185.43 343.3,-1166.35 330.83,-1151.85"/>
<polygon fill="black" stroke="black" points="333.45,-1149.53 324.1,-1144.55 328.31,-1154.28 333.45,-1149.53"/>
<text xml:space="preserve" text-anchor="middle" x="362.62" y="-1292.78" font-family="Helvetica,sans-Serif" font-size="10.00">join</text>
</g>
<!-- search_general&#45;&gt;search_preprints -->
<g id="edge6" class="edge">
<title>search_general&#45;&gt;search_preprints</title>
<path fill="none" stroke="black" d="M136.98,-1370.09C147.29,-1358.45 159.61,-1344.54 170.69,-1332.03"/>
<polygon fill="black" stroke="black" points="173.1,-1334.58 177.11,-1324.77 167.86,-1329.94 173.1,-1334.58"/>
</g>
<!-- search_preprints&#45;&gt;search_grey_lit -->
<g id="edge7" class="edge">
<title>search_preprints&#45;&gt;search_grey_lit</title>
<path fill="none" stroke="black" d="M215.56,-1269.73C220.15,-1261.49 225.3,-1252.24 230.2,-1243.43"/>
<polygon fill="black" stroke="black" points="233.25,-1245.16 235.06,-1234.72 227.13,-1241.75 233.25,-1245.16"/>
</g>
<!-- search_grey_lit&#45;&gt;deduplicate_results -->
<g id="edge8" class="edge">
<title>search_grey_lit&#45;&gt;deduplicate_results</title>
<path fill="none" stroke="black" d="M266.86,-1179.74C272.33,-1171.29 278.42,-1161.86 283.98,-1153.25"/>
<polygon fill="black" stroke="black" points="286.89,-1155.2 289.37,-1144.9 281.01,-1151.4 286.89,-1155.2"/>
</g>
<!-- title_abstract_screening -->
<g id="node7" class="node">
<title>title_abstract_screening</title>
<path fill="#e3f2fd" stroke="black" d="M369.75,-1068.16C369.75,-1068.16 234.5,-1068.16 234.5,-1068.16 228.5,-1068.16 222.5,-1062.16 222.5,-1056.16 222.5,-1056.16 222.5,-1027.16 222.5,-1027.16 222.5,-1021.16 228.5,-1015.16 234.5,-1015.16 234.5,-1015.16 369.75,-1015.16 369.75,-1015.16 375.75,-1015.16 381.75,-1021.16 381.75,-1027.16 381.75,-1027.16 381.75,-1056.16 381.75,-1056.16 381.75,-1062.16 375.75,-1068.16 369.75,-1068.16"/>
<text xml:space="preserve" text-anchor="middle" x="302.12" y="-1050.86" font-family="Helvetica,sans-Serif" font-size="14.00">Title/Abstract Screening</text>
<text xml:space="preserve" text-anchor="middle" x="302.12" y="-1035.86" font-family="Helvetica,sans-Serif" font-size="14.00">(agent)</text>
<text xml:space="preserve" text-anchor="middle" x="302.12" y="-1020.86" font-family="Helvetica,sans-Serif" font-size="14.00">role: analyst</text>
</g>
<!-- deduplicate_results&#45;&gt;title_abstract_screening -->
<g id="edge9" class="edge">
<title>deduplicate_results&#45;&gt;title_abstract_screening</title>
<path fill="none" stroke="black" d="M302.12,-1104.89C302.12,-1097.41 302.12,-1088.46 302.12,-1079.72"/>
<polygon fill="black" stroke="black" points="305.63,-1079.99 302.13,-1069.99 298.63,-1079.99 305.63,-1079.99"/>
</g>
<!-- check_inclusion_rate -->
<g id="node8" class="node">
<title>check_inclusion_rate</title>
<polygon fill="#fff3e0" stroke="black" points="302.12,-978.16 158.63,-940.16 302.12,-902.16 445.62,-940.16 302.12,-978.16"/>
<text xml:space="preserve" text-anchor="middle" x="302.12" y="-941.86" font-family="Helvetica,sans-Serif" font-size="14.00">Check Inclusion Rate</text>
<text xml:space="preserve" text-anchor="middle" x="302.12" y="-926.86" font-family="Helvetica,sans-Serif" font-size="14.00">(condition)</text>
</g>
<!-- title_abstract_screening&#45;&gt;check_inclusion_rate -->
<g id="edge10" class="edge">
<title>title_abstract_screening&#45;&gt;check_inclusion_rate</title>
<path fill="none" stroke="black" d="M302.12,-1014.77C302.12,-1007.09 302.12,-998.4 302.12,-989.77"/>
<polygon fill="black" stroke="black" points="305.63,-990.04 302.13,-980.04 298.63,-990.04 305.63,-990.04"/>
</g>
<!-- expand_search -->
<g id="node9" class="node">
<title>expand_search</title>
<ellipse fill="#ffebee" stroke="black" cx="238.12" cy="-817.43" rx="91.92" ry="37.48"/>
<text xml:space="preserve" text-anchor="middle" x="238.12" y="-826.63" font-family="Helvetica,sans-Serif" font-size="14.00">Few Papers Found</text>
<text xml:space="preserve" text-anchor="middle" x="238.12" y="-811.63" font-family="Helvetica,sans-Serif" font-size="14.00">(hitl)</text>
<text xml:space="preserve" text-anchor="middle" x="238.12" y="-796.63" font-family="Helvetica,sans-Serif" font-size="14.00">timeout: 600s</text>
</g>
<!-- check_inclusion_rate&#45;&gt;expand_search -->
<g id="edge12" class="edge">
<title>check_inclusion_rate&#45;&gt;expand_search</title>
<path fill="none" stroke="black" stroke-dasharray="5,2" d="M284.81,-906.49C277.95,-893.56 269.96,-878.48 262.54,-864.48"/>
<polygon fill="black" stroke="black" points="265.75,-863.06 257.97,-855.86 259.56,-866.34 265.75,-863.06"/>
<text xml:space="preserve" text-anchor="middle" x="282.54" y="-874.66" font-family="Helvetica,sans-Serif" font-size="10.00">false</text>
</g>
<!-- full_text_review -->
<g id="node10" class="node">
<title>full_text_review</title>
<path fill="#e3f2fd" stroke="black" d="M347.62,-742.95C347.62,-742.95 256.62,-742.95 256.62,-742.95 250.62,-742.95 244.62,-736.95 244.62,-730.95 244.62,-730.95 244.62,-701.95 244.62,-701.95 244.62,-695.95 250.62,-689.95 256.62,-689.95 256.62,-689.95 347.62,-689.95 347.62,-689.95 353.62,-689.95 359.62,-695.95 359.62,-701.95 359.62,-701.95 359.62,-730.95 359.62,-730.95 359.62,-736.95 353.62,-742.95 347.62,-742.95"/>
<text xml:space="preserve" text-anchor="middle" x="302.12" y="-725.65" font-family="Helvetica,sans-Serif" font-size="14.00">Full&#45;Text Review</text>
<text xml:space="preserve" text-anchor="middle" x="302.12" y="-710.65" font-family="Helvetica,sans-Serif" font-size="14.00">(agent)</text>
<text xml:space="preserve" text-anchor="middle" x="302.12" y="-695.65" font-family="Helvetica,sans-Serif" font-size="14.00">role: reviewer</text>
</g>
<!-- check_inclusion_rate&#45;&gt;full_text_review -->
<g id="edge11" class="edge">
<title>check_inclusion_rate&#45;&gt;full_text_review</title>
<path fill="none" stroke="black" stroke-dasharray="5,2" d="M320.19,-906.6C327.64,-891.39 335.38,-872.73 339.12,-854.91 345.97,-822.3 347.92,-812.08 339.12,-779.95 336.62,-770.79 332.38,-761.6 327.65,-753.2"/>
<polygon fill="black" stroke="black" points="330.67,-751.44 322.5,-744.7 324.68,-755.06 330.67,-751.44"/>
<text xml:space="preserve" text-anchor="middle" x="353.26" y="-813.55" font-family="Helvetica,sans-Serif" font-size="10.00">true</text>
</g>
<!-- expand_search&#45;&gt;full_text_review -->
<g id="edge13" class="edge">
<title>expand_search&#45;&gt;full_text_review</title>
<path fill="none" stroke="black" d="M261.23,-780.7C267.12,-771.59 273.45,-761.8 279.32,-752.72"/>
<polygon fill="black" stroke="black" points="282.16,-754.77 284.65,-744.47 276.29,-750.97 282.16,-754.77"/>
</g>
<!-- data_extraction -->
<g id="node11" class="node">
<title>data_extraction</title>
<path fill="#e3f2fd" stroke="black" d="M374.25,-652.95C374.25,-652.95 230,-652.95 230,-652.95 224,-652.95 218,-646.95 218,-640.95 218,-640.95 218,-611.95 218,-611.95 218,-605.95 224,-599.95 230,-599.95 230,-599.95 374.25,-599.95 374.25,-599.95 380.25,-599.95 386.25,-605.95 386.25,-611.95 386.25,-611.95 386.25,-640.95 386.25,-640.95 386.25,-646.95 380.25,-652.95 374.25,-652.95"/>
<text xml:space="preserve" text-anchor="middle" x="302.12" y="-635.65" font-family="Helvetica,sans-Serif" font-size="14.00">Extract Data from Papers</text>
<text xml:space="preserve" text-anchor="middle" x="302.12" y="-620.65" font-family="Helvetica,sans-Serif" font-size="14.00">(agent)</text>
<text xml:space="preserve" text-anchor="middle" x="302.12" y="-605.65" font-family="Helvetica,sans-Serif" font-size="14.00">role: analyst</text>
</g>
<!-- full_text_review&#45;&gt;data_extraction -->
<g id="edge14" class="edge">
<title>full_text_review&#45;&gt;data_extraction</title>
<path fill="none" stroke="black" d="M302.12,-689.53C302.12,-681.74 302.12,-673.04 302.12,-664.67"/>
<polygon fill="black" stroke="black" points="305.63,-664.71 302.13,-654.71 298.63,-664.71 305.63,-664.71"/>
</g>
<!-- synthesis -->
<g id="node12" class="node">
<title>synthesis</title>
<path fill="#e3f2fd" stroke="black" d="M358.5,-562.95C358.5,-562.95 245.75,-562.95 245.75,-562.95 239.75,-562.95 233.75,-556.95 233.75,-550.95 233.75,-550.95 233.75,-521.95 233.75,-521.95 233.75,-515.95 239.75,-509.95 245.75,-509.95 245.75,-509.95 358.5,-509.95 358.5,-509.95 364.5,-509.95 370.5,-515.95 370.5,-521.95 370.5,-521.95 370.5,-550.95 370.5,-550.95 370.5,-556.95 364.5,-562.95 358.5,-562.95"/>
<text xml:space="preserve" text-anchor="middle" x="302.12" y="-545.65" font-family="Helvetica,sans-Serif" font-size="14.00">Synthesize Findings</text>
<text xml:space="preserve" text-anchor="middle" x="302.12" y="-530.65" font-family="Helvetica,sans-Serif" font-size="14.00">(agent)</text>
<text xml:space="preserve" text-anchor="middle" x="302.12" y="-515.65" font-family="Helvetica,sans-Serif" font-size="14.00">role: analyst</text>
</g>
<!-- data_extraction&#45;&gt;synthesis -->
<g id="edge15" class="edge">
<title>data_extraction&#45;&gt;synthesis</title>
<path fill="none" stroke="black" d="M302.12,-599.53C302.12,-591.74 302.12,-583.04 302.12,-574.67"/>
<polygon fill="black" stroke="black" points="305.63,-574.71 302.13,-564.71 298.63,-574.71 305.63,-574.71"/>
</g>
<!-- format_citations -->
<g id="node13" class="node">
<title>format_citations</title>
<polygon fill="#e8f5e9" stroke="black" points="482,-472.95 195.86,-472.95 122.25,-276.95 408.39,-276.95 482,-472.95"/>
<text xml:space="preserve" text-anchor="middle" x="302.12" y="-406.65" font-family="Helvetica,sans-Serif" font-size="14.00">Format Citations</text>
<text xml:space="preserve" text-anchor="middle" x="302.12" y="-391.65" font-family="Helvetica,sans-Serif" font-size="14.00">(compute)</text>
<text xml:space="preserve" text-anchor="middle" x="302.12" y="-376.65" font-family="Helvetica,sans-Serif" font-size="14.00">exec: in&#45;process</text>
<text xml:space="preserve" text-anchor="middle" x="302.12" y="-361.65" font-family="Helvetica,sans-Serif" font-size="14.00">handler: citation_formatter</text>
<text xml:space="preserve" text-anchor="middle" x="302.12" y="-346.65" font-family="Helvetica,sans-Serif" font-size="14.00">blocked: [llm, write]</text>
<text xml:space="preserve" text-anchor="middle" x="302.12" y="-331.65" font-family="Helvetica,sans-Serif" font-size="14.00">timeout: 60s</text>
</g>
<!-- synthesis&#45;&gt;format_citations -->
<g id="edge16" class="edge">
<title>synthesis&#45;&gt;format_citations</title>
<path fill="none" stroke="black" d="M302.12,-509.47C302.12,-502.13 302.12,-493.65 302.12,-484.59"/>
<polygon fill="black" stroke="black" points="305.63,-484.81 302.13,-474.81 298.63,-484.81 305.63,-484.81"/>
</g>
<!-- review_synthesis -->
<g id="node14" class="node">
<title>review_synthesis</title>
<ellipse fill="#ffebee" stroke="black" cx="302.12" cy="-202.48" rx="86.62" ry="37.48"/>
<text xml:space="preserve" text-anchor="middle" x="302.12" y="-211.68" font-family="Helvetica,sans-Serif" font-size="14.00">Review Synthesis</text>
<text xml:space="preserve" text-anchor="middle" x="302.12" y="-196.68" font-family="Helvetica,sans-Serif" font-size="14.00">(hitl)</text>
<text xml:space="preserve" text-anchor="middle" x="302.12" y="-181.68" font-family="Helvetica,sans-Serif" font-size="14.00">timeout: 900s</text>
</g>
<!-- format_citations&#45;&gt;review_synthesis -->
<g id="edge17" class="edge">
<title>format_citations&#45;&gt;review_synthesis</title>
<path fill="none" stroke="black" d="M302.12,-276.76C302.12,-268.02 302.12,-259.45 302.12,-251.43"/>
<polygon fill="black" stroke="black" points="305.63,-251.63 302.13,-241.63 298.63,-251.63 305.63,-251.63"/>
</g>
<!-- generate_review -->
<g id="node15" class="node">
<title>generate_review</title>
<path fill="#e3f2fd" stroke="black" d="M381,-128C381,-128 223.25,-128 223.25,-128 217.25,-128 211.25,-122 211.25,-116 211.25,-116 211.25,-87 211.25,-87 211.25,-81 217.25,-75 223.25,-75 223.25,-75 381,-75 381,-75 387,-75 393,-81 393,-87 393,-87 393,-116 393,-116 393,-122 387,-128 381,-128"/>
<text xml:space="preserve" text-anchor="middle" x="302.12" y="-110.7" font-family="Helvetica,sans-Serif" font-size="14.00">Generate Literature Review</text>
<text xml:space="preserve" text-anchor="middle" x="302.12" y="-95.7" font-family="Helvetica,sans-Serif" font-size="14.00">(agent)</text>
<text xml:space="preserve" text-anchor="middle" x="302.12" y="-80.7" font-family="Helvetica,sans-Serif" font-size="14.00">role: writer</text>
</g>
<!-- review_synthesis&#45;&gt;generate_review -->
<g id="edge18" class="edge">
<title>review_synthesis&#45;&gt;generate_review</title>
<path fill="none" stroke="black" d="M302.12,-164.62C302.12,-156.5 302.12,-147.89 302.12,-139.75"/>
<polygon fill="black" stroke="black" points="305.63,-139.78 302.13,-129.78 298.63,-139.78 305.63,-139.78"/>
</g>
<!-- complete -->
<g id="node16" class="node">
<title>complete</title>
<polygon fill="#eceff1" stroke="black" points="363.38,-38 240.88,-38 240.88,0 363.38,0 363.38,-38"/>
<text xml:space="preserve" text-anchor="middle" x="302.12" y="-20.7" font-family="Helvetica,sans-Serif" font-size="14.00">Review Complete</text>
<text xml:space="preserve" text-anchor="middle" x="302.12" y="-5.7" font-family="Helvetica,sans-Serif" font-size="14.00">(transform)</text>
</g>
<!-- generate_review&#45;&gt;complete -->
<g id="edge19" class="edge">
<title>generate_review&#45;&gt;complete</title>
<path fill="none" stroke="black" d="M302.12,-74.59C302.12,-66.68 302.12,-57.93 302.12,-49.79"/>
<polygon fill="black" stroke="black" points="305.63,-49.98 302.13,-39.98 298.63,-49.98 305.63,-49.98"/>
</g>
</g>
</svg>
