<svg xmlns="http://www.w3.org/2000/svg" width="1280" height="760" viewBox="0 0 1280 760" role="img" aria-labelledby="title desc">
  <title id="title">Victor 0.7 architecture overview</title>
  <desc id="desc">A polished layered diagram showing Victor entry surfaces, stable framework APIs, service-first runtime, and composable ecosystem capabilities.</desc>
  <defs>
    <linearGradient id="bg" x1="0" y1="0" x2="1" y2="1">
      <stop offset="0%" stop-color="#f8fbff"/>
      <stop offset="46%" stop-color="#eef7f3"/>
      <stop offset="100%" stop-color="#fff8ed"/>
    </linearGradient>
    <linearGradient id="hero" x1="0" y1="0" x2="1" y2="1">
      <stop offset="0%" stop-color="#0f766e"/>
      <stop offset="48%" stop-color="#2563eb"/>
      <stop offset="100%" stop-color="#ea580c"/>
    </linearGradient>
    <linearGradient id="runtime" x1="0" y1="0" x2="1" y2="1">
      <stop offset="0%" stop-color="#fff7ed"/>
      <stop offset="100%" stop-color="#ffedd5"/>
    </linearGradient>
    <linearGradient id="framework" x1="0" y1="0" x2="1" y2="1">
      <stop offset="0%" stop-color="#ecfdf5"/>
      <stop offset="100%" stop-color="#d1fae5"/>
    </linearGradient>
    <linearGradient id="ecosystem" x1="0" y1="0" x2="1" y2="1">
      <stop offset="0%" stop-color="#f5f3ff"/>
      <stop offset="100%" stop-color="#ede9fe"/>
    </linearGradient>
    <filter id="shadow" x="-20%" y="-20%" width="140%" height="150%">
      <feDropShadow dx="0" dy="14" stdDeviation="16" flood-color="#0f172a" flood-opacity="0.12"/>
    </filter>
    <filter id="softShadow" x="-20%" y="-20%" width="140%" height="150%">
      <feDropShadow dx="0" dy="7" stdDeviation="9" flood-color="#0f172a" flood-opacity="0.10"/>
    </filter>
    <marker id="arrow" viewBox="0 0 10 10" refX="8" refY="5" markerWidth="8" markerHeight="8" orient="auto-start-reverse">
      <path d="M 0 0 L 10 5 L 0 10 z" fill="#64748b"/>
    </marker>
    <pattern id="grid" width="40" height="40" patternUnits="userSpaceOnUse">
      <path d="M 40 0 L 0 0 0 40" fill="none" stroke="#e2e8f0" stroke-width="1" opacity="0.42"/>
    </pattern>
    <style>
      .title { font: 800 34px ui-sans-serif, -apple-system, BlinkMacSystemFont, "Segoe UI", sans-serif; fill: #0f172a; letter-spacing: -0.7px; }
      .subtitle { font: 500 15px ui-sans-serif, -apple-system, BlinkMacSystemFont, "Segoe UI", sans-serif; fill: #475569; }
      .lane-title { font: 800 13px ui-sans-serif, -apple-system, BlinkMacSystemFont, "Segoe UI", sans-serif; fill: #334155; letter-spacing: 1.8px; text-transform: uppercase; }
      .card-title { font: 800 17px ui-sans-serif, -apple-system, BlinkMacSystemFont, "Segoe UI", sans-serif; fill: #0f172a; }
      .card-copy { font: 500 12px ui-sans-serif, -apple-system, BlinkMacSystemFont, "Segoe UI", sans-serif; fill: #475569; }
      .small-title { font: 800 14px ui-sans-serif, -apple-system, BlinkMacSystemFont, "Segoe UI", sans-serif; fill: #0f172a; }
      .small-copy { font: 500 11px ui-sans-serif, -apple-system, BlinkMacSystemFont, "Segoe UI", sans-serif; fill: #64748b; }
      .pill { font: 800 11px ui-sans-serif, -apple-system, BlinkMacSystemFont, "Segoe UI", sans-serif; fill: #ffffff; letter-spacing: 0.6px; }
      .connector { fill: none; stroke: #64748b; stroke-width: 2.2; marker-end: url(#arrow); opacity: 0.72; }
      .connector-strong { fill: none; stroke: #0f766e; stroke-width: 3; marker-end: url(#arrow); opacity: 0.82; }
      .connector-soft { fill: none; stroke: #94a3b8; stroke-width: 1.7; stroke-dasharray: 8 7; marker-end: url(#arrow); opacity: 0.8; }
    </style>
  </defs>

  <rect width="1280" height="760" rx="34" fill="url(#bg)"/>
  <rect width="1280" height="760" rx="34" fill="url(#grid)" opacity="0.55"/>
  <circle cx="1086" cy="122" r="154" fill="#dbeafe" opacity="0.58"/>
  <circle cx="178" cy="646" r="190" fill="#fed7aa" opacity="0.32"/>
  <circle cx="657" cy="79" r="122" fill="#ccfbf1" opacity="0.42"/>

  <g transform="translate(58 46)">
    <rect x="0" y="0" width="1164" height="668" rx="30" fill="#ffffff" opacity="0.82" filter="url(#shadow)"/>
    <rect x="0" y="0" width="1164" height="668" rx="30" fill="none" stroke="#e2e8f0"/>
  </g>

  <g transform="translate(92 76)">
    <rect x="0" y="0" width="112" height="30" rx="15" fill="url(#hero)"/>
    <text x="56" y="20" text-anchor="middle" class="pill">VICTOR 0.7</text>
    <text x="0" y="72" class="title">Service-first agentic runtime</text>
    <text x="0" y="99" class="subtitle">Interfaces compose stable framework APIs. Framework APIs delegate to canonical runtime services. Domain behavior plugs in through contract-first packages.</text>
  </g>

  <g transform="translate(94 166)">
    <text x="0" y="0" class="lane-title">Entry surfaces</text>
    <text x="282" y="0" class="lane-title">Stable framework contract</text>
    <text x="604" y="0" class="lane-title">Service-first runtime</text>
    <text x="926" y="0" class="lane-title">Ecosystem and state</text>
  </g>

  <g id="surfaces" transform="translate(88 193)" filter="url(#softShadow)">
    <rect x="0" y="0" width="226" height="370" rx="24" fill="#eff6ff" stroke="#bfdbfe"/>
    <g transform="translate(24 30)">
      <rect x="0" y="0" width="178" height="62" rx="18" fill="#ffffff" stroke="#dbeafe"/>
      <text x="22" y="27" class="card-title">CLI / TUI</text>
      <text x="22" y="47" class="card-copy">local agent workflow</text>
    </g>
    <g transform="translate(24 112)">
      <rect x="0" y="0" width="178" height="62" rx="18" fill="#ffffff" stroke="#dbeafe"/>
      <text x="22" y="27" class="card-title">Python API</text>
      <text x="22" y="47" class="card-copy">embed agents directly</text>
    </g>
    <g transform="translate(24 194)">
      <rect x="0" y="0" width="178" height="62" rx="18" fill="#ffffff" stroke="#dbeafe"/>
      <text x="22" y="27" class="card-title">HTTP API</text>
      <text x="22" y="47" class="card-copy">services and dashboards</text>
    </g>
    <g transform="translate(24 276)">
      <rect x="0" y="0" width="178" height="62" rx="18" fill="#ffffff" stroke="#dbeafe"/>
      <text x="22" y="27" class="card-title">MCP Server</text>
      <text x="22" y="47" class="card-copy">external agent clients</text>
    </g>
  </g>

  <g id="framework-layer" transform="translate(368 193)" filter="url(#softShadow)">
    <rect x="0" y="0" width="248" height="370" rx="24" fill="url(#framework)" stroke="#a7f3d0"/>
    <g transform="translate(25 28)">
      <rect x="0" y="0" width="198" height="78" rx="20" fill="#ffffff" stroke="#bbf7d0"/>
      <text x="22" y="31" class="card-title">Agent.create()</text>
      <text x="22" y="53" class="card-copy">run, stream, chat</text>
    </g>
    <g transform="translate(25 126)">
      <rect x="0" y="0" width="198" height="78" rx="20" fill="#ffffff" stroke="#bbf7d0"/>
      <text x="22" y="31" class="card-title">StateGraph</text>
      <text x="22" y="53" class="card-copy">workflow execution engine</text>
    </g>
    <g transform="translate(25 224)">
      <rect x="0" y="0" width="198" height="78" rx="20" fill="#ffffff" stroke="#bbf7d0"/>
      <text x="22" y="31" class="card-title">ToolSet</text>
      <text x="22" y="53" class="card-copy">user-facing tool presets</text>
    </g>
    <rect x="25" y="324" width="198" height="28" rx="14" fill="#059669"/>
    <text x="124" y="343" text-anchor="middle" class="pill">PUBLIC EXTENSION CONTRACTS</text>
  </g>

  <g id="runtime-layer" transform="translate(686 193)" filter="url(#softShadow)">
    <rect x="0" y="0" width="256" height="370" rx="24" fill="url(#runtime)" stroke="#fed7aa"/>
    <rect x="24" y="26" width="208" height="52" rx="18" fill="#ffffff" stroke="#fdba74"/>
    <text x="128" y="51" text-anchor="middle" class="card-title">ChatService</text>
    <text x="128" y="69" text-anchor="middle" class="card-copy">turn execution owner</text>

    <g transform="translate(24 106)">
      <rect x="0" y="0" width="96" height="70" rx="17" fill="#ffffff" stroke="#fed7aa"/>
      <text x="48" y="31" text-anchor="middle" class="small-title">Context</text>
      <text x="48" y="51" text-anchor="middle" class="small-copy">prompts</text>
    </g>
    <g transform="translate(136 106)">
      <rect x="0" y="0" width="96" height="70" rx="17" fill="#ffffff" stroke="#fed7aa"/>
      <text x="48" y="31" text-anchor="middle" class="small-title">Tools</text>
      <text x="48" y="51" text-anchor="middle" class="small-copy">policy</text>
    </g>
    <g transform="translate(24 194)">
      <rect x="0" y="0" width="96" height="70" rx="17" fill="#ffffff" stroke="#fed7aa"/>
      <text x="48" y="31" text-anchor="middle" class="small-title">Session</text>
      <text x="48" y="51" text-anchor="middle" class="small-copy">state</text>
    </g>
    <g transform="translate(136 194)">
      <rect x="0" y="0" width="96" height="70" rx="17" fill="#ffffff" stroke="#fed7aa"/>
      <text x="48" y="31" text-anchor="middle" class="small-title">Provider</text>
      <text x="48" y="51" text-anchor="middle" class="small-copy">routing</text>
    </g>
    <rect x="24" y="292" width="208" height="50" rx="18" fill="#ffffff" stroke="#fed7aa"/>
    <text x="128" y="315" text-anchor="middle" class="card-title">RecoveryService</text>
    <text x="128" y="333" text-anchor="middle" class="card-copy">resilience and structured retry</text>
  </g>

  <g id="ecosystem-layer" transform="translate(1004 193)" filter="url(#softShadow)">
    <rect x="0" y="0" width="186" height="370" rx="24" fill="url(#ecosystem)" stroke="#ddd6fe"/>
    <g transform="translate(20 25)">
      <rect x="0" y="0" width="146" height="58" rx="17" fill="#ffffff" stroke="#ddd6fe"/>
      <text x="18" y="25" class="small-title">Providers</text>
      <text x="18" y="44" class="small-copy">cloud and local LLMs</text>
    </g>
    <g transform="translate(20 103)">
      <rect x="0" y="0" width="146" height="58" rx="17" fill="#ffffff" stroke="#ddd6fe"/>
      <text x="18" y="25" class="small-title">Built-in tools</text>
      <text x="18" y="44" class="small-copy">files, git, shell, search</text>
    </g>
    <g transform="translate(20 181)">
      <rect x="0" y="0" width="146" height="58" rx="17" fill="#ffffff" stroke="#ddd6fe"/>
      <text x="18" y="25" class="small-title">Teams</text>
      <text x="18" y="44" class="small-copy">StateGraph nodes</text>
    </g>
    <g transform="translate(20 259)">
      <rect x="0" y="0" width="146" height="58" rx="17" fill="#ffffff" stroke="#ddd6fe"/>
      <text x="18" y="25" class="small-title">SDK plugins</text>
      <text x="18" y="44" class="small-copy">victor-* packages</text>
    </g>
  </g>

  <g id="state-band" transform="translate(242 606)" filter="url(#softShadow)">
    <rect x="0" y="0" width="796" height="70" rx="24" fill="#f8fafc" stroke="#cbd5e1"/>
    <text x="34" y="31" class="card-title">Memory, learning, and observability</text>
    <text x="34" y="52" class="card-copy">Project DB for sessions, graph, and context. Global DB for settings, preferences, RL, and cross-project learning. Events, metrics, and traces remain first-class.</text>
  </g>

  <path class="connector-strong" d="M314 378 C338 378 342 378 368 378"/>
  <path class="connector-strong" d="M616 378 C646 378 654 378 686 378"/>
  <path class="connector-strong" d="M942 378 C972 378 978 378 1004 378"/>

  <path class="connector-soft" d="M492 563 C492 585 504 594 546 606"/>
  <path class="connector-soft" d="M815 563 C815 586 805 594 760 606"/>
  <path class="connector-soft" d="M1096 563 C1062 594 1018 606 1004 624"/>
  <path class="connector-soft" d="M814 193 C814 155 734 144 650 154 C566 164 493 154 493 193"/>

  <g transform="translate(94 704)">
    <rect x="0" y="-26" width="1092" height="1" fill="#e2e8f0"/>
    <text x="0" y="0" class="small-copy">Target shape: service-first runtime, selective state-passed policy seams, contract-first plugins, and StateGraph as the execution engine.</text>
    <text x="1092" y="0" text-anchor="end" class="small-copy">Detailed internals remain in docs/diagrams/architecture/victor_0_7_architecture.mmd</text>
  </g>
</svg>
