<?xml version="1.0" encoding="utf-8" standalone="no"?>
<!DOCTYPE svg PUBLIC "-//W3C//DTD SVG 1.1//EN"
  "http://www.w3.org/Graphics/SVG/1.1/DTD/svg11.dtd">
<svg xmlns:xlink="http://www.w3.org/1999/xlink" width="856.8pt" height="568.968437pt" viewBox="0 0 856.8 568.968437" xmlns="http://www.w3.org/2000/svg" version="1.1">
 <metadata>
  <rdf:RDF xmlns:dc="http://purl.org/dc/elements/1.1/" xmlns:cc="http://creativecommons.org/ns#" xmlns:rdf="http://www.w3.org/1999/02/22-rdf-syntax-ns#">
   <cc:Work>
    <dc:type rdf:resource="http://purl.org/dc/dcmitype/StillImage"/>
    <dc:date>2026-01-03T04:01:37.480234</dc:date>
    <dc:format>image/svg+xml</dc:format>
    <dc:creator>
     <cc:Agent>
      <dc:title>Matplotlib v3.10.8, https://matplotlib.org/</dc:title>
     </cc:Agent>
    </dc:creator>
   </cc:Work>
  </rdf:RDF>
 </metadata>
 <defs>
  <style type="text/css">*{stroke-linejoin: round; stroke-linecap: butt}</style>
 </defs>
 <g id="figure_1">
  <g id="patch_1">
   <path d="M 0 568.968437 
L 856.8 568.968437 
L 856.8 0 
L 0 0 
z
" style="fill: #ffffff"/>
  </g>
  <g id="axes_1">
   <g id="patch_2">
    <path d="M 88.961344 515.054718 
Q 428.401412 515.054718 766.723446 515.054718 
" clip-path="url(#p545b2bd6a4)" style="fill: none; stroke: #666666; stroke-linecap: round"/>
    <path d="M 762.723446 513.054718 
L 766.723446 515.054718 
L 762.723446 517.054718 
z
" clip-path="url(#p545b2bd6a4)" style="fill: #666666; stroke: #666666; stroke-linecap: round"/>
   </g>
   <g id="patch_3">
    <path d="M 772.358919 507.44818 
Q 768.931864 501.151943 766.039309 495.837698 
" clip-path="url(#p545b2bd6a4)" style="fill: none; stroke: #666666; stroke-linecap: round"/>
    <path d="M 766.194955 500.307124 
L 766.039309 495.837698 
L 769.708238 498.394837 
z
" clip-path="url(#p545b2bd6a4)" style="fill: #666666; stroke: #666666; stroke-linecap: round"/>
   </g>
   <g id="patch_4">
    <path d="M 757.224172 479.642395 
Q 753.797117 473.346157 750.904563 468.031913 
" clip-path="url(#p545b2bd6a4)" style="fill: none; stroke: #666666; stroke-linecap: round"/>
    <path d="M 751.060208 472.501339 
L 750.904563 468.031913 
L 754.573491 470.589052 
z
" clip-path="url(#p545b2bd6a4)" style="fill: #666666; stroke: #666666; stroke-linecap: round"/>
   </g>
   <g id="patch_5">
    <path d="M 659.561455 396.225039 
Q 670.555224 376.027122 681.014492 356.811196 
" clip-path="url(#p545b2bd6a4)" style="fill: none; stroke: #666666; stroke-linecap: round"/>
    <path d="M 677.345563 359.368336 
L 681.014492 356.811196 
L 680.858846 361.280623 
z
" clip-path="url(#p545b2bd6a4)" style="fill: #666666; stroke: #666666; stroke-linecap: round"/>
   </g>
   <g id="patch_6">
    <path d="M 689.830948 355.826546 
Q 693.258003 362.122784 696.150558 367.437029 
" clip-path="url(#p545b2bd6a4)" style="fill: none; stroke: #666666; stroke-linecap: round"/>
    <path d="M 695.994912 362.967602 
L 696.150558 367.437029 
L 692.481629 364.879889 
z
" clip-path="url(#p545b2bd6a4)" style="fill: #666666; stroke: #666666; stroke-linecap: round"/>
   </g>
   <g id="patch_7">
    <path d="M 704.964309 383.629786 
Q 723.527304 417.733999 741.555798 450.85622 
" clip-path="url(#p545b2bd6a4)" style="fill: none; stroke: #666666; stroke-linecap: round"/>
    <path d="M 741.400152 446.386794 
L 741.555798 450.85622 
L 737.886869 448.299081 
z
" clip-path="url(#p545b2bd6a4)" style="fill: #666666; stroke: #666666; stroke-linecap: round"/>
   </g>
   <g id="patch_8">
    <path d="M 737.852639 457.244516 
Q 693.257377 445.540075 649.743523 434.119459 
" clip-path="url(#p545b2bd6a4)" style="fill: none; stroke: #666666; stroke-linecap: round"/>
    <path d="M 653.104763 437.069385 
L 649.743523 434.119459 
L 654.120208 433.200423 
z
" clip-path="url(#p545b2bd6a4)" style="fill: #666666; stroke: #666666; stroke-linecap: round"/>
   </g>
   <g id="patch_9">
    <path d="M 631.802257 429.905442 
Q 572.18093 417.734641 513.655046 405.787459 
" clip-path="url(#p545b2bd6a4)" style="fill: none; stroke: #666666; stroke-linecap: round"/>
    <path d="M 517.174201 408.547088 
L 513.655046 405.787459 
L 517.974242 404.627913 
z
" clip-path="url(#p545b2bd6a4)" style="fill: #666666; stroke: #666666; stroke-linecap: round"/>
   </g>
   <g id="patch_10">
    <path d="M 636.145737 424.029976 
Q 602.449818 362.123324 569.288399 301.198665 
" clip-path="url(#p545b2bd6a4)" style="fill: none; stroke: #666666; stroke-linecap: round"/>
    <path d="M 569.444045 305.668092 
L 569.288399 301.198665 
L 572.957328 303.755805 
z
" clip-path="url(#p545b2bd6a4)" style="fill: #666666; stroke: #666666; stroke-linecap: round"/>
   </g>
   <g id="patch_11">
    <path d="M 560.472465 300.214976 
Q 557.04541 306.511213 554.152856 311.825458 
" clip-path="url(#p545b2bd6a4)" style="fill: none; stroke: #666666; stroke-linecap: round"/>
    <path d="M 557.821784 309.268319 
L 554.152856 311.825458 
L 554.308501 307.356032 
z
" clip-path="url(#p545b2bd6a4)" style="fill: #666666; stroke: #666666; stroke-linecap: round"/>
   </g>
   <g id="patch_12">
    <path d="M 545.339104 328.018216 
Q 526.77611 362.122429 508.747616 395.24465 
" clip-path="url(#p545b2bd6a4)" style="fill: none; stroke: #666666; stroke-linecap: round"/>
    <path d="M 512.416545 392.687511 
L 508.747616 395.24465 
L 508.903262 390.775224 
z
" clip-path="url(#p545b2bd6a4)" style="fill: #666666; stroke: #666666; stroke-linecap: round"/>
   </g>
   <g id="patch_13">
    <path d="M 549.477973 329.072982 
Q 549.477973 334.315509 549.477973 338.440001 
" clip-path="url(#p545b2bd6a4)" style="fill: none; stroke: #666666; stroke-linecap: round"/>
    <path d="M 551.477973 334.440001 
L 549.477973 338.440001 
L 547.477973 334.440001 
z
" clip-path="url(#p545b2bd6a4)" style="fill: #666666; stroke: #666666; stroke-linecap: round"/>
   </g>
   <g id="patch_14">
    <path d="M 545.337719 355.826546 
Q 541.910664 362.122784 539.018109 367.437029 
" clip-path="url(#p545b2bd6a4)" style="fill: none; stroke: #666666; stroke-linecap: round"/>
    <path d="M 542.687038 364.879889 
L 539.018109 367.437029 
L 539.173755 362.967602 
z
" clip-path="url(#p545b2bd6a4)" style="fill: #666666; stroke: #666666; stroke-linecap: round"/>
   </g>
   <g id="patch_15">
    <path d="M 527.963798 381.885984 
Q 519.207704 389.929398 511.274978 397.216461 
" clip-path="url(#p545b2bd6a4)" style="fill: none; stroke: #666666; stroke-linecap: round"/>
    <path d="M 515.573747 395.98334 
L 511.274978 397.216461 
L 512.867743 393.037573 
z
" clip-path="url(#p545b2bd6a4)" style="fill: #666666; stroke: #666666; stroke-linecap: round"/>
   </g>
   <g id="patch_16">
    <path d="M 499.933479 396.225039 
Q 496.506424 389.928802 493.613869 384.614557 
" clip-path="url(#p545b2bd6a4)" style="fill: none; stroke: #666666; stroke-linecap: round"/>
    <path d="M 493.769515 389.083984 
L 493.613869 384.614557 
L 497.282798 387.171697 
z
" clip-path="url(#p545b2bd6a4)" style="fill: #666666; stroke: #666666; stroke-linecap: round"/>
   </g>
   <g id="patch_17">
    <path d="M 484.798732 368.419254 
Q 481.371677 362.123017 478.479122 356.808772 
" clip-path="url(#p545b2bd6a4)" style="fill: none; stroke: #666666; stroke-linecap: round"/>
    <path d="M 478.634768 361.278199 
L 478.479122 356.808772 
L 482.148051 359.365911 
z
" clip-path="url(#p545b2bd6a4)" style="fill: #666666; stroke: #666666; stroke-linecap: round"/>
   </g>
   <g id="patch_18">
    <path d="M 465.187023 347.34047 
Q 337.592096 334.317174 211.109424 321.407403 
" clip-path="url(#p545b2bd6a4)" style="fill: none; stroke: #666666; stroke-linecap: round"/>
    <path d="M 214.88567 323.803226 
L 211.109424 321.407403 
L 215.29183 319.8239 
z
" clip-path="url(#p545b2bd6a4)" style="fill: #666666; stroke: #666666; stroke-linecap: round"/>
   </g>
   <g id="patch_19">
    <path d="M 469.663985 340.613469 
Q 413.265839 236.997942 357.402192 134.364408 
" clip-path="url(#p545b2bd6a4)" style="fill: none; stroke: #666666; stroke-linecap: round"/>
    <path d="M 357.557838 138.833835 
L 357.402192 134.364408 
L 361.071121 136.921548 
z
" clip-path="url(#p545b2bd6a4)" style="fill: #666666; stroke: #666666; stroke-linecap: round"/>
   </g>
   <g id="patch_20">
    <path d="M 347.412385 132.607647 
Q 277.052835 223.093586 207.37958 312.696916 
" clip-path="url(#p545b2bd6a4)" style="fill: none; stroke: #666666; stroke-linecap: round"/>
    <path d="M 211.413802 310.766877 
L 207.37958 312.696916 
L 208.256082 308.311515 
z
" clip-path="url(#p545b2bd6a4)" style="fill: #666666; stroke: #666666; stroke-linecap: round"/>
   </g>
   <g id="patch_21">
    <path d="M 348.586012 118.167188 
Q 337.592243 97.96927 327.132975 78.753345 
" clip-path="url(#p545b2bd6a4)" style="fill: none; stroke: #666666; stroke-linecap: round"/>
    <path d="M 327.288621 83.222772 
L 327.132975 78.753345 
L 330.801904 81.310484 
z
" clip-path="url(#p545b2bd6a4)" style="fill: #666666; stroke: #666666; stroke-linecap: round"/>
   </g>
   <g id="patch_22">
    <path d="M 318.316518 77.768695 
Q 314.889463 84.064932 311.996909 89.379177 
" clip-path="url(#p545b2bd6a4)" style="fill: none; stroke: #666666; stroke-linecap: round"/>
    <path d="M 315.665838 86.822038 
L 311.996909 89.379177 
L 312.152555 84.909751 
z
" clip-path="url(#p545b2bd6a4)" style="fill: #666666; stroke: #666666; stroke-linecap: round"/>
   </g>
   <g id="patch_23">
    <path d="M 303.599077 105.784924 
Q 254.350509 209.190881 205.582682 311.587438 
" clip-path="url(#p545b2bd6a4)" style="fill: none; stroke: #666666; stroke-linecap: round"/>
    <path d="M 209.108303 308.836075 
L 205.582682 311.587438 
L 205.496965 307.116124 
z
" clip-path="url(#p545b2bd6a4)" style="fill: #666666; stroke: #666666; stroke-linecap: round"/>
   </g>
   <g id="patch_24">
    <path d="M 303.180733 105.57639 
Q 193.811064 306.511997 84.975895 506.465611 
" clip-path="url(#p545b2bd6a4)" style="fill: none; stroke: #666666; stroke-linecap: round"/>
    <path d="M 88.644824 503.908472 
L 84.975895 506.465611 
L 85.131541 501.996185 
z
" clip-path="url(#p545b2bd6a4)" style="fill: #666666; stroke: #666666; stroke-linecap: round"/>
   </g>
   <g id="patch_25">
    <path d="M 209.662081 317.877861 
Q 246.783058 306.511325 282.834995 295.472131 
" clip-path="url(#p545b2bd6a4)" style="fill: none; stroke: #666666; stroke-linecap: round"/>
    <path d="M 278.424712 294.730911 
L 282.834995 295.472131 
L 279.595849 298.555625 
z
" clip-path="url(#p545b2bd6a4)" style="fill: #666666; stroke: #666666; stroke-linecap: round"/>
   </g>
   <g id="patch_26">
    <path d="M 295.643959 284.67011 
Q 322.456164 223.095374 348.822012 162.545707 
" clip-path="url(#p545b2bd6a4)" style="fill: none; stroke: #666666; stroke-linecap: round"/>
    <path d="M 345.391377 165.414634 
L 348.822012 162.545707 
L 349.058773 167.011571 
z
" clip-path="url(#p545b2bd6a4)" style="fill: #666666; stroke: #666666; stroke-linecap: round"/>
   </g>
   <g id="patch_27">
    <path d="M 354.999619 161.932788 
Q 360.293248 181.383856 365.293281 199.756129 
" clip-path="url(#p545b2bd6a4)" style="fill: none; stroke: #666666; stroke-linecap: round"/>
    <path d="M 366.172691 195.37131 
L 365.293281 199.756129 
L 362.313072 196.421709 
z
" clip-path="url(#p545b2bd6a4)" style="fill: #666666; stroke: #666666; stroke-linecap: round"/>
   </g>
   <g id="patch_28">
    <path d="M 349.773033 161.718101 
Q 337.591255 195.28892 325.790844 227.80876 
" clip-path="url(#p545b2bd6a4)" style="fill: none; stroke: #666666; stroke-linecap: round"/>
    <path d="M 329.035315 224.730869 
L 325.790844 227.80876 
L 325.275214 223.366449 
z
" clip-path="url(#p545b2bd6a4)" style="fill: #666666; stroke: #666666; stroke-linecap: round"/>
   </g>
   <g id="patch_29">
    <path d="M 322.456773 245.655627 
Q 322.456773 250.898153 322.456773 255.022646 
" clip-path="url(#p545b2bd6a4)" style="fill: none; stroke: #666666; stroke-linecap: round"/>
    <path d="M 324.456773 251.022646 
L 322.456773 255.022646 
L 320.456773 251.022646 
z
" clip-path="url(#p545b2bd6a4)" style="fill: #666666; stroke: #666666; stroke-linecap: round"/>
   </g>
   <g id="patch_30">
    <path d="M 329.842168 232.474015 
Q 345.158537 223.094193 359.521457 214.298268 
" clip-path="url(#p545b2bd6a4)" style="fill: none; stroke: #666666; stroke-linecap: round"/>
    <path d="M 355.065789 214.6817 
L 359.521457 214.298268 
L 357.154801 218.092862 
z
" clip-path="url(#p545b2bd6a4)" style="fill: #666666; stroke: #666666; stroke-linecap: round"/>
   </g>
   <g id="patch_31">
    <path d="M 316.077345 270.662844 
Q 307.321251 278.706257 299.388524 285.99332 
" clip-path="url(#p545b2bd6a4)" style="fill: none; stroke: #666666; stroke-linecap: round"/>
    <path d="M 303.687293 284.7602 
L 299.388524 285.99332 
L 300.981289 281.814433 
z
" clip-path="url(#p545b2bd6a4)" style="fill: #666666; stroke: #666666; stroke-linecap: round"/>
   </g>
   <g id="patch_32">
    <path d="M 363.720758 201.584543 
Q 360.293703 195.288306 357.401149 189.974061 
" clip-path="url(#p545b2bd6a4)" style="fill: none; stroke: #666666; stroke-linecap: round"/>
    <path d="M 357.556795 194.443488 
L 357.401149 189.974061 
L 361.070078 192.531201 
z
" clip-path="url(#p545b2bd6a4)" style="fill: #666666; stroke: #666666; stroke-linecap: round"/>
   </g>
   <g id="text_1">
    <g id="patch_33">
     <path d="M 564.045883 421.674502 
L 578.120927 424.547711 
Q 580.178494 424.967733 580.598516 422.910166 
L 581.953523 416.272369 
Q 582.373544 414.214802 580.315977 413.794781 
L 566.240933 410.921571 
Q 564.183366 410.50155 563.763344 412.559117 
L 562.408338 419.196914 
Q 561.988316 421.254481 564.045883 421.674502 
z
" clip-path="url(#p545b2bd6a4)" style="fill: #ffffff; stroke: #ffffff; stroke-linejoin: miter"/>
    </g>
    <g clip-path="url(#p545b2bd6a4)">
     <!-- true -->
     <g transform="translate(564.757076 418.19057) rotate(-348.462443) scale(0.07 -0.07)">
      <defs>
       <path id="DejaVuSans-74" d="M 1172 4494 
L 1172 3500 
L 2356 3500 
L 2356 3053 
L 1172 3053 
L 1172 1153 
Q 1172 725 1289 603 
Q 1406 481 1766 481 
L 2356 481 
L 2356 0 
L 1766 0 
Q 1100 0 847 248 
Q 594 497 594 1153 
L 594 3053 
L 172 3053 
L 172 3500 
L 594 3500 
L 594 4494 
L 1172 4494 
z
" transform="scale(0.015625)"/>
       <path id="DejaVuSans-72" d="M 2631 2963 
Q 2534 3019 2420 3045 
Q 2306 3072 2169 3072 
Q 1681 3072 1420 2755 
Q 1159 2438 1159 1844 
L 1159 0 
L 581 0 
L 581 3500 
L 1159 3500 
L 1159 2956 
Q 1341 3275 1631 3429 
Q 1922 3584 2338 3584 
Q 2397 3584 2469 3576 
Q 2541 3569 2628 3553 
L 2631 2963 
z
" transform="scale(0.015625)"/>
       <path id="DejaVuSans-75" d="M 544 1381 
L 544 3500 
L 1119 3500 
L 1119 1403 
Q 1119 906 1312 657 
Q 1506 409 1894 409 
Q 2359 409 2629 706 
Q 2900 1003 2900 1516 
L 2900 3500 
L 3475 3500 
L 3475 0 
L 2900 0 
L 2900 538 
Q 2691 219 2414 64 
Q 2138 -91 1772 -91 
Q 1169 -91 856 284 
Q 544 659 544 1381 
z
M 1991 3584 
L 1991 3584 
z
" transform="scale(0.015625)"/>
       <path id="DejaVuSans-65" d="M 3597 1894 
L 3597 1613 
L 953 1613 
Q 991 1019 1311 708 
Q 1631 397 2203 397 
Q 2534 397 2845 478 
Q 3156 559 3463 722 
L 3463 178 
Q 3153 47 2828 -22 
Q 2503 -91 2169 -91 
Q 1331 -91 842 396 
Q 353 884 353 1716 
Q 353 2575 817 3079 
Q 1281 3584 2069 3584 
Q 2775 3584 3186 3129 
Q 3597 2675 3597 1894 
z
M 3022 2063 
Q 3016 2534 2758 2815 
Q 2500 3097 2075 3097 
Q 1594 3097 1305 2825 
Q 1016 2553 972 2059 
L 3022 2063 
z
" transform="scale(0.015625)"/>
      </defs>
      <use xlink:href="#DejaVuSans-74"/>
      <use xlink:href="#DejaVuSans-72" transform="translate(39.208984 0)"/>
      <use xlink:href="#DejaVuSans-75" transform="translate(80.322266 0)"/>
      <use xlink:href="#DejaVuSans-65" transform="translate(143.701172 0)"/>
     </g>
    </g>
   </g>
   <g id="text_2">
    <g id="patch_34">
     <path d="M 593.649662 357.433619 
L 601.610678 372.059718 
Q 602.614629 373.904192 604.459102 372.900241 
L 610.409451 369.661454 
Q 612.253924 368.657503 611.249974 366.81303 
L 603.288957 352.186931 
Q 602.285007 350.342457 600.440533 351.346408 
L 594.490184 354.585195 
Q 592.645711 355.589146 593.649662 357.433619 
z
" clip-path="url(#p545b2bd6a4)" style="fill: #ffffff; stroke: #ffffff; stroke-linejoin: miter"/>
    </g>
    <g clip-path="url(#p545b2bd6a4)">
     <!-- false -->
     <g transform="translate(596.772778 355.7337) rotate(-298.559545) scale(0.07 -0.07)">
      <defs>
       <path id="DejaVuSans-66" d="M 2375 4863 
L 2375 4384 
L 1825 4384 
Q 1516 4384 1395 4259 
Q 1275 4134 1275 3809 
L 1275 3500 
L 2222 3500 
L 2222 3053 
L 1275 3053 
L 1275 0 
L 697 0 
L 697 3053 
L 147 3053 
L 147 3500 
L 697 3500 
L 697 3744 
Q 697 4328 969 4595 
Q 1241 4863 1831 4863 
L 2375 4863 
z
" transform="scale(0.015625)"/>
       <path id="DejaVuSans-61" d="M 2194 1759 
Q 1497 1759 1228 1600 
Q 959 1441 959 1056 
Q 959 750 1161 570 
Q 1363 391 1709 391 
Q 2188 391 2477 730 
Q 2766 1069 2766 1631 
L 2766 1759 
L 2194 1759 
z
M 3341 1997 
L 3341 0 
L 2766 0 
L 2766 531 
Q 2569 213 2275 61 
Q 1981 -91 1556 -91 
Q 1019 -91 701 211 
Q 384 513 384 1019 
Q 384 1609 779 1909 
Q 1175 2209 1959 2209 
L 2766 2209 
L 2766 2266 
Q 2766 2663 2505 2880 
Q 2244 3097 1772 3097 
Q 1472 3097 1187 3025 
Q 903 2953 641 2809 
L 641 3341 
Q 956 3463 1253 3523 
Q 1550 3584 1831 3584 
Q 2591 3584 2966 3190 
Q 3341 2797 3341 1997 
z
" transform="scale(0.015625)"/>
       <path id="DejaVuSans-6c" d="M 603 4863 
L 1178 4863 
L 1178 0 
L 603 0 
L 603 4863 
z
" transform="scale(0.015625)"/>
       <path id="DejaVuSans-73" d="M 2834 3397 
L 2834 2853 
Q 2591 2978 2328 3040 
Q 2066 3103 1784 3103 
Q 1356 3103 1142 2972 
Q 928 2841 928 2578 
Q 928 2378 1081 2264 
Q 1234 2150 1697 2047 
L 1894 2003 
Q 2506 1872 2764 1633 
Q 3022 1394 3022 966 
Q 3022 478 2636 193 
Q 2250 -91 1575 -91 
Q 1294 -91 989 -36 
Q 684 19 347 128 
L 347 722 
Q 666 556 975 473 
Q 1284 391 1588 391 
Q 1994 391 2212 530 
Q 2431 669 2431 922 
Q 2431 1156 2273 1281 
Q 2116 1406 1581 1522 
L 1381 1569 
Q 847 1681 609 1914 
Q 372 2147 372 2553 
Q 372 3047 722 3315 
Q 1072 3584 1716 3584 
Q 2034 3584 2315 3537 
Q 2597 3491 2834 3397 
z
" transform="scale(0.015625)"/>
      </defs>
      <use xlink:href="#DejaVuSans-66"/>
      <use xlink:href="#DejaVuSans-61" transform="translate(35.205078 0)"/>
      <use xlink:href="#DejaVuSans-6c" transform="translate(96.484375 0)"/>
      <use xlink:href="#DejaVuSans-73" transform="translate(124.267578 0)"/>
      <use xlink:href="#DejaVuSans-65" transform="translate(176.367188 0)"/>
     </g>
    </g>
   </g>
   <g id="text_3">
    <g id="patch_35">
     <path d="M 528.161932 371.054449 
L 535.029583 358.437097 
Q 536.033534 356.592624 534.18906 355.588673 
L 528.238712 352.349886 
Q 526.394238 351.345935 525.390287 353.190409 
L 518.522637 365.807761 
Q 517.518686 367.652234 519.363159 368.656185 
L 525.313508 371.894972 
Q 527.157981 372.898923 528.161932 371.054449 
z
" clip-path="url(#p545b2bd6a4)" style="fill: #ffffff; stroke: #ffffff; stroke-linejoin: miter"/>
    </g>
    <g clip-path="url(#p545b2bd6a4)">
     <!-- true -->
     <g transform="translate(525.038816 369.354531) rotate(-61.440455) scale(0.07 -0.07)">
      <use xlink:href="#DejaVuSans-74"/>
      <use xlink:href="#DejaVuSans-72" transform="translate(39.208984 0)"/>
      <use xlink:href="#DejaVuSans-75" transform="translate(80.322266 0)"/>
      <use xlink:href="#DejaVuSans-65" transform="translate(143.701172 0)"/>
     </g>
    </g>
   </g>
   <g id="text_4">
    <g id="patch_36">
     <path d="M 543.99063 325.989337 
L 543.99063 342.641681 
Q 543.99063 344.741681 546.09063 344.741681 
L 552.865317 344.741681 
Q 554.965317 344.741681 554.965317 342.641681 
L 554.965317 325.989337 
Q 554.965317 323.889337 552.865317 323.889337 
L 546.09063 323.889337 
Q 543.99063 323.889337 543.99063 325.989337 
z
" clip-path="url(#p545b2bd6a4)" style="fill: #ffffff; stroke: #ffffff; stroke-linejoin: miter"/>
    </g>
    <g clip-path="url(#p545b2bd6a4)">
     <!-- false -->
     <g transform="translate(547.546411 325.989337) rotate(-270) scale(0.07 -0.07)">
      <use xlink:href="#DejaVuSans-66"/>
      <use xlink:href="#DejaVuSans-61" transform="translate(35.205078 0)"/>
      <use xlink:href="#DejaVuSans-6c" transform="translate(96.484375 0)"/>
      <use xlink:href="#DejaVuSans-73" transform="translate(124.267578 0)"/>
      <use xlink:href="#DejaVuSans-65" transform="translate(176.367188 0)"/>
     </g>
    </g>
   </g>
   <g id="text_5">
    <g id="patch_37">
     <path d="M 329.889379 339.046829 
L 344.180443 340.505483 
Q 346.26959 340.718717 346.482823 338.629571 
L 347.170725 331.889898 
Q 347.383959 329.800752 345.294813 329.587518 
L 331.003748 328.128865 
Q 328.914602 327.915631 328.701368 330.004777 
L 328.013466 336.744449 
Q 327.800233 338.833596 329.889379 339.046829 
z
" clip-path="url(#p545b2bd6a4)" style="fill: #ffffff; stroke: #ffffff; stroke-linejoin: miter"/>
    </g>
    <g clip-path="url(#p545b2bd6a4)">
     <!-- true -->
     <g transform="translate(330.250433 335.509426) rotate(-354.172145) scale(0.07 -0.07)">
      <use xlink:href="#DejaVuSans-74"/>
      <use xlink:href="#DejaVuSans-72" transform="translate(39.208984 0)"/>
      <use xlink:href="#DejaVuSans-75" transform="translate(80.322266 0)"/>
      <use xlink:href="#DejaVuSans-65" transform="translate(143.701172 0)"/>
     </g>
    </g>
   </g>
   <g id="text_6">
    <g id="patch_38">
     <path d="M 404.465683 232.308237 
L 412.426699 246.934336 
Q 413.43065 248.77881 415.275123 247.774859 
L 421.225472 244.536072 
Q 423.069945 243.532121 422.065995 241.687648 
L 414.104978 227.061549 
Q 413.101028 225.217075 411.256554 226.221026 
L 405.306205 229.459813 
Q 403.461732 230.463764 404.465683 232.308237 
z
" clip-path="url(#p545b2bd6a4)" style="fill: #ffffff; stroke: #ffffff; stroke-linejoin: miter"/>
    </g>
    <g clip-path="url(#p545b2bd6a4)">
     <!-- false -->
     <g transform="translate(407.588799 230.608318) rotate(-298.559545) scale(0.07 -0.07)">
      <use xlink:href="#DejaVuSans-66"/>
      <use xlink:href="#DejaVuSans-61" transform="translate(35.205078 0)"/>
      <use xlink:href="#DejaVuSans-6c" transform="translate(96.484375 0)"/>
      <use xlink:href="#DejaVuSans-73" transform="translate(124.267578 0)"/>
      <use xlink:href="#DejaVuSans-65" transform="translate(176.367188 0)"/>
     </g>
    </g>
   </g>
   <g id="text_7">
    <g id="patch_39">
     <path d="M 276.975703 232.132145 
L 285.793715 220.791736 
Q 287.08278 219.133933 285.424977 217.844868 
L 280.076835 213.68629 
Q 278.419032 212.397225 277.129967 214.055028 
L 268.311956 225.395437 
Q 267.02289 227.05324 268.680693 228.342305 
L 274.028835 232.500883 
Q 275.686638 233.789948 276.975703 232.132145 
z
" clip-path="url(#p545b2bd6a4)" style="fill: #ffffff; stroke: #ffffff; stroke-linejoin: miter"/>
    </g>
    <g clip-path="url(#p545b2bd6a4)">
     <!-- true -->
     <g transform="translate(274.168663 229.949462) rotate(-52.132278) scale(0.07 -0.07)">
      <use xlink:href="#DejaVuSans-74"/>
      <use xlink:href="#DejaVuSans-72" transform="translate(39.208984 0)"/>
      <use xlink:href="#DejaVuSans-75" transform="translate(80.322266 0)"/>
      <use xlink:href="#DejaVuSans-65" transform="translate(143.701172 0)"/>
     </g>
    </g>
   </g>
   <g id="text_8">
    <g id="patch_40">
     <path d="M 328.792087 93.279565 
L 336.753103 107.905664 
Q 337.757054 109.750138 339.601528 108.746187 
L 345.551876 105.5074 
Q 347.39635 104.503449 346.392399 102.658975 
L 338.431383 88.032876 
Q 337.427432 86.188403 335.582959 87.192354 
L 329.63261 90.431141 
Q 327.788136 91.435092 328.792087 93.279565 
z
" clip-path="url(#p545b2bd6a4)" style="fill: #ffffff; stroke: #ffffff; stroke-linejoin: miter"/>
    </g>
    <g clip-path="url(#p545b2bd6a4)">
     <!-- false -->
     <g transform="translate(331.915204 91.579646) rotate(-298.559545) scale(0.07 -0.07)">
      <use xlink:href="#DejaVuSans-66"/>
      <use xlink:href="#DejaVuSans-61" transform="translate(35.205078 0)"/>
      <use xlink:href="#DejaVuSans-6c" transform="translate(96.484375 0)"/>
      <use xlink:href="#DejaVuSans-73" transform="translate(124.267578 0)"/>
      <use xlink:href="#DejaVuSans-65" transform="translate(176.367188 0)"/>
     </g>
    </g>
   </g>
   <g id="text_9">
    <g id="patch_41">
     <path d="M 255.288787 219.982425 
L 263.320559 203.11832 
Q 264.223533 201.222368 262.327581 200.319393 
L 256.211158 197.406359 
Q 254.315205 196.503384 253.412231 198.399337 
L 245.380459 215.263442 
Q 244.477485 217.159395 246.373437 218.062369 
L 252.48986 220.975403 
Q 254.385813 221.878378 255.288787 219.982425 
z
" clip-path="url(#p545b2bd6a4)" style="fill: #ffffff; stroke: #ffffff; stroke-linejoin: miter"/>
    </g>
    <g clip-path="url(#p545b2bd6a4)">
     <!-- focus -->
     <g transform="translate(252.078505 218.453482) rotate(-64.533206) scale(0.07 -0.07)">
      <defs>
       <path id="DejaVuSans-6f" d="M 1959 3097 
Q 1497 3097 1228 2736 
Q 959 2375 959 1747 
Q 959 1119 1226 758 
Q 1494 397 1959 397 
Q 2419 397 2687 759 
Q 2956 1122 2956 1747 
Q 2956 2369 2687 2733 
Q 2419 3097 1959 3097 
z
M 1959 3584 
Q 2709 3584 3137 3096 
Q 3566 2609 3566 1747 
Q 3566 888 3137 398 
Q 2709 -91 1959 -91 
Q 1206 -91 779 398 
Q 353 888 353 1747 
Q 353 2609 779 3096 
Q 1206 3584 1959 3584 
z
" transform="scale(0.015625)"/>
       <path id="DejaVuSans-63" d="M 3122 3366 
L 3122 2828 
Q 2878 2963 2633 3030 
Q 2388 3097 2138 3097 
Q 1578 3097 1268 2742 
Q 959 2388 959 1747 
Q 959 1106 1268 751 
Q 1578 397 2138 397 
Q 2388 397 2633 464 
Q 2878 531 3122 666 
L 3122 134 
Q 2881 22 2623 -34 
Q 2366 -91 2075 -91 
Q 1284 -91 818 406 
Q 353 903 353 1747 
Q 353 2603 823 3093 
Q 1294 3584 2113 3584 
Q 2378 3584 2631 3529 
Q 2884 3475 3122 3366 
z
" transform="scale(0.015625)"/>
      </defs>
      <use xlink:href="#DejaVuSans-66"/>
      <use xlink:href="#DejaVuSans-6f" transform="translate(35.205078 0)"/>
      <use xlink:href="#DejaVuSans-63" transform="translate(96.386719 0)"/>
      <use xlink:href="#DejaVuSans-75" transform="translate(151.367188 0)"/>
      <use xlink:href="#DejaVuSans-73" transform="translate(214.746094 0)"/>
     </g>
    </g>
   </g>
   <g id="text_10">
    <g id="patch_42">
     <path d="M 191.213764 322.76187 
L 206.04766 295.508812 
Q 207.05161 293.664339 205.207137 292.660388 
L 199.256788 289.421601 
Q 197.412315 288.41765 196.408364 290.262123 
L 181.574468 317.515181 
Q 180.570517 319.359655 182.414991 320.363606 
L 188.365339 323.602393 
Q 190.209813 324.606344 191.213764 322.76187 
z
" clip-path="url(#p545b2bd6a4)" style="fill: #ffffff; stroke: #ffffff; stroke-linejoin: miter"/>
    </g>
    <g clip-path="url(#p545b2bd6a4)">
     <!-- rephrase -->
     <g transform="translate(188.090647 321.061951) rotate(-61.440455) scale(0.07 -0.07)">
      <defs>
       <path id="DejaVuSans-70" d="M 1159 525 
L 1159 -1331 
L 581 -1331 
L 581 3500 
L 1159 3500 
L 1159 2969 
Q 1341 3281 1617 3432 
Q 1894 3584 2278 3584 
Q 2916 3584 3314 3078 
Q 3713 2572 3713 1747 
Q 3713 922 3314 415 
Q 2916 -91 2278 -91 
Q 1894 -91 1617 61 
Q 1341 213 1159 525 
z
M 3116 1747 
Q 3116 2381 2855 2742 
Q 2594 3103 2138 3103 
Q 1681 3103 1420 2742 
Q 1159 2381 1159 1747 
Q 1159 1113 1420 752 
Q 1681 391 2138 391 
Q 2594 391 2855 752 
Q 3116 1113 3116 1747 
z
" transform="scale(0.015625)"/>
       <path id="DejaVuSans-68" d="M 3513 2113 
L 3513 0 
L 2938 0 
L 2938 2094 
Q 2938 2591 2744 2837 
Q 2550 3084 2163 3084 
Q 1697 3084 1428 2787 
Q 1159 2491 1159 1978 
L 1159 0 
L 581 0 
L 581 4863 
L 1159 4863 
L 1159 2956 
Q 1366 3272 1645 3428 
Q 1925 3584 2291 3584 
Q 2894 3584 3203 3211 
Q 3513 2838 3513 2113 
z
" transform="scale(0.015625)"/>
      </defs>
      <use xlink:href="#DejaVuSans-72"/>
      <use xlink:href="#DejaVuSans-65" transform="translate(38.863281 0)"/>
      <use xlink:href="#DejaVuSans-70" transform="translate(100.386719 0)"/>
      <use xlink:href="#DejaVuSans-68" transform="translate(163.863281 0)"/>
      <use xlink:href="#DejaVuSans-72" transform="translate(227.242188 0)"/>
      <use xlink:href="#DejaVuSans-61" transform="translate(268.355469 0)"/>
      <use xlink:href="#DejaVuSans-73" transform="translate(329.634766 0)"/>
      <use xlink:href="#DejaVuSans-65" transform="translate(381.734375 0)"/>
     </g>
    </g>
   </g>
   <g id="text_11">
    <g id="patch_43">
     <path d="M 353.112319 175.894252 
L 356.884648 189.755412 
Q 357.436108 191.781712 359.462408 191.230252 
L 365.999336 189.45122 
Q 368.025637 188.899761 367.474177 186.87346 
L 363.701848 173.012301 
Q 363.150388 170.986001 361.124088 171.537461 
L 354.587159 173.316493 
Q 352.560859 173.867952 353.112319 175.894252 
z
" clip-path="url(#p545b2bd6a4)" style="fill: #ffffff; stroke: #ffffff; stroke-linejoin: miter"/>
    </g>
    <g clip-path="url(#p545b2bd6a4)">
     <!-- true -->
     <g transform="translate(356.543309 174.960505) rotate(-285.224384) scale(0.07 -0.07)">
      <use xlink:href="#DejaVuSans-74"/>
      <use xlink:href="#DejaVuSans-72" transform="translate(39.208984 0)"/>
      <use xlink:href="#DejaVuSans-75" transform="translate(80.322266 0)"/>
      <use xlink:href="#DejaVuSans-65" transform="translate(143.701172 0)"/>
     </g>
    </g>
   </g>
   <g id="text_12">
    <g id="patch_44">
     <path d="M 339.909396 204.987492 
L 345.589596 189.33387 
Q 346.305916 187.359817 344.331864 186.643497 
L 337.963487 184.332616 
Q 335.989434 183.616296 335.273113 185.590348 
L 329.592914 201.243971 
Q 328.876593 203.218023 330.850646 203.934344 
L 337.219023 206.245225 
Q 339.193076 206.961545 339.909396 204.987492 
z
" clip-path="url(#p545b2bd6a4)" style="fill: #ffffff; stroke: #ffffff; stroke-linejoin: miter"/>
    </g>
    <g clip-path="url(#p545b2bd6a4)">
     <!-- false -->
     <g transform="translate(336.566872 203.774597) rotate(-70.055783) scale(0.07 -0.07)">
      <use xlink:href="#DejaVuSans-66"/>
      <use xlink:href="#DejaVuSans-61" transform="translate(35.205078 0)"/>
      <use xlink:href="#DejaVuSans-6c" transform="translate(96.484375 0)"/>
      <use xlink:href="#DejaVuSans-73" transform="translate(124.267578 0)"/>
      <use xlink:href="#DejaVuSans-65" transform="translate(176.367188 0)"/>
     </g>
    </g>
   </g>
   <g id="text_13">
    <g id="patch_45">
     <path d="M 316.96943 243.715497 
L 316.96943 258.08081 
Q 316.96943 260.18081 319.06943 260.18081 
L 325.844117 260.18081 
Q 327.944117 260.18081 327.944117 258.08081 
L 327.944117 243.715497 
Q 327.944117 241.615497 325.844117 241.615497 
L 319.06943 241.615497 
Q 316.96943 241.615497 316.96943 243.715497 
z
" clip-path="url(#p545b2bd6a4)" style="fill: #ffffff; stroke: #ffffff; stroke-linejoin: miter"/>
    </g>
    <g clip-path="url(#p545b2bd6a4)">
     <!-- true -->
     <g transform="translate(320.525211 243.715497) rotate(-270) scale(0.07 -0.07)">
      <use xlink:href="#DejaVuSans-74"/>
      <use xlink:href="#DejaVuSans-72" transform="translate(39.208984 0)"/>
      <use xlink:href="#DejaVuSans-75" transform="translate(80.322266 0)"/>
      <use xlink:href="#DejaVuSans-65" transform="translate(143.701172 0)"/>
     </g>
    </g>
   </g>
   <g id="text_14">
    <g id="patch_46">
     <path d="M 340.923839 232.122117 
L 355.1248 223.425378 
Q 356.91566 222.328646 355.818928 220.537786 
L 352.280826 214.760397 
Q 351.184094 212.969537 349.393234 214.066269 
L 335.192274 222.763008 
Q 333.401414 223.85974 334.498145 225.6506 
L 338.036248 231.427989 
Q 339.132979 233.218849 340.923839 232.122117 
z
" clip-path="url(#p545b2bd6a4)" style="fill: #ffffff; stroke: #ffffff; stroke-linejoin: miter"/>
    </g>
    <g clip-path="url(#p545b2bd6a4)">
     <!-- false -->
     <g transform="translate(339.066821 229.089781) rotate(-31.483512) scale(0.07 -0.07)">
      <use xlink:href="#DejaVuSans-66"/>
      <use xlink:href="#DejaVuSans-61" transform="translate(35.205078 0)"/>
      <use xlink:href="#DejaVuSans-6c" transform="translate(96.484375 0)"/>
      <use xlink:href="#DejaVuSans-73" transform="translate(124.267578 0)"/>
      <use xlink:href="#DejaVuSans-65" transform="translate(176.367188 0)"/>
     </g>
    </g>
   </g>
   <g id="PathCollection_1">
    <defs>
     <path id="C0_0_f3193069aa" d="M 0 22.36068 
C 5.930122 22.36068 11.618159 20.004617 15.811388 15.811388 
C 20.004617 11.618159 22.36068 5.930122 22.36068 -0 
C 22.36068 -5.930122 20.004617 -11.618159 15.811388 -15.811388 
C 11.618159 -20.004617 5.930122 -22.36068 0 -22.36068 
C -5.930122 -22.36068 -11.618159 -20.004617 -15.811388 -15.811388 
C -20.004617 -11.618159 -22.36068 -5.930122 -22.36068 0 
C -22.36068 5.930122 -20.004617 11.618159 -15.811388 15.811388 
C -11.618159 20.004617 -5.930122 22.36068 0 22.36068 
z
"/>
    </defs>
    <g clip-path="url(#p545b2bd6a4)">
     <use xlink:href="#C0_0_f3193069aa" x="80.300826" y="515.054718" style="fill: #e3f2fd; stroke: #e3f2fd"/>
    </g>
    <g clip-path="url(#p545b2bd6a4)">
     <use xlink:href="#C0_0_f3193069aa" x="776.499174" y="515.054718" style="fill: #e3f2fd; stroke: #e3f2fd"/>
    </g>
    <g clip-path="url(#p545b2bd6a4)">
     <use xlink:href="#C0_0_f3193069aa" x="761.364427" y="487.248933" style="fill: #f3e5f5; stroke: #f3e5f5"/>
    </g>
    <g clip-path="url(#p545b2bd6a4)">
     <use xlink:href="#C0_0_f3193069aa" x="655.4212" y="403.831578" style="fill: #e8f5e9; stroke: #e8f5e9"/>
    </g>
    <g clip-path="url(#p545b2bd6a4)">
     <use xlink:href="#C0_0_f3193069aa" x="685.690693" y="348.220008" style="fill: #e8f5e9; stroke: #e8f5e9"/>
    </g>
    <g clip-path="url(#p545b2bd6a4)">
     <use xlink:href="#C0_0_f3193069aa" x="700.82544" y="376.025793" style="fill: #e8f5e9; stroke: #e8f5e9"/>
    </g>
    <g clip-path="url(#p545b2bd6a4)">
     <use xlink:href="#C0_0_f3193069aa" x="746.22968" y="459.443148" style="fill: #e8f5e9; stroke: #e8f5e9"/>
    </g>
    <g clip-path="url(#p545b2bd6a4)">
     <use xlink:href="#C0_0_f3193069aa" x="640.286453" y="431.637363" style="fill: #fff3e0; stroke: #fff3e0"/>
    </g>
    <g clip-path="url(#p545b2bd6a4)">
     <use xlink:href="#C0_0_f3193069aa" x="564.61272" y="292.608437" style="fill: #e8f5e9; stroke: #e8f5e9"/>
    </g>
    <g clip-path="url(#p545b2bd6a4)">
     <use xlink:href="#C0_0_f3193069aa" x="549.477973" y="320.414223" style="fill: #fff3e0; stroke: #fff3e0"/>
    </g>
    <g clip-path="url(#p545b2bd6a4)">
     <use xlink:href="#C0_0_f3193069aa" x="549.477973" y="348.220008" style="fill: #e3f2fd; stroke: #e3f2fd"/>
    </g>
    <g clip-path="url(#p545b2bd6a4)">
     <use xlink:href="#C0_0_f3193069aa" x="534.343227" y="376.025793" style="fill: #eceff1; stroke: #eceff1"/>
    </g>
    <g clip-path="url(#p545b2bd6a4)">
     <use xlink:href="#C0_0_f3193069aa" x="504.073733" y="403.831578" style="fill: #e3f2fd; stroke: #e3f2fd"/>
    </g>
    <g clip-path="url(#p545b2bd6a4)">
     <use xlink:href="#C0_0_f3193069aa" x="488.938987" y="376.025793" style="fill: #e3f2fd; stroke: #e3f2fd"/>
    </g>
    <g clip-path="url(#p545b2bd6a4)">
     <use xlink:href="#C0_0_f3193069aa" x="473.80424" y="348.220008" style="fill: #fff3e0; stroke: #fff3e0"/>
    </g>
    <g clip-path="url(#p545b2bd6a4)">
     <use xlink:href="#C0_0_f3193069aa" x="352.726267" y="125.773727" style="fill: #fff3e0; stroke: #fff3e0"/>
    </g>
    <g clip-path="url(#p545b2bd6a4)">
     <use xlink:href="#C0_0_f3193069aa" x="322.456773" y="70.162157" style="fill: #ffebee; stroke: #ffebee"/>
    </g>
    <g clip-path="url(#p545b2bd6a4)">
     <use xlink:href="#C0_0_f3193069aa" x="307.322027" y="97.967942" style="fill: #fff3e0; stroke: #fff3e0"/>
    </g>
    <g clip-path="url(#p545b2bd6a4)">
     <use xlink:href="#C0_0_f3193069aa" x="201.3788" y="320.414223" style="fill: #e3f2fd; stroke: #e3f2fd"/>
    </g>
    <g clip-path="url(#p545b2bd6a4)">
     <use xlink:href="#C0_0_f3193069aa" x="292.18728" y="292.608437" style="fill: #e3f2fd; stroke: #e3f2fd"/>
    </g>
    <g clip-path="url(#p545b2bd6a4)">
     <use xlink:href="#C0_0_f3193069aa" x="352.726267" y="153.579512" style="fill: #fff3e0; stroke: #fff3e0"/>
    </g>
    <g clip-path="url(#p545b2bd6a4)">
     <use xlink:href="#C0_0_f3193069aa" x="322.456773" y="236.996867" style="fill: #fff3e0; stroke: #fff3e0"/>
    </g>
    <g clip-path="url(#p545b2bd6a4)">
     <use xlink:href="#C0_0_f3193069aa" x="322.456773" y="264.802652" style="fill: #e3f2fd; stroke: #e3f2fd"/>
    </g>
    <g clip-path="url(#p545b2bd6a4)">
     <use xlink:href="#C0_0_f3193069aa" x="367.861013" y="209.191082" style="fill: #eceff1; stroke: #eceff1"/>
    </g>
    <g clip-path="url(#p545b2bd6a4)">
     <use xlink:href="#C0_0_f3193069aa" x="352.726267" y="181.385297" style="fill: #eceff1; stroke: #eceff1"/>
    </g>
   </g>
   <g id="text_15">
    <g clip-path="url(#p545b2bd6a4)">
     <!-- analyze_query -->
     <g transform="translate(51.276451 517.150968) scale(0.08 -0.08)">
      <defs>
       <path id="DejaVuSans-6e" d="M 3513 2113 
L 3513 0 
L 2938 0 
L 2938 2094 
Q 2938 2591 2744 2837 
Q 2550 3084 2163 3084 
Q 1697 3084 1428 2787 
Q 1159 2491 1159 1978 
L 1159 0 
L 581 0 
L 581 3500 
L 1159 3500 
L 1159 2956 
Q 1366 3272 1645 3428 
Q 1925 3584 2291 3584 
Q 2894 3584 3203 3211 
Q 3513 2838 3513 2113 
z
" transform="scale(0.015625)"/>
       <path id="DejaVuSans-79" d="M 2059 -325 
Q 1816 -950 1584 -1140 
Q 1353 -1331 966 -1331 
L 506 -1331 
L 506 -850 
L 844 -850 
Q 1081 -850 1212 -737 
Q 1344 -625 1503 -206 
L 1606 56 
L 191 3500 
L 800 3500 
L 1894 763 
L 2988 3500 
L 3597 3500 
L 2059 -325 
z
" transform="scale(0.015625)"/>
       <path id="DejaVuSans-7a" d="M 353 3500 
L 3084 3500 
L 3084 2975 
L 922 459 
L 3084 459 
L 3084 0 
L 275 0 
L 275 525 
L 2438 3041 
L 353 3041 
L 353 3500 
z
" transform="scale(0.015625)"/>
       <path id="DejaVuSans-5f" d="M 3263 -1063 
L 3263 -1509 
L -63 -1509 
L -63 -1063 
L 3263 -1063 
z
" transform="scale(0.015625)"/>
       <path id="DejaVuSans-71" d="M 947 1747 
Q 947 1113 1208 752 
Q 1469 391 1925 391 
Q 2381 391 2643 752 
Q 2906 1113 2906 1747 
Q 2906 2381 2643 2742 
Q 2381 3103 1925 3103 
Q 1469 3103 1208 2742 
Q 947 2381 947 1747 
z
M 2906 525 
Q 2725 213 2448 61 
Q 2172 -91 1784 -91 
Q 1150 -91 751 415 
Q 353 922 353 1747 
Q 353 2572 751 3078 
Q 1150 3584 1784 3584 
Q 2172 3584 2448 3432 
Q 2725 3281 2906 2969 
L 2906 3500 
L 3481 3500 
L 3481 -1331 
L 2906 -1331 
L 2906 525 
z
" transform="scale(0.015625)"/>
      </defs>
      <use xlink:href="#DejaVuSans-61"/>
      <use xlink:href="#DejaVuSans-6e" transform="translate(61.279297 0)"/>
      <use xlink:href="#DejaVuSans-61" transform="translate(124.658203 0)"/>
      <use xlink:href="#DejaVuSans-6c" transform="translate(185.9375 0)"/>
      <use xlink:href="#DejaVuSans-79" transform="translate(213.720703 0)"/>
      <use xlink:href="#DejaVuSans-7a" transform="translate(272.900391 0)"/>
      <use xlink:href="#DejaVuSans-65" transform="translate(325.390625 0)"/>
      <use xlink:href="#DejaVuSans-5f" transform="translate(386.914062 0)"/>
      <use xlink:href="#DejaVuSans-71" transform="translate(436.914062 0)"/>
      <use xlink:href="#DejaVuSans-75" transform="translate(500.390625 0)"/>
      <use xlink:href="#DejaVuSans-65" transform="translate(563.769531 0)"/>
      <use xlink:href="#DejaVuSans-72" transform="translate(625.292969 0)"/>
      <use xlink:href="#DejaVuSans-79" transform="translate(666.40625 0)"/>
     </g>
    </g>
   </g>
   <g id="text_16">
    <g clip-path="url(#p545b2bd6a4)">
     <!-- expand_query -->
     <g transform="translate(748.127924 517.150968) scale(0.08 -0.08)">
      <defs>
       <path id="DejaVuSans-78" d="M 3513 3500 
L 2247 1797 
L 3578 0 
L 2900 0 
L 1881 1375 
L 863 0 
L 184 0 
L 1544 1831 
L 300 3500 
L 978 3500 
L 1906 2253 
L 2834 3500 
L 3513 3500 
z
" transform="scale(0.015625)"/>
       <path id="DejaVuSans-64" d="M 2906 2969 
L 2906 4863 
L 3481 4863 
L 3481 0 
L 2906 0 
L 2906 525 
Q 2725 213 2448 61 
Q 2172 -91 1784 -91 
Q 1150 -91 751 415 
Q 353 922 353 1747 
Q 353 2572 751 3078 
Q 1150 3584 1784 3584 
Q 2172 3584 2448 3432 
Q 2725 3281 2906 2969 
z
M 947 1747 
Q 947 1113 1208 752 
Q 1469 391 1925 391 
Q 2381 391 2643 752 
Q 2906 1113 2906 1747 
Q 2906 2381 2643 2742 
Q 2381 3103 1925 3103 
Q 1469 3103 1208 2742 
Q 947 2381 947 1747 
z
" transform="scale(0.015625)"/>
      </defs>
      <use xlink:href="#DejaVuSans-65"/>
      <use xlink:href="#DejaVuSans-78" transform="translate(59.773438 0)"/>
      <use xlink:href="#DejaVuSans-70" transform="translate(118.953125 0)"/>
      <use xlink:href="#DejaVuSans-61" transform="translate(182.429688 0)"/>
      <use xlink:href="#DejaVuSans-6e" transform="translate(243.708984 0)"/>
      <use xlink:href="#DejaVuSans-64" transform="translate(307.087891 0)"/>
      <use xlink:href="#DejaVuSans-5f" transform="translate(370.564453 0)"/>
      <use xlink:href="#DejaVuSans-71" transform="translate(420.564453 0)"/>
      <use xlink:href="#DejaVuSans-75" transform="translate(484.041016 0)"/>
      <use xlink:href="#DejaVuSans-65" transform="translate(547.419922 0)"/>
      <use xlink:href="#DejaVuSans-72" transform="translate(608.943359 0)"/>
      <use xlink:href="#DejaVuSans-79" transform="translate(650.056641 0)"/>
     </g>
    </g>
   </g>
   <g id="text_17">
    <g clip-path="url(#p545b2bd6a4)">
     <!-- parallel_search -->
     <g transform="translate(731.198177 489.345183) scale(0.08 -0.08)">
      <use xlink:href="#DejaVuSans-70"/>
      <use xlink:href="#DejaVuSans-61" transform="translate(63.476562 0)"/>
      <use xlink:href="#DejaVuSans-72" transform="translate(124.755859 0)"/>
      <use xlink:href="#DejaVuSans-61" transform="translate(165.869141 0)"/>
      <use xlink:href="#DejaVuSans-6c" transform="translate(227.148438 0)"/>
      <use xlink:href="#DejaVuSans-6c" transform="translate(254.931641 0)"/>
      <use xlink:href="#DejaVuSans-65" transform="translate(282.714844 0)"/>
      <use xlink:href="#DejaVuSans-6c" transform="translate(344.238281 0)"/>
      <use xlink:href="#DejaVuSans-5f" transform="translate(372.021484 0)"/>
      <use xlink:href="#DejaVuSans-73" transform="translate(422.021484 0)"/>
      <use xlink:href="#DejaVuSans-65" transform="translate(474.121094 0)"/>
      <use xlink:href="#DejaVuSans-61" transform="translate(535.644531 0)"/>
      <use xlink:href="#DejaVuSans-72" transform="translate(596.923828 0)"/>
      <use xlink:href="#DejaVuSans-63" transform="translate(635.787109 0)"/>
      <use xlink:href="#DejaVuSans-68" transform="translate(690.767578 0)"/>
     </g>
    </g>
   </g>
   <g id="text_18">
    <g clip-path="url(#p545b2bd6a4)">
     <!-- dense_search -->
     <g transform="translate(628.055575 405.927828) scale(0.08 -0.08)">
      <use xlink:href="#DejaVuSans-64"/>
      <use xlink:href="#DejaVuSans-65" transform="translate(63.476562 0)"/>
      <use xlink:href="#DejaVuSans-6e" transform="translate(125 0)"/>
      <use xlink:href="#DejaVuSans-73" transform="translate(188.378906 0)"/>
      <use xlink:href="#DejaVuSans-65" transform="translate(240.478516 0)"/>
      <use xlink:href="#DejaVuSans-5f" transform="translate(302.001953 0)"/>
      <use xlink:href="#DejaVuSans-73" transform="translate(352.001953 0)"/>
      <use xlink:href="#DejaVuSans-65" transform="translate(404.101562 0)"/>
      <use xlink:href="#DejaVuSans-61" transform="translate(465.625 0)"/>
      <use xlink:href="#DejaVuSans-72" transform="translate(526.904297 0)"/>
      <use xlink:href="#DejaVuSans-63" transform="translate(565.767578 0)"/>
      <use xlink:href="#DejaVuSans-68" transform="translate(620.748047 0)"/>
     </g>
    </g>
   </g>
   <g id="text_19">
    <g clip-path="url(#p545b2bd6a4)">
     <!-- sparse_search -->
     <g transform="translate(657.141943 350.316258) scale(0.08 -0.08)">
      <use xlink:href="#DejaVuSans-73"/>
      <use xlink:href="#DejaVuSans-70" transform="translate(52.099609 0)"/>
      <use xlink:href="#DejaVuSans-61" transform="translate(115.576172 0)"/>
      <use xlink:href="#DejaVuSans-72" transform="translate(176.855469 0)"/>
      <use xlink:href="#DejaVuSans-73" transform="translate(217.96875 0)"/>
      <use xlink:href="#DejaVuSans-65" transform="translate(270.068359 0)"/>
      <use xlink:href="#DejaVuSans-5f" transform="translate(331.591797 0)"/>
      <use xlink:href="#DejaVuSans-73" transform="translate(381.591797 0)"/>
      <use xlink:href="#DejaVuSans-65" transform="translate(433.691406 0)"/>
      <use xlink:href="#DejaVuSans-61" transform="translate(495.214844 0)"/>
      <use xlink:href="#DejaVuSans-72" transform="translate(556.494141 0)"/>
      <use xlink:href="#DejaVuSans-63" transform="translate(595.357422 0)"/>
      <use xlink:href="#DejaVuSans-68" transform="translate(650.337891 0)"/>
     </g>
    </g>
   </g>
   <g id="text_20">
    <g clip-path="url(#p545b2bd6a4)">
     <!-- entity_search -->
     <g transform="translate(673.92919 378.122043) scale(0.08 -0.08)">
      <defs>
       <path id="DejaVuSans-69" d="M 603 3500 
L 1178 3500 
L 1178 0 
L 603 0 
L 603 3500 
z
M 603 4863 
L 1178 4863 
L 1178 4134 
L 603 4134 
L 603 4863 
z
" transform="scale(0.015625)"/>
      </defs>
      <use xlink:href="#DejaVuSans-65"/>
      <use xlink:href="#DejaVuSans-6e" transform="translate(61.523438 0)"/>
      <use xlink:href="#DejaVuSans-74" transform="translate(124.902344 0)"/>
      <use xlink:href="#DejaVuSans-69" transform="translate(164.111328 0)"/>
      <use xlink:href="#DejaVuSans-74" transform="translate(191.894531 0)"/>
      <use xlink:href="#DejaVuSans-79" transform="translate(231.103516 0)"/>
      <use xlink:href="#DejaVuSans-5f" transform="translate(290.283203 0)"/>
      <use xlink:href="#DejaVuSans-73" transform="translate(340.283203 0)"/>
      <use xlink:href="#DejaVuSans-65" transform="translate(392.382812 0)"/>
      <use xlink:href="#DejaVuSans-61" transform="translate(453.90625 0)"/>
      <use xlink:href="#DejaVuSans-72" transform="translate(515.185547 0)"/>
      <use xlink:href="#DejaVuSans-63" transform="translate(554.048828 0)"/>
      <use xlink:href="#DejaVuSans-68" transform="translate(609.029297 0)"/>
     </g>
    </g>
   </g>
   <g id="text_21">
    <g clip-path="url(#p545b2bd6a4)">
     <!-- merge_results -->
     <g transform="translate(717.89968 461.539398) scale(0.08 -0.08)">
      <defs>
       <path id="DejaVuSans-6d" d="M 3328 2828 
Q 3544 3216 3844 3400 
Q 4144 3584 4550 3584 
Q 5097 3584 5394 3201 
Q 5691 2819 5691 2113 
L 5691 0 
L 5113 0 
L 5113 2094 
Q 5113 2597 4934 2840 
Q 4756 3084 4391 3084 
Q 3944 3084 3684 2787 
Q 3425 2491 3425 1978 
L 3425 0 
L 2847 0 
L 2847 2094 
Q 2847 2600 2669 2842 
Q 2491 3084 2119 3084 
Q 1678 3084 1418 2786 
Q 1159 2488 1159 1978 
L 1159 0 
L 581 0 
L 581 3500 
L 1159 3500 
L 1159 2956 
Q 1356 3278 1631 3431 
Q 1906 3584 2284 3584 
Q 2666 3584 2933 3390 
Q 3200 3197 3328 2828 
z
" transform="scale(0.015625)"/>
       <path id="DejaVuSans-67" d="M 2906 1791 
Q 2906 2416 2648 2759 
Q 2391 3103 1925 3103 
Q 1463 3103 1205 2759 
Q 947 2416 947 1791 
Q 947 1169 1205 825 
Q 1463 481 1925 481 
Q 2391 481 2648 825 
Q 2906 1169 2906 1791 
z
M 3481 434 
Q 3481 -459 3084 -895 
Q 2688 -1331 1869 -1331 
Q 1566 -1331 1297 -1286 
Q 1028 -1241 775 -1147 
L 775 -588 
Q 1028 -725 1275 -790 
Q 1522 -856 1778 -856 
Q 2344 -856 2625 -561 
Q 2906 -266 2906 331 
L 2906 616 
Q 2728 306 2450 153 
Q 2172 0 1784 0 
Q 1141 0 747 490 
Q 353 981 353 1791 
Q 353 2603 747 3093 
Q 1141 3584 1784 3584 
Q 2172 3584 2450 3431 
Q 2728 3278 2906 2969 
L 2906 3500 
L 3481 3500 
L 3481 434 
z
" transform="scale(0.015625)"/>
      </defs>
      <use xlink:href="#DejaVuSans-6d"/>
      <use xlink:href="#DejaVuSans-65" transform="translate(97.412109 0)"/>
      <use xlink:href="#DejaVuSans-72" transform="translate(158.935547 0)"/>
      <use xlink:href="#DejaVuSans-67" transform="translate(198.298828 0)"/>
      <use xlink:href="#DejaVuSans-65" transform="translate(261.775391 0)"/>
      <use xlink:href="#DejaVuSans-5f" transform="translate(323.298828 0)"/>
      <use xlink:href="#DejaVuSans-72" transform="translate(373.298828 0)"/>
      <use xlink:href="#DejaVuSans-65" transform="translate(412.162109 0)"/>
      <use xlink:href="#DejaVuSans-73" transform="translate(473.685547 0)"/>
      <use xlink:href="#DejaVuSans-75" transform="translate(525.785156 0)"/>
      <use xlink:href="#DejaVuSans-6c" transform="translate(589.164062 0)"/>
      <use xlink:href="#DejaVuSans-74" transform="translate(616.947266 0)"/>
      <use xlink:href="#DejaVuSans-73" transform="translate(656.15625 0)"/>
     </g>
    </g>
   </g>
   <g id="text_22">
    <g clip-path="url(#p545b2bd6a4)">
     <!-- check_results -->
     <g transform="translate(613.177703 433.733613) scale(0.08 -0.08)">
      <defs>
       <path id="DejaVuSans-6b" d="M 581 4863 
L 1159 4863 
L 1159 1991 
L 2875 3500 
L 3609 3500 
L 1753 1863 
L 3688 0 
L 2938 0 
L 1159 1709 
L 1159 0 
L 581 0 
L 581 4863 
z
" transform="scale(0.015625)"/>
      </defs>
      <use xlink:href="#DejaVuSans-63"/>
      <use xlink:href="#DejaVuSans-68" transform="translate(54.980469 0)"/>
      <use xlink:href="#DejaVuSans-65" transform="translate(118.359375 0)"/>
      <use xlink:href="#DejaVuSans-63" transform="translate(179.882812 0)"/>
      <use xlink:href="#DejaVuSans-6b" transform="translate(234.863281 0)"/>
      <use xlink:href="#DejaVuSans-5f" transform="translate(292.773438 0)"/>
      <use xlink:href="#DejaVuSans-72" transform="translate(342.773438 0)"/>
      <use xlink:href="#DejaVuSans-65" transform="translate(381.636719 0)"/>
      <use xlink:href="#DejaVuSans-73" transform="translate(443.160156 0)"/>
      <use xlink:href="#DejaVuSans-75" transform="translate(495.259766 0)"/>
      <use xlink:href="#DejaVuSans-6c" transform="translate(558.638672 0)"/>
      <use xlink:href="#DejaVuSans-74" transform="translate(586.421875 0)"/>
      <use xlink:href="#DejaVuSans-73" transform="translate(625.630859 0)"/>
     </g>
    </g>
   </g>
   <g id="text_23">
    <g clip-path="url(#p545b2bd6a4)">
     <!-- fallback_search -->
     <g transform="translate(533.739595 294.704687) scale(0.08 -0.08)">
      <defs>
       <path id="DejaVuSans-62" d="M 3116 1747 
Q 3116 2381 2855 2742 
Q 2594 3103 2138 3103 
Q 1681 3103 1420 2742 
Q 1159 2381 1159 1747 
Q 1159 1113 1420 752 
Q 1681 391 2138 391 
Q 2594 391 2855 752 
Q 3116 1113 3116 1747 
z
M 1159 2969 
Q 1341 3281 1617 3432 
Q 1894 3584 2278 3584 
Q 2916 3584 3314 3078 
Q 3713 2572 3713 1747 
Q 3713 922 3314 415 
Q 2916 -91 2278 -91 
Q 1894 -91 1617 61 
Q 1341 213 1159 525 
L 1159 0 
L 581 0 
L 581 4863 
L 1159 4863 
L 1159 2969 
z
" transform="scale(0.015625)"/>
      </defs>
      <use xlink:href="#DejaVuSans-66"/>
      <use xlink:href="#DejaVuSans-61" transform="translate(35.205078 0)"/>
      <use xlink:href="#DejaVuSans-6c" transform="translate(96.484375 0)"/>
      <use xlink:href="#DejaVuSans-6c" transform="translate(124.267578 0)"/>
      <use xlink:href="#DejaVuSans-62" transform="translate(152.050781 0)"/>
      <use xlink:href="#DejaVuSans-61" transform="translate(215.527344 0)"/>
      <use xlink:href="#DejaVuSans-63" transform="translate(276.806641 0)"/>
      <use xlink:href="#DejaVuSans-6b" transform="translate(331.787109 0)"/>
      <use xlink:href="#DejaVuSans-5f" transform="translate(389.697266 0)"/>
      <use xlink:href="#DejaVuSans-73" transform="translate(439.697266 0)"/>
      <use xlink:href="#DejaVuSans-65" transform="translate(491.796875 0)"/>
      <use xlink:href="#DejaVuSans-61" transform="translate(553.320312 0)"/>
      <use xlink:href="#DejaVuSans-72" transform="translate(614.599609 0)"/>
      <use xlink:href="#DejaVuSans-63" transform="translate(653.462891 0)"/>
      <use xlink:href="#DejaVuSans-68" transform="translate(708.443359 0)"/>
     </g>
    </g>
   </g>
   <g id="text_24">
    <g clip-path="url(#p545b2bd6a4)">
     <!-- check_fallback -->
     <g transform="translate(520.178598 322.510473) scale(0.08 -0.08)">
      <use xlink:href="#DejaVuSans-63"/>
      <use xlink:href="#DejaVuSans-68" transform="translate(54.980469 0)"/>
      <use xlink:href="#DejaVuSans-65" transform="translate(118.359375 0)"/>
      <use xlink:href="#DejaVuSans-63" transform="translate(179.882812 0)"/>
      <use xlink:href="#DejaVuSans-6b" transform="translate(234.863281 0)"/>
      <use xlink:href="#DejaVuSans-5f" transform="translate(292.773438 0)"/>
      <use xlink:href="#DejaVuSans-66" transform="translate(342.773438 0)"/>
      <use xlink:href="#DejaVuSans-61" transform="translate(377.978516 0)"/>
      <use xlink:href="#DejaVuSans-6c" transform="translate(439.257812 0)"/>
      <use xlink:href="#DejaVuSans-6c" transform="translate(467.041016 0)"/>
      <use xlink:href="#DejaVuSans-62" transform="translate(494.824219 0)"/>
      <use xlink:href="#DejaVuSans-61" transform="translate(558.300781 0)"/>
      <use xlink:href="#DejaVuSans-63" transform="translate(619.580078 0)"/>
      <use xlink:href="#DejaVuSans-6b" transform="translate(674.560547 0)"/>
     </g>
    </g>
   </g>
   <g id="text_25">
    <g clip-path="url(#p545b2bd6a4)">
     <!-- no_context_answer -->
     <g transform="translate(510.971723 350.205008) scale(0.08 -0.08)">
      <defs>
       <path id="DejaVuSans-77" d="M 269 3500 
L 844 3500 
L 1563 769 
L 2278 3500 
L 2956 3500 
L 3675 769 
L 4391 3500 
L 4966 3500 
L 4050 0 
L 3372 0 
L 2619 2869 
L 1863 0 
L 1184 0 
L 269 3500 
z
" transform="scale(0.015625)"/>
      </defs>
      <use xlink:href="#DejaVuSans-6e"/>
      <use xlink:href="#DejaVuSans-6f" transform="translate(63.378906 0)"/>
      <use xlink:href="#DejaVuSans-5f" transform="translate(124.560547 0)"/>
      <use xlink:href="#DejaVuSans-63" transform="translate(174.560547 0)"/>
      <use xlink:href="#DejaVuSans-6f" transform="translate(229.541016 0)"/>
      <use xlink:href="#DejaVuSans-6e" transform="translate(290.722656 0)"/>
      <use xlink:href="#DejaVuSans-74" transform="translate(354.101562 0)"/>
      <use xlink:href="#DejaVuSans-65" transform="translate(393.310547 0)"/>
      <use xlink:href="#DejaVuSans-78" transform="translate(453.083984 0)"/>
      <use xlink:href="#DejaVuSans-74" transform="translate(512.263672 0)"/>
      <use xlink:href="#DejaVuSans-5f" transform="translate(551.472656 0)"/>
      <use xlink:href="#DejaVuSans-61" transform="translate(601.472656 0)"/>
      <use xlink:href="#DejaVuSans-6e" transform="translate(662.751953 0)"/>
      <use xlink:href="#DejaVuSans-73" transform="translate(726.130859 0)"/>
      <use xlink:href="#DejaVuSans-77" transform="translate(778.230469 0)"/>
      <use xlink:href="#DejaVuSans-65" transform="translate(860.017578 0)"/>
      <use xlink:href="#DejaVuSans-72" transform="translate(921.541016 0)"/>
     </g>
    </g>
   </g>
   <g id="text_26">
    <g clip-path="url(#p545b2bd6a4)">
     <!-- complete_no_context -->
     <g transform="translate(491.599477 378.122043) scale(0.08 -0.08)">
      <use xlink:href="#DejaVuSans-63"/>
      <use xlink:href="#DejaVuSans-6f" transform="translate(54.980469 0)"/>
      <use xlink:href="#DejaVuSans-6d" transform="translate(116.162109 0)"/>
      <use xlink:href="#DejaVuSans-70" transform="translate(213.574219 0)"/>
      <use xlink:href="#DejaVuSans-6c" transform="translate(277.050781 0)"/>
      <use xlink:href="#DejaVuSans-65" transform="translate(304.833984 0)"/>
      <use xlink:href="#DejaVuSans-74" transform="translate(366.357422 0)"/>
      <use xlink:href="#DejaVuSans-65" transform="translate(405.566406 0)"/>
      <use xlink:href="#DejaVuSans-5f" transform="translate(467.089844 0)"/>
      <use xlink:href="#DejaVuSans-6e" transform="translate(517.089844 0)"/>
      <use xlink:href="#DejaVuSans-6f" transform="translate(580.46875 0)"/>
      <use xlink:href="#DejaVuSans-5f" transform="translate(641.650391 0)"/>
      <use xlink:href="#DejaVuSans-63" transform="translate(691.650391 0)"/>
      <use xlink:href="#DejaVuSans-6f" transform="translate(746.630859 0)"/>
      <use xlink:href="#DejaVuSans-6e" transform="translate(807.8125 0)"/>
      <use xlink:href="#DejaVuSans-74" transform="translate(871.191406 0)"/>
      <use xlink:href="#DejaVuSans-65" transform="translate(910.400391 0)"/>
      <use xlink:href="#DejaVuSans-78" transform="translate(970.173828 0)"/>
      <use xlink:href="#DejaVuSans-74" transform="translate(1029.353516 0)"/>
     </g>
    </g>
   </g>
   <g id="text_27">
    <g clip-path="url(#p545b2bd6a4)">
     <!-- rerank -->
     <g transform="translate(491.111233 406.039078) scale(0.08 -0.08)">
      <use xlink:href="#DejaVuSans-72"/>
      <use xlink:href="#DejaVuSans-65" transform="translate(38.863281 0)"/>
      <use xlink:href="#DejaVuSans-72" transform="translate(100.386719 0)"/>
      <use xlink:href="#DejaVuSans-61" transform="translate(141.5 0)"/>
      <use xlink:href="#DejaVuSans-6e" transform="translate(202.779297 0)"/>
      <use xlink:href="#DejaVuSans-6b" transform="translate(266.158203 0)"/>
     </g>
    </g>
   </g>
   <g id="text_28">
    <g clip-path="url(#p545b2bd6a4)">
     <!-- check_coverage -->
     <g transform="translate(456.655862 378.122043) scale(0.08 -0.08)">
      <defs>
       <path id="DejaVuSans-76" d="M 191 3500 
L 800 3500 
L 1894 563 
L 2988 3500 
L 3597 3500 
L 2284 0 
L 1503 0 
L 191 3500 
z
" transform="scale(0.015625)"/>
      </defs>
      <use xlink:href="#DejaVuSans-63"/>
      <use xlink:href="#DejaVuSans-68" transform="translate(54.980469 0)"/>
      <use xlink:href="#DejaVuSans-65" transform="translate(118.359375 0)"/>
      <use xlink:href="#DejaVuSans-63" transform="translate(179.882812 0)"/>
      <use xlink:href="#DejaVuSans-6b" transform="translate(234.863281 0)"/>
      <use xlink:href="#DejaVuSans-5f" transform="translate(292.773438 0)"/>
      <use xlink:href="#DejaVuSans-63" transform="translate(342.773438 0)"/>
      <use xlink:href="#DejaVuSans-6f" transform="translate(397.753906 0)"/>
      <use xlink:href="#DejaVuSans-76" transform="translate(458.935547 0)"/>
      <use xlink:href="#DejaVuSans-65" transform="translate(518.115234 0)"/>
      <use xlink:href="#DejaVuSans-72" transform="translate(579.638672 0)"/>
      <use xlink:href="#DejaVuSans-61" transform="translate(620.751953 0)"/>
      <use xlink:href="#DejaVuSans-67" transform="translate(682.03125 0)"/>
      <use xlink:href="#DejaVuSans-65" transform="translate(745.507812 0)"/>
     </g>
    </g>
   </g>
   <g id="text_29">
    <g clip-path="url(#p545b2bd6a4)">
     <!-- coverage_decision -->
     <g transform="translate(436.743615 350.316258) scale(0.08 -0.08)">
      <use xlink:href="#DejaVuSans-63"/>
      <use xlink:href="#DejaVuSans-6f" transform="translate(54.980469 0)"/>
      <use xlink:href="#DejaVuSans-76" transform="translate(116.162109 0)"/>
      <use xlink:href="#DejaVuSans-65" transform="translate(175.341797 0)"/>
      <use xlink:href="#DejaVuSans-72" transform="translate(236.865234 0)"/>
      <use xlink:href="#DejaVuSans-61" transform="translate(277.978516 0)"/>
      <use xlink:href="#DejaVuSans-67" transform="translate(339.257812 0)"/>
      <use xlink:href="#DejaVuSans-65" transform="translate(402.734375 0)"/>
      <use xlink:href="#DejaVuSans-5f" transform="translate(464.257812 0)"/>
      <use xlink:href="#DejaVuSans-64" transform="translate(514.257812 0)"/>
      <use xlink:href="#DejaVuSans-65" transform="translate(577.734375 0)"/>
      <use xlink:href="#DejaVuSans-63" transform="translate(639.257812 0)"/>
      <use xlink:href="#DejaVuSans-69" transform="translate(694.238281 0)"/>
      <use xlink:href="#DejaVuSans-73" transform="translate(722.021484 0)"/>
      <use xlink:href="#DejaVuSans-69" transform="translate(774.121094 0)"/>
      <use xlink:href="#DejaVuSans-6f" transform="translate(801.904297 0)"/>
      <use xlink:href="#DejaVuSans-6e" transform="translate(863.085938 0)"/>
     </g>
    </g>
   </g>
   <g id="text_30">
    <g clip-path="url(#p545b2bd6a4)">
     <!-- handle_partial -->
     <g transform="translate(324.216267 127.869977) scale(0.08 -0.08)">
      <use xlink:href="#DejaVuSans-68"/>
      <use xlink:href="#DejaVuSans-61" transform="translate(63.378906 0)"/>
      <use xlink:href="#DejaVuSans-6e" transform="translate(124.658203 0)"/>
      <use xlink:href="#DejaVuSans-64" transform="translate(188.037109 0)"/>
      <use xlink:href="#DejaVuSans-6c" transform="translate(251.513672 0)"/>
      <use xlink:href="#DejaVuSans-65" transform="translate(279.296875 0)"/>
      <use xlink:href="#DejaVuSans-5f" transform="translate(340.820312 0)"/>
      <use xlink:href="#DejaVuSans-70" transform="translate(390.820312 0)"/>
      <use xlink:href="#DejaVuSans-61" transform="translate(454.296875 0)"/>
      <use xlink:href="#DejaVuSans-72" transform="translate(515.576172 0)"/>
      <use xlink:href="#DejaVuSans-74" transform="translate(556.689453 0)"/>
      <use xlink:href="#DejaVuSans-69" transform="translate(595.898438 0)"/>
      <use xlink:href="#DejaVuSans-61" transform="translate(623.681641 0)"/>
      <use xlink:href="#DejaVuSans-6c" transform="translate(684.960938 0)"/>
     </g>
    </g>
   </g>
   <g id="text_31">
    <g clip-path="url(#p545b2bd6a4)">
     <!-- request_clarification -->
     <g transform="translate(281.904273 72.258407) scale(0.08 -0.08)">
      <use xlink:href="#DejaVuSans-72"/>
      <use xlink:href="#DejaVuSans-65" transform="translate(38.863281 0)"/>
      <use xlink:href="#DejaVuSans-71" transform="translate(100.386719 0)"/>
      <use xlink:href="#DejaVuSans-75" transform="translate(163.863281 0)"/>
      <use xlink:href="#DejaVuSans-65" transform="translate(227.242188 0)"/>
      <use xlink:href="#DejaVuSans-73" transform="translate(288.765625 0)"/>
      <use xlink:href="#DejaVuSans-74" transform="translate(340.865234 0)"/>
      <use xlink:href="#DejaVuSans-5f" transform="translate(380.074219 0)"/>
      <use xlink:href="#DejaVuSans-63" transform="translate(430.074219 0)"/>
      <use xlink:href="#DejaVuSans-6c" transform="translate(485.054688 0)"/>
      <use xlink:href="#DejaVuSans-61" transform="translate(512.837891 0)"/>
      <use xlink:href="#DejaVuSans-72" transform="translate(574.117188 0)"/>
      <use xlink:href="#DejaVuSans-69" transform="translate(615.230469 0)"/>
      <use xlink:href="#DejaVuSans-66" transform="translate(643.013672 0)"/>
      <use xlink:href="#DejaVuSans-69" transform="translate(678.21875 0)"/>
      <use xlink:href="#DejaVuSans-63" transform="translate(706.001953 0)"/>
      <use xlink:href="#DejaVuSans-61" transform="translate(760.982422 0)"/>
      <use xlink:href="#DejaVuSans-74" transform="translate(822.261719 0)"/>
      <use xlink:href="#DejaVuSans-69" transform="translate(861.470703 0)"/>
      <use xlink:href="#DejaVuSans-6f" transform="translate(889.253906 0)"/>
      <use xlink:href="#DejaVuSans-6e" transform="translate(950.435547 0)"/>
     </g>
    </g>
   </g>
   <g id="text_32">
    <g clip-path="url(#p545b2bd6a4)">
     <!-- handle_clarification -->
     <g transform="translate(268.339527 100.064192) scale(0.08 -0.08)">
      <use xlink:href="#DejaVuSans-68"/>
      <use xlink:href="#DejaVuSans-61" transform="translate(63.378906 0)"/>
      <use xlink:href="#DejaVuSans-6e" transform="translate(124.658203 0)"/>
      <use xlink:href="#DejaVuSans-64" transform="translate(188.037109 0)"/>
      <use xlink:href="#DejaVuSans-6c" transform="translate(251.513672 0)"/>
      <use xlink:href="#DejaVuSans-65" transform="translate(279.296875 0)"/>
      <use xlink:href="#DejaVuSans-5f" transform="translate(340.820312 0)"/>
      <use xlink:href="#DejaVuSans-63" transform="translate(390.820312 0)"/>
      <use xlink:href="#DejaVuSans-6c" transform="translate(445.800781 0)"/>
      <use xlink:href="#DejaVuSans-61" transform="translate(473.583984 0)"/>
      <use xlink:href="#DejaVuSans-72" transform="translate(534.863281 0)"/>
      <use xlink:href="#DejaVuSans-69" transform="translate(575.976562 0)"/>
      <use xlink:href="#DejaVuSans-66" transform="translate(603.759766 0)"/>
      <use xlink:href="#DejaVuSans-69" transform="translate(638.964844 0)"/>
      <use xlink:href="#DejaVuSans-63" transform="translate(666.748047 0)"/>
      <use xlink:href="#DejaVuSans-61" transform="translate(721.728516 0)"/>
      <use xlink:href="#DejaVuSans-74" transform="translate(783.007812 0)"/>
      <use xlink:href="#DejaVuSans-69" transform="translate(822.216797 0)"/>
      <use xlink:href="#DejaVuSans-6f" transform="translate(850 0)"/>
      <use xlink:href="#DejaVuSans-6e" transform="translate(911.181641 0)"/>
     </g>
    </g>
   </g>
   <g id="text_33">
    <g clip-path="url(#p545b2bd6a4)">
     <!-- generate_answer -->
     <g transform="translate(166.81005 322.399223) scale(0.08 -0.08)">
      <use xlink:href="#DejaVuSans-67"/>
      <use xlink:href="#DejaVuSans-65" transform="translate(63.476562 0)"/>
      <use xlink:href="#DejaVuSans-6e" transform="translate(125 0)"/>
      <use xlink:href="#DejaVuSans-65" transform="translate(188.378906 0)"/>
      <use xlink:href="#DejaVuSans-72" transform="translate(249.902344 0)"/>
      <use xlink:href="#DejaVuSans-61" transform="translate(291.015625 0)"/>
      <use xlink:href="#DejaVuSans-74" transform="translate(352.294922 0)"/>
      <use xlink:href="#DejaVuSans-65" transform="translate(391.503906 0)"/>
      <use xlink:href="#DejaVuSans-5f" transform="translate(453.027344 0)"/>
      <use xlink:href="#DejaVuSans-61" transform="translate(503.027344 0)"/>
      <use xlink:href="#DejaVuSans-6e" transform="translate(564.306641 0)"/>
      <use xlink:href="#DejaVuSans-73" transform="translate(627.685547 0)"/>
      <use xlink:href="#DejaVuSans-77" transform="translate(679.785156 0)"/>
      <use xlink:href="#DejaVuSans-65" transform="translate(761.572266 0)"/>
      <use xlink:href="#DejaVuSans-72" transform="translate(823.095703 0)"/>
     </g>
    </g>
   </g>
   <g id="text_34">
    <g clip-path="url(#p545b2bd6a4)">
     <!-- verify_answer -->
     <g transform="translate(264.450405 294.704687) scale(0.08 -0.08)">
      <use xlink:href="#DejaVuSans-76"/>
      <use xlink:href="#DejaVuSans-65" transform="translate(59.179688 0)"/>
      <use xlink:href="#DejaVuSans-72" transform="translate(120.703125 0)"/>
      <use xlink:href="#DejaVuSans-69" transform="translate(161.816406 0)"/>
      <use xlink:href="#DejaVuSans-66" transform="translate(189.599609 0)"/>
      <use xlink:href="#DejaVuSans-79" transform="translate(223.054688 0)"/>
      <use xlink:href="#DejaVuSans-5f" transform="translate(282.234375 0)"/>
      <use xlink:href="#DejaVuSans-61" transform="translate(332.234375 0)"/>
      <use xlink:href="#DejaVuSans-6e" transform="translate(393.513672 0)"/>
      <use xlink:href="#DejaVuSans-73" transform="translate(456.892578 0)"/>
      <use xlink:href="#DejaVuSans-77" transform="translate(508.992188 0)"/>
      <use xlink:href="#DejaVuSans-65" transform="translate(590.779297 0)"/>
      <use xlink:href="#DejaVuSans-72" transform="translate(652.302734 0)"/>
     </g>
    </g>
   </g>
   <g id="text_35">
    <g clip-path="url(#p545b2bd6a4)">
     <!-- check_verification -->
     <g transform="translate(316.598767 155.675762) scale(0.08 -0.08)">
      <use xlink:href="#DejaVuSans-63"/>
      <use xlink:href="#DejaVuSans-68" transform="translate(54.980469 0)"/>
      <use xlink:href="#DejaVuSans-65" transform="translate(118.359375 0)"/>
      <use xlink:href="#DejaVuSans-63" transform="translate(179.882812 0)"/>
      <use xlink:href="#DejaVuSans-6b" transform="translate(234.863281 0)"/>
      <use xlink:href="#DejaVuSans-5f" transform="translate(292.773438 0)"/>
      <use xlink:href="#DejaVuSans-76" transform="translate(342.773438 0)"/>
      <use xlink:href="#DejaVuSans-65" transform="translate(401.953125 0)"/>
      <use xlink:href="#DejaVuSans-72" transform="translate(463.476562 0)"/>
      <use xlink:href="#DejaVuSans-69" transform="translate(504.589844 0)"/>
      <use xlink:href="#DejaVuSans-66" transform="translate(532.373047 0)"/>
      <use xlink:href="#DejaVuSans-69" transform="translate(567.578125 0)"/>
      <use xlink:href="#DejaVuSans-63" transform="translate(595.361328 0)"/>
      <use xlink:href="#DejaVuSans-61" transform="translate(650.341797 0)"/>
      <use xlink:href="#DejaVuSans-74" transform="translate(711.621094 0)"/>
      <use xlink:href="#DejaVuSans-69" transform="translate(750.830078 0)"/>
      <use xlink:href="#DejaVuSans-6f" transform="translate(778.613281 0)"/>
      <use xlink:href="#DejaVuSans-6e" transform="translate(839.794922 0)"/>
     </g>
    </g>
   </g>
   <g id="text_36">
    <g clip-path="url(#p545b2bd6a4)">
     <!-- revise_answer -->
     <g transform="translate(293.970523 239.093117) scale(0.08 -0.08)">
      <use xlink:href="#DejaVuSans-72"/>
      <use xlink:href="#DejaVuSans-65" transform="translate(38.863281 0)"/>
      <use xlink:href="#DejaVuSans-76" transform="translate(100.386719 0)"/>
      <use xlink:href="#DejaVuSans-69" transform="translate(159.566406 0)"/>
      <use xlink:href="#DejaVuSans-73" transform="translate(187.349609 0)"/>
      <use xlink:href="#DejaVuSans-65" transform="translate(239.449219 0)"/>
      <use xlink:href="#DejaVuSans-5f" transform="translate(300.972656 0)"/>
      <use xlink:href="#DejaVuSans-61" transform="translate(350.972656 0)"/>
      <use xlink:href="#DejaVuSans-6e" transform="translate(412.251953 0)"/>
      <use xlink:href="#DejaVuSans-73" transform="translate(475.630859 0)"/>
      <use xlink:href="#DejaVuSans-77" transform="translate(527.730469 0)"/>
      <use xlink:href="#DejaVuSans-65" transform="translate(609.517578 0)"/>
      <use xlink:href="#DejaVuSans-72" transform="translate(671.041016 0)"/>
     </g>
    </g>
   </g>
   <g id="text_37">
    <g clip-path="url(#p545b2bd6a4)">
     <!-- apply_revision -->
     <g transform="translate(293.776148 266.898902) scale(0.08 -0.08)">
      <use xlink:href="#DejaVuSans-61"/>
      <use xlink:href="#DejaVuSans-70" transform="translate(61.279297 0)"/>
      <use xlink:href="#DejaVuSans-70" transform="translate(124.755859 0)"/>
      <use xlink:href="#DejaVuSans-6c" transform="translate(188.232422 0)"/>
      <use xlink:href="#DejaVuSans-79" transform="translate(216.015625 0)"/>
      <use xlink:href="#DejaVuSans-5f" transform="translate(275.195312 0)"/>
      <use xlink:href="#DejaVuSans-72" transform="translate(325.195312 0)"/>
      <use xlink:href="#DejaVuSans-65" transform="translate(364.058594 0)"/>
      <use xlink:href="#DejaVuSans-76" transform="translate(425.582031 0)"/>
      <use xlink:href="#DejaVuSans-69" transform="translate(484.761719 0)"/>
      <use xlink:href="#DejaVuSans-73" transform="translate(512.544922 0)"/>
      <use xlink:href="#DejaVuSans-69" transform="translate(564.644531 0)"/>
      <use xlink:href="#DejaVuSans-6f" transform="translate(592.427734 0)"/>
      <use xlink:href="#DejaVuSans-6e" transform="translate(653.609375 0)"/>
     </g>
    </g>
   </g>
   <g id="text_38">
    <g clip-path="url(#p545b2bd6a4)">
     <!-- format_response -->
     <g transform="translate(334.349138 211.287332) scale(0.08 -0.08)">
      <use xlink:href="#DejaVuSans-66"/>
      <use xlink:href="#DejaVuSans-6f" transform="translate(35.205078 0)"/>
      <use xlink:href="#DejaVuSans-72" transform="translate(96.386719 0)"/>
      <use xlink:href="#DejaVuSans-6d" transform="translate(135.75 0)"/>
      <use xlink:href="#DejaVuSans-61" transform="translate(233.162109 0)"/>
      <use xlink:href="#DejaVuSans-74" transform="translate(294.441406 0)"/>
      <use xlink:href="#DejaVuSans-5f" transform="translate(333.650391 0)"/>
      <use xlink:href="#DejaVuSans-72" transform="translate(383.650391 0)"/>
      <use xlink:href="#DejaVuSans-65" transform="translate(422.513672 0)"/>
      <use xlink:href="#DejaVuSans-73" transform="translate(484.037109 0)"/>
      <use xlink:href="#DejaVuSans-70" transform="translate(536.136719 0)"/>
      <use xlink:href="#DejaVuSans-6f" transform="translate(599.613281 0)"/>
      <use xlink:href="#DejaVuSans-6e" transform="translate(660.794922 0)"/>
      <use xlink:href="#DejaVuSans-73" transform="translate(724.173828 0)"/>
      <use xlink:href="#DejaVuSans-65" transform="translate(776.273438 0)"/>
     </g>
    </g>
   </g>
   <g id="text_39">
    <g clip-path="url(#p545b2bd6a4)">
     <!-- complete -->
     <g transform="translate(334.041892 183.592797) scale(0.08 -0.08)">
      <use xlink:href="#DejaVuSans-63"/>
      <use xlink:href="#DejaVuSans-6f" transform="translate(54.980469 0)"/>
      <use xlink:href="#DejaVuSans-6d" transform="translate(116.162109 0)"/>
      <use xlink:href="#DejaVuSans-70" transform="translate(213.574219 0)"/>
      <use xlink:href="#DejaVuSans-6c" transform="translate(277.050781 0)"/>
      <use xlink:href="#DejaVuSans-65" transform="translate(304.833984 0)"/>
      <use xlink:href="#DejaVuSans-74" transform="translate(366.357422 0)"/>
      <use xlink:href="#DejaVuSans-65" transform="translate(405.566406 0)"/>
     </g>
    </g>
   </g>
   <g id="text_40">
    <!-- rag_query -->
    <g transform="translate(388.957187 17.448437) scale(0.14 -0.14)">
     <defs>
      <path id="DejaVuSans-Bold-72" d="M 3138 2547 
Q 2991 2616 2845 2648 
Q 2700 2681 2553 2681 
Q 2122 2681 1889 2404 
Q 1656 2128 1656 1613 
L 1656 0 
L 538 0 
L 538 3500 
L 1656 3500 
L 1656 2925 
Q 1872 3269 2151 3426 
Q 2431 3584 2822 3584 
Q 2878 3584 2943 3579 
Q 3009 3575 3134 3559 
L 3138 2547 
z
" transform="scale(0.015625)"/>
      <path id="DejaVuSans-Bold-61" d="M 2106 1575 
Q 1756 1575 1579 1456 
Q 1403 1338 1403 1106 
Q 1403 894 1545 773 
Q 1688 653 1941 653 
Q 2256 653 2472 879 
Q 2688 1106 2688 1447 
L 2688 1575 
L 2106 1575 
z
M 3816 1997 
L 3816 0 
L 2688 0 
L 2688 519 
Q 2463 200 2181 54 
Q 1900 -91 1497 -91 
Q 953 -91 614 226 
Q 275 544 275 1050 
Q 275 1666 698 1953 
Q 1122 2241 2028 2241 
L 2688 2241 
L 2688 2328 
Q 2688 2594 2478 2717 
Q 2269 2841 1825 2841 
Q 1466 2841 1156 2769 
Q 847 2697 581 2553 
L 581 3406 
Q 941 3494 1303 3539 
Q 1666 3584 2028 3584 
Q 2975 3584 3395 3211 
Q 3816 2838 3816 1997 
z
" transform="scale(0.015625)"/>
      <path id="DejaVuSans-Bold-67" d="M 2919 594 
Q 2688 288 2409 144 
Q 2131 0 1766 0 
Q 1125 0 706 504 
Q 288 1009 288 1791 
Q 288 2575 706 3076 
Q 1125 3578 1766 3578 
Q 2131 3578 2409 3434 
Q 2688 3291 2919 2981 
L 2919 3500 
L 4044 3500 
L 4044 353 
Q 4044 -491 3511 -936 
Q 2978 -1381 1966 -1381 
Q 1638 -1381 1331 -1331 
Q 1025 -1281 716 -1178 
L 716 -306 
Q 1009 -475 1290 -558 
Q 1572 -641 1856 -641 
Q 2406 -641 2662 -400 
Q 2919 -159 2919 353 
L 2919 594 
z
M 2181 2772 
Q 1834 2772 1640 2515 
Q 1447 2259 1447 1791 
Q 1447 1309 1634 1061 
Q 1822 813 2181 813 
Q 2531 813 2725 1069 
Q 2919 1325 2919 1791 
Q 2919 2259 2725 2515 
Q 2531 2772 2181 2772 
z
" transform="scale(0.015625)"/>
      <path id="DejaVuSans-Bold-5f" d="M 3200 -916 
L 3200 -1509 
L 0 -1509 
L 0 -916 
L 3200 -916 
z
" transform="scale(0.015625)"/>
      <path id="DejaVuSans-Bold-71" d="M 2181 2772 
Q 1825 2772 1636 2509 
Q 1447 2247 1447 1747 
Q 1447 1247 1636 984 
Q 1825 722 2181 722 
Q 2541 722 2730 984 
Q 2919 1247 2919 1747 
Q 2919 2247 2730 2509 
Q 2541 2772 2181 2772 
z
M 2919 506 
Q 2688 197 2409 53 
Q 2131 -91 1766 -91 
Q 1119 -91 703 423 
Q 288 938 288 1747 
Q 288 2556 703 3067 
Q 1119 3578 1766 3578 
Q 2131 3578 2409 3434 
Q 2688 3291 2919 2981 
L 2919 3500 
L 4044 3500 
L 4044 -1331 
L 2919 -1331 
L 2919 506 
z
" transform="scale(0.015625)"/>
      <path id="DejaVuSans-Bold-75" d="M 500 1363 
L 500 3500 
L 1625 3500 
L 1625 3150 
Q 1625 2866 1622 2436 
Q 1619 2006 1619 1863 
Q 1619 1441 1641 1255 
Q 1663 1069 1716 984 
Q 1784 875 1895 815 
Q 2006 756 2150 756 
Q 2500 756 2700 1025 
Q 2900 1294 2900 1772 
L 2900 3500 
L 4019 3500 
L 4019 0 
L 2900 0 
L 2900 506 
Q 2647 200 2364 54 
Q 2081 -91 1741 -91 
Q 1134 -91 817 281 
Q 500 653 500 1363 
z
" transform="scale(0.015625)"/>
      <path id="DejaVuSans-Bold-65" d="M 4031 1759 
L 4031 1441 
L 1416 1441 
Q 1456 1047 1700 850 
Q 1944 653 2381 653 
Q 2734 653 3104 758 
Q 3475 863 3866 1075 
L 3866 213 
Q 3469 63 3072 -14 
Q 2675 -91 2278 -91 
Q 1328 -91 801 392 
Q 275 875 275 1747 
Q 275 2603 792 3093 
Q 1309 3584 2216 3584 
Q 3041 3584 3536 3087 
Q 4031 2591 4031 1759 
z
M 2881 2131 
Q 2881 2450 2695 2645 
Q 2509 2841 2209 2841 
Q 1884 2841 1681 2658 
Q 1478 2475 1428 2131 
L 2881 2131 
z
" transform="scale(0.015625)"/>
      <path id="DejaVuSans-Bold-79" d="M 78 3500 
L 1197 3500 
L 2138 1125 
L 2938 3500 
L 4056 3500 
L 2584 -331 
Q 2363 -916 2067 -1148 
Q 1772 -1381 1288 -1381 
L 641 -1381 
L 641 -647 
L 991 -647 
Q 1275 -647 1404 -556 
Q 1534 -466 1606 -231 
L 1638 -134 
L 78 3500 
z
" transform="scale(0.015625)"/>
     </defs>
     <use xlink:href="#DejaVuSans-Bold-72"/>
     <use xlink:href="#DejaVuSans-Bold-61" transform="translate(49.316406 0)"/>
     <use xlink:href="#DejaVuSans-Bold-67" transform="translate(116.796875 0)"/>
     <use xlink:href="#DejaVuSans-Bold-5f" transform="translate(188.378906 0)"/>
     <use xlink:href="#DejaVuSans-Bold-71" transform="translate(238.378906 0)"/>
     <use xlink:href="#DejaVuSans-Bold-75" transform="translate(309.960938 0)"/>
     <use xlink:href="#DejaVuSans-Bold-65" transform="translate(381.152344 0)"/>
     <use xlink:href="#DejaVuSans-Bold-72" transform="translate(448.974609 0)"/>
     <use xlink:href="#DejaVuSans-Bold-79" transform="translate(498.291016 0)"/>
    </g>
   </g>
  </g>
 </g>
 <defs>
  <clipPath id="p545b2bd6a4">
   <rect x="7.2" y="23.448437" width="842.4" height="538.32"/>
  </clipPath>
 </defs>
</svg>
