<?xml version="1.0" encoding="UTF-8" standalone="no"?>
<!DOCTYPE svg PUBLIC "-//W3C//DTD SVG 1.1//EN"
 "http://www.w3.org/Graphics/SVG/1.1/DTD/svg11.dtd">
<!-- Generated by graphviz version 14.0.4 (20251115.1723)
 -->
<!-- Title: workflow Pages: 1 -->
<svg width="320pt" height="392pt"
 viewBox="0.00 0.00 320.00 392.00" xmlns="http://www.w3.org/2000/svg" xmlns:xlink="http://www.w3.org/1999/xlink">
<g id="graph0" class="graph" transform="scale(1 1) rotate(0) translate(4 387.5)">
<title>workflow</title>
<polygon fill="white" stroke="none" points="-4,4 -4,-387.5 315.54,-387.5 315.54,4 -4,4"/>
<text xml:space="preserve" text-anchor="middle" x="155.77" y="-366.2" font-family="Times,serif" font-size="14.00">code_generation_simple</text>
<!-- generate -->
<g id="node1" class="node">
<title>generate</title>
<path fill="#e3f2fd" stroke="black" d="M198.27,-359C198.27,-359 113.27,-359 113.27,-359 107.27,-359 101.27,-353 101.27,-347 101.27,-347 101.27,-318 101.27,-318 101.27,-312 107.27,-306 113.27,-306 113.27,-306 198.27,-306 198.27,-306 204.27,-306 210.27,-312 210.27,-318 210.27,-318 210.27,-347 210.27,-347 210.27,-353 204.27,-359 198.27,-359"/>
<text xml:space="preserve" text-anchor="middle" x="155.77" y="-341.7" font-family="Helvetica,sans-Serif" font-size="14.00">Generate Code</text>
<text xml:space="preserve" text-anchor="middle" x="155.77" y="-326.7" font-family="Helvetica,sans-Serif" font-size="14.00">(agent)</text>
<text xml:space="preserve" text-anchor="middle" x="155.77" y="-311.7" font-family="Helvetica,sans-Serif" font-size="14.00">role: executor</text>
</g>
<!-- verify -->
<g id="node2" class="node">
<title>verify</title>
<polygon fill="#e8f5e9" stroke="black" points="311.54,-270 63.75,-270 0,-74 247.8,-74 311.54,-270"/>
<text xml:space="preserve" text-anchor="middle" x="155.77" y="-203.7" font-family="Helvetica,sans-Serif" font-size="14.00">Verify Syntax</text>
<text xml:space="preserve" text-anchor="middle" x="155.77" y="-188.7" font-family="Helvetica,sans-Serif" font-size="14.00">(compute)</text>
<text xml:space="preserve" text-anchor="middle" x="155.77" y="-173.7" font-family="Helvetica,sans-Serif" font-size="14.00">exec: in&#45;process</text>
<text xml:space="preserve" text-anchor="middle" x="155.77" y="-158.7" font-family="Helvetica,sans-Serif" font-size="14.00">handler: syntax_check</text>
<text xml:space="preserve" text-anchor="middle" x="155.77" y="-143.7" font-family="Helvetica,sans-Serif" font-size="14.00">blocked: [llm, write]</text>
<text xml:space="preserve" text-anchor="middle" x="155.77" y="-128.7" font-family="Helvetica,sans-Serif" font-size="14.00">timeout: 30s</text>
</g>
<!-- generate&#45;&gt;verify -->
<g id="edge1" class="edge">
<title>generate&#45;&gt;verify</title>
<path fill="none" stroke="black" d="M155.77,-305.68C155.77,-298.59 155.77,-290.43 155.77,-281.71"/>
<polygon fill="black" stroke="black" points="159.27,-281.93 155.77,-271.93 152.27,-281.93 159.27,-281.93"/>
</g>
<!-- done -->
<g id="node3" class="node">
<title>done</title>
<polygon fill="#eceff1" stroke="black" points="197.15,-38 114.4,-38 114.4,0 197.15,0 197.15,-38"/>
<text xml:space="preserve" text-anchor="middle" x="155.77" y="-20.7" font-family="Helvetica,sans-Serif" font-size="14.00">Complete</text>
<text xml:space="preserve" text-anchor="middle" x="155.77" y="-5.7" font-family="Helvetica,sans-Serif" font-size="14.00">(transform)</text>
</g>
<!-- verify&#45;&gt;done -->
<g id="edge2" class="edge">
<title>verify&#45;&gt;done</title>
<path fill="none" stroke="black" d="M155.77,-73.66C155.77,-65.03 155.77,-56.82 155.77,-49.53"/>
<polygon fill="black" stroke="black" points="159.27,-49.74 155.77,-39.74 152.27,-49.74 159.27,-49.74"/>
</g>
</g>
</svg>
