<?xml version="1.0" encoding="UTF-8" standalone="no"?>
<!DOCTYPE svg PUBLIC "-//W3C//DTD SVG 1.1//EN"
 "http://www.w3.org/Graphics/SVG/1.1/DTD/svg11.dtd">
<!-- Generated by graphviz version 14.0.4 (20251115.1723)
 -->
<!-- Title: workflow Pages: 1 -->
<svg width="691pt" height="1742pt"
 viewBox="0.00 0.00 691.00 1742.00" xmlns="http://www.w3.org/2000/svg" xmlns:xlink="http://www.w3.org/1999/xlink">
<g id="graph0" class="graph" transform="scale(1 1) rotate(0) translate(4 1738.2)">
<title>workflow</title>
<polygon fill="white" stroke="none" points="-4,4 -4,-1738.2 687.25,-1738.2 687.25,4 -4,4"/>
<text xml:space="preserve" text-anchor="middle" x="341.62" y="-1716.9" font-family="Times,serif" font-size="14.00">swe_bench</text>
<!-- understand_issue -->
<g id="node1" class="node">
<title>understand_issue</title>
<path fill="#e3f2fd" stroke="black" d="M575.12,-1709.7C575.12,-1709.7 477.38,-1709.7 477.38,-1709.7 471.38,-1709.7 465.38,-1703.7 465.38,-1697.7 465.38,-1697.7 465.38,-1668.7 465.38,-1668.7 465.38,-1662.7 471.38,-1656.7 477.38,-1656.7 477.38,-1656.7 575.12,-1656.7 575.12,-1656.7 581.12,-1656.7 587.12,-1662.7 587.12,-1668.7 587.12,-1668.7 587.12,-1697.7 587.12,-1697.7 587.12,-1703.7 581.12,-1709.7 575.12,-1709.7"/>
<text xml:space="preserve" text-anchor="middle" x="526.25" y="-1692.4" font-family="Helvetica,sans-Serif" font-size="14.00">Understand Issue</text>
<text xml:space="preserve" text-anchor="middle" x="526.25" y="-1677.4" font-family="Helvetica,sans-Serif" font-size="14.00">(agent)</text>
<text xml:space="preserve" text-anchor="middle" x="526.25" y="-1662.4" font-family="Helvetica,sans-Serif" font-size="14.00">role: analyst</text>
</g>
<!-- search_codebase -->
<g id="node2" class="node">
<title>search_codebase</title>
<path fill="#e3f2fd" stroke="black" d="M576.25,-1619.7C576.25,-1619.7 476.25,-1619.7 476.25,-1619.7 470.25,-1619.7 464.25,-1613.7 464.25,-1607.7 464.25,-1607.7 464.25,-1578.7 464.25,-1578.7 464.25,-1572.7 470.25,-1566.7 476.25,-1566.7 476.25,-1566.7 576.25,-1566.7 576.25,-1566.7 582.25,-1566.7 588.25,-1572.7 588.25,-1578.7 588.25,-1578.7 588.25,-1607.7 588.25,-1607.7 588.25,-1613.7 582.25,-1619.7 576.25,-1619.7"/>
<text xml:space="preserve" text-anchor="middle" x="526.25" y="-1602.4" font-family="Helvetica,sans-Serif" font-size="14.00">Search Codebase</text>
<text xml:space="preserve" text-anchor="middle" x="526.25" y="-1587.4" font-family="Helvetica,sans-Serif" font-size="14.00">(agent)</text>
<text xml:space="preserve" text-anchor="middle" x="526.25" y="-1572.4" font-family="Helvetica,sans-Serif" font-size="14.00">role: researcher</text>
</g>
<!-- understand_issue&#45;&gt;search_codebase -->
<g id="edge1" class="edge">
<title>understand_issue&#45;&gt;search_codebase</title>
<path fill="none" stroke="black" d="M526.25,-1656.28C526.25,-1648.49 526.25,-1639.79 526.25,-1631.42"/>
<polygon fill="black" stroke="black" points="529.75,-1631.46 526.25,-1621.46 522.75,-1631.46 529.75,-1631.46"/>
</g>
<!-- check_complexity -->
<g id="node3" class="node">
<title>check_complexity</title>
<polygon fill="#fff3e0" stroke="black" points="526.25,-1529.7 369.25,-1491.7 526.25,-1453.7 683.25,-1491.7 526.25,-1529.7"/>
<text xml:space="preserve" text-anchor="middle" x="526.25" y="-1493.4" font-family="Helvetica,sans-Serif" font-size="14.00">Check Task Complexity</text>
<text xml:space="preserve" text-anchor="middle" x="526.25" y="-1478.4" font-family="Helvetica,sans-Serif" font-size="14.00">(condition)</text>
</g>
<!-- search_codebase&#45;&gt;check_complexity -->
<g id="edge2" class="edge">
<title>search_codebase&#45;&gt;check_complexity</title>
<path fill="none" stroke="black" d="M526.25,-1566.32C526.25,-1558.63 526.25,-1549.95 526.25,-1541.31"/>
<polygon fill="black" stroke="black" points="529.75,-1541.59 526.25,-1531.59 522.75,-1541.59 529.75,-1541.59"/>
</g>
<!-- plan_implementation -->
<g id="node4" class="node">
<title>plan_implementation</title>
<path fill="#e3f2fd" stroke="black" d="M478.5,-1406.45C478.5,-1406.45 362,-1406.45 362,-1406.45 356,-1406.45 350,-1400.45 350,-1394.45 350,-1394.45 350,-1365.45 350,-1365.45 350,-1359.45 356,-1353.45 362,-1353.45 362,-1353.45 478.5,-1353.45 478.5,-1353.45 484.5,-1353.45 490.5,-1359.45 490.5,-1365.45 490.5,-1365.45 490.5,-1394.45 490.5,-1394.45 490.5,-1400.45 484.5,-1406.45 478.5,-1406.45"/>
<text xml:space="preserve" text-anchor="middle" x="420.25" y="-1389.15" font-family="Helvetica,sans-Serif" font-size="14.00">Plan Implementation</text>
<text xml:space="preserve" text-anchor="middle" x="420.25" y="-1374.15" font-family="Helvetica,sans-Serif" font-size="14.00">(agent)</text>
<text xml:space="preserve" text-anchor="middle" x="420.25" y="-1359.15" font-family="Helvetica,sans-Serif" font-size="14.00">role: planner</text>
</g>
<!-- check_complexity&#45;&gt;plan_implementation -->
<g id="edge5" class="edge">
<title>check_complexity&#45;&gt;plan_implementation</title>
<path fill="none" stroke="black" stroke-dasharray="5,2" d="M497,-1460.42C483.38,-1446.31 467.11,-1429.47 453.07,-1414.93"/>
<polygon fill="black" stroke="black" points="455.61,-1412.52 446.14,-1407.76 450.57,-1417.39 455.61,-1412.52"/>
<text xml:space="preserve" text-anchor="middle" x="488.45" y="-1426.2" font-family="Helvetica,sans-Serif" font-size="10.00">complex</text>
</g>
<!-- implement_fix -->
<g id="node5" class="node">
<title>implement_fix</title>
<path fill="#e3f2fd" stroke="black" d="M565.38,-1316.45C565.38,-1316.45 487.12,-1316.45 487.12,-1316.45 481.12,-1316.45 475.12,-1310.45 475.12,-1304.45 475.12,-1304.45 475.12,-1275.45 475.12,-1275.45 475.12,-1269.45 481.12,-1263.45 487.12,-1263.45 487.12,-1263.45 565.38,-1263.45 565.38,-1263.45 571.38,-1263.45 577.38,-1269.45 577.38,-1275.45 577.38,-1275.45 577.38,-1304.45 577.38,-1304.45 577.38,-1310.45 571.38,-1316.45 565.38,-1316.45"/>
<text xml:space="preserve" text-anchor="middle" x="526.25" y="-1299.15" font-family="Helvetica,sans-Serif" font-size="14.00">Implement Fix</text>
<text xml:space="preserve" text-anchor="middle" x="526.25" y="-1284.15" font-family="Helvetica,sans-Serif" font-size="14.00">(agent)</text>
<text xml:space="preserve" text-anchor="middle" x="526.25" y="-1269.15" font-family="Helvetica,sans-Serif" font-size="14.00">role: executor</text>
</g>
<!-- check_complexity&#45;&gt;implement_fix -->
<g id="edge3" class="edge">
<title>check_complexity&#45;&gt;implement_fix</title>
<path fill="none" stroke="black" stroke-dasharray="5,2" d="M526.25,-1453.6C526.25,-1417.82 526.25,-1363.96 526.25,-1328.15"/>
<polygon fill="black" stroke="black" points="529.75,-1328.26 526.25,-1318.26 522.75,-1328.26 529.75,-1328.26"/>
<text xml:space="preserve" text-anchor="middle" x="540.5" y="-1376.08" font-family="Helvetica,sans-Serif" font-size="10.00">simple</text>
</g>
<!-- check_complexity&#45;&gt;implement_fix -->
<g id="edge4" class="edge">
<title>check_complexity&#45;&gt;implement_fix</title>
<path fill="none" stroke="black" stroke-dasharray="5,2" d="M543.33,-1457.39C555.41,-1429.58 568.03,-1388.9 559.25,-1353.45 557.01,-1344.39 553.18,-1335.2 548.91,-1326.75"/>
<polygon fill="black" stroke="black" points="552.13,-1325.33 544.29,-1318.2 545.97,-1328.66 552.13,-1325.33"/>
<text xml:space="preserve" text-anchor="middle" x="579.43" y="-1376.08" font-family="Helvetica,sans-Serif" font-size="10.00">medium</text>
</g>
<!-- plan_implementation&#45;&gt;implement_fix -->
<g id="edge6" class="edge">
<title>plan_implementation&#45;&gt;implement_fix</title>
<path fill="none" stroke="black" d="M451.48,-1353.03C462.48,-1343.9 474.99,-1333.51 486.59,-1323.88"/>
<polygon fill="black" stroke="black" points="488.62,-1326.74 494.08,-1317.66 484.15,-1321.36 488.62,-1326.74"/>
</g>
<!-- verify_solution -->
<g id="node6" class="node">
<title>verify_solution</title>
<polygon fill="#e8f5e9" stroke="black" points="668.03,-1226.45 442.49,-1226.45 384.47,-1030.45 610.01,-1030.45 668.03,-1226.45"/>
<text xml:space="preserve" text-anchor="middle" x="526.25" y="-1160.15" font-family="Helvetica,sans-Serif" font-size="14.00">Run Tests</text>
<text xml:space="preserve" text-anchor="middle" x="526.25" y="-1145.15" font-family="Helvetica,sans-Serif" font-size="14.00">(compute)</text>
<text xml:space="preserve" text-anchor="middle" x="526.25" y="-1130.15" font-family="Helvetica,sans-Serif" font-size="14.00">exec: in&#45;process</text>
<text xml:space="preserve" text-anchor="middle" x="526.25" y="-1115.15" font-family="Helvetica,sans-Serif" font-size="14.00">handler: test_runner</text>
<text xml:space="preserve" text-anchor="middle" x="526.25" y="-1100.15" font-family="Helvetica,sans-Serif" font-size="14.00">blocked: [llm, write]</text>
<text xml:space="preserve" text-anchor="middle" x="526.25" y="-1085.15" font-family="Helvetica,sans-Serif" font-size="14.00">timeout: 300s</text>
</g>
<!-- implement_fix&#45;&gt;verify_solution -->
<g id="edge7" class="edge">
<title>implement_fix&#45;&gt;verify_solution</title>
<path fill="none" stroke="black" d="M526.25,-1262.97C526.25,-1255.63 526.25,-1247.15 526.25,-1238.09"/>
<polygon fill="black" stroke="black" points="529.75,-1238.31 526.25,-1228.31 522.75,-1238.31 529.75,-1238.31"/>
</g>
<!-- check_test_status -->
<g id="node7" class="node">
<title>check_test_status</title>
<polygon fill="#fff3e0" stroke="black" points="330.25,-993.45 198.75,-955.45 330.25,-917.45 461.75,-955.45 330.25,-993.45"/>
<text xml:space="preserve" text-anchor="middle" x="330.25" y="-957.15" font-family="Helvetica,sans-Serif" font-size="14.00">Check Test Results</text>
<text xml:space="preserve" text-anchor="middle" x="330.25" y="-942.15" font-family="Helvetica,sans-Serif" font-size="14.00">(condition)</text>
</g>
<!-- verify_solution&#45;&gt;check_test_status -->
<g id="edge8" class="edge">
<title>verify_solution&#45;&gt;check_test_status</title>
<path fill="none" stroke="black" d="M414.51,-1029.97C399,-1016.44 383.96,-1003.32 370.99,-992"/>
<polygon fill="black" stroke="black" points="373.33,-989.4 363.5,-985.46 368.73,-994.67 373.33,-989.4"/>
</g>
<!-- handle_test_error -->
<g id="node8" class="node">
<title>handle_test_error</title>
<path fill="#e3f2fd" stroke="black" d="M478.75,-870.2C478.75,-870.2 381.75,-870.2 381.75,-870.2 375.75,-870.2 369.75,-864.2 369.75,-858.2 369.75,-858.2 369.75,-829.2 369.75,-829.2 369.75,-823.2 375.75,-817.2 381.75,-817.2 381.75,-817.2 478.75,-817.2 478.75,-817.2 484.75,-817.2 490.75,-823.2 490.75,-829.2 490.75,-829.2 490.75,-858.2 490.75,-858.2 490.75,-864.2 484.75,-870.2 478.75,-870.2"/>
<text xml:space="preserve" text-anchor="middle" x="430.25" y="-852.9" font-family="Helvetica,sans-Serif" font-size="14.00">Handle Test Error</text>
<text xml:space="preserve" text-anchor="middle" x="430.25" y="-837.9" font-family="Helvetica,sans-Serif" font-size="14.00">(agent)</text>
<text xml:space="preserve" text-anchor="middle" x="430.25" y="-822.9" font-family="Helvetica,sans-Serif" font-size="14.00">role: analyst</text>
</g>
<!-- check_test_status&#45;&gt;handle_test_error -->
<g id="edge12" class="edge">
<title>check_test_status&#45;&gt;handle_test_error</title>
<path fill="none" stroke="black" stroke-dasharray="5,2" d="M357.31,-924.75C370.17,-910.64 385.62,-893.68 398.98,-879.02"/>
<polygon fill="black" stroke="black" points="401.4,-881.56 405.55,-871.81 396.23,-876.84 401.4,-881.56"/>
<text xml:space="preserve" text-anchor="middle" x="398.96" y="-889.95" font-family="Helvetica,sans-Serif" font-size="10.00">error</text>
</g>
<!-- analyze_failures -->
<g id="node9" class="node">
<title>analyze_failures</title>
<polygon fill="#eceff1" stroke="black" points="351.38,-862.7 207.12,-862.7 207.12,-824.7 351.38,-824.7 351.38,-862.7"/>
<text xml:space="preserve" text-anchor="middle" x="279.25" y="-845.4" font-family="Helvetica,sans-Serif" font-size="14.00">Analyze Test Failures</text>
<text xml:space="preserve" text-anchor="middle" x="279.25" y="-830.4" font-family="Helvetica,sans-Serif" font-size="14.00">(transform)</text>
</g>
<!-- check_test_status&#45;&gt;analyze_failures -->
<g id="edge10" class="edge">
<title>check_test_status&#45;&gt;analyze_failures</title>
<path fill="none" stroke="black" stroke-dasharray="5,2" d="M320.64,-919.72C317.27,-909.35 313.09,-898.11 308.25,-888.2 305.68,-882.94 302.56,-877.56 299.33,-872.46"/>
<polygon fill="black" stroke="black" points="302.39,-870.75 293.94,-864.36 296.57,-874.63 302.39,-870.75"/>
<text xml:space="preserve" text-anchor="middle" x="339.17" y="-889.95" font-family="Helvetica,sans-Serif" font-size="10.00">partial_pass</text>
</g>
<!-- check_test_status&#45;&gt;analyze_failures -->
<g id="edge11" class="edge">
<title>check_test_status&#45;&gt;analyze_failures</title>
<path fill="none" stroke="black" stroke-dasharray="5,2" d="M295.52,-927.11C287.8,-919.1 280.68,-909.72 276.5,-899.45 273.33,-891.67 272.67,-882.73 273.17,-874.37"/>
<polygon fill="black" stroke="black" points="276.63,-874.96 274.34,-864.61 269.68,-874.13 276.63,-874.96"/>
<text xml:space="preserve" text-anchor="middle" x="290.38" y="-889.95" font-family="Helvetica,sans-Serif" font-size="10.00">all_fail</text>
</g>
<!-- quality_check -->
<g id="node15" class="node">
<title>quality_check</title>
<polygon fill="#fff3e0" stroke="black" points="153.25,-411.5 0,-373.5 153.25,-335.5 306.5,-373.5 153.25,-411.5"/>
<text xml:space="preserve" text-anchor="middle" x="153.25" y="-375.2" font-family="Helvetica,sans-Serif" font-size="14.00">Solution Quality Check</text>
<text xml:space="preserve" text-anchor="middle" x="153.25" y="-360.2" font-family="Helvetica,sans-Serif" font-size="14.00">(condition)</text>
</g>
<!-- check_test_status&#45;&gt;quality_check -->
<g id="edge9" class="edge">
<title>check_test_status&#45;&gt;quality_check</title>
<path fill="none" stroke="black" stroke-dasharray="5,2" d="M229.57,-946.16C165.78,-934.75 95.25,-907.86 95.25,-844.7 95.25,-844.7 95.25,-844.7 95.25,-495.75 95.25,-466.89 108.79,-437.61 122.79,-415.05"/>
<polygon fill="black" stroke="black" points="125.65,-417.07 128.16,-406.78 119.78,-413.26 125.65,-417.07"/>
<text xml:space="preserve" text-anchor="middle" x="113.25" y="-676.7" font-family="Helvetica,sans-Serif" font-size="10.00">all_pass</text>
</g>
<!-- should_retry -->
<g id="node10" class="node">
<title>should_retry</title>
<polygon fill="#fff3e0" stroke="black" points="354.25,-780.2 198.75,-742.2 354.25,-704.2 509.75,-742.2 354.25,-780.2"/>
<text xml:space="preserve" text-anchor="middle" x="354.25" y="-743.9" font-family="Helvetica,sans-Serif" font-size="14.00">Should Continue Fixing</text>
<text xml:space="preserve" text-anchor="middle" x="354.25" y="-728.9" font-family="Helvetica,sans-Serif" font-size="14.00">(condition)</text>
</g>
<!-- handle_test_error&#45;&gt;should_retry -->
<g id="edge13" class="edge">
<title>handle_test_error&#45;&gt;should_retry</title>
<path fill="none" stroke="black" d="M410.48,-816.82C402.71,-806.64 393.6,-794.72 385,-783.47"/>
<polygon fill="black" stroke="black" points="388.03,-781.66 379.18,-775.84 382.47,-785.91 388.03,-781.66"/>
</g>
<!-- analyze_failures&#45;&gt;should_retry -->
<g id="edge14" class="edge">
<title>analyze_failures&#45;&gt;should_retry</title>
<path fill="none" stroke="black" d="M293.01,-824.45C301.61,-813.04 313.04,-797.87 323.7,-783.73"/>
<polygon fill="black" stroke="black" points="326.42,-785.94 329.65,-775.84 320.83,-781.72 326.42,-785.94"/>
</g>
<!-- refine_fix -->
<g id="node11" class="node">
<title>refine_fix</title>
<path fill="#e3f2fd" stroke="black" d="M599.12,-400C599.12,-400 525.38,-400 525.38,-400 519.38,-400 513.38,-394 513.38,-388 513.38,-388 513.38,-359 513.38,-359 513.38,-353 519.38,-347 525.38,-347 525.38,-347 599.12,-347 599.12,-347 605.12,-347 611.12,-353 611.12,-359 611.12,-359 611.12,-388 611.12,-388 611.12,-394 605.12,-400 599.12,-400"/>
<text xml:space="preserve" text-anchor="middle" x="562.25" y="-382.7" font-family="Helvetica,sans-Serif" font-size="14.00">Refine Fix</text>
<text xml:space="preserve" text-anchor="middle" x="562.25" y="-367.7" font-family="Helvetica,sans-Serif" font-size="14.00">(agent)</text>
<text xml:space="preserve" text-anchor="middle" x="562.25" y="-352.7" font-family="Helvetica,sans-Serif" font-size="14.00">role: executor</text>
</g>
<!-- should_retry&#45;&gt;refine_fix -->
<g id="edge15" class="edge">
<title>should_retry&#45;&gt;refine_fix</title>
<path fill="none" stroke="black" stroke-dasharray="5,2" d="M393.36,-713.34C439.35,-677.9 513.21,-611.96 543.25,-534.75 558.81,-494.75 562.55,-445.24 563.05,-411.93"/>
<polygon fill="black" stroke="black" points="566.55,-411.96 563.09,-401.95 559.55,-411.93 566.55,-411.96"/>
<text xml:space="preserve" text-anchor="middle" x="567.77" y="-554.5" font-family="Helvetica,sans-Serif" font-size="10.00">continue_fixing</text>
</g>
<!-- escalate_to_human -->
<g id="node13" class="node">
<title>escalate_to_human</title>
<ellipse fill="#ffebee" stroke="black" cx="354.25" cy="-619.48" rx="92.45" ry="37.48"/>
<text xml:space="preserve" text-anchor="middle" x="354.25" y="-628.68" font-family="Helvetica,sans-Serif" font-size="14.00">Escalate to Human</text>
<text xml:space="preserve" text-anchor="middle" x="354.25" y="-613.68" font-family="Helvetica,sans-Serif" font-size="14.00">(hitl)</text>
<text xml:space="preserve" text-anchor="middle" x="354.25" y="-598.68" font-family="Helvetica,sans-Serif" font-size="14.00">timeout: 600s</text>
</g>
<!-- should_retry&#45;&gt;escalate_to_human -->
<g id="edge16" class="edge">
<title>should_retry&#45;&gt;escalate_to_human</title>
<path fill="none" stroke="black" stroke-dasharray="5,2" d="M354.25,-704C354.25,-692.88 354.25,-680.52 354.25,-668.8"/>
<polygon fill="black" stroke="black" points="357.75,-668.87 354.25,-658.87 350.75,-668.87 357.75,-668.87"/>
<text xml:space="preserve" text-anchor="middle" x="372.62" y="-676.7" font-family="Helvetica,sans-Serif" font-size="10.00">escalate</text>
</g>
<!-- should_retry&#45;&gt;quality_check -->
<g id="edge17" class="edge">
<title>should_retry&#45;&gt;quality_check</title>
<path fill="none" stroke="black" stroke-dasharray="5,2" d="M314.58,-713.55C268.03,-678.33 193.61,-612.6 165.25,-534.75 152.11,-498.68 149.63,-455.09 150.14,-422.48"/>
<polygon fill="black" stroke="black" points="153.64,-422.6 150.41,-412.51 146.64,-422.41 153.64,-422.6"/>
<text xml:space="preserve" text-anchor="middle" x="218.64" y="-554.5" font-family="Helvetica,sans-Serif" font-size="10.00">submit_best_effort</text>
</g>
<!-- increment_iteration -->
<g id="node12" class="node">
<title>increment_iteration</title>
<polygon fill="#eceff1" stroke="black" points="667.38,-280.75 565.12,-280.75 565.12,-242.75 667.38,-242.75 667.38,-280.75"/>
<text xml:space="preserve" text-anchor="middle" x="616.25" y="-263.45" font-family="Helvetica,sans-Serif" font-size="14.00">Track Iteration</text>
<text xml:space="preserve" text-anchor="middle" x="616.25" y="-248.45" font-family="Helvetica,sans-Serif" font-size="14.00">(transform)</text>
</g>
<!-- refine_fix&#45;&gt;increment_iteration -->
<g id="edge18" class="edge">
<title>refine_fix&#45;&gt;increment_iteration</title>
<path fill="none" stroke="black" d="M574.91,-346.77C583.12,-330.08 593.82,-308.34 602.28,-291.15"/>
<polygon fill="black" stroke="black" points="605.27,-292.99 606.54,-282.48 598.99,-289.9 605.27,-292.99"/>
</g>
<!-- increment_iteration&#45;&gt;verify_solution -->
<g id="edge19" class="edge">
<title>increment_iteration&#45;&gt;verify_solution</title>
<path fill="none" stroke="black" d="M623.35,-281.08C631.05,-302.62 642.25,-339.6 642.25,-372.5 642.25,-956.45 642.25,-956.45 642.25,-956.45 642.25,-982.66 632.8,-1007.84 619.3,-1030.44"/>
<polygon fill="black" stroke="black" points="616.47,-1028.36 614.09,-1038.69 622.39,-1032.1 616.47,-1028.36"/>
</g>
<!-- handle_escalation -->
<g id="node14" class="node">
<title>handle_escalation</title>
<polygon fill="#fff3e0" stroke="black" points="354.25,-534.75 174,-496.75 354.25,-458.75 534.5,-496.75 354.25,-534.75"/>
<text xml:space="preserve" text-anchor="middle" x="354.25" y="-498.45" font-family="Helvetica,sans-Serif" font-size="14.00">Handle Escalation Decision</text>
<text xml:space="preserve" text-anchor="middle" x="354.25" y="-483.45" font-family="Helvetica,sans-Serif" font-size="14.00">(condition)</text>
</g>
<!-- escalate_to_human&#45;&gt;handle_escalation -->
<g id="edge20" class="edge">
<title>escalate_to_human&#45;&gt;handle_escalation</title>
<path fill="none" stroke="black" d="M354.25,-581.6C354.25,-570.57 354.25,-558.31 354.25,-546.64"/>
<polygon fill="black" stroke="black" points="357.75,-546.75 354.25,-536.75 350.75,-546.75 357.75,-546.75"/>
</g>
<!-- handle_escalation&#45;&gt;refine_fix -->
<g id="edge21" class="edge">
<title>handle_escalation&#45;&gt;refine_fix</title>
<path fill="none" stroke="black" stroke-dasharray="5,2" d="M401.45,-468.24C433.19,-449.73 475.13,-425.29 508.21,-406"/>
<polygon fill="black" stroke="black" points="509.55,-409.27 516.42,-401.21 506.02,-403.23 509.55,-409.27"/>
<text xml:space="preserve" text-anchor="middle" x="482.86" y="-431.25" font-family="Helvetica,sans-Serif" font-size="10.00">continue</text>
</g>
<!-- handle_escalation&#45;&gt;quality_check -->
<g id="edge22" class="edge">
<title>handle_escalation&#45;&gt;quality_check</title>
<path fill="none" stroke="black" stroke-dasharray="5,2" d="M308.39,-468.08C278.15,-449.84 238.42,-425.88 206.74,-406.77"/>
<polygon fill="black" stroke="black" points="208.86,-403.96 198.49,-401.79 205.24,-409.95 208.86,-403.96"/>
<text xml:space="preserve" text-anchor="middle" x="274.4" y="-431.25" font-family="Helvetica,sans-Serif" font-size="10.00">submit</text>
</g>
<!-- complete_failed -->
<g id="node19" class="node">
<title>complete_failed</title>
<polygon fill="#eceff1" stroke="black" points="342.38,-38 258.12,-38 258.12,0 342.38,0 342.38,-38"/>
<text xml:space="preserve" text-anchor="middle" x="300.25" y="-20.7" font-family="Helvetica,sans-Serif" font-size="14.00">Task Failed</text>
<text xml:space="preserve" text-anchor="middle" x="300.25" y="-5.7" font-family="Helvetica,sans-Serif" font-size="14.00">(transform)</text>
</g>
<!-- handle_escalation&#45;&gt;complete_failed -->
<g id="edge23" class="edge">
<title>handle_escalation&#45;&gt;complete_failed</title>
<path fill="none" stroke="black" stroke-dasharray="5,2" d="M348.32,-459.51C344.89,-435.47 341.25,-403.19 341.25,-374.5 341.25,-374.5 341.25,-374.5 341.25,-93 341.25,-76.55 333.24,-60.38 324.3,-47.46"/>
<polygon fill="black" stroke="black" points="327.11,-45.37 318.31,-39.47 321.51,-49.57 327.11,-45.37"/>
<text xml:space="preserve" text-anchor="middle" x="352.12" y="-207.75" font-family="Helvetica,sans-Serif" font-size="10.00">abort</text>
</g>
<!-- final_review -->
<g id="node16" class="node">
<title>final_review</title>
<path fill="#e3f2fd" stroke="black" d="M103.88,-288.25C103.88,-288.25 34.62,-288.25 34.62,-288.25 28.63,-288.25 22.62,-282.25 22.62,-276.25 22.62,-276.25 22.62,-247.25 22.62,-247.25 22.62,-241.25 28.62,-235.25 34.62,-235.25 34.62,-235.25 103.88,-235.25 103.88,-235.25 109.88,-235.25 115.88,-241.25 115.88,-247.25 115.88,-247.25 115.88,-276.25 115.88,-276.25 115.88,-282.25 109.88,-288.25 103.88,-288.25"/>
<text xml:space="preserve" text-anchor="middle" x="69.25" y="-270.95" font-family="Helvetica,sans-Serif" font-size="14.00">Final Review</text>
<text xml:space="preserve" text-anchor="middle" x="69.25" y="-255.95" font-family="Helvetica,sans-Serif" font-size="14.00">(agent)</text>
<text xml:space="preserve" text-anchor="middle" x="69.25" y="-240.95" font-family="Helvetica,sans-Serif" font-size="14.00">role: analyst</text>
</g>
<!-- quality_check&#45;&gt;final_review -->
<g id="edge26" class="edge">
<title>quality_check&#45;&gt;final_review</title>
<path fill="none" stroke="black" stroke-dasharray="5,2" d="M94.45,-349.88C80.94,-341.78 68.28,-331.16 60.5,-317.5 57.4,-312.06 56.44,-305.86 56.73,-299.62"/>
<polygon fill="black" stroke="black" points="60.15,-300.44 58.19,-290.03 53.23,-299.39 60.15,-300.44"/>
<text xml:space="preserve" text-anchor="middle" x="104.38" y="-308" font-family="Helvetica,sans-Serif" font-size="10.00">needs_improvement</text>
</g>
<!-- format_output -->
<g id="node17" class="node">
<title>format_output</title>
<polygon fill="#eceff1" stroke="black" points="284.75,-188 127.75,-188 127.75,-150 284.75,-150 284.75,-188"/>
<text xml:space="preserve" text-anchor="middle" x="206.25" y="-170.7" font-family="Helvetica,sans-Serif" font-size="14.00">Format Solution Output</text>
<text xml:space="preserve" text-anchor="middle" x="206.25" y="-155.7" font-family="Helvetica,sans-Serif" font-size="14.00">(transform)</text>
</g>
<!-- quality_check&#45;&gt;format_output -->
<g id="edge24" class="edge">
<title>quality_check&#45;&gt;format_output</title>
<path fill="none" stroke="black" stroke-dasharray="5,2" d="M156.81,-336.07C160.17,-308.06 166.25,-268.64 176.5,-235.25 180.32,-222.8 185.98,-209.64 191.35,-198.42"/>
<polygon fill="black" stroke="black" points="194.36,-200.21 195.66,-189.7 188.09,-197.11 194.36,-200.21"/>
<text xml:space="preserve" text-anchor="middle" x="202.38" y="-257.88" font-family="Helvetica,sans-Serif" font-size="10.00">high_quality</text>
</g>
<!-- quality_check&#45;&gt;format_output -->
<g id="edge25" class="edge">
<title>quality_check&#45;&gt;format_output</title>
<path fill="none" stroke="black" stroke-dasharray="5,2" d="M188.36,-343.9C203.73,-329.1 220.1,-309.66 228.25,-288.25 239.46,-258.8 229.81,-222.99 220,-198.54"/>
<polygon fill="black" stroke="black" points="223.31,-197.38 216.15,-189.56 216.87,-200.13 223.31,-197.38"/>
<text xml:space="preserve" text-anchor="middle" x="256.91" y="-257.88" font-family="Helvetica,sans-Serif" font-size="10.00">acceptable</text>
</g>
<!-- final_review&#45;&gt;format_output -->
<g id="edge27" class="edge">
<title>final_review&#45;&gt;format_output</title>
<path fill="none" stroke="black" d="M105.57,-235.01C118.89,-225.72 134.16,-215.25 148.25,-206 154.1,-202.16 160.34,-198.17 166.48,-194.32"/>
<polygon fill="black" stroke="black" points="168.05,-197.46 174.68,-189.2 164.34,-191.52 168.05,-197.46"/>
</g>
<!-- complete -->
<g id="node18" class="node">
<title>complete</title>
<polygon fill="#eceff1" stroke="black" points="307.25,-113 201.25,-113 201.25,-75 307.25,-75 307.25,-113"/>
<text xml:space="preserve" text-anchor="middle" x="254.25" y="-95.7" font-family="Helvetica,sans-Serif" font-size="14.00">Task Complete</text>
<text xml:space="preserve" text-anchor="middle" x="254.25" y="-80.7" font-family="Helvetica,sans-Serif" font-size="14.00">(transform)</text>
</g>
<!-- format_output&#45;&gt;complete -->
<g id="edge28" class="edge">
<title>format_output&#45;&gt;complete</title>
<path fill="none" stroke="black" d="M218.36,-149.58C223.71,-141.45 230.1,-131.73 236,-122.75"/>
<polygon fill="black" stroke="black" points="238.74,-124.96 241.31,-114.68 232.89,-121.11 238.74,-124.96"/>
</g>
<!-- complete&#45;&gt;complete_failed -->
<g id="edge29" class="edge">
<title>complete&#45;&gt;complete_failed</title>
<path fill="none" stroke="black" d="M265.86,-74.58C270.92,-66.54 276.98,-56.93 282.58,-48.04"/>
<polygon fill="black" stroke="black" points="285.47,-50.02 287.84,-39.7 279.55,-46.29 285.47,-50.02"/>
</g>
</g>
</svg>
