<?xml version="1.0" encoding="UTF-8" standalone="no"?>
<!DOCTYPE svg PUBLIC "-//W3C//DTD SVG 1.1//EN"
 "http://www.w3.org/Graphics/SVG/1.1/DTD/svg11.dtd">
<!-- Generated by graphviz version 14.0.4 (20251115.1723)
 -->
<!-- Title: workflow Pages: 1 -->
<svg width="292pt" height="607pt"
 viewBox="0.00 0.00 292.00 607.00" xmlns="http://www.w3.org/2000/svg" xmlns:xlink="http://www.w3.org/1999/xlink">
<g id="graph0" class="graph" transform="scale(1 1) rotate(0) translate(4 602.75)">
<title>workflow</title>
<polygon fill="white" stroke="none" points="-4,4 -4,-602.75 287.55,-602.75 287.55,4 -4,4"/>
<text xml:space="preserve" text-anchor="middle" x="141.78" y="-581.45" font-family="Times,serif" font-size="14.00">swe_bench_lite</text>
<!-- understand_and_search -->
<g id="node1" class="node">
<title>understand_and_search</title>
<path fill="#e3f2fd" stroke="black" d="M209.03,-574.25C209.03,-574.25 74.53,-574.25 74.53,-574.25 68.53,-574.25 62.53,-568.25 62.53,-562.25 62.53,-562.25 62.53,-533.25 62.53,-533.25 62.53,-527.25 68.53,-521.25 74.53,-521.25 74.53,-521.25 209.03,-521.25 209.03,-521.25 215.03,-521.25 221.03,-527.25 221.03,-533.25 221.03,-533.25 221.03,-562.25 221.03,-562.25 221.03,-568.25 215.03,-574.25 209.03,-574.25"/>
<text xml:space="preserve" text-anchor="middle" x="141.78" y="-556.95" font-family="Helvetica,sans-Serif" font-size="14.00">Understand and Search</text>
<text xml:space="preserve" text-anchor="middle" x="141.78" y="-541.95" font-family="Helvetica,sans-Serif" font-size="14.00">(agent)</text>
<text xml:space="preserve" text-anchor="middle" x="141.78" y="-526.95" font-family="Helvetica,sans-Serif" font-size="14.00">role: researcher</text>
</g>
<!-- implement -->
<g id="node2" class="node">
<title>implement</title>
<path fill="#e3f2fd" stroke="black" d="M180.9,-484.25C180.9,-484.25 102.65,-484.25 102.65,-484.25 96.65,-484.25 90.65,-478.25 90.65,-472.25 90.65,-472.25 90.65,-443.25 90.65,-443.25 90.65,-437.25 96.65,-431.25 102.65,-431.25 102.65,-431.25 180.9,-431.25 180.9,-431.25 186.9,-431.25 192.9,-437.25 192.9,-443.25 192.9,-443.25 192.9,-472.25 192.9,-472.25 192.9,-478.25 186.9,-484.25 180.9,-484.25"/>
<text xml:space="preserve" text-anchor="middle" x="141.78" y="-466.95" font-family="Helvetica,sans-Serif" font-size="14.00">Implement Fix</text>
<text xml:space="preserve" text-anchor="middle" x="141.78" y="-451.95" font-family="Helvetica,sans-Serif" font-size="14.00">(agent)</text>
<text xml:space="preserve" text-anchor="middle" x="141.78" y="-436.95" font-family="Helvetica,sans-Serif" font-size="14.00">role: executor</text>
</g>
<!-- understand_and_search&#45;&gt;implement -->
<g id="edge1" class="edge">
<title>understand_and_search&#45;&gt;implement</title>
<path fill="none" stroke="black" d="M141.78,-520.82C141.78,-513.04 141.78,-504.33 141.78,-495.97"/>
<polygon fill="black" stroke="black" points="145.28,-496.01 141.78,-486.01 138.28,-496.01 145.28,-496.01"/>
</g>
<!-- test -->
<g id="node3" class="node">
<title>test</title>
<polygon fill="#e8f5e9" stroke="black" points="283.55,-394.25 58.02,-394.25 0,-198.25 225.53,-198.25 283.55,-394.25"/>
<text xml:space="preserve" text-anchor="middle" x="141.78" y="-327.95" font-family="Helvetica,sans-Serif" font-size="14.00">Run Tests</text>
<text xml:space="preserve" text-anchor="middle" x="141.78" y="-312.95" font-family="Helvetica,sans-Serif" font-size="14.00">(compute)</text>
<text xml:space="preserve" text-anchor="middle" x="141.78" y="-297.95" font-family="Helvetica,sans-Serif" font-size="14.00">exec: in&#45;process</text>
<text xml:space="preserve" text-anchor="middle" x="141.78" y="-282.95" font-family="Helvetica,sans-Serif" font-size="14.00">handler: test_runner</text>
<text xml:space="preserve" text-anchor="middle" x="141.78" y="-267.95" font-family="Helvetica,sans-Serif" font-size="14.00">blocked: [llm, write]</text>
<text xml:space="preserve" text-anchor="middle" x="141.78" y="-252.95" font-family="Helvetica,sans-Serif" font-size="14.00">timeout: 180s</text>
</g>
<!-- implement&#45;&gt;test -->
<g id="edge2" class="edge">
<title>implement&#45;&gt;test</title>
<path fill="none" stroke="black" d="M141.78,-430.77C141.78,-423.43 141.78,-414.95 141.78,-405.89"/>
<polygon fill="black" stroke="black" points="145.28,-406.11 141.78,-396.11 138.28,-406.11 145.28,-406.11"/>
</g>
<!-- check_result -->
<g id="node4" class="node">
<title>check_result</title>
<polygon fill="#fff3e0" stroke="black" points="141.78,-161.25 45.53,-123.25 141.78,-85.25 238.03,-123.25 141.78,-161.25"/>
<text xml:space="preserve" text-anchor="middle" x="141.78" y="-124.95" font-family="Helvetica,sans-Serif" font-size="14.00">Check Result</text>
<text xml:space="preserve" text-anchor="middle" x="141.78" y="-109.95" font-family="Helvetica,sans-Serif" font-size="14.00">(condition)</text>
</g>
<!-- test&#45;&gt;check_result -->
<g id="edge3" class="edge">
<title>test&#45;&gt;check_result</title>
<path fill="none" stroke="black" d="M141.78,-197.76C141.78,-189.29 141.78,-180.99 141.78,-173.18"/>
<polygon fill="black" stroke="black" points="145.28,-173.28 141.78,-163.28 138.28,-173.28 145.28,-173.28"/>
</g>
<!-- done -->
<g id="node5" class="node">
<title>done</title>
<polygon fill="#eceff1" stroke="black" points="183.15,-38 100.4,-38 100.4,0 183.15,0 183.15,-38"/>
<text xml:space="preserve" text-anchor="middle" x="141.78" y="-20.7" font-family="Helvetica,sans-Serif" font-size="14.00">Complete</text>
<text xml:space="preserve" text-anchor="middle" x="141.78" y="-5.7" font-family="Helvetica,sans-Serif" font-size="14.00">(transform)</text>
</g>
<!-- check_result&#45;&gt;done -->
<g id="edge4" class="edge">
<title>check_result&#45;&gt;done</title>
<path fill="none" stroke="black" stroke-dasharray="5,2" d="M86.62,-106.65C57.35,-95.41 30.32,-78.3 45.78,-56 55.84,-41.48 72.53,-32.81 89.2,-27.63"/>
<polygon fill="black" stroke="black" points="89.87,-31.07 98.62,-25.1 88.05,-24.31 89.87,-31.07"/>
<text xml:space="preserve" text-anchor="middle" x="63.78" y="-57.75" font-family="Helvetica,sans-Serif" font-size="10.00">all_pass</text>
</g>
<!-- check_result&#45;&gt;done -->
<g id="edge5" class="edge">
<title>check_result&#45;&gt;done</title>
<path fill="none" stroke="black" stroke-dasharray="5,2" d="M118.63,-94.18C113.18,-85.99 108.12,-76.69 105.28,-67.25 103.1,-60.05 105.1,-53.13 109.07,-46.92"/>
<polygon fill="black" stroke="black" points="111.48,-49.5 115.09,-39.54 106.05,-45.08 111.48,-49.5"/>
<text xml:space="preserve" text-anchor="middle" x="131.53" y="-57.75" font-family="Helvetica,sans-Serif" font-size="10.00">partial_pass</text>
</g>
<!-- check_result&#45;&gt;done -->
<g id="edge6" class="edge">
<title>check_result&#45;&gt;done</title>
<path fill="none" stroke="black" stroke-dasharray="5,2" d="M155.38,-90.32C158.44,-79.46 160.16,-67.23 157.78,-56 157.26,-53.55 156.56,-51.07 155.75,-48.61"/>
<polygon fill="black" stroke="black" points="159.11,-47.6 152.18,-39.59 152.6,-50.18 159.11,-47.6"/>
<text xml:space="preserve" text-anchor="middle" x="172.77" y="-57.75" font-family="Helvetica,sans-Serif" font-size="10.00">all_fail</text>
</g>
<!-- check_result&#45;&gt;done -->
<g id="edge7" class="edge">
<title>check_result&#45;&gt;done</title>
<path fill="none" stroke="black" stroke-dasharray="5,2" d="M171.44,-96.71C179.25,-88.22 186.63,-78.13 190.78,-67.25 193.73,-59.51 191.38,-52.46 186.42,-46.31"/>
<polygon fill="black" stroke="black" points="189.02,-43.95 179.39,-39.54 184.17,-49 189.02,-43.95"/>
<text xml:space="preserve" text-anchor="middle" x="201.82" y="-57.75" font-family="Helvetica,sans-Serif" font-size="10.00">error</text>
</g>
</g>
</svg>
