<?xml version="1.0" encoding="UTF-8" standalone="no"?>
<!DOCTYPE svg PUBLIC "-//W3C//DTD SVG 1.1//EN"
 "http://www.w3.org/Graphics/SVG/1.1/DTD/svg11.dtd">
<!-- Generated by graphviz version 14.0.4 (20251115.1723)
 -->
<!-- Title: workflow Pages: 1 -->
<svg width="558pt" height="772pt"
 viewBox="0.00 0.00 558.00 772.00" xmlns="http://www.w3.org/2000/svg" xmlns:xlink="http://www.w3.org/1999/xlink">
<g id="graph0" class="graph" transform="scale(1 1) rotate(0) translate(4 767.75)">
<title>workflow</title>
<polygon fill="white" stroke="none" points="-4,4 -4,-767.75 553.6,-767.75 553.6,4 -4,4"/>
<text xml:space="preserve" text-anchor="middle" x="274.8" y="-746.45" font-family="Times,serif" font-size="14.00">passk_high</text>
<!-- parse_problem -->
<g id="node1" class="node">
<title>parse_problem</title>
<path fill="#e3f2fd" stroke="black" d="M372.62,-739.25C372.62,-739.25 290.62,-739.25 290.62,-739.25 284.62,-739.25 278.62,-733.25 278.62,-727.25 278.62,-727.25 278.62,-698.25 278.62,-698.25 278.62,-692.25 284.62,-686.25 290.62,-686.25 290.62,-686.25 372.62,-686.25 372.62,-686.25 378.62,-686.25 384.62,-692.25 384.62,-698.25 384.62,-698.25 384.62,-727.25 384.62,-727.25 384.62,-733.25 378.62,-739.25 372.62,-739.25"/>
<text xml:space="preserve" text-anchor="middle" x="331.62" y="-721.95" font-family="Helvetica,sans-Serif" font-size="14.00">Parse Problem</text>
<text xml:space="preserve" text-anchor="middle" x="331.62" y="-706.95" font-family="Helvetica,sans-Serif" font-size="14.00">(agent)</text>
<text xml:space="preserve" text-anchor="middle" x="331.62" y="-691.95" font-family="Helvetica,sans-Serif" font-size="14.00">role: analyst</text>
</g>
<!-- batch_generation -->
<g id="node2" class="node">
<title>batch_generation</title>
<path fill="#e3f2fd" stroke="black" d="M404.88,-649.25C404.88,-649.25 258.38,-649.25 258.38,-649.25 252.38,-649.25 246.38,-643.25 246.38,-637.25 246.38,-637.25 246.38,-608.25 246.38,-608.25 246.38,-602.25 252.38,-596.25 258.38,-596.25 258.38,-596.25 404.88,-596.25 404.88,-596.25 410.88,-596.25 416.88,-602.25 416.88,-608.25 416.88,-608.25 416.88,-637.25 416.88,-637.25 416.88,-643.25 410.88,-649.25 404.88,-649.25"/>
<text xml:space="preserve" text-anchor="middle" x="331.62" y="-631.95" font-family="Helvetica,sans-Serif" font-size="14.00">Batch Generate Solutions</text>
<text xml:space="preserve" text-anchor="middle" x="331.62" y="-616.95" font-family="Helvetica,sans-Serif" font-size="14.00">(agent)</text>
<text xml:space="preserve" text-anchor="middle" x="331.62" y="-601.95" font-family="Helvetica,sans-Serif" font-size="14.00">role: executor</text>
</g>
<!-- parse_problem&#45;&gt;batch_generation -->
<g id="edge1" class="edge">
<title>parse_problem&#45;&gt;batch_generation</title>
<path fill="none" stroke="black" d="M331.62,-685.82C331.62,-678.04 331.62,-669.33 331.62,-660.97"/>
<polygon fill="black" stroke="black" points="335.13,-661.01 331.63,-651.01 328.13,-661.01 335.13,-661.01"/>
</g>
<!-- parse_batch -->
<g id="node3" class="node">
<title>parse_batch</title>
<polygon fill="#eceff1" stroke="black" points="406,-559.25 257.25,-559.25 257.25,-521.25 406,-521.25 406,-559.25"/>
<text xml:space="preserve" text-anchor="middle" x="331.62" y="-541.95" font-family="Helvetica,sans-Serif" font-size="14.00">Parse Batch Solutions</text>
<text xml:space="preserve" text-anchor="middle" x="331.62" y="-526.95" font-family="Helvetica,sans-Serif" font-size="14.00">(transform)</text>
</g>
<!-- batch_generation&#45;&gt;parse_batch -->
<g id="edge2" class="edge">
<title>batch_generation&#45;&gt;parse_batch</title>
<path fill="none" stroke="black" d="M331.62,-595.84C331.62,-587.93 331.62,-579.18 331.62,-571.04"/>
<polygon fill="black" stroke="black" points="335.13,-571.23 331.63,-561.23 328.13,-571.23 335.13,-571.23"/>
</g>
<!-- validate_batch -->
<g id="node4" class="node">
<title>validate_batch</title>
<polygon fill="#e8f5e9" stroke="black" points="549.6,-484.25 202.85,-484.25 113.65,-288.25 460.4,-288.25 549.6,-484.25"/>
<text xml:space="preserve" text-anchor="middle" x="331.62" y="-417.95" font-family="Helvetica,sans-Serif" font-size="14.00">Validate Batch</text>
<text xml:space="preserve" text-anchor="middle" x="331.62" y="-402.95" font-family="Helvetica,sans-Serif" font-size="14.00">(compute)</text>
<text xml:space="preserve" text-anchor="middle" x="331.62" y="-387.95" font-family="Helvetica,sans-Serif" font-size="14.00">exec: in&#45;process</text>
<text xml:space="preserve" text-anchor="middle" x="331.62" y="-372.95" font-family="Helvetica,sans-Serif" font-size="14.00">handler: multi_solution_validator</text>
<text xml:space="preserve" text-anchor="middle" x="331.62" y="-357.95" font-family="Helvetica,sans-Serif" font-size="14.00">blocked: [llm, write]</text>
<text xml:space="preserve" text-anchor="middle" x="331.62" y="-342.95" font-family="Helvetica,sans-Serif" font-size="14.00">timeout: 600s</text>
</g>
<!-- parse_batch&#45;&gt;validate_batch -->
<g id="edge3" class="edge">
<title>parse_batch&#45;&gt;validate_batch</title>
<path fill="none" stroke="black" d="M331.62,-520.92C331.62,-513.93 331.62,-505.38 331.62,-496"/>
<polygon fill="black" stroke="black" points="335.13,-496.17 331.63,-486.17 328.13,-496.17 335.13,-496.17"/>
</g>
<!-- check_progress -->
<g id="node5" class="node">
<title>check_progress</title>
<polygon fill="#fff3e0" stroke="black" points="246.62,-251.25 134.63,-213.25 246.62,-175.25 358.62,-213.25 246.62,-251.25"/>
<text xml:space="preserve" text-anchor="middle" x="246.62" y="-214.95" font-family="Helvetica,sans-Serif" font-size="14.00">Check Progress</text>
<text xml:space="preserve" text-anchor="middle" x="246.62" y="-199.95" font-family="Helvetica,sans-Serif" font-size="14.00">(condition)</text>
</g>
<!-- validate_batch&#45;&gt;check_progress -->
<g id="edge4" class="edge">
<title>validate_batch&#45;&gt;check_progress</title>
<path fill="none" stroke="black" d="M283.17,-287.76C277.69,-276.75 272.35,-266 267.52,-256.28"/>
<polygon fill="black" stroke="black" points="270.75,-254.92 263.16,-247.52 264.48,-258.03 270.75,-254.92"/>
</g>
<!-- generate_more -->
<g id="node6" class="node">
<title>generate_more</title>
<path fill="#e3f2fd" stroke="black" d="M183.25,-128C183.25,-128 12,-128 12,-128 6,-128 0,-122 0,-116 0,-116 0,-87 0,-87 0,-81 6,-75 12,-75 12,-75 183.25,-75 183.25,-75 189.25,-75 195.25,-81 195.25,-87 195.25,-87 195.25,-116 195.25,-116 195.25,-122 189.25,-128 183.25,-128"/>
<text xml:space="preserve" text-anchor="middle" x="97.62" y="-110.7" font-family="Helvetica,sans-Serif" font-size="14.00">Generate Additional Solutions</text>
<text xml:space="preserve" text-anchor="middle" x="97.62" y="-95.7" font-family="Helvetica,sans-Serif" font-size="14.00">(agent)</text>
<text xml:space="preserve" text-anchor="middle" x="97.62" y="-80.7" font-family="Helvetica,sans-Serif" font-size="14.00">role: executor</text>
</g>
<!-- check_progress&#45;&gt;generate_more -->
<g id="edge6" class="edge">
<title>check_progress&#45;&gt;generate_more</title>
<path fill="none" stroke="black" stroke-dasharray="5,2" d="M212.07,-186.8C191.14,-171.38 164.24,-151.56 141.77,-135.02"/>
<polygon fill="black" stroke="black" points="144.12,-132.4 133.99,-129.29 139.97,-138.03 144.12,-132.4"/>
<text xml:space="preserve" text-anchor="middle" x="191.66" y="-147.75" font-family="Helvetica,sans-Serif" font-size="10.00">need_more</text>
</g>
<!-- calculate_final_metrics -->
<g id="node8" class="node">
<title>calculate_final_metrics</title>
<polygon fill="#eceff1" stroke="black" points="373.62,-120.5 213.62,-120.5 213.62,-82.5 373.62,-82.5 373.62,-120.5"/>
<text xml:space="preserve" text-anchor="middle" x="293.62" y="-103.2" font-family="Helvetica,sans-Serif" font-size="14.00">Calculate Final Pass@k</text>
<text xml:space="preserve" text-anchor="middle" x="293.62" y="-88.2" font-family="Helvetica,sans-Serif" font-size="14.00">(transform)</text>
</g>
<!-- check_progress&#45;&gt;calculate_final_metrics -->
<g id="edge5" class="edge">
<title>check_progress&#45;&gt;calculate_final_metrics</title>
<path fill="none" stroke="black" stroke-dasharray="5,2" d="M236.36,-178.36C234.86,-167.59 235.15,-155.91 239.88,-146 243,-139.46 247.63,-133.58 252.9,-128.42"/>
<polygon fill="black" stroke="black" points="255.16,-131.1 260.42,-121.9 250.57,-125.81 255.16,-131.1"/>
<text xml:space="preserve" text-anchor="middle" x="259.75" y="-147.75" font-family="Helvetica,sans-Serif" font-size="10.00">sufficient</text>
</g>
<!-- check_progress&#45;&gt;calculate_final_metrics -->
<g id="edge7" class="edge">
<title>check_progress&#45;&gt;calculate_final_metrics</title>
<path fill="none" stroke="black" stroke-dasharray="5,2" d="M266.93,-181.95C271.57,-174.14 276.15,-165.57 279.62,-157.25 282.96,-149.25 285.67,-140.25 287.77,-131.89"/>
<polygon fill="black" stroke="black" points="291.18,-132.69 290.02,-122.15 284.36,-131.11 291.18,-132.69"/>
<text xml:space="preserve" text-anchor="middle" x="312.63" y="-147.75" font-family="Helvetica,sans-Serif" font-size="10.00">max_reached</text>
</g>
<!-- merge_solutions -->
<g id="node7" class="node">
<title>merge_solutions</title>
<polygon fill="#eceff1" stroke="black" points="306.75,-38 192.5,-38 192.5,0 306.75,0 306.75,-38"/>
<text xml:space="preserve" text-anchor="middle" x="249.62" y="-20.7" font-family="Helvetica,sans-Serif" font-size="14.00">Merge Solutions</text>
<text xml:space="preserve" text-anchor="middle" x="249.62" y="-5.7" font-family="Helvetica,sans-Serif" font-size="14.00">(transform)</text>
</g>
<!-- generate_more&#45;&gt;merge_solutions -->
<g id="edge8" class="edge">
<title>generate_more&#45;&gt;merge_solutions</title>
<path fill="none" stroke="black" d="M146.56,-74.59C165.21,-64.7 186.38,-53.5 204.65,-43.82"/>
<polygon fill="black" stroke="black" points="206.22,-46.95 213.42,-39.18 202.94,-40.76 206.22,-46.95"/>
</g>
<!-- merge_solutions&#45;&gt;validate_batch -->
<g id="edge9" class="edge">
<title>merge_solutions&#45;&gt;validate_batch</title>
<path fill="none" stroke="black" d="M307.21,-28.69C334.94,-36.09 365.75,-49.76 382.62,-75 422.21,-134.21 408.19,-213.67 384.93,-277.34"/>
<polygon fill="black" stroke="black" points="381.77,-275.82 381.5,-286.41 388.31,-278.29 381.77,-275.82"/>
</g>
</g>
</svg>
