<?xml version="1.0" encoding="UTF-8" standalone="no"?>
<!DOCTYPE svg PUBLIC "-//W3C//DTD SVG 1.1//EN"
 "http://www.w3.org/Graphics/SVG/1.1/DTD/svg11.dtd">
<!-- Generated by graphviz version 14.0.4 (20251115.1723)
 -->
<!-- Title: workflow Pages: 1 -->
<svg width="392pt" height="622pt"
 viewBox="0.00 0.00 392.00 622.00" xmlns="http://www.w3.org/2000/svg" xmlns:xlink="http://www.w3.org/1999/xlink">
<g id="graph0" class="graph" transform="scale(1 1) rotate(0) translate(4 617.75)">
<title>workflow</title>
<polygon fill="white" stroke="none" points="-4,4 -4,-617.75 387.53,-617.75 387.53,4 -4,4"/>
<text xml:space="preserve" text-anchor="middle" x="191.76" y="-596.45" font-family="Times,serif" font-size="14.00">rename</text>
<!-- find_symbol -->
<g id="node1" class="node">
<title>find_symbol</title>
<path fill="#e3f2fd" stroke="black" d="M285,-589.25C285,-589.25 198.5,-589.25 198.5,-589.25 192.5,-589.25 186.5,-583.25 186.5,-577.25 186.5,-577.25 186.5,-548.25 186.5,-548.25 186.5,-542.25 192.5,-536.25 198.5,-536.25 198.5,-536.25 285,-536.25 285,-536.25 291,-536.25 297,-542.25 297,-548.25 297,-548.25 297,-577.25 297,-577.25 297,-583.25 291,-589.25 285,-589.25"/>
<text xml:space="preserve" text-anchor="middle" x="241.75" y="-571.95" font-family="Helvetica,sans-Serif" font-size="14.00">Find Symbol</text>
<text xml:space="preserve" text-anchor="middle" x="241.75" y="-556.95" font-family="Helvetica,sans-Serif" font-size="14.00">(agent)</text>
<text xml:space="preserve" text-anchor="middle" x="241.75" y="-541.95" font-family="Helvetica,sans-Serif" font-size="14.00">role: researcher</text>
</g>
<!-- apply_rename -->
<g id="node2" class="node">
<title>apply_rename</title>
<path fill="#e3f2fd" stroke="black" d="M282.38,-499.25C282.38,-499.25 201.12,-499.25 201.12,-499.25 195.12,-499.25 189.12,-493.25 189.12,-487.25 189.12,-487.25 189.12,-458.25 189.12,-458.25 189.12,-452.25 195.12,-446.25 201.12,-446.25 201.12,-446.25 282.38,-446.25 282.38,-446.25 288.38,-446.25 294.38,-452.25 294.38,-458.25 294.38,-458.25 294.38,-487.25 294.38,-487.25 294.38,-493.25 288.38,-499.25 282.38,-499.25"/>
<text xml:space="preserve" text-anchor="middle" x="241.75" y="-481.95" font-family="Helvetica,sans-Serif" font-size="14.00">Apply Rename</text>
<text xml:space="preserve" text-anchor="middle" x="241.75" y="-466.95" font-family="Helvetica,sans-Serif" font-size="14.00">(agent)</text>
<text xml:space="preserve" text-anchor="middle" x="241.75" y="-451.95" font-family="Helvetica,sans-Serif" font-size="14.00">role: executor</text>
</g>
<!-- find_symbol&#45;&gt;apply_rename -->
<g id="edge1" class="edge">
<title>find_symbol&#45;&gt;apply_rename</title>
<path fill="none" stroke="black" d="M241.75,-535.82C241.75,-528.04 241.75,-519.33 241.75,-510.97"/>
<polygon fill="black" stroke="black" points="245.25,-511.01 241.75,-501.01 238.25,-511.01 245.25,-511.01"/>
</g>
<!-- verify_rename -->
<g id="node3" class="node">
<title>verify_rename</title>
<polygon fill="#e8f5e9" stroke="black" points="383.53,-409.25 157.99,-409.25 99.97,-213.25 325.51,-213.25 383.53,-409.25"/>
<text xml:space="preserve" text-anchor="middle" x="241.75" y="-342.95" font-family="Helvetica,sans-Serif" font-size="14.00">Verify Rename</text>
<text xml:space="preserve" text-anchor="middle" x="241.75" y="-327.95" font-family="Helvetica,sans-Serif" font-size="14.00">(compute)</text>
<text xml:space="preserve" text-anchor="middle" x="241.75" y="-312.95" font-family="Helvetica,sans-Serif" font-size="14.00">exec: in&#45;process</text>
<text xml:space="preserve" text-anchor="middle" x="241.75" y="-297.95" font-family="Helvetica,sans-Serif" font-size="14.00">handler: test_runner</text>
<text xml:space="preserve" text-anchor="middle" x="241.75" y="-282.95" font-family="Helvetica,sans-Serif" font-size="14.00">blocked: [llm, write]</text>
<text xml:space="preserve" text-anchor="middle" x="241.75" y="-267.95" font-family="Helvetica,sans-Serif" font-size="14.00">timeout: 120s</text>
</g>
<!-- apply_rename&#45;&gt;verify_rename -->
<g id="edge2" class="edge">
<title>apply_rename&#45;&gt;verify_rename</title>
<path fill="none" stroke="black" d="M241.75,-445.77C241.75,-438.43 241.75,-429.95 241.75,-420.89"/>
<polygon fill="black" stroke="black" points="245.25,-421.11 241.75,-411.11 238.25,-421.11 245.25,-421.11"/>
</g>
<!-- check_rename -->
<g id="node4" class="node">
<title>check_rename</title>
<polygon fill="#fff3e0" stroke="black" points="151.75,-176.25 0,-138.25 151.75,-100.25 303.5,-138.25 151.75,-176.25"/>
<text xml:space="preserve" text-anchor="middle" x="151.75" y="-139.95" font-family="Helvetica,sans-Serif" font-size="14.00">Check Rename Result</text>
<text xml:space="preserve" text-anchor="middle" x="151.75" y="-124.95" font-family="Helvetica,sans-Serif" font-size="14.00">(condition)</text>
</g>
<!-- verify_rename&#45;&gt;check_rename -->
<g id="edge3" class="edge">
<title>verify_rename&#45;&gt;check_rename</title>
<path fill="none" stroke="black" d="M190.44,-212.76C184.82,-202.08 179.33,-191.65 174.33,-182.16"/>
<polygon fill="black" stroke="black" points="177.58,-180.82 169.83,-173.6 171.39,-184.08 177.58,-180.82"/>
</g>
<!-- fix_rename -->
<g id="node5" class="node">
<title>fix_rename</title>
<path fill="#e3f2fd" stroke="black" d="M334.88,-53C334.88,-53 226.62,-53 226.62,-53 220.62,-53 214.62,-47 214.62,-41 214.62,-41 214.62,-12 214.62,-12 214.62,-6 220.62,0 226.62,0 226.62,0 334.88,0 334.88,0 340.88,0 346.88,-6 346.88,-12 346.88,-12 346.88,-41 346.88,-41 346.88,-47 340.88,-53 334.88,-53"/>
<text xml:space="preserve" text-anchor="middle" x="280.75" y="-35.7" font-family="Helvetica,sans-Serif" font-size="14.00">Fix Rename Issues</text>
<text xml:space="preserve" text-anchor="middle" x="280.75" y="-20.7" font-family="Helvetica,sans-Serif" font-size="14.00">(agent)</text>
<text xml:space="preserve" text-anchor="middle" x="280.75" y="-5.7" font-family="Helvetica,sans-Serif" font-size="14.00">role: executor</text>
</g>
<!-- check_rename&#45;&gt;fix_rename -->
<g id="edge5" class="edge">
<title>check_rename&#45;&gt;fix_rename</title>
<path fill="none" stroke="black" stroke-dasharray="5,2" d="M185.64,-108.41C202.96,-93.68 224.12,-75.68 242.07,-60.4"/>
<polygon fill="black" stroke="black" points="244.1,-63.28 249.45,-54.13 239.56,-57.94 244.1,-63.28"/>
<text xml:space="preserve" text-anchor="middle" x="240.55" y="-72.75" font-family="Helvetica,sans-Serif" font-size="10.00">failing</text>
</g>
<!-- complete -->
<g id="node6" class="node">
<title>complete</title>
<polygon fill="#eceff1" stroke="black" points="184.12,-45.5 101.38,-45.5 101.38,-7.5 184.12,-7.5 184.12,-45.5"/>
<text xml:space="preserve" text-anchor="middle" x="142.75" y="-28.2" font-family="Helvetica,sans-Serif" font-size="14.00">Complete</text>
<text xml:space="preserve" text-anchor="middle" x="142.75" y="-13.2" font-family="Helvetica,sans-Serif" font-size="14.00">(transform)</text>
</g>
<!-- check_rename&#45;&gt;complete -->
<g id="edge4" class="edge">
<title>check_rename&#45;&gt;complete</title>
<path fill="none" stroke="black" stroke-dasharray="5,2" d="M136.94,-103.76C134.47,-96.78 132.3,-89.38 131,-82.25 129.49,-73.99 130.34,-65.08 132.12,-56.89"/>
<polygon fill="black" stroke="black" points="135.46,-57.97 134.72,-47.4 128.7,-56.12 135.46,-57.97"/>
<text xml:space="preserve" text-anchor="middle" x="147.88" y="-72.75" font-family="Helvetica,sans-Serif" font-size="10.00">passing</text>
</g>
<!-- check_rename&#45;&gt;complete -->
<g id="edge6" class="edge">
<title>check_rename&#45;&gt;complete</title>
<path fill="none" stroke="black" stroke-dasharray="5,2" d="M164.07,-103.09C166.3,-92.75 167.22,-81.38 164.75,-71 163.55,-65.96 161.66,-60.83 159.48,-55.96"/>
<polygon fill="black" stroke="black" points="162.69,-54.55 155.09,-47.17 156.43,-57.68 162.69,-54.55"/>
<text xml:space="preserve" text-anchor="middle" x="184.92" y="-72.75" font-family="Helvetica,sans-Serif" font-size="10.00">no_tests</text>
</g>
<!-- fix_rename&#45;&gt;verify_rename -->
<g id="edge7" class="edge">
<title>fix_rename&#45;&gt;verify_rename</title>
<path fill="none" stroke="black" d="M295.2,-53.23C301.98,-66.77 309.32,-83.91 312.75,-100.25 319.7,-133.31 320.9,-143.47 312.75,-176.25 310.58,-184.97 307.73,-193.74 304.42,-202.41"/>
<polygon fill="black" stroke="black" points="301.24,-200.92 300.73,-211.5 307.73,-203.55 301.24,-200.92"/>
</g>
</g>
</svg>
