<?xml version="1.0" encoding="UTF-8" standalone="no"?>
<!DOCTYPE svg PUBLIC "-//W3C//DTD SVG 1.1//EN"
 "http://www.w3.org/Graphics/SVG/1.1/DTD/svg11.dtd">
<!-- Generated by graphviz version 14.0.4 (20251115.1723)
 -->
<!-- Title: workflow Pages: 1 -->
<svg width="292pt" height="481pt"
 viewBox="0.00 0.00 292.00 481.00" xmlns="http://www.w3.org/2000/svg" xmlns:xlink="http://www.w3.org/1999/xlink">
<g id="graph0" class="graph" transform="scale(1 1) rotate(0) translate(4 476.5)">
<title>workflow</title>
<polygon fill="white" stroke="none" points="-4,4 -4,-476.5 287.55,-476.5 287.55,4 -4,4"/>
<text xml:space="preserve" text-anchor="middle" x="141.78" y="-455.2" font-family="Times,serif" font-size="14.00">quick_fix</text>
<!-- locate_bug -->
<g id="node1" class="node">
<title>locate_bug</title>
<path fill="#e3f2fd" stroke="black" d="M185.03,-448C185.03,-448 98.53,-448 98.53,-448 92.53,-448 86.53,-442 86.53,-436 86.53,-436 86.53,-407 86.53,-407 86.53,-401 92.53,-395 98.53,-395 98.53,-395 185.03,-395 185.03,-395 191.03,-395 197.03,-401 197.03,-407 197.03,-407 197.03,-436 197.03,-436 197.03,-442 191.03,-448 185.03,-448"/>
<text xml:space="preserve" text-anchor="middle" x="141.78" y="-430.7" font-family="Helvetica,sans-Serif" font-size="14.00">Locate Bug</text>
<text xml:space="preserve" text-anchor="middle" x="141.78" y="-415.7" font-family="Helvetica,sans-Serif" font-size="14.00">(agent)</text>
<text xml:space="preserve" text-anchor="middle" x="141.78" y="-400.7" font-family="Helvetica,sans-Serif" font-size="14.00">role: researcher</text>
</g>
<!-- fix_bug -->
<g id="node2" class="node">
<title>fix_bug</title>
<path fill="#e3f2fd" stroke="black" d="M178.65,-359C178.65,-359 104.9,-359 104.9,-359 98.9,-359 92.9,-353 92.9,-347 92.9,-347 92.9,-318 92.9,-318 92.9,-312 98.9,-306 104.9,-306 104.9,-306 178.65,-306 178.65,-306 184.65,-306 190.65,-312 190.65,-318 190.65,-318 190.65,-347 190.65,-347 190.65,-353 184.65,-359 178.65,-359"/>
<text xml:space="preserve" text-anchor="middle" x="141.78" y="-341.7" font-family="Helvetica,sans-Serif" font-size="14.00">Fix Bug</text>
<text xml:space="preserve" text-anchor="middle" x="141.78" y="-326.7" font-family="Helvetica,sans-Serif" font-size="14.00">(agent)</text>
<text xml:space="preserve" text-anchor="middle" x="141.78" y="-311.7" font-family="Helvetica,sans-Serif" font-size="14.00">role: executor</text>
</g>
<!-- locate_bug&#45;&gt;fix_bug -->
<g id="edge1" class="edge">
<title>locate_bug&#45;&gt;fix_bug</title>
<path fill="none" stroke="black" d="M141.78,-394.87C141.78,-387.24 141.78,-378.72 141.78,-370.51"/>
<polygon fill="black" stroke="black" points="145.28,-370.76 141.78,-360.76 138.28,-370.76 145.28,-370.76"/>
</g>
<!-- verify_fix -->
<g id="node3" class="node">
<title>verify_fix</title>
<polygon fill="#e8f5e9" stroke="black" points="283.55,-270 58.02,-270 0,-74 225.53,-74 283.55,-270"/>
<text xml:space="preserve" text-anchor="middle" x="141.78" y="-203.7" font-family="Helvetica,sans-Serif" font-size="14.00">Verify Fix</text>
<text xml:space="preserve" text-anchor="middle" x="141.78" y="-188.7" font-family="Helvetica,sans-Serif" font-size="14.00">(compute)</text>
<text xml:space="preserve" text-anchor="middle" x="141.78" y="-173.7" font-family="Helvetica,sans-Serif" font-size="14.00">exec: in&#45;process</text>
<text xml:space="preserve" text-anchor="middle" x="141.78" y="-158.7" font-family="Helvetica,sans-Serif" font-size="14.00">handler: test_runner</text>
<text xml:space="preserve" text-anchor="middle" x="141.78" y="-143.7" font-family="Helvetica,sans-Serif" font-size="14.00">blocked: [llm, write]</text>
<text xml:space="preserve" text-anchor="middle" x="141.78" y="-128.7" font-family="Helvetica,sans-Serif" font-size="14.00">timeout: 120s</text>
</g>
<!-- fix_bug&#45;&gt;verify_fix -->
<g id="edge2" class="edge">
<title>fix_bug&#45;&gt;verify_fix</title>
<path fill="none" stroke="black" d="M141.78,-305.68C141.78,-298.59 141.78,-290.43 141.78,-281.71"/>
<polygon fill="black" stroke="black" points="145.28,-281.93 141.78,-271.93 138.28,-281.93 145.28,-281.93"/>
</g>
<!-- done -->
<g id="node4" class="node">
<title>done</title>
<polygon fill="#eceff1" stroke="black" points="183.15,-38 100.4,-38 100.4,0 183.15,0 183.15,-38"/>
<text xml:space="preserve" text-anchor="middle" x="141.78" y="-20.7" font-family="Helvetica,sans-Serif" font-size="14.00">Complete</text>
<text xml:space="preserve" text-anchor="middle" x="141.78" y="-5.7" font-family="Helvetica,sans-Serif" font-size="14.00">(transform)</text>
</g>
<!-- verify_fix&#45;&gt;done -->
<g id="edge3" class="edge">
<title>verify_fix&#45;&gt;done</title>
<path fill="none" stroke="black" d="M141.78,-73.66C141.78,-65.03 141.78,-56.82 141.78,-49.53"/>
<polygon fill="black" stroke="black" points="145.28,-49.74 141.78,-39.74 138.28,-49.74 145.28,-49.74"/>
</g>
</g>
</svg>
