<?xml version="1.0" encoding="UTF-8" standalone="no"?>
<!DOCTYPE svg PUBLIC "-//W3C//DTD SVG 1.1//EN"
 "http://www.w3.org/Graphics/SVG/1.1/DTD/svg11.dtd">
<!-- Generated by graphviz version 14.0.4 (20251115.1723)
 -->
<!-- Title: workflow Pages: 1 -->
<svg width="298pt" height="712pt"
 viewBox="0.00 0.00 298.00 712.00" xmlns="http://www.w3.org/2000/svg" xmlns:xlink="http://www.w3.org/1999/xlink">
<g id="graph0" class="graph" transform="scale(1 1) rotate(0) translate(4 707.75)">
<title>workflow</title>
<polygon fill="white" stroke="none" points="-4,4 -4,-707.75 294.28,-707.75 294.28,4 -4,4"/>
<text xml:space="preserve" text-anchor="middle" x="145.14" y="-686.45" font-family="Times,serif" font-size="14.00">optimize</text>
<!-- profile_code -->
<g id="node1" class="node">
<title>profile_code</title>
<path fill="#e3f2fd" stroke="black" d="M191.75,-679.25C191.75,-679.25 105.25,-679.25 105.25,-679.25 99.25,-679.25 93.25,-673.25 93.25,-667.25 93.25,-667.25 93.25,-638.25 93.25,-638.25 93.25,-632.25 99.25,-626.25 105.25,-626.25 105.25,-626.25 191.75,-626.25 191.75,-626.25 197.75,-626.25 203.75,-632.25 203.75,-638.25 203.75,-638.25 203.75,-667.25 203.75,-667.25 203.75,-673.25 197.75,-679.25 191.75,-679.25"/>
<text xml:space="preserve" text-anchor="middle" x="148.5" y="-661.95" font-family="Helvetica,sans-Serif" font-size="14.00">Profile Code</text>
<text xml:space="preserve" text-anchor="middle" x="148.5" y="-646.95" font-family="Helvetica,sans-Serif" font-size="14.00">(agent)</text>
<text xml:space="preserve" text-anchor="middle" x="148.5" y="-631.95" font-family="Helvetica,sans-Serif" font-size="14.00">role: researcher</text>
</g>
<!-- plan_optimization -->
<g id="node2" class="node">
<title>plan_optimization</title>
<path fill="#e3f2fd" stroke="black" d="M198.12,-589.25C198.12,-589.25 98.88,-589.25 98.88,-589.25 92.88,-589.25 86.88,-583.25 86.88,-577.25 86.88,-577.25 86.88,-548.25 86.88,-548.25 86.88,-542.25 92.88,-536.25 98.88,-536.25 98.88,-536.25 198.12,-536.25 198.12,-536.25 204.12,-536.25 210.12,-542.25 210.12,-548.25 210.12,-548.25 210.12,-577.25 210.12,-577.25 210.12,-583.25 204.12,-589.25 198.12,-589.25"/>
<text xml:space="preserve" text-anchor="middle" x="148.5" y="-571.95" font-family="Helvetica,sans-Serif" font-size="14.00">Plan Optimization</text>
<text xml:space="preserve" text-anchor="middle" x="148.5" y="-556.95" font-family="Helvetica,sans-Serif" font-size="14.00">(agent)</text>
<text xml:space="preserve" text-anchor="middle" x="148.5" y="-541.95" font-family="Helvetica,sans-Serif" font-size="14.00">role: planner</text>
</g>
<!-- profile_code&#45;&gt;plan_optimization -->
<g id="edge1" class="edge">
<title>profile_code&#45;&gt;plan_optimization</title>
<path fill="none" stroke="black" d="M148.5,-625.82C148.5,-618.04 148.5,-609.33 148.5,-600.97"/>
<polygon fill="black" stroke="black" points="152,-601.01 148.5,-591.01 145,-601.01 152,-601.01"/>
</g>
<!-- apply_optimization -->
<g id="node3" class="node">
<title>apply_optimization</title>
<path fill="#e3f2fd" stroke="black" d="M204.88,-499.25C204.88,-499.25 92.12,-499.25 92.12,-499.25 86.12,-499.25 80.12,-493.25 80.12,-487.25 80.12,-487.25 80.12,-458.25 80.12,-458.25 80.12,-452.25 86.12,-446.25 92.12,-446.25 92.12,-446.25 204.88,-446.25 204.88,-446.25 210.88,-446.25 216.88,-452.25 216.88,-458.25 216.88,-458.25 216.88,-487.25 216.88,-487.25 216.88,-493.25 210.88,-499.25 204.88,-499.25"/>
<text xml:space="preserve" text-anchor="middle" x="148.5" y="-481.95" font-family="Helvetica,sans-Serif" font-size="14.00">Apply Optimizations</text>
<text xml:space="preserve" text-anchor="middle" x="148.5" y="-466.95" font-family="Helvetica,sans-Serif" font-size="14.00">(agent)</text>
<text xml:space="preserve" text-anchor="middle" x="148.5" y="-451.95" font-family="Helvetica,sans-Serif" font-size="14.00">role: executor</text>
</g>
<!-- plan_optimization&#45;&gt;apply_optimization -->
<g id="edge2" class="edge">
<title>plan_optimization&#45;&gt;apply_optimization</title>
<path fill="none" stroke="black" d="M148.5,-535.82C148.5,-528.04 148.5,-519.33 148.5,-510.97"/>
<polygon fill="black" stroke="black" points="152,-511.01 148.5,-501.01 145,-511.01 152,-511.01"/>
</g>
<!-- verify_optimization -->
<g id="node4" class="node">
<title>verify_optimization</title>
<polygon fill="#e8f5e9" stroke="black" points="290.28,-409.25 64.74,-409.25 6.72,-213.25 232.26,-213.25 290.28,-409.25"/>
<text xml:space="preserve" text-anchor="middle" x="148.5" y="-342.95" font-family="Helvetica,sans-Serif" font-size="14.00">Verify Optimization</text>
<text xml:space="preserve" text-anchor="middle" x="148.5" y="-327.95" font-family="Helvetica,sans-Serif" font-size="14.00">(compute)</text>
<text xml:space="preserve" text-anchor="middle" x="148.5" y="-312.95" font-family="Helvetica,sans-Serif" font-size="14.00">exec: in&#45;process</text>
<text xml:space="preserve" text-anchor="middle" x="148.5" y="-297.95" font-family="Helvetica,sans-Serif" font-size="14.00">handler: test_runner</text>
<text xml:space="preserve" text-anchor="middle" x="148.5" y="-282.95" font-family="Helvetica,sans-Serif" font-size="14.00">blocked: [llm, write]</text>
<text xml:space="preserve" text-anchor="middle" x="148.5" y="-267.95" font-family="Helvetica,sans-Serif" font-size="14.00">timeout: 180s</text>
</g>
<!-- apply_optimization&#45;&gt;verify_optimization -->
<g id="edge3" class="edge">
<title>apply_optimization&#45;&gt;verify_optimization</title>
<path fill="none" stroke="black" d="M148.5,-445.77C148.5,-438.43 148.5,-429.95 148.5,-420.89"/>
<polygon fill="black" stroke="black" points="152,-421.11 148.5,-411.11 145,-421.11 152,-421.11"/>
</g>
<!-- check_tests -->
<g id="node5" class="node">
<title>check_tests</title>
<polygon fill="#fff3e0" stroke="black" points="89.5,-176.25 0,-138.25 89.5,-100.25 179,-138.25 89.5,-176.25"/>
<text xml:space="preserve" text-anchor="middle" x="89.5" y="-139.95" font-family="Helvetica,sans-Serif" font-size="14.00">Check Tests</text>
<text xml:space="preserve" text-anchor="middle" x="89.5" y="-124.95" font-family="Helvetica,sans-Serif" font-size="14.00">(condition)</text>
</g>
<!-- verify_optimization&#45;&gt;check_tests -->
<g id="edge4" class="edge">
<title>verify_optimization&#45;&gt;check_tests</title>
<path fill="none" stroke="black" d="M114.86,-212.76C111.22,-202.2 107.66,-191.88 104.41,-182.47"/>
<polygon fill="black" stroke="black" points="107.83,-181.63 101.26,-173.32 101.21,-183.92 107.83,-181.63"/>
</g>
<!-- fix_issues -->
<g id="node6" class="node">
<title>fix_issues</title>
<path fill="#e3f2fd" stroke="black" d="M221.38,-53C221.38,-53 147.62,-53 147.62,-53 141.62,-53 135.62,-47 135.62,-41 135.62,-41 135.62,-12 135.62,-12 135.62,-6 141.62,0 147.62,0 147.62,0 221.38,0 221.38,0 227.38,0 233.38,-6 233.38,-12 233.38,-12 233.38,-41 233.38,-41 233.38,-47 227.38,-53 221.38,-53"/>
<text xml:space="preserve" text-anchor="middle" x="184.5" y="-35.7" font-family="Helvetica,sans-Serif" font-size="14.00">Fix Issues</text>
<text xml:space="preserve" text-anchor="middle" x="184.5" y="-20.7" font-family="Helvetica,sans-Serif" font-size="14.00">(agent)</text>
<text xml:space="preserve" text-anchor="middle" x="184.5" y="-5.7" font-family="Helvetica,sans-Serif" font-size="14.00">role: executor</text>
</g>
<!-- check_tests&#45;&gt;fix_issues -->
<g id="edge6" class="edge">
<title>check_tests&#45;&gt;fix_issues</title>
<path fill="none" stroke="black" stroke-dasharray="5,2" d="M113.23,-109.84C125.84,-95.27 141.47,-77.22 154.87,-61.73"/>
<polygon fill="black" stroke="black" points="157.17,-64.43 161.06,-54.58 151.87,-59.85 157.17,-64.43"/>
<text xml:space="preserve" text-anchor="middle" x="158.26" y="-72.75" font-family="Helvetica,sans-Serif" font-size="10.00">failing</text>
</g>
<!-- complete -->
<g id="node7" class="node">
<title>complete</title>
<polygon fill="#eceff1" stroke="black" points="108.88,-45.5 26.12,-45.5 26.12,-7.5 108.88,-7.5 108.88,-45.5"/>
<text xml:space="preserve" text-anchor="middle" x="67.5" y="-28.2" font-family="Helvetica,sans-Serif" font-size="14.00">Complete</text>
<text xml:space="preserve" text-anchor="middle" x="67.5" y="-13.2" font-family="Helvetica,sans-Serif" font-size="14.00">(transform)</text>
</g>
<!-- check_tests&#45;&gt;complete -->
<g id="edge5" class="edge">
<title>check_tests&#45;&gt;complete</title>
<path fill="none" stroke="black" stroke-dasharray="5,2" d="M59.02,-112.81C50.48,-104.17 42.29,-93.71 37.75,-82.25 34.1,-73.04 36.86,-63.42 41.92,-54.86"/>
<polygon fill="black" stroke="black" points="44.6,-57.14 47.52,-46.95 38.88,-53.09 44.6,-57.14"/>
<text xml:space="preserve" text-anchor="middle" x="54.62" y="-72.75" font-family="Helvetica,sans-Serif" font-size="10.00">passing</text>
</g>
<!-- check_tests&#45;&gt;complete -->
<g id="edge7" class="edge">
<title>check_tests&#45;&gt;complete</title>
<path fill="none" stroke="black" stroke-dasharray="5,2" d="M82.6,-102.83C79.65,-88.09 76.23,-71.06 73.4,-56.93"/>
<polygon fill="black" stroke="black" points="76.87,-56.45 71.48,-47.33 70.01,-57.83 76.87,-56.45"/>
<text xml:space="preserve" text-anchor="middle" x="96.59" y="-72.75" font-family="Helvetica,sans-Serif" font-size="10.00">no_tests</text>
</g>
<!-- fix_issues&#45;&gt;verify_optimization -->
<g id="edge8" class="edge">
<title>fix_issues&#45;&gt;verify_optimization</title>
<path fill="none" stroke="black" d="M186.27,-53.41C187.13,-67.3 188.07,-84.7 188.5,-100.25 189.43,-134.02 193.38,-142.83 188.5,-176.25 187.27,-184.7 185.62,-193.35 183.69,-201.99"/>
<polygon fill="black" stroke="black" points="180.35,-200.91 181.46,-211.45 187.16,-202.52 180.35,-200.91"/>
</g>
</g>
</svg>
