<?xml version="1.0" encoding="UTF-8" standalone="no"?>
<!DOCTYPE svg PUBLIC "-//W3C//DTD SVG 1.1//EN"
 "http://www.w3.org/Graphics/SVG/1.1/DTD/svg11.dtd">
<!-- Generated by graphviz version 14.0.4 (20251115.1723)
 -->
<!-- Title: workflow Pages: 1 -->
<svg width="624pt" height="2390pt"
 viewBox="0.00 0.00 624.00 2390.00" xmlns="http://www.w3.org/2000/svg" xmlns:xlink="http://www.w3.org/1999/xlink">
<g id="graph0" class="graph" transform="scale(1 1) rotate(0) translate(4 2386.41)">
<title>workflow</title>
<polygon fill="white" stroke="none" points="-4,4 -4,-2386.41 619.62,-2386.41 619.62,4 -4,4"/>
<text xml:space="preserve" text-anchor="middle" x="307.81" y="-2365.11" font-family="Times,serif" font-size="14.00">feature_implementation</text>
<!-- analyze_request -->
<g id="node1" class="node">
<title>analyze_request</title>
<path fill="#e3f2fd" stroke="black" d="M380.25,-2357.91C380.25,-2357.91 236,-2357.91 236,-2357.91 230,-2357.91 224,-2351.91 224,-2345.91 224,-2345.91 224,-2316.91 224,-2316.91 224,-2310.91 230,-2304.91 236,-2304.91 236,-2304.91 380.25,-2304.91 380.25,-2304.91 386.25,-2304.91 392.25,-2310.91 392.25,-2316.91 392.25,-2316.91 392.25,-2345.91 392.25,-2345.91 392.25,-2351.91 386.25,-2357.91 380.25,-2357.91"/>
<text xml:space="preserve" text-anchor="middle" x="308.12" y="-2340.61" font-family="Helvetica,sans-Serif" font-size="14.00">Analyze Feature Request</text>
<text xml:space="preserve" text-anchor="middle" x="308.12" y="-2325.61" font-family="Helvetica,sans-Serif" font-size="14.00">(agent)</text>
<text xml:space="preserve" text-anchor="middle" x="308.12" y="-2310.61" font-family="Helvetica,sans-Serif" font-size="14.00">role: researcher</text>
</g>
<!-- check_complexity -->
<g id="node2" class="node">
<title>check_complexity</title>
<polygon fill="#fff3e0" stroke="black" points="308.12,-2267.91 177.38,-2229.91 308.12,-2191.91 438.88,-2229.91 308.12,-2267.91"/>
<text xml:space="preserve" text-anchor="middle" x="308.12" y="-2231.61" font-family="Helvetica,sans-Serif" font-size="14.00">Assess Complexity</text>
<text xml:space="preserve" text-anchor="middle" x="308.12" y="-2216.61" font-family="Helvetica,sans-Serif" font-size="14.00">(condition)</text>
</g>
<!-- analyze_request&#45;&gt;check_complexity -->
<g id="edge1" class="edge">
<title>analyze_request&#45;&gt;check_complexity</title>
<path fill="none" stroke="black" d="M308.12,-2304.52C308.12,-2296.84 308.12,-2288.15 308.12,-2279.52"/>
<polygon fill="black" stroke="black" points="311.63,-2279.79 308.13,-2269.79 304.63,-2279.79 311.63,-2279.79"/>
</g>
<!-- quick_implement -->
<g id="node3" class="node">
<title>quick_implement</title>
<path fill="#e3f2fd" stroke="black" d="M338.5,-2073.66C338.5,-2073.66 213.75,-2073.66 213.75,-2073.66 207.75,-2073.66 201.75,-2067.66 201.75,-2061.66 201.75,-2061.66 201.75,-2032.66 201.75,-2032.66 201.75,-2026.66 207.75,-2020.66 213.75,-2020.66 213.75,-2020.66 338.5,-2020.66 338.5,-2020.66 344.5,-2020.66 350.5,-2026.66 350.5,-2032.66 350.5,-2032.66 350.5,-2061.66 350.5,-2061.66 350.5,-2067.66 344.5,-2073.66 338.5,-2073.66"/>
<text xml:space="preserve" text-anchor="middle" x="276.12" y="-2056.36" font-family="Helvetica,sans-Serif" font-size="14.00">Quick Implementation</text>
<text xml:space="preserve" text-anchor="middle" x="276.12" y="-2041.36" font-family="Helvetica,sans-Serif" font-size="14.00">(agent)</text>
<text xml:space="preserve" text-anchor="middle" x="276.12" y="-2026.36" font-family="Helvetica,sans-Serif" font-size="14.00">role: executor</text>
</g>
<!-- check_complexity&#45;&gt;quick_implement -->
<g id="edge3" class="edge">
<title>check_complexity&#45;&gt;quick_implement</title>
<path fill="none" stroke="black" stroke-dasharray="5,2" d="M301.88,-2193.63C296.34,-2162.33 288.28,-2116.79 282.65,-2085.03"/>
<polygon fill="black" stroke="black" points="286.15,-2084.73 280.96,-2075.49 279.26,-2085.95 286.15,-2084.73"/>
<text xml:space="preserve" text-anchor="middle" x="308.66" y="-2164.41" font-family="Helvetica,sans-Serif" font-size="10.00">false</text>
</g>
<!-- create_plan -->
<g id="node4" class="node">
<title>create_plan</title>
<path fill="#e3f2fd" stroke="black" d="M491.5,-2144.66C491.5,-2144.66 330.75,-2144.66 330.75,-2144.66 324.75,-2144.66 318.75,-2138.66 318.75,-2132.66 318.75,-2132.66 318.75,-2103.66 318.75,-2103.66 318.75,-2097.66 324.75,-2091.66 330.75,-2091.66 330.75,-2091.66 491.5,-2091.66 491.5,-2091.66 497.5,-2091.66 503.5,-2097.66 503.5,-2103.66 503.5,-2103.66 503.5,-2132.66 503.5,-2132.66 503.5,-2138.66 497.5,-2144.66 491.5,-2144.66"/>
<text xml:space="preserve" text-anchor="middle" x="411.12" y="-2127.36" font-family="Helvetica,sans-Serif" font-size="14.00">Create Implementation Plan</text>
<text xml:space="preserve" text-anchor="middle" x="411.12" y="-2112.36" font-family="Helvetica,sans-Serif" font-size="14.00">(agent)</text>
<text xml:space="preserve" text-anchor="middle" x="411.12" y="-2097.36" font-family="Helvetica,sans-Serif" font-size="14.00">role: planner</text>
</g>
<!-- check_complexity&#45;&gt;create_plan -->
<g id="edge2" class="edge">
<title>check_complexity&#45;&gt;create_plan</title>
<path fill="none" stroke="black" stroke-dasharray="5,2" d="M335.73,-2199.5C349.2,-2185.14 365.48,-2167.79 379.46,-2152.9"/>
<polygon fill="black" stroke="black" points="381.63,-2155.7 385.92,-2146.01 376.52,-2150.91 381.63,-2155.7"/>
<text xml:space="preserve" text-anchor="middle" x="377.1" y="-2164.41" font-family="Helvetica,sans-Serif" font-size="10.00">true</text>
</g>
<!-- run_tests -->
<g id="node9" class="node">
<title>run_tests</title>
<polygon fill="#e8f5e9" stroke="black" points="458.46,-1677.45 241.58,-1677.45 185.79,-1511.45 402.67,-1511.45 458.46,-1677.45"/>
<text xml:space="preserve" text-anchor="middle" x="322.12" y="-1618.65" font-family="Helvetica,sans-Serif" font-size="14.00">Run Test Suite</text>
<text xml:space="preserve" text-anchor="middle" x="322.12" y="-1603.65" font-family="Helvetica,sans-Serif" font-size="14.00">(compute)</text>
<text xml:space="preserve" text-anchor="middle" x="322.12" y="-1588.65" font-family="Helvetica,sans-Serif" font-size="14.00">exec: in&#45;process</text>
<text xml:space="preserve" text-anchor="middle" x="322.12" y="-1573.65" font-family="Helvetica,sans-Serif" font-size="14.00">blocked: [llm, write]</text>
<text xml:space="preserve" text-anchor="middle" x="322.12" y="-1558.65" font-family="Helvetica,sans-Serif" font-size="14.00">timeout: 300s</text>
</g>
<!-- quick_implement&#45;&gt;run_tests -->
<g id="edge4" class="edge">
<title>quick_implement&#45;&gt;run_tests</title>
<path fill="none" stroke="black" d="M270.02,-2020.16C264.13,-1992.83 256.12,-1948.49 256.12,-1909.7 256.12,-1909.7 256.12,-1909.7 256.12,-1739.95 256.12,-1722.48 260.17,-1704.81 266.25,-1688.1"/>
<polygon fill="black" stroke="black" points="269.33,-1689.83 269.73,-1679.24 262.82,-1687.27 269.33,-1689.83"/>
</g>
<!-- review_plan -->
<g id="node5" class="node">
<title>review_plan</title>
<ellipse fill="#ffebee" stroke="black" cx="417.12" cy="-1965.18" rx="133.29" ry="37.48"/>
<text xml:space="preserve" text-anchor="middle" x="417.12" y="-1974.38" font-family="Helvetica,sans-Serif" font-size="14.00">Review Implementation Plan</text>
<text xml:space="preserve" text-anchor="middle" x="417.12" y="-1959.38" font-family="Helvetica,sans-Serif" font-size="14.00">(hitl)</text>
<text xml:space="preserve" text-anchor="middle" x="417.12" y="-1944.38" font-family="Helvetica,sans-Serif" font-size="14.00">timeout: 900s</text>
</g>
<!-- create_plan&#45;&gt;review_plan -->
<g id="edge5" class="edge">
<title>create_plan&#45;&gt;review_plan</title>
<path fill="none" stroke="black" d="M412.16,-2091.2C412.99,-2070.15 414.2,-2039.88 415.21,-2014.41"/>
<polygon fill="black" stroke="black" points="418.7,-2014.73 415.6,-2004.6 411.7,-2014.45 418.7,-2014.73"/>
</g>
<!-- handle_plan_review -->
<g id="node6" class="node">
<title>handle_plan_review</title>
<polygon fill="#fff3e0" stroke="black" points="478.12,-1890.7 340.62,-1852.7 478.12,-1814.7 615.62,-1852.7 478.12,-1890.7"/>
<text xml:space="preserve" text-anchor="middle" x="478.12" y="-1854.4" font-family="Helvetica,sans-Serif" font-size="14.00">Handle Plan Review</text>
<text xml:space="preserve" text-anchor="middle" x="478.12" y="-1839.4" font-family="Helvetica,sans-Serif" font-size="14.00">(condition)</text>
</g>
<!-- review_plan&#45;&gt;handle_plan_review -->
<g id="edge6" class="edge">
<title>review_plan&#45;&gt;handle_plan_review</title>
<path fill="none" stroke="black" d="M437.27,-1927.7C442.9,-1917.51 449.06,-1906.35 454.85,-1895.86"/>
<polygon fill="black" stroke="black" points="457.76,-1897.83 459.53,-1887.38 451.63,-1894.44 457.76,-1897.83"/>
</g>
<!-- revise_plan -->
<g id="node7" class="node">
<title>revise_plan</title>
<path fill="#e3f2fd" stroke="black" d="M363.62,-1767.45C363.62,-1767.45 296.62,-1767.45 296.62,-1767.45 290.62,-1767.45 284.62,-1761.45 284.62,-1755.45 284.62,-1755.45 284.62,-1726.45 284.62,-1726.45 284.62,-1720.45 290.62,-1714.45 296.62,-1714.45 296.62,-1714.45 363.62,-1714.45 363.62,-1714.45 369.62,-1714.45 375.62,-1720.45 375.62,-1726.45 375.62,-1726.45 375.62,-1755.45 375.62,-1755.45 375.62,-1761.45 369.62,-1767.45 363.62,-1767.45"/>
<text xml:space="preserve" text-anchor="middle" x="330.12" y="-1750.15" font-family="Helvetica,sans-Serif" font-size="14.00">Revise Plan</text>
<text xml:space="preserve" text-anchor="middle" x="330.12" y="-1735.15" font-family="Helvetica,sans-Serif" font-size="14.00">(agent)</text>
<text xml:space="preserve" text-anchor="middle" x="330.12" y="-1720.15" font-family="Helvetica,sans-Serif" font-size="14.00">role: planner</text>
</g>
<!-- handle_plan_review&#45;&gt;revise_plan -->
<g id="edge8" class="edge">
<title>handle_plan_review&#45;&gt;revise_plan</title>
<path fill="none" stroke="black" stroke-dasharray="5,2" d="M441.54,-1824.57C421.18,-1809.48 395.7,-1790.58 374.25,-1774.67"/>
<polygon fill="black" stroke="black" points="376.35,-1771.87 366.23,-1768.73 372.18,-1777.5 376.35,-1771.87"/>
<text xml:space="preserve" text-anchor="middle" x="424.81" y="-1787.2" font-family="Helvetica,sans-Serif" font-size="10.00">Modify plan</text>
</g>
<!-- implement_feature -->
<g id="node8" class="node">
<title>implement_feature</title>
<path fill="#e3f2fd" stroke="black" d="M512.5,-1767.45C512.5,-1767.45 405.75,-1767.45 405.75,-1767.45 399.75,-1767.45 393.75,-1761.45 393.75,-1755.45 393.75,-1755.45 393.75,-1726.45 393.75,-1726.45 393.75,-1720.45 399.75,-1714.45 405.75,-1714.45 405.75,-1714.45 512.5,-1714.45 512.5,-1714.45 518.5,-1714.45 524.5,-1720.45 524.5,-1726.45 524.5,-1726.45 524.5,-1755.45 524.5,-1755.45 524.5,-1761.45 518.5,-1767.45 512.5,-1767.45"/>
<text xml:space="preserve" text-anchor="middle" x="459.12" y="-1750.15" font-family="Helvetica,sans-Serif" font-size="14.00">Implement Feature</text>
<text xml:space="preserve" text-anchor="middle" x="459.12" y="-1735.15" font-family="Helvetica,sans-Serif" font-size="14.00">(agent)</text>
<text xml:space="preserve" text-anchor="middle" x="459.12" y="-1720.15" font-family="Helvetica,sans-Serif" font-size="14.00">role: executor</text>
</g>
<!-- handle_plan_review&#45;&gt;implement_feature -->
<g id="edge7" class="edge">
<title>handle_plan_review&#45;&gt;implement_feature</title>
<path fill="none" stroke="black" stroke-dasharray="5,2" d="M471.96,-1816.07C469.89,-1804.12 467.58,-1790.77 465.49,-1778.73"/>
<polygon fill="black" stroke="black" points="468.99,-1778.43 463.84,-1769.17 462.09,-1779.62 468.99,-1778.43"/>
<text xml:space="preserve" text-anchor="middle" x="486.06" y="-1787.2" font-family="Helvetica,sans-Serif" font-size="10.00">Approve</text>
</g>
<!-- abort -->
<g id="node23" class="node">
<title>abort</title>
<polygon fill="#eceff1" stroke="black" points="526.88,-38 413.38,-38 413.38,0 526.88,0 526.88,-38"/>
<text xml:space="preserve" text-anchor="middle" x="470.12" y="-20.7" font-family="Helvetica,sans-Serif" font-size="14.00">Feature Aborted</text>
<text xml:space="preserve" text-anchor="middle" x="470.12" y="-5.7" font-family="Helvetica,sans-Serif" font-size="14.00">(transform)</text>
</g>
<!-- handle_plan_review&#45;&gt;abort -->
<g id="edge9" class="edge">
<title>handle_plan_review&#45;&gt;abort</title>
<path fill="none" stroke="black" stroke-dasharray="5,2" d="M510.8,-1823.46C530.62,-1803.08 552.12,-1773.67 552.12,-1741.95 552.12,-1741.95 552.12,-1741.95 552.12,-93 552.12,-72.58 537.76,-56.46 521.05,-44.62"/>
<polygon fill="black" stroke="black" points="523.17,-41.82 512.87,-39.31 519.35,-47.7 523.17,-41.82"/>
<text xml:space="preserve" text-anchor="middle" x="567.5" y="-854.45" font-family="Helvetica,sans-Serif" font-size="10.00">Cancel</text>
</g>
<!-- revise_plan&#45;&gt;review_plan -->
<g id="edge10" class="edge">
<title>revise_plan&#45;&gt;review_plan</title>
<path fill="none" stroke="black" d="M324.33,-1767.83C318.76,-1798.67 313.65,-1851.02 332.12,-1890.7 337.72,-1902.72 346.34,-1913.54 355.98,-1922.94"/>
<polygon fill="black" stroke="black" points="353.4,-1925.34 363.15,-1929.49 358.12,-1920.16 353.4,-1925.34"/>
</g>
<!-- implement_feature&#45;&gt;run_tests -->
<g id="edge11" class="edge">
<title>implement_feature&#45;&gt;run_tests</title>
<path fill="none" stroke="black" d="M434.63,-1714.12C426.8,-1705.86 417.63,-1696.19 407.97,-1686"/>
<polygon fill="black" stroke="black" points="410.6,-1683.68 401.18,-1678.84 405.52,-1688.5 410.6,-1683.68"/>
</g>
<!-- check_tests -->
<g id="node10" class="node">
<title>check_tests</title>
<polygon fill="#fff3e0" stroke="black" points="322.12,-1474.45 190.63,-1436.45 322.12,-1398.45 453.62,-1436.45 322.12,-1474.45"/>
<text xml:space="preserve" text-anchor="middle" x="322.12" y="-1438.15" font-family="Helvetica,sans-Serif" font-size="14.00">Check Test Results</text>
<text xml:space="preserve" text-anchor="middle" x="322.12" y="-1423.15" font-family="Helvetica,sans-Serif" font-size="14.00">(condition)</text>
</g>
<!-- run_tests&#45;&gt;check_tests -->
<g id="edge12" class="edge">
<title>run_tests&#45;&gt;check_tests</title>
<path fill="none" stroke="black" d="M322.12,-1511.34C322.12,-1502.76 322.12,-1494.25 322.12,-1486.21"/>
<polygon fill="black" stroke="black" points="325.63,-1486.36 322.13,-1476.36 318.63,-1486.36 325.63,-1486.36"/>
</g>
<!-- fix_tests -->
<g id="node11" class="node">
<title>fix_tests</title>
<path fill="#e3f2fd" stroke="black" d="M258.5,-1351.2C258.5,-1351.2 169.75,-1351.2 169.75,-1351.2 163.75,-1351.2 157.75,-1345.2 157.75,-1339.2 157.75,-1339.2 157.75,-1310.2 157.75,-1310.2 157.75,-1304.2 163.75,-1298.2 169.75,-1298.2 169.75,-1298.2 258.5,-1298.2 258.5,-1298.2 264.5,-1298.2 270.5,-1304.2 270.5,-1310.2 270.5,-1310.2 270.5,-1339.2 270.5,-1339.2 270.5,-1345.2 264.5,-1351.2 258.5,-1351.2"/>
<text xml:space="preserve" text-anchor="middle" x="214.12" y="-1333.9" font-family="Helvetica,sans-Serif" font-size="14.00">Fix Failing Tests</text>
<text xml:space="preserve" text-anchor="middle" x="214.12" y="-1318.9" font-family="Helvetica,sans-Serif" font-size="14.00">(agent)</text>
<text xml:space="preserve" text-anchor="middle" x="214.12" y="-1303.9" font-family="Helvetica,sans-Serif" font-size="14.00">role: executor</text>
</g>
<!-- check_tests&#45;&gt;fix_tests -->
<g id="edge14" class="edge">
<title>check_tests&#45;&gt;fix_tests</title>
<path fill="none" stroke="black" stroke-dasharray="5,2" d="M293.47,-1406.33C279.34,-1391.97 262.21,-1374.57 247.49,-1359.61"/>
<polygon fill="black" stroke="black" points="250.17,-1357.34 240.66,-1352.67 245.18,-1362.25 250.17,-1357.34"/>
<text xml:space="preserve" text-anchor="middle" x="275.39" y="-1370.95" font-family="Helvetica,sans-Serif" font-size="10.00">false</text>
</g>
<!-- generate_tests -->
<g id="node14" class="node">
<title>generate_tests</title>
<path fill="#e3f2fd" stroke="black" d="M322.75,-934.95C322.75,-934.95 175.5,-934.95 175.5,-934.95 169.5,-934.95 163.5,-928.95 163.5,-922.95 163.5,-922.95 163.5,-893.95 163.5,-893.95 163.5,-887.95 169.5,-881.95 175.5,-881.95 175.5,-881.95 322.75,-881.95 322.75,-881.95 328.75,-881.95 334.75,-887.95 334.75,-893.95 334.75,-893.95 334.75,-922.95 334.75,-922.95 334.75,-928.95 328.75,-934.95 322.75,-934.95"/>
<text xml:space="preserve" text-anchor="middle" x="249.12" y="-917.65" font-family="Helvetica,sans-Serif" font-size="14.00">Generate Additional Tests</text>
<text xml:space="preserve" text-anchor="middle" x="249.12" y="-902.65" font-family="Helvetica,sans-Serif" font-size="14.00">(agent)</text>
<text xml:space="preserve" text-anchor="middle" x="249.12" y="-887.65" font-family="Helvetica,sans-Serif" font-size="14.00">role: executor</text>
</g>
<!-- check_tests&#45;&gt;generate_tests -->
<g id="edge13" class="edge">
<title>check_tests&#45;&gt;generate_tests</title>
<path fill="none" stroke="black" stroke-dasharray="5,2" d="M350.38,-1406.4C367.53,-1385.66 386.12,-1356.14 386.12,-1325.7 386.12,-1325.7 386.12,-1325.7 386.12,-1019.2 386.12,-984.14 358.46,-958.43 327.99,-940.74"/>
<polygon fill="black" stroke="black" points="329.8,-937.75 319.35,-936.01 326.44,-943.88 329.8,-937.75"/>
<text xml:space="preserve" text-anchor="middle" x="394.38" y="-1174.33" font-family="Helvetica,sans-Serif" font-size="10.00">true</text>
</g>
<!-- run_tests_retry -->
<g id="node12" class="node">
<title>run_tests_retry</title>
<polygon fill="#e8f5e9" stroke="black" points="350.46,-1261.2 133.58,-1261.2 77.79,-1095.2 294.67,-1095.2 350.46,-1261.2"/>
<text xml:space="preserve" text-anchor="middle" x="214.12" y="-1202.4" font-family="Helvetica,sans-Serif" font-size="14.00">Re&#45;run Tests</text>
<text xml:space="preserve" text-anchor="middle" x="214.12" y="-1187.4" font-family="Helvetica,sans-Serif" font-size="14.00">(compute)</text>
<text xml:space="preserve" text-anchor="middle" x="214.12" y="-1172.4" font-family="Helvetica,sans-Serif" font-size="14.00">exec: in&#45;process</text>
<text xml:space="preserve" text-anchor="middle" x="214.12" y="-1157.4" font-family="Helvetica,sans-Serif" font-size="14.00">blocked: [llm, write]</text>
<text xml:space="preserve" text-anchor="middle" x="214.12" y="-1142.4" font-family="Helvetica,sans-Serif" font-size="14.00">timeout: 300s</text>
</g>
<!-- fix_tests&#45;&gt;run_tests_retry -->
<g id="edge15" class="edge">
<title>fix_tests&#45;&gt;run_tests_retry</title>
<path fill="none" stroke="black" d="M214.12,-1297.87C214.12,-1290.42 214.12,-1281.84 214.12,-1272.76"/>
<polygon fill="black" stroke="black" points="217.63,-1273 214.13,-1263 210.63,-1273 217.63,-1273"/>
</g>
<!-- check_retry -->
<g id="node13" class="node">
<title>check_retry</title>
<polygon fill="#fff3e0" stroke="black" points="214.12,-1058.2 75.13,-1020.2 214.12,-982.2 353.12,-1020.2 214.12,-1058.2"/>
<text xml:space="preserve" text-anchor="middle" x="214.12" y="-1021.9" font-family="Helvetica,sans-Serif" font-size="14.00">Check Retry Results</text>
<text xml:space="preserve" text-anchor="middle" x="214.12" y="-1006.9" font-family="Helvetica,sans-Serif" font-size="14.00">(condition)</text>
</g>
<!-- run_tests_retry&#45;&gt;check_retry -->
<g id="edge16" class="edge">
<title>run_tests_retry&#45;&gt;check_retry</title>
<path fill="none" stroke="black" d="M214.12,-1095.09C214.12,-1086.51 214.12,-1078 214.12,-1069.96"/>
<polygon fill="black" stroke="black" points="217.63,-1070.11 214.13,-1060.11 210.63,-1070.11 217.63,-1070.11"/>
</g>
<!-- check_retry&#45;&gt;fix_tests -->
<g id="edge17" class="edge">
<title>check_retry&#45;&gt;fix_tests</title>
<path fill="none" stroke="black" stroke-dasharray="5,2" d="M136.44,-1037.37C104.82,-1048.18 71.37,-1066 52.62,-1095.2 12.78,-1157.29 10.92,-1200.34 52.62,-1261.2 73.71,-1291.97 112.29,-1307.6 146.46,-1315.53"/>
<polygon fill="black" stroke="black" points="145.38,-1318.88 155.89,-1317.53 146.83,-1312.03 145.38,-1318.88"/>
<text xml:space="preserve" text-anchor="middle" x="60.88" y="-1174.33" font-family="Helvetica,sans-Serif" font-size="10.00">true</text>
</g>
<!-- check_retry&#45;&gt;generate_tests -->
<g id="edge18" class="edge">
<title>check_retry&#45;&gt;generate_tests</title>
<path fill="none" stroke="black" stroke-dasharray="5,2" d="M225.1,-984.78C229,-972.55 233.4,-958.75 237.37,-946.33"/>
<polygon fill="black" stroke="black" points="240.69,-947.43 240.39,-936.84 234.02,-945.3 240.69,-947.43"/>
<text xml:space="preserve" text-anchor="middle" x="245.26" y="-954.7" font-family="Helvetica,sans-Serif" font-size="10.00">false</text>
</g>
<!-- code_review -->
<g id="node15" class="node">
<title>code_review</title>
<path fill="#e3f2fd" stroke="black" d="M320.12,-834.7C320.12,-834.7 178.12,-834.7 178.12,-834.7 172.12,-834.7 166.12,-828.7 166.12,-822.7 166.12,-822.7 166.12,-793.7 166.12,-793.7 166.12,-787.7 172.12,-781.7 178.12,-781.7 178.12,-781.7 320.12,-781.7 320.12,-781.7 326.12,-781.7 332.12,-787.7 332.12,-793.7 332.12,-793.7 332.12,-822.7 332.12,-822.7 332.12,-828.7 326.12,-834.7 320.12,-834.7"/>
<text xml:space="preserve" text-anchor="middle" x="249.12" y="-817.4" font-family="Helvetica,sans-Serif" font-size="14.00">Automated Code Review</text>
<text xml:space="preserve" text-anchor="middle" x="249.12" y="-802.4" font-family="Helvetica,sans-Serif" font-size="14.00">(agent)</text>
<text xml:space="preserve" text-anchor="middle" x="249.12" y="-787.4" font-family="Helvetica,sans-Serif" font-size="14.00">role: reviewer</text>
</g>
<!-- generate_tests&#45;&gt;code_review -->
<g id="edge19" class="edge">
<title>generate_tests&#45;&gt;code_review</title>
<path fill="none" stroke="black" d="M249.12,-881.64C249.12,-870.89 249.12,-858.21 249.12,-846.49"/>
<polygon fill="black" stroke="black" points="252.63,-846.7 249.13,-836.7 245.63,-846.7 252.63,-846.7"/>
</g>
<!-- check_review -->
<g id="node16" class="node">
<title>check_review</title>
<polygon fill="#fff3e0" stroke="black" points="261.12,-744.7 106.38,-706.7 261.12,-668.7 415.88,-706.7 261.12,-744.7"/>
<text xml:space="preserve" text-anchor="middle" x="261.12" y="-708.4" font-family="Helvetica,sans-Serif" font-size="14.00">Check Review Severity</text>
<text xml:space="preserve" text-anchor="middle" x="261.12" y="-693.4" font-family="Helvetica,sans-Serif" font-size="14.00">(condition)</text>
</g>
<!-- code_review&#45;&gt;check_review -->
<g id="edge20" class="edge">
<title>code_review&#45;&gt;check_review</title>
<path fill="none" stroke="black" d="M252.25,-781.32C253.21,-773.3 254.31,-764.2 255.4,-755.2"/>
<polygon fill="black" stroke="black" points="258.85,-755.79 256.57,-745.45 251.9,-754.95 258.85,-755.79"/>
</g>
<!-- address_issues -->
<g id="node17" class="node">
<title>address_issues</title>
<path fill="#e3f2fd" stroke="black" d="M144.25,-610.48C144.25,-610.48 12,-610.48 12,-610.48 6,-610.48 0,-604.48 0,-598.48 0,-598.48 0,-569.48 0,-569.48 0,-563.48 6,-557.48 12,-557.48 12,-557.48 144.25,-557.48 144.25,-557.48 150.25,-557.48 156.25,-563.48 156.25,-569.48 156.25,-569.48 156.25,-598.48 156.25,-598.48 156.25,-604.48 150.25,-610.48 144.25,-610.48"/>
<text xml:space="preserve" text-anchor="middle" x="78.12" y="-593.18" font-family="Helvetica,sans-Serif" font-size="14.00">Address Review Issues</text>
<text xml:space="preserve" text-anchor="middle" x="78.12" y="-578.18" font-family="Helvetica,sans-Serif" font-size="14.00">(agent)</text>
<text xml:space="preserve" text-anchor="middle" x="78.12" y="-563.18" font-family="Helvetica,sans-Serif" font-size="14.00">role: executor</text>
</g>
<!-- check_review&#45;&gt;address_issues -->
<g id="edge21" class="edge">
<title>check_review&#45;&gt;address_issues</title>
<path fill="none" stroke="black" stroke-dasharray="5,2" d="M220.06,-678.61C192.51,-660.43 156.08,-636.41 127.03,-617.24"/>
<polygon fill="black" stroke="black" points="129.03,-614.36 118.75,-611.78 125.17,-620.21 129.03,-614.36"/>
<text xml:space="preserve" text-anchor="middle" x="183.36" y="-641.2" font-family="Helvetica,sans-Serif" font-size="10.00">true</text>
</g>
<!-- human_review -->
<g id="node18" class="node">
<title>human_review</title>
<ellipse fill="#ffebee" stroke="black" cx="276.12" cy="-583.98" rx="102" ry="37.48"/>
<text xml:space="preserve" text-anchor="middle" x="276.12" y="-593.18" font-family="Helvetica,sans-Serif" font-size="14.00">Human Code Review</text>
<text xml:space="preserve" text-anchor="middle" x="276.12" y="-578.18" font-family="Helvetica,sans-Serif" font-size="14.00">(hitl)</text>
<text xml:space="preserve" text-anchor="middle" x="276.12" y="-563.18" font-family="Helvetica,sans-Serif" font-size="14.00">timeout: 1800s</text>
</g>
<!-- check_review&#45;&gt;human_review -->
<g id="edge22" class="edge">
<title>check_review&#45;&gt;human_review</title>
<path fill="none" stroke="black" stroke-dasharray="5,2" d="M265.63,-669.48C267.05,-658.01 268.65,-645.14 270.16,-632.97"/>
<polygon fill="black" stroke="black" points="273.63,-633.45 271.39,-623.09 266.68,-632.58 273.63,-633.45"/>
<text xml:space="preserve" text-anchor="middle" x="279.57" y="-641.2" font-family="Helvetica,sans-Serif" font-size="10.00">false</text>
</g>
<!-- address_issues&#45;&gt;code_review -->
<g id="edge23" class="edge">
<title>address_issues&#45;&gt;code_review</title>
<path fill="none" stroke="black" d="M73.79,-610.85C69.55,-645.09 67.48,-705.67 97.12,-744.7 111.65,-763.83 133.06,-777.13 155.25,-786.38"/>
<polygon fill="black" stroke="black" points="153.82,-789.58 164.41,-789.93 156.35,-783.05 153.82,-789.58"/>
</g>
<!-- finalize -->
<g id="node19" class="node">
<title>finalize</title>
<polygon fill="#f3e5f5" stroke="black" points="332.5,-505.5 219.75,-505.5 219.75,-467.5 332.5,-467.5 332.5,-505.5"/>
<polygon fill="none" stroke="black" points="336.5,-509.5 215.75,-509.5 215.75,-463.5 336.5,-463.5 336.5,-509.5"/>
<text xml:space="preserve" text-anchor="middle" x="276.12" y="-488.2" font-family="Helvetica,sans-Serif" font-size="14.00">Finalize Feature</text>
<text xml:space="preserve" text-anchor="middle" x="276.12" y="-473.2" font-family="Helvetica,sans-Serif" font-size="14.00">(parallel)</text>
</g>
<!-- human_review&#45;&gt;finalize -->
<g id="edge24" class="edge">
<title>human_review&#45;&gt;finalize</title>
<path fill="none" stroke="black" d="M276.12,-546.06C276.12,-537.88 276.12,-529.26 276.12,-521.21"/>
<polygon fill="black" stroke="black" points="279.63,-521.48 276.13,-511.48 272.63,-521.48 279.63,-521.48"/>
</g>
<!-- update_docs -->
<g id="node20" class="node">
<title>update_docs</title>
<path fill="#e3f2fd" stroke="black" d="M453.5,-416.25C453.5,-416.25 322.75,-416.25 322.75,-416.25 316.75,-416.25 310.75,-410.25 310.75,-404.25 310.75,-404.25 310.75,-375.25 310.75,-375.25 310.75,-369.25 316.75,-363.25 322.75,-363.25 322.75,-363.25 453.5,-363.25 453.5,-363.25 459.5,-363.25 465.5,-369.25 465.5,-375.25 465.5,-375.25 465.5,-404.25 465.5,-404.25 465.5,-410.25 459.5,-416.25 453.5,-416.25"/>
<text xml:space="preserve" text-anchor="middle" x="388.12" y="-398.95" font-family="Helvetica,sans-Serif" font-size="14.00">Update Documentation</text>
<text xml:space="preserve" text-anchor="middle" x="388.12" y="-383.95" font-family="Helvetica,sans-Serif" font-size="14.00">(agent)</text>
<text xml:space="preserve" text-anchor="middle" x="388.12" y="-368.95" font-family="Helvetica,sans-Serif" font-size="14.00">role: writer</text>
</g>
<!-- finalize&#45;&gt;update_docs -->
<g id="edge25" class="edge">
<title>finalize&#45;&gt;update_docs</title>
<path fill="none" stroke="black" d="M302.67,-463.05C316.4,-451.43 333.44,-437.01 348.68,-424.12"/>
<polygon fill="black" stroke="black" points="350.88,-426.84 356.26,-417.71 346.36,-421.5 350.88,-426.84"/>
<text xml:space="preserve" text-anchor="middle" x="343.73" y="-436" font-family="Helvetica,sans-Serif" font-size="10.00">fork</text>
</g>
<!-- format_code -->
<g id="node21" class="node">
<title>format_code</title>
<polygon fill="#e8f5e9" stroke="black" points="524.46,-316 307.58,-316 251.79,-150 468.67,-150 524.46,-316"/>
<text xml:space="preserve" text-anchor="middle" x="388.12" y="-257.2" font-family="Helvetica,sans-Serif" font-size="14.00">Format Code</text>
<text xml:space="preserve" text-anchor="middle" x="388.12" y="-242.2" font-family="Helvetica,sans-Serif" font-size="14.00">(compute)</text>
<text xml:space="preserve" text-anchor="middle" x="388.12" y="-227.2" font-family="Helvetica,sans-Serif" font-size="14.00">exec: in&#45;process</text>
<text xml:space="preserve" text-anchor="middle" x="388.12" y="-212.2" font-family="Helvetica,sans-Serif" font-size="14.00">blocked: [llm, write]</text>
<text xml:space="preserve" text-anchor="middle" x="388.12" y="-197.2" font-family="Helvetica,sans-Serif" font-size="14.00">timeout: 60s</text>
</g>
<!-- finalize&#45;&gt;format_code -->
<g id="edge26" class="edge">
<title>finalize&#45;&gt;format_code</title>
<path fill="none" stroke="black" d="M274.06,-463.45C272.55,-438.28 272.64,-396.34 285.62,-363.25 290.66,-350.42 297.43,-337.84 305.09,-325.88"/>
<polygon fill="black" stroke="black" points="307.93,-327.94 310.58,-317.68 302.11,-324.05 307.93,-327.94"/>
<text xml:space="preserve" text-anchor="middle" x="293.88" y="-385.88" font-family="Helvetica,sans-Serif" font-size="10.00">fork</text>
</g>
<!-- complete -->
<g id="node22" class="node">
<title>complete</title>
<polygon fill="#eceff1" stroke="black" points="450.5,-113 325.75,-113 325.75,-75 450.5,-75 450.5,-113"/>
<text xml:space="preserve" text-anchor="middle" x="388.12" y="-95.7" font-family="Helvetica,sans-Serif" font-size="14.00">Feature Complete</text>
<text xml:space="preserve" text-anchor="middle" x="388.12" y="-80.7" font-family="Helvetica,sans-Serif" font-size="14.00">(transform)</text>
</g>
<!-- finalize&#45;&gt;complete -->
<g id="edge27" class="edge">
<title>finalize&#45;&gt;complete</title>
<path fill="none" stroke="black" d="M264.8,-463.04C237.43,-405.24 174.8,-248.99 243.12,-150 259.46,-126.34 287.39,-112.85 314.41,-105.16"/>
<polygon fill="black" stroke="black" points="315.22,-108.56 324.03,-102.68 313.47,-101.79 315.22,-108.56"/>
<text xml:space="preserve" text-anchor="middle" x="230.28" y="-335.75" font-family="Helvetica,sans-Serif" font-size="10.00">join</text>
</g>
<!-- update_docs&#45;&gt;format_code -->
<g id="edge28" class="edge">
<title>update_docs&#45;&gt;format_code</title>
<path fill="none" stroke="black" d="M388.12,-362.85C388.12,-352.8 388.12,-340.63 388.12,-327.83"/>
<polygon fill="black" stroke="black" points="391.63,-327.97 388.13,-317.97 384.63,-327.97 391.63,-327.97"/>
</g>
<!-- format_code&#45;&gt;complete -->
<g id="edge29" class="edge">
<title>format_code&#45;&gt;complete</title>
<path fill="none" stroke="black" d="M388.12,-149.54C388.12,-140.72 388.12,-132.22 388.12,-124.67"/>
<polygon fill="black" stroke="black" points="391.63,-124.82 388.13,-114.82 384.63,-124.82 391.63,-124.82"/>
</g>
<!-- complete&#45;&gt;abort -->
<g id="edge30" class="edge">
<title>complete&#45;&gt;abort</title>
<path fill="none" stroke="black" d="M408.82,-74.58C418.53,-65.93 430.27,-55.48 440.87,-46.04"/>
<polygon fill="black" stroke="black" points="443.17,-48.68 448.31,-39.42 438.51,-43.46 443.17,-48.68"/>
</g>
</g>
</svg>
