<?xml version="1.0" encoding="UTF-8" standalone="no"?>
<!DOCTYPE svg PUBLIC "-//W3C//DTD SVG 1.1//EN"
 "http://www.w3.org/Graphics/SVG/1.1/DTD/svg11.dtd">
<!-- Generated by graphviz version 14.0.4 (20251115.1723)
 -->
<!-- Title: workflow Pages: 1 -->
<svg width="632pt" height="3248pt"
 viewBox="0.00 0.00 632.00 3248.00" xmlns="http://www.w3.org/2000/svg" xmlns:xlink="http://www.w3.org/1999/xlink">
<g id="graph0" class="graph" transform="scale(1 1) rotate(0) translate(4 3244.11)">
<title>workflow</title>
<polygon fill="white" stroke="none" points="-4,4 -4,-3244.11 628,-3244.11 628,4 -4,4"/>
<text xml:space="preserve" text-anchor="middle" x="312" y="-3222.81" font-family="Times,serif" font-size="14.00">code_review</text>
<!-- gather_changes -->
<g id="node1" class="node">
<title>gather_changes</title>
<polygon fill="#e8f5e9" stroke="black" points="365.33,-3215.61 115.05,-3215.61 50.67,-3049.61 300.95,-3049.61 365.33,-3215.61"/>
<text xml:space="preserve" text-anchor="middle" x="208" y="-3156.81" font-family="Helvetica,sans-Serif" font-size="14.00">Gather Code Changes</text>
<text xml:space="preserve" text-anchor="middle" x="208" y="-3141.81" font-family="Helvetica,sans-Serif" font-size="14.00">(compute)</text>
<text xml:space="preserve" text-anchor="middle" x="208" y="-3126.81" font-family="Helvetica,sans-Serif" font-size="14.00">exec: in&#45;process</text>
<text xml:space="preserve" text-anchor="middle" x="208" y="-3111.81" font-family="Helvetica,sans-Serif" font-size="14.00">blocked: [llm, write]</text>
<text xml:space="preserve" text-anchor="middle" x="208" y="-3096.81" font-family="Helvetica,sans-Serif" font-size="14.00">timeout: 60s</text>
</g>
<!-- check_changes -->
<g id="node2" class="node">
<title>check_changes</title>
<polygon fill="#fff3e0" stroke="black" points="208,-3012.61 63,-2974.61 208,-2936.61 353,-2974.61 208,-3012.61"/>
<text xml:space="preserve" text-anchor="middle" x="208" y="-2976.31" font-family="Helvetica,sans-Serif" font-size="14.00">Check Changes Exist</text>
<text xml:space="preserve" text-anchor="middle" x="208" y="-2961.31" font-family="Helvetica,sans-Serif" font-size="14.00">(condition)</text>
</g>
<!-- gather_changes&#45;&gt;check_changes -->
<g id="edge1" class="edge">
<title>gather_changes&#45;&gt;check_changes</title>
<path fill="none" stroke="black" d="M208,-3049.5C208,-3040.92 208,-3032.4 208,-3024.37"/>
<polygon fill="black" stroke="black" points="211.5,-3024.51 208,-3014.51 204.5,-3024.51 211.5,-3024.51"/>
</g>
<!-- no_changes -->
<g id="node3" class="node">
<title>no_changes</title>
<polygon fill="#eceff1" stroke="black" points="210,-2889.36 56,-2889.36 56,-2851.36 210,-2851.36 210,-2889.36"/>
<text xml:space="preserve" text-anchor="middle" x="133" y="-2872.06" font-family="Helvetica,sans-Serif" font-size="14.00">No Changes to Review</text>
<text xml:space="preserve" text-anchor="middle" x="133" y="-2857.06" font-family="Helvetica,sans-Serif" font-size="14.00">(transform)</text>
</g>
<!-- check_changes&#45;&gt;no_changes -->
<g id="edge3" class="edge">
<title>check_changes&#45;&gt;no_changes</title>
<path fill="none" stroke="black" stroke-dasharray="5,2" d="M185.09,-2942.38C174.9,-2928.48 163,-2912.27 153.16,-2898.84"/>
<polygon fill="black" stroke="black" points="156.03,-2896.84 147.3,-2890.85 150.39,-2900.98 156.03,-2896.84"/>
<text xml:space="preserve" text-anchor="middle" x="176.51" y="-2909.11" font-family="Helvetica,sans-Serif" font-size="10.00">false</text>
</g>
<!-- parallel_analysis -->
<g id="node4" class="node">
<title>parallel_analysis</title>
<polygon fill="#f3e5f5" stroke="black" points="286.12,-2810.36 147.88,-2810.36 147.88,-2772.36 286.12,-2772.36 286.12,-2810.36"/>
<polygon fill="none" stroke="black" points="290.12,-2814.36 143.88,-2814.36 143.88,-2768.36 290.12,-2768.36 290.12,-2814.36"/>
<text xml:space="preserve" text-anchor="middle" x="217" y="-2793.06" font-family="Helvetica,sans-Serif" font-size="14.00">Run Parallel Checks</text>
<text xml:space="preserve" text-anchor="middle" x="217" y="-2778.06" font-family="Helvetica,sans-Serif" font-size="14.00">(parallel)</text>
</g>
<!-- check_changes&#45;&gt;parallel_analysis -->
<g id="edge2" class="edge">
<title>check_changes&#45;&gt;parallel_analysis</title>
<path fill="none" stroke="black" stroke-dasharray="5,2" d="M213.74,-2937.63C215.85,-2922.74 217.97,-2905.26 219,-2889.36 220.1,-2872.51 219.29,-2868.25 219,-2851.36 218.86,-2843.24 218.62,-2834.48 218.35,-2826.27"/>
<polygon fill="black" stroke="black" points="221.84,-2826.15 217.99,-2816.28 214.85,-2826.4 221.84,-2826.15"/>
<text xml:space="preserve" text-anchor="middle" x="227.81" y="-2866.48" font-family="Helvetica,sans-Serif" font-size="10.00">true</text>
</g>
<!-- no_changes&#45;&gt;parallel_analysis -->
<g id="edge4" class="edge">
<title>no_changes&#45;&gt;parallel_analysis</title>
<path fill="none" stroke="black" d="M152.91,-2851.11C162.32,-2842.48 173.81,-2831.95 184.45,-2822.2"/>
<polygon fill="black" stroke="black" points="186.62,-2824.96 191.62,-2815.62 181.89,-2819.8 186.62,-2824.96"/>
</g>
<!-- lint_check -->
<g id="node5" class="node">
<title>lint_check</title>
<polygon fill="#e8f5e9" stroke="black" points="353.33,-2721.11 136.46,-2721.11 80.67,-2555.11 297.54,-2555.11 353.33,-2721.11"/>
<text xml:space="preserve" text-anchor="middle" x="217" y="-2662.31" font-family="Helvetica,sans-Serif" font-size="14.00">Run Linters</text>
<text xml:space="preserve" text-anchor="middle" x="217" y="-2647.31" font-family="Helvetica,sans-Serif" font-size="14.00">(compute)</text>
<text xml:space="preserve" text-anchor="middle" x="217" y="-2632.31" font-family="Helvetica,sans-Serif" font-size="14.00">exec: in&#45;process</text>
<text xml:space="preserve" text-anchor="middle" x="217" y="-2617.31" font-family="Helvetica,sans-Serif" font-size="14.00">blocked: [llm, write]</text>
<text xml:space="preserve" text-anchor="middle" x="217" y="-2602.31" font-family="Helvetica,sans-Serif" font-size="14.00">timeout: 180s</text>
</g>
<!-- parallel_analysis&#45;&gt;lint_check -->
<g id="edge5" class="edge">
<title>parallel_analysis&#45;&gt;lint_check</title>
<path fill="none" stroke="black" d="M217,-2768.04C217,-2758.16 217,-2745.8 217,-2732.67"/>
<polygon fill="black" stroke="black" points="220.5,-2733.02 217,-2723.02 213.5,-2733.02 220.5,-2733.02"/>
<text xml:space="preserve" text-anchor="middle" x="225.25" y="-2740.86" font-family="Helvetica,sans-Serif" font-size="10.00">fork</text>
</g>
<!-- type_check -->
<g id="node6" class="node">
<title>type_check</title>
<polygon fill="#e8f5e9" stroke="black" points="353.33,-2507.86 136.46,-2507.86 80.67,-2341.86 297.54,-2341.86 353.33,-2507.86"/>
<text xml:space="preserve" text-anchor="middle" x="217" y="-2449.06" font-family="Helvetica,sans-Serif" font-size="14.00">Run Type Checker</text>
<text xml:space="preserve" text-anchor="middle" x="217" y="-2434.06" font-family="Helvetica,sans-Serif" font-size="14.00">(compute)</text>
<text xml:space="preserve" text-anchor="middle" x="217" y="-2419.06" font-family="Helvetica,sans-Serif" font-size="14.00">exec: in&#45;process</text>
<text xml:space="preserve" text-anchor="middle" x="217" y="-2404.06" font-family="Helvetica,sans-Serif" font-size="14.00">blocked: [llm, write]</text>
<text xml:space="preserve" text-anchor="middle" x="217" y="-2389.06" font-family="Helvetica,sans-Serif" font-size="14.00">timeout: 180s</text>
</g>
<!-- parallel_analysis&#45;&gt;type_check -->
<g id="edge6" class="edge">
<title>parallel_analysis&#45;&gt;type_check</title>
<path fill="none" stroke="black" d="M143.66,-2777.76C110.87,-2768.08 75.23,-2751.04 55.5,-2721.11 14.89,-2659.51 23.55,-2621.61 55.5,-2555.11 69.08,-2526.86 92.17,-2502.85 116.71,-2483.47"/>
<polygon fill="black" stroke="black" points="118.76,-2486.3 124.6,-2477.46 114.52,-2480.73 118.76,-2486.3"/>
<text xml:space="preserve" text-anchor="middle" x="63.75" y="-2634.23" font-family="Helvetica,sans-Serif" font-size="10.00">fork</text>
</g>
<!-- security_scan -->
<g id="node7" class="node">
<title>security_scan</title>
<polygon fill="#e8f5e9" stroke="black" points="376.33,-2294.61 159.46,-2294.61 103.67,-2128.61 320.54,-2128.61 376.33,-2294.61"/>
<text xml:space="preserve" text-anchor="middle" x="240" y="-2235.81" font-family="Helvetica,sans-Serif" font-size="14.00">Security Analysis</text>
<text xml:space="preserve" text-anchor="middle" x="240" y="-2220.81" font-family="Helvetica,sans-Serif" font-size="14.00">(compute)</text>
<text xml:space="preserve" text-anchor="middle" x="240" y="-2205.81" font-family="Helvetica,sans-Serif" font-size="14.00">exec: in&#45;process</text>
<text xml:space="preserve" text-anchor="middle" x="240" y="-2190.81" font-family="Helvetica,sans-Serif" font-size="14.00">blocked: [llm, write]</text>
<text xml:space="preserve" text-anchor="middle" x="240" y="-2175.81" font-family="Helvetica,sans-Serif" font-size="14.00">timeout: 300s</text>
</g>
<!-- parallel_analysis&#45;&gt;security_scan -->
<g id="edge7" class="edge">
<title>parallel_analysis&#45;&gt;security_scan</title>
<path fill="none" stroke="black" d="M290.62,-2773.1C317.87,-2762.75 346,-2746.48 362,-2721.11 384.48,-2685.47 377.56,-2381.02 362,-2341.86 356.69,-2328.49 349.26,-2315.71 340.68,-2303.74"/>
<polygon fill="black" stroke="black" points="343.62,-2301.83 334.81,-2295.95 338.03,-2306.04 343.62,-2301.83"/>
<text xml:space="preserve" text-anchor="middle" x="384.55" y="-2527.61" font-family="Helvetica,sans-Serif" font-size="10.00">fork</text>
</g>
<!-- complexity_analysis -->
<g id="node8" class="node">
<title>complexity_analysis</title>
<polygon fill="#e8f5e9" stroke="black" points="382.55,-2091.61 155.78,-2091.61 97.45,-1925.61 324.22,-1925.61 382.55,-2091.61"/>
<text xml:space="preserve" text-anchor="middle" x="240" y="-2032.81" font-family="Helvetica,sans-Serif" font-size="14.00">Complexity Analysis</text>
<text xml:space="preserve" text-anchor="middle" x="240" y="-2017.81" font-family="Helvetica,sans-Serif" font-size="14.00">(compute)</text>
<text xml:space="preserve" text-anchor="middle" x="240" y="-2002.81" font-family="Helvetica,sans-Serif" font-size="14.00">exec: in&#45;process</text>
<text xml:space="preserve" text-anchor="middle" x="240" y="-1987.81" font-family="Helvetica,sans-Serif" font-size="14.00">blocked: [llm, write]</text>
<text xml:space="preserve" text-anchor="middle" x="240" y="-1972.81" font-family="Helvetica,sans-Serif" font-size="14.00">timeout: 120s</text>
</g>
<!-- parallel_analysis&#45;&gt;complexity_analysis -->
<g id="edge8" class="edge">
<title>parallel_analysis&#45;&gt;complexity_analysis</title>
<path fill="none" stroke="black" d="M143.74,-2775.72C119.08,-2769.48 91.8,-2761.12 68,-2750.36 46.6,-2740.69 37.92,-2740.02 24,-2721.11 1.49,-2690.53 0,-2677.08 0,-2639.11 0,-2639.11 0,-2639.11 0,-2210.61 0,-2137.22 66.77,-2085.33 129.87,-2052.68"/>
<polygon fill="black" stroke="black" points="131.25,-2055.91 138.6,-2048.29 128.1,-2049.65 131.25,-2055.91"/>
<text xml:space="preserve" text-anchor="middle" x="8.25" y="-2420.98" font-family="Helvetica,sans-Serif" font-size="10.00">fork</text>
</g>
<!-- aggregate_results -->
<g id="node9" class="node">
<title>aggregate_results</title>
<polygon fill="#eceff1" stroke="black" points="408.5,-1888.61 227.5,-1888.61 227.5,-1850.61 408.5,-1850.61 408.5,-1888.61"/>
<text xml:space="preserve" text-anchor="middle" x="318" y="-1871.31" font-family="Helvetica,sans-Serif" font-size="14.00">Aggregate Analysis Results</text>
<text xml:space="preserve" text-anchor="middle" x="318" y="-1856.31" font-family="Helvetica,sans-Serif" font-size="14.00">(transform)</text>
</g>
<!-- parallel_analysis&#45;&gt;aggregate_results -->
<g id="edge9" class="edge">
<title>parallel_analysis&#45;&gt;aggregate_results</title>
<path fill="none" stroke="black" d="M290.53,-2776.69C312.28,-2770.67 335.48,-2762.19 355,-2750.36 403.79,-2720.8 419,-2696.15 419,-2639.11 419,-2639.11 419,-2639.11 419,-2007.61 419,-1969.24 414.45,-1956.73 392,-1925.61 383.58,-1913.93 371.94,-1903.67 360.38,-1895.27"/>
<polygon fill="black" stroke="black" points="362.66,-1892.59 352.44,-1889.8 358.69,-1898.36 362.66,-1892.59"/>
<text xml:space="preserve" text-anchor="middle" x="426.5" y="-2314.36" font-family="Helvetica,sans-Serif" font-size="10.00">join</text>
</g>
<!-- lint_check&#45;&gt;type_check -->
<g id="edge10" class="edge">
<title>lint_check&#45;&gt;type_check</title>
<path fill="none" stroke="black" d="M217,-2554.83C217,-2543.24 217,-2531.26 217,-2519.48"/>
<polygon fill="black" stroke="black" points="220.5,-2519.78 217,-2509.78 213.5,-2519.78 220.5,-2519.78"/>
</g>
<!-- type_check&#45;&gt;security_scan -->
<g id="edge11" class="edge">
<title>type_check&#45;&gt;security_scan</title>
<path fill="none" stroke="black" d="M225.96,-2341.58C227.22,-2329.99 228.52,-2318.01 229.81,-2306.23"/>
<polygon fill="black" stroke="black" points="233.26,-2306.84 230.86,-2296.52 226.3,-2306.08 233.26,-2306.84"/>
</g>
<!-- security_scan&#45;&gt;complexity_analysis -->
<g id="edge12" class="edge">
<title>security_scan&#45;&gt;complexity_analysis</title>
<path fill="none" stroke="black" d="M240,-2128.28C240,-2120 240,-2111.56 240,-2103.18"/>
<polygon fill="black" stroke="black" points="243.5,-2103.33 240,-2093.33 236.5,-2103.33 243.5,-2103.33"/>
</g>
<!-- complexity_analysis&#45;&gt;aggregate_results -->
<g id="edge13" class="edge">
<title>complexity_analysis&#45;&gt;aggregate_results</title>
<path fill="none" stroke="black" d="M286.95,-1925.15C292.27,-1915.8 297.39,-1906.81 301.88,-1898.92"/>
<polygon fill="black" stroke="black" points="304.92,-1900.65 306.83,-1890.23 298.84,-1897.19 304.92,-1900.65"/>
</g>
<!-- ai_review -->
<g id="node10" class="node">
<title>ai_review</title>
<path fill="#e3f2fd" stroke="black" d="M362.38,-1813.61C362.38,-1813.61 273.62,-1813.61 273.62,-1813.61 267.62,-1813.61 261.62,-1807.61 261.62,-1801.61 261.62,-1801.61 261.62,-1772.61 261.62,-1772.61 261.62,-1766.61 267.62,-1760.61 273.62,-1760.61 273.62,-1760.61 362.38,-1760.61 362.38,-1760.61 368.38,-1760.61 374.38,-1766.61 374.38,-1772.61 374.38,-1772.61 374.38,-1801.61 374.38,-1801.61 374.38,-1807.61 368.38,-1813.61 362.38,-1813.61"/>
<text xml:space="preserve" text-anchor="middle" x="318" y="-1796.31" font-family="Helvetica,sans-Serif" font-size="14.00">AI Code Review</text>
<text xml:space="preserve" text-anchor="middle" x="318" y="-1781.31" font-family="Helvetica,sans-Serif" font-size="14.00">(agent)</text>
<text xml:space="preserve" text-anchor="middle" x="318" y="-1766.31" font-family="Helvetica,sans-Serif" font-size="14.00">role: reviewer</text>
</g>
<!-- aggregate_results&#45;&gt;ai_review -->
<g id="edge14" class="edge">
<title>aggregate_results&#45;&gt;ai_review</title>
<path fill="none" stroke="black" d="M318,-1850.34C318,-1842.86 318,-1833.91 318,-1825.17"/>
<polygon fill="black" stroke="black" points="321.5,-1825.45 318,-1815.45 314.5,-1825.45 321.5,-1825.45"/>
</g>
<!-- categorize_findings -->
<g id="node11" class="node">
<title>categorize_findings</title>
<path fill="#e3f2fd" stroke="black" d="M398,-1723.61C398,-1723.61 238,-1723.61 238,-1723.61 232,-1723.61 226,-1717.61 226,-1711.61 226,-1711.61 226,-1682.61 226,-1682.61 226,-1676.61 232,-1670.61 238,-1670.61 238,-1670.61 398,-1670.61 398,-1670.61 404,-1670.61 410,-1676.61 410,-1682.61 410,-1682.61 410,-1711.61 410,-1711.61 410,-1717.61 404,-1723.61 398,-1723.61"/>
<text xml:space="preserve" text-anchor="middle" x="318" y="-1706.31" font-family="Helvetica,sans-Serif" font-size="14.00">Categorize Review Findings</text>
<text xml:space="preserve" text-anchor="middle" x="318" y="-1691.31" font-family="Helvetica,sans-Serif" font-size="14.00">(agent)</text>
<text xml:space="preserve" text-anchor="middle" x="318" y="-1676.31" font-family="Helvetica,sans-Serif" font-size="14.00">role: analyst</text>
</g>
<!-- ai_review&#45;&gt;categorize_findings -->
<g id="edge15" class="edge">
<title>ai_review&#45;&gt;categorize_findings</title>
<path fill="none" stroke="black" d="M318,-1760.18C318,-1752.4 318,-1743.69 318,-1735.33"/>
<polygon fill="black" stroke="black" points="321.5,-1735.37 318,-1725.37 314.5,-1735.37 321.5,-1735.37"/>
</g>
<!-- check_blocking -->
<g id="node12" class="node">
<title>check_blocking</title>
<polygon fill="#fff3e0" stroke="black" points="318,-1633.61 146.75,-1595.61 318,-1557.61 489.25,-1595.61 318,-1633.61"/>
<text xml:space="preserve" text-anchor="middle" x="318" y="-1597.31" font-family="Helvetica,sans-Serif" font-size="14.00">Check for Blocking Issues</text>
<text xml:space="preserve" text-anchor="middle" x="318" y="-1582.31" font-family="Helvetica,sans-Serif" font-size="14.00">(condition)</text>
</g>
<!-- categorize_findings&#45;&gt;check_blocking -->
<g id="edge16" class="edge">
<title>categorize_findings&#45;&gt;check_blocking</title>
<path fill="none" stroke="black" d="M318,-1670.23C318,-1662.54 318,-1653.86 318,-1645.22"/>
<polygon fill="black" stroke="black" points="321.5,-1645.49 318,-1635.49 314.5,-1645.49 321.5,-1645.49"/>
</g>
<!-- check_major -->
<g id="node13" class="node">
<title>check_major</title>
<polygon fill="#fff3e0" stroke="black" points="222,-1510.36 67.25,-1472.36 222,-1434.36 376.75,-1472.36 222,-1510.36"/>
<text xml:space="preserve" text-anchor="middle" x="222" y="-1474.06" font-family="Helvetica,sans-Serif" font-size="14.00">Check for Major Issues</text>
<text xml:space="preserve" text-anchor="middle" x="222" y="-1459.06" font-family="Helvetica,sans-Serif" font-size="14.00">(condition)</text>
</g>
<!-- check_blocking&#45;&gt;check_major -->
<g id="edge18" class="edge">
<title>check_blocking&#45;&gt;check_major</title>
<path fill="none" stroke="black" stroke-dasharray="5,2" d="M292.78,-1562.75C280.78,-1547.6 266.31,-1529.32 253.58,-1513.25"/>
<polygon fill="black" stroke="black" points="256.61,-1511.44 247.66,-1505.77 251.13,-1515.78 256.61,-1511.44"/>
<text xml:space="preserve" text-anchor="middle" x="283.38" y="-1530.11" font-family="Helvetica,sans-Serif" font-size="10.00">false</text>
</g>
<!-- request_changes -->
<g id="node14" class="node">
<title>request_changes</title>
<ellipse fill="#ffebee" stroke="black" cx="411" cy="-1349.63" rx="87.68" ry="37.48"/>
<text xml:space="preserve" text-anchor="middle" x="411" y="-1358.83" font-family="Helvetica,sans-Serif" font-size="14.00">Request Changes</text>
<text xml:space="preserve" text-anchor="middle" x="411" y="-1343.83" font-family="Helvetica,sans-Serif" font-size="14.00">(hitl)</text>
<text xml:space="preserve" text-anchor="middle" x="411" y="-1328.83" font-family="Helvetica,sans-Serif" font-size="14.00">timeout: 300s</text>
</g>
<!-- check_blocking&#45;&gt;request_changes -->
<g id="edge17" class="edge">
<title>check_blocking&#45;&gt;request_changes</title>
<path fill="none" stroke="black" stroke-dasharray="5,2" d="M349.19,-1564.07C362.63,-1549.13 377.24,-1530.12 386,-1510.36 401.72,-1474.9 407.75,-1431.17 409.97,-1398.44"/>
<polygon fill="black" stroke="black" points="413.45,-1399.05 410.53,-1388.86 406.46,-1398.65 413.45,-1399.05"/>
<text xml:space="preserve" text-anchor="middle" x="414.38" y="-1468.48" font-family="Helvetica,sans-Serif" font-size="10.00">true</text>
</g>
<!-- check_major&#45;&gt;request_changes -->
<g id="edge19" class="edge">
<title>check_major&#45;&gt;request_changes</title>
<path fill="none" stroke="black" stroke-dasharray="5,2" d="M264.42,-1444.27C290.72,-1427.46 324.85,-1405.66 353.56,-1387.32"/>
<polygon fill="black" stroke="black" points="355.25,-1390.4 361.79,-1382.06 351.48,-1384.5 355.25,-1390.4"/>
<text xml:space="preserve" text-anchor="middle" x="330.42" y="-1406.86" font-family="Helvetica,sans-Serif" font-size="10.00">true</text>
</g>
<!-- approve_with_comments -->
<g id="node21" class="node">
<title>approve_with_comments</title>
<path fill="#e3f2fd" stroke="black" d="M318.5,-533.7C318.5,-533.7 149.5,-533.7 149.5,-533.7 143.5,-533.7 137.5,-527.7 137.5,-521.7 137.5,-521.7 137.5,-492.7 137.5,-492.7 137.5,-486.7 143.5,-480.7 149.5,-480.7 149.5,-480.7 318.5,-480.7 318.5,-480.7 324.5,-480.7 330.5,-486.7 330.5,-492.7 330.5,-492.7 330.5,-521.7 330.5,-521.7 330.5,-527.7 324.5,-533.7 318.5,-533.7"/>
<text xml:space="preserve" text-anchor="middle" x="234" y="-516.4" font-family="Helvetica,sans-Serif" font-size="14.00">Generate Approval Summary</text>
<text xml:space="preserve" text-anchor="middle" x="234" y="-501.4" font-family="Helvetica,sans-Serif" font-size="14.00">(agent)</text>
<text xml:space="preserve" text-anchor="middle" x="234" y="-486.4" font-family="Helvetica,sans-Serif" font-size="14.00">role: writer</text>
</g>
<!-- check_major&#45;&gt;approve_with_comments -->
<g id="edge20" class="edge">
<title>check_major&#45;&gt;approve_with_comments</title>
<path fill="none" stroke="black" stroke-dasharray="5,2" d="M222,-1434.11C222,-1410.24 222,-1378.61 222,-1350.63 222,-1350.63 222,-1350.63 222,-596.2 222,-579.2 224.23,-560.53 226.76,-544.77"/>
<polygon fill="black" stroke="black" points="230.13,-545.82 228.38,-535.37 223.23,-544.63 230.13,-545.82"/>
<text xml:space="preserve" text-anchor="middle" x="232.5" y="-1009.58" font-family="Helvetica,sans-Serif" font-size="10.00">false</text>
</g>
<!-- offer_auto_fix -->
<g id="node15" class="node">
<title>offer_auto_fix</title>
<ellipse fill="#ffebee" stroke="black" cx="411" cy="-1237.68" rx="71.24" ry="37.48"/>
<text xml:space="preserve" text-anchor="middle" x="411" y="-1246.88" font-family="Helvetica,sans-Serif" font-size="14.00">Offer Auto&#45;Fix</text>
<text xml:space="preserve" text-anchor="middle" x="411" y="-1231.88" font-family="Helvetica,sans-Serif" font-size="14.00">(hitl)</text>
<text xml:space="preserve" text-anchor="middle" x="411" y="-1216.88" font-family="Helvetica,sans-Serif" font-size="14.00">timeout: 300s</text>
</g>
<!-- request_changes&#45;&gt;offer_auto_fix -->
<g id="edge21" class="edge">
<title>request_changes&#45;&gt;offer_auto_fix</title>
<path fill="none" stroke="black" d="M411,-1311.71C411,-1303.65 411,-1295 411,-1286.58"/>
<polygon fill="black" stroke="black" points="414.5,-1286.83 411,-1276.83 407.5,-1286.83 414.5,-1286.83"/>
</g>
<!-- handle_auto_fix -->
<g id="node16" class="node">
<title>handle_auto_fix</title>
<polygon fill="#fff3e0" stroke="black" points="411,-1163.2 252.5,-1125.2 411,-1087.2 569.5,-1125.2 411,-1163.2"/>
<text xml:space="preserve" text-anchor="middle" x="411" y="-1126.9" font-family="Helvetica,sans-Serif" font-size="14.00">Handle Auto&#45;Fix Choice</text>
<text xml:space="preserve" text-anchor="middle" x="411" y="-1111.9" font-family="Helvetica,sans-Serif" font-size="14.00">(condition)</text>
</g>
<!-- offer_auto_fix&#45;&gt;handle_auto_fix -->
<g id="edge22" class="edge">
<title>offer_auto_fix&#45;&gt;handle_auto_fix</title>
<path fill="none" stroke="black" d="M411,-1199.89C411,-1191.87 411,-1183.25 411,-1174.85"/>
<polygon fill="black" stroke="black" points="414.5,-1175.1 411,-1165.1 407.5,-1175.1 414.5,-1175.1"/>
</g>
<!-- apply_fixes -->
<g id="node17" class="node">
<title>apply_fixes</title>
<path fill="#e3f2fd" stroke="black" d="M444,-1039.95C444,-1039.95 350,-1039.95 350,-1039.95 344,-1039.95 338,-1033.95 338,-1027.95 338,-1027.95 338,-998.95 338,-998.95 338,-992.95 344,-986.95 350,-986.95 350,-986.95 444,-986.95 444,-986.95 450,-986.95 456,-992.95 456,-998.95 456,-998.95 456,-1027.95 456,-1027.95 456,-1033.95 450,-1039.95 444,-1039.95"/>
<text xml:space="preserve" text-anchor="middle" x="397" y="-1022.65" font-family="Helvetica,sans-Serif" font-size="14.00">Apply Auto&#45;Fixes</text>
<text xml:space="preserve" text-anchor="middle" x="397" y="-1007.65" font-family="Helvetica,sans-Serif" font-size="14.00">(agent)</text>
<text xml:space="preserve" text-anchor="middle" x="397" y="-992.65" font-family="Helvetica,sans-Serif" font-size="14.00">role: executor</text>
</g>
<!-- handle_auto_fix&#45;&gt;apply_fixes -->
<g id="edge23" class="edge">
<title>handle_auto_fix&#45;&gt;apply_fixes</title>
<path fill="none" stroke="black" stroke-dasharray="5,2" d="M406.38,-1087.96C404.88,-1076.26 403.23,-1063.27 401.73,-1051.5"/>
<polygon fill="black" stroke="black" points="405.22,-1051.22 400.48,-1041.74 398.27,-1052.1 405.22,-1051.22"/>
<text xml:space="preserve" text-anchor="middle" x="450.46" y="-1059.7" font-family="Helvetica,sans-Serif" font-size="10.00">Yes, fix automatically</text>
</g>
<!-- complete_with_changes -->
<g id="node26" class="node">
<title>complete_with_changes</title>
<polygon fill="#eceff1" stroke="black" points="502.5,-38 363.5,-38 363.5,0 502.5,0 502.5,-38"/>
<text xml:space="preserve" text-anchor="middle" x="433" y="-20.7" font-family="Helvetica,sans-Serif" font-size="14.00">Changes Requested</text>
<text xml:space="preserve" text-anchor="middle" x="433" y="-5.7" font-family="Helvetica,sans-Serif" font-size="14.00">(transform)</text>
</g>
<!-- handle_auto_fix&#45;&gt;complete_with_changes -->
<g id="edge24" class="edge">
<title>handle_auto_fix&#45;&gt;complete_with_changes</title>
<path fill="none" stroke="black" stroke-dasharray="5,2" d="M469.46,-1100.83C503.59,-1082.92 540,-1054.44 540,-1014.45 540,-1014.45 540,-1014.45 540,-93 540,-70.78 524.06,-54.84 504.49,-43.64"/>
<polygon fill="black" stroke="black" points="506.14,-40.55 495.66,-39.06 502.92,-46.77 506.14,-40.55"/>
<text xml:space="preserve" text-anchor="middle" x="582" y="-503.33" font-family="Helvetica,sans-Serif" font-size="10.00">No, I&#39;ll fix manually</text>
</g>
<!-- verify_fixes -->
<g id="node18" class="node">
<title>verify_fixes</title>
<polygon fill="#e8f5e9" stroke="black" points="509.45,-949.95 321.02,-949.95 272.55,-783.95 460.98,-783.95 509.45,-949.95"/>
<text xml:space="preserve" text-anchor="middle" x="391" y="-891.15" font-family="Helvetica,sans-Serif" font-size="14.00">Verify Fixes</text>
<text xml:space="preserve" text-anchor="middle" x="391" y="-876.15" font-family="Helvetica,sans-Serif" font-size="14.00">(compute)</text>
<text xml:space="preserve" text-anchor="middle" x="391" y="-861.15" font-family="Helvetica,sans-Serif" font-size="14.00">exec: in&#45;process</text>
<text xml:space="preserve" text-anchor="middle" x="391" y="-846.15" font-family="Helvetica,sans-Serif" font-size="14.00">blocked: [llm]</text>
<text xml:space="preserve" text-anchor="middle" x="391" y="-831.15" font-family="Helvetica,sans-Serif" font-size="14.00">timeout: 300s</text>
</g>
<!-- apply_fixes&#45;&gt;verify_fixes -->
<g id="edge25" class="edge">
<title>apply_fixes&#45;&gt;verify_fixes</title>
<path fill="none" stroke="black" d="M395.93,-986.62C395.62,-979.17 395.26,-970.59 394.88,-961.51"/>
<polygon fill="black" stroke="black" points="398.39,-961.6 394.48,-951.75 391.4,-961.89 398.39,-961.6"/>
</g>
<!-- check_fix_success -->
<g id="node19" class="node">
<title>check_fix_success</title>
<polygon fill="#fff3e0" stroke="black" points="381,-746.95 250.25,-708.95 381,-670.95 511.75,-708.95 381,-746.95"/>
<text xml:space="preserve" text-anchor="middle" x="381" y="-710.65" font-family="Helvetica,sans-Serif" font-size="14.00">Check Fix Success</text>
<text xml:space="preserve" text-anchor="middle" x="381" y="-695.65" font-family="Helvetica,sans-Serif" font-size="14.00">(condition)</text>
</g>
<!-- verify_fixes&#45;&gt;check_fix_success -->
<g id="edge26" class="edge">
<title>verify_fixes&#45;&gt;check_fix_success</title>
<path fill="none" stroke="black" d="M385.74,-783.84C385.17,-774.96 384.6,-766.15 384.07,-757.88"/>
<polygon fill="black" stroke="black" points="387.58,-757.85 383.44,-748.09 380.59,-758.29 387.58,-757.85"/>
</g>
<!-- re_review -->
<g id="node20" class="node">
<title>re_review</title>
<path fill="#e3f2fd" stroke="black" d="M388.5,-623.7C388.5,-623.7 291.5,-623.7 291.5,-623.7 285.5,-623.7 279.5,-617.7 279.5,-611.7 279.5,-611.7 279.5,-582.7 279.5,-582.7 279.5,-576.7 285.5,-570.7 291.5,-570.7 291.5,-570.7 388.5,-570.7 388.5,-570.7 394.5,-570.7 400.5,-576.7 400.5,-582.7 400.5,-582.7 400.5,-611.7 400.5,-611.7 400.5,-617.7 394.5,-623.7 388.5,-623.7"/>
<text xml:space="preserve" text-anchor="middle" x="340" y="-606.4" font-family="Helvetica,sans-Serif" font-size="14.00">Quick Re&#45;Review</text>
<text xml:space="preserve" text-anchor="middle" x="340" y="-591.4" font-family="Helvetica,sans-Serif" font-size="14.00">(agent)</text>
<text xml:space="preserve" text-anchor="middle" x="340" y="-576.4" font-family="Helvetica,sans-Serif" font-size="14.00">role: reviewer</text>
</g>
<!-- check_fix_success&#45;&gt;re_review -->
<g id="edge27" class="edge">
<title>check_fix_success&#45;&gt;re_review</title>
<path fill="none" stroke="black" stroke-dasharray="5,2" d="M368.36,-674.13C363.71,-661.66 358.41,-647.48 353.66,-634.78"/>
<polygon fill="black" stroke="black" points="356.97,-633.63 350.19,-625.49 350.42,-636.08 356.97,-633.63"/>
<text xml:space="preserve" text-anchor="middle" x="367.52" y="-643.45" font-family="Helvetica,sans-Serif" font-size="10.00">true</text>
</g>
<!-- check_fix_success&#45;&gt;complete_with_changes -->
<g id="edge28" class="edge">
<title>check_fix_success&#45;&gt;complete_with_changes</title>
<path fill="none" stroke="black" stroke-dasharray="5,2" d="M414.55,-680.41C435.3,-660.13 458,-630.56 458,-598.2 458,-598.2 458,-598.2 458,-93 458,-77.82 453.1,-61.79 447.65,-48.62"/>
<polygon fill="black" stroke="black" points="450.93,-47.39 443.64,-39.7 444.54,-50.25 450.93,-47.39"/>
<text xml:space="preserve" text-anchor="middle" x="468.5" y="-341.25" font-family="Helvetica,sans-Serif" font-size="10.00">false</text>
</g>
<!-- re_review&#45;&gt;approve_with_comments -->
<g id="edge29" class="edge">
<title>re_review&#45;&gt;approve_with_comments</title>
<path fill="none" stroke="black" d="M308.77,-570.28C297.77,-561.15 285.26,-550.76 273.66,-541.13"/>
<polygon fill="black" stroke="black" points="276.1,-538.61 266.17,-534.91 271.63,-543.99 276.1,-538.61"/>
</g>
<!-- human_approval -->
<g id="node22" class="node">
<title>human_approval</title>
<ellipse fill="#ffebee" stroke="black" cx="234" cy="-406.23" rx="72.3" ry="37.48"/>
<text xml:space="preserve" text-anchor="middle" x="234" y="-415.43" font-family="Helvetica,sans-Serif" font-size="14.00">Final Approval</text>
<text xml:space="preserve" text-anchor="middle" x="234" y="-400.43" font-family="Helvetica,sans-Serif" font-size="14.00">(hitl)</text>
<text xml:space="preserve" text-anchor="middle" x="234" y="-385.43" font-family="Helvetica,sans-Serif" font-size="14.00">timeout: 900s</text>
</g>
<!-- approve_with_comments&#45;&gt;human_approval -->
<g id="edge30" class="edge">
<title>approve_with_comments&#45;&gt;human_approval</title>
<path fill="none" stroke="black" d="M234,-480.46C234,-472.73 234,-463.99 234,-455.31"/>
<polygon fill="black" stroke="black" points="237.5,-455.54 234,-445.54 230.5,-455.54 237.5,-455.54"/>
</g>
<!-- handle_approval -->
<g id="node23" class="node">
<title>handle_approval</title>
<polygon fill="#fff3e0" stroke="black" points="234,-321.5 62.75,-283.5 234,-245.5 405.25,-283.5 234,-321.5"/>
<text xml:space="preserve" text-anchor="middle" x="234" y="-285.2" font-family="Helvetica,sans-Serif" font-size="14.00">Handle Approval Decision</text>
<text xml:space="preserve" text-anchor="middle" x="234" y="-270.2" font-family="Helvetica,sans-Serif" font-size="14.00">(condition)</text>
</g>
<!-- human_approval&#45;&gt;handle_approval -->
<g id="edge31" class="edge">
<title>human_approval&#45;&gt;handle_approval</title>
<path fill="none" stroke="black" d="M234,-368.35C234,-357.32 234,-345.06 234,-333.39"/>
<polygon fill="black" stroke="black" points="237.5,-333.5 234,-323.5 230.5,-333.5 237.5,-333.5"/>
</g>
<!-- schedule_discussion -->
<g id="node24" class="node">
<title>schedule_discussion</title>
<polygon fill="#eceff1" stroke="black" points="429.62,-198.25 288.38,-198.25 288.38,-160.25 429.62,-160.25 429.62,-198.25"/>
<text xml:space="preserve" text-anchor="middle" x="359" y="-180.95" font-family="Helvetica,sans-Serif" font-size="14.00">Schedule Discussion</text>
<text xml:space="preserve" text-anchor="middle" x="359" y="-165.95" font-family="Helvetica,sans-Serif" font-size="14.00">(transform)</text>
</g>
<!-- handle_approval&#45;&gt;schedule_discussion -->
<g id="edge34" class="edge">
<title>handle_approval&#45;&gt;schedule_discussion</title>
<path fill="none" stroke="black" stroke-dasharray="5,2" d="M269.82,-253.2C288.13,-238.22 310.19,-220.17 327.8,-205.77"/>
<polygon fill="black" stroke="black" points="329.86,-208.61 335.38,-199.57 325.42,-203.19 329.86,-208.61"/>
<text xml:space="preserve" text-anchor="middle" x="329.37" y="-218" font-family="Helvetica,sans-Serif" font-size="10.00">Discuss</text>
</g>
<!-- complete_approved -->
<g id="node25" class="node">
<title>complete_approved</title>
<polygon fill="#eceff1" stroke="black" points="419.88,-113 298.12,-113 298.12,-75 419.88,-75 419.88,-113"/>
<text xml:space="preserve" text-anchor="middle" x="359" y="-95.7" font-family="Helvetica,sans-Serif" font-size="14.00">Review Approved</text>
<text xml:space="preserve" text-anchor="middle" x="359" y="-80.7" font-family="Helvetica,sans-Serif" font-size="14.00">(transform)</text>
</g>
<!-- handle_approval&#45;&gt;complete_approved -->
<g id="edge32" class="edge">
<title>handle_approval&#45;&gt;complete_approved</title>
<path fill="none" stroke="black" stroke-dasharray="5,2" d="M228.12,-246.54C225.8,-220.58 226.8,-185.76 243,-160.25 254.61,-141.98 273.25,-128.35 292.22,-118.4"/>
<polygon fill="black" stroke="black" points="293.65,-121.6 301.09,-114.05 290.57,-115.31 293.65,-121.6"/>
<text xml:space="preserve" text-anchor="middle" x="261" y="-175.38" font-family="Helvetica,sans-Serif" font-size="10.00">Approve</text>
</g>
<!-- handle_approval&#45;&gt;complete_with_changes -->
<g id="edge33" class="edge">
<title>handle_approval&#45;&gt;complete_with_changes</title>
<path fill="none" stroke="black" stroke-dasharray="5,2" d="M198.9,-253.05C166.01,-221.78 125.67,-171.41 152.75,-131 196.61,-65.56 285.8,-38.7 351.84,-27.67"/>
<polygon fill="black" stroke="black" points="352.22,-31.16 361.56,-26.15 351.13,-24.24 352.22,-31.16"/>
<text xml:space="preserve" text-anchor="middle" x="203.38" y="-132.75" font-family="Helvetica,sans-Serif" font-size="10.00">Request more changes</text>
</g>
<!-- schedule_discussion&#45;&gt;complete_approved -->
<g id="edge35" class="edge">
<title>schedule_discussion&#45;&gt;complete_approved</title>
<path fill="none" stroke="black" d="M359,-159.77C359,-149.53 359,-136.56 359,-124.91"/>
<polygon fill="black" stroke="black" points="362.5,-124.94 359,-114.94 355.5,-124.94 362.5,-124.94"/>
</g>
<!-- complete_approved&#45;&gt;complete_with_changes -->
<g id="edge36" class="edge">
<title>complete_approved&#45;&gt;complete_with_changes</title>
<path fill="none" stroke="black" d="M377.67,-74.58C386.35,-66.02 396.82,-55.69 406.32,-46.32"/>
<polygon fill="black" stroke="black" points="408.59,-48.99 413.26,-39.48 403.68,-44.01 408.59,-48.99"/>
</g>
</g>
</svg>
