<?xml version="1.0" encoding="UTF-8" standalone="no"?>
<!DOCTYPE svg PUBLIC "-//W3C//DTD SVG 1.1//EN"
 "http://www.w3.org/Graphics/SVG/1.1/DTD/svg11.dtd">
<!-- Generated by graphviz version 14.0.4 (20251115.1723)
 -->
<!-- Title: workflow Pages: 1 -->
<svg width="515pt" height="903pt"
 viewBox="0.00 0.00 515.00 903.00" xmlns="http://www.w3.org/2000/svg" xmlns:xlink="http://www.w3.org/1999/xlink">
<g id="graph0" class="graph" transform="scale(1 1) rotate(0) translate(4 899)">
<title>workflow</title>
<polygon fill="white" stroke="none" points="-4,4 -4,-899 510.77,-899 510.77,4 -4,4"/>
<text xml:space="preserve" text-anchor="middle" x="253.39" y="-877.7" font-family="Times,serif" font-size="14.00">tdd_quick</text>
<!-- write_test -->
<g id="node1" class="node">
<title>write_test</title>
<path fill="#e3f2fd" stroke="black" d="M418.19,-870.5C418.19,-870.5 322.69,-870.5 322.69,-870.5 316.69,-870.5 310.69,-864.5 310.69,-858.5 310.69,-858.5 310.69,-829.5 310.69,-829.5 310.69,-823.5 316.69,-817.5 322.69,-817.5 322.69,-817.5 418.19,-817.5 418.19,-817.5 424.19,-817.5 430.19,-823.5 430.19,-829.5 430.19,-829.5 430.19,-858.5 430.19,-858.5 430.19,-864.5 424.19,-870.5 418.19,-870.5"/>
<text xml:space="preserve" text-anchor="middle" x="370.44" y="-853.2" font-family="Helvetica,sans-Serif" font-size="14.00">Write Failing Test</text>
<text xml:space="preserve" text-anchor="middle" x="370.44" y="-838.2" font-family="Helvetica,sans-Serif" font-size="14.00">(agent)</text>
<text xml:space="preserve" text-anchor="middle" x="370.44" y="-823.2" font-family="Helvetica,sans-Serif" font-size="14.00">role: executor</text>
</g>
<!-- run_test -->
<g id="node2" class="node">
<title>run_test</title>
<polygon fill="#e8f5e9" stroke="black" points="506.77,-780.5 289.9,-780.5 234.11,-614.5 450.98,-614.5 506.77,-780.5"/>
<text xml:space="preserve" text-anchor="middle" x="370.44" y="-721.7" font-family="Helvetica,sans-Serif" font-size="14.00">Run Test</text>
<text xml:space="preserve" text-anchor="middle" x="370.44" y="-706.7" font-family="Helvetica,sans-Serif" font-size="14.00">(compute)</text>
<text xml:space="preserve" text-anchor="middle" x="370.44" y="-691.7" font-family="Helvetica,sans-Serif" font-size="14.00">exec: in&#45;process</text>
<text xml:space="preserve" text-anchor="middle" x="370.44" y="-676.7" font-family="Helvetica,sans-Serif" font-size="14.00">blocked: [llm, write]</text>
<text xml:space="preserve" text-anchor="middle" x="370.44" y="-661.7" font-family="Helvetica,sans-Serif" font-size="14.00">timeout: 60s</text>
</g>
<!-- write_test&#45;&gt;run_test -->
<g id="edge1" class="edge">
<title>write_test&#45;&gt;run_test</title>
<path fill="none" stroke="black" d="M370.44,-817.17C370.44,-809.72 370.44,-801.14 370.44,-792.06"/>
<polygon fill="black" stroke="black" points="373.94,-792.3 370.44,-782.3 366.94,-792.3 373.94,-792.3"/>
</g>
<!-- check_test -->
<g id="node3" class="node">
<title>check_test</title>
<polygon fill="#fff3e0" stroke="black" points="370.44,-577.5 287.69,-539.5 370.44,-501.5 453.19,-539.5 370.44,-577.5"/>
<text xml:space="preserve" text-anchor="middle" x="370.44" y="-541.2" font-family="Helvetica,sans-Serif" font-size="14.00">Check Test</text>
<text xml:space="preserve" text-anchor="middle" x="370.44" y="-526.2" font-family="Helvetica,sans-Serif" font-size="14.00">(condition)</text>
</g>
<!-- run_test&#45;&gt;check_test -->
<g id="edge2" class="edge">
<title>run_test&#45;&gt;check_test</title>
<path fill="none" stroke="black" d="M370.44,-614.39C370.44,-605.81 370.44,-597.29 370.44,-589.26"/>
<polygon fill="black" stroke="black" points="373.94,-589.4 370.44,-579.4 366.94,-589.4 373.94,-589.4"/>
</g>
<!-- implement -->
<g id="node4" class="node">
<title>implement</title>
<path fill="#e3f2fd" stroke="black" d="M373.69,-454.25C373.69,-454.25 281.19,-454.25 281.19,-454.25 275.19,-454.25 269.19,-448.25 269.19,-442.25 269.19,-442.25 269.19,-413.25 269.19,-413.25 269.19,-407.25 275.19,-401.25 281.19,-401.25 281.19,-401.25 373.69,-401.25 373.69,-401.25 379.69,-401.25 385.69,-407.25 385.69,-413.25 385.69,-413.25 385.69,-442.25 385.69,-442.25 385.69,-448.25 379.69,-454.25 373.69,-454.25"/>
<text xml:space="preserve" text-anchor="middle" x="327.44" y="-436.95" font-family="Helvetica,sans-Serif" font-size="14.00">Implement Code</text>
<text xml:space="preserve" text-anchor="middle" x="327.44" y="-421.95" font-family="Helvetica,sans-Serif" font-size="14.00">(agent)</text>
<text xml:space="preserve" text-anchor="middle" x="327.44" y="-406.95" font-family="Helvetica,sans-Serif" font-size="14.00">role: executor</text>
</g>
<!-- check_test&#45;&gt;implement -->
<g id="edge3" class="edge">
<title>check_test&#45;&gt;implement</title>
<path fill="none" stroke="black" stroke-dasharray="5,2" d="M358,-506.76C352.87,-493.67 346.9,-478.43 341.61,-464.92"/>
<polygon fill="black" stroke="black" points="344.99,-463.96 338.09,-455.93 338.48,-466.52 344.99,-463.96"/>
<text xml:space="preserve" text-anchor="middle" x="355.9" y="-474" font-family="Helvetica,sans-Serif" font-size="10.00">true</text>
</g>
<!-- complete -->
<g id="node7" class="node">
<title>complete</title>
<polygon fill="#eceff1" stroke="black" points="396.81,-38 314.06,-38 314.06,0 396.81,0 396.81,-38"/>
<text xml:space="preserve" text-anchor="middle" x="355.44" y="-20.7" font-family="Helvetica,sans-Serif" font-size="14.00">Done</text>
<text xml:space="preserve" text-anchor="middle" x="355.44" y="-5.7" font-family="Helvetica,sans-Serif" font-size="14.00">(transform)</text>
</g>
<!-- check_test&#45;&gt;complete -->
<g id="edge4" class="edge">
<title>check_test&#45;&gt;complete</title>
<path fill="none" stroke="black" stroke-dasharray="5,2" d="M388.68,-509.42C400.39,-487.97 413.44,-457.6 413.44,-428.75 413.44,-428.75 413.44,-428.75 413.44,-122.25 413.44,-93.88 396.34,-66.18 380.71,-46.78"/>
<polygon fill="black" stroke="black" points="383.58,-44.75 374.45,-39.37 378.24,-49.27 383.58,-44.75"/>
<text xml:space="preserve" text-anchor="middle" x="423.94" y="-277.38" font-family="Helvetica,sans-Serif" font-size="10.00">false</text>
</g>
<!-- verify -->
<g id="node5" class="node">
<title>verify</title>
<polygon fill="#e8f5e9" stroke="black" points="306.88,-364.25 62.79,-364.25 0,-198.25 244.09,-198.25 306.88,-364.25"/>
<text xml:space="preserve" text-anchor="middle" x="153.44" y="-305.45" font-family="Helvetica,sans-Serif" font-size="14.00">Verify Implementation</text>
<text xml:space="preserve" text-anchor="middle" x="153.44" y="-290.45" font-family="Helvetica,sans-Serif" font-size="14.00">(compute)</text>
<text xml:space="preserve" text-anchor="middle" x="153.44" y="-275.45" font-family="Helvetica,sans-Serif" font-size="14.00">exec: in&#45;process</text>
<text xml:space="preserve" text-anchor="middle" x="153.44" y="-260.45" font-family="Helvetica,sans-Serif" font-size="14.00">blocked: [llm, write]</text>
<text xml:space="preserve" text-anchor="middle" x="153.44" y="-245.45" font-family="Helvetica,sans-Serif" font-size="14.00">timeout: 60s</text>
</g>
<!-- implement&#45;&gt;verify -->
<g id="edge5" class="edge">
<title>implement&#45;&gt;verify</title>
<path fill="none" stroke="black" d="M296.33,-400.92C286.09,-392.41 274.05,-382.41 261.38,-371.89"/>
<polygon fill="black" stroke="black" points="263.62,-369.2 253.69,-365.5 259.14,-374.58 263.62,-369.2"/>
</g>
<!-- check_pass -->
<g id="node6" class="node">
<title>check_pass</title>
<polygon fill="#fff3e0" stroke="black" points="297.44,-161.25 209.44,-123.25 297.44,-85.25 385.44,-123.25 297.44,-161.25"/>
<text xml:space="preserve" text-anchor="middle" x="297.44" y="-124.95" font-family="Helvetica,sans-Serif" font-size="14.00">Check Pass</text>
<text xml:space="preserve" text-anchor="middle" x="297.44" y="-109.95" font-family="Helvetica,sans-Serif" font-size="14.00">(condition)</text>
</g>
<!-- verify&#45;&gt;check_pass -->
<g id="edge6" class="edge">
<title>verify&#45;&gt;check_pass</title>
<path fill="none" stroke="black" d="M229.23,-198.14C241.99,-184.32 254.59,-170.67 265.42,-158.93"/>
<polygon fill="black" stroke="black" points="267.74,-161.59 271.95,-151.87 262.59,-156.84 267.74,-161.59"/>
</g>
<!-- check_pass&#45;&gt;implement -->
<g id="edge8" class="edge">
<title>check_pass&#45;&gt;implement</title>
<path fill="none" stroke="black" stroke-dasharray="5,2" d="M306.93,-157.51C310.16,-170.16 313.46,-184.78 315.44,-198.25 325.25,-265.18 327.32,-344.17 327.6,-389.56"/>
<polygon fill="black" stroke="black" points="324.1,-389.39 327.64,-399.38 331.1,-389.37 324.1,-389.39"/>
<text xml:space="preserve" text-anchor="middle" x="337.74" y="-277.38" font-family="Helvetica,sans-Serif" font-size="10.00">false</text>
</g>
<!-- check_pass&#45;&gt;complete -->
<g id="edge7" class="edge">
<title>check_pass&#45;&gt;complete</title>
<path fill="none" stroke="black" stroke-dasharray="5,2" d="M314.53,-92.12C322.41,-78.23 331.71,-61.83 339.45,-48.18"/>
<polygon fill="black" stroke="black" points="342.38,-50.11 344.27,-39.69 336.29,-46.66 342.38,-50.11"/>
<text xml:space="preserve" text-anchor="middle" x="341.59" y="-57.75" font-family="Helvetica,sans-Serif" font-size="10.00">true</text>
</g>
</g>
</svg>
