<?xml version="1.0" encoding="UTF-8" standalone="no"?>
<!DOCTYPE svg PUBLIC "-//W3C//DTD SVG 1.1//EN"
 "http://www.w3.org/Graphics/SVG/1.1/DTD/svg11.dtd">
<!-- Generated by graphviz version 14.0.4 (20251115.1723)
 -->
<!-- Title: workflow Pages: 1 -->
<svg width="680pt" height="2354pt"
 viewBox="0.00 0.00 680.00 2354.00" xmlns="http://www.w3.org/2000/svg" xmlns:xlink="http://www.w3.org/1999/xlink">
<g id="graph0" class="graph" transform="scale(1 1) rotate(0) translate(4 2350.45)">
<title>workflow</title>
<polygon fill="white" stroke="none" points="-4,4 -4,-2350.45 675.93,-2350.45 675.93,4 -4,4"/>
<text xml:space="preserve" text-anchor="middle" x="335.97" y="-2329.15" font-family="Times,serif" font-size="14.00">tdd</text>
<!-- analyze_feature -->
<g id="node1" class="node">
<title>analyze_feature</title>
<path fill="#e3f2fd" stroke="black" d="M568.18,-2321.95C568.18,-2321.95 426.93,-2321.95 426.93,-2321.95 420.93,-2321.95 414.93,-2315.95 414.93,-2309.95 414.93,-2309.95 414.93,-2280.95 414.93,-2280.95 414.93,-2274.95 420.93,-2268.95 426.93,-2268.95 426.93,-2268.95 568.18,-2268.95 568.18,-2268.95 574.18,-2268.95 580.18,-2274.95 580.18,-2280.95 580.18,-2280.95 580.18,-2309.95 580.18,-2309.95 580.18,-2315.95 574.18,-2321.95 568.18,-2321.95"/>
<text xml:space="preserve" text-anchor="middle" x="497.56" y="-2304.65" font-family="Helvetica,sans-Serif" font-size="14.00">Analyze Feature for TDD</text>
<text xml:space="preserve" text-anchor="middle" x="497.56" y="-2289.65" font-family="Helvetica,sans-Serif" font-size="14.00">(agent)</text>
<text xml:space="preserve" text-anchor="middle" x="497.56" y="-2274.65" font-family="Helvetica,sans-Serif" font-size="14.00">role: researcher</text>
</g>
<!-- define_tests -->
<g id="node2" class="node">
<title>define_tests</title>
<path fill="#e3f2fd" stroke="black" d="M548.31,-2231.95C548.31,-2231.95 446.81,-2231.95 446.81,-2231.95 440.81,-2231.95 434.81,-2225.95 434.81,-2219.95 434.81,-2219.95 434.81,-2190.95 434.81,-2190.95 434.81,-2184.95 440.81,-2178.95 446.81,-2178.95 446.81,-2178.95 548.31,-2178.95 548.31,-2178.95 554.31,-2178.95 560.31,-2184.95 560.31,-2190.95 560.31,-2190.95 560.31,-2219.95 560.31,-2219.95 560.31,-2225.95 554.31,-2231.95 548.31,-2231.95"/>
<text xml:space="preserve" text-anchor="middle" x="497.56" y="-2214.65" font-family="Helvetica,sans-Serif" font-size="14.00">Define Test Cases</text>
<text xml:space="preserve" text-anchor="middle" x="497.56" y="-2199.65" font-family="Helvetica,sans-Serif" font-size="14.00">(agent)</text>
<text xml:space="preserve" text-anchor="middle" x="497.56" y="-2184.65" font-family="Helvetica,sans-Serif" font-size="14.00">role: planner</text>
</g>
<!-- analyze_feature&#45;&gt;define_tests -->
<g id="edge1" class="edge">
<title>analyze_feature&#45;&gt;define_tests</title>
<path fill="none" stroke="black" d="M497.56,-2268.53C497.56,-2260.74 497.56,-2252.04 497.56,-2243.67"/>
<polygon fill="black" stroke="black" points="501.06,-2243.71 497.56,-2233.71 494.06,-2243.71 501.06,-2243.71"/>
</g>
<!-- start_tdd_cycle -->
<g id="node3" class="node">
<title>start_tdd_cycle</title>
<polygon fill="#eceff1" stroke="black" points="564.43,-2141.95 430.68,-2141.95 430.68,-2103.95 564.43,-2103.95 564.43,-2141.95"/>
<text xml:space="preserve" text-anchor="middle" x="497.56" y="-2124.65" font-family="Helvetica,sans-Serif" font-size="14.00">Initialize TDD Cycle</text>
<text xml:space="preserve" text-anchor="middle" x="497.56" y="-2109.65" font-family="Helvetica,sans-Serif" font-size="14.00">(transform)</text>
</g>
<!-- define_tests&#45;&gt;start_tdd_cycle -->
<g id="edge2" class="edge">
<title>define_tests&#45;&gt;start_tdd_cycle</title>
<path fill="none" stroke="black" d="M497.56,-2178.54C497.56,-2170.63 497.56,-2161.88 497.56,-2153.74"/>
<polygon fill="black" stroke="black" points="501.06,-2153.94 497.56,-2143.94 494.06,-2153.94 501.06,-2153.94"/>
</g>
<!-- write_test -->
<g id="node4" class="node">
<title>write_test</title>
<path fill="#e3f2fd" stroke="black" d="M311.06,-2066.95C311.06,-2066.95 178.06,-2066.95 178.06,-2066.95 172.06,-2066.95 166.06,-2060.95 166.06,-2054.95 166.06,-2054.95 166.06,-2025.95 166.06,-2025.95 166.06,-2019.95 172.06,-2013.95 178.06,-2013.95 178.06,-2013.95 311.06,-2013.95 311.06,-2013.95 317.06,-2013.95 323.06,-2019.95 323.06,-2025.95 323.06,-2025.95 323.06,-2054.95 323.06,-2054.95 323.06,-2060.95 317.06,-2066.95 311.06,-2066.95"/>
<text xml:space="preserve" text-anchor="middle" x="244.56" y="-2049.65" font-family="Helvetica,sans-Serif" font-size="14.00">Write Failing Test (Red)</text>
<text xml:space="preserve" text-anchor="middle" x="244.56" y="-2034.65" font-family="Helvetica,sans-Serif" font-size="14.00">(agent)</text>
<text xml:space="preserve" text-anchor="middle" x="244.56" y="-2019.65" font-family="Helvetica,sans-Serif" font-size="14.00">role: executor</text>
</g>
<!-- start_tdd_cycle&#45;&gt;write_test -->
<g id="edge3" class="edge">
<title>start_tdd_cycle&#45;&gt;write_test</title>
<path fill="none" stroke="black" d="M439.51,-2103.48C408.31,-2093.56 369.16,-2081.1 334.14,-2069.96"/>
<polygon fill="black" stroke="black" points="335.45,-2066.7 324.86,-2067.01 333.33,-2073.37 335.45,-2066.7"/>
</g>
<!-- verify_red -->
<g id="node5" class="node">
<title>verify_red</title>
<polygon fill="#e8f5e9" stroke="black" points="380.89,-1976.95 164.01,-1976.95 108.22,-1810.95 325.1,-1810.95 380.89,-1976.95"/>
<text xml:space="preserve" text-anchor="middle" x="244.56" y="-1918.15" font-family="Helvetica,sans-Serif" font-size="14.00">Verify Test Fails</text>
<text xml:space="preserve" text-anchor="middle" x="244.56" y="-1903.15" font-family="Helvetica,sans-Serif" font-size="14.00">(compute)</text>
<text xml:space="preserve" text-anchor="middle" x="244.56" y="-1888.15" font-family="Helvetica,sans-Serif" font-size="14.00">exec: in&#45;process</text>
<text xml:space="preserve" text-anchor="middle" x="244.56" y="-1873.15" font-family="Helvetica,sans-Serif" font-size="14.00">blocked: [llm, write]</text>
<text xml:space="preserve" text-anchor="middle" x="244.56" y="-1858.15" font-family="Helvetica,sans-Serif" font-size="14.00">timeout: 120s</text>
</g>
<!-- write_test&#45;&gt;verify_red -->
<g id="edge4" class="edge">
<title>write_test&#45;&gt;verify_red</title>
<path fill="none" stroke="black" d="M244.56,-2013.62C244.56,-2006.17 244.56,-1997.59 244.56,-1988.51"/>
<polygon fill="black" stroke="black" points="248.06,-1988.75 244.56,-1978.75 241.06,-1988.75 248.06,-1988.75"/>
</g>
<!-- check_red -->
<g id="node6" class="node">
<title>check_red</title>
<polygon fill="#fff3e0" stroke="black" points="352.56,-1773.95 227.81,-1735.95 352.56,-1697.95 477.31,-1735.95 352.56,-1773.95"/>
<text xml:space="preserve" text-anchor="middle" x="352.56" y="-1737.65" font-family="Helvetica,sans-Serif" font-size="14.00">Check Red Phase</text>
<text xml:space="preserve" text-anchor="middle" x="352.56" y="-1722.65" font-family="Helvetica,sans-Serif" font-size="14.00">(condition)</text>
</g>
<!-- verify_red&#45;&gt;check_red -->
<g id="edge5" class="edge">
<title>verify_red&#45;&gt;check_red</title>
<path fill="none" stroke="black" d="M301.4,-1810.84C309.57,-1799.04 317.66,-1787.36 324.9,-1776.9"/>
<polygon fill="black" stroke="black" points="327.62,-1779.12 330.44,-1768.9 321.87,-1775.13 327.62,-1779.12"/>
</g>
<!-- fix_test -->
<g id="node7" class="node">
<title>fix_test</title>
<path fill="#e3f2fd" stroke="black" d="M238.31,-1650.7C238.31,-1650.7 160.81,-1650.7 160.81,-1650.7 154.81,-1650.7 148.81,-1644.7 148.81,-1638.7 148.81,-1638.7 148.81,-1609.7 148.81,-1609.7 148.81,-1603.7 154.81,-1597.7 160.81,-1597.7 160.81,-1597.7 238.31,-1597.7 238.31,-1597.7 244.31,-1597.7 250.31,-1603.7 250.31,-1609.7 250.31,-1609.7 250.31,-1638.7 250.31,-1638.7 250.31,-1644.7 244.31,-1650.7 238.31,-1650.7"/>
<text xml:space="preserve" text-anchor="middle" x="199.56" y="-1633.4" font-family="Helvetica,sans-Serif" font-size="14.00">Fix Test Setup</text>
<text xml:space="preserve" text-anchor="middle" x="199.56" y="-1618.4" font-family="Helvetica,sans-Serif" font-size="14.00">(agent)</text>
<text xml:space="preserve" text-anchor="middle" x="199.56" y="-1603.4" font-family="Helvetica,sans-Serif" font-size="14.00">role: executor</text>
</g>
<!-- check_red&#45;&gt;fix_test -->
<g id="edge7" class="edge">
<title>check_red&#45;&gt;fix_test</title>
<path fill="none" stroke="black" stroke-dasharray="5,2" d="M315.91,-1708.67C294.54,-1693.34 267.42,-1673.88 244.74,-1657.61"/>
<polygon fill="black" stroke="black" points="247.03,-1654.95 236.87,-1651.97 242.95,-1660.64 247.03,-1654.95"/>
<text xml:space="preserve" text-anchor="middle" x="281.97" y="-1670.45" font-family="Helvetica,sans-Serif" font-size="10.00">false</text>
</g>
<!-- implement_minimum -->
<g id="node8" class="node">
<title>implement_minimum</title>
<path fill="#e3f2fd" stroke="black" d="M484.68,-1650.7C484.68,-1650.7 280.43,-1650.7 280.43,-1650.7 274.43,-1650.7 268.43,-1644.7 268.43,-1638.7 268.43,-1638.7 268.43,-1609.7 268.43,-1609.7 268.43,-1603.7 274.43,-1597.7 280.43,-1597.7 280.43,-1597.7 484.68,-1597.7 484.68,-1597.7 490.68,-1597.7 496.68,-1603.7 496.68,-1609.7 496.68,-1609.7 496.68,-1638.7 496.68,-1638.7 496.68,-1644.7 490.68,-1650.7 484.68,-1650.7"/>
<text xml:space="preserve" text-anchor="middle" x="382.56" y="-1633.4" font-family="Helvetica,sans-Serif" font-size="14.00">Implement Minimum Code (Green)</text>
<text xml:space="preserve" text-anchor="middle" x="382.56" y="-1618.4" font-family="Helvetica,sans-Serif" font-size="14.00">(agent)</text>
<text xml:space="preserve" text-anchor="middle" x="382.56" y="-1603.4" font-family="Helvetica,sans-Serif" font-size="14.00">role: executor</text>
</g>
<!-- check_red&#45;&gt;implement_minimum -->
<g id="edge6" class="edge">
<title>check_red&#45;&gt;implement_minimum</title>
<path fill="none" stroke="black" stroke-dasharray="5,2" d="M361.96,-1700.53C365.31,-1688.3 369.08,-1674.5 372.48,-1662.08"/>
<polygon fill="black" stroke="black" points="375.8,-1663.17 375.07,-1652.6 369.05,-1661.33 375.8,-1663.17"/>
<text xml:space="preserve" text-anchor="middle" x="378.49" y="-1670.45" font-family="Helvetica,sans-Serif" font-size="10.00">true</text>
</g>
<!-- fix_test&#45;&gt;verify_red -->
<g id="edge8" class="edge">
<title>fix_test&#45;&gt;verify_red</title>
<path fill="none" stroke="black" d="M202.16,-1651.1C205.32,-1680.86 211.15,-1731.11 218.56,-1773.95 219.98,-1782.21 221.59,-1790.77 223.29,-1799.33"/>
<polygon fill="black" stroke="black" points="219.85,-1799.97 225.27,-1809.07 226.71,-1798.58 219.85,-1799.97"/>
</g>
<!-- verify_green -->
<g id="node9" class="node">
<title>verify_green</title>
<polygon fill="#e8f5e9" stroke="black" points="518.89,-1560.7 302.01,-1560.7 246.22,-1394.7 463.1,-1394.7 518.89,-1560.7"/>
<text xml:space="preserve" text-anchor="middle" x="382.56" y="-1501.9" font-family="Helvetica,sans-Serif" font-size="14.00">Verify Test Passes</text>
<text xml:space="preserve" text-anchor="middle" x="382.56" y="-1486.9" font-family="Helvetica,sans-Serif" font-size="14.00">(compute)</text>
<text xml:space="preserve" text-anchor="middle" x="382.56" y="-1471.9" font-family="Helvetica,sans-Serif" font-size="14.00">exec: in&#45;process</text>
<text xml:space="preserve" text-anchor="middle" x="382.56" y="-1456.9" font-family="Helvetica,sans-Serif" font-size="14.00">blocked: [llm, write]</text>
<text xml:space="preserve" text-anchor="middle" x="382.56" y="-1441.9" font-family="Helvetica,sans-Serif" font-size="14.00">timeout: 120s</text>
</g>
<!-- implement_minimum&#45;&gt;verify_green -->
<g id="edge9" class="edge">
<title>implement_minimum&#45;&gt;verify_green</title>
<path fill="none" stroke="black" d="M382.56,-1597.37C382.56,-1589.92 382.56,-1581.34 382.56,-1572.26"/>
<polygon fill="black" stroke="black" points="386.06,-1572.5 382.56,-1562.5 379.06,-1572.5 386.06,-1572.5"/>
</g>
<!-- check_green -->
<g id="node10" class="node">
<title>check_green</title>
<polygon fill="#fff3e0" stroke="black" points="382.56,-1347.45 244.31,-1309.45 382.56,-1271.45 520.81,-1309.45 382.56,-1347.45"/>
<text xml:space="preserve" text-anchor="middle" x="382.56" y="-1311.15" font-family="Helvetica,sans-Serif" font-size="14.00">Check Green Phase</text>
<text xml:space="preserve" text-anchor="middle" x="382.56" y="-1296.15" font-family="Helvetica,sans-Serif" font-size="14.00">(condition)</text>
</g>
<!-- verify_green&#45;&gt;check_green -->
<g id="edge10" class="edge">
<title>verify_green&#45;&gt;check_green</title>
<path fill="none" stroke="black" d="M382.56,-1394.55C382.56,-1382.41 382.56,-1370.24 382.56,-1359.08"/>
<polygon fill="black" stroke="black" points="386.06,-1359.37 382.56,-1349.37 379.06,-1359.37 386.06,-1359.37"/>
</g>
<!-- retry_implementation -->
<g id="node11" class="node">
<title>retry_implementation</title>
<polygon fill="#fff3e0" stroke="black" points="179.56,-1224.2 56.31,-1186.2 179.56,-1148.2 302.81,-1186.2 179.56,-1224.2"/>
<text xml:space="preserve" text-anchor="middle" x="179.56" y="-1187.9" font-family="Helvetica,sans-Serif" font-size="14.00">Check Retry Limit</text>
<text xml:space="preserve" text-anchor="middle" x="179.56" y="-1172.9" font-family="Helvetica,sans-Serif" font-size="14.00">(condition)</text>
</g>
<!-- check_green&#45;&gt;retry_implementation -->
<g id="edge12" class="edge">
<title>check_green&#45;&gt;retry_implementation</title>
<path fill="none" stroke="black" stroke-dasharray="5,2" d="M340,-1283.04C308.04,-1263.95 264.16,-1237.74 230.36,-1217.55"/>
<polygon fill="black" stroke="black" points="232.35,-1214.66 221.97,-1212.54 228.76,-1220.67 232.35,-1214.66"/>
<text xml:space="preserve" text-anchor="middle" x="297.64" y="-1243.95" font-family="Helvetica,sans-Serif" font-size="10.00">false</text>
</g>
<!-- refactor -->
<g id="node15" class="node">
<title>refactor</title>
<path fill="#e3f2fd" stroke="black" d="M475.93,-1212.7C475.93,-1212.7 333.18,-1212.7 333.18,-1212.7 327.18,-1212.7 321.18,-1206.7 321.18,-1200.7 321.18,-1200.7 321.18,-1171.7 321.18,-1171.7 321.18,-1165.7 327.18,-1159.7 333.18,-1159.7 333.18,-1159.7 475.93,-1159.7 475.93,-1159.7 481.93,-1159.7 487.93,-1165.7 487.93,-1171.7 487.93,-1171.7 487.93,-1200.7 487.93,-1200.7 487.93,-1206.7 481.93,-1212.7 475.93,-1212.7"/>
<text xml:space="preserve" text-anchor="middle" x="404.56" y="-1195.4" font-family="Helvetica,sans-Serif" font-size="14.00">Refactor Code (Refactor)</text>
<text xml:space="preserve" text-anchor="middle" x="404.56" y="-1180.4" font-family="Helvetica,sans-Serif" font-size="14.00">(agent)</text>
<text xml:space="preserve" text-anchor="middle" x="404.56" y="-1165.4" font-family="Helvetica,sans-Serif" font-size="14.00">role: executor</text>
</g>
<!-- check_green&#45;&gt;refactor -->
<g id="edge11" class="edge">
<title>check_green&#45;&gt;refactor</title>
<path fill="none" stroke="black" stroke-dasharray="5,2" d="M389.04,-1272.73C391.8,-1257.48 395.03,-1239.68 397.83,-1224.28"/>
<polygon fill="black" stroke="black" points="401.25,-1225.01 399.59,-1214.55 394.36,-1223.76 401.25,-1225.01"/>
<text xml:space="preserve" text-anchor="middle" x="402.46" y="-1243.95" font-family="Helvetica,sans-Serif" font-size="10.00">true</text>
</g>
<!-- retry_implementation&#45;&gt;implement_minimum -->
<g id="edge13" class="edge">
<title>retry_implementation&#45;&gt;implement_minimum</title>
<path fill="none" stroke="black" stroke-dasharray="5,2" d="M174.58,-1222.93C166.6,-1294.94 159.01,-1459.27 237.56,-1560.7 247.51,-1573.56 260.64,-1583.81 274.93,-1591.98"/>
<polygon fill="black" stroke="black" points="273.17,-1595.01 283.65,-1596.6 276.45,-1588.82 273.17,-1595.01"/>
<text xml:space="preserve" text-anchor="middle" x="181.33" y="-1367.2" font-family="Helvetica,sans-Serif" font-size="10.00">true</text>
</g>
<!-- escalate_failure -->
<g id="node12" class="node">
<title>escalate_failure</title>
<ellipse fill="#ffebee" stroke="black" cx="132.56" cy="-1017.95" rx="104.12" ry="37.48"/>
<text xml:space="preserve" text-anchor="middle" x="132.56" y="-1027.15" font-family="Helvetica,sans-Serif" font-size="14.00">Implementation Stuck</text>
<text xml:space="preserve" text-anchor="middle" x="132.56" y="-1012.15" font-family="Helvetica,sans-Serif" font-size="14.00">(hitl)</text>
<text xml:space="preserve" text-anchor="middle" x="132.56" y="-997.15" font-family="Helvetica,sans-Serif" font-size="14.00">timeout: 600s</text>
</g>
<!-- retry_implementation&#45;&gt;escalate_failure -->
<g id="edge14" class="edge">
<title>retry_implementation&#45;&gt;escalate_failure</title>
<path fill="none" stroke="black" stroke-dasharray="5,2" d="M169.82,-1150.76C162.92,-1126.35 153.57,-1093.29 145.97,-1066.39"/>
<polygon fill="black" stroke="black" points="149.43,-1065.79 143.34,-1057.12 142.7,-1067.69 149.43,-1065.79"/>
<text xml:space="preserve" text-anchor="middle" x="173.51" y="-1120.7" font-family="Helvetica,sans-Serif" font-size="10.00">false</text>
</g>
<!-- handle_escalation -->
<g id="node13" class="node">
<title>handle_escalation</title>
<polygon fill="#fff3e0" stroke="black" points="129.56,-897.95 4.81,-859.95 129.56,-821.95 254.31,-859.95 129.56,-897.95"/>
<text xml:space="preserve" text-anchor="middle" x="129.56" y="-861.65" font-family="Helvetica,sans-Serif" font-size="14.00">Handle Escalation</text>
<text xml:space="preserve" text-anchor="middle" x="129.56" y="-846.65" font-family="Helvetica,sans-Serif" font-size="14.00">(condition)</text>
</g>
<!-- escalate_failure&#45;&gt;handle_escalation -->
<g id="edge15" class="edge">
<title>escalate_failure&#45;&gt;handle_escalation</title>
<path fill="none" stroke="black" d="M131.84,-979.98C131.44,-958.96 130.93,-932.38 130.49,-909.67"/>
<polygon fill="black" stroke="black" points="133.99,-909.64 130.3,-899.71 126.99,-909.78 133.99,-909.64"/>
</g>
<!-- handle_escalation&#45;&gt;write_test -->
<g id="edge16" class="edge">
<title>handle_escalation&#45;&gt;write_test</title>
<path fill="none" stroke="black" stroke-dasharray="5,2" d="M80.43,-883.41C58.71,-895.71 34.7,-912.97 19.56,-934.95 -1.67,-965.76 0.56,-979.54 0.56,-1016.95 0.56,-1894.95 0.56,-1894.95 0.56,-1894.95 0.56,-1969.14 85.1,-2006.06 154.65,-2023.88"/>
<polygon fill="black" stroke="black" points="153.66,-2027.24 164.2,-2026.21 155.32,-2020.44 153.66,-2027.24"/>
<text xml:space="preserve" text-anchor="middle" x="18.18" y="-1473.83" font-family="Helvetica,sans-Serif" font-size="10.00">Simplify</text>
</g>
<!-- wait_for_help -->
<g id="node14" class="node">
<title>wait_for_help</title>
<ellipse fill="#ffebee" stroke="black" cx="436.56" cy="-737.23" rx="80.26" ry="37.48"/>
<text xml:space="preserve" text-anchor="middle" x="436.56" y="-746.43" font-family="Helvetica,sans-Serif" font-size="14.00">User Assistance</text>
<text xml:space="preserve" text-anchor="middle" x="436.56" y="-731.43" font-family="Helvetica,sans-Serif" font-size="14.00">(hitl)</text>
<text xml:space="preserve" text-anchor="middle" x="436.56" y="-716.43" font-family="Helvetica,sans-Serif" font-size="14.00">timeout: 1800s</text>
</g>
<!-- handle_escalation&#45;&gt;wait_for_help -->
<g id="edge18" class="edge">
<title>handle_escalation&#45;&gt;wait_for_help</title>
<path fill="none" stroke="black" stroke-dasharray="5,2" d="M191.99,-840.54C214.45,-834.23 240.04,-827.39 263.56,-821.95 305.85,-812.17 320.39,-822.68 359.56,-803.95 372.57,-797.73 385.15,-788.75 396.24,-779.41"/>
<polygon fill="black" stroke="black" points="398.46,-782.12 403.66,-772.89 393.84,-776.86 398.46,-782.12"/>
<text xml:space="preserve" text-anchor="middle" x="396.96" y="-794.45" font-family="Helvetica,sans-Serif" font-size="10.00">Get help</text>
</g>
<!-- check_more_tests -->
<g id="node19" class="node">
<title>check_more_tests</title>
<polygon fill="#fff3e0" stroke="black" points="322.56,-662.75 182.06,-624.75 322.56,-586.75 463.06,-624.75 322.56,-662.75"/>
<text xml:space="preserve" text-anchor="middle" x="322.56" y="-626.45" font-family="Helvetica,sans-Serif" font-size="14.00">More Tests to Write?</text>
<text xml:space="preserve" text-anchor="middle" x="322.56" y="-611.45" font-family="Helvetica,sans-Serif" font-size="14.00">(condition)</text>
</g>
<!-- handle_escalation&#45;&gt;check_more_tests -->
<g id="edge17" class="edge">
<title>handle_escalation&#45;&gt;check_more_tests</title>
<path fill="none" stroke="black" stroke-dasharray="5,2" d="M138.01,-824.19C147.89,-789.45 167.09,-736.1 199.06,-699.75 215.51,-681.03 237.89,-665.67 259.07,-653.89"/>
<polygon fill="black" stroke="black" points="260.52,-657.08 267.68,-649.28 257.21,-650.91 260.52,-657.08"/>
<text xml:space="preserve" text-anchor="middle" x="208.81" y="-733.35" font-family="Helvetica,sans-Serif" font-size="10.00">Skip</text>
</g>
<!-- abort -->
<g id="node26" class="node">
<title>abort</title>
<polygon fill="#eceff1" stroke="black" points="188.93,-38 94.18,-38 94.18,0 188.93,0 188.93,-38"/>
<text xml:space="preserve" text-anchor="middle" x="141.56" y="-20.7" font-family="Helvetica,sans-Serif" font-size="14.00">TDD Aborted</text>
<text xml:space="preserve" text-anchor="middle" x="141.56" y="-5.7" font-family="Helvetica,sans-Serif" font-size="14.00">(transform)</text>
</g>
<!-- handle_escalation&#45;&gt;abort -->
<g id="edge19" class="edge">
<title>handle_escalation&#45;&gt;abort</title>
<path fill="none" stroke="black" stroke-dasharray="5,2" d="M129.56,-821.43C129.56,-797.6 129.56,-766.1 129.56,-738.23 129.56,-738.23 129.56,-738.23 129.56,-93 129.56,-78.5 131.89,-62.58 134.5,-49.33"/>
<polygon fill="black" stroke="black" points="137.84,-50.45 136.5,-39.95 130.99,-49 137.84,-50.45"/>
<text xml:space="preserve" text-anchor="middle" x="141.18" y="-346" font-family="Helvetica,sans-Serif" font-size="10.00">Abort</text>
</g>
<!-- wait_for_help&#45;&gt;implement_minimum -->
<g id="edge20" class="edge">
<title>wait_for_help&#45;&gt;implement_minimum</title>
<path fill="none" stroke="black" d="M490.29,-765.31C514.86,-779.65 543.01,-799.05 563.56,-821.95 575.9,-835.71 582.56,-840.47 582.56,-858.95 582.56,-1478.7 582.56,-1478.7 582.56,-1478.7 582.56,-1534.21 531.32,-1570.54 480.71,-1592.9"/>
<polygon fill="black" stroke="black" points="479.51,-1589.6 471.67,-1596.73 482.24,-1596.05 479.51,-1589.6"/>
</g>
<!-- verify_still_green -->
<g id="node16" class="node">
<title>verify_still_green</title>
<polygon fill="#e8f5e9" stroke="black" points="554.88,-1100.95 315.74,-1100.95 254.23,-934.95 493.37,-934.95 554.88,-1100.95"/>
<text xml:space="preserve" text-anchor="middle" x="404.56" y="-1042.15" font-family="Helvetica,sans-Serif" font-size="14.00">Verify Tests Still Pass</text>
<text xml:space="preserve" text-anchor="middle" x="404.56" y="-1027.15" font-family="Helvetica,sans-Serif" font-size="14.00">(compute)</text>
<text xml:space="preserve" text-anchor="middle" x="404.56" y="-1012.15" font-family="Helvetica,sans-Serif" font-size="14.00">exec: in&#45;process</text>
<text xml:space="preserve" text-anchor="middle" x="404.56" y="-997.15" font-family="Helvetica,sans-Serif" font-size="14.00">blocked: [llm, write]</text>
<text xml:space="preserve" text-anchor="middle" x="404.56" y="-982.15" font-family="Helvetica,sans-Serif" font-size="14.00">timeout: 120s</text>
</g>
<!-- refactor&#45;&gt;verify_still_green -->
<g id="edge21" class="edge">
<title>refactor&#45;&gt;verify_still_green</title>
<path fill="none" stroke="black" d="M404.56,-1159.23C404.56,-1146.27 404.56,-1129.71 404.56,-1112.56"/>
<polygon fill="black" stroke="black" points="408.06,-1112.74 404.56,-1102.74 401.06,-1112.74 408.06,-1112.74"/>
</g>
<!-- check_refactor -->
<g id="node17" class="node">
<title>check_refactor</title>
<polygon fill="#fff3e0" stroke="black" points="413.56,-897.95 272.31,-859.95 413.56,-821.95 554.81,-859.95 413.56,-897.95"/>
<text xml:space="preserve" text-anchor="middle" x="413.56" y="-861.65" font-family="Helvetica,sans-Serif" font-size="14.00">Check After Refactor</text>
<text xml:space="preserve" text-anchor="middle" x="413.56" y="-846.65" font-family="Helvetica,sans-Serif" font-size="14.00">(condition)</text>
</g>
<!-- verify_still_green&#45;&gt;check_refactor -->
<g id="edge22" class="edge">
<title>verify_still_green&#45;&gt;check_refactor</title>
<path fill="none" stroke="black" d="M409.29,-934.84C409.8,-925.96 410.31,-917.15 410.79,-908.88"/>
<polygon fill="black" stroke="black" points="414.27,-909.28 411.35,-899.09 407.28,-908.87 414.27,-909.28"/>
</g>
<!-- revert_refactor -->
<g id="node18" class="node">
<title>revert_refactor</title>
<path fill="#e3f2fd" stroke="black" d="M325.81,-763.73C325.81,-763.73 239.31,-763.73 239.31,-763.73 233.31,-763.73 227.31,-757.73 227.31,-751.73 227.31,-751.73 227.31,-722.73 227.31,-722.73 227.31,-716.73 233.31,-710.73 239.31,-710.73 239.31,-710.73 325.81,-710.73 325.81,-710.73 331.81,-710.73 337.81,-716.73 337.81,-722.73 337.81,-722.73 337.81,-751.73 337.81,-751.73 337.81,-757.73 331.81,-763.73 325.81,-763.73"/>
<text xml:space="preserve" text-anchor="middle" x="282.56" y="-746.43" font-family="Helvetica,sans-Serif" font-size="14.00">Revert Refactor</text>
<text xml:space="preserve" text-anchor="middle" x="282.56" y="-731.43" font-family="Helvetica,sans-Serif" font-size="14.00">(agent)</text>
<text xml:space="preserve" text-anchor="middle" x="282.56" y="-716.43" font-family="Helvetica,sans-Serif" font-size="14.00">role: executor</text>
</g>
<!-- check_refactor&#45;&gt;revert_refactor -->
<g id="edge24" class="edge">
<title>check_refactor&#45;&gt;revert_refactor</title>
<path fill="none" stroke="black" stroke-dasharray="5,2" d="M373.66,-832.33C361.9,-823.8 349.32,-813.96 338.56,-803.95 328.35,-794.46 318.17,-783.2 309.34,-772.7"/>
<polygon fill="black" stroke="black" points="312.3,-770.78 303.24,-765.28 306.89,-775.23 312.3,-770.78"/>
<text xml:space="preserve" text-anchor="middle" x="349.06" y="-794.45" font-family="Helvetica,sans-Serif" font-size="10.00">false</text>
</g>
<!-- check_refactor&#45;&gt;check_more_tests -->
<g id="edge23" class="edge">
<title>check_refactor&#45;&gt;check_more_tests</title>
<path fill="none" stroke="black" stroke-dasharray="5,2" d="M463.76,-835C487.09,-820.97 512.52,-800.83 525.56,-774.7 540.43,-744.9 544.66,-727.04 525.56,-699.75 503.58,-668.35 466.82,-650.23 430.56,-639.79"/>
<polygon fill="black" stroke="black" points="431.88,-636.52 421.32,-637.3 430.07,-643.28 431.88,-636.52"/>
<text xml:space="preserve" text-anchor="middle" x="546.6" y="-733.35" font-family="Helvetica,sans-Serif" font-size="10.00">true</text>
</g>
<!-- revert_refactor&#45;&gt;check_more_tests -->
<g id="edge25" class="edge">
<title>revert_refactor&#45;&gt;check_more_tests</title>
<path fill="none" stroke="black" d="M291.93,-710.32C296.23,-698.45 301.46,-684.02 306.36,-670.47"/>
<polygon fill="black" stroke="black" points="309.58,-671.88 309.69,-661.28 302.99,-669.5 309.58,-671.88"/>
</g>
<!-- next_test_case -->
<g id="node20" class="node">
<title>next_test_case</title>
<polygon fill="#eceff1" stroke="black" points="671.93,-475.5 523.18,-475.5 523.18,-437.5 671.93,-437.5 671.93,-475.5"/>
<text xml:space="preserve" text-anchor="middle" x="597.56" y="-458.2" font-family="Helvetica,sans-Serif" font-size="14.00">Select Next Test Case</text>
<text xml:space="preserve" text-anchor="middle" x="597.56" y="-443.2" font-family="Helvetica,sans-Serif" font-size="14.00">(transform)</text>
</g>
<!-- check_more_tests&#45;&gt;next_test_case -->
<g id="edge26" class="edge">
<title>check_more_tests&#45;&gt;next_test_case</title>
<path fill="none" stroke="black" stroke-dasharray="5,2" d="M367.22,-598.35C396.02,-581.85 434.18,-559.71 467.56,-539.5 498.82,-520.56 533.86,-498.41 559.67,-481.91"/>
<polygon fill="black" stroke="black" points="561.28,-485.03 567.81,-476.69 557.5,-479.14 561.28,-485.03"/>
<text xml:space="preserve" text-anchor="middle" x="444.26" y="-559.25" font-family="Helvetica,sans-Serif" font-size="10.00">true</text>
</g>
<!-- final_verification -->
<g id="node21" class="node">
<title>final_verification</title>
<polygon fill="#e8f5e9" stroke="black" points="458.89,-539.5 242.01,-539.5 186.22,-373.5 403.1,-373.5 458.89,-539.5"/>
<text xml:space="preserve" text-anchor="middle" x="322.56" y="-480.7" font-family="Helvetica,sans-Serif" font-size="14.00">Run Full Test Suite</text>
<text xml:space="preserve" text-anchor="middle" x="322.56" y="-465.7" font-family="Helvetica,sans-Serif" font-size="14.00">(compute)</text>
<text xml:space="preserve" text-anchor="middle" x="322.56" y="-450.7" font-family="Helvetica,sans-Serif" font-size="14.00">exec: in&#45;process</text>
<text xml:space="preserve" text-anchor="middle" x="322.56" y="-435.7" font-family="Helvetica,sans-Serif" font-size="14.00">blocked: [llm, write]</text>
<text xml:space="preserve" text-anchor="middle" x="322.56" y="-420.7" font-family="Helvetica,sans-Serif" font-size="14.00">timeout: 300s</text>
</g>
<!-- check_more_tests&#45;&gt;final_verification -->
<g id="edge27" class="edge">
<title>check_more_tests&#45;&gt;final_verification</title>
<path fill="none" stroke="black" stroke-dasharray="5,2" d="M322.56,-586.44C322.56,-575.81 322.56,-563.73 322.56,-551.33"/>
<polygon fill="black" stroke="black" points="326.06,-551.39 322.56,-541.39 319.06,-551.39 326.06,-551.39"/>
<text xml:space="preserve" text-anchor="middle" x="333.06" y="-559.25" font-family="Helvetica,sans-Serif" font-size="10.00">false</text>
</g>
<!-- next_test_case&#45;&gt;start_tdd_cycle -->
<g id="edge28" class="edge">
<title>next_test_case&#45;&gt;start_tdd_cycle</title>
<path fill="none" stroke="black" d="M601.77,-475.84C608.41,-506.35 620.56,-569.55 620.56,-623.75 620.56,-2041.45 620.56,-2041.45 620.56,-2041.45 620.56,-2068.37 599.68,-2086.77 575.13,-2099.11"/>
<polygon fill="black" stroke="black" points="573.8,-2095.86 566.19,-2103.23 576.73,-2102.22 573.8,-2095.86"/>
</g>
<!-- check_coverage -->
<g id="node22" class="node">
<title>check_coverage</title>
<polygon fill="#fff3e0" stroke="black" points="274.56,-326.25 158.06,-288.25 274.56,-250.25 391.06,-288.25 274.56,-326.25"/>
<text xml:space="preserve" text-anchor="middle" x="274.56" y="-289.95" font-family="Helvetica,sans-Serif" font-size="14.00">Check Coverage</text>
<text xml:space="preserve" text-anchor="middle" x="274.56" y="-274.95" font-family="Helvetica,sans-Serif" font-size="14.00">(condition)</text>
</g>
<!-- final_verification&#45;&gt;check_coverage -->
<g id="edge29" class="edge">
<title>final_verification&#45;&gt;check_coverage</title>
<path fill="none" stroke="black" d="M298.84,-373.35C294.93,-359.82 291.01,-346.26 287.5,-334.09"/>
<polygon fill="black" stroke="black" points="290.96,-333.45 284.82,-324.81 284.23,-335.39 290.96,-333.45"/>
</g>
<!-- add_coverage_tests -->
<g id="node23" class="node">
<title>add_coverage_tests</title>
<path fill="#e3f2fd" stroke="black" d="M469.31,-203C469.31,-203 355.81,-203 355.81,-203 349.81,-203 343.81,-197 343.81,-191 343.81,-191 343.81,-162 343.81,-162 343.81,-156 349.81,-150 355.81,-150 355.81,-150 469.31,-150 469.31,-150 475.31,-150 481.31,-156 481.31,-162 481.31,-162 481.31,-191 481.31,-191 481.31,-197 475.31,-203 469.31,-203"/>
<text xml:space="preserve" text-anchor="middle" x="412.56" y="-185.7" font-family="Helvetica,sans-Serif" font-size="14.00">Add Coverage Tests</text>
<text xml:space="preserve" text-anchor="middle" x="412.56" y="-170.7" font-family="Helvetica,sans-Serif" font-size="14.00">(agent)</text>
<text xml:space="preserve" text-anchor="middle" x="412.56" y="-155.7" font-family="Helvetica,sans-Serif" font-size="14.00">role: executor</text>
</g>
<!-- check_coverage&#45;&gt;add_coverage_tests -->
<g id="edge31" class="edge">
<title>check_coverage&#45;&gt;add_coverage_tests</title>
<path fill="none" stroke="black" stroke-dasharray="5,2" d="M307.96,-260.68C326.91,-245.61 350.8,-226.61 370.96,-210.58"/>
<polygon fill="black" stroke="black" points="373.1,-213.35 378.75,-204.39 368.74,-207.87 373.1,-213.35"/>
<text xml:space="preserve" text-anchor="middle" x="366.42" y="-222.75" font-family="Helvetica,sans-Serif" font-size="10.00">false</text>
</g>
<!-- generate_report -->
<g id="node24" class="node">
<title>generate_report</title>
<path fill="#e3f2fd" stroke="black" d="M306.93,-203C306.93,-203 182.18,-203 182.18,-203 176.18,-203 170.18,-197 170.18,-191 170.18,-191 170.18,-162 170.18,-162 170.18,-156 176.18,-150 182.18,-150 182.18,-150 306.93,-150 306.93,-150 312.93,-150 318.93,-156 318.93,-162 318.93,-162 318.93,-191 318.93,-191 318.93,-197 312.93,-203 306.93,-203"/>
<text xml:space="preserve" text-anchor="middle" x="244.56" y="-185.7" font-family="Helvetica,sans-Serif" font-size="14.00">Generate TDD Report</text>
<text xml:space="preserve" text-anchor="middle" x="244.56" y="-170.7" font-family="Helvetica,sans-Serif" font-size="14.00">(agent)</text>
<text xml:space="preserve" text-anchor="middle" x="244.56" y="-155.7" font-family="Helvetica,sans-Serif" font-size="14.00">role: writer</text>
</g>
<!-- check_coverage&#45;&gt;generate_report -->
<g id="edge30" class="edge">
<title>check_coverage&#45;&gt;generate_report</title>
<path fill="none" stroke="black" stroke-dasharray="5,2" d="M265.15,-252.83C261.8,-240.6 258.03,-226.8 254.63,-214.37"/>
<polygon fill="black" stroke="black" points="258.06,-213.62 252.05,-204.9 251.31,-215.47 258.06,-213.62"/>
<text xml:space="preserve" text-anchor="middle" x="266.91" y="-222.75" font-family="Helvetica,sans-Serif" font-size="10.00">true</text>
</g>
<!-- add_coverage_tests&#45;&gt;final_verification -->
<g id="edge32" class="edge">
<title>add_coverage_tests&#45;&gt;final_verification</title>
<path fill="none" stroke="black" d="M414.01,-203.46C414.9,-233.71 413.91,-284.82 400.56,-326.25 396.57,-338.63 391.2,-351.06 385.13,-363.06"/>
<polygon fill="black" stroke="black" points="382.14,-361.21 380.58,-371.69 388.34,-364.47 382.14,-361.21"/>
</g>
<!-- complete -->
<g id="node25" class="node">
<title>complete</title>
<polygon fill="#eceff1" stroke="black" points="273.56,-113 167.56,-113 167.56,-75 273.56,-75 273.56,-113"/>
<text xml:space="preserve" text-anchor="middle" x="220.56" y="-95.7" font-family="Helvetica,sans-Serif" font-size="14.00">TDD Complete</text>
<text xml:space="preserve" text-anchor="middle" x="220.56" y="-80.7" font-family="Helvetica,sans-Serif" font-size="14.00">(transform)</text>
</g>
<!-- generate_report&#45;&gt;complete -->
<g id="edge33" class="edge">
<title>generate_report&#45;&gt;complete</title>
<path fill="none" stroke="black" d="M236.83,-149.59C234.42,-141.5 231.74,-132.52 229.27,-124.22"/>
<polygon fill="black" stroke="black" points="232.7,-123.5 226.49,-114.92 226,-125.5 232.7,-123.5"/>
</g>
<!-- complete&#45;&gt;abort -->
<g id="edge34" class="edge">
<title>complete&#45;&gt;abort</title>
<path fill="none" stroke="black" d="M200.62,-74.58C191.26,-65.93 179.95,-55.48 169.74,-46.04"/>
<polygon fill="black" stroke="black" points="172.32,-43.66 162.6,-39.44 167.56,-48.8 172.32,-43.66"/>
</g>
</g>
</svg>
