<?xml version="1.0" encoding="UTF-8" standalone="no"?>
<!DOCTYPE svg PUBLIC "-//W3C//DTD SVG 1.1//EN"
 "http://www.w3.org/Graphics/SVG/1.1/DTD/svg11.dtd">
<!-- Generated by graphviz version 14.0.4 (20251115.1723)
 -->
<!-- Title: workflow Pages: 1 -->
<svg width="149pt" height="264pt"
 viewBox="0.00 0.00 149.00 264.00" xmlns="http://www.w3.org/2000/svg" xmlns:xlink="http://www.w3.org/1999/xlink">
<g id="graph0" class="graph" transform="scale(1 1) rotate(0) translate(4 259.5)">
<title>workflow</title>
<polygon fill="white" stroke="none" points="-4,4 -4,-259.5 144.5,-259.5 144.5,4 -4,4"/>
<text xml:space="preserve" text-anchor="middle" x="70.25" y="-238.2" font-family="Times,serif" font-size="14.00">explore</text>
<!-- gather_context -->
<g id="node1" class="node">
<title>gather_context</title>
<path fill="#e3f2fd" stroke="black" d="M110.88,-231C110.88,-231 29.63,-231 29.63,-231 23.62,-231 17.62,-225 17.62,-219 17.62,-219 17.62,-190 17.62,-190 17.62,-184 23.62,-178 29.62,-178 29.62,-178 110.88,-178 110.88,-178 116.88,-178 122.88,-184 122.88,-190 122.88,-190 122.88,-219 122.88,-219 122.88,-225 116.88,-231 110.88,-231"/>
<text xml:space="preserve" text-anchor="middle" x="70.25" y="-213.7" font-family="Helvetica,sans-Serif" font-size="14.00">gather_context</text>
<text xml:space="preserve" text-anchor="middle" x="70.25" y="-198.7" font-family="Helvetica,sans-Serif" font-size="14.00">(agent)</text>
<text xml:space="preserve" text-anchor="middle" x="70.25" y="-183.7" font-family="Helvetica,sans-Serif" font-size="14.00">role: explorer</text>
</g>
<!-- analyze_architecture -->
<g id="node2" class="node">
<title>analyze_architecture</title>
<path fill="#e3f2fd" stroke="black" d="M128.5,-142C128.5,-142 12,-142 12,-142 6,-142 0,-136 0,-130 0,-130 0,-101 0,-101 0,-95 6,-89 12,-89 12,-89 128.5,-89 128.5,-89 134.5,-89 140.5,-95 140.5,-101 140.5,-101 140.5,-130 140.5,-130 140.5,-136 134.5,-142 128.5,-142"/>
<text xml:space="preserve" text-anchor="middle" x="70.25" y="-124.7" font-family="Helvetica,sans-Serif" font-size="14.00">analyze_architecture</text>
<text xml:space="preserve" text-anchor="middle" x="70.25" y="-109.7" font-family="Helvetica,sans-Serif" font-size="14.00">(agent)</text>
<text xml:space="preserve" text-anchor="middle" x="70.25" y="-94.7" font-family="Helvetica,sans-Serif" font-size="14.00">role: analyst</text>
</g>
<!-- gather_context&#45;&gt;analyze_architecture -->
<g id="edge1" class="edge">
<title>gather_context&#45;&gt;analyze_architecture</title>
<path fill="none" stroke="black" d="M70.25,-177.87C70.25,-170.24 70.25,-161.72 70.25,-153.51"/>
<polygon fill="black" stroke="black" points="73.75,-153.76 70.25,-143.76 66.75,-153.76 73.75,-153.76"/>
</g>
<!-- document_findings -->
<g id="node3" class="node">
<title>document_findings</title>
<path fill="#e3f2fd" stroke="black" d="M123.25,-53C123.25,-53 17.25,-53 17.25,-53 11.25,-53 5.25,-47 5.25,-41 5.25,-41 5.25,-12 5.25,-12 5.25,-6 11.25,0 17.25,0 17.25,0 123.25,0 123.25,0 129.25,0 135.25,-6 135.25,-12 135.25,-12 135.25,-41 135.25,-41 135.25,-47 129.25,-53 123.25,-53"/>
<text xml:space="preserve" text-anchor="middle" x="70.25" y="-35.7" font-family="Helvetica,sans-Serif" font-size="14.00">document_findings</text>
<text xml:space="preserve" text-anchor="middle" x="70.25" y="-20.7" font-family="Helvetica,sans-Serif" font-size="14.00">(agent)</text>
<text xml:space="preserve" text-anchor="middle" x="70.25" y="-5.7" font-family="Helvetica,sans-Serif" font-size="14.00">role: writer</text>
</g>
<!-- analyze_architecture&#45;&gt;document_findings -->
<g id="edge2" class="edge">
<title>analyze_architecture&#45;&gt;document_findings</title>
<path fill="none" stroke="black" d="M70.25,-88.87C70.25,-81.24 70.25,-72.72 70.25,-64.51"/>
<polygon fill="black" stroke="black" points="73.75,-64.76 70.25,-54.76 66.75,-64.76 73.75,-64.76"/>
</g>
</g>
</svg>
