<?xml version="1.0" encoding="UTF-8" standalone="no"?>
<!DOCTYPE svg PUBLIC "-//W3C//DTD SVG 1.1//EN"
 "http://www.w3.org/Graphics/SVG/1.1/DTD/svg11.dtd">
<!-- Generated by graphviz version 14.0.4 (20251115.1723)
 -->
<!-- Title: workflow Pages: 1 -->
<svg width="256pt" height="549pt"
 viewBox="0.00 0.00 256.00 549.00" xmlns="http://www.w3.org/2000/svg" xmlns:xlink="http://www.w3.org/1999/xlink">
<g id="graph0" class="graph" transform="scale(1 1) rotate(0) translate(4 545)">
<title>workflow</title>
<polygon fill="white" stroke="none" points="-4,4 -4,-545 252,-545 252,4 -4,4"/>
<text xml:space="preserve" text-anchor="middle" x="124" y="-523.7" font-family="Times,serif" font-size="14.00">explore_plan_build</text>
<!-- exploration_phase -->
<g id="node1" class="node">
<title>exploration_phase</title>
<polygon fill="#f3e5f5" stroke="black" points="241.5,-512.5 115.25,-512.5 115.25,-474.5 241.5,-474.5 241.5,-512.5"/>
<polygon fill="none" stroke="black" points="245.5,-516.5 111.25,-516.5 111.25,-470.5 245.5,-470.5 245.5,-516.5"/>
<text xml:space="preserve" text-anchor="middle" x="178.38" y="-495.2" font-family="Helvetica,sans-Serif" font-size="14.00">exploration_phase</text>
<text xml:space="preserve" text-anchor="middle" x="178.38" y="-480.2" font-family="Helvetica,sans-Serif" font-size="14.00">(parallel)</text>
</g>
<!-- architecture_analysis -->
<g id="node2" class="node">
<title>architecture_analysis</title>
<path fill="#e3f2fd" stroke="black" d="M130.75,-423.25C130.75,-423.25 12,-423.25 12,-423.25 6,-423.25 0,-417.25 0,-411.25 0,-411.25 0,-382.25 0,-382.25 0,-376.25 6,-370.25 12,-370.25 12,-370.25 130.75,-370.25 130.75,-370.25 136.75,-370.25 142.75,-376.25 142.75,-382.25 142.75,-382.25 142.75,-411.25 142.75,-411.25 142.75,-417.25 136.75,-423.25 130.75,-423.25"/>
<text xml:space="preserve" text-anchor="middle" x="71.38" y="-405.95" font-family="Helvetica,sans-Serif" font-size="14.00">architecture_analysis</text>
<text xml:space="preserve" text-anchor="middle" x="71.38" y="-390.95" font-family="Helvetica,sans-Serif" font-size="14.00">(agent)</text>
<text xml:space="preserve" text-anchor="middle" x="71.38" y="-375.95" font-family="Helvetica,sans-Serif" font-size="14.00">role: architect</text>
</g>
<!-- exploration_phase&#45;&gt;architecture_analysis -->
<g id="edge1" class="edge">
<title>exploration_phase&#45;&gt;architecture_analysis</title>
<path fill="none" stroke="black" d="M153.02,-470.05C139.9,-458.43 123.62,-444.01 109.06,-431.12"/>
<polygon fill="black" stroke="black" points="111.66,-428.75 101.85,-424.74 107.02,-433.99 111.66,-428.75"/>
<text xml:space="preserve" text-anchor="middle" x="139.53" y="-443" font-family="Helvetica,sans-Serif" font-size="10.00">fork</text>
</g>
<!-- dependency_mapping -->
<g id="node3" class="node">
<title>dependency_mapping</title>
<path fill="#e3f2fd" stroke="black" d="M183.12,-323C183.12,-323 57.62,-323 57.62,-323 51.62,-323 45.62,-317 45.62,-311 45.62,-311 45.62,-282 45.62,-282 45.62,-276 51.62,-270 57.62,-270 57.62,-270 183.12,-270 183.12,-270 189.12,-270 195.12,-276 195.12,-282 195.12,-282 195.12,-311 195.12,-311 195.12,-317 189.12,-323 183.12,-323"/>
<text xml:space="preserve" text-anchor="middle" x="120.38" y="-305.7" font-family="Helvetica,sans-Serif" font-size="14.00">dependency_mapping</text>
<text xml:space="preserve" text-anchor="middle" x="120.38" y="-290.7" font-family="Helvetica,sans-Serif" font-size="14.00">(agent)</text>
<text xml:space="preserve" text-anchor="middle" x="120.38" y="-275.7" font-family="Helvetica,sans-Serif" font-size="14.00">role: analyst</text>
</g>
<!-- exploration_phase&#45;&gt;dependency_mapping -->
<g id="edge2" class="edge">
<title>exploration_phase&#45;&gt;dependency_mapping</title>
<path fill="none" stroke="black" d="M174.71,-470.09C170.37,-445.32 162.32,-404.4 151.38,-370.25 147.5,-358.16 142.38,-345.32 137.42,-333.84"/>
<polygon fill="black" stroke="black" points="140.63,-332.43 133.38,-324.7 134.23,-335.26 140.63,-332.43"/>
<text xml:space="preserve" text-anchor="middle" x="173.36" y="-392.88" font-family="Helvetica,sans-Serif" font-size="10.00">fork</text>
</g>
<!-- planning_phase -->
<g id="node4" class="node">
<title>planning_phase</title>
<path fill="#e3f2fd" stroke="black" d="M215,-233C215,-233 127.75,-233 127.75,-233 121.75,-233 115.75,-227 115.75,-221 115.75,-221 115.75,-192 115.75,-192 115.75,-186 121.75,-180 127.75,-180 127.75,-180 215,-180 215,-180 221,-180 227,-186 227,-192 227,-192 227,-221 227,-221 227,-227 221,-233 215,-233"/>
<text xml:space="preserve" text-anchor="middle" x="171.38" y="-215.7" font-family="Helvetica,sans-Serif" font-size="14.00">planning_phase</text>
<text xml:space="preserve" text-anchor="middle" x="171.38" y="-200.7" font-family="Helvetica,sans-Serif" font-size="14.00">(agent)</text>
<text xml:space="preserve" text-anchor="middle" x="171.38" y="-185.7" font-family="Helvetica,sans-Serif" font-size="14.00">role: planner</text>
</g>
<!-- exploration_phase&#45;&gt;planning_phase -->
<g id="edge3" class="edge">
<title>exploration_phase&#45;&gt;planning_phase</title>
<path fill="none" stroke="black" d="M186.21,-470.06C199.22,-429.55 222.15,-341.72 204.38,-270 202.13,-260.94 198.31,-251.75 194.04,-243.3"/>
<polygon fill="black" stroke="black" points="197.25,-241.88 189.41,-234.75 191.09,-245.21 197.25,-241.88"/>
<text xml:space="preserve" text-anchor="middle" x="218.08" y="-342.75" font-family="Helvetica,sans-Serif" font-size="10.00">join</text>
</g>
<!-- architecture_analysis&#45;&gt;dependency_mapping -->
<g id="edge4" class="edge">
<title>architecture_analysis&#45;&gt;dependency_mapping</title>
<path fill="none" stroke="black" d="M84.25,-369.94C89.78,-358.85 96.33,-345.71 102.33,-333.69"/>
<polygon fill="black" stroke="black" points="105.41,-335.35 106.74,-324.84 99.15,-332.22 105.41,-335.35"/>
</g>
<!-- dependency_mapping&#45;&gt;planning_phase -->
<g id="edge5" class="edge">
<title>dependency_mapping&#45;&gt;planning_phase</title>
<path fill="none" stroke="black" d="M135.4,-269.57C140.23,-261.25 145.66,-251.88 150.81,-242.99"/>
<polygon fill="black" stroke="black" points="153.71,-244.96 155.7,-234.55 147.66,-241.45 153.71,-244.96"/>
</g>
<!-- implementation_phase -->
<g id="node5" class="node">
<title>implementation_phase</title>
<path fill="#e3f2fd" stroke="black" d="M236,-143C236,-143 106.75,-143 106.75,-143 100.75,-143 94.75,-137 94.75,-131 94.75,-131 94.75,-102 94.75,-102 94.75,-96 100.75,-90 106.75,-90 106.75,-90 236,-90 236,-90 242,-90 248,-96 248,-102 248,-102 248,-131 248,-131 248,-137 242,-143 236,-143"/>
<text xml:space="preserve" text-anchor="middle" x="171.38" y="-125.7" font-family="Helvetica,sans-Serif" font-size="14.00">implementation_phase</text>
<text xml:space="preserve" text-anchor="middle" x="171.38" y="-110.7" font-family="Helvetica,sans-Serif" font-size="14.00">(agent)</text>
<text xml:space="preserve" text-anchor="middle" x="171.38" y="-95.7" font-family="Helvetica,sans-Serif" font-size="14.00">role: implementer</text>
</g>
<!-- planning_phase&#45;&gt;implementation_phase -->
<g id="edge6" class="edge">
<title>planning_phase&#45;&gt;implementation_phase</title>
<path fill="none" stroke="black" d="M171.38,-179.57C171.38,-171.79 171.38,-163.08 171.38,-154.72"/>
<polygon fill="black" stroke="black" points="174.88,-154.76 171.38,-144.76 167.88,-154.76 174.88,-154.76"/>
</g>
<!-- verification -->
<g id="node6" class="node">
<title>verification</title>
<path fill="#e3f2fd" stroke="black" d="M202.62,-53C202.62,-53 140.12,-53 140.12,-53 134.12,-53 128.12,-47 128.12,-41 128.12,-41 128.12,-12 128.12,-12 128.12,-6 134.12,0 140.12,0 140.12,0 202.62,0 202.62,0 208.62,0 214.62,-6 214.62,-12 214.62,-12 214.62,-41 214.62,-41 214.62,-47 208.62,-53 202.62,-53"/>
<text xml:space="preserve" text-anchor="middle" x="171.38" y="-35.7" font-family="Helvetica,sans-Serif" font-size="14.00">verification</text>
<text xml:space="preserve" text-anchor="middle" x="171.38" y="-20.7" font-family="Helvetica,sans-Serif" font-size="14.00">(agent)</text>
<text xml:space="preserve" text-anchor="middle" x="171.38" y="-5.7" font-family="Helvetica,sans-Serif" font-size="14.00">role: verifier</text>
</g>
<!-- implementation_phase&#45;&gt;verification -->
<g id="edge7" class="edge">
<title>implementation_phase&#45;&gt;verification</title>
<path fill="none" stroke="black" d="M171.38,-89.57C171.38,-81.79 171.38,-73.08 171.38,-64.72"/>
<polygon fill="black" stroke="black" points="174.88,-64.76 171.38,-54.76 167.88,-64.76 174.88,-64.76"/>
</g>
</g>
</svg>
