<?xml version="1.0" encoding="UTF-8" standalone="no"?>
<!DOCTYPE svg PUBLIC "-//W3C//DTD SVG 1.1//EN"
 "http://www.w3.org/Graphics/SVG/1.1/DTD/svg11.dtd">
<!-- Generated by graphviz version 14.0.4 (20251115.1723)
 -->
<!-- Title: workflow Pages: 1 -->
<svg width="262pt" height="479pt"
 viewBox="0.00 0.00 262.00 479.00" xmlns="http://www.w3.org/2000/svg" xmlns:xlink="http://www.w3.org/1999/xlink">
<g id="graph0" class="graph" transform="scale(1 1) rotate(0) translate(4 474.75)">
<title>workflow</title>
<polygon fill="white" stroke="none" points="-4,4 -4,-474.75 257.75,-474.75 257.75,4 -4,4"/>
<text xml:space="preserve" text-anchor="middle" x="126.88" y="-453.45" font-family="Times,serif" font-size="14.00">build</text>
<!-- quick_context -->
<g id="node1" class="node">
<title>quick_context</title>
<path fill="#e3f2fd" stroke="black" d="M181.5,-446.25C181.5,-446.25 107,-446.25 107,-446.25 101,-446.25 95,-440.25 95,-434.25 95,-434.25 95,-405.25 95,-405.25 95,-399.25 101,-393.25 107,-393.25 107,-393.25 181.5,-393.25 181.5,-393.25 187.5,-393.25 193.5,-399.25 193.5,-405.25 193.5,-405.25 193.5,-434.25 193.5,-434.25 193.5,-440.25 187.5,-446.25 181.5,-446.25"/>
<text xml:space="preserve" text-anchor="middle" x="144.25" y="-428.95" font-family="Helvetica,sans-Serif" font-size="14.00">quick_context</text>
<text xml:space="preserve" text-anchor="middle" x="144.25" y="-413.95" font-family="Helvetica,sans-Serif" font-size="14.00">(agent)</text>
<text xml:space="preserve" text-anchor="middle" x="144.25" y="-398.95" font-family="Helvetica,sans-Serif" font-size="14.00">role: reader</text>
</g>
<!-- implement_changes -->
<g id="node2" class="node">
<title>implement_changes</title>
<path fill="#e3f2fd" stroke="black" d="M201.38,-356.25C201.38,-356.25 87.12,-356.25 87.12,-356.25 81.12,-356.25 75.12,-350.25 75.12,-344.25 75.12,-344.25 75.12,-315.25 75.12,-315.25 75.12,-309.25 81.12,-303.25 87.12,-303.25 87.12,-303.25 201.38,-303.25 201.38,-303.25 207.38,-303.25 213.38,-309.25 213.38,-315.25 213.38,-315.25 213.38,-344.25 213.38,-344.25 213.38,-350.25 207.38,-356.25 201.38,-356.25"/>
<text xml:space="preserve" text-anchor="middle" x="144.25" y="-338.95" font-family="Helvetica,sans-Serif" font-size="14.00">implement_changes</text>
<text xml:space="preserve" text-anchor="middle" x="144.25" y="-323.95" font-family="Helvetica,sans-Serif" font-size="14.00">(agent)</text>
<text xml:space="preserve" text-anchor="middle" x="144.25" y="-308.95" font-family="Helvetica,sans-Serif" font-size="14.00">role: implementer</text>
</g>
<!-- quick_context&#45;&gt;implement_changes -->
<g id="edge1" class="edge">
<title>quick_context&#45;&gt;implement_changes</title>
<path fill="none" stroke="black" d="M144.25,-392.82C144.25,-385.04 144.25,-376.33 144.25,-367.97"/>
<polygon fill="black" stroke="black" points="147.75,-368.01 144.25,-358.01 140.75,-368.01 147.75,-368.01"/>
</g>
<!-- run_tests -->
<g id="node3" class="node">
<title>run_tests</title>
<path fill="#e3f2fd" stroke="black" d="M172.12,-266.25C172.12,-266.25 116.38,-266.25 116.38,-266.25 110.38,-266.25 104.38,-260.25 104.38,-254.25 104.38,-254.25 104.38,-225.25 104.38,-225.25 104.38,-219.25 110.38,-213.25 116.38,-213.25 116.38,-213.25 172.12,-213.25 172.12,-213.25 178.12,-213.25 184.12,-219.25 184.12,-225.25 184.12,-225.25 184.12,-254.25 184.12,-254.25 184.12,-260.25 178.12,-266.25 172.12,-266.25"/>
<text xml:space="preserve" text-anchor="middle" x="144.25" y="-248.95" font-family="Helvetica,sans-Serif" font-size="14.00">run_tests</text>
<text xml:space="preserve" text-anchor="middle" x="144.25" y="-233.95" font-family="Helvetica,sans-Serif" font-size="14.00">(agent)</text>
<text xml:space="preserve" text-anchor="middle" x="144.25" y="-218.95" font-family="Helvetica,sans-Serif" font-size="14.00">role: tester</text>
</g>
<!-- implement_changes&#45;&gt;run_tests -->
<g id="edge2" class="edge">
<title>implement_changes&#45;&gt;run_tests</title>
<path fill="none" stroke="black" d="M144.25,-302.82C144.25,-295.04 144.25,-286.33 144.25,-277.97"/>
<polygon fill="black" stroke="black" points="147.75,-278.01 144.25,-268.01 140.75,-278.01 147.75,-278.01"/>
</g>
<!-- check_tests -->
<g id="node4" class="node">
<title>check_tests</title>
<polygon fill="#fff3e0" stroke="black" points="87.25,-176.25 0,-138.25 87.25,-100.25 174.5,-138.25 87.25,-176.25"/>
<text xml:space="preserve" text-anchor="middle" x="87.25" y="-139.95" font-family="Helvetica,sans-Serif" font-size="14.00">check_tests</text>
<text xml:space="preserve" text-anchor="middle" x="87.25" y="-124.95" font-family="Helvetica,sans-Serif" font-size="14.00">(condition)</text>
</g>
<!-- run_tests&#45;&gt;check_tests -->
<g id="edge3" class="edge">
<title>run_tests&#45;&gt;check_tests</title>
<path fill="none" stroke="black" d="M129.42,-212.87C123.5,-202.54 116.55,-190.4 110.02,-179"/>
<polygon fill="black" stroke="black" points="113.19,-177.48 105.18,-170.55 107.11,-180.96 113.19,-177.48"/>
</g>
<!-- fix_issues -->
<g id="node5" class="node">
<title>fix_issues</title>
<path fill="#e3f2fd" stroke="black" d="M241.75,-53C241.75,-53 162.75,-53 162.75,-53 156.75,-53 150.75,-47 150.75,-41 150.75,-41 150.75,-12 150.75,-12 150.75,-6 156.75,0 162.75,0 162.75,0 241.75,0 241.75,0 247.75,0 253.75,-6 253.75,-12 253.75,-12 253.75,-41 253.75,-41 253.75,-47 247.75,-53 241.75,-53"/>
<text xml:space="preserve" text-anchor="middle" x="202.25" y="-35.7" font-family="Helvetica,sans-Serif" font-size="14.00">fix_issues</text>
<text xml:space="preserve" text-anchor="middle" x="202.25" y="-20.7" font-family="Helvetica,sans-Serif" font-size="14.00">(agent)</text>
<text xml:space="preserve" text-anchor="middle" x="202.25" y="-5.7" font-family="Helvetica,sans-Serif" font-size="14.00">role: debugger</text>
</g>
<!-- check_tests&#45;&gt;fix_issues -->
<g id="edge5" class="edge">
<title>check_tests&#45;&gt;fix_issues</title>
<path fill="none" stroke="black" stroke-dasharray="5,2" d="M114.21,-111.52C129.96,-96.49 150.01,-77.36 167,-61.14"/>
<polygon fill="black" stroke="black" points="169.15,-63.93 173.96,-54.5 164.31,-58.87 169.15,-63.93"/>
</g>
<!-- finalize -->
<g id="node6" class="node">
<title>finalize</title>
<path fill="#e3f2fd" stroke="black" d="M120.75,-53C120.75,-53 47.75,-53 47.75,-53 41.75,-53 35.75,-47 35.75,-41 35.75,-41 35.75,-12 35.75,-12 35.75,-6 41.75,0 47.75,0 47.75,0 120.75,0 120.75,0 126.75,0 132.75,-6 132.75,-12 132.75,-12 132.75,-41 132.75,-41 132.75,-47 126.75,-53 120.75,-53"/>
<text xml:space="preserve" text-anchor="middle" x="84.25" y="-35.7" font-family="Helvetica,sans-Serif" font-size="14.00">finalize</text>
<text xml:space="preserve" text-anchor="middle" x="84.25" y="-20.7" font-family="Helvetica,sans-Serif" font-size="14.00">(agent)</text>
<text xml:space="preserve" text-anchor="middle" x="84.25" y="-5.7" font-family="Helvetica,sans-Serif" font-size="14.00">role: reviewer</text>
</g>
<!-- check_tests&#45;&gt;finalize -->
<g id="edge4" class="edge">
<title>check_tests&#45;&gt;finalize</title>
<path fill="none" stroke="black" stroke-dasharray="5,2" d="M86.24,-100.4C85.93,-88.94 85.58,-76.3 85.27,-64.8"/>
<polygon fill="black" stroke="black" points="88.77,-64.75 85,-54.85 81.77,-64.94 88.77,-64.75"/>
<text xml:space="preserve" text-anchor="middle" x="95.41" y="-72.75" font-family="Helvetica,sans-Serif" font-size="10.00">True</text>
</g>
<!-- fix_issues&#45;&gt;run_tests -->
<g id="edge6" class="edge">
<title>fix_issues&#45;&gt;run_tests</title>
<path fill="none" stroke="black" d="M202.27,-53.27C201.55,-83.56 197.98,-134.93 183.25,-176.25 179.95,-185.52 175.11,-194.85 169.96,-203.39"/>
<polygon fill="black" stroke="black" points="167.08,-201.39 164.65,-211.7 172.98,-205.16 167.08,-201.39"/>
</g>
</g>
</svg>
