<?xml version="1.0" encoding="UTF-8" standalone="no"?>
<!DOCTYPE svg PUBLIC "-//W3C//DTD SVG 1.1//EN"
 "http://www.w3.org/Graphics/SVG/1.1/DTD/svg11.dtd">
<!-- Generated by graphviz version 14.0.4 (20251115.1723)
 -->
<!-- Title: workflow Pages: 1 -->
<svg width="619pt" height="4234pt"
 viewBox="0.00 0.00 619.00 4234.00" xmlns="http://www.w3.org/2000/svg" xmlns:xlink="http://www.w3.org/1999/xlink">
<g id="graph0" class="graph" transform="scale(1 1) rotate(0) translate(4 4230.16)">
<title>workflow</title>
<polygon fill="white" stroke="none" points="-4,4 -4,-4230.16 615.19,-4230.16 615.19,4 -4,4"/>
<text xml:space="preserve" text-anchor="middle" x="305.6" y="-4208.86" font-family="Times,serif" font-size="14.00">ml_pipeline</text>
<!-- load_train_data -->
<g id="node1" class="node">
<title>load_train_data</title>
<polygon fill="#e8f5e9" stroke="black" points="611.19,-4201.66 304.02,-4201.66 225,-4035.66 532.17,-4035.66 611.19,-4201.66"/>
<text xml:space="preserve" text-anchor="middle" x="418.1" y="-4142.86" font-family="Helvetica,sans-Serif" font-size="14.00">Load Training Data</text>
<text xml:space="preserve" text-anchor="middle" x="418.1" y="-4127.86" font-family="Helvetica,sans-Serif" font-size="14.00">(compute)</text>
<text xml:space="preserve" text-anchor="middle" x="418.1" y="-4112.86" font-family="Helvetica,sans-Serif" font-size="14.00">exec: in&#45;process</text>
<text xml:space="preserve" text-anchor="middle" x="418.1" y="-4097.86" font-family="Helvetica,sans-Serif" font-size="14.00">blocked: [llm, network, write]</text>
<text xml:space="preserve" text-anchor="middle" x="418.1" y="-4082.86" font-family="Helvetica,sans-Serif" font-size="14.00">timeout: 60s</text>
</g>
<!-- validate_data -->
<g id="node2" class="node">
<title>validate_data</title>
<polygon fill="#e8f5e9" stroke="black" points="611.19,-3998.66 304.02,-3998.66 225,-3802.66 532.17,-3802.66 611.19,-3998.66"/>
<text xml:space="preserve" text-anchor="middle" x="418.1" y="-3932.36" font-family="Helvetica,sans-Serif" font-size="14.00">Validate Data Quality</text>
<text xml:space="preserve" text-anchor="middle" x="418.1" y="-3917.36" font-family="Helvetica,sans-Serif" font-size="14.00">(compute)</text>
<text xml:space="preserve" text-anchor="middle" x="418.1" y="-3902.36" font-family="Helvetica,sans-Serif" font-size="14.00">exec: in&#45;process</text>
<text xml:space="preserve" text-anchor="middle" x="418.1" y="-3887.36" font-family="Helvetica,sans-Serif" font-size="14.00">handler: data_transform</text>
<text xml:space="preserve" text-anchor="middle" x="418.1" y="-3872.36" font-family="Helvetica,sans-Serif" font-size="14.00">blocked: [llm, network, write]</text>
<text xml:space="preserve" text-anchor="middle" x="418.1" y="-3857.36" font-family="Helvetica,sans-Serif" font-size="14.00">timeout: 45s</text>
</g>
<!-- load_train_data&#45;&gt;validate_data -->
<g id="edge1" class="edge">
<title>load_train_data&#45;&gt;validate_data</title>
<path fill="none" stroke="black" d="M418.1,-4035.38C418.1,-4027.18 418.1,-4018.78 418.1,-4010.37"/>
<polygon fill="black" stroke="black" points="421.6,-4010.42 418.1,-4000.42 414.6,-4010.42 421.6,-4010.42"/>
</g>
<!-- check_data_quality -->
<g id="node3" class="node">
<title>check_data_quality</title>
<polygon fill="#fff3e0" stroke="black" points="418.1,-3765.66 293.35,-3727.66 418.1,-3689.66 542.85,-3727.66 418.1,-3765.66"/>
<text xml:space="preserve" text-anchor="middle" x="418.1" y="-3729.36" font-family="Helvetica,sans-Serif" font-size="14.00">Data Quality Gate</text>
<text xml:space="preserve" text-anchor="middle" x="418.1" y="-3714.36" font-family="Helvetica,sans-Serif" font-size="14.00">(condition)</text>
</g>
<!-- validate_data&#45;&gt;check_data_quality -->
<g id="edge2" class="edge">
<title>validate_data&#45;&gt;check_data_quality</title>
<path fill="none" stroke="black" d="M418.1,-3802.17C418.1,-3793.7 418.1,-3785.39 418.1,-3777.59"/>
<polygon fill="black" stroke="black" points="421.6,-3777.68 418.1,-3767.68 414.6,-3777.68 421.6,-3777.68"/>
</g>
<!-- auto_fix_data -->
<g id="node4" class="node">
<title>auto_fix_data</title>
<path fill="#e3f2fd" stroke="black" d="M422.72,-3642.41C422.72,-3642.41 305.47,-3642.41 305.47,-3642.41 299.47,-3642.41 293.47,-3636.41 293.47,-3630.41 293.47,-3630.41 293.47,-3601.41 293.47,-3601.41 293.47,-3595.41 299.47,-3589.41 305.47,-3589.41 305.47,-3589.41 422.72,-3589.41 422.72,-3589.41 428.72,-3589.41 434.72,-3595.41 434.72,-3601.41 434.72,-3601.41 434.72,-3630.41 434.72,-3630.41 434.72,-3636.41 428.72,-3642.41 422.72,-3642.41"/>
<text xml:space="preserve" text-anchor="middle" x="364.1" y="-3625.11" font-family="Helvetica,sans-Serif" font-size="14.00">Auto&#45;Fix Data Issues</text>
<text xml:space="preserve" text-anchor="middle" x="364.1" y="-3610.11" font-family="Helvetica,sans-Serif" font-size="14.00">(agent)</text>
<text xml:space="preserve" text-anchor="middle" x="364.1" y="-3595.11" font-family="Helvetica,sans-Serif" font-size="14.00">role: executor</text>
</g>
<!-- check_data_quality&#45;&gt;auto_fix_data -->
<g id="edge4" class="edge">
<title>check_data_quality&#45;&gt;auto_fix_data</title>
<path fill="none" stroke="black" stroke-dasharray="5,2" d="M402.04,-3694.03C395.66,-3681.06 388.3,-3666.11 381.77,-3652.83"/>
<polygon fill="black" stroke="black" points="384.97,-3651.41 377.42,-3643.98 378.69,-3654.5 384.97,-3651.41"/>
<text xml:space="preserve" text-anchor="middle" x="399.98" y="-3662.16" font-family="Helvetica,sans-Serif" font-size="10.00">false</text>
</g>
<!-- feature_engineering -->
<g id="node5" class="node">
<title>feature_engineering</title>
<polygon fill="#f3e5f5" stroke="black" points="542.1,-3548.41 346.1,-3548.41 346.1,-3510.41 542.1,-3510.41 542.1,-3548.41"/>
<polygon fill="none" stroke="black" points="546.1,-3552.41 342.1,-3552.41 342.1,-3506.41 546.1,-3506.41 546.1,-3552.41"/>
<text xml:space="preserve" text-anchor="middle" x="444.1" y="-3531.11" font-family="Helvetica,sans-Serif" font-size="14.00">Feature Engineering (Parallel)</text>
<text xml:space="preserve" text-anchor="middle" x="444.1" y="-3516.11" font-family="Helvetica,sans-Serif" font-size="14.00">(parallel)</text>
</g>
<!-- check_data_quality&#45;&gt;feature_engineering -->
<g id="edge3" class="edge">
<title>check_data_quality&#45;&gt;feature_engineering</title>
<path fill="none" stroke="black" stroke-dasharray="5,2" d="M430.96,-3693.17C436.15,-3677.93 441.52,-3659.51 444.1,-3642.41 448.03,-3616.33 447.79,-3586.45 446.7,-3564.11"/>
<polygon fill="black" stroke="black" points="450.21,-3564.16 446.14,-3554.38 443.22,-3564.56 450.21,-3564.16"/>
<text xml:space="preserve" text-anchor="middle" x="455.64" y="-3612.03" font-family="Helvetica,sans-Serif" font-size="10.00">true</text>
</g>
<!-- auto_fix_data&#45;&gt;feature_engineering -->
<g id="edge5" class="edge">
<title>auto_fix_data&#45;&gt;feature_engineering</title>
<path fill="none" stroke="black" d="M388.53,-3589.09C396.98,-3580.18 406.52,-3570.1 415.28,-3560.85"/>
<polygon fill="black" stroke="black" points="417.68,-3563.4 422.01,-3553.73 412.59,-3558.59 417.68,-3563.4"/>
</g>
<!-- numeric_features -->
<g id="node6" class="node">
<title>numeric_features</title>
<polygon fill="#e8f5e9" stroke="black" points="386.19,-3459.16 79.02,-3459.16 0,-3293.16 307.17,-3293.16 386.19,-3459.16"/>
<text xml:space="preserve" text-anchor="middle" x="193.1" y="-3400.36" font-family="Helvetica,sans-Serif" font-size="14.00">Process Numeric Features</text>
<text xml:space="preserve" text-anchor="middle" x="193.1" y="-3385.36" font-family="Helvetica,sans-Serif" font-size="14.00">(compute)</text>
<text xml:space="preserve" text-anchor="middle" x="193.1" y="-3370.36" font-family="Helvetica,sans-Serif" font-size="14.00">exec: in&#45;process</text>
<text xml:space="preserve" text-anchor="middle" x="193.1" y="-3355.36" font-family="Helvetica,sans-Serif" font-size="14.00">blocked: [llm, network, write]</text>
<text xml:space="preserve" text-anchor="middle" x="193.1" y="-3340.36" font-family="Helvetica,sans-Serif" font-size="14.00">timeout: 120s</text>
</g>
<!-- feature_engineering&#45;&gt;numeric_features -->
<g id="edge6" class="edge">
<title>feature_engineering&#45;&gt;numeric_features</title>
<path fill="none" stroke="black" d="M406.79,-3505.93C388.2,-3494.73 364.39,-3480.38 339.46,-3465.35"/>
<polygon fill="black" stroke="black" points="341.52,-3462.51 331.15,-3460.35 337.91,-3468.5 341.52,-3462.51"/>
<text xml:space="preserve" text-anchor="middle" x="385.03" y="-3478.91" font-family="Helvetica,sans-Serif" font-size="10.00">fork</text>
</g>
<!-- categorical_features -->
<g id="node7" class="node">
<title>categorical_features</title>
<polygon fill="#e8f5e9" stroke="black" points="438.97,-3245.91 119.43,-3245.91 37.22,-3079.91 356.77,-3079.91 438.97,-3245.91"/>
<text xml:space="preserve" text-anchor="middle" x="238.1" y="-3187.11" font-family="Helvetica,sans-Serif" font-size="14.00">Process Categorical Features</text>
<text xml:space="preserve" text-anchor="middle" x="238.1" y="-3172.11" font-family="Helvetica,sans-Serif" font-size="14.00">(compute)</text>
<text xml:space="preserve" text-anchor="middle" x="238.1" y="-3157.11" font-family="Helvetica,sans-Serif" font-size="14.00">exec: in&#45;process</text>
<text xml:space="preserve" text-anchor="middle" x="238.1" y="-3142.11" font-family="Helvetica,sans-Serif" font-size="14.00">blocked: [llm, network, write]</text>
<text xml:space="preserve" text-anchor="middle" x="238.1" y="-3127.11" font-family="Helvetica,sans-Serif" font-size="14.00">timeout: 120s</text>
</g>
<!-- feature_engineering&#45;&gt;categorical_features -->
<g id="edge7" class="edge">
<title>feature_engineering&#45;&gt;categorical_features</title>
<path fill="none" stroke="black" d="M441.38,-3506.23C434.8,-3454.84 416.89,-3329.22 395.1,-3293.16 386.79,-3279.41 376.47,-3266.47 365.12,-3254.47"/>
<polygon fill="black" stroke="black" points="367.68,-3252.09 358.18,-3247.41 362.69,-3256.99 367.68,-3252.09"/>
<text xml:space="preserve" text-anchor="middle" x="443.05" y="-3372.28" font-family="Helvetica,sans-Serif" font-size="10.00">fork</text>
</g>
<!-- text_features -->
<g id="node8" class="node">
<title>text_features</title>
<polygon fill="#e8f5e9" stroke="black" points="484.87,-3042.91 237.07,-3042.91 173.32,-2876.91 421.12,-2876.91 484.87,-3042.91"/>
<text xml:space="preserve" text-anchor="middle" x="329.1" y="-2984.11" font-family="Helvetica,sans-Serif" font-size="14.00">Process Text Features</text>
<text xml:space="preserve" text-anchor="middle" x="329.1" y="-2969.11" font-family="Helvetica,sans-Serif" font-size="14.00">(compute)</text>
<text xml:space="preserve" text-anchor="middle" x="329.1" y="-2954.11" font-family="Helvetica,sans-Serif" font-size="14.00">exec: in&#45;process</text>
<text xml:space="preserve" text-anchor="middle" x="329.1" y="-2939.11" font-family="Helvetica,sans-Serif" font-size="14.00">blocked: [llm, write]</text>
<text xml:space="preserve" text-anchor="middle" x="329.1" y="-2924.11" font-family="Helvetica,sans-Serif" font-size="14.00">timeout: 180s</text>
</g>
<!-- feature_engineering&#45;&gt;text_features -->
<g id="edge8" class="edge">
<title>feature_engineering&#45;&gt;text_features</title>
<path fill="none" stroke="black" d="M450.29,-3506.19C467.89,-3438.67 512.9,-3231.31 448.1,-3079.91 444.04,-3070.44 438.85,-3061.32 432.91,-3052.64"/>
<polygon fill="black" stroke="black" points="435.79,-3050.64 427.07,-3044.61 430.12,-3054.76 435.79,-3050.64"/>
<text xml:space="preserve" text-anchor="middle" x="490.2" y="-3265.66" font-family="Helvetica,sans-Serif" font-size="10.00">fork</text>
</g>
<!-- combine_features -->
<g id="node9" class="node">
<title>combine_features</title>
<polygon fill="#eceff1" stroke="black" points="494.35,-2839.91 347.85,-2839.91 347.85,-2801.91 494.35,-2801.91 494.35,-2839.91"/>
<text xml:space="preserve" text-anchor="middle" x="421.1" y="-2822.61" font-family="Helvetica,sans-Serif" font-size="14.00">Combine All Features</text>
<text xml:space="preserve" text-anchor="middle" x="421.1" y="-2807.61" font-family="Helvetica,sans-Serif" font-size="14.00">(transform)</text>
</g>
<!-- feature_engineering&#45;&gt;combine_features -->
<g id="edge9" class="edge">
<title>feature_engineering&#45;&gt;combine_features</title>
<path fill="none" stroke="black" d="M461.51,-3506.27C481.95,-3478.01 513.1,-3426.8 513.1,-3377.16 513.1,-3377.16 513.1,-3377.16 513.1,-2958.91 513.1,-2921.5 514.48,-2908.27 494.1,-2876.91 486.53,-2865.27 475.61,-2855.16 464.51,-2846.89"/>
<polygon fill="black" stroke="black" points="466.65,-2844.12 456.45,-2841.26 462.64,-2849.86 466.65,-2844.12"/>
<text xml:space="preserve" text-anchor="middle" x="520.6" y="-3159.03" font-family="Helvetica,sans-Serif" font-size="10.00">join</text>
</g>
<!-- numeric_features&#45;&gt;categorical_features -->
<g id="edge10" class="edge">
<title>numeric_features&#45;&gt;categorical_features</title>
<path fill="none" stroke="black" d="M210.62,-3292.88C213.09,-3281.29 215.64,-3269.3 218.15,-3257.52"/>
<polygon fill="black" stroke="black" points="221.57,-3258.3 220.23,-3247.79 214.72,-3256.84 221.57,-3258.3"/>
</g>
<!-- categorical_features&#45;&gt;text_features -->
<g id="edge11" class="edge">
<title>categorical_features&#45;&gt;text_features</title>
<path fill="none" stroke="black" d="M275.37,-3079.57C279.29,-3070.92 283.29,-3062.09 287.25,-3053.33"/>
<polygon fill="black" stroke="black" points="290.32,-3055.05 291.25,-3044.49 283.94,-3052.16 290.32,-3055.05"/>
</g>
<!-- text_features&#45;&gt;combine_features -->
<g id="edge12" class="edge">
<title>text_features&#45;&gt;combine_features</title>
<path fill="none" stroke="black" d="M384.47,-2876.45C390.89,-2866.88 397.06,-2857.7 402.44,-2849.68"/>
<polygon fill="black" stroke="black" points="405.29,-2851.72 407.96,-2841.47 399.48,-2847.82 405.29,-2851.72"/>
</g>
<!-- feature_selection -->
<g id="node10" class="node">
<title>feature_selection</title>
<polygon fill="#e8f5e9" stroke="black" points="574.53,-2764.91 330.45,-2764.91 267.66,-2568.91 511.74,-2568.91 574.53,-2764.91"/>
<text xml:space="preserve" text-anchor="middle" x="421.1" y="-2698.61" font-family="Helvetica,sans-Serif" font-size="14.00">Feature Selection</text>
<text xml:space="preserve" text-anchor="middle" x="421.1" y="-2683.61" font-family="Helvetica,sans-Serif" font-size="14.00">(compute)</text>
<text xml:space="preserve" text-anchor="middle" x="421.1" y="-2668.61" font-family="Helvetica,sans-Serif" font-size="14.00">exec: in&#45;process</text>
<text xml:space="preserve" text-anchor="middle" x="421.1" y="-2653.61" font-family="Helvetica,sans-Serif" font-size="14.00">handler: parallel_tools</text>
<text xml:space="preserve" text-anchor="middle" x="421.1" y="-2638.61" font-family="Helvetica,sans-Serif" font-size="14.00">blocked: [llm, write]</text>
<text xml:space="preserve" text-anchor="middle" x="421.1" y="-2623.61" font-family="Helvetica,sans-Serif" font-size="14.00">timeout: 300s</text>
</g>
<!-- combine_features&#45;&gt;feature_selection -->
<g id="edge13" class="edge">
<title>combine_features&#45;&gt;feature_selection</title>
<path fill="none" stroke="black" d="M421.1,-2801.57C421.1,-2794.59 421.1,-2786.04 421.1,-2776.66"/>
<polygon fill="black" stroke="black" points="424.6,-2776.83 421.1,-2766.83 417.6,-2776.83 424.6,-2776.83"/>
</g>
<!-- train_models -->
<g id="node11" class="node">
<title>train_models</title>
<polygon fill="#f3e5f5" stroke="black" points="493.97,-2527.91 348.22,-2527.91 348.22,-2489.91 493.97,-2489.91 493.97,-2527.91"/>
<polygon fill="none" stroke="black" points="497.97,-2531.91 344.22,-2531.91 344.22,-2485.91 497.97,-2485.91 497.97,-2531.91"/>
<text xml:space="preserve" text-anchor="middle" x="421.1" y="-2510.61" font-family="Helvetica,sans-Serif" font-size="14.00">Train Multiple Models</text>
<text xml:space="preserve" text-anchor="middle" x="421.1" y="-2495.61" font-family="Helvetica,sans-Serif" font-size="14.00">(parallel)</text>
</g>
<!-- feature_selection&#45;&gt;train_models -->
<g id="edge14" class="edge">
<title>feature_selection&#45;&gt;train_models</title>
<path fill="none" stroke="black" d="M421.1,-2568.44C421.1,-2559.73 421.1,-2551.37 421.1,-2543.83"/>
<polygon fill="black" stroke="black" points="424.6,-2543.87 421.1,-2533.87 417.6,-2543.87 424.6,-2543.87"/>
</g>
<!-- train_rf -->
<g id="node12" class="node">
<title>train_rf</title>
<polygon fill="#e8f5e9" stroke="black" points="339.65,-2438.66 101.74,-2438.66 40.54,-2272.66 278.45,-2272.66 339.65,-2438.66"/>
<text xml:space="preserve" text-anchor="middle" x="190.1" y="-2379.86" font-family="Helvetica,sans-Serif" font-size="14.00">Train Random Forest</text>
<text xml:space="preserve" text-anchor="middle" x="190.1" y="-2364.86" font-family="Helvetica,sans-Serif" font-size="14.00">(compute)</text>
<text xml:space="preserve" text-anchor="middle" x="190.1" y="-2349.86" font-family="Helvetica,sans-Serif" font-size="14.00">exec: in&#45;process</text>
<text xml:space="preserve" text-anchor="middle" x="190.1" y="-2334.86" font-family="Helvetica,sans-Serif" font-size="14.00">blocked: [llm, write]</text>
<text xml:space="preserve" text-anchor="middle" x="190.1" y="-2319.86" font-family="Helvetica,sans-Serif" font-size="14.00">timeout: 600s</text>
</g>
<!-- train_models&#45;&gt;train_rf -->
<g id="edge15" class="edge">
<title>train_models&#45;&gt;train_rf</title>
<path fill="none" stroke="black" d="M376.62,-2485.61C366.29,-2480.09 355.43,-2473.99 345.6,-2467.91 334.12,-2460.81 322.38,-2453.16 310.73,-2445.32"/>
<polygon fill="black" stroke="black" points="312.91,-2442.57 302.67,-2439.84 308.98,-2448.36 312.91,-2442.57"/>
<text xml:space="preserve" text-anchor="middle" x="353.85" y="-2458.41" font-family="Helvetica,sans-Serif" font-size="10.00">fork</text>
</g>
<!-- train_xgb -->
<g id="node13" class="node">
<title>train_xgb</title>
<polygon fill="#e8f5e9" stroke="black" points="393.43,-2225.41 176.55,-2225.41 120.76,-2059.41 337.64,-2059.41 393.43,-2225.41"/>
<text xml:space="preserve" text-anchor="middle" x="257.1" y="-2166.61" font-family="Helvetica,sans-Serif" font-size="14.00">Train XGBoost</text>
<text xml:space="preserve" text-anchor="middle" x="257.1" y="-2151.61" font-family="Helvetica,sans-Serif" font-size="14.00">(compute)</text>
<text xml:space="preserve" text-anchor="middle" x="257.1" y="-2136.61" font-family="Helvetica,sans-Serif" font-size="14.00">exec: in&#45;process</text>
<text xml:space="preserve" text-anchor="middle" x="257.1" y="-2121.61" font-family="Helvetica,sans-Serif" font-size="14.00">blocked: [llm, write]</text>
<text xml:space="preserve" text-anchor="middle" x="257.1" y="-2106.61" font-family="Helvetica,sans-Serif" font-size="14.00">timeout: 600s</text>
</g>
<!-- train_models&#45;&gt;train_xgb -->
<g id="edge16" class="edge">
<title>train_models&#45;&gt;train_xgb</title>
<path fill="none" stroke="black" d="M410.08,-2485.52C403.79,-2472.15 396.09,-2454.69 390.6,-2438.66 365.96,-2366.71 380.92,-2341.73 349.1,-2272.66 343.32,-2260.12 336.28,-2247.54 328.69,-2235.42"/>
<polygon fill="black" stroke="black" points="331.68,-2233.59 323.32,-2227.07 325.79,-2237.38 331.68,-2233.59"/>
<text xml:space="preserve" text-anchor="middle" x="398.85" y="-2351.78" font-family="Helvetica,sans-Serif" font-size="10.00">fork</text>
</g>
<!-- train_lgb -->
<g id="node14" class="node">
<title>train_lgb</title>
<polygon fill="#e8f5e9" stroke="black" points="439.43,-2012.16 222.55,-2012.16 166.76,-1846.16 383.64,-1846.16 439.43,-2012.16"/>
<text xml:space="preserve" text-anchor="middle" x="303.1" y="-1953.36" font-family="Helvetica,sans-Serif" font-size="14.00">Train LightGBM</text>
<text xml:space="preserve" text-anchor="middle" x="303.1" y="-1938.36" font-family="Helvetica,sans-Serif" font-size="14.00">(compute)</text>
<text xml:space="preserve" text-anchor="middle" x="303.1" y="-1923.36" font-family="Helvetica,sans-Serif" font-size="14.00">exec: in&#45;process</text>
<text xml:space="preserve" text-anchor="middle" x="303.1" y="-1908.36" font-family="Helvetica,sans-Serif" font-size="14.00">blocked: [llm, write]</text>
<text xml:space="preserve" text-anchor="middle" x="303.1" y="-1893.36" font-family="Helvetica,sans-Serif" font-size="14.00">timeout: 600s</text>
</g>
<!-- train_models&#45;&gt;train_lgb -->
<g id="edge17" class="edge">
<title>train_models&#45;&gt;train_lgb</title>
<path fill="none" stroke="black" d="M421.91,-2485.66C424.52,-2406.5 430.96,-2138.99 402.1,-2059.41 397.42,-2046.51 390.96,-2033.86 383.56,-2021.83"/>
<polygon fill="black" stroke="black" points="386.61,-2020.1 378.25,-2013.59 380.72,-2023.89 386.61,-2020.1"/>
<text xml:space="preserve" text-anchor="middle" x="431.61" y="-2245.16" font-family="Helvetica,sans-Serif" font-size="10.00">fork</text>
</g>
<!-- train_nn -->
<g id="node15" class="node">
<title>train_nn</title>
<polygon fill="#e8f5e9" stroke="black" points="483.87,-1809.16 247.2,-1809.16 186.32,-1643.16 422.99,-1643.16 483.87,-1809.16"/>
<text xml:space="preserve" text-anchor="middle" x="335.1" y="-1750.36" font-family="Helvetica,sans-Serif" font-size="14.00">Train Neural Network</text>
<text xml:space="preserve" text-anchor="middle" x="335.1" y="-1735.36" font-family="Helvetica,sans-Serif" font-size="14.00">(compute)</text>
<text xml:space="preserve" text-anchor="middle" x="335.1" y="-1720.36" font-family="Helvetica,sans-Serif" font-size="14.00">exec: in&#45;process</text>
<text xml:space="preserve" text-anchor="middle" x="335.1" y="-1705.36" font-family="Helvetica,sans-Serif" font-size="14.00">blocked: [llm, write]</text>
<text xml:space="preserve" text-anchor="middle" x="335.1" y="-1690.36" font-family="Helvetica,sans-Serif" font-size="14.00">timeout: 900s</text>
</g>
<!-- train_models&#45;&gt;train_nn -->
<g id="edge18" class="edge">
<title>train_models&#45;&gt;train_nn</title>
<path fill="none" stroke="black" d="M432.47,-2485.49C446.09,-2456.52 467.1,-2404.14 467.1,-2356.66 467.1,-2356.66 467.1,-2356.66 467.1,-1928.16 467.1,-1890.75 465.82,-1879.1 448.1,-1846.16 443.04,-1836.75 437.04,-1827.55 430.48,-1818.7"/>
<polygon fill="black" stroke="black" points="433.26,-1816.58 424.38,-1810.8 427.72,-1820.85 433.26,-1816.58"/>
<text xml:space="preserve" text-anchor="middle" x="475.35" y="-2138.53" font-family="Helvetica,sans-Serif" font-size="10.00">fork</text>
</g>
<!-- evaluate_models -->
<g id="node16" class="node">
<title>evaluate_models</title>
<polygon fill="#e8f5e9" stroke="black" points="576.53,-1606.16 332.45,-1606.16 269.66,-1410.16 513.74,-1410.16 576.53,-1606.16"/>
<text xml:space="preserve" text-anchor="middle" x="423.1" y="-1539.86" font-family="Helvetica,sans-Serif" font-size="14.00">Evaluate All Models</text>
<text xml:space="preserve" text-anchor="middle" x="423.1" y="-1524.86" font-family="Helvetica,sans-Serif" font-size="14.00">(compute)</text>
<text xml:space="preserve" text-anchor="middle" x="423.1" y="-1509.86" font-family="Helvetica,sans-Serif" font-size="14.00">exec: in&#45;process</text>
<text xml:space="preserve" text-anchor="middle" x="423.1" y="-1494.86" font-family="Helvetica,sans-Serif" font-size="14.00">handler: parallel_tools</text>
<text xml:space="preserve" text-anchor="middle" x="423.1" y="-1479.86" font-family="Helvetica,sans-Serif" font-size="14.00">blocked: [llm, write]</text>
<text xml:space="preserve" text-anchor="middle" x="423.1" y="-1464.86" font-family="Helvetica,sans-Serif" font-size="14.00">timeout: 300s</text>
</g>
<!-- train_models&#45;&gt;evaluate_models -->
<g id="edge19" class="edge">
<title>train_models&#45;&gt;evaluate_models</title>
<path fill="none" stroke="black" d="M445,-2485.81C471.97,-2458.36 512.1,-2408.75 512.1,-2356.66 512.1,-2356.66 512.1,-2356.66 512.1,-1725.16 512.1,-1688.31 500.89,-1650.41 486.42,-1616.85"/>
<polygon fill="black" stroke="black" points="489.73,-1615.66 482.46,-1607.96 483.34,-1618.52 489.73,-1615.66"/>
<text xml:space="preserve" text-anchor="middle" x="519.6" y="-2031.91" font-family="Helvetica,sans-Serif" font-size="10.00">join</text>
</g>
<!-- train_rf&#45;&gt;train_xgb -->
<g id="edge20" class="edge">
<title>train_rf&#45;&gt;train_xgb</title>
<path fill="none" stroke="black" d="M216.19,-2272.38C219.9,-2260.67 223.75,-2248.56 227.52,-2236.66"/>
<polygon fill="black" stroke="black" points="230.82,-2237.84 230.5,-2227.25 224.14,-2235.73 230.82,-2237.84"/>
</g>
<!-- train_xgb&#45;&gt;train_lgb -->
<g id="edge21" class="edge">
<title>train_xgb&#45;&gt;train_lgb</title>
<path fill="none" stroke="black" d="M275.01,-2059.13C277.54,-2047.54 280.14,-2035.55 282.71,-2023.77"/>
<polygon fill="black" stroke="black" points="286.12,-2024.55 284.83,-2014.04 279.28,-2023.06 286.12,-2024.55"/>
</g>
<!-- train_lgb&#45;&gt;train_nn -->
<g id="edge22" class="edge">
<title>train_lgb&#45;&gt;train_nn</title>
<path fill="none" stroke="black" d="M316.2,-1845.82C317.52,-1837.55 318.86,-1829.11 320.2,-1820.73"/>
<polygon fill="black" stroke="black" points="323.65,-1821.28 321.77,-1810.86 316.74,-1820.18 323.65,-1821.28"/>
</g>
<!-- train_nn&#45;&gt;evaluate_models -->
<g id="edge23" class="edge">
<title>train_nn&#45;&gt;evaluate_models</title>
<path fill="none" stroke="black" d="M368.62,-1642.88C372.07,-1634.4 375.61,-1625.7 379.16,-1617"/>
<polygon fill="black" stroke="black" points="382.37,-1618.39 382.9,-1607.81 375.89,-1615.75 382.37,-1618.39"/>
</g>
<!-- analyze_results -->
<g id="node17" class="node">
<title>analyze_results</title>
<path fill="#e3f2fd" stroke="black" d="M504.6,-1373.16C504.6,-1373.16 341.6,-1373.16 341.6,-1373.16 335.6,-1373.16 329.6,-1367.16 329.6,-1361.16 329.6,-1361.16 329.6,-1332.16 329.6,-1332.16 329.6,-1326.16 335.6,-1320.16 341.6,-1320.16 341.6,-1320.16 504.6,-1320.16 504.6,-1320.16 510.6,-1320.16 516.6,-1326.16 516.6,-1332.16 516.6,-1332.16 516.6,-1361.16 516.6,-1361.16 516.6,-1367.16 510.6,-1373.16 504.6,-1373.16"/>
<text xml:space="preserve" text-anchor="middle" x="423.1" y="-1355.86" font-family="Helvetica,sans-Serif" font-size="14.00">Analyze Model Performance</text>
<text xml:space="preserve" text-anchor="middle" x="423.1" y="-1340.86" font-family="Helvetica,sans-Serif" font-size="14.00">(agent)</text>
<text xml:space="preserve" text-anchor="middle" x="423.1" y="-1325.86" font-family="Helvetica,sans-Serif" font-size="14.00">role: analyst</text>
</g>
<!-- evaluate_models&#45;&gt;analyze_results -->
<g id="edge24" class="edge">
<title>evaluate_models&#45;&gt;analyze_results</title>
<path fill="none" stroke="black" d="M423.1,-1409.78C423.1,-1401.01 423.1,-1392.54 423.1,-1384.83"/>
<polygon fill="black" stroke="black" points="426.6,-1384.9 423.1,-1374.9 419.6,-1384.9 426.6,-1384.9"/>
</g>
<!-- select_model -->
<g id="node18" class="node">
<title>select_model</title>
<polygon fill="#fff3e0" stroke="black" points="423.1,-1283.16 310.35,-1245.16 423.1,-1207.16 535.85,-1245.16 423.1,-1283.16"/>
<text xml:space="preserve" text-anchor="middle" x="423.1" y="-1246.86" font-family="Helvetica,sans-Serif" font-size="14.00">Model Selection</text>
<text xml:space="preserve" text-anchor="middle" x="423.1" y="-1231.86" font-family="Helvetica,sans-Serif" font-size="14.00">(condition)</text>
</g>
<!-- analyze_results&#45;&gt;select_model -->
<g id="edge25" class="edge">
<title>analyze_results&#45;&gt;select_model</title>
<path fill="none" stroke="black" d="M423.1,-1319.77C423.1,-1312.09 423.1,-1303.4 423.1,-1294.77"/>
<polygon fill="black" stroke="black" points="426.6,-1295.04 423.1,-1285.04 419.6,-1295.04 426.6,-1295.04"/>
</g>
<!-- request_approval -->
<g id="node19" class="node">
<title>request_approval</title>
<ellipse fill="#ffebee" stroke="black" cx="351.1" cy="-1122.43" rx="96.7" ry="37.48"/>
<text xml:space="preserve" text-anchor="middle" x="351.1" y="-1131.63" font-family="Helvetica,sans-Serif" font-size="14.00">Low Score Approval</text>
<text xml:space="preserve" text-anchor="middle" x="351.1" y="-1116.63" font-family="Helvetica,sans-Serif" font-size="14.00">(hitl)</text>
<text xml:space="preserve" text-anchor="middle" x="351.1" y="-1101.63" font-family="Helvetica,sans-Serif" font-size="14.00">timeout: 1800s</text>
</g>
<!-- select_model&#45;&gt;request_approval -->
<g id="edge27" class="edge">
<title>select_model&#45;&gt;request_approval</title>
<path fill="none" stroke="black" stroke-dasharray="5,2" d="M404.55,-1213.07C396.49,-1199.54 386.88,-1183.43 378.05,-1168.62"/>
<polygon fill="black" stroke="black" points="381.28,-1167.21 373.15,-1160.42 375.27,-1170.8 381.28,-1167.21"/>
<text xml:space="preserve" text-anchor="middle" x="399.75" y="-1179.66" font-family="Helvetica,sans-Serif" font-size="10.00">false</text>
</g>
<!-- prepare_deployment -->
<g id="node23" class="node">
<title>prepare_deployment</title>
<polygon fill="#f3e5f5" stroke="black" points="511.1,-745.45 351.1,-745.45 351.1,-707.45 511.1,-707.45 511.1,-745.45"/>
<polygon fill="none" stroke="black" points="515.1,-749.45 347.1,-749.45 347.1,-703.45 515.1,-703.45 515.1,-749.45"/>
<text xml:space="preserve" text-anchor="middle" x="431.1" y="-728.15" font-family="Helvetica,sans-Serif" font-size="14.00">Prepare for Deployment</text>
<text xml:space="preserve" text-anchor="middle" x="431.1" y="-713.15" font-family="Helvetica,sans-Serif" font-size="14.00">(parallel)</text>
</g>
<!-- select_model&#45;&gt;prepare_deployment -->
<g id="edge26" class="edge">
<title>select_model&#45;&gt;prepare_deployment</title>
<path fill="none" stroke="black" stroke-dasharray="5,2" d="M451.16,-1216.11C471,-1193.21 494.1,-1158.93 494.1,-1123.43 494.1,-1123.43 494.1,-1123.43 494.1,-811.95 494.1,-791.3 481.85,-772.44 468.16,-757.8"/>
<polygon fill="black" stroke="black" points="470.64,-755.33 461.09,-750.75 465.7,-760.29 470.64,-755.33"/>
<text xml:space="preserve" text-anchor="middle" x="502.35" y="-944.45" font-family="Helvetica,sans-Serif" font-size="10.00">true</text>
</g>
<!-- handle_approval -->
<g id="node20" class="node">
<title>handle_approval</title>
<polygon fill="#fff3e0" stroke="black" points="295.1,-1047.95 123.85,-1009.95 295.1,-971.95 466.35,-1009.95 295.1,-1047.95"/>
<text xml:space="preserve" text-anchor="middle" x="295.1" y="-1011.65" font-family="Helvetica,sans-Serif" font-size="14.00">Handle Approval Decision</text>
<text xml:space="preserve" text-anchor="middle" x="295.1" y="-996.65" font-family="Helvetica,sans-Serif" font-size="14.00">(condition)</text>
</g>
<!-- request_approval&#45;&gt;handle_approval -->
<g id="edge28" class="edge">
<title>request_approval&#45;&gt;handle_approval</title>
<path fill="none" stroke="black" d="M332.76,-1085.26C327.83,-1075.54 322.46,-1064.93 317.34,-1054.85"/>
<polygon fill="black" stroke="black" points="320.47,-1053.27 312.83,-1045.94 314.23,-1056.44 320.47,-1053.27"/>
</g>
<!-- abort_pipeline -->
<g id="node21" class="node">
<title>abort_pipeline</title>
<polygon fill="#eceff1" stroke="black" points="278.1,-924.7 178.1,-924.7 178.1,-886.7 278.1,-886.7 278.1,-924.7"/>
<text xml:space="preserve" text-anchor="middle" x="228.1" y="-907.4" font-family="Helvetica,sans-Serif" font-size="14.00">Abort Pipeline</text>
<text xml:space="preserve" text-anchor="middle" x="228.1" y="-892.4" font-family="Helvetica,sans-Serif" font-size="14.00">(transform)</text>
</g>
<!-- handle_approval&#45;&gt;abort_pipeline -->
<g id="edge31" class="edge">
<title>handle_approval&#45;&gt;abort_pipeline</title>
<path fill="none" stroke="black" stroke-dasharray="5,2" d="M273.71,-976.32C264.86,-962.81 254.71,-947.32 246.23,-934.38"/>
<polygon fill="black" stroke="black" points="249.36,-932.77 240.95,-926.32 243.51,-936.61 249.36,-932.77"/>
<text xml:space="preserve" text-anchor="middle" x="269.21" y="-944.45" font-family="Helvetica,sans-Serif" font-size="10.00">Abort</text>
</g>
<!-- end_with_recommendations -->
<g id="node22" class="node">
<title>end_with_recommendations</title>
<path fill="#e3f2fd" stroke="black" d="M391.47,-839.45C391.47,-839.45 224.72,-839.45 224.72,-839.45 218.72,-839.45 212.72,-833.45 212.72,-827.45 212.72,-827.45 212.72,-798.45 212.72,-798.45 212.72,-792.45 218.72,-786.45 224.72,-786.45 224.72,-786.45 391.47,-786.45 391.47,-786.45 397.47,-786.45 403.47,-792.45 403.47,-798.45 403.47,-798.45 403.47,-827.45 403.47,-827.45 403.47,-833.45 397.47,-839.45 391.47,-839.45"/>
<text xml:space="preserve" text-anchor="middle" x="308.1" y="-822.15" font-family="Helvetica,sans-Serif" font-size="14.00">Generate Recommendations</text>
<text xml:space="preserve" text-anchor="middle" x="308.1" y="-807.15" font-family="Helvetica,sans-Serif" font-size="14.00">(agent)</text>
<text xml:space="preserve" text-anchor="middle" x="308.1" y="-792.15" font-family="Helvetica,sans-Serif" font-size="14.00">role: analyst</text>
</g>
<!-- handle_approval&#45;&gt;end_with_recommendations -->
<g id="edge30" class="edge">
<title>handle_approval&#45;&gt;end_with_recommendations</title>
<path fill="none" stroke="black" stroke-dasharray="5,2" d="M297.54,-972.28C299.85,-937.58 303.31,-885.79 305.63,-850.98"/>
<polygon fill="black" stroke="black" points="309.09,-851.6 306.27,-841.39 302.11,-851.13 309.09,-851.6"/>
<text xml:space="preserve" text-anchor="middle" x="344.72" y="-901.83" font-family="Helvetica,sans-Serif" font-size="10.00">Request more data</text>
</g>
<!-- handle_approval&#45;&gt;prepare_deployment -->
<g id="edge29" class="edge">
<title>handle_approval&#45;&gt;prepare_deployment</title>
<path fill="none" stroke="black" stroke-dasharray="5,2" d="M336.8,-980.87C355.64,-966.2 376.64,-946.71 390.1,-924.7 421.32,-873.65 429.12,-802.72 430.86,-761.3"/>
<polygon fill="black" stroke="black" points="434.35,-761.56 431.17,-751.45 427.36,-761.34 434.35,-761.56"/>
<text xml:space="preserve" text-anchor="middle" x="435.3" y="-859.2" font-family="Helvetica,sans-Serif" font-size="10.00">Proceed</text>
</g>
<!-- abort_pipeline&#45;&gt;end_with_recommendations -->
<g id="edge32" class="edge">
<title>abort_pipeline&#45;&gt;end_with_recommendations</title>
<path fill="none" stroke="black" d="M244.28,-886.34C253.95,-875.38 266.52,-861.11 277.96,-848.14"/>
<polygon fill="black" stroke="black" points="280.27,-850.81 284.26,-840.99 275.02,-846.18 280.27,-850.81"/>
</g>
<!-- end_with_recommendations&#45;&gt;prepare_deployment -->
<g id="edge33" class="edge">
<title>end_with_recommendations&#45;&gt;prepare_deployment</title>
<path fill="none" stroke="black" d="M345.67,-786.14C359.58,-776.59 375.42,-765.7 389.65,-755.92"/>
<polygon fill="black" stroke="black" points="391.23,-759.09 397.49,-750.54 387.27,-753.32 391.23,-759.09"/>
</g>
<!-- save_model -->
<g id="node24" class="node">
<title>save_model</title>
<polygon fill="#e8f5e9" stroke="black" points="373.21,-656.2 177.36,-656.2 126.98,-490.2 322.83,-490.2 373.21,-656.2"/>
<text xml:space="preserve" text-anchor="middle" x="250.1" y="-597.4" font-family="Helvetica,sans-Serif" font-size="14.00">Save Best Model</text>
<text xml:space="preserve" text-anchor="middle" x="250.1" y="-582.4" font-family="Helvetica,sans-Serif" font-size="14.00">(compute)</text>
<text xml:space="preserve" text-anchor="middle" x="250.1" y="-567.4" font-family="Helvetica,sans-Serif" font-size="14.00">exec: in&#45;process</text>
<text xml:space="preserve" text-anchor="middle" x="250.1" y="-552.4" font-family="Helvetica,sans-Serif" font-size="14.00">blocked: [llm]</text>
<text xml:space="preserve" text-anchor="middle" x="250.1" y="-537.4" font-family="Helvetica,sans-Serif" font-size="14.00">timeout: 120s</text>
</g>
<!-- prepare_deployment&#45;&gt;save_model -->
<g id="edge34" class="edge">
<title>prepare_deployment&#45;&gt;save_model</title>
<path fill="none" stroke="black" d="M401.14,-703.14C393.7,-697.46 385.8,-691.31 378.6,-685.45 370.09,-678.55 361.35,-671.3 352.63,-663.96"/>
<polygon fill="black" stroke="black" points="354.97,-661.36 345.07,-657.58 350.45,-666.71 354.97,-661.36"/>
<text xml:space="preserve" text-anchor="middle" x="386.85" y="-675.95" font-family="Helvetica,sans-Serif" font-size="10.00">fork</text>
</g>
<!-- generate_docs -->
<g id="node25" class="node">
<title>generate_docs</title>
<path fill="#e3f2fd" stroke="black" d="M404.85,-442.95C404.85,-442.95 219.35,-442.95 219.35,-442.95 213.35,-442.95 207.35,-436.95 207.35,-430.95 207.35,-430.95 207.35,-401.95 207.35,-401.95 207.35,-395.95 213.35,-389.95 219.35,-389.95 219.35,-389.95 404.85,-389.95 404.85,-389.95 410.85,-389.95 416.85,-395.95 416.85,-401.95 416.85,-401.95 416.85,-430.95 416.85,-430.95 416.85,-436.95 410.85,-442.95 404.85,-442.95"/>
<text xml:space="preserve" text-anchor="middle" x="312.1" y="-425.65" font-family="Helvetica,sans-Serif" font-size="14.00">Generate Model Documentation</text>
<text xml:space="preserve" text-anchor="middle" x="312.1" y="-410.65" font-family="Helvetica,sans-Serif" font-size="14.00">(agent)</text>
<text xml:space="preserve" text-anchor="middle" x="312.1" y="-395.65" font-family="Helvetica,sans-Serif" font-size="14.00">role: writer</text>
</g>
<!-- prepare_deployment&#45;&gt;generate_docs -->
<g id="edge35" class="edge">
<title>prepare_deployment&#45;&gt;generate_docs</title>
<path fill="none" stroke="black" d="M428.05,-703.06C420.81,-651.78 401.72,-527.37 382.1,-490.2 374.52,-475.86 363.28,-462.38 352.01,-451.01"/>
<polygon fill="black" stroke="black" points="354.56,-448.61 344.93,-444.18 349.69,-453.65 354.56,-448.61"/>
<text xml:space="preserve" text-anchor="middle" x="428.75" y="-569.33" font-family="Helvetica,sans-Serif" font-size="10.00">fork</text>
</g>
<!-- create_api_spec -->
<g id="node26" class="node">
<title>create_api_spec</title>
<polygon fill="#e8f5e9" stroke="black" points="480.31,-352.95 212.72,-352.95 143.88,-186.95 411.47,-186.95 480.31,-352.95"/>
<text xml:space="preserve" text-anchor="middle" x="312.1" y="-294.15" font-family="Helvetica,sans-Serif" font-size="14.00">Create API Specification</text>
<text xml:space="preserve" text-anchor="middle" x="312.1" y="-279.15" font-family="Helvetica,sans-Serif" font-size="14.00">(compute)</text>
<text xml:space="preserve" text-anchor="middle" x="312.1" y="-264.15" font-family="Helvetica,sans-Serif" font-size="14.00">exec: in&#45;process</text>
<text xml:space="preserve" text-anchor="middle" x="312.1" y="-249.15" font-family="Helvetica,sans-Serif" font-size="14.00">blocked: [llm]</text>
<text xml:space="preserve" text-anchor="middle" x="312.1" y="-234.15" font-family="Helvetica,sans-Serif" font-size="14.00">timeout: 60s</text>
</g>
<!-- prepare_deployment&#45;&gt;create_api_spec -->
<g id="edge36" class="edge">
<title>prepare_deployment&#45;&gt;create_api_spec</title>
<path fill="none" stroke="black" d="M436.88,-703.2C450.19,-647.18 478.06,-497.15 426.1,-389.95 421.51,-380.5 415.89,-371.3 409.64,-362.49"/>
<polygon fill="black" stroke="black" points="412.59,-360.59 403.8,-354.66 406.97,-364.77 412.59,-360.59"/>
<text xml:space="preserve" text-anchor="middle" x="459.03" y="-462.7" font-family="Helvetica,sans-Serif" font-size="10.00">fork</text>
</g>
<!-- final_review -->
<g id="node27" class="node">
<title>final_review</title>
<ellipse fill="#ffebee" stroke="black" cx="410.1" cy="-112.48" rx="120.03" ry="37.48"/>
<text xml:space="preserve" text-anchor="middle" x="410.1" y="-121.68" font-family="Helvetica,sans-Serif" font-size="14.00">Final Deployment Review</text>
<text xml:space="preserve" text-anchor="middle" x="410.1" y="-106.68" font-family="Helvetica,sans-Serif" font-size="14.00">(hitl)</text>
<text xml:space="preserve" text-anchor="middle" x="410.1" y="-91.68" font-family="Helvetica,sans-Serif" font-size="14.00">timeout: 600s</text>
</g>
<!-- prepare_deployment&#45;&gt;final_review -->
<g id="edge37" class="edge">
<title>prepare_deployment&#45;&gt;final_review</title>
<path fill="none" stroke="black" d="M450.92,-703.17C473.74,-675.15 508.1,-624.59 508.1,-574.2 508.1,-574.2 508.1,-574.2 508.1,-268.95 508.1,-231.54 507.83,-219.33 489.1,-186.95 482.43,-175.43 473.37,-164.64 463.76,-155.06"/>
<polygon fill="black" stroke="black" points="466.36,-152.71 456.7,-148.36 461.54,-157.78 466.36,-152.71"/>
<text xml:space="preserve" text-anchor="middle" x="515.6" y="-412.58" font-family="Helvetica,sans-Serif" font-size="10.00">join</text>
</g>
<!-- save_model&#45;&gt;generate_docs -->
<g id="edge38" class="edge">
<title>save_model&#45;&gt;generate_docs</title>
<path fill="none" stroke="black" d="M283.09,-489.84C288.17,-477.18 293.17,-464.69 297.56,-453.74"/>
<polygon fill="black" stroke="black" points="300.68,-455.35 301.15,-444.77 294.18,-452.75 300.68,-455.35"/>
</g>
<!-- generate_docs&#45;&gt;create_api_spec -->
<g id="edge39" class="edge">
<title>generate_docs&#45;&gt;create_api_spec</title>
<path fill="none" stroke="black" d="M312.1,-389.62C312.1,-382.17 312.1,-373.59 312.1,-364.51"/>
<polygon fill="black" stroke="black" points="315.6,-364.75 312.1,-354.75 308.6,-364.75 315.6,-364.75"/>
</g>
<!-- create_api_spec&#45;&gt;final_review -->
<g id="edge40" class="edge">
<title>create_api_spec&#45;&gt;final_review</title>
<path fill="none" stroke="black" d="M363.96,-186.66C369.9,-177.24 375.78,-167.91 381.26,-159.23"/>
<polygon fill="black" stroke="black" points="384.07,-161.33 386.44,-151 378.15,-157.6 384.07,-161.33"/>
</g>
<!-- complete -->
<g id="node28" class="node">
<title>complete</title>
<polygon fill="#eceff1" stroke="black" points="473.22,-38 346.97,-38 346.97,0 473.22,0 473.22,-38"/>
<text xml:space="preserve" text-anchor="middle" x="410.1" y="-20.7" font-family="Helvetica,sans-Serif" font-size="14.00">Pipeline Complete</text>
<text xml:space="preserve" text-anchor="middle" x="410.1" y="-5.7" font-family="Helvetica,sans-Serif" font-size="14.00">(transform)</text>
</g>
<!-- final_review&#45;&gt;complete -->
<g id="edge41" class="edge">
<title>final_review&#45;&gt;complete</title>
<path fill="none" stroke="black" d="M410.1,-74.53C410.1,-66.24 410.1,-57.54 410.1,-49.58"/>
<polygon fill="black" stroke="black" points="413.6,-49.75 410.1,-39.75 406.6,-49.75 413.6,-49.75"/>
</g>
</g>
</svg>
