<?xml version="1.0" encoding="UTF-8" standalone="no"?>
<!DOCTYPE svg PUBLIC "-//W3C//DTD SVG 1.1//EN"
 "http://www.w3.org/Graphics/SVG/1.1/DTD/svg11.dtd">
<!-- Generated by graphviz version 14.0.4 (20251115.1723)
 -->
<!-- Title: workflow Pages: 1 -->
<svg width="588pt" height="1468pt"
 viewBox="0.00 0.00 588.00 1468.00" xmlns="http://www.w3.org/2000/svg" xmlns:xlink="http://www.w3.org/1999/xlink">
<g id="graph0" class="graph" transform="scale(1 1) rotate(0) translate(4 1464.2)">
<title>workflow</title>
<polygon fill="white" stroke="none" points="-4,4 -4,-1464.2 584.1,-1464.2 584.1,4 -4,4"/>
<text xml:space="preserve" text-anchor="middle" x="290.05" y="-1442.9" font-family="Times,serif" font-size="14.00">data_cleaning</text>
<!-- init -->
<g id="node1" class="node">
<title>init</title>
<polygon fill="#eceff1" stroke="black" points="437,-1435.7 337,-1435.7 337,-1397.7 437,-1397.7 437,-1435.7"/>
<text xml:space="preserve" text-anchor="middle" x="387" y="-1418.4" font-family="Helvetica,sans-Serif" font-size="14.00">Initialize State</text>
<text xml:space="preserve" text-anchor="middle" x="387" y="-1403.4" font-family="Helvetica,sans-Serif" font-size="14.00">(transform)</text>
</g>
<!-- assess_quality -->
<g id="node2" class="node">
<title>assess_quality</title>
<polygon fill="#e8f5e9" stroke="black" points="580.1,-1360.7 272.92,-1360.7 193.9,-1164.7 501.08,-1164.7 580.1,-1360.7"/>
<text xml:space="preserve" text-anchor="middle" x="387" y="-1294.4" font-family="Helvetica,sans-Serif" font-size="14.00">Assess Data Quality</text>
<text xml:space="preserve" text-anchor="middle" x="387" y="-1279.4" font-family="Helvetica,sans-Serif" font-size="14.00">(compute)</text>
<text xml:space="preserve" text-anchor="middle" x="387" y="-1264.4" font-family="Helvetica,sans-Serif" font-size="14.00">exec: in&#45;process</text>
<text xml:space="preserve" text-anchor="middle" x="387" y="-1249.4" font-family="Helvetica,sans-Serif" font-size="14.00">handler: quality_assessor</text>
<text xml:space="preserve" text-anchor="middle" x="387" y="-1234.4" font-family="Helvetica,sans-Serif" font-size="14.00">blocked: [llm, network, write]</text>
<text xml:space="preserve" text-anchor="middle" x="387" y="-1219.4" font-family="Helvetica,sans-Serif" font-size="14.00">timeout: 120s</text>
</g>
<!-- init&#45;&gt;assess_quality -->
<g id="edge1" class="edge">
<title>init&#45;&gt;assess_quality</title>
<path fill="none" stroke="black" d="M387,-1397.37C387,-1390.39 387,-1381.83 387,-1372.46"/>
<polygon fill="black" stroke="black" points="390.5,-1372.63 387,-1362.63 383.5,-1372.63 390.5,-1372.63"/>
</g>
<!-- check_quality -->
<g id="node3" class="node">
<title>check_quality</title>
<polygon fill="#fff3e0" stroke="black" points="277,-1127.7 112.5,-1089.7 277,-1051.7 441.5,-1089.7 277,-1127.7"/>
<text xml:space="preserve" text-anchor="middle" x="277" y="-1091.4" font-family="Helvetica,sans-Serif" font-size="14.00">Check Quality Threshold</text>
<text xml:space="preserve" text-anchor="middle" x="277" y="-1076.4" font-family="Helvetica,sans-Serif" font-size="14.00">(condition)</text>
</g>
<!-- assess_quality&#45;&gt;check_quality -->
<g id="edge2" class="edge">
<title>assess_quality&#45;&gt;check_quality</title>
<path fill="none" stroke="black" d="M324.29,-1164.22C317.27,-1153.3 310.42,-1142.66 304.21,-1133.01"/>
<polygon fill="black" stroke="black" points="307.17,-1131.13 298.82,-1124.62 301.28,-1134.92 307.17,-1131.13"/>
</g>
<!-- plan_cleaning -->
<g id="node4" class="node">
<title>plan_cleaning</title>
<path fill="#e3f2fd" stroke="black" d="M342,-1004.45C342,-1004.45 212,-1004.45 212,-1004.45 206,-1004.45 200,-998.45 200,-992.45 200,-992.45 200,-963.45 200,-963.45 200,-957.45 206,-951.45 212,-951.45 212,-951.45 342,-951.45 342,-951.45 348,-951.45 354,-957.45 354,-963.45 354,-963.45 354,-992.45 354,-992.45 354,-998.45 348,-1004.45 342,-1004.45"/>
<text xml:space="preserve" text-anchor="middle" x="277" y="-987.15" font-family="Helvetica,sans-Serif" font-size="14.00">Plan Cleaning Strategy</text>
<text xml:space="preserve" text-anchor="middle" x="277" y="-972.15" font-family="Helvetica,sans-Serif" font-size="14.00">(agent)</text>
<text xml:space="preserve" text-anchor="middle" x="277" y="-957.15" font-family="Helvetica,sans-Serif" font-size="14.00">role: planner</text>
</g>
<!-- check_quality&#45;&gt;plan_cleaning -->
<g id="edge4" class="edge">
<title>check_quality&#45;&gt;plan_cleaning</title>
<path fill="none" stroke="black" stroke-dasharray="5,2" d="M225.18,-1063.33C209.82,-1052.16 199.14,-1038.03 207.75,-1022.45 209.66,-1018.99 211.98,-1015.77 214.59,-1012.78"/>
<polygon fill="black" stroke="black" points="216.83,-1015.48 221.54,-1005.99 211.94,-1010.47 216.83,-1015.48"/>
<text xml:space="preserve" text-anchor="middle" x="231.38" y="-1024.2" font-family="Helvetica,sans-Serif" font-size="10.00">acceptable</text>
</g>
<!-- check_quality&#45;&gt;plan_cleaning -->
<g id="edge5" class="edge">
<title>check_quality&#45;&gt;plan_cleaning</title>
<path fill="none" stroke="black" stroke-dasharray="5,2" d="M277,-1051.24C277,-1039.9 277,-1027.46 277,-1016.14"/>
<polygon fill="black" stroke="black" points="280.5,-1016.36 277,-1006.36 273.5,-1016.36 280.5,-1016.36"/>
<text xml:space="preserve" text-anchor="middle" x="309.62" y="-1024.2" font-family="Helvetica,sans-Serif" font-size="10.00">needs_cleanup</text>
</g>
<!-- check_quality&#45;&gt;plan_cleaning -->
<g id="edge6" class="edge">
<title>check_quality&#45;&gt;plan_cleaning</title>
<path fill="none" stroke="black" stroke-dasharray="5,2" d="M326.83,-1062.73C341.25,-1051.57 351.16,-1037.6 343,-1022.45 341.12,-1018.96 338.83,-1015.71 336.23,-1012.68"/>
<polygon fill="black" stroke="black" points="338.87,-1010.36 329.31,-1005.8 333.93,-1015.33 338.87,-1010.36"/>
<text xml:space="preserve" text-anchor="middle" x="360.57" y="-1024.2" font-family="Helvetica,sans-Serif" font-size="10.00">default</text>
</g>
<!-- document_changes -->
<g id="node10" class="node">
<title>document_changes</title>
<path fill="#e3f2fd" stroke="black" d="M124,-128C124,-128 12,-128 12,-128 6,-128 0,-122 0,-116 0,-116 0,-87 0,-87 0,-81 6,-75 12,-75 12,-75 124,-75 124,-75 130,-75 136,-81 136,-87 136,-87 136,-116 136,-116 136,-122 130,-128 124,-128"/>
<text xml:space="preserve" text-anchor="middle" x="68" y="-110.7" font-family="Helvetica,sans-Serif" font-size="14.00">Document Changes</text>
<text xml:space="preserve" text-anchor="middle" x="68" y="-95.7" font-family="Helvetica,sans-Serif" font-size="14.00">(agent)</text>
<text xml:space="preserve" text-anchor="middle" x="68" y="-80.7" font-family="Helvetica,sans-Serif" font-size="14.00">role: writer</text>
</g>
<!-- check_quality&#45;&gt;document_changes -->
<g id="edge3" class="edge">
<title>check_quality&#45;&gt;document_changes</title>
<path fill="none" stroke="black" stroke-dasharray="5,2" d="M170.38,-1075.9C113.87,-1062.5 56,-1035.07 56,-978.95 56,-978.95 56,-978.95 56,-201.48 56,-180.93 58.58,-158.16 61.35,-139.65"/>
<polygon fill="black" stroke="black" points="64.78,-140.36 62.88,-129.94 57.86,-139.27 64.78,-140.36"/>
<text xml:space="preserve" text-anchor="middle" x="81.88" y="-457.95" font-family="Helvetica,sans-Serif" font-size="10.00">high_quality</text>
</g>
<!-- execute_cleaning -->
<g id="node5" class="node">
<title>execute_cleaning</title>
<polygon fill="#e8f5e9" stroke="black" points="432.77,-914.45 184.97,-914.45 121.23,-718.45 369.03,-718.45 432.77,-914.45"/>
<text xml:space="preserve" text-anchor="middle" x="277" y="-848.15" font-family="Helvetica,sans-Serif" font-size="14.00">Execute Cleaning</text>
<text xml:space="preserve" text-anchor="middle" x="277" y="-833.15" font-family="Helvetica,sans-Serif" font-size="14.00">(compute)</text>
<text xml:space="preserve" text-anchor="middle" x="277" y="-818.15" font-family="Helvetica,sans-Serif" font-size="14.00">exec: in&#45;process</text>
<text xml:space="preserve" text-anchor="middle" x="277" y="-803.15" font-family="Helvetica,sans-Serif" font-size="14.00">handler: data_cleaner</text>
<text xml:space="preserve" text-anchor="middle" x="277" y="-788.15" font-family="Helvetica,sans-Serif" font-size="14.00">blocked: [llm, network]</text>
<text xml:space="preserve" text-anchor="middle" x="277" y="-773.15" font-family="Helvetica,sans-Serif" font-size="14.00">timeout: 300s</text>
</g>
<!-- plan_cleaning&#45;&gt;execute_cleaning -->
<g id="edge7" class="edge">
<title>plan_cleaning&#45;&gt;execute_cleaning</title>
<path fill="none" stroke="black" d="M277,-950.97C277,-943.63 277,-935.15 277,-926.09"/>
<polygon fill="black" stroke="black" points="280.5,-926.31 277,-916.31 273.5,-926.31 280.5,-926.31"/>
</g>
<!-- validate_cleaning -->
<g id="node6" class="node">
<title>validate_cleaning</title>
<polygon fill="#e8f5e9" stroke="black" points="470.1,-681.45 162.92,-681.45 83.9,-485.45 391.08,-485.45 470.1,-681.45"/>
<text xml:space="preserve" text-anchor="middle" x="277" y="-615.15" font-family="Helvetica,sans-Serif" font-size="14.00">Validate Cleaned Data</text>
<text xml:space="preserve" text-anchor="middle" x="277" y="-600.15" font-family="Helvetica,sans-Serif" font-size="14.00">(compute)</text>
<text xml:space="preserve" text-anchor="middle" x="277" y="-585.15" font-family="Helvetica,sans-Serif" font-size="14.00">exec: in&#45;process</text>
<text xml:space="preserve" text-anchor="middle" x="277" y="-570.15" font-family="Helvetica,sans-Serif" font-size="14.00">handler: data_validator</text>
<text xml:space="preserve" text-anchor="middle" x="277" y="-555.15" font-family="Helvetica,sans-Serif" font-size="14.00">blocked: [llm, network, write]</text>
<text xml:space="preserve" text-anchor="middle" x="277" y="-540.15" font-family="Helvetica,sans-Serif" font-size="14.00">timeout: 120s</text>
</g>
<!-- execute_cleaning&#45;&gt;validate_cleaning -->
<g id="edge8" class="edge">
<title>execute_cleaning&#45;&gt;validate_cleaning</title>
<path fill="none" stroke="black" d="M277,-718.16C277,-709.85 277,-701.41 277,-693.03"/>
<polygon fill="black" stroke="black" points="280.5,-693.15 277,-683.15 273.5,-693.15 280.5,-693.15"/>
</g>
<!-- update_iteration -->
<g id="node7" class="node">
<title>update_iteration</title>
<polygon fill="#eceff1" stroke="black" points="352.88,-438.2 201.12,-438.2 201.12,-400.2 352.88,-400.2 352.88,-438.2"/>
<text xml:space="preserve" text-anchor="middle" x="277" y="-420.9" font-family="Helvetica,sans-Serif" font-size="14.00">Update Iteration Count</text>
<text xml:space="preserve" text-anchor="middle" x="277" y="-405.9" font-family="Helvetica,sans-Serif" font-size="14.00">(transform)</text>
</g>
<!-- validate_cleaning&#45;&gt;update_iteration -->
<g id="edge9" class="edge">
<title>validate_cleaning&#45;&gt;update_iteration</title>
<path fill="none" stroke="black" d="M277,-485.26C277,-472.46 277,-460.21 277,-449.86"/>
<polygon fill="black" stroke="black" points="280.5,-450.18 277,-440.18 273.5,-450.18 280.5,-450.18"/>
</g>
<!-- retry_check -->
<g id="node8" class="node">
<title>retry_check</title>
<polygon fill="#fff3e0" stroke="black" points="277,-363.2 126,-325.2 277,-287.2 428,-325.2 277,-363.2"/>
<text xml:space="preserve" text-anchor="middle" x="277" y="-326.9" font-family="Helvetica,sans-Serif" font-size="14.00">Check Retry Condition</text>
<text xml:space="preserve" text-anchor="middle" x="277" y="-311.9" font-family="Helvetica,sans-Serif" font-size="14.00">(condition)</text>
</g>
<!-- update_iteration&#45;&gt;retry_check -->
<g id="edge10" class="edge">
<title>update_iteration&#45;&gt;retry_check</title>
<path fill="none" stroke="black" d="M277,-400.03C277,-392.66 277,-383.78 277,-374.76"/>
<polygon fill="black" stroke="black" points="280.5,-374.88 277,-364.88 273.5,-374.88 280.5,-374.88"/>
</g>
<!-- retry_check&#45;&gt;assess_quality -->
<g id="edge11" class="edge">
<title>retry_check&#45;&gt;assess_quality</title>
<path fill="none" stroke="black" stroke-dasharray="5,2" d="M395.59,-333.82C448.01,-344.32 498,-367.6 498,-418.2 498,-1090.7 498,-1090.7 498,-1090.7 498,-1112.96 491.3,-1134.6 481.2,-1154.58"/>
<polygon fill="black" stroke="black" points="478.2,-1152.77 476.52,-1163.23 484.36,-1156.1 478.2,-1152.77"/>
<text xml:space="preserve" text-anchor="middle" x="507.75" y="-812.58" font-family="Helvetica,sans-Serif" font-size="10.00">retry</text>
</g>
<!-- human_review -->
<g id="node9" class="node">
<title>human_review</title>
<ellipse fill="#ffebee" stroke="black" cx="233" cy="-202.48" rx="117.38" ry="37.48"/>
<text xml:space="preserve" text-anchor="middle" x="233" y="-211.68" font-family="Helvetica,sans-Serif" font-size="14.00">Review Cleaning Results</text>
<text xml:space="preserve" text-anchor="middle" x="233" y="-196.68" font-family="Helvetica,sans-Serif" font-size="14.00">(hitl)</text>
<text xml:space="preserve" text-anchor="middle" x="233" y="-181.68" font-family="Helvetica,sans-Serif" font-size="14.00">timeout: 900s</text>
</g>
<!-- retry_check&#45;&gt;human_review -->
<g id="edge12" class="edge">
<title>retry_check&#45;&gt;human_review</title>
<path fill="none" stroke="black" stroke-dasharray="5,2" d="M247.89,-294.05C242.24,-286.49 237.11,-278 234,-269.2 232.06,-263.69 230.85,-257.76 230.16,-251.79"/>
<polygon fill="black" stroke="black" points="233.66,-251.64 229.52,-241.89 226.67,-252.09 233.66,-251.64"/>
<text xml:space="preserve" text-anchor="middle" x="244.5" y="-259.7" font-family="Helvetica,sans-Serif" font-size="10.00">done</text>
</g>
<!-- retry_check&#45;&gt;human_review -->
<g id="edge13" class="edge">
<title>retry_check&#45;&gt;human_review</title>
<path fill="none" stroke="black" stroke-dasharray="5,2" d="M265.99,-289.67C262.6,-279.42 258.76,-268.19 255,-257.95 254.09,-255.49 253.15,-252.97 252.18,-250.43"/>
<polygon fill="black" stroke="black" points="255.55,-249.44 248.66,-241.39 249.03,-251.98 255.55,-249.44"/>
<text xml:space="preserve" text-anchor="middle" x="273.48" y="-259.7" font-family="Helvetica,sans-Serif" font-size="10.00">default</text>
</g>
<!-- human_review&#45;&gt;document_changes -->
<g id="edge14" class="edge">
<title>human_review&#45;&gt;document_changes</title>
<path fill="none" stroke="black" d="M178.97,-169.07C160.33,-157.89 139.48,-145.38 120.92,-134.25"/>
<polygon fill="black" stroke="black" points="122.84,-131.32 112.47,-129.17 119.24,-137.32 122.84,-131.32"/>
</g>
<!-- complete -->
<g id="node11" class="node">
<title>complete</title>
<polygon fill="#eceff1" stroke="black" points="122.5,-38 13.5,-38 13.5,0 122.5,0 122.5,-38"/>
<text xml:space="preserve" text-anchor="middle" x="68" y="-20.7" font-family="Helvetica,sans-Serif" font-size="14.00">Mark Complete</text>
<text xml:space="preserve" text-anchor="middle" x="68" y="-5.7" font-family="Helvetica,sans-Serif" font-size="14.00">(transform)</text>
</g>
<!-- document_changes&#45;&gt;complete -->
<g id="edge15" class="edge">
<title>document_changes&#45;&gt;complete</title>
<path fill="none" stroke="black" d="M68,-74.59C68,-66.68 68,-57.93 68,-49.79"/>
<polygon fill="black" stroke="black" points="71.5,-49.98 68,-39.98 64.5,-49.98 71.5,-49.98"/>
</g>
</g>
</svg>
