<?xml version="1.0" encoding="UTF-8" standalone="no"?>
<!DOCTYPE svg PUBLIC "-//W3C//DTD SVG 1.1//EN"
 "http://www.w3.org/Graphics/SVG/1.1/DTD/svg11.dtd">
<!-- Generated by graphviz version 14.0.4 (20251115.1723)
 -->
<!-- Title: workflow Pages: 1 -->
<svg width="281pt" height="407pt"
 viewBox="0.00 0.00 281.00 407.00" xmlns="http://www.w3.org/2000/svg" xmlns:xlink="http://www.w3.org/1999/xlink">
<g id="graph0" class="graph" transform="scale(1 1) rotate(0) translate(4 402.5)">
<title>workflow</title>
<polygon fill="white" stroke="none" points="-4,4 -4,-402.5 276.67,-402.5 276.67,4 -4,4"/>
<text xml:space="preserve" text-anchor="middle" x="136.33" y="-381.2" font-family="Times,serif" font-size="14.00">rl_training</text>
<!-- setup -->
<g id="node1" class="node">
<title>setup</title>
<path fill="#e3f2fd" stroke="black" d="M212.21,-374C212.21,-374 60.46,-374 60.46,-374 54.46,-374 48.46,-368 48.46,-362 48.46,-362 48.46,-333 48.46,-333 48.46,-327 54.46,-321 60.46,-321 60.46,-321 212.21,-321 212.21,-321 218.21,-321 224.21,-327 224.21,-333 224.21,-333 224.21,-362 224.21,-362 224.21,-368 218.21,-374 212.21,-374"/>
<text xml:space="preserve" text-anchor="middle" x="136.33" y="-356.7" font-family="Helvetica,sans-Serif" font-size="14.00">Configure RL Environment</text>
<text xml:space="preserve" text-anchor="middle" x="136.33" y="-341.7" font-family="Helvetica,sans-Serif" font-size="14.00">(agent)</text>
<text xml:space="preserve" text-anchor="middle" x="136.33" y="-326.7" font-family="Helvetica,sans-Serif" font-size="14.00">role: researcher</text>
</g>
<!-- train -->
<g id="node2" class="node">
<title>train</title>
<polygon fill="#e8f5e9" stroke="black" points="272.67,-285 55.79,-285 0,-89 216.88,-89 272.67,-285"/>
<text xml:space="preserve" text-anchor="middle" x="136.33" y="-218.7" font-family="Helvetica,sans-Serif" font-size="14.00">Train RL Agent</text>
<text xml:space="preserve" text-anchor="middle" x="136.33" y="-203.7" font-family="Helvetica,sans-Serif" font-size="14.00">(compute)</text>
<text xml:space="preserve" text-anchor="middle" x="136.33" y="-188.7" font-family="Helvetica,sans-Serif" font-size="14.00">exec: in&#45;process</text>
<text xml:space="preserve" text-anchor="middle" x="136.33" y="-173.7" font-family="Helvetica,sans-Serif" font-size="14.00">handler: rl_training</text>
<text xml:space="preserve" text-anchor="middle" x="136.33" y="-158.7" font-family="Helvetica,sans-Serif" font-size="14.00">blocked: [llm, write]</text>
<text xml:space="preserve" text-anchor="middle" x="136.33" y="-143.7" font-family="Helvetica,sans-Serif" font-size="14.00">timeout: 3600s</text>
</g>
<!-- setup&#45;&gt;train -->
<g id="edge1" class="edge">
<title>setup&#45;&gt;train</title>
<path fill="none" stroke="black" d="M136.33,-320.68C136.33,-313.59 136.33,-305.43 136.33,-296.71"/>
<polygon fill="black" stroke="black" points="139.83,-296.93 136.33,-286.93 132.83,-296.93 139.83,-296.93"/>
</g>
<!-- evaluate -->
<g id="node3" class="node">
<title>evaluate</title>
<path fill="#e3f2fd" stroke="black" d="M178.08,-53C178.08,-53 94.58,-53 94.58,-53 88.58,-53 82.58,-47 82.58,-41 82.58,-41 82.58,-12 82.58,-12 82.58,-6 88.58,0 94.58,0 94.58,0 178.08,0 178.08,0 184.08,0 190.08,-6 190.08,-12 190.08,-12 190.08,-41 190.08,-41 190.08,-47 184.08,-53 178.08,-53"/>
<text xml:space="preserve" text-anchor="middle" x="136.33" y="-35.7" font-family="Helvetica,sans-Serif" font-size="14.00">Evaluate Agent</text>
<text xml:space="preserve" text-anchor="middle" x="136.33" y="-20.7" font-family="Helvetica,sans-Serif" font-size="14.00">(agent)</text>
<text xml:space="preserve" text-anchor="middle" x="136.33" y="-5.7" font-family="Helvetica,sans-Serif" font-size="14.00">role: analyst</text>
</g>
<!-- train&#45;&gt;evaluate -->
<g id="edge2" class="edge">
<title>train&#45;&gt;evaluate</title>
<path fill="none" stroke="black" d="M136.33,-88.78C136.33,-80.39 136.33,-72.28 136.33,-64.86"/>
<polygon fill="black" stroke="black" points="139.83,-64.97 136.33,-54.97 132.83,-64.97 139.83,-64.97"/>
</g>
</g>
</svg>
