<?xml version="1.0" encoding="UTF-8" standalone="no"?>
<!DOCTYPE svg PUBLIC "-//W3C//DTD SVG 1.1//EN"
 "http://www.w3.org/Graphics/SVG/1.1/DTD/svg11.dtd">
<!-- Generated by graphviz version 14.0.4 (20251115.1723)
 -->
<!-- Title: workflow Pages: 1 -->
<svg width="593pt" height="1948pt"
 viewBox="0.00 0.00 593.00 1948.00" xmlns="http://www.w3.org/2000/svg" xmlns:xlink="http://www.w3.org/1999/xlink">
<g id="graph0" class="graph" transform="scale(1 1) rotate(0) translate(4 1944.11)">
<title>workflow</title>
<polygon fill="white" stroke="none" points="-4,4 -4,-1944.11 589.21,-1944.11 589.21,4 -4,4"/>
<text xml:space="preserve" text-anchor="middle" x="292.6" y="-1922.81" font-family="Times,serif" font-size="14.00">container_setup</text>
<!-- analyze_requirements -->
<g id="node1" class="node">
<title>analyze_requirements</title>
<path fill="#e3f2fd" stroke="black" d="M521.7,-1915.61C521.7,-1915.61 330.95,-1915.61 330.95,-1915.61 324.95,-1915.61 318.95,-1909.61 318.95,-1903.61 318.95,-1903.61 318.95,-1874.61 318.95,-1874.61 318.95,-1868.61 324.95,-1862.61 330.95,-1862.61 330.95,-1862.61 521.7,-1862.61 521.7,-1862.61 527.7,-1862.61 533.7,-1868.61 533.7,-1874.61 533.7,-1874.61 533.7,-1903.61 533.7,-1903.61 533.7,-1909.61 527.7,-1915.61 521.7,-1915.61"/>
<text xml:space="preserve" text-anchor="middle" x="426.32" y="-1898.31" font-family="Helvetica,sans-Serif" font-size="14.00">Analyze Container Requirements</text>
<text xml:space="preserve" text-anchor="middle" x="426.32" y="-1883.31" font-family="Helvetica,sans-Serif" font-size="14.00">(agent)</text>
<text xml:space="preserve" text-anchor="middle" x="426.32" y="-1868.31" font-family="Helvetica,sans-Serif" font-size="14.00">role: analyst</text>
</g>
<!-- create_dockerfile -->
<g id="node2" class="node">
<title>create_dockerfile</title>
<path fill="#e3f2fd" stroke="black" d="M474.45,-1825.61C474.45,-1825.61 378.2,-1825.61 378.2,-1825.61 372.2,-1825.61 366.2,-1819.61 366.2,-1813.61 366.2,-1813.61 366.2,-1784.61 366.2,-1784.61 366.2,-1778.61 372.2,-1772.61 378.2,-1772.61 378.2,-1772.61 474.45,-1772.61 474.45,-1772.61 480.45,-1772.61 486.45,-1778.61 486.45,-1784.61 486.45,-1784.61 486.45,-1813.61 486.45,-1813.61 486.45,-1819.61 480.45,-1825.61 474.45,-1825.61"/>
<text xml:space="preserve" text-anchor="middle" x="426.32" y="-1808.31" font-family="Helvetica,sans-Serif" font-size="14.00">Create Dockerfile</text>
<text xml:space="preserve" text-anchor="middle" x="426.32" y="-1793.31" font-family="Helvetica,sans-Serif" font-size="14.00">(agent)</text>
<text xml:space="preserve" text-anchor="middle" x="426.32" y="-1778.31" font-family="Helvetica,sans-Serif" font-size="14.00">role: executor</text>
</g>
<!-- analyze_requirements&#45;&gt;create_dockerfile -->
<g id="edge1" class="edge">
<title>analyze_requirements&#45;&gt;create_dockerfile</title>
<path fill="none" stroke="black" d="M426.32,-1862.18C426.32,-1854.4 426.32,-1845.69 426.32,-1837.33"/>
<polygon fill="black" stroke="black" points="429.82,-1837.37 426.32,-1827.37 422.82,-1837.37 429.82,-1837.37"/>
</g>
<!-- create_compose -->
<g id="node3" class="node">
<title>create_compose</title>
<path fill="#e3f2fd" stroke="black" d="M496.95,-1735.61C496.95,-1735.61 355.7,-1735.61 355.7,-1735.61 349.7,-1735.61 343.7,-1729.61 343.7,-1723.61 343.7,-1723.61 343.7,-1694.61 343.7,-1694.61 343.7,-1688.61 349.7,-1682.61 355.7,-1682.61 355.7,-1682.61 496.95,-1682.61 496.95,-1682.61 502.95,-1682.61 508.95,-1688.61 508.95,-1694.61 508.95,-1694.61 508.95,-1723.61 508.95,-1723.61 508.95,-1729.61 502.95,-1735.61 496.95,-1735.61"/>
<text xml:space="preserve" text-anchor="middle" x="426.32" y="-1718.31" font-family="Helvetica,sans-Serif" font-size="14.00">Create Docker Compose</text>
<text xml:space="preserve" text-anchor="middle" x="426.32" y="-1703.31" font-family="Helvetica,sans-Serif" font-size="14.00">(agent)</text>
<text xml:space="preserve" text-anchor="middle" x="426.32" y="-1688.31" font-family="Helvetica,sans-Serif" font-size="14.00">role: executor</text>
</g>
<!-- create_dockerfile&#45;&gt;create_compose -->
<g id="edge2" class="edge">
<title>create_dockerfile&#45;&gt;create_compose</title>
<path fill="none" stroke="black" d="M426.32,-1772.18C426.32,-1764.4 426.32,-1755.69 426.32,-1747.33"/>
<polygon fill="black" stroke="black" points="429.82,-1747.37 426.32,-1737.37 422.82,-1747.37 429.82,-1747.37"/>
</g>
<!-- build_image -->
<g id="node4" class="node">
<title>build_image</title>
<polygon fill="#e8f5e9" stroke="black" points="585.21,-1645.61 332.46,-1645.61 267.44,-1449.61 520.19,-1449.61 585.21,-1645.61"/>
<text xml:space="preserve" text-anchor="middle" x="426.32" y="-1579.31" font-family="Helvetica,sans-Serif" font-size="14.00">Build Container Image</text>
<text xml:space="preserve" text-anchor="middle" x="426.32" y="-1564.31" font-family="Helvetica,sans-Serif" font-size="14.00">(compute)</text>
<text xml:space="preserve" text-anchor="middle" x="426.32" y="-1549.31" font-family="Helvetica,sans-Serif" font-size="14.00">exec: in&#45;process</text>
<text xml:space="preserve" text-anchor="middle" x="426.32" y="-1534.31" font-family="Helvetica,sans-Serif" font-size="14.00">handler: container_ops</text>
<text xml:space="preserve" text-anchor="middle" x="426.32" y="-1519.31" font-family="Helvetica,sans-Serif" font-size="14.00">blocked: [llm]</text>
<text xml:space="preserve" text-anchor="middle" x="426.32" y="-1504.31" font-family="Helvetica,sans-Serif" font-size="14.00">timeout: 600s</text>
</g>
<!-- create_compose&#45;&gt;build_image -->
<g id="edge3" class="edge">
<title>create_compose&#45;&gt;build_image</title>
<path fill="none" stroke="black" d="M426.32,-1682.13C426.32,-1674.79 426.32,-1666.31 426.32,-1657.25"/>
<polygon fill="black" stroke="black" points="429.82,-1657.47 426.32,-1647.47 422.82,-1657.47 429.82,-1657.47"/>
</g>
<!-- check_build -->
<g id="node5" class="node">
<title>check_build</title>
<polygon fill="#fff3e0" stroke="black" points="347.32,-1412.61 217.32,-1374.61 347.32,-1336.61 477.32,-1374.61 347.32,-1412.61"/>
<text xml:space="preserve" text-anchor="middle" x="347.32" y="-1376.31" font-family="Helvetica,sans-Serif" font-size="14.00">Check Build Status</text>
<text xml:space="preserve" text-anchor="middle" x="347.32" y="-1361.31" font-family="Helvetica,sans-Serif" font-size="14.00">(condition)</text>
</g>
<!-- build_image&#45;&gt;check_build -->
<g id="edge4" class="edge">
<title>build_image&#45;&gt;check_build</title>
<path fill="none" stroke="black" d="M381.29,-1449.12C376.4,-1438.55 371.63,-1428.23 367.29,-1418.82"/>
<polygon fill="black" stroke="black" points="370.58,-1417.6 363.21,-1409.99 364.22,-1420.54 370.58,-1417.6"/>
</g>
<!-- fix_dockerfile -->
<g id="node6" class="node">
<title>fix_dockerfile</title>
<path fill="#e3f2fd" stroke="black" d="M512.57,-199.5C512.57,-199.5 396.07,-199.5 396.07,-199.5 390.07,-199.5 384.07,-193.5 384.07,-187.5 384.07,-187.5 384.07,-158.5 384.07,-158.5 384.07,-152.5 390.07,-146.5 396.07,-146.5 396.07,-146.5 512.57,-146.5 512.57,-146.5 518.57,-146.5 524.57,-152.5 524.57,-158.5 524.57,-158.5 524.57,-187.5 524.57,-187.5 524.57,-193.5 518.57,-199.5 512.57,-199.5"/>
<text xml:space="preserve" text-anchor="middle" x="454.32" y="-182.2" font-family="Helvetica,sans-Serif" font-size="14.00">Fix Dockerfile Issues</text>
<text xml:space="preserve" text-anchor="middle" x="454.32" y="-167.2" font-family="Helvetica,sans-Serif" font-size="14.00">(agent)</text>
<text xml:space="preserve" text-anchor="middle" x="454.32" y="-152.2" font-family="Helvetica,sans-Serif" font-size="14.00">role: executor</text>
</g>
<!-- check_build&#45;&gt;fix_dockerfile -->
<g id="edge7" class="edge">
<title>check_build&#45;&gt;fix_dockerfile</title>
<path fill="none" stroke="black" stroke-dasharray="5,2" d="M389.61,-1348.54C419.52,-1327.29 454.32,-1293.77 454.32,-1252.88 454.32,-1252.88 454.32,-1252.88 454.32,-344.48 454.32,-298.67 454.32,-245.95 454.32,-211.41"/>
<polygon fill="black" stroke="black" points="457.82,-211.51 454.32,-201.51 450.82,-211.51 457.82,-211.51"/>
<text xml:space="preserve" text-anchor="middle" x="465.95" y="-809.8" font-family="Helvetica,sans-Serif" font-size="10.00">failed</text>
</g>
<!-- review_size -->
<g id="node7" class="node">
<title>review_size</title>
<ellipse fill="#ffebee" stroke="black" cx="188.32" cy="-1251.88" rx="93.51" ry="37.48"/>
<text xml:space="preserve" text-anchor="middle" x="188.32" y="-1261.08" font-family="Helvetica,sans-Serif" font-size="14.00">Review Image Size</text>
<text xml:space="preserve" text-anchor="middle" x="188.32" y="-1246.08" font-family="Helvetica,sans-Serif" font-size="14.00">(hitl)</text>
<text xml:space="preserve" text-anchor="middle" x="188.32" y="-1231.08" font-family="Helvetica,sans-Serif" font-size="14.00">timeout: 600s</text>
</g>
<!-- check_build&#45;&gt;review_size -->
<g id="edge6" class="edge">
<title>check_build&#45;&gt;review_size</title>
<path fill="none" stroke="black" stroke-dasharray="5,2" d="M309.56,-1347.14C297.05,-1338.22 283.12,-1328.11 270.57,-1318.61 259.87,-1310.51 248.54,-1301.65 237.82,-1293.13"/>
<polygon fill="black" stroke="black" points="240.17,-1290.52 230.17,-1287.02 235.8,-1295.99 240.17,-1290.52"/>
<text xml:space="preserve" text-anchor="middle" x="287.45" y="-1309.11" font-family="Helvetica,sans-Serif" font-size="10.00">warning</text>
</g>
<!-- security_scan -->
<g id="node8" class="node">
<title>security_scan</title>
<polygon fill="#e8f5e9" stroke="black" points="342.66,-1177.41 125.78,-1177.41 69.99,-1011.41 286.87,-1011.41 342.66,-1177.41"/>
<text xml:space="preserve" text-anchor="middle" x="206.32" y="-1118.61" font-family="Helvetica,sans-Serif" font-size="14.00">Security Scan</text>
<text xml:space="preserve" text-anchor="middle" x="206.32" y="-1103.61" font-family="Helvetica,sans-Serif" font-size="14.00">(compute)</text>
<text xml:space="preserve" text-anchor="middle" x="206.32" y="-1088.61" font-family="Helvetica,sans-Serif" font-size="14.00">exec: in&#45;process</text>
<text xml:space="preserve" text-anchor="middle" x="206.32" y="-1073.61" font-family="Helvetica,sans-Serif" font-size="14.00">blocked: [llm, write]</text>
<text xml:space="preserve" text-anchor="middle" x="206.32" y="-1058.61" font-family="Helvetica,sans-Serif" font-size="14.00">timeout: 300s</text>
</g>
<!-- check_build&#45;&gt;security_scan -->
<g id="edge5" class="edge">
<title>check_build&#45;&gt;security_scan</title>
<path fill="none" stroke="black" stroke-dasharray="5,2" d="M338.19,-1338.91C328.79,-1305.86 312.53,-1255.22 291.32,-1214.41 286.64,-1205.39 281.34,-1196.28 275.74,-1187.34"/>
<polygon fill="black" stroke="black" points="278.71,-1185.5 270.37,-1178.98 272.82,-1189.28 278.71,-1185.5"/>
<text xml:space="preserve" text-anchor="middle" x="340.82" y="-1248.01" font-family="Helvetica,sans-Serif" font-size="10.00">success</text>
</g>
<!-- check_build&#45;&gt;security_scan -->
<g id="edge8" class="edge">
<title>check_build&#45;&gt;security_scan</title>
<path fill="none" stroke="black" stroke-dasharray="5,2" d="M360.73,-1340.03C371.91,-1306.45 383.1,-1254.21 363.32,-1214.41 358.36,-1204.41 352.11,-1195.04 344.98,-1186.28"/>
<polygon fill="black" stroke="black" points="347.76,-1184.14 338.57,-1178.87 342.47,-1188.72 347.76,-1184.14"/>
<text xml:space="preserve" text-anchor="middle" x="388.8" y="-1248.01" font-family="Helvetica,sans-Serif" font-size="10.00">default</text>
</g>
<!-- fix_dockerfile&#45;&gt;build_image -->
<g id="edge9" class="edge">
<title>fix_dockerfile&#45;&gt;build_image</title>
<path fill="none" stroke="black" d="M467.19,-199.86C482.3,-232.65 505.32,-291.34 505.32,-344.48 505.32,-1375.61 505.32,-1375.61 505.32,-1375.61 505.32,-1396.91 500.21,-1418.45 492.58,-1438.72"/>
<polygon fill="black" stroke="black" points="489.42,-1437.2 488.94,-1447.79 495.91,-1439.81 489.42,-1437.2"/>
</g>
<!-- review_size&#45;&gt;security_scan -->
<g id="edge10" class="edge">
<title>review_size&#45;&gt;security_scan</title>
<path fill="none" stroke="black" d="M192.59,-1214.04C193.49,-1206.27 194.48,-1197.74 195.5,-1188.93"/>
<polygon fill="black" stroke="black" points="198.95,-1189.5 196.63,-1179.16 192,-1188.69 198.95,-1189.5"/>
</g>
<!-- check_security -->
<g id="node9" class="node">
<title>check_security</title>
<polygon fill="#fff3e0" stroke="black" points="174.32,-974.41 18.82,-936.41 174.32,-898.41 329.82,-936.41 174.32,-974.41"/>
<text xml:space="preserve" text-anchor="middle" x="174.32" y="-938.11" font-family="Helvetica,sans-Serif" font-size="14.00">Check Security Results</text>
<text xml:space="preserve" text-anchor="middle" x="174.32" y="-923.11" font-family="Helvetica,sans-Serif" font-size="14.00">(condition)</text>
</g>
<!-- security_scan&#45;&gt;check_security -->
<g id="edge11" class="edge">
<title>security_scan&#45;&gt;check_security</title>
<path fill="none" stroke="black" d="M189.48,-1011.3C187.55,-1001.9 185.64,-992.59 183.86,-983.91"/>
<polygon fill="black" stroke="black" points="187.35,-983.47 181.91,-974.38 180.49,-984.88 187.35,-983.47"/>
</g>
<!-- review_vulnerabilities -->
<g id="node10" class="node">
<title>review_vulnerabilities</title>
<ellipse fill="#ffebee" stroke="black" cx="313.32" cy="-813.68" rx="104.65" ry="37.48"/>
<text xml:space="preserve" text-anchor="middle" x="313.32" y="-822.88" font-family="Helvetica,sans-Serif" font-size="14.00">Review Vulnerabilities</text>
<text xml:space="preserve" text-anchor="middle" x="313.32" y="-807.88" font-family="Helvetica,sans-Serif" font-size="14.00">(hitl)</text>
<text xml:space="preserve" text-anchor="middle" x="313.32" y="-792.88" font-family="Helvetica,sans-Serif" font-size="14.00">timeout: 900s</text>
</g>
<!-- check_security&#45;&gt;review_vulnerabilities -->
<g id="edge13" class="edge">
<title>check_security&#45;&gt;review_vulnerabilities</title>
<path fill="none" stroke="black" stroke-dasharray="5,2" d="M207.97,-906.18C225.25,-891.17 246.6,-872.63 265.56,-856.17"/>
<polygon fill="black" stroke="black" points="267.67,-858.96 272.93,-849.76 263.08,-853.68 267.67,-858.96"/>
<text xml:space="preserve" text-anchor="middle" x="258.49" y="-870.91" font-family="Helvetica,sans-Serif" font-size="10.00">warn</text>
</g>
<!-- block_push -->
<g id="node11" class="node">
<title>block_push</title>
<polygon fill="#eceff1" stroke="black" points="133.07,-832.68 49.57,-832.68 49.57,-794.68 133.07,-794.68 133.07,-832.68"/>
<text xml:space="preserve" text-anchor="middle" x="91.32" y="-815.38" font-family="Helvetica,sans-Serif" font-size="14.00">Block Push</text>
<text xml:space="preserve" text-anchor="middle" x="91.32" y="-800.38" font-family="Helvetica,sans-Serif" font-size="14.00">(transform)</text>
</g>
<!-- check_security&#45;&gt;block_push -->
<g id="edge14" class="edge">
<title>check_security&#45;&gt;block_push</title>
<path fill="none" stroke="black" stroke-dasharray="5,2" d="M152.3,-903.37C139.25,-884.39 122.88,-860.58 110.39,-842.41"/>
<polygon fill="black" stroke="black" points="113.3,-840.47 104.75,-834.21 107.53,-844.43 113.3,-840.47"/>
<text xml:space="preserve" text-anchor="middle" x="141.69" y="-870.91" font-family="Helvetica,sans-Serif" font-size="10.00">fail</text>
</g>
<!-- test_container -->
<g id="node12" class="node">
<title>test_container</title>
<polygon fill="#e8f5e9" stroke="black" points="342.65,-739.2 70.11,-739.2 0,-543.2 272.54,-543.2 342.65,-739.2"/>
<text xml:space="preserve" text-anchor="middle" x="171.32" y="-672.9" font-family="Helvetica,sans-Serif" font-size="14.00">Test Container</text>
<text xml:space="preserve" text-anchor="middle" x="171.32" y="-657.9" font-family="Helvetica,sans-Serif" font-size="14.00">(compute)</text>
<text xml:space="preserve" text-anchor="middle" x="171.32" y="-642.9" font-family="Helvetica,sans-Serif" font-size="14.00">exec: in&#45;process</text>
<text xml:space="preserve" text-anchor="middle" x="171.32" y="-627.9" font-family="Helvetica,sans-Serif" font-size="14.00">handler: container_tester</text>
<text xml:space="preserve" text-anchor="middle" x="171.32" y="-612.9" font-family="Helvetica,sans-Serif" font-size="14.00">blocked: [llm]</text>
<text xml:space="preserve" text-anchor="middle" x="171.32" y="-597.9" font-family="Helvetica,sans-Serif" font-size="14.00">timeout: 180s</text>
</g>
<!-- check_security&#45;&gt;test_container -->
<g id="edge12" class="edge">
<title>check_security&#45;&gt;test_container</title>
<path fill="none" stroke="black" stroke-dasharray="5,2" d="M173.94,-898.27C173.57,-861.31 172.97,-802.76 172.44,-750.98"/>
<polygon fill="black" stroke="black" points="175.94,-751.18 172.34,-741.21 168.94,-751.25 175.94,-751.18"/>
<text xml:space="preserve" text-anchor="middle" x="183.96" y="-809.8" font-family="Helvetica,sans-Serif" font-size="10.00">pass</text>
</g>
<!-- review_vulnerabilities&#45;&gt;test_container -->
<g id="edge15" class="edge">
<title>review_vulnerabilities&#45;&gt;test_container</title>
<path fill="none" stroke="black" d="M283.9,-777.36C276.54,-768.52 268.26,-758.57 259.61,-748.19"/>
<polygon fill="black" stroke="black" points="262.33,-745.99 253.24,-740.55 256.95,-750.47 262.33,-745.99"/>
</g>
<!-- block_push&#45;&gt;test_container -->
<g id="edge16" class="edge">
<title>block_push&#45;&gt;test_container</title>
<path fill="none" stroke="black" d="M99.88,-794.44C105.28,-782.95 112.73,-767.07 120.79,-749.89"/>
<polygon fill="black" stroke="black" points="123.88,-751.55 124.96,-741.01 117.54,-748.58 123.88,-751.55"/>
</g>
<!-- check_tests -->
<g id="node13" class="node">
<title>check_tests</title>
<polygon fill="#fff3e0" stroke="black" points="178.32,-506.2 46.82,-468.2 178.32,-430.2 309.82,-468.2 178.32,-506.2"/>
<text xml:space="preserve" text-anchor="middle" x="178.32" y="-469.9" font-family="Helvetica,sans-Serif" font-size="14.00">Check Test Results</text>
<text xml:space="preserve" text-anchor="middle" x="178.32" y="-454.9" font-family="Helvetica,sans-Serif" font-size="14.00">(condition)</text>
</g>
<!-- test_container&#45;&gt;check_tests -->
<g id="edge17" class="edge">
<title>test_container&#45;&gt;check_tests</title>
<path fill="none" stroke="black" d="M175.31,-542.72C175.67,-533.95 176.03,-525.35 176.35,-517.3"/>
<polygon fill="black" stroke="black" points="179.85,-517.6 176.76,-507.47 172.85,-517.31 179.85,-517.6"/>
</g>
<!-- investigate_failure -->
<g id="node14" class="node">
<title>investigate_failure</title>
<path fill="#e3f2fd" stroke="black" d="M411.7,-371.98C411.7,-371.98 280.95,-371.98 280.95,-371.98 274.95,-371.98 268.95,-365.98 268.95,-359.98 268.95,-359.98 268.95,-330.98 268.95,-330.98 268.95,-324.98 274.95,-318.98 280.95,-318.98 280.95,-318.98 411.7,-318.98 411.7,-318.98 417.7,-318.98 423.7,-324.98 423.7,-330.98 423.7,-330.98 423.7,-359.98 423.7,-359.98 423.7,-365.98 417.7,-371.98 411.7,-371.98"/>
<text xml:space="preserve" text-anchor="middle" x="346.32" y="-354.68" font-family="Helvetica,sans-Serif" font-size="14.00">Investigate Test Failure</text>
<text xml:space="preserve" text-anchor="middle" x="346.32" y="-339.68" font-family="Helvetica,sans-Serif" font-size="14.00">(agent)</text>
<text xml:space="preserve" text-anchor="middle" x="346.32" y="-324.68" font-family="Helvetica,sans-Serif" font-size="14.00">role: analyst</text>
</g>
<!-- check_tests&#45;&gt;investigate_failure -->
<g id="edge19" class="edge">
<title>check_tests&#45;&gt;investigate_failure</title>
<path fill="none" stroke="black" stroke-dasharray="5,2" d="M215.19,-440.71C240.51,-422.52 274.27,-398.26 301.19,-378.91"/>
<polygon fill="black" stroke="black" points="303.1,-381.85 309.18,-373.17 299.01,-376.16 303.1,-381.85"/>
<text xml:space="preserve" text-anchor="middle" x="277.86" y="-402.7" font-family="Helvetica,sans-Serif" font-size="10.00">false</text>
</g>
<!-- push_approval -->
<g id="node15" class="node">
<title>push_approval</title>
<ellipse fill="#ffebee" stroke="black" cx="171.32" cy="-345.48" rx="73.36" ry="37.48"/>
<text xml:space="preserve" text-anchor="middle" x="171.32" y="-354.68" font-family="Helvetica,sans-Serif" font-size="14.00">Push Approval</text>
<text xml:space="preserve" text-anchor="middle" x="171.32" y="-339.68" font-family="Helvetica,sans-Serif" font-size="14.00">(hitl)</text>
<text xml:space="preserve" text-anchor="middle" x="171.32" y="-324.68" font-family="Helvetica,sans-Serif" font-size="14.00">timeout: 600s</text>
</g>
<!-- check_tests&#45;&gt;push_approval -->
<g id="edge18" class="edge">
<title>check_tests&#45;&gt;push_approval</title>
<path fill="none" stroke="black" stroke-dasharray="5,2" d="M165.11,-433.61C162.92,-426.64 160.98,-419.26 159.82,-412.2 158.88,-406.42 158.75,-400.36 159.16,-394.35"/>
<polygon fill="black" stroke="black" points="162.64,-394.81 160.36,-384.46 155.69,-393.97 162.64,-394.81"/>
<text xml:space="preserve" text-anchor="middle" x="168.07" y="-402.7" font-family="Helvetica,sans-Serif" font-size="10.00">true</text>
</g>
<!-- check_tests&#45;&gt;push_approval -->
<g id="edge20" class="edge">
<title>check_tests&#45;&gt;push_approval</title>
<path fill="none" stroke="black" stroke-dasharray="5,2" d="M177.6,-430.04C177.31,-420.55 176.9,-410.37 176.32,-400.95 176.2,-398.91 176.06,-396.82 175.91,-394.72"/>
<polygon fill="black" stroke="black" points="179.41,-394.58 175.14,-384.88 172.43,-395.13 179.41,-394.58"/>
<text xml:space="preserve" text-anchor="middle" x="191.53" y="-402.7" font-family="Helvetica,sans-Serif" font-size="10.00">default</text>
</g>
<!-- investigate_failure&#45;&gt;fix_dockerfile -->
<g id="edge21" class="edge">
<title>investigate_failure&#45;&gt;fix_dockerfile</title>
<path fill="none" stroke="black" d="M362.73,-318.58C381.18,-289.46 411.25,-241.99 431.87,-209.44"/>
<polygon fill="black" stroke="black" points="434.74,-211.45 437.13,-201.13 428.83,-207.71 434.74,-211.45"/>
</g>
<!-- push_image -->
<g id="node16" class="node">
<title>push_image</title>
<polygon fill="#e8f5e9" stroke="black" points="330.21,-271 77.46,-271 12.44,-75 265.19,-75 330.21,-271"/>
<text xml:space="preserve" text-anchor="middle" x="171.32" y="-204.7" font-family="Helvetica,sans-Serif" font-size="14.00">Push to Registry</text>
<text xml:space="preserve" text-anchor="middle" x="171.32" y="-189.7" font-family="Helvetica,sans-Serif" font-size="14.00">(compute)</text>
<text xml:space="preserve" text-anchor="middle" x="171.32" y="-174.7" font-family="Helvetica,sans-Serif" font-size="14.00">exec: in&#45;process</text>
<text xml:space="preserve" text-anchor="middle" x="171.32" y="-159.7" font-family="Helvetica,sans-Serif" font-size="14.00">handler: container_ops</text>
<text xml:space="preserve" text-anchor="middle" x="171.32" y="-144.7" font-family="Helvetica,sans-Serif" font-size="14.00">blocked: [llm, write]</text>
<text xml:space="preserve" text-anchor="middle" x="171.32" y="-129.7" font-family="Helvetica,sans-Serif" font-size="14.00">timeout: 300s</text>
</g>
<!-- push_approval&#45;&gt;push_image -->
<g id="edge22" class="edge">
<title>push_approval&#45;&gt;push_image</title>
<path fill="none" stroke="black" d="M171.32,-307.91C171.32,-300.2 171.32,-291.7 171.32,-282.83"/>
<polygon fill="black" stroke="black" points="174.82,-282.94 171.32,-272.94 167.82,-282.94 174.82,-282.94"/>
</g>
<!-- complete -->
<g id="node17" class="node">
<title>complete</title>
<polygon fill="#eceff1" stroke="black" points="259.2,-38 83.45,-38 83.45,0 259.2,0 259.2,-38"/>
<text xml:space="preserve" text-anchor="middle" x="171.32" y="-20.7" font-family="Helvetica,sans-Serif" font-size="14.00">Container Setup Complete</text>
<text xml:space="preserve" text-anchor="middle" x="171.32" y="-5.7" font-family="Helvetica,sans-Serif" font-size="14.00">(transform)</text>
</g>
<!-- push_image&#45;&gt;complete -->
<g id="edge23" class="edge">
<title>push_image&#45;&gt;complete</title>
<path fill="none" stroke="black" d="M171.32,-74.88C171.32,-65.82 171.32,-57.2 171.32,-49.59"/>
<polygon fill="black" stroke="black" points="174.82,-49.7 171.32,-39.7 167.82,-49.7 174.82,-49.7"/>
</g>
</g>
</svg>
