<?xml version="1.0" encoding="UTF-8" standalone="no"?>
<!DOCTYPE svg PUBLIC "-//W3C//DTD SVG 1.1//EN"
 "http://www.w3.org/Graphics/SVG/1.1/DTD/svg11.dtd">
<!-- Generated by graphviz version 14.0.4 (20251115.1723)
 -->
<!-- Title: workflow Pages: 1 -->
<svg width="622pt" height="1496pt"
 viewBox="0.00 0.00 622.00 1496.00" xmlns="http://www.w3.org/2000/svg" xmlns:xlink="http://www.w3.org/1999/xlink">
<g id="graph0" class="graph" transform="scale(1 1) rotate(0) translate(4 1491.5)">
<title>workflow</title>
<polygon fill="white" stroke="none" points="-4,4 -4,-1491.5 617.87,-1491.5 617.87,4 -4,4"/>
<text xml:space="preserve" text-anchor="middle" x="306.94" y="-1470.2" font-family="Times,serif" font-size="14.00">cicd</text>
<!-- build -->
<g id="node1" class="node">
<title>build</title>
<polygon fill="#e8f5e9" stroke="black" points="531.87,-1463 315,-1463 259.21,-1297 476.08,-1297 531.87,-1463"/>
<text xml:space="preserve" text-anchor="middle" x="395.54" y="-1404.2" font-family="Helvetica,sans-Serif" font-size="14.00">Build</text>
<text xml:space="preserve" text-anchor="middle" x="395.54" y="-1389.2" font-family="Helvetica,sans-Serif" font-size="14.00">(compute)</text>
<text xml:space="preserve" text-anchor="middle" x="395.54" y="-1374.2" font-family="Helvetica,sans-Serif" font-size="14.00">exec: in&#45;process</text>
<text xml:space="preserve" text-anchor="middle" x="395.54" y="-1359.2" font-family="Helvetica,sans-Serif" font-size="14.00">blocked: [llm, write]</text>
<text xml:space="preserve" text-anchor="middle" x="395.54" y="-1344.2" font-family="Helvetica,sans-Serif" font-size="14.00">timeout: 600s</text>
</g>
<!-- test -->
<g id="node2" class="node">
<title>test</title>
<polygon fill="#e8f5e9" stroke="black" points="531.87,-1260 315,-1260 259.21,-1094 476.08,-1094 531.87,-1260"/>
<text xml:space="preserve" text-anchor="middle" x="395.54" y="-1201.2" font-family="Helvetica,sans-Serif" font-size="14.00">Run Tests</text>
<text xml:space="preserve" text-anchor="middle" x="395.54" y="-1186.2" font-family="Helvetica,sans-Serif" font-size="14.00">(compute)</text>
<text xml:space="preserve" text-anchor="middle" x="395.54" y="-1171.2" font-family="Helvetica,sans-Serif" font-size="14.00">exec: in&#45;process</text>
<text xml:space="preserve" text-anchor="middle" x="395.54" y="-1156.2" font-family="Helvetica,sans-Serif" font-size="14.00">blocked: [llm, write]</text>
<text xml:space="preserve" text-anchor="middle" x="395.54" y="-1141.2" font-family="Helvetica,sans-Serif" font-size="14.00">timeout: 900s</text>
</g>
<!-- build&#45;&gt;test -->
<g id="edge1" class="edge">
<title>build&#45;&gt;test</title>
<path fill="none" stroke="black" d="M395.54,-1296.67C395.54,-1288.39 395.54,-1279.95 395.54,-1271.57"/>
<polygon fill="black" stroke="black" points="399.04,-1271.72 395.54,-1261.72 392.04,-1271.72 399.04,-1271.72"/>
</g>
<!-- check_tests -->
<g id="node3" class="node">
<title>check_tests</title>
<polygon fill="#fff3e0" stroke="black" points="395.54,-1057 264.04,-1019 395.54,-981 527.04,-1019 395.54,-1057"/>
<text xml:space="preserve" text-anchor="middle" x="395.54" y="-1020.7" font-family="Helvetica,sans-Serif" font-size="14.00">Check Test Results</text>
<text xml:space="preserve" text-anchor="middle" x="395.54" y="-1005.7" font-family="Helvetica,sans-Serif" font-size="14.00">(condition)</text>
</g>
<!-- test&#45;&gt;check_tests -->
<g id="edge2" class="edge">
<title>test&#45;&gt;check_tests</title>
<path fill="none" stroke="black" d="M395.54,-1093.89C395.54,-1085.31 395.54,-1076.79 395.54,-1068.76"/>
<polygon fill="black" stroke="black" points="399.04,-1068.9 395.54,-1058.9 392.04,-1068.9 399.04,-1068.9"/>
</g>
<!-- security_scan -->
<g id="node4" class="node">
<title>security_scan</title>
<polygon fill="#e8f5e9" stroke="black" points="449.87,-933.75 233,-933.75 177.21,-767.75 394.08,-767.75 449.87,-933.75"/>
<text xml:space="preserve" text-anchor="middle" x="313.54" y="-874.95" font-family="Helvetica,sans-Serif" font-size="14.00">Security Scan</text>
<text xml:space="preserve" text-anchor="middle" x="313.54" y="-859.95" font-family="Helvetica,sans-Serif" font-size="14.00">(compute)</text>
<text xml:space="preserve" text-anchor="middle" x="313.54" y="-844.95" font-family="Helvetica,sans-Serif" font-size="14.00">exec: in&#45;process</text>
<text xml:space="preserve" text-anchor="middle" x="313.54" y="-829.95" font-family="Helvetica,sans-Serif" font-size="14.00">blocked: [llm, write]</text>
<text xml:space="preserve" text-anchor="middle" x="313.54" y="-814.95" font-family="Helvetica,sans-Serif" font-size="14.00">timeout: 300s</text>
</g>
<!-- check_tests&#45;&gt;security_scan -->
<g id="edge3" class="edge">
<title>check_tests&#45;&gt;security_scan</title>
<path fill="none" stroke="black" stroke-dasharray="5,2" d="M379.54,-985.55C373.59,-973.5 366.51,-959.14 359.23,-944.39"/>
<polygon fill="black" stroke="black" points="362.4,-942.9 354.84,-935.48 356.13,-946 362.4,-942.9"/>
<text xml:space="preserve" text-anchor="middle" x="374.93" y="-953.5" font-family="Helvetica,sans-Serif" font-size="10.00">true</text>
</g>
<!-- notify_failure -->
<g id="node9" class="node">
<title>notify_failure</title>
<polygon fill="#e8f5e9" stroke="black" points="613.87,-597.25 397,-597.25 341.21,-431.25 558.08,-431.25 613.87,-597.25"/>
<text xml:space="preserve" text-anchor="middle" x="477.54" y="-538.45" font-family="Helvetica,sans-Serif" font-size="14.00">Notify Failure</text>
<text xml:space="preserve" text-anchor="middle" x="477.54" y="-523.45" font-family="Helvetica,sans-Serif" font-size="14.00">(compute)</text>
<text xml:space="preserve" text-anchor="middle" x="477.54" y="-508.45" font-family="Helvetica,sans-Serif" font-size="14.00">exec: in&#45;process</text>
<text xml:space="preserve" text-anchor="middle" x="477.54" y="-493.45" font-family="Helvetica,sans-Serif" font-size="14.00">blocked: [llm, write]</text>
<text xml:space="preserve" text-anchor="middle" x="477.54" y="-478.45" font-family="Helvetica,sans-Serif" font-size="14.00">timeout: 30s</text>
</g>
<!-- check_tests&#45;&gt;notify_failure -->
<g id="edge4" class="edge">
<title>check_tests&#45;&gt;notify_failure</title>
<path fill="none" stroke="black" stroke-dasharray="5,2" d="M424.06,-989.02C437.09,-973.86 451.22,-954.21 458.54,-933.75 496.66,-827.26 495.47,-695.71 488.67,-608.84"/>
<polygon fill="black" stroke="black" points="492.17,-608.6 487.85,-598.93 485.19,-609.18 492.17,-608.6"/>
<text xml:space="preserve" text-anchor="middle" x="502.15" y="-740.25" font-family="Helvetica,sans-Serif" font-size="10.00">false</text>
</g>
<!-- check_security -->
<g id="node5" class="node">
<title>check_security</title>
<polygon fill="#fff3e0" stroke="black" points="313.54,-720.5 206.79,-682.5 313.54,-644.5 420.29,-682.5 313.54,-720.5"/>
<text xml:space="preserve" text-anchor="middle" x="313.54" y="-684.2" font-family="Helvetica,sans-Serif" font-size="14.00">Check Security</text>
<text xml:space="preserve" text-anchor="middle" x="313.54" y="-669.2" font-family="Helvetica,sans-Serif" font-size="14.00">(condition)</text>
</g>
<!-- security_scan&#45;&gt;check_security -->
<g id="edge5" class="edge">
<title>security_scan&#45;&gt;check_security</title>
<path fill="none" stroke="black" d="M313.54,-767.6C313.54,-755.46 313.54,-743.29 313.54,-732.12"/>
<polygon fill="black" stroke="black" points="317.04,-732.41 313.54,-722.41 310.04,-732.41 317.04,-732.41"/>
</g>
<!-- push_image -->
<g id="node6" class="node">
<title>push_image</title>
<polygon fill="#e8f5e9" stroke="black" points="323.09,-597.25 74.05,-597.25 9.99,-431.25 259.03,-431.25 323.09,-597.25"/>
<text xml:space="preserve" text-anchor="middle" x="166.54" y="-538.45" font-family="Helvetica,sans-Serif" font-size="14.00">Push Container Image</text>
<text xml:space="preserve" text-anchor="middle" x="166.54" y="-523.45" font-family="Helvetica,sans-Serif" font-size="14.00">(compute)</text>
<text xml:space="preserve" text-anchor="middle" x="166.54" y="-508.45" font-family="Helvetica,sans-Serif" font-size="14.00">exec: in&#45;process</text>
<text xml:space="preserve" text-anchor="middle" x="166.54" y="-493.45" font-family="Helvetica,sans-Serif" font-size="14.00">blocked: [llm, write]</text>
<text xml:space="preserve" text-anchor="middle" x="166.54" y="-478.45" font-family="Helvetica,sans-Serif" font-size="14.00">timeout: 300s</text>
</g>
<!-- check_security&#45;&gt;push_image -->
<g id="edge6" class="edge">
<title>check_security&#45;&gt;push_image</title>
<path fill="none" stroke="black" stroke-dasharray="5,2" d="M288.6,-653.3C276.85,-640 262.09,-623.31 246.94,-606.18"/>
<polygon fill="black" stroke="black" points="249.73,-604.05 240.49,-598.88 244.49,-608.69 249.73,-604.05"/>
<text xml:space="preserve" text-anchor="middle" x="270.05" y="-617" font-family="Helvetica,sans-Serif" font-size="10.00">true</text>
</g>
<!-- check_security&#45;&gt;notify_failure -->
<g id="edge7" class="edge">
<title>check_security&#45;&gt;notify_failure</title>
<path fill="none" stroke="black" stroke-dasharray="5,2" d="M340.62,-654.05C354.03,-640.45 371.07,-623.18 388.54,-605.47"/>
<polygon fill="black" stroke="black" points="390.99,-607.97 395.52,-598.39 386.01,-603.06 390.99,-607.97"/>
<text xml:space="preserve" text-anchor="middle" x="386.53" y="-617" font-family="Helvetica,sans-Serif" font-size="10.00">false</text>
</g>
<!-- trigger_deploy -->
<g id="node7" class="node">
<title>trigger_deploy</title>
<polygon fill="#fff3e0" stroke="black" points="191.54,-394.25 59.29,-356.25 191.54,-318.25 323.79,-356.25 191.54,-394.25"/>
<text xml:space="preserve" text-anchor="middle" x="191.54" y="-357.95" font-family="Helvetica,sans-Serif" font-size="14.00">Auto&#45;Deploy Check</text>
<text xml:space="preserve" text-anchor="middle" x="191.54" y="-342.95" font-family="Helvetica,sans-Serif" font-size="14.00">(condition)</text>
</g>
<!-- push_image&#45;&gt;trigger_deploy -->
<g id="edge8" class="edge">
<title>push_image&#45;&gt;trigger_deploy</title>
<path fill="none" stroke="black" d="M179.7,-431.14C181.17,-421.95 182.63,-412.85 184,-404.32"/>
<polygon fill="black" stroke="black" points="187.43,-405.04 185.55,-394.61 180.51,-403.93 187.43,-405.04"/>
</g>
<!-- auto_deploy -->
<g id="node8" class="node">
<title>auto_deploy</title>
<polygon fill="#e8f5e9" stroke="black" points="383.08,-271 78.38,-271 0,-75 304.7,-75 383.08,-271"/>
<text xml:space="preserve" text-anchor="middle" x="191.54" y="-204.7" font-family="Helvetica,sans-Serif" font-size="14.00">Trigger Deployment</text>
<text xml:space="preserve" text-anchor="middle" x="191.54" y="-189.7" font-family="Helvetica,sans-Serif" font-size="14.00">(compute)</text>
<text xml:space="preserve" text-anchor="middle" x="191.54" y="-174.7" font-family="Helvetica,sans-Serif" font-size="14.00">exec: in&#45;process</text>
<text xml:space="preserve" text-anchor="middle" x="191.54" y="-159.7" font-family="Helvetica,sans-Serif" font-size="14.00">handler: deployment_trigger</text>
<text xml:space="preserve" text-anchor="middle" x="191.54" y="-144.7" font-family="Helvetica,sans-Serif" font-size="14.00">blocked: [llm, write]</text>
<text xml:space="preserve" text-anchor="middle" x="191.54" y="-129.7" font-family="Helvetica,sans-Serif" font-size="14.00">timeout: 120s</text>
</g>
<!-- trigger_deploy&#45;&gt;auto_deploy -->
<g id="edge9" class="edge">
<title>trigger_deploy&#45;&gt;auto_deploy</title>
<path fill="none" stroke="black" stroke-dasharray="5,2" d="M191.54,-318.13C191.54,-307.48 191.54,-295.29 191.54,-282.61"/>
<polygon fill="black" stroke="black" points="195.04,-282.88 191.54,-272.88 188.04,-282.88 195.04,-282.88"/>
<text xml:space="preserve" text-anchor="middle" x="199.79" y="-290.75" font-family="Helvetica,sans-Serif" font-size="10.00">true</text>
</g>
<!-- complete -->
<g id="node10" class="node">
<title>complete</title>
<polygon fill="#eceff1" stroke="black" points="482.67,-38 356.42,-38 356.42,0 482.67,0 482.67,-38"/>
<text xml:space="preserve" text-anchor="middle" x="419.54" y="-20.7" font-family="Helvetica,sans-Serif" font-size="14.00">Pipeline Complete</text>
<text xml:space="preserve" text-anchor="middle" x="419.54" y="-5.7" font-family="Helvetica,sans-Serif" font-size="14.00">(transform)</text>
</g>
<!-- trigger_deploy&#45;&gt;complete -->
<g id="edge10" class="edge">
<title>trigger_deploy&#45;&gt;complete</title>
<path fill="none" stroke="black" stroke-dasharray="5,2" d="M273.62,-341.37C315.88,-329.81 364.33,-308.85 392.54,-271 441.89,-204.8 433.22,-100.1 425.21,-49.42"/>
<polygon fill="black" stroke="black" points="428.7,-49.08 423.58,-39.81 421.8,-50.25 428.7,-49.08"/>
<text xml:space="preserve" text-anchor="middle" x="441.91" y="-169.12" font-family="Helvetica,sans-Serif" font-size="10.00">false</text>
</g>
<!-- auto_deploy&#45;&gt;complete -->
<g id="edge11" class="edge">
<title>auto_deploy&#45;&gt;complete</title>
<path fill="none" stroke="black" d="M311.88,-91.77C337.71,-74.55 363.1,-57.63 382.73,-44.54"/>
<polygon fill="black" stroke="black" points="384.52,-47.55 390.9,-39.09 380.64,-41.73 384.52,-47.55"/>
</g>
<!-- notify_failure&#45;&gt;complete -->
<g id="edge12" class="edge">
<title>notify_failure&#45;&gt;complete</title>
<path fill="none" stroke="black" d="M486.52,-430.9C493.39,-340.98 495.96,-193.94 456.54,-75 453.37,-65.42 448.02,-55.95 442.37,-47.64"/>
<polygon fill="black" stroke="black" points="445.31,-45.73 436.6,-39.7 439.65,-49.85 445.31,-45.73"/>
</g>
</g>
</svg>
