<?xml version="1.0" encoding="UTF-8" standalone="no"?>
<!DOCTYPE svg PUBLIC "-//W3C//DTD SVG 1.1//EN"
 "http://www.w3.org/Graphics/SVG/1.1/DTD/svg11.dtd">
<!-- Generated by graphviz version 14.0.4 (20251115.1723)
 -->
<!-- Title: workflow Pages: 1 -->
<svg width="382pt" height="1171pt"
 viewBox="0.00 0.00 382.00 1171.00" xmlns="http://www.w3.org/2000/svg" xmlns:xlink="http://www.w3.org/1999/xlink">
<g id="graph0" class="graph" transform="scale(1 1) rotate(0) translate(4 1166.95)">
<title>workflow</title>
<polygon fill="white" stroke="none" points="-4,4 -4,-1166.95 377.98,-1166.95 377.98,4 -4,4"/>
<text xml:space="preserve" text-anchor="middle" x="186.99" y="-1145.65" font-family="Times,serif" font-size="14.00">competitive_analysis</text>
<!-- define_market -->
<g id="node1" class="node">
<title>define_market</title>
<path fill="#e3f2fd" stroke="black" d="M302.88,-1138.45C302.88,-1138.45 156.38,-1138.45 156.38,-1138.45 150.38,-1138.45 144.38,-1132.45 144.38,-1126.45 144.38,-1126.45 144.38,-1097.45 144.38,-1097.45 144.38,-1091.45 150.38,-1085.45 156.38,-1085.45 156.38,-1085.45 302.88,-1085.45 302.88,-1085.45 308.88,-1085.45 314.88,-1091.45 314.88,-1097.45 314.88,-1097.45 314.88,-1126.45 314.88,-1126.45 314.88,-1132.45 308.88,-1138.45 302.88,-1138.45"/>
<text xml:space="preserve" text-anchor="middle" x="229.62" y="-1121.15" font-family="Helvetica,sans-Serif" font-size="14.00">Define Market Landscape</text>
<text xml:space="preserve" text-anchor="middle" x="229.62" y="-1106.15" font-family="Helvetica,sans-Serif" font-size="14.00">(agent)</text>
<text xml:space="preserve" text-anchor="middle" x="229.62" y="-1091.15" font-family="Helvetica,sans-Serif" font-size="14.00">role: analyst</text>
</g>
<!-- identify_competitors -->
<g id="node2" class="node">
<title>identify_competitors</title>
<path fill="#e3f2fd" stroke="black" d="M286,-1048.45C286,-1048.45 173.25,-1048.45 173.25,-1048.45 167.25,-1048.45 161.25,-1042.45 161.25,-1036.45 161.25,-1036.45 161.25,-1007.45 161.25,-1007.45 161.25,-1001.45 167.25,-995.45 173.25,-995.45 173.25,-995.45 286,-995.45 286,-995.45 292,-995.45 298,-1001.45 298,-1007.45 298,-1007.45 298,-1036.45 298,-1036.45 298,-1042.45 292,-1048.45 286,-1048.45"/>
<text xml:space="preserve" text-anchor="middle" x="229.62" y="-1031.15" font-family="Helvetica,sans-Serif" font-size="14.00">Identify Competitors</text>
<text xml:space="preserve" text-anchor="middle" x="229.62" y="-1016.15" font-family="Helvetica,sans-Serif" font-size="14.00">(agent)</text>
<text xml:space="preserve" text-anchor="middle" x="229.62" y="-1001.15" font-family="Helvetica,sans-Serif" font-size="14.00">role: researcher</text>
</g>
<!-- define_market&#45;&gt;identify_competitors -->
<g id="edge1" class="edge">
<title>define_market&#45;&gt;identify_competitors</title>
<path fill="none" stroke="black" d="M229.62,-1085.03C229.62,-1077.24 229.62,-1068.54 229.62,-1060.17"/>
<polygon fill="black" stroke="black" points="233.13,-1060.21 229.63,-1050.21 226.13,-1060.21 233.13,-1060.21"/>
</g>
<!-- parallel_research -->
<g id="node3" class="node">
<title>parallel_research</title>
<polygon fill="#f3e5f5" stroke="black" points="336.62,-954.45 122.62,-954.45 122.62,-916.45 336.62,-916.45 336.62,-954.45"/>
<polygon fill="none" stroke="black" points="340.62,-958.45 118.62,-958.45 118.62,-912.45 340.62,-912.45 340.62,-958.45"/>
<text xml:space="preserve" text-anchor="middle" x="229.62" y="-937.15" font-family="Helvetica,sans-Serif" font-size="14.00">Research Competitors in Parallel</text>
<text xml:space="preserve" text-anchor="middle" x="229.62" y="-922.15" font-family="Helvetica,sans-Serif" font-size="14.00">(parallel)</text>
</g>
<!-- identify_competitors&#45;&gt;parallel_research -->
<g id="edge2" class="edge">
<title>identify_competitors&#45;&gt;parallel_research</title>
<path fill="none" stroke="black" d="M229.62,-995.14C229.62,-987.22 229.62,-978.39 229.62,-970.04"/>
<polygon fill="black" stroke="black" points="233.13,-970.2 229.63,-960.2 226.13,-970.2 233.13,-970.2"/>
</g>
<!-- product_analysis -->
<g id="node4" class="node">
<title>product_analysis</title>
<path fill="#e3f2fd" stroke="black" d="M159.25,-865.2C159.25,-865.2 12,-865.2 12,-865.2 6,-865.2 0,-859.2 0,-853.2 0,-853.2 0,-824.2 0,-824.2 0,-818.2 6,-812.2 12,-812.2 12,-812.2 159.25,-812.2 159.25,-812.2 165.25,-812.2 171.25,-818.2 171.25,-824.2 171.25,-824.2 171.25,-853.2 171.25,-853.2 171.25,-859.2 165.25,-865.2 159.25,-865.2"/>
<text xml:space="preserve" text-anchor="middle" x="85.62" y="-847.9" font-family="Helvetica,sans-Serif" font-size="14.00">Analyze Product/Features</text>
<text xml:space="preserve" text-anchor="middle" x="85.62" y="-832.9" font-family="Helvetica,sans-Serif" font-size="14.00">(agent)</text>
<text xml:space="preserve" text-anchor="middle" x="85.62" y="-817.9" font-family="Helvetica,sans-Serif" font-size="14.00">role: analyst</text>
</g>
<!-- parallel_research&#45;&gt;product_analysis -->
<g id="edge3" class="edge">
<title>parallel_research&#45;&gt;product_analysis</title>
<path fill="none" stroke="black" d="M195.5,-912C177.34,-900.05 154.7,-885.15 134.69,-871.99"/>
<polygon fill="black" stroke="black" points="136.66,-869.09 126.38,-866.52 132.81,-874.94 136.66,-869.09"/>
<text xml:space="preserve" text-anchor="middle" x="174.5" y="-884.95" font-family="Helvetica,sans-Serif" font-size="10.00">fork</text>
</g>
<!-- pricing_research -->
<g id="node5" class="node">
<title>pricing_research</title>
<path fill="#e3f2fd" stroke="black" d="M212.25,-764.95C212.25,-764.95 53,-764.95 53,-764.95 47,-764.95 41,-758.95 41,-752.95 41,-752.95 41,-723.95 41,-723.95 41,-717.95 47,-711.95 53,-711.95 53,-711.95 212.25,-711.95 212.25,-711.95 218.25,-711.95 224.25,-717.95 224.25,-723.95 224.25,-723.95 224.25,-752.95 224.25,-752.95 224.25,-758.95 218.25,-764.95 212.25,-764.95"/>
<text xml:space="preserve" text-anchor="middle" x="132.62" y="-747.65" font-family="Helvetica,sans-Serif" font-size="14.00">Research Pricing Strategies</text>
<text xml:space="preserve" text-anchor="middle" x="132.62" y="-732.65" font-family="Helvetica,sans-Serif" font-size="14.00">(agent)</text>
<text xml:space="preserve" text-anchor="middle" x="132.62" y="-717.65" font-family="Helvetica,sans-Serif" font-size="14.00">role: researcher</text>
</g>
<!-- parallel_research&#45;&gt;pricing_research -->
<g id="edge4" class="edge">
<title>parallel_research&#45;&gt;pricing_research</title>
<path fill="none" stroke="black" d="M222.24,-912.22C213.6,-887.25 198.23,-845.83 180.62,-812.2 173.99,-799.53 165.71,-786.3 157.91,-774.64"/>
<polygon fill="black" stroke="black" points="160.89,-772.81 152.36,-766.53 155.11,-776.76 160.89,-772.81"/>
<text xml:space="preserve" text-anchor="middle" x="212.91" y="-834.83" font-family="Helvetica,sans-Serif" font-size="10.00">fork</text>
</g>
<!-- positioning_research -->
<g id="node6" class="node">
<title>positioning_research</title>
<path fill="#e3f2fd" stroke="black" d="M258.38,-674.95C258.38,-674.95 102.88,-674.95 102.88,-674.95 96.88,-674.95 90.88,-668.95 90.88,-662.95 90.88,-662.95 90.88,-633.95 90.88,-633.95 90.88,-627.95 96.88,-621.95 102.88,-621.95 102.88,-621.95 258.38,-621.95 258.38,-621.95 264.38,-621.95 270.38,-627.95 270.38,-633.95 270.38,-633.95 270.38,-662.95 270.38,-662.95 270.38,-668.95 264.38,-674.95 258.38,-674.95"/>
<text xml:space="preserve" text-anchor="middle" x="180.62" y="-657.65" font-family="Helvetica,sans-Serif" font-size="14.00">Analyze Market Positioning</text>
<text xml:space="preserve" text-anchor="middle" x="180.62" y="-642.65" font-family="Helvetica,sans-Serif" font-size="14.00">(agent)</text>
<text xml:space="preserve" text-anchor="middle" x="180.62" y="-627.65" font-family="Helvetica,sans-Serif" font-size="14.00">role: analyst</text>
</g>
<!-- parallel_research&#45;&gt;positioning_research -->
<g id="edge5" class="edge">
<title>parallel_research&#45;&gt;positioning_research</title>
<path fill="none" stroke="black" d="M235.18,-912.1C244.31,-870.99 259.04,-781.23 233.62,-711.95 229.95,-701.95 223.89,-692.45 217.16,-684.01"/>
<polygon fill="black" stroke="black" points="219.82,-681.75 210.65,-676.45 214.52,-686.31 219.82,-681.75"/>
<text xml:space="preserve" text-anchor="middle" x="255.92" y="-784.7" font-family="Helvetica,sans-Serif" font-size="10.00">fork</text>
</g>
<!-- aggregate_research -->
<g id="node7" class="node">
<title>aggregate_research</title>
<polygon fill="#eceff1" stroke="black" points="309.5,-584.95 169.75,-584.95 169.75,-546.95 309.5,-546.95 309.5,-584.95"/>
<text xml:space="preserve" text-anchor="middle" x="239.62" y="-567.65" font-family="Helvetica,sans-Serif" font-size="14.00">Aggregate Research</text>
<text xml:space="preserve" text-anchor="middle" x="239.62" y="-552.65" font-family="Helvetica,sans-Serif" font-size="14.00">(transform)</text>
</g>
<!-- parallel_research&#45;&gt;aggregate_research -->
<g id="edge6" class="edge">
<title>parallel_research&#45;&gt;aggregate_research</title>
<path fill="none" stroke="black" d="M258.49,-912.01C277.4,-894.59 298.62,-868.6 298.62,-839.7 298.62,-839.7 298.62,-839.7 298.62,-647.45 298.62,-626.6 285.58,-607.55 271.76,-593.23"/>
<polygon fill="black" stroke="black" points="274.33,-590.85 264.71,-586.42 269.47,-595.89 274.33,-590.85"/>
<text xml:space="preserve" text-anchor="middle" x="306.12" y="-734.58" font-family="Helvetica,sans-Serif" font-size="10.00">join</text>
</g>
<!-- product_analysis&#45;&gt;pricing_research -->
<g id="edge7" class="edge">
<title>product_analysis&#45;&gt;pricing_research</title>
<path fill="none" stroke="black" d="M97.97,-811.89C103.27,-800.81 109.56,-787.67 115.31,-775.64"/>
<polygon fill="black" stroke="black" points="118.38,-777.33 119.54,-766.8 112.07,-774.31 118.38,-777.33"/>
</g>
<!-- pricing_research&#45;&gt;positioning_research -->
<g id="edge8" class="edge">
<title>pricing_research&#45;&gt;positioning_research</title>
<path fill="none" stroke="black" d="M146.77,-711.53C151.26,-703.29 156.31,-694.03 161.11,-685.23"/>
<polygon fill="black" stroke="black" points="164.14,-686.98 165.86,-676.52 158,-683.63 164.14,-686.98"/>
</g>
<!-- positioning_research&#45;&gt;aggregate_research -->
<g id="edge9" class="edge">
<title>positioning_research&#45;&gt;aggregate_research</title>
<path fill="none" stroke="black" d="M199.62,-621.54C205.95,-612.9 213.03,-603.24 219.45,-594.48"/>
<polygon fill="black" stroke="black" points="222.11,-596.78 225.19,-586.64 216.46,-592.64 222.11,-596.78"/>
</g>
<!-- threat_assessment -->
<g id="node8" class="node">
<title>threat_assessment</title>
<path fill="#e3f2fd" stroke="black" d="M320,-509.95C320,-509.95 159.25,-509.95 159.25,-509.95 153.25,-509.95 147.25,-503.95 147.25,-497.95 147.25,-497.95 147.25,-468.95 147.25,-468.95 147.25,-462.95 153.25,-456.95 159.25,-456.95 159.25,-456.95 320,-456.95 320,-456.95 326,-456.95 332,-462.95 332,-468.95 332,-468.95 332,-497.95 332,-497.95 332,-503.95 326,-509.95 320,-509.95"/>
<text xml:space="preserve" text-anchor="middle" x="239.62" y="-492.65" font-family="Helvetica,sans-Serif" font-size="14.00">Assess Competitive Threats</text>
<text xml:space="preserve" text-anchor="middle" x="239.62" y="-477.65" font-family="Helvetica,sans-Serif" font-size="14.00">(agent)</text>
<text xml:space="preserve" text-anchor="middle" x="239.62" y="-462.65" font-family="Helvetica,sans-Serif" font-size="14.00">role: analyst</text>
</g>
<!-- aggregate_research&#45;&gt;threat_assessment -->
<g id="edge10" class="edge">
<title>aggregate_research&#45;&gt;threat_assessment</title>
<path fill="none" stroke="black" d="M239.62,-546.69C239.62,-539.2 239.62,-530.26 239.62,-521.51"/>
<polygon fill="black" stroke="black" points="243.13,-521.79 239.63,-511.79 236.13,-521.79 243.13,-521.79"/>
</g>
<!-- swot_analysis -->
<g id="node9" class="node">
<title>swot_analysis</title>
<path fill="#e3f2fd" stroke="black" d="M314,-419.95C314,-419.95 165.25,-419.95 165.25,-419.95 159.25,-419.95 153.25,-413.95 153.25,-407.95 153.25,-407.95 153.25,-378.95 153.25,-378.95 153.25,-372.95 159.25,-366.95 165.25,-366.95 165.25,-366.95 314,-366.95 314,-366.95 320,-366.95 326,-372.95 326,-378.95 326,-378.95 326,-407.95 326,-407.95 326,-413.95 320,-419.95 314,-419.95"/>
<text xml:space="preserve" text-anchor="middle" x="239.62" y="-402.65" font-family="Helvetica,sans-Serif" font-size="14.00">Generate SWOT Analysis</text>
<text xml:space="preserve" text-anchor="middle" x="239.62" y="-387.65" font-family="Helvetica,sans-Serif" font-size="14.00">(agent)</text>
<text xml:space="preserve" text-anchor="middle" x="239.62" y="-372.65" font-family="Helvetica,sans-Serif" font-size="14.00">role: analyst</text>
</g>
<!-- threat_assessment&#45;&gt;swot_analysis -->
<g id="edge11" class="edge">
<title>threat_assessment&#45;&gt;swot_analysis</title>
<path fill="none" stroke="black" d="M239.62,-456.53C239.62,-448.74 239.62,-440.04 239.62,-431.67"/>
<polygon fill="black" stroke="black" points="243.13,-431.71 239.63,-421.71 236.13,-431.71 243.13,-431.71"/>
</g>
<!-- review_analysis -->
<g id="node10" class="node">
<title>review_analysis</title>
<ellipse fill="#ffebee" stroke="black" cx="239.62" cy="-292.48" rx="134.35" ry="37.48"/>
<text xml:space="preserve" text-anchor="middle" x="239.62" y="-301.68" font-family="Helvetica,sans-Serif" font-size="14.00">Review Competitive Analysis</text>
<text xml:space="preserve" text-anchor="middle" x="239.62" y="-286.68" font-family="Helvetica,sans-Serif" font-size="14.00">(hitl)</text>
<text xml:space="preserve" text-anchor="middle" x="239.62" y="-271.68" font-family="Helvetica,sans-Serif" font-size="14.00">timeout: 900s</text>
</g>
<!-- swot_analysis&#45;&gt;review_analysis -->
<g id="edge12" class="edge">
<title>swot_analysis&#45;&gt;review_analysis</title>
<path fill="none" stroke="black" d="M239.62,-366.71C239.62,-358.98 239.62,-350.24 239.62,-341.56"/>
<polygon fill="black" stroke="black" points="243.13,-341.79 239.63,-331.79 236.13,-341.79 243.13,-341.79"/>
</g>
<!-- generate_recommendations -->
<g id="node11" class="node">
<title>generate_recommendations</title>
<path fill="#e3f2fd" stroke="black" d="M351.5,-218C351.5,-218 127.75,-218 127.75,-218 121.75,-218 115.75,-212 115.75,-206 115.75,-206 115.75,-177 115.75,-177 115.75,-171 121.75,-165 127.75,-165 127.75,-165 351.5,-165 351.5,-165 357.5,-165 363.5,-171 363.5,-177 363.5,-177 363.5,-206 363.5,-206 363.5,-212 357.5,-218 351.5,-218"/>
<text xml:space="preserve" text-anchor="middle" x="239.62" y="-200.7" font-family="Helvetica,sans-Serif" font-size="14.00">Generate Strategic Recommendations</text>
<text xml:space="preserve" text-anchor="middle" x="239.62" y="-185.7" font-family="Helvetica,sans-Serif" font-size="14.00">(agent)</text>
<text xml:space="preserve" text-anchor="middle" x="239.62" y="-170.7" font-family="Helvetica,sans-Serif" font-size="14.00">role: analyst</text>
</g>
<!-- review_analysis&#45;&gt;generate_recommendations -->
<g id="edge13" class="edge">
<title>review_analysis&#45;&gt;generate_recommendations</title>
<path fill="none" stroke="black" d="M239.62,-254.62C239.62,-246.5 239.62,-237.89 239.62,-229.75"/>
<polygon fill="black" stroke="black" points="243.13,-229.78 239.63,-219.78 236.13,-229.78 243.13,-229.78"/>
</g>
<!-- generate_report -->
<g id="node12" class="node">
<title>generate_report</title>
<path fill="#e3f2fd" stroke="black" d="M351.12,-128C351.12,-128 128.12,-128 128.12,-128 122.12,-128 116.12,-122 116.12,-116 116.12,-116 116.12,-87 116.12,-87 116.12,-81 122.12,-75 128.12,-75 128.12,-75 351.12,-75 351.12,-75 357.12,-75 363.12,-81 363.12,-87 363.12,-87 363.12,-116 363.12,-116 363.12,-122 357.12,-128 351.12,-128"/>
<text xml:space="preserve" text-anchor="middle" x="239.62" y="-110.7" font-family="Helvetica,sans-Serif" font-size="14.00">Generate Competitive Analysis Report</text>
<text xml:space="preserve" text-anchor="middle" x="239.62" y="-95.7" font-family="Helvetica,sans-Serif" font-size="14.00">(agent)</text>
<text xml:space="preserve" text-anchor="middle" x="239.62" y="-80.7" font-family="Helvetica,sans-Serif" font-size="14.00">role: writer</text>
</g>
<!-- generate_recommendations&#45;&gt;generate_report -->
<g id="edge14" class="edge">
<title>generate_recommendations&#45;&gt;generate_report</title>
<path fill="none" stroke="black" d="M239.62,-164.57C239.62,-156.79 239.62,-148.08 239.62,-139.72"/>
<polygon fill="black" stroke="black" points="243.13,-139.76 239.63,-129.76 236.13,-139.76 243.13,-139.76"/>
</g>
<!-- complete -->
<g id="node13" class="node">
<title>complete</title>
<polygon fill="#eceff1" stroke="black" points="303.88,-38 175.38,-38 175.38,0 303.88,0 303.88,-38"/>
<text xml:space="preserve" text-anchor="middle" x="239.62" y="-20.7" font-family="Helvetica,sans-Serif" font-size="14.00">Analysis Complete</text>
<text xml:space="preserve" text-anchor="middle" x="239.62" y="-5.7" font-family="Helvetica,sans-Serif" font-size="14.00">(transform)</text>
</g>
<!-- generate_report&#45;&gt;complete -->
<g id="edge15" class="edge">
<title>generate_report&#45;&gt;complete</title>
<path fill="none" stroke="black" d="M239.62,-74.59C239.62,-66.68 239.62,-57.93 239.62,-49.79"/>
<polygon fill="black" stroke="black" points="243.13,-49.98 239.63,-39.98 236.13,-49.98 243.13,-49.98"/>
</g>
</g>
</svg>
