<?xml version="1.0" encoding="UTF-8" standalone="no"?>
<!DOCTYPE svg PUBLIC "-//W3C//DTD SVG 1.1//EN"
 "http://www.w3.org/Graphics/SVG/1.1/DTD/svg11.dtd">
<!-- Generated by graphviz version 14.0.4 (20251115.1723)
 -->
<!-- Title: workflow Pages: 1 -->
<svg width="144pt" height="175pt"
 viewBox="0.00 0.00 144.00 175.00" xmlns="http://www.w3.org/2000/svg" xmlns:xlink="http://www.w3.org/1999/xlink">
<g id="graph0" class="graph" transform="scale(1 1) rotate(0) translate(4 170.5)">
<title>workflow</title>
<polygon fill="white" stroke="none" points="-4,4 -4,-170.5 140,-170.5 140,4 -4,4"/>
<text xml:space="preserve" text-anchor="middle" x="68" y="-149.2" font-family="Times,serif" font-size="14.00">quick_research</text>
<!-- quick_search -->
<g id="node1" class="node">
<title>quick_search</title>
<path fill="#e3f2fd" stroke="black" d="M111.25,-142C111.25,-142 24.75,-142 24.75,-142 18.75,-142 12.75,-136 12.75,-130 12.75,-130 12.75,-101 12.75,-101 12.75,-95 18.75,-89 24.75,-89 24.75,-89 111.25,-89 111.25,-89 117.25,-89 123.25,-95 123.25,-101 123.25,-101 123.25,-130 123.25,-130 123.25,-136 117.25,-142 111.25,-142"/>
<text xml:space="preserve" text-anchor="middle" x="68" y="-124.7" font-family="Helvetica,sans-Serif" font-size="14.00">Quick Search</text>
<text xml:space="preserve" text-anchor="middle" x="68" y="-109.7" font-family="Helvetica,sans-Serif" font-size="14.00">(agent)</text>
<text xml:space="preserve" text-anchor="middle" x="68" y="-94.7" font-family="Helvetica,sans-Serif" font-size="14.00">role: researcher</text>
</g>
<!-- quick_summary -->
<g id="node2" class="node">
<title>quick_summary</title>
<path fill="#e3f2fd" stroke="black" d="M124,-53C124,-53 12,-53 12,-53 6,-53 0,-47 0,-41 0,-41 0,-12 0,-12 0,-6 6,0 12,0 12,0 124,0 124,0 130,0 136,-6 136,-12 136,-12 136,-41 136,-41 136,-47 130,-53 124,-53"/>
<text xml:space="preserve" text-anchor="middle" x="68" y="-35.7" font-family="Helvetica,sans-Serif" font-size="14.00">Generate Summary</text>
<text xml:space="preserve" text-anchor="middle" x="68" y="-20.7" font-family="Helvetica,sans-Serif" font-size="14.00">(agent)</text>
<text xml:space="preserve" text-anchor="middle" x="68" y="-5.7" font-family="Helvetica,sans-Serif" font-size="14.00">role: writer</text>
</g>
<!-- quick_search&#45;&gt;quick_summary -->
<g id="edge1" class="edge">
<title>quick_search&#45;&gt;quick_summary</title>
<path fill="none" stroke="black" d="M68,-88.87C68,-81.24 68,-72.72 68,-64.51"/>
<polygon fill="black" stroke="black" points="71.5,-64.76 68,-54.76 64.5,-64.76 71.5,-64.76"/>
</g>
</g>
</svg>
