<?xml version="1.0" encoding="UTF-8" standalone="no"?>
<!DOCTYPE svg PUBLIC "-//W3C//DTD SVG 1.1//EN"
 "http://www.w3.org/Graphics/SVG/1.1/DTD/svg11.dtd">
<!-- Generated by graphviz version 14.0.4 (20251115.1723)
 -->
<!-- Title: workflow Pages: 1 -->
<svg width="621pt" height="1783pt"
 viewBox="0.00 0.00 621.00 1783.00" xmlns="http://www.w3.org/2000/svg" xmlns:xlink="http://www.w3.org/1999/xlink">
<g id="graph0" class="graph" transform="scale(1 1) rotate(0) translate(4 1778.91)">
<title>workflow</title>
<polygon fill="white" stroke="none" points="-4,4 -4,-1778.91 617.13,-1778.91 617.13,4 -4,4"/>
<text xml:space="preserve" text-anchor="middle" x="306.56" y="-1757.61" font-family="Times,serif" font-size="14.00">deep_research</text>
<!-- understand_query -->
<g id="node1" class="node">
<title>understand_query</title>
<path fill="#e3f2fd" stroke="black" d="M601.13,-1750.41C601.13,-1750.41 436.63,-1750.41 436.63,-1750.41 430.63,-1750.41 424.63,-1744.41 424.63,-1738.41 424.63,-1738.41 424.63,-1709.41 424.63,-1709.41 424.63,-1703.41 430.63,-1697.41 436.63,-1697.41 436.63,-1697.41 601.13,-1697.41 601.13,-1697.41 607.13,-1697.41 613.13,-1703.41 613.13,-1709.41 613.13,-1709.41 613.13,-1738.41 613.13,-1738.41 613.13,-1744.41 607.13,-1750.41 601.13,-1750.41"/>
<text xml:space="preserve" text-anchor="middle" x="518.88" y="-1733.11" font-family="Helvetica,sans-Serif" font-size="14.00">Understand Research Query</text>
<text xml:space="preserve" text-anchor="middle" x="518.88" y="-1718.11" font-family="Helvetica,sans-Serif" font-size="14.00">(agent)</text>
<text xml:space="preserve" text-anchor="middle" x="518.88" y="-1703.11" font-family="Helvetica,sans-Serif" font-size="14.00">role: researcher</text>
</g>
<!-- create_search_plan -->
<g id="node2" class="node">
<title>create_search_plan</title>
<path fill="#e3f2fd" stroke="black" d="M521.75,-1660.41C521.75,-1660.41 412,-1660.41 412,-1660.41 406,-1660.41 400,-1654.41 400,-1648.41 400,-1648.41 400,-1619.41 400,-1619.41 400,-1613.41 406,-1607.41 412,-1607.41 412,-1607.41 521.75,-1607.41 521.75,-1607.41 527.75,-1607.41 533.75,-1613.41 533.75,-1619.41 533.75,-1619.41 533.75,-1648.41 533.75,-1648.41 533.75,-1654.41 527.75,-1660.41 521.75,-1660.41"/>
<text xml:space="preserve" text-anchor="middle" x="466.88" y="-1643.11" font-family="Helvetica,sans-Serif" font-size="14.00">Create Search Plan</text>
<text xml:space="preserve" text-anchor="middle" x="466.88" y="-1628.11" font-family="Helvetica,sans-Serif" font-size="14.00">(agent)</text>
<text xml:space="preserve" text-anchor="middle" x="466.88" y="-1613.11" font-family="Helvetica,sans-Serif" font-size="14.00">role: planner</text>
</g>
<!-- understand_query&#45;&gt;create_search_plan -->
<g id="edge1" class="edge">
<title>understand_query&#45;&gt;create_search_plan</title>
<path fill="none" stroke="black" d="M503.56,-1696.98C498.64,-1688.65 493.1,-1679.29 487.85,-1670.4"/>
<polygon fill="black" stroke="black" points="490.96,-1668.78 482.86,-1661.95 484.93,-1672.34 490.96,-1668.78"/>
</g>
<!-- parallel_search -->
<g id="node3" class="node">
<title>parallel_search</title>
<polygon fill="#f3e5f5" stroke="black" points="521.13,-1566.41 350.63,-1566.41 350.63,-1528.41 521.13,-1528.41 521.13,-1566.41"/>
<polygon fill="none" stroke="black" points="525.13,-1570.41 346.63,-1570.41 346.63,-1524.41 525.13,-1524.41 525.13,-1570.41"/>
<text xml:space="preserve" text-anchor="middle" x="435.88" y="-1549.11" font-family="Helvetica,sans-Serif" font-size="14.00">Parallel Source Discovery</text>
<text xml:space="preserve" text-anchor="middle" x="435.88" y="-1534.11" font-family="Helvetica,sans-Serif" font-size="14.00">(parallel)</text>
</g>
<!-- create_search_plan&#45;&gt;parallel_search -->
<g id="edge2" class="edge">
<title>create_search_plan&#45;&gt;parallel_search</title>
<path fill="none" stroke="black" d="M457.41,-1607.09C454.44,-1599 451.11,-1589.94 447.99,-1581.42"/>
<polygon fill="black" stroke="black" points="451.28,-1580.24 444.55,-1572.06 444.71,-1582.65 451.28,-1580.24"/>
</g>
<!-- web_search -->
<g id="node4" class="node">
<title>web_search</title>
<path fill="#e3f2fd" stroke="black" d="M413.13,-1477.16C413.13,-1477.16 326.63,-1477.16 326.63,-1477.16 320.63,-1477.16 314.63,-1471.16 314.63,-1465.16 314.63,-1465.16 314.63,-1436.16 314.63,-1436.16 314.63,-1430.16 320.63,-1424.16 326.63,-1424.16 326.63,-1424.16 413.13,-1424.16 413.13,-1424.16 419.13,-1424.16 425.13,-1430.16 425.13,-1436.16 425.13,-1436.16 425.13,-1465.16 425.13,-1465.16 425.13,-1471.16 419.13,-1477.16 413.13,-1477.16"/>
<text xml:space="preserve" text-anchor="middle" x="369.88" y="-1459.86" font-family="Helvetica,sans-Serif" font-size="14.00">Web Search</text>
<text xml:space="preserve" text-anchor="middle" x="369.88" y="-1444.86" font-family="Helvetica,sans-Serif" font-size="14.00">(agent)</text>
<text xml:space="preserve" text-anchor="middle" x="369.88" y="-1429.86" font-family="Helvetica,sans-Serif" font-size="14.00">role: researcher</text>
</g>
<!-- parallel_search&#45;&gt;web_search -->
<g id="edge3" class="edge">
<title>parallel_search&#45;&gt;web_search</title>
<path fill="none" stroke="black" d="M420.24,-1523.95C412.52,-1512.88 403.03,-1499.26 394.38,-1486.84"/>
<polygon fill="black" stroke="black" points="397.43,-1485.09 388.84,-1478.88 391.68,-1489.09 397.43,-1485.09"/>
<text xml:space="preserve" text-anchor="middle" x="415.08" y="-1496.91" font-family="Helvetica,sans-Serif" font-size="10.00">fork</text>
</g>
<!-- academic_search -->
<g id="node5" class="node">
<title>academic_search</title>
<path fill="#e3f2fd" stroke="black" d="M372.13,-1376.91C372.13,-1376.91 273.63,-1376.91 273.63,-1376.91 267.63,-1376.91 261.63,-1370.91 261.63,-1364.91 261.63,-1364.91 261.63,-1335.91 261.63,-1335.91 261.63,-1329.91 267.63,-1323.91 273.63,-1323.91 273.63,-1323.91 372.13,-1323.91 372.13,-1323.91 378.13,-1323.91 384.13,-1329.91 384.13,-1335.91 384.13,-1335.91 384.13,-1364.91 384.13,-1364.91 384.13,-1370.91 378.13,-1376.91 372.13,-1376.91"/>
<text xml:space="preserve" text-anchor="middle" x="322.88" y="-1359.61" font-family="Helvetica,sans-Serif" font-size="14.00">Academic Search</text>
<text xml:space="preserve" text-anchor="middle" x="322.88" y="-1344.61" font-family="Helvetica,sans-Serif" font-size="14.00">(agent)</text>
<text xml:space="preserve" text-anchor="middle" x="322.88" y="-1329.61" font-family="Helvetica,sans-Serif" font-size="14.00">role: researcher</text>
</g>
<!-- parallel_search&#45;&gt;academic_search -->
<g id="edge4" class="edge">
<title>parallel_search&#45;&gt;academic_search</title>
<path fill="none" stroke="black" d="M348.44,-1523.97C325.3,-1513.62 303,-1498.66 289.38,-1477.16 272.01,-1449.74 284.68,-1413.5 299.15,-1386.97"/>
<polygon fill="black" stroke="black" points="302,-1389.03 303.97,-1378.62 295.93,-1385.53 302,-1389.03"/>
<text xml:space="preserve" text-anchor="middle" x="297.63" y="-1446.78" font-family="Helvetica,sans-Serif" font-size="10.00">fork</text>
</g>
<!-- code_search -->
<g id="node6" class="node">
<title>code_search</title>
<path fill="#e3f2fd" stroke="black" d="M412,-1286.91C412,-1286.91 219.75,-1286.91 219.75,-1286.91 213.75,-1286.91 207.75,-1280.91 207.75,-1274.91 207.75,-1274.91 207.75,-1245.91 207.75,-1245.91 207.75,-1239.91 213.75,-1233.91 219.75,-1233.91 219.75,-1233.91 412,-1233.91 412,-1233.91 418,-1233.91 424,-1239.91 424,-1245.91 424,-1245.91 424,-1274.91 424,-1274.91 424,-1280.91 418,-1286.91 412,-1286.91"/>
<text xml:space="preserve" text-anchor="middle" x="315.88" y="-1269.61" font-family="Helvetica,sans-Serif" font-size="14.00">Code and Documentation Search</text>
<text xml:space="preserve" text-anchor="middle" x="315.88" y="-1254.61" font-family="Helvetica,sans-Serif" font-size="14.00">(agent)</text>
<text xml:space="preserve" text-anchor="middle" x="315.88" y="-1239.61" font-family="Helvetica,sans-Serif" font-size="14.00">role: researcher</text>
</g>
<!-- parallel_search&#45;&gt;code_search -->
<g id="edge5" class="edge">
<title>parallel_search&#45;&gt;code_search</title>
<path fill="none" stroke="black" d="M346.47,-1530.94C318.01,-1520.92 290.41,-1504.39 276.88,-1477.16 246.21,-1415.41 226.37,-1387.55 252.88,-1323.91 257.28,-1313.35 264.42,-1303.65 272.35,-1295.22"/>
<polygon fill="black" stroke="black" points="274.73,-1297.78 279.39,-1288.27 269.82,-1292.8 274.73,-1297.78"/>
<text xml:space="preserve" text-anchor="middle" x="252.78" y="-1396.66" font-family="Helvetica,sans-Serif" font-size="10.00">fork</text>
</g>
<!-- aggregate_sources -->
<g id="node7" class="node">
<title>aggregate_sources</title>
<polygon fill="#eceff1" stroke="black" points="391,-1186.66 240.75,-1186.66 240.75,-1148.66 391,-1148.66 391,-1186.66"/>
<text xml:space="preserve" text-anchor="middle" x="315.88" y="-1169.36" font-family="Helvetica,sans-Serif" font-size="14.00">Aggregate All Sources</text>
<text xml:space="preserve" text-anchor="middle" x="315.88" y="-1154.36" font-family="Helvetica,sans-Serif" font-size="14.00">(transform)</text>
</g>
<!-- parallel_search&#45;&gt;aggregate_sources -->
<g id="edge6" class="edge">
<title>parallel_search&#45;&gt;aggregate_sources</title>
<path fill="none" stroke="black" d="M442.21,-1524.02C447.04,-1504.95 452.88,-1476.73 452.88,-1451.66 452.88,-1451.66 452.88,-1451.66 452.88,-1259.41 452.88,-1226.98 425.87,-1205.46 395.85,-1191.55"/>
<polygon fill="black" stroke="black" points="397.54,-1188.47 386.97,-1187.72 394.77,-1194.9 397.54,-1188.47"/>
<text xml:space="preserve" text-anchor="middle" x="460.38" y="-1346.53" font-family="Helvetica,sans-Serif" font-size="10.00">join</text>
</g>
<!-- web_search&#45;&gt;academic_search -->
<g id="edge7" class="edge">
<title>web_search&#45;&gt;academic_search</title>
<path fill="none" stroke="black" d="M357.53,-1423.84C352.23,-1412.76 345.94,-1399.62 340.19,-1387.59"/>
<polygon fill="black" stroke="black" points="343.43,-1386.27 335.96,-1378.75 337.12,-1389.29 343.43,-1386.27"/>
</g>
<!-- academic_search&#45;&gt;code_search -->
<g id="edge8" class="edge">
<title>academic_search&#45;&gt;code_search</title>
<path fill="none" stroke="black" d="M320.81,-1323.48C320.19,-1315.69 319.5,-1306.99 318.84,-1298.62"/>
<polygon fill="black" stroke="black" points="322.33,-1298.35 318.04,-1288.66 315.35,-1298.9 322.33,-1298.35"/>
</g>
<!-- code_search&#45;&gt;aggregate_sources -->
<g id="edge9" class="edge">
<title>code_search&#45;&gt;aggregate_sources</title>
<path fill="none" stroke="black" d="M315.88,-1233.64C315.88,-1222.6 315.88,-1209.63 315.88,-1198.2"/>
<polygon fill="black" stroke="black" points="319.38,-1198.5 315.88,-1188.5 312.38,-1198.5 319.38,-1198.5"/>
</g>
<!-- validate_sources -->
<g id="node8" class="node">
<title>validate_sources</title>
<path fill="#e3f2fd" stroke="black" d="M382.75,-1101.41C382.75,-1101.41 249,-1101.41 249,-1101.41 243,-1101.41 237,-1095.41 237,-1089.41 237,-1089.41 237,-1060.41 237,-1060.41 237,-1054.41 243,-1048.41 249,-1048.41 249,-1048.41 382.75,-1048.41 382.75,-1048.41 388.75,-1048.41 394.75,-1054.41 394.75,-1060.41 394.75,-1060.41 394.75,-1089.41 394.75,-1089.41 394.75,-1095.41 388.75,-1101.41 382.75,-1101.41"/>
<text xml:space="preserve" text-anchor="middle" x="315.88" y="-1084.11" font-family="Helvetica,sans-Serif" font-size="14.00">Validate Source Quality</text>
<text xml:space="preserve" text-anchor="middle" x="315.88" y="-1069.11" font-family="Helvetica,sans-Serif" font-size="14.00">(agent)</text>
<text xml:space="preserve" text-anchor="middle" x="315.88" y="-1054.11" font-family="Helvetica,sans-Serif" font-size="14.00">role: analyst</text>
</g>
<!-- aggregate_sources&#45;&gt;validate_sources -->
<g id="edge10" class="edge">
<title>aggregate_sources&#45;&gt;validate_sources</title>
<path fill="none" stroke="black" d="M315.88,-1148.29C315.88,-1138.17 315.88,-1125.22 315.88,-1113.08"/>
<polygon fill="black" stroke="black" points="319.38,-1113.32 315.88,-1103.32 312.38,-1113.32 319.38,-1113.32"/>
</g>
<!-- check_coverage -->
<g id="node9" class="node">
<title>check_coverage</title>
<polygon fill="#fff3e0" stroke="black" points="315.88,-1011.41 164.13,-973.41 315.88,-935.41 467.63,-973.41 315.88,-1011.41"/>
<text xml:space="preserve" text-anchor="middle" x="315.88" y="-975.11" font-family="Helvetica,sans-Serif" font-size="14.00">Check Topic Coverage</text>
<text xml:space="preserve" text-anchor="middle" x="315.88" y="-960.11" font-family="Helvetica,sans-Serif" font-size="14.00">(condition)</text>
</g>
<!-- validate_sources&#45;&gt;check_coverage -->
<g id="edge11" class="edge">
<title>validate_sources&#45;&gt;check_coverage</title>
<path fill="none" stroke="black" d="M315.88,-1048.02C315.88,-1040.34 315.88,-1031.65 315.88,-1023.02"/>
<polygon fill="black" stroke="black" points="319.38,-1023.29 315.88,-1013.29 312.38,-1023.29 319.38,-1023.29"/>
</g>
<!-- gap_analysis -->
<g id="node10" class="node">
<title>gap_analysis</title>
<path fill="#e3f2fd" stroke="black" d="M399,-888.16C399,-888.16 254.75,-888.16 254.75,-888.16 248.75,-888.16 242.75,-882.16 242.75,-876.16 242.75,-876.16 242.75,-847.16 242.75,-847.16 242.75,-841.16 248.75,-835.16 254.75,-835.16 254.75,-835.16 399,-835.16 399,-835.16 405,-835.16 411,-841.16 411,-847.16 411,-847.16 411,-876.16 411,-876.16 411,-882.16 405,-888.16 399,-888.16"/>
<text xml:space="preserve" text-anchor="middle" x="326.88" y="-870.86" font-family="Helvetica,sans-Serif" font-size="14.00">Identify Information Gaps</text>
<text xml:space="preserve" text-anchor="middle" x="326.88" y="-855.86" font-family="Helvetica,sans-Serif" font-size="14.00">(agent)</text>
<text xml:space="preserve" text-anchor="middle" x="326.88" y="-840.86" font-family="Helvetica,sans-Serif" font-size="14.00">role: analyst</text>
</g>
<!-- check_coverage&#45;&gt;gap_analysis -->
<g id="edge13" class="edge">
<title>check_coverage&#45;&gt;gap_analysis</title>
<path fill="none" stroke="black" stroke-dasharray="5,2" d="M319.54,-935.86C320.7,-924.26 321.99,-911.43 323.15,-899.79"/>
<polygon fill="black" stroke="black" points="326.61,-900.45 324.12,-890.15 319.64,-899.75 326.61,-900.45"/>
<text xml:space="preserve" text-anchor="middle" x="332.86" y="-907.91" font-family="Helvetica,sans-Serif" font-size="10.00">false</text>
</g>
<!-- synthesize -->
<g id="node13" class="node">
<title>synthesize</title>
<path fill="#e3f2fd" stroke="black" d="M236.25,-562.95C236.25,-562.95 123.5,-562.95 123.5,-562.95 117.5,-562.95 111.5,-556.95 111.5,-550.95 111.5,-550.95 111.5,-521.95 111.5,-521.95 111.5,-515.95 117.5,-509.95 123.5,-509.95 123.5,-509.95 236.25,-509.95 236.25,-509.95 242.25,-509.95 248.25,-515.95 248.25,-521.95 248.25,-521.95 248.25,-550.95 248.25,-550.95 248.25,-556.95 242.25,-562.95 236.25,-562.95"/>
<text xml:space="preserve" text-anchor="middle" x="179.88" y="-545.65" font-family="Helvetica,sans-Serif" font-size="14.00">Synthesize Findings</text>
<text xml:space="preserve" text-anchor="middle" x="179.88" y="-530.65" font-family="Helvetica,sans-Serif" font-size="14.00">(agent)</text>
<text xml:space="preserve" text-anchor="middle" x="179.88" y="-515.65" font-family="Helvetica,sans-Serif" font-size="14.00">role: analyst</text>
</g>
<!-- check_coverage&#45;&gt;synthesize -->
<g id="edge12" class="edge">
<title>check_coverage&#45;&gt;synthesize</title>
<path fill="none" stroke="black" stroke-dasharray="5,2" d="M247.44,-952.03C207.09,-935.34 163.88,-907.09 163.88,-862.66 163.88,-862.66 163.88,-862.66 163.88,-647.2 163.88,-622.67 167.84,-595.37 171.82,-574.14"/>
<polygon fill="black" stroke="black" points="175.22,-575 173.72,-564.51 168.35,-573.64 175.22,-575"/>
<text xml:space="preserve" text-anchor="middle" x="172.13" y="-756.8" font-family="Helvetica,sans-Serif" font-size="10.00">true</text>
</g>
<!-- request_more_research -->
<g id="node11" class="node">
<title>request_more_research</title>
<ellipse fill="#ffebee" stroke="black" cx="332.88" cy="-760.68" rx="134.88" ry="37.48"/>
<text xml:space="preserve" text-anchor="middle" x="332.88" y="-769.88" font-family="Helvetica,sans-Serif" font-size="14.00">Request Additional Research</text>
<text xml:space="preserve" text-anchor="middle" x="332.88" y="-754.88" font-family="Helvetica,sans-Serif" font-size="14.00">(hitl)</text>
<text xml:space="preserve" text-anchor="middle" x="332.88" y="-739.88" font-family="Helvetica,sans-Serif" font-size="14.00">timeout: 600s</text>
</g>
<!-- gap_analysis&#45;&gt;request_more_research -->
<g id="edge14" class="edge">
<title>gap_analysis&#45;&gt;request_more_research</title>
<path fill="none" stroke="black" d="M328.44,-834.91C328.91,-827.18 329.44,-818.45 329.96,-809.77"/>
<polygon fill="black" stroke="black" points="333.44,-810.18 330.55,-799.99 326.46,-809.76 333.44,-810.18"/>
</g>
<!-- handle_gap_decision -->
<g id="node12" class="node">
<title>handle_gap_decision</title>
<polygon fill="#fff3e0" stroke="black" points="449.88,-686.2 305.63,-648.2 449.88,-610.2 594.13,-648.2 449.88,-686.2"/>
<text xml:space="preserve" text-anchor="middle" x="449.88" y="-649.9" font-family="Helvetica,sans-Serif" font-size="14.00">Handle Gap Decision</text>
<text xml:space="preserve" text-anchor="middle" x="449.88" y="-634.9" font-family="Helvetica,sans-Serif" font-size="14.00">(condition)</text>
</g>
<!-- request_more_research&#45;&gt;handle_gap_decision -->
<g id="edge15" class="edge">
<title>request_more_research&#45;&gt;handle_gap_decision</title>
<path fill="none" stroke="black" d="M370.22,-724.42C383.16,-712.2 397.71,-698.46 410.79,-686.11"/>
<polygon fill="black" stroke="black" points="413.18,-688.67 418.05,-679.26 408.37,-683.58 413.18,-688.67"/>
</g>
<!-- handle_gap_decision&#45;&gt;understand_query -->
<g id="edge18" class="edge">
<title>handle_gap_decision&#45;&gt;understand_query</title>
<path fill="none" stroke="black" stroke-dasharray="5,2" d="M500.85,-673.01C532.38,-691.61 566.88,-720.85 566.88,-759.68 566.88,-1634.91 566.88,-1634.91 566.88,-1634.91 566.88,-1653.93 558.12,-1672.75 548.1,-1688.08"/>
<polygon fill="black" stroke="black" points="545.49,-1685.7 542.62,-1695.9 551.22,-1689.71 545.49,-1685.7"/>
<text xml:space="preserve" text-anchor="middle" x="580" y="-1206.41" font-family="Helvetica,sans-Serif" font-size="10.00">adjust</text>
</g>
<!-- handle_gap_decision&#45;&gt;parallel_search -->
<g id="edge17" class="edge">
<title>handle_gap_decision&#45;&gt;parallel_search</title>
<path fill="none" stroke="black" stroke-dasharray="5,2" d="M470.99,-681.12C483.08,-702.44 495.88,-731.63 495.88,-759.68 495.88,-1451.66 495.88,-1451.66 495.88,-1451.66 495.88,-1475.53 482.11,-1498.27 467.77,-1515.49"/>
<polygon fill="black" stroke="black" points="465.28,-1513.02 461.28,-1522.83 470.53,-1517.65 465.28,-1513.02"/>
<text xml:space="preserve" text-anchor="middle" x="524" y="-1121.16" font-family="Helvetica,sans-Serif" font-size="10.00">search_more</text>
</g>
<!-- handle_gap_decision&#45;&gt;synthesize -->
<g id="edge16" class="edge">
<title>handle_gap_decision&#45;&gt;synthesize</title>
<path fill="none" stroke="black" stroke-dasharray="5,2" d="M393.93,-624.46C353.46,-608.01 298.36,-585.62 254.2,-567.66"/>
<polygon fill="black" stroke="black" points="255.79,-564.53 245.2,-564.01 253.15,-571.02 255.79,-564.53"/>
<text xml:space="preserve" text-anchor="middle" x="325.16" y="-582.7" font-family="Helvetica,sans-Serif" font-size="10.00">continue</text>
</g>
<!-- generate_citations -->
<g id="node14" class="node">
<title>generate_citations</title>
<polygon fill="#e8f5e9" stroke="black" points="359.75,-472.95 73.61,-472.95 0,-276.95 286.14,-276.95 359.75,-472.95"/>
<text xml:space="preserve" text-anchor="middle" x="179.88" y="-406.65" font-family="Helvetica,sans-Serif" font-size="14.00">Generate Citations</text>
<text xml:space="preserve" text-anchor="middle" x="179.88" y="-391.65" font-family="Helvetica,sans-Serif" font-size="14.00">(compute)</text>
<text xml:space="preserve" text-anchor="middle" x="179.88" y="-376.65" font-family="Helvetica,sans-Serif" font-size="14.00">exec: in&#45;process</text>
<text xml:space="preserve" text-anchor="middle" x="179.88" y="-361.65" font-family="Helvetica,sans-Serif" font-size="14.00">handler: citation_formatter</text>
<text xml:space="preserve" text-anchor="middle" x="179.88" y="-346.65" font-family="Helvetica,sans-Serif" font-size="14.00">blocked: [llm, write]</text>
<text xml:space="preserve" text-anchor="middle" x="179.88" y="-331.65" font-family="Helvetica,sans-Serif" font-size="14.00">timeout: 60s</text>
</g>
<!-- synthesize&#45;&gt;generate_citations -->
<g id="edge19" class="edge">
<title>synthesize&#45;&gt;generate_citations</title>
<path fill="none" stroke="black" d="M179.88,-509.47C179.88,-502.13 179.88,-493.65 179.88,-484.59"/>
<polygon fill="black" stroke="black" points="183.38,-484.81 179.88,-474.81 176.38,-484.81 183.38,-484.81"/>
</g>
<!-- review_synthesis -->
<g id="node15" class="node">
<title>review_synthesis</title>
<ellipse fill="#ffebee" stroke="black" cx="179.88" cy="-202.48" rx="86.62" ry="37.48"/>
<text xml:space="preserve" text-anchor="middle" x="179.88" y="-211.68" font-family="Helvetica,sans-Serif" font-size="14.00">Review Synthesis</text>
<text xml:space="preserve" text-anchor="middle" x="179.88" y="-196.68" font-family="Helvetica,sans-Serif" font-size="14.00">(hitl)</text>
<text xml:space="preserve" text-anchor="middle" x="179.88" y="-181.68" font-family="Helvetica,sans-Serif" font-size="14.00">timeout: 900s</text>
</g>
<!-- generate_citations&#45;&gt;review_synthesis -->
<g id="edge20" class="edge">
<title>generate_citations&#45;&gt;review_synthesis</title>
<path fill="none" stroke="black" d="M179.88,-276.76C179.88,-268.02 179.88,-259.45 179.88,-251.43"/>
<polygon fill="black" stroke="black" points="183.38,-251.63 179.88,-241.63 176.38,-251.63 183.38,-251.63"/>
</g>
<!-- generate_report -->
<g id="node16" class="node">
<title>generate_report</title>
<path fill="#e3f2fd" stroke="black" d="M257.25,-128C257.25,-128 102.5,-128 102.5,-128 96.5,-128 90.5,-122 90.5,-116 90.5,-116 90.5,-87 90.5,-87 90.5,-81 96.5,-75 102.5,-75 102.5,-75 257.25,-75 257.25,-75 263.25,-75 269.25,-81 269.25,-87 269.25,-87 269.25,-116 269.25,-116 269.25,-122 263.25,-128 257.25,-128"/>
<text xml:space="preserve" text-anchor="middle" x="179.88" y="-110.7" font-family="Helvetica,sans-Serif" font-size="14.00">Generate Research Report</text>
<text xml:space="preserve" text-anchor="middle" x="179.88" y="-95.7" font-family="Helvetica,sans-Serif" font-size="14.00">(agent)</text>
<text xml:space="preserve" text-anchor="middle" x="179.88" y="-80.7" font-family="Helvetica,sans-Serif" font-size="14.00">role: writer</text>
</g>
<!-- review_synthesis&#45;&gt;generate_report -->
<g id="edge21" class="edge">
<title>review_synthesis&#45;&gt;generate_report</title>
<path fill="none" stroke="black" d="M179.88,-164.62C179.88,-156.5 179.88,-147.89 179.88,-139.75"/>
<polygon fill="black" stroke="black" points="183.38,-139.78 179.88,-129.78 176.38,-139.78 183.38,-139.78"/>
</g>
<!-- complete -->
<g id="node17" class="node">
<title>complete</title>
<polygon fill="#eceff1" stroke="black" points="247.88,-38 111.88,-38 111.88,0 247.88,0 247.88,-38"/>
<text xml:space="preserve" text-anchor="middle" x="179.88" y="-20.7" font-family="Helvetica,sans-Serif" font-size="14.00">Research Complete</text>
<text xml:space="preserve" text-anchor="middle" x="179.88" y="-5.7" font-family="Helvetica,sans-Serif" font-size="14.00">(transform)</text>
</g>
<!-- generate_report&#45;&gt;complete -->
<g id="edge22" class="edge">
<title>generate_report&#45;&gt;complete</title>
<path fill="none" stroke="black" d="M179.88,-74.59C179.88,-66.68 179.88,-57.93 179.88,-49.79"/>
<polygon fill="black" stroke="black" points="183.38,-49.98 179.88,-39.98 176.38,-49.98 183.38,-49.98"/>
</g>
</g>
</svg>
