<?xml version="1.0" encoding="UTF-8" standalone="no"?>
<!DOCTYPE svg PUBLIC "-//W3C//DTD SVG 1.1//EN"
 "http://www.w3.org/Graphics/SVG/1.1/DTD/svg11.dtd">
<!-- Generated by graphviz version 14.0.4 (20251115.1723)
 -->
<!-- Title: workflow Pages: 1 -->
<svg width="191pt" height="175pt"
 viewBox="0.00 0.00 191.00 175.00" xmlns="http://www.w3.org/2000/svg" xmlns:xlink="http://www.w3.org/1999/xlink">
<g id="graph0" class="graph" transform="scale(1 1) rotate(0) translate(4 170.5)">
<title>workflow</title>
<polygon fill="white" stroke="none" points="-4,4 -4,-170.5 187.25,-170.5 187.25,4 -4,4"/>
<text xml:space="preserve" text-anchor="middle" x="91.62" y="-149.2" font-family="Times,serif" font-size="14.00">competitive_scan</text>
<!-- quick_research -->
<g id="node1" class="node">
<title>quick_research</title>
<path fill="#e3f2fd" stroke="black" d="M171.25,-142C171.25,-142 12,-142 12,-142 6,-142 0,-136 0,-130 0,-130 0,-101 0,-101 0,-95 6,-89 12,-89 12,-89 171.25,-89 171.25,-89 177.25,-89 183.25,-95 183.25,-101 183.25,-101 183.25,-130 183.25,-130 183.25,-136 177.25,-142 171.25,-142"/>
<text xml:space="preserve" text-anchor="middle" x="91.62" y="-124.7" font-family="Helvetica,sans-Serif" font-size="14.00">Quick Competitor Research</text>
<text xml:space="preserve" text-anchor="middle" x="91.62" y="-109.7" font-family="Helvetica,sans-Serif" font-size="14.00">(agent)</text>
<text xml:space="preserve" text-anchor="middle" x="91.62" y="-94.7" font-family="Helvetica,sans-Serif" font-size="14.00">role: researcher</text>
</g>
<!-- quick_summary -->
<g id="node2" class="node">
<title>quick_summary</title>
<path fill="#e3f2fd" stroke="black" d="M167.12,-53C167.12,-53 16.13,-53 16.13,-53 10.12,-53 4.12,-47 4.12,-41 4.12,-41 4.12,-12 4.12,-12 4.12,-6 10.12,0 16.12,0 16.12,0 167.12,0 167.12,0 173.12,0 179.12,-6 179.12,-12 179.12,-12 179.12,-41 179.12,-41 179.12,-47 173.12,-53 167.12,-53"/>
<text xml:space="preserve" text-anchor="middle" x="91.62" y="-35.7" font-family="Helvetica,sans-Serif" font-size="14.00">Generate Quick Summary</text>
<text xml:space="preserve" text-anchor="middle" x="91.62" y="-20.7" font-family="Helvetica,sans-Serif" font-size="14.00">(agent)</text>
<text xml:space="preserve" text-anchor="middle" x="91.62" y="-5.7" font-family="Helvetica,sans-Serif" font-size="14.00">role: writer</text>
</g>
<!-- quick_research&#45;&gt;quick_summary -->
<g id="edge1" class="edge">
<title>quick_research&#45;&gt;quick_summary</title>
<path fill="none" stroke="black" d="M91.62,-88.87C91.62,-81.24 91.62,-72.72 91.62,-64.51"/>
<polygon fill="black" stroke="black" points="95.13,-64.76 91.63,-54.76 88.13,-64.76 95.13,-64.76"/>
</g>
</g>
</svg>
