<svg aria-roledescription="flowchart-v2" role="graphics-document document" viewBox="0 0 1954.390625 340" style="max-width: 1954.39px; background-color: transparent;" class="flowchart" xmlns:xlink="http://www.w3.org/1999/xlink" xmlns="http://www.w3.org/2000/svg" width="100%" id="my-svg"><style>#my-svg{font-family:"trebuchet ms",verdana,arial,sans-serif;font-size:16px;fill:#333;}#my-svg .error-icon{fill:#552222;}#my-svg .error-text{fill:#552222;stroke:#552222;}#my-svg .edge-thickness-normal{stroke-width:1px;}#my-svg .edge-thickness-thick{stroke-width:3.5px;}#my-svg .edge-pattern-solid{stroke-dasharray:0;}#my-svg .edge-thickness-invisible{stroke-width:0;fill:none;}#my-svg .edge-pattern-dashed{stroke-dasharray:3;}#my-svg .edge-pattern-dotted{stroke-dasharray:2;}#my-svg .marker{fill:#333333;stroke:#333333;}#my-svg .marker.cross{stroke:#333333;}#my-svg svg{font-family:"trebuchet ms",verdana,arial,sans-serif;font-size:16px;}#my-svg p{margin:0;}#my-svg .label{font-family:"trebuchet ms",verdana,arial,sans-serif;color:#333;}#my-svg .cluster-label text{fill:#333;}#my-svg .cluster-label span{color:#333;}#my-svg .cluster-label span p{background-color:transparent;}#my-svg .label text,#my-svg span{fill:#333;color:#333;}#my-svg .node rect,#my-svg .node circle,#my-svg .node ellipse,#my-svg .node polygon,#my-svg .node path{fill:#ECECFF;stroke:#9370DB;stroke-width:1px;}#my-svg .rough-node .label text,#my-svg .node .label text,#my-svg .image-shape .label,#my-svg .icon-shape .label{text-anchor:middle;}#my-svg .node .katex path{fill:#000;stroke:#000;stroke-width:1px;}#my-svg .rough-node .label,#my-svg .node .label,#my-svg .image-shape .label,#my-svg .icon-shape .label{text-align:center;}#my-svg .node.clickable{cursor:pointer;}#my-svg .root .anchor path{fill:#333333!important;stroke-width:0;stroke:#333333;}#my-svg .arrowheadPath{fill:#333333;}#my-svg .edgePath .path{stroke:#333333;stroke-width:2.0px;}#my-svg .flowchart-link{stroke:#333333;fill:none;}#my-svg .edgeLabel{background-color:rgba(232,232,232, 0.8);text-align:center;}#my-svg .edgeLabel p{background-color:rgba(232,232,232, 0.8);}#my-svg .edgeLabel rect{opacity:0.5;background-color:rgba(232,232,232, 0.8);fill:rgba(232,232,232, 0.8);}#my-svg .labelBkg{background-color:rgba(232, 232, 232, 0.5);}#my-svg .cluster rect{fill:#ffffde;stroke:#aaaa33;stroke-width:1px;}#my-svg .cluster text{fill:#333;}#my-svg .cluster span{color:#333;}#my-svg div.mermaidTooltip{position:absolute;text-align:center;max-width:200px;padding:2px;font-family:"trebuchet ms",verdana,arial,sans-serif;font-size:12px;background:hsl(80, 100%, 96.2745098039%);border:1px solid #aaaa33;border-radius:2px;pointer-events:none;z-index:100;}#my-svg .flowchartTitleText{text-anchor:middle;font-size:18px;fill:#333;}#my-svg rect.text{fill:none;stroke-width:0;}#my-svg .icon-shape,#my-svg .image-shape{background-color:rgba(232,232,232, 0.8);text-align:center;}#my-svg .icon-shape p,#my-svg .image-shape p{background-color:rgba(232,232,232, 0.8);padding:2px;}#my-svg .icon-shape rect,#my-svg .image-shape rect{opacity:0.5;background-color:rgba(232,232,232, 0.8);fill:rgba(232,232,232, 0.8);}#my-svg :root{--mermaid-font-family:"trebuchet ms",verdana,arial,sans-serif;}#my-svg .phase&gt;*{fill:#ecfeff!important;stroke:#0891b2!important;color:#0f172a!important;}#my-svg .phase span{fill:#ecfeff!important;stroke:#0891b2!important;color:#0f172a!important;}#my-svg .phase tspan{fill:#0f172a!important;}#my-svg .decide&gt;*{fill:#fffbeb!important;stroke:#d97706!important;color:#451a03!important;}#my-svg .decide span{fill:#fffbeb!important;stroke:#d97706!important;color:#451a03!important;}#my-svg .decide tspan{fill:#451a03!important;}#my-svg .term&gt;*{fill:#f0fdf4!important;stroke:#16a34a!important;color:#052e16!important;}#my-svg .term span{fill:#f0fdf4!important;stroke:#16a34a!important;color:#052e16!important;}#my-svg .term tspan{fill:#052e16!important;}</style><g><marker orient="auto" markerHeight="8" markerWidth="8" markerUnits="userSpaceOnUse" refY="5" refX="5" viewBox="0 0 10 10" class="marker flowchart-v2" id="my-svg_flowchart-v2-pointEnd"><path style="stroke-width: 1; stroke-dasharray: 1, 0;" class="arrowMarkerPath" d="M 0 0 L 10 5 L 0 10 z"/></marker><marker orient="auto" markerHeight="8" markerWidth="8" markerUnits="userSpaceOnUse" refY="5" refX="4.5" viewBox="0 0 10 10" class="marker flowchart-v2" id="my-svg_flowchart-v2-pointStart"><path style="stroke-width: 1; stroke-dasharray: 1, 0;" class="arrowMarkerPath" d="M 0 5 L 10 10 L 10 0 z"/></marker><marker orient="auto" markerHeight="11" markerWidth="11" markerUnits="userSpaceOnUse" refY="5" refX="11" viewBox="0 0 10 10" class="marker flowchart-v2" id="my-svg_flowchart-v2-circleEnd"><circle style="stroke-width: 1; stroke-dasharray: 1, 0;" class="arrowMarkerPath" r="5" cy="5" cx="5"/></marker><marker orient="auto" markerHeight="11" markerWidth="11" markerUnits="userSpaceOnUse" refY="5" refX="-1" viewBox="0 0 10 10" class="marker flowchart-v2" id="my-svg_flowchart-v2-circleStart"><circle style="stroke-width: 1; stroke-dasharray: 1, 0;" class="arrowMarkerPath" r="5" cy="5" cx="5"/></marker><marker orient="auto" markerHeight="11" markerWidth="11" markerUnits="userSpaceOnUse" refY="5.2" refX="12" viewBox="0 0 11 11" class="marker cross flowchart-v2" id="my-svg_flowchart-v2-crossEnd"><path style="stroke-width: 2; stroke-dasharray: 1, 0;" class="arrowMarkerPath" d="M 1,1 l 9,9 M 10,1 l -9,9"/></marker><marker orient="auto" markerHeight="11" markerWidth="11" markerUnits="userSpaceOnUse" refY="5.2" refX="-1" viewBox="0 0 11 11" class="marker cross flowchart-v2" id="my-svg_flowchart-v2-crossStart"><path style="stroke-width: 2; stroke-dasharray: 1, 0;" class="arrowMarkerPath" d="M 1,1 l 9,9 M 10,1 l -9,9"/></marker><g class="root"><g class="clusters"/><g class="edgePaths"><path marker-end="url(#my-svg_flowchart-v2-pointEnd)" style="" class="edge-thickness-normal edge-pattern-solid edge-thickness-normal edge-pattern-solid flowchart-link" id="L_P_PL_0" d="M191.026,179L208.022,166.5C225.018,154,259.009,129,278.088,116.5C297.167,104,301.333,104,304.833,104C308.333,104,311.167,104,312.583,104L314,104"/><path marker-end="url(#my-svg_flowchart-v2-pointEnd)" style="" class="edge-thickness-normal edge-pattern-solid edge-thickness-normal edge-pattern-solid flowchart-link" id="L_PL_A_1" d="M578,104L582.167,104C586.333,104,594.667,104,600.917,104C607.167,104,611.333,104,614.833,104C618.333,104,621.167,104,622.583,104L624,104"/><path marker-end="url(#my-svg_flowchart-v2-pointEnd)" style="" class="edge-thickness-normal edge-pattern-solid edge-thickness-normal edge-pattern-solid flowchart-link" id="L_A_E_2" d="M946.188,104L950.354,104C954.521,104,962.854,104,969.104,104C975.354,104,979.521,104,983.021,104C986.521,104,989.354,104,990.771,104L992.188,104"/><path marker-end="url(#my-svg_flowchart-v2-pointEnd)" style="" class="edge-thickness-normal edge-pattern-solid edge-thickness-normal edge-pattern-solid flowchart-link" id="L_E_D_3" d="M1256.188,104L1260.354,104C1264.521,104,1272.854,104,1281.552,105.219C1290.25,106.438,1299.312,108.875,1307.731,111.14C1316.15,113.404,1323.924,115.495,1327.812,116.541L1331.699,117.587"/><path marker-end="url(#my-svg_flowchart-v2-pointEnd)" style="" class="edge-thickness-normal edge-pattern-solid edge-thickness-normal edge-pattern-solid flowchart-link" id="L_D_P_4" d="M1348.683,189.496L1337.434,194.246C1326.185,198.997,1303.686,208.499,1266.603,213.249C1229.521,218,1177.854,218,1126.188,218C1074.521,218,1022.854,218,966.339,218C909.823,218,848.458,218,787.094,218C725.729,218,664.365,218,607.849,218C551.333,218,499.667,218,448,218C396.333,218,344.667,218,316.75,218C288.833,218,284.667,218,281.167,218C277.667,218,274.833,218,273.417,218L272,218"/><path marker-end="url(#my-svg_flowchart-v2-pointEnd)" style="" class="edge-thickness-normal edge-pattern-solid edge-thickness-normal edge-pattern-solid flowchart-link" id="L_D_DONE_5" d="M1570.429,133.242L1581.634,131.868C1592.838,130.494,1615.247,127.747,1634.781,126.374C1654.315,125,1670.974,125,1686.966,125C1702.958,125,1718.284,125,1725.947,125L1733.609,125"/><path marker-end="url(#my-svg_flowchart-v2-pointEnd)" style="" class="edge-thickness-normal edge-pattern-solid edge-thickness-normal edge-pattern-solid flowchart-link" id="L_D_REC_6" d="M1547.23,184.958L1562.301,190.465C1577.372,195.972,1607.514,206.986,1632.993,217.493C1658.473,228,1679.289,238,1699.504,247.711C1719.719,257.423,1739.334,266.845,1749.141,271.557L1758.948,276.268"/><path marker-end="url(#my-svg_flowchart-v2-pointEnd)" style="" class="edge-thickness-normal edge-pattern-solid edge-thickness-normal edge-pattern-solid flowchart-link" id="L_REC_P_7" d="M1691.125,316.276L1682.214,317.063C1673.302,317.851,1655.479,319.425,1614.49,320.213C1573.5,321,1509.344,321,1449.932,321C1390.521,321,1335.854,321,1282.688,321C1229.521,321,1177.854,321,1126.188,321C1074.521,321,1022.854,321,966.339,321C909.823,321,848.458,321,787.094,321C725.729,321,664.365,321,607.849,321C551.333,321,499.667,321,448,321C396.333,321,344.667,321,310.807,315.667C276.948,310.333,260.896,299.667,245.4,289.369C229.903,279.071,214.962,269.143,207.491,264.178L200.021,259.214"/></g><g class="edgeLabels"><g class="edgeLabel"><g transform="translate(0, 0)" class="label"><foreignObject height="0" width="0"><div style="display: table-cell; white-space: nowrap; line-height: 1.5; max-width: 200px; text-align: center;" class="labelBkg" xmlns="http://www.w3.org/1999/xhtml"><span class="edgeLabel"></span></div></foreignObject></g></g><g class="edgeLabel"><g transform="translate(0, 0)" class="label"><foreignObject height="0" width="0"><div style="display: table-cell; white-space: nowrap; line-height: 1.5; max-width: 200px; text-align: center;" class="labelBkg" xmlns="http://www.w3.org/1999/xhtml"><span class="edgeLabel"></span></div></foreignObject></g></g><g class="edgeLabel"><g transform="translate(0, 0)" class="label"><foreignObject height="0" width="0"><div style="display: table-cell; white-space: nowrap; line-height: 1.5; max-width: 200px; text-align: center;" class="labelBkg" xmlns="http://www.w3.org/1999/xhtml"><span class="edgeLabel"></span></div></foreignObject></g></g><g class="edgeLabel"><g transform="translate(0, 0)" class="label"><foreignObject height="0" width="0"><div style="display: table-cell; white-space: nowrap; line-height: 1.5; max-width: 200px; text-align: center;" class="labelBkg" xmlns="http://www.w3.org/1999/xhtml"><span class="edgeLabel"></span></div></foreignObject></g></g><g transform="translate(787.09375, 218)" class="edgeLabel"><g transform="translate(-31.734375, -12)" class="label"><foreignObject height="24" width="63.46875"><div style="display: table-cell; white-space: nowrap; line-height: 1.5; max-width: 200px; text-align: center;" class="labelBkg" xmlns="http://www.w3.org/1999/xhtml"><span class="edgeLabel"><p>not done</p></span></div></foreignObject></g></g><g transform="translate(1637.65625, 125)" class="edgeLabel"><g transform="translate(-28.46875, -12)" class="label"><foreignObject height="24" width="56.9375"><div style="display: table-cell; white-space: nowrap; line-height: 1.5; max-width: 200px; text-align: center;" class="labelBkg" xmlns="http://www.w3.org/1999/xhtml"><span class="edgeLabel"><p>fulfilled</p></span></div></foreignObject></g></g><g transform="translate(1637.65625, 218)" class="edgeLabel"><g transform="translate(-18.78125, -12)" class="label"><foreignObject height="24" width="37.5625"><div style="display: table-cell; white-space: nowrap; line-height: 1.5; max-width: 200px; text-align: center;" class="labelBkg" xmlns="http://www.w3.org/1999/xhtml"><span class="edgeLabel"><p>stuck</p></span></div></foreignObject></g></g><g class="edgeLabel"><g transform="translate(0, 0)" class="label"><foreignObject height="0" width="0"><div style="display: table-cell; white-space: nowrap; line-height: 1.5; max-width: 200px; text-align: center;" class="labelBkg" xmlns="http://www.w3.org/1999/xhtml"><span class="edgeLabel"></span></div></foreignObject></g></g></g><g class="nodes"><g transform="translate(138, 218)" id="flowchart-P-0" class="node default phase"><rect height="78" width="260" y="-39" x="-130" style="fill:#ecfeff !important;stroke:#0891b2 !important" class="basic label-container"/><g transform="translate(-100, -24)" style="color:#0f172a !important" class="label"><rect/><foreignObject height="48" width="200"><div xmlns="http://www.w3.org/1999/xhtml" style="color: rgb(15, 23, 42) !important; display: table; white-space: break-spaces; line-height: 1.5; max-width: 200px; text-align: center; width: 200px;"><span class="nodeLabel" style="color:#0f172a !important"><p>PERCEIVE\nparse intent + requirements</p></span></div></foreignObject></g></g><g transform="translate(448, 104)" id="flowchart-PL-1" class="node default phase"><rect height="78" width="260" y="-39" x="-130" style="fill:#ecfeff !important;stroke:#0891b2 !important" class="basic label-container"/><g transform="translate(-100, -24)" style="color:#0f172a !important" class="label"><rect/><foreignObject height="48" width="200"><div xmlns="http://www.w3.org/1999/xhtml" style="color: rgb(15, 23, 42) !important; display: table; white-space: break-spaces; line-height: 1.5; max-width: 200px; text-align: center; width: 200px;"><span class="nodeLabel" style="color:#0f172a !important"><p>PLAN\nchoose tools + approach</p></span></div></foreignObject></g></g><g transform="translate(787.09375, 104)" id="flowchart-A-3" class="node default phase"><rect height="78" width="318.1875" y="-39" x="-159.09375" style="fill:#ecfeff !important;stroke:#0891b2 !important" class="basic label-container"/><g transform="translate(-129.09375, -24)" style="color:#0f172a !important" class="label"><rect/><foreignObject height="48" width="258.1875"><div xmlns="http://www.w3.org/1999/xhtml" style="color: rgb(15, 23, 42) !important; display: table; white-space: break-spaces; line-height: 1.5; max-width: 200px; text-align: center; width: 200px;"><span class="nodeLabel" style="color:#0f172a !important"><p>ACT\nExecutionCoordinator\nsingle LLM call + tool exec</p></span></div></foreignObject></g></g><g transform="translate(1126.1875, 104)" id="flowchart-E-5" class="node default phase"><rect height="78" width="260" y="-39" x="-130" style="fill:#ecfeff !important;stroke:#0891b2 !important" class="basic label-container"/><g transform="translate(-100, -24)" style="color:#0f172a !important" class="label"><rect/><foreignObject height="48" width="200"><div xmlns="http://www.w3.org/1999/xhtml" style="color: rgb(15, 23, 42) !important; display: table; white-space: break-spaces; line-height: 1.5; max-width: 200px; text-align: center; width: 200px;"><span class="nodeLabel" style="color:#0f172a !important"><p>EVALUATE\nprogress + fulfillment + spin detect</p></span></div></foreignObject></g></g><g transform="translate(1445.1875, 147)" id="flowchart-D-7" class="node default decide"><polygon style="fill:#fffbeb !important;stroke:#d97706 !important" transform="translate(-139,139)" class="label-container" points="139,0 278,-139 139,-278 0,-139"/><g transform="translate(-100, -24)" style="color:#451a03 !important" class="label"><rect/><foreignObject height="48" width="200"><div xmlns="http://www.w3.org/1999/xhtml" style="color: rgb(69, 26, 3) !important; display: table; white-space: break-spaces; line-height: 1.5; max-width: 200px; text-align: center; width: 200px;"><span class="nodeLabel" style="color:#451a03 !important"><p>DECIDE\ncontinue / retry / complete</p></span></div></foreignObject></g></g><g transform="translate(1818.7578125, 125)" id="flowchart-DONE-11" class="node default term"><rect height="54" width="162.296875" y="-27" x="-81.1484375" style="fill:#f0fdf4 !important;stroke:#16a34a !important" class="basic label-container"/><g transform="translate(-51.1484375, -12)" style="color:#052e16 !important" class="label"><rect/><foreignObject height="24" width="102.296875"><div xmlns="http://www.w3.org/1999/xhtml" style="color: rgb(5, 46, 22) !important; display: table-cell; white-space: nowrap; line-height: 1.5; max-width: 200px; text-align: center;"><span class="nodeLabel" style="color:#052e16 !important"><p>Task complete</p></span></div></foreignObject></g></g><g transform="translate(1818.7578125, 305)" id="flowchart-REC-13" class="node default phase"><rect height="54" width="255.265625" y="-27" x="-127.6328125" style="fill:#ecfeff !important;stroke:#0891b2 !important" class="basic label-container"/><g transform="translate(-97.6328125, -12)" style="color:#0f172a !important" class="label"><rect/><foreignObject height="24" width="195.265625"><div xmlns="http://www.w3.org/1999/xhtml" style="color: rgb(15, 23, 42) !important; display: table-cell; white-space: nowrap; line-height: 1.5; max-width: 200px; text-align: center;"><span class="nodeLabel" style="color:#0f172a !important"><p>Recovery\nRecoveryService</p></span></div></foreignObject></g></g></g></g></g></svg>