<svg aria-roledescription="flowchart-v2" role="graphics-document document" viewBox="0 0 809.3319702148438 1643.6875" style="max-width: 809.332px; background-color: transparent;" class="flowchart" xmlns:xlink="http://www.w3.org/1999/xlink" xmlns="http://www.w3.org/2000/svg" width="100%" id="my-svg"><style>#my-svg{font-family:"trebuchet ms",verdana,arial,sans-serif;font-size:16px;fill:#333;}#my-svg .error-icon{fill:#552222;}#my-svg .error-text{fill:#552222;stroke:#552222;}#my-svg .edge-thickness-normal{stroke-width:1px;}#my-svg .edge-thickness-thick{stroke-width:3.5px;}#my-svg .edge-pattern-solid{stroke-dasharray:0;}#my-svg .edge-thickness-invisible{stroke-width:0;fill:none;}#my-svg .edge-pattern-dashed{stroke-dasharray:3;}#my-svg .edge-pattern-dotted{stroke-dasharray:2;}#my-svg .marker{fill:#333333;stroke:#333333;}#my-svg .marker.cross{stroke:#333333;}#my-svg svg{font-family:"trebuchet ms",verdana,arial,sans-serif;font-size:16px;}#my-svg p{margin:0;}#my-svg .label{font-family:"trebuchet ms",verdana,arial,sans-serif;color:#333;}#my-svg .cluster-label text{fill:#333;}#my-svg .cluster-label span{color:#333;}#my-svg .cluster-label span p{background-color:transparent;}#my-svg .label text,#my-svg span{fill:#333;color:#333;}#my-svg .node rect,#my-svg .node circle,#my-svg .node ellipse,#my-svg .node polygon,#my-svg .node path{fill:#ECECFF;stroke:#9370DB;stroke-width:1px;}#my-svg .rough-node .label text,#my-svg .node .label text,#my-svg .image-shape .label,#my-svg .icon-shape .label{text-anchor:middle;}#my-svg .node .katex path{fill:#000;stroke:#000;stroke-width:1px;}#my-svg .rough-node .label,#my-svg .node .label,#my-svg .image-shape .label,#my-svg .icon-shape .label{text-align:center;}#my-svg .node.clickable{cursor:pointer;}#my-svg .root .anchor path{fill:#333333!important;stroke-width:0;stroke:#333333;}#my-svg .arrowheadPath{fill:#333333;}#my-svg .edgePath .path{stroke:#333333;stroke-width:2.0px;}#my-svg .flowchart-link{stroke:#333333;fill:none;}#my-svg .edgeLabel{background-color:rgba(232,232,232, 0.8);text-align:center;}#my-svg .edgeLabel p{background-color:rgba(232,232,232, 0.8);}#my-svg .edgeLabel rect{opacity:0.5;background-color:rgba(232,232,232, 0.8);fill:rgba(232,232,232, 0.8);}#my-svg .labelBkg{background-color:rgba(232, 232, 232, 0.5);}#my-svg .cluster rect{fill:#ffffde;stroke:#aaaa33;stroke-width:1px;}#my-svg .cluster text{fill:#333;}#my-svg .cluster span{color:#333;}#my-svg div.mermaidTooltip{position:absolute;text-align:center;max-width:200px;padding:2px;font-family:"trebuchet ms",verdana,arial,sans-serif;font-size:12px;background:hsl(80, 100%, 96.2745098039%);border:1px solid #aaaa33;border-radius:2px;pointer-events:none;z-index:100;}#my-svg .flowchartTitleText{text-anchor:middle;font-size:18px;fill:#333;}#my-svg rect.text{fill:none;stroke-width:0;}#my-svg .icon-shape,#my-svg .image-shape{background-color:rgba(232,232,232, 0.8);text-align:center;}#my-svg .icon-shape p,#my-svg .image-shape p{background-color:rgba(232,232,232, 0.8);padding:2px;}#my-svg .icon-shape rect,#my-svg .image-shape rect{opacity:0.5;background-color:rgba(232,232,232, 0.8);fill:rgba(232,232,232, 0.8);}#my-svg :root{--mermaid-font-family:"trebuchet ms",verdana,arial,sans-serif;}#my-svg .user&gt;*{fill:#eff6ff!important;stroke:#1d4ed8!important;color:#0f172a!important;}#my-svg .user span{fill:#eff6ff!important;stroke:#1d4ed8!important;color:#0f172a!important;}#my-svg .user tspan{fill:#0f172a!important;}#my-svg .fw&gt;*{fill:#f0fdf4!important;stroke:#16a34a!important;color:#052e16!important;}#my-svg .fw span{fill:#f0fdf4!important;stroke:#16a34a!important;color:#052e16!important;}#my-svg .fw tspan{fill:#052e16!important;}#my-svg .svc&gt;*{fill:#fffbeb!important;stroke:#d97706!important;color:#451a03!important;}#my-svg .svc span{fill:#fffbeb!important;stroke:#d97706!important;color:#451a03!important;}#my-svg .svc tspan{fill:#451a03!important;}#my-svg .ext&gt;*{fill:#f5f3ff!important;stroke:#7c3aed!important;color:#1e1b4b!important;}#my-svg .ext span{fill:#f5f3ff!important;stroke:#7c3aed!important;color:#1e1b4b!important;}#my-svg .ext tspan{fill:#1e1b4b!important;}</style><g><marker orient="auto" markerHeight="8" markerWidth="8" markerUnits="userSpaceOnUse" refY="5" refX="5" viewBox="0 0 10 10" class="marker flowchart-v2" id="my-svg_flowchart-v2-pointEnd"><path style="stroke-width: 1; stroke-dasharray: 1, 0;" class="arrowMarkerPath" d="M 0 0 L 10 5 L 0 10 z"/></marker><marker orient="auto" markerHeight="8" markerWidth="8" markerUnits="userSpaceOnUse" refY="5" refX="4.5" viewBox="0 0 10 10" class="marker flowchart-v2" id="my-svg_flowchart-v2-pointStart"><path style="stroke-width: 1; stroke-dasharray: 1, 0;" class="arrowMarkerPath" d="M 0 5 L 10 10 L 10 0 z"/></marker><marker orient="auto" markerHeight="11" markerWidth="11" markerUnits="userSpaceOnUse" refY="5" refX="11" viewBox="0 0 10 10" class="marker flowchart-v2" id="my-svg_flowchart-v2-circleEnd"><circle style="stroke-width: 1; stroke-dasharray: 1, 0;" class="arrowMarkerPath" r="5" cy="5" cx="5"/></marker><marker orient="auto" markerHeight="11" markerWidth="11" markerUnits="userSpaceOnUse" refY="5" refX="-1" viewBox="0 0 10 10" class="marker flowchart-v2" id="my-svg_flowchart-v2-circleStart"><circle style="stroke-width: 1; stroke-dasharray: 1, 0;" class="arrowMarkerPath" r="5" cy="5" cx="5"/></marker><marker orient="auto" markerHeight="11" markerWidth="11" markerUnits="userSpaceOnUse" refY="5.2" refX="12" viewBox="0 0 11 11" class="marker cross flowchart-v2" id="my-svg_flowchart-v2-crossEnd"><path style="stroke-width: 2; stroke-dasharray: 1, 0;" class="arrowMarkerPath" d="M 1,1 l 9,9 M 10,1 l -9,9"/></marker><marker orient="auto" markerHeight="11" markerWidth="11" markerUnits="userSpaceOnUse" refY="5.2" refX="-1" viewBox="0 0 11 11" class="marker cross flowchart-v2" id="my-svg_flowchart-v2-crossStart"><path style="stroke-width: 2; stroke-dasharray: 1, 0;" class="arrowMarkerPath" d="M 1,1 l 9,9 M 10,1 l -9,9"/></marker><g class="root"><g class="clusters"><g data-look="classic" id="TURN" class="cluster"><rect height="755.6875" width="773.33203125" y="448" x="8" style=""/><g transform="translate(365.673828125, 448)" class="cluster-label"><foreignObject height="24" width="57.984375"><div style="display: table-cell; white-space: nowrap; line-height: 1.5; max-width: 200px; text-align: center;" xmlns="http://www.w3.org/1999/xhtml"><span class="nodeLabel"><p>Per turn</p></span></div></foreignObject></g></g></g><g class="edgePaths"><path marker-end="url(#my-svg_flowchart-v2-pointEnd)" style="" class="edge-thickness-normal edge-pattern-solid edge-thickness-normal edge-pattern-solid flowchart-link" id="L_U_CLI_0" d="M569.203,62L569.203,66.167C569.203,70.333,569.203,78.667,569.203,84.917C569.203,91.167,569.203,95.333,569.203,98.833C569.203,102.333,569.203,105.167,569.203,106.583L569.203,108"/><path marker-end="url(#my-svg_flowchart-v2-pointEnd)" style="" class="edge-thickness-normal edge-pattern-solid edge-thickness-normal edge-pattern-solid flowchart-link" id="L_CLI_AGENT_1" d="M496.749,190L489.009,194.167C481.268,198.333,465.786,206.667,458.045,212.917C450.305,219.167,450.305,223.333,450.305,226.833C450.305,230.333,450.305,233.167,450.305,234.583L450.305,236"/><path marker-end="url(#my-svg_flowchart-v2-pointEnd)" style="" class="edge-thickness-normal edge-pattern-solid edge-thickness-normal edge-pattern-solid flowchart-link" id="L_AGENT_CHAT_2" d="M450.305,294L450.305,298.167C450.305,302.333,450.305,310.667,450.305,316.917C450.305,323.167,450.305,327.333,450.305,330.833C450.305,334.333,450.305,337.167,450.305,338.583L450.305,340"/><path marker-end="url(#my-svg_flowchart-v2-pointEnd)" style="" class="edge-thickness-normal edge-pattern-solid edge-thickness-normal edge-pattern-solid flowchart-link" id="L_CHAT_LOOP_3" d="M450.305,398L450.305,402.167C450.305,406.333,450.305,414.667,450.305,423C450.305,431.333,450.305,439.667,450.305,445.917C450.305,452.167,450.305,456.333,450.305,459.833C450.305,463.333,450.305,466.167,450.305,467.583L450.305,469"/><path marker-end="url(#my-svg_flowchart-v2-pointEnd)" style="" class="edge-thickness-normal edge-pattern-solid edge-thickness-normal edge-pattern-solid flowchart-link" id="L_LOOP_CTX_4" d="M376.328,513.872L342.44,520.227C308.552,526.581,240.776,539.291,206.888,547.729C173,556.167,173,560.333,173,563.833C173,567.333,173,570.167,173,571.583L173,573"/><path marker-end="url(#my-svg_flowchart-v2-pointEnd)" style="" class="edge-thickness-normal edge-pattern-solid edge-thickness-normal edge-pattern-solid flowchart-link" id="L_LOOP_PLAN_5" d="M467.281,527L469.901,531.167C472.521,535.333,477.76,543.667,480.38,550.917C483,558.167,483,564.333,483,569.833C483,575.333,483,580.167,483,582.583L483,585"/><path marker-end="url(#my-svg_flowchart-v2-pointEnd)" style="" class="edge-thickness-normal edge-pattern-solid edge-thickness-normal edge-pattern-solid flowchart-link" id="L_PLAN_TOOLS_6" d="M483,667L483,673.167C483,679.333,483,691.667,483.042,699.958C483.083,708.25,483.167,712.5,483.237,716.083C483.307,719.667,483.364,722.584,483.393,724.042L483.422,725.501"/><path marker-end="url(#my-svg_flowchart-v2-pointEnd)" style="" class="edge-thickness-normal edge-pattern-solid edge-thickness-normal edge-pattern-solid flowchart-link" id="L_TOOLS_TS_7" d="M440.868,832.556L422.057,845.744C403.245,858.933,365.623,885.31,346.811,901.582C328,917.854,328,924.021,328,929.521C328,935.021,328,939.854,328,942.271L328,944.688"/><path marker-end="url(#my-svg_flowchart-v2-pointEnd)" style="" class="edge-thickness-normal edge-pattern-solid edge-thickness-normal edge-pattern-solid flowchart-link" id="L_TS_PROV1_8" d="M328,1026.688L328,1032.854C328,1039.021,328,1051.354,334.288,1060.604C340.577,1069.854,353.154,1076.021,365.132,1081.894C377.11,1087.767,388.489,1093.347,394.179,1096.137L399.869,1098.927"/><path marker-end="url(#my-svg_flowchart-v2-pointEnd)" style="" class="edge-thickness-normal edge-pattern-solid edge-thickness-normal edge-pattern-solid flowchart-link" id="L_TOOLS_PROV1_9" d="M515.66,843.027L524.689,854.471C533.718,865.914,551.775,888.801,560.803,912.911C569.832,937.021,569.832,962.354,569.832,987.688C569.832,1013.021,569.832,1038.354,566.309,1054.104C562.786,1069.854,555.741,1076.021,549.197,1081.748C542.653,1087.476,536.611,1092.765,533.59,1095.409L530.568,1098.053"/><path marker-end="url(#my-svg_flowchart-v2-pointEnd)" style="" class="edge-thickness-normal edge-pattern-solid edge-thickness-normal edge-pattern-solid flowchart-link" id="L_PROV1_EV_10" d="M483,1178.688L483,1182.854C483,1187.021,483,1195.354,483,1205.688C483,1216.021,483,1228.354,483.761,1237.604C484.522,1246.854,486.043,1253.021,487.405,1258.54C488.767,1264.06,489.97,1268.932,490.571,1271.368L491.172,1273.804"/><path marker-end="url(#my-svg_flowchart-v2-pointEnd)" style="" class="edge-thickness-normal edge-pattern-dotted edge-thickness-normal edge-pattern-solid flowchart-link" id="L_EV_OBS_11" d="M504.715,1379.688L504.715,1385.854C504.715,1392.021,504.715,1404.354,504.715,1413.604C504.715,1422.854,504.715,1429.021,504.715,1434.521C504.715,1440.021,504.715,1444.854,504.715,1447.271L504.715,1449.688"/><path marker-end="url(#my-svg_flowchart-v2-pointEnd)" style="" class="edge-thickness-normal edge-pattern-solid edge-thickness-normal edge-pattern-solid flowchart-link" id="L_EV_CLI_12" d="M601.915,1277.688L613.669,1271.521C625.422,1265.354,648.928,1253.021,682.164,1240.688C715.4,1228.354,758.366,1216.021,779.849,1199.188C801.332,1182.354,801.332,1161.021,801.332,1137.688C801.332,1114.354,801.332,1089.021,801.332,1063.688C801.332,1038.354,801.332,1013.021,801.332,987.688C801.332,962.354,801.332,937.021,801.332,906.047C801.332,875.073,801.332,838.458,801.332,803.844C801.332,769.229,801.332,736.615,801.332,707.641C801.332,678.667,801.332,653.333,801.332,628C801.332,602.667,801.332,577.333,801.332,556C801.332,534.667,801.332,517.333,801.332,500C801.332,482.667,801.332,465.333,801.332,452.5C801.332,439.667,801.332,431.333,801.332,418.5C801.332,405.667,801.332,388.333,801.332,371C801.332,353.667,801.332,336.333,801.332,319C801.332,301.667,801.332,284.333,801.332,267C801.332,249.667,801.332,232.333,792.821,221.32C784.311,210.307,767.289,205.614,750.91,201.098C734.531,196.582,718.795,192.244,710.927,190.075L703.059,187.905"/><path marker-end="url(#my-svg_flowchart-v2-pointEnd)" style="" class="edge-thickness-normal edge-pattern-dotted edge-thickness-normal edge-pattern-solid flowchart-link" id="L_OBS_RL_13" d="M504.715,1507.688L504.715,1513.854C504.715,1520.021,504.715,1532.354,508.689,1541.604C512.664,1550.854,520.613,1557.021,528.036,1562.779C535.458,1568.537,542.354,1573.886,545.802,1576.561L549.25,1579.236"/><path marker-end="url(#my-svg_flowchart-v2-pointEnd)" style="" class="edge-thickness-normal edge-pattern-dotted edge-thickness-normal edge-pattern-solid flowchart-link" id="L_RL_LOOP_14" d="M662.19,1581.688L679.314,1575.521C696.438,1569.354,730.686,1557.021,747.81,1540.188C764.934,1523.354,764.934,1502.021,764.934,1480.688C764.934,1459.354,764.934,1438.021,764.934,1412.688C764.934,1387.354,764.934,1358.021,764.934,1328.688C764.934,1299.354,764.934,1270.021,754.186,1249.188C743.438,1228.354,721.941,1216.021,711.193,1199.188C700.445,1182.354,700.445,1161.021,700.445,1137.688C700.445,1114.354,700.445,1089.021,700.445,1063.688C700.445,1038.354,700.445,1013.021,700.445,987.688C700.445,962.354,700.445,937.021,700.445,906.047C700.445,875.073,700.445,838.458,700.445,803.844C700.445,769.229,700.445,736.615,700.445,707.641C700.445,678.667,700.445,653.333,700.445,628C700.445,602.667,700.445,577.333,685.765,561.615C671.085,545.896,641.724,539.793,613.016,533.825C584.308,527.857,556.253,522.025,542.225,519.109L528.198,516.193"/></g><g class="edgeLabels"><g class="edgeLabel"><g transform="translate(0, 0)" class="label"><foreignObject height="0" width="0"><div style="display: table-cell; white-space: nowrap; line-height: 1.5; max-width: 200px; text-align: center;" class="labelBkg" xmlns="http://www.w3.org/1999/xhtml"><span class="edgeLabel"></span></div></foreignObject></g></g><g class="edgeLabel"><g transform="translate(0, 0)" class="label"><foreignObject height="0" width="0"><div style="display: table-cell; white-space: nowrap; line-height: 1.5; max-width: 200px; text-align: center;" class="labelBkg" xmlns="http://www.w3.org/1999/xhtml"><span class="edgeLabel"></span></div></foreignObject></g></g><g class="edgeLabel"><g transform="translate(0, 0)" class="label"><foreignObject height="0" width="0"><div style="display: table-cell; white-space: nowrap; line-height: 1.5; max-width: 200px; text-align: center;" class="labelBkg" xmlns="http://www.w3.org/1999/xhtml"><span class="edgeLabel"></span></div></foreignObject></g></g><g class="edgeLabel"><g transform="translate(0, 0)" class="label"><foreignObject height="0" width="0"><div style="display: table-cell; white-space: nowrap; line-height: 1.5; max-width: 200px; text-align: center;" class="labelBkg" xmlns="http://www.w3.org/1999/xhtml"><span class="edgeLabel"></span></div></foreignObject></g></g><g class="edgeLabel"><g transform="translate(0, 0)" class="label"><foreignObject height="0" width="0"><div style="display: table-cell; white-space: nowrap; line-height: 1.5; max-width: 200px; text-align: center;" class="labelBkg" xmlns="http://www.w3.org/1999/xhtml"><span class="edgeLabel"></span></div></foreignObject></g></g><g class="edgeLabel"><g transform="translate(0, 0)" class="label"><foreignObject height="0" width="0"><div style="display: table-cell; white-space: nowrap; line-height: 1.5; max-width: 200px; text-align: center;" class="labelBkg" xmlns="http://www.w3.org/1999/xhtml"><span class="edgeLabel"></span></div></foreignObject></g></g><g class="edgeLabel"><g transform="translate(0, 0)" class="label"><foreignObject height="0" width="0"><div style="display: table-cell; white-space: nowrap; line-height: 1.5; max-width: 200px; text-align: center;" class="labelBkg" xmlns="http://www.w3.org/1999/xhtml"><span class="edgeLabel"></span></div></foreignObject></g></g><g transform="translate(328, 911.6875)" class="edgeLabel"><g transform="translate(-11.546875, -12)" class="label"><foreignObject height="24" width="23.09375"><div style="display: table-cell; white-space: nowrap; line-height: 1.5; max-width: 200px; text-align: center;" class="labelBkg" xmlns="http://www.w3.org/1999/xhtml"><span class="edgeLabel"><p>yes</p></span></div></foreignObject></g></g><g class="edgeLabel"><g transform="translate(0, 0)" class="label"><foreignObject height="0" width="0"><div style="display: table-cell; white-space: nowrap; line-height: 1.5; max-width: 200px; text-align: center;" class="labelBkg" xmlns="http://www.w3.org/1999/xhtml"><span class="edgeLabel"></span></div></foreignObject></g></g><g transform="translate(569.83203125, 987.6875)" class="edgeLabel"><g transform="translate(-8.6640625, -12)" class="label"><foreignObject height="24" width="17.328125"><div style="display: table-cell; white-space: nowrap; line-height: 1.5; max-width: 200px; text-align: center;" class="labelBkg" xmlns="http://www.w3.org/1999/xhtml"><span class="edgeLabel"><p>no</p></span></div></foreignObject></g></g><g transform="translate(483, 1240.6875)" class="edgeLabel"><g transform="translate(-23.4296875, -12)" class="label"><foreignObject height="24" width="46.859375"><div style="display: table-cell; white-space: nowrap; line-height: 1.5; max-width: 200px; text-align: center;" class="labelBkg" xmlns="http://www.w3.org/1999/xhtml"><span class="edgeLabel"><p>events</p></span></div></foreignObject></g></g><g transform="translate(504.71484375, 1416.6875)" class="edgeLabel"><g transform="translate(-35.4921875, -12)" class="label"><foreignObject height="24" width="70.984375"><div style="display: table-cell; white-space: nowrap; line-height: 1.5; max-width: 200px; text-align: center;" class="labelBkg" xmlns="http://www.w3.org/1999/xhtml"><span class="edgeLabel"><p>telemetry</p></span></div></foreignObject></g></g><g class="edgeLabel"><g transform="translate(0, 0)" class="label"><foreignObject height="0" width="0"><div style="display: table-cell; white-space: nowrap; line-height: 1.5; max-width: 200px; text-align: center;" class="labelBkg" xmlns="http://www.w3.org/1999/xhtml"><span class="edgeLabel"></span></div></foreignObject></g></g><g transform="translate(504.71484375, 1544.6875)" class="edgeLabel"><g transform="translate(-18.40625, -12)" class="label"><foreignObject height="24" width="36.8125"><div style="display: table-cell; white-space: nowrap; line-height: 1.5; max-width: 200px; text-align: center;" class="labelBkg" xmlns="http://www.w3.org/1999/xhtml"><span class="edgeLabel"><p>learn</p></span></div></foreignObject></g></g><g transform="translate(700.4453125, 1063.6875)" class="edgeLabel"><g transform="translate(-32.796875, -12)" class="label"><foreignObject height="24" width="65.59375"><div style="display: table-cell; white-space: nowrap; line-height: 1.5; max-width: 200px; text-align: center;" class="labelBkg" xmlns="http://www.w3.org/1999/xhtml"><span class="edgeLabel"><p>feedback</p></span></div></foreignObject></g></g></g><g class="nodes"><g transform="translate(569.203125, 35)" id="flowchart-U-0" class="node default user"><rect height="54" width="152.5" y="-27" x="-76.25" style="fill:#eff6ff !important;stroke:#1d4ed8 !important" class="basic label-container"/><g transform="translate(-46.25, -12)" style="color:#0f172a !important" class="label"><rect/><foreignObject height="24" width="92.5"><div xmlns="http://www.w3.org/1999/xhtml" style="color: rgb(15, 23, 42) !important; display: table-cell; white-space: nowrap; line-height: 1.5; max-width: 200px; text-align: center;"><span class="nodeLabel" style="color:#0f172a !important"><p>User / Client</p></span></div></foreignObject></g></g><g transform="translate(569.203125, 151)" id="flowchart-CLI-1" class="node default user"><rect height="78" width="260" y="-39" x="-130" style="fill:#eff6ff !important;stroke:#1d4ed8 !important" class="basic label-container"/><g transform="translate(-100, -24)" style="color:#0f172a !important" class="label"><rect/><foreignObject height="48" width="200"><div xmlns="http://www.w3.org/1999/xhtml" style="color: rgb(15, 23, 42) !important; display: table; white-space: break-spaces; line-height: 1.5; max-width: 200px; text-align: center; width: 200px;"><span class="nodeLabel" style="color:#0f172a !important"><p>CLI / VictorClient\n/ HTTP API / MCP</p></span></div></foreignObject></g></g><g transform="translate(450.3046875, 267)" id="flowchart-AGENT-3" class="node default fw"><rect height="54" width="154.390625" y="-27" x="-77.1953125" style="fill:#f0fdf4 !important;stroke:#16a34a !important" class="basic label-container"/><g transform="translate(-47.1953125, -12)" style="color:#052e16 !important" class="label"><rect/><foreignObject height="24" width="94.390625"><div xmlns="http://www.w3.org/1999/xhtml" style="color: rgb(5, 46, 22) !important; display: table-cell; white-space: nowrap; line-height: 1.5; max-width: 200px; text-align: center;"><span class="nodeLabel" style="color:#052e16 !important"><p>Agent facade</p></span></div></foreignObject></g></g><g transform="translate(450.3046875, 371)" id="flowchart-CHAT-5" class="node default svc"><rect height="54" width="144.75" y="-27" x="-72.375" style="fill:#fffbeb !important;stroke:#d97706 !important" class="basic label-container"/><g transform="translate(-42.375, -12)" style="color:#451a03 !important" class="label"><rect/><foreignObject height="24" width="84.75"><div xmlns="http://www.w3.org/1999/xhtml" style="color: rgb(69, 26, 3) !important; display: table-cell; white-space: nowrap; line-height: 1.5; max-width: 200px; text-align: center;"><span class="nodeLabel" style="color:#451a03 !important"><p>ChatService</p></span></div></foreignObject></g></g><g transform="translate(450.3046875, 500)" id="flowchart-LOOP-7" class="node default svc"><rect height="54" width="147.953125" y="-27" x="-73.9765625" style="fill:#fffbeb !important;stroke:#d97706 !important" class="basic label-container"/><g transform="translate(-43.9765625, -12)" style="color:#451a03 !important" class="label"><rect/><foreignObject height="24" width="87.953125"><div xmlns="http://www.w3.org/1999/xhtml" style="color: rgb(69, 26, 3) !important; display: table-cell; white-space: nowrap; line-height: 1.5; max-width: 200px; text-align: center;"><span class="nodeLabel" style="color:#451a03 !important"><p>AgenticLoop</p></span></div></foreignObject></g></g><g transform="translate(173, 628)" id="flowchart-CTX-9" class="node default svc"><rect height="102" width="260" y="-51" x="-130" style="fill:#fffbeb !important;stroke:#d97706 !important" class="basic label-container"/><g transform="translate(-100, -36)" style="color:#451a03 !important" class="label"><rect/><foreignObject height="72" width="200"><div xmlns="http://www.w3.org/1999/xhtml" style="color: rgb(69, 26, 3) !important; display: table; white-space: break-spaces; line-height: 1.5; max-width: 200px; text-align: center; width: 200px;"><span class="nodeLabel" style="color:#451a03 !important"><p>ContextService\nassemble + prune\n(graph-RAG context)</p></span></div></foreignObject></g></g><g transform="translate(483, 628)" id="flowchart-PLAN-11" class="node default svc"><rect height="78" width="260" y="-39" x="-130" style="fill:#fffbeb !important;stroke:#d97706 !important" class="basic label-container"/><g transform="translate(-100, -24)" style="color:#451a03 !important" class="label"><rect/><foreignObject height="48" width="200"><div xmlns="http://www.w3.org/1999/xhtml" style="color: rgb(69, 26, 3) !important; display: table; white-space: break-spaces; line-height: 1.5; max-width: 200px; text-align: center; width: 200px;"><span class="nodeLabel" style="color:#451a03 !important"><p>PLAN: tool necessity + selection</p></span></div></foreignObject></g></g><g transform="translate(483, 801.84375)" id="flowchart-TOOLS-13" class="node default svc"><polygon style="fill:#fffbeb !important;stroke:#d97706 !important" transform="translate(-72.84375,72.84375)" class="label-container" points="72.84375,0 145.6875,-72.84375 72.84375,-145.6875 0,-72.84375"/><g transform="translate(-45.84375, -12)" style="color:#451a03 !important" class="label"><rect/><foreignObject height="24" width="91.6875"><div xmlns="http://www.w3.org/1999/xhtml" style="color: rgb(69, 26, 3) !important; display: table-cell; white-space: nowrap; line-height: 1.5; max-width: 200px; text-align: center;"><span class="nodeLabel" style="color:#451a03 !important"><p>tool needed?</p></span></div></foreignObject></g></g><g transform="translate(328, 987.6875)" id="flowchart-TS-15" class="node default svc"><rect height="78" width="260" y="-39" x="-130" style="fill:#fffbeb !important;stroke:#d97706 !important" class="basic label-container"/><g transform="translate(-100, -24)" style="color:#451a03 !important" class="label"><rect/><foreignObject height="48" width="200"><div xmlns="http://www.w3.org/1999/xhtml" style="color: rgb(69, 26, 3) !important; display: table; white-space: break-spaces; line-height: 1.5; max-width: 200px; text-align: center; width: 200px;"><span class="nodeLabel" style="color:#451a03 !important"><p>ToolService -&gt; ToolPipeline -&gt; Tool</p></span></div></foreignObject></g></g><g transform="translate(483, 1139.6875)" id="flowchart-PROV1-17" class="node default svc"><rect height="78" width="260" y="-39" x="-130" style="fill:#fffbeb !important;stroke:#d97706 !important" class="basic label-container"/><g transform="translate(-100, -24)" style="color:#451a03 !important" class="label"><rect/><foreignObject height="48" width="200"><div xmlns="http://www.w3.org/1999/xhtml" style="color: rgb(69, 26, 3) !important; display: table; white-space: break-spaces; line-height: 1.5; max-width: 200px; text-align: center; width: 200px;"><span class="nodeLabel" style="color:#451a03 !important"><p>ProviderService\n-&gt; LLM (24 providers)</p></span></div></foreignObject></g></g><g transform="translate(504.71484375, 1328.6875)" id="flowchart-EV-21" class="node default fw"><rect height="102" width="260" y="-51" x="-130" style="fill:#f0fdf4 !important;stroke:#16a34a !important" class="basic label-container"/><g transform="translate(-100, -36)" style="color:#052e16 !important" class="label"><rect/><foreignObject height="72" width="200"><div xmlns="http://www.w3.org/1999/xhtml" style="color: rgb(5, 46, 22) !important; display: table; white-space: break-spaces; line-height: 1.5; max-width: 200px; text-align: center; width: 200px;"><span class="nodeLabel" style="color:#052e16 !important"><p>Event stream\nTHINKING / TOOL_CALL\nTOOL_RESULT / CONTENT</p></span></div></foreignObject></g></g><g transform="translate(504.71484375, 1480.6875)" id="flowchart-OBS-23" class="node default ext"><rect height="54" width="226.09375" y="-27" x="-113.046875" style="fill:#f5f3ff !important;stroke:#7c3aed !important" class="basic label-container"/><g transform="translate(-83.046875, -12)" style="color:#1e1b4b !important" class="label"><rect/><foreignObject height="24" width="166.09375"><div xmlns="http://www.w3.org/1999/xhtml" style="color: rgb(30, 27, 75) !important; display: table-cell; white-space: nowrap; line-height: 1.5; max-width: 200px; text-align: center;"><span class="nodeLabel" style="color:#1e1b4b !important"><p>Observability\n+ traces</p></span></div></foreignObject></g></g><g transform="translate(587.21484375, 1608.6875)" id="flowchart-RL-27" class="node default ext"><rect height="54" width="242.421875" y="-27" x="-121.2109375" style="fill:#f5f3ff !important;stroke:#7c3aed !important" class="basic label-container"/><g transform="translate(-91.2109375, -12)" style="color:#1e1b4b !important" class="label"><rect/><foreignObject height="24" width="182.421875"><div xmlns="http://www.w3.org/1999/xhtml" style="color: rgb(30, 27, 75) !important; display: table-cell; white-space: nowrap; line-height: 1.5; max-width: 200px; text-align: center;"><span class="nodeLabel" style="color:#1e1b4b !important"><p>RL + prompt optimization</p></span></div></foreignObject></g></g></g></g></g></svg>