<?xml version="1.0" encoding="UTF-8"?>
<svg xmlns="http://www.w3.org/2000/svg" viewBox="0 0 900 650" font-family="system-ui, -apple-system, sans-serif">
  <defs>
    <!-- Gradients -->
    <linearGradient id="bgGradient" x1="0%" y1="0%" x2="100%" y2="100%">
      <stop offset="0%" style="stop-color:#0f0f23"/>
      <stop offset="100%" style="stop-color:#1a1a3e"/>
    </linearGradient>
    <linearGradient id="clientGradient" x1="0%" y1="0%" x2="0%" y2="100%">
      <stop offset="0%" style="stop-color:#6366f1"/>
      <stop offset="100%" style="stop-color:#4f46e5"/>
    </linearGradient>
    <linearGradient id="protocolGradient" x1="0%" y1="0%" x2="0%" y2="100%">
      <stop offset="0%" style="stop-color:#8b5cf6"/>
      <stop offset="100%" style="stop-color:#7c3aed"/>
    </linearGradient>
    <linearGradient id="coreGradient" x1="0%" y1="0%" x2="0%" y2="100%">
      <stop offset="0%" style="stop-color:#06b6d4"/>
      <stop offset="100%" style="stop-color:#0891b2"/>
    </linearGradient>
    <linearGradient id="providerGradient" x1="0%" y1="0%" x2="0%" y2="100%">
      <stop offset="0%" style="stop-color:#10b981"/>
      <stop offset="100%" style="stop-color:#059669"/>
    </linearGradient>
    <linearGradient id="toolGradient" x1="0%" y1="0%" x2="0%" y2="100%">
      <stop offset="0%" style="stop-color:#f59e0b"/>
      <stop offset="100%" style="stop-color:#d97706"/>
    </linearGradient>
    <!-- Drop shadow -->
    <filter id="shadow" x="-20%" y="-20%" width="140%" height="140%">
      <feDropShadow dx="0" dy="4" stdDeviation="8" flood-color="#000" flood-opacity="0.3"/>
    </filter>
    <filter id="glow">
      <feGaussianBlur stdDeviation="3" result="blur"/>
      <feMerge>
        <feMergeNode in="blur"/>
        <feMergeNode in="SourceGraphic"/>
      </feMerge>
    </filter>
  </defs>

  <!-- Background -->
  <rect width="900" height="650" fill="url(#bgGradient)"/>

  <!-- Title -->
  <text x="450" y="45" text-anchor="middle" fill="#ffffff" font-size="28" font-weight="700" letter-spacing="1">
    VICTOR ARCHITECTURE
  </text>
  <text x="450" y="70" text-anchor="middle" fill="#a1a1aa" font-size="14">
    Protocol-First, Multi-Provider AI Coding Assistant
  </text>

  <!-- Layer 3: Clients -->
  <g filter="url(#shadow)">
    <rect x="50" y="95" width="800" height="80" rx="12" fill="url(#clientGradient)" opacity="0.95"/>
    <text x="70" y="123" fill="#ffffff" font-size="11" font-weight="600" opacity="0.8">LAYER 3</text>
    <text x="450" y="123" text-anchor="middle" fill="#ffffff" font-size="16" font-weight="700">CLIENTS</text>

    <!-- Client boxes -->
    <rect x="70" y="135" width="140" height="30" rx="6" fill="rgba(255,255,255,0.15)"/>
    <text x="140" y="155" text-anchor="middle" fill="#ffffff" font-size="12" font-weight="500">CLI / TUI</text>

    <rect x="230" y="135" width="140" height="30" rx="6" fill="rgba(255,255,255,0.15)"/>
    <text x="300" y="155" text-anchor="middle" fill="#ffffff" font-size="12" font-weight="500">VS Code Ext</text>

    <rect x="390" y="135" width="140" height="30" rx="6" fill="rgba(255,255,255,0.15)"/>
    <text x="460" y="155" text-anchor="middle" fill="#ffffff" font-size="12" font-weight="500">JetBrains</text>

    <rect x="550" y="135" width="140" height="30" rx="6" fill="rgba(255,255,255,0.15)"/>
    <text x="620" y="155" text-anchor="middle" fill="#ffffff" font-size="12" font-weight="500">MCP Clients</text>

    <rect x="710" y="135" width="120" height="30" rx="6" fill="rgba(255,255,255,0.15)"/>
    <text x="770" y="155" text-anchor="middle" fill="#ffffff" font-size="12" font-weight="500">API Server</text>
  </g>

  <!-- Connection arrows -->
  <g stroke="#6366f1" stroke-width="2" fill="none" opacity="0.6">
    <path d="M140 175 L140 195" marker-end="url(#arrowhead)"/>
    <path d="M300 175 L300 195" marker-end="url(#arrowhead)"/>
    <path d="M460 175 L460 195" marker-end="url(#arrowhead)"/>
    <path d="M620 175 L620 195" marker-end="url(#arrowhead)"/>
    <path d="M770 175 L770 195" marker-end="url(#arrowhead)"/>
  </g>
  <defs>
    <marker id="arrowhead" markerWidth="8" markerHeight="6" refX="8" refY="3" orient="auto">
      <polygon points="0 0, 8 3, 0 6" fill="#8b5cf6"/>
    </marker>
  </defs>

  <!-- Layer 2: Protocol -->
  <g filter="url(#shadow)">
    <rect x="50" y="200" width="800" height="80" rx="12" fill="url(#protocolGradient)" opacity="0.95"/>
    <text x="70" y="228" fill="#ffffff" font-size="11" font-weight="600" opacity="0.8">LAYER 2</text>
    <text x="450" y="228" text-anchor="middle" fill="#ffffff" font-size="16" font-weight="700">PROTOCOL LAYER</text>

    <rect x="100" y="240" width="200" height="30" rx="6" fill="rgba(255,255,255,0.15)"/>
    <text x="200" y="260" text-anchor="middle" fill="#ffffff" font-size="12" font-weight="500">DirectProtocolAdapter</text>

    <rect x="350" y="240" width="200" height="30" rx="6" fill="rgba(255,255,255,0.15)"/>
    <text x="450" y="260" text-anchor="middle" fill="#ffffff" font-size="12" font-weight="500">HTTPProtocolAdapter</text>

    <rect x="600" y="240" width="200" height="30" rx="6" fill="rgba(255,255,255,0.15)"/>
    <text x="700" y="260" text-anchor="middle" fill="#ffffff" font-size="12" font-weight="500">MCPServer</text>
  </g>

  <!-- Connection to Core -->
  <g stroke="#8b5cf6" stroke-width="3" fill="none" opacity="0.6">
    <path d="M450 280 L450 310"/>
  </g>

  <!-- Layer 1: Core Engine -->
  <g filter="url(#shadow)">
    <rect x="50" y="315" width="800" height="130" rx="12" fill="url(#coreGradient)" opacity="0.95"/>
    <text x="70" y="343" fill="#ffffff" font-size="11" font-weight="600" opacity="0.8">LAYER 1</text>
    <text x="450" y="343" text-anchor="middle" fill="#ffffff" font-size="16" font-weight="700">CORE ENGINE</text>

    <!-- Core components -->
    <rect x="70" y="360" width="180" height="70" rx="8" fill="rgba(255,255,255,0.15)"/>
    <text x="160" y="385" text-anchor="middle" fill="#ffffff" font-size="13" font-weight="600">Agent Orchestrator</text>
    <text x="160" y="405" text-anchor="middle" fill="#ffffff" font-size="10" opacity="0.8">Conversation | Tools</text>
    <text x="160" y="420" text-anchor="middle" fill="#ffffff" font-size="10" opacity="0.8">State | Memory</text>

    <rect x="270" y="360" width="150" height="70" rx="8" fill="rgba(255,255,255,0.15)"/>
    <text x="345" y="385" text-anchor="middle" fill="#ffffff" font-size="13" font-weight="600">Tool Pipeline</text>
    <text x="345" y="405" text-anchor="middle" fill="#ffffff" font-size="10" opacity="0.8">65 Enterprise Tools</text>
    <text x="345" y="420" text-anchor="middle" fill="#ffffff" font-size="10" opacity="0.8">Semantic Selection</text>

    <rect x="440" y="360" width="150" height="70" rx="8" fill="rgba(255,255,255,0.15)"/>
    <text x="515" y="385" text-anchor="middle" fill="#ffffff" font-size="13" font-weight="600">Embeddings</text>
    <text x="515" y="405" text-anchor="middle" fill="#ffffff" font-size="10" opacity="0.8">BGE-small-en-v1.5</text>
    <text x="515" y="420" text-anchor="middle" fill="#ffffff" font-size="10" opacity="0.8">LanceDB Vector</text>

    <rect x="610" y="360" width="110" height="70" rx="8" fill="rgba(255,255,255,0.15)"/>
    <text x="665" y="385" text-anchor="middle" fill="#ffffff" font-size="13" font-weight="600">Cache</text>
    <text x="665" y="405" text-anchor="middle" fill="#ffffff" font-size="10" opacity="0.8">L1 Memory</text>
    <text x="665" y="420" text-anchor="middle" fill="#ffffff" font-size="10" opacity="0.8">L2 Disk</text>

    <rect x="740" y="360" width="90" height="70" rx="8" fill="rgba(255,255,255,0.15)"/>
    <text x="785" y="390" text-anchor="middle" fill="#ffffff" font-size="13" font-weight="600">LSP</text>
    <text x="785" y="410" text-anchor="middle" fill="#ffffff" font-size="10" opacity="0.8">Code Intel</text>
  </g>

  <!-- Providers Layer -->
  <g filter="url(#shadow)">
    <rect x="50" y="465" width="800" height="80" rx="12" fill="url(#providerGradient)" opacity="0.95"/>
    <text x="450" y="493" text-anchor="middle" fill="#ffffff" font-size="16" font-weight="700">LLM PROVIDERS (7+)</text>

    <!-- Provider boxes -->
    <g font-size="11" font-weight="500" fill="#ffffff">
      <rect x="70" y="505" width="95" height="28" rx="5" fill="rgba(255,255,255,0.2)"/>
      <text x="117" y="524" text-anchor="middle">Anthropic</text>

      <rect x="175" y="505" width="95" height="28" rx="5" fill="rgba(255,255,255,0.2)"/>
      <text x="222" y="524" text-anchor="middle">OpenAI</text>

      <rect x="280" y="505" width="95" height="28" rx="5" fill="rgba(255,255,255,0.2)"/>
      <text x="327" y="524" text-anchor="middle">Google</text>

      <rect x="385" y="505" width="75" height="28" rx="5" fill="rgba(255,255,255,0.2)"/>
      <text x="422" y="524" text-anchor="middle">xAI</text>

      <rect x="470" y="505" width="95" height="28" rx="5" fill="rgba(255,255,255,0.15)"/>
      <text x="517" y="524" text-anchor="middle">Ollama</text>
      <circle cx="555" cy="519" r="8" fill="#22c55e"/>
      <text x="555" y="522" text-anchor="middle" font-size="8" font-weight="700">FREE</text>

      <rect x="575" y="505" width="95" height="28" rx="5" fill="rgba(255,255,255,0.15)"/>
      <text x="622" y="524" text-anchor="middle">LMStudio</text>
      <circle cx="660" cy="519" r="8" fill="#22c55e"/>
      <text x="660" y="522" text-anchor="middle" font-size="8" font-weight="700">FREE</text>

      <rect x="680" y="505" width="95" height="28" rx="5" fill="rgba(255,255,255,0.15)"/>
      <text x="727" y="524" text-anchor="middle">vLLM</text>
      <circle cx="765" cy="519" r="8" fill="#22c55e"/>
      <text x="765" y="522" text-anchor="middle" font-size="8" font-weight="700">FREE</text>
    </g>
  </g>

  <!-- Tools Layer -->
  <g filter="url(#shadow)">
    <rect x="50" y="560" width="800" height="70" rx="12" fill="url(#toolGradient)" opacity="0.95"/>
    <text x="450" y="588" text-anchor="middle" fill="#ffffff" font-size="16" font-weight="700">65 ENTERPRISE TOOLS</text>

    <g font-size="10" fill="#ffffff" opacity="0.9">
      <text x="130" y="610" text-anchor="middle">Git Ops</text>
      <text x="230" y="610" text-anchor="middle">File Editor</text>
      <text x="330" y="610" text-anchor="middle">Code Search</text>
      <text x="430" y="610" text-anchor="middle">Refactor</text>
      <text x="530" y="610" text-anchor="middle">Docker</text>
      <text x="630" y="610" text-anchor="middle">Database</text>
      <text x="730" y="610" text-anchor="middle">Security</text>
    </g>
  </g>

  <!-- Feature badges -->
  <g font-size="10" font-weight="600">
    <rect x="680" y="95" width="160" height="22" rx="11" fill="#22c55e" opacity="0.9"/>
    <text x="760" y="110" text-anchor="middle" fill="#ffffff">100% Air-Gapped Ready</text>
  </g>
</svg>
