<?xml version="1.0" encoding="UTF-8"?>
<svg xmlns="http://www.w3.org/2000/svg" viewBox="0 0 1000 700" font-family="system-ui, -apple-system, sans-serif">
  <defs>
    <linearGradient id="bgGrad" x1="0%" y1="0%" x2="100%" y2="100%">
      <stop offset="0%" style="stop-color:#0f172a"/>
      <stop offset="100%" style="stop-color:#1e293b"/>
    </linearGradient>
    <linearGradient id="greenGrad" x1="0%" y1="0%" x2="0%" y2="100%">
      <stop offset="0%" style="stop-color:#22c55e"/>
      <stop offset="100%" style="stop-color:#16a34a"/>
    </linearGradient>
    <linearGradient id="blueGrad" x1="0%" y1="0%" x2="0%" y2="100%">
      <stop offset="0%" style="stop-color:#3b82f6"/>
      <stop offset="100%" style="stop-color:#2563eb"/>
    </linearGradient>
    <linearGradient id="purpleGrad" x1="0%" y1="0%" x2="0%" y2="100%">
      <stop offset="0%" style="stop-color:#8b5cf6"/>
      <stop offset="100%" style="stop-color:#7c3aed"/>
    </linearGradient>
    <linearGradient id="amberGrad" x1="0%" y1="0%" x2="0%" y2="100%">
      <stop offset="0%" style="stop-color:#f59e0b"/>
      <stop offset="100%" style="stop-color:#d97706"/>
    </linearGradient>
    <linearGradient id="redGrad" x1="0%" y1="0%" x2="0%" y2="100%">
      <stop offset="0%" style="stop-color:#ef4444"/>
      <stop offset="100%" style="stop-color:#dc2626"/>
    </linearGradient>
    <filter id="shadow">
      <feDropShadow dx="0" dy="4" stdDeviation="6" flood-color="#000" flood-opacity="0.3"/>
    </filter>
  </defs>

  <!-- Background -->
  <rect width="1000" height="700" fill="url(#bgGrad)"/>

  <!-- Title -->
  <text x="500" y="45" text-anchor="middle" fill="#ffffff" font-size="28" font-weight="700">
    Victor System State
  </text>
  <text x="500" y="72" text-anchor="middle" fill="#94a3b8" font-size="14">
    Accurate Metrics - January 2026
  </text>

  <!-- Row 1: Key Numbers -->
  <!-- Providers Card -->
  <g transform="translate(50, 100)" filter="url(#shadow)">
    <rect width="200" height="130" rx="12" fill="url(#greenGrad)"/>
    <text x="100" y="50" text-anchor="middle" fill="#ffffff" font-size="48" font-weight="700">21</text>
    <text x="100" y="80" text-anchor="middle" fill="#ffffff" font-size="16" font-weight="600">LLM Providers</text>
    <line x1="30" y1="95" x2="170" y2="95" stroke="rgba(255,255,255,0.3)" stroke-width="1"/>
    <text x="100" y="115" text-anchor="middle" fill="rgba(255,255,255,0.9)" font-size="11">8 Cloud + 6 Inference + 5 Local + 2 Other</text>
  </g>

  <!-- Tools Card -->
  <g transform="translate(275, 100)" filter="url(#shadow)">
    <rect width="200" height="130" rx="12" fill="url(#blueGrad)"/>
    <text x="100" y="50" text-anchor="middle" fill="#ffffff" font-size="48" font-weight="700">55</text>
    <text x="100" y="80" text-anchor="middle" fill="#ffffff" font-size="16" font-weight="600">Enterprise Tools</text>
    <line x1="30" y1="95" x2="170" y2="95" stroke="rgba(255,255,255,0.3)" stroke-width="1"/>
    <text x="100" y="115" text-anchor="middle" fill="rgba(255,255,255,0.9)" font-size="11">Across 5 Domain Verticals</text>
  </g>

  <!-- Tests Card -->
  <g transform="translate(500, 100)" filter="url(#shadow)">
    <rect width="200" height="130" rx="12" fill="url(#purpleGrad)"/>
    <text x="100" y="50" text-anchor="middle" fill="#ffffff" font-size="42" font-weight="700">15.5K</text>
    <text x="100" y="80" text-anchor="middle" fill="#ffffff" font-size="16" font-weight="600">Tests</text>
    <line x1="30" y1="95" x2="170" y2="95" stroke="rgba(255,255,255,0.3)" stroke-width="1"/>
    <text x="100" y="115" text-anchor="middle" fill="rgba(255,255,255,0.9)" font-size="11">Unit + Integration</text>
  </g>

  <!-- Code Lines Card -->
  <g transform="translate(725, 100)" filter="url(#shadow)">
    <rect width="200" height="130" rx="12" fill="url(#amberGrad)"/>
    <text x="100" y="50" text-anchor="middle" fill="#ffffff" font-size="42" font-weight="700">150K+</text>
    <text x="100" y="80" text-anchor="middle" fill="#ffffff" font-size="16" font-weight="600">Lines of Code</text>
    <line x1="30" y1="95" x2="170" y2="95" stroke="rgba(255,255,255,0.3)" stroke-width="1"/>
    <text x="100" y="115" text-anchor="middle" fill="rgba(255,255,255,0.9)" font-size="11">Python + TypeScript + Rust</text>
  </g>

  <!-- Row 2: Architecture Health -->
  <text x="500" y="275" text-anchor="middle" fill="#e2e8f0" font-size="20" font-weight="600">
    Architecture Health
  </text>

  <!-- Health Cards -->
  <g transform="translate(50, 295)" filter="url(#shadow)">
    <rect width="280" height="100" rx="10" fill="#1e293b" stroke="#334155" stroke-width="1"/>
    <text x="20" y="35" fill="#22c55e" font-size="14" font-weight="600">SOLID Compliance</text>
    <text x="240" y="35" text-anchor="end" fill="#22c55e" font-size="20" font-weight="700">7/10</text>
    <rect x="20" y="50" width="240" height="8" rx="4" fill="#334155"/>
    <rect x="20" y="50" width="168" height="8" rx="4" fill="url(#greenGrad)"/>
    <text x="20" y="80" fill="#94a3b8" font-size="11">SRP, LSP violations in orchestrator</text>
  </g>

  <g transform="translate(360, 295)" filter="url(#shadow)">
    <rect width="280" height="100" rx="10" fill="#1e293b" stroke="#334155" stroke-width="1"/>
    <text x="20" y="35" fill="#f59e0b" font-size="14" font-weight="600">Error Handling</text>
    <text x="240" y="35" text-anchor="end" fill="#f59e0b" font-size="20" font-weight="700">5/10</text>
    <rect x="20" y="50" width="240" height="8" rx="4" fill="#334155"/>
    <rect x="20" y="50" width="120" height="8" rx="4" fill="url(#amberGrad)"/>
    <text x="20" y="80" fill="#94a3b8" font-size="11">56 generic exception catches</text>
  </g>

  <g transform="translate(670, 295)" filter="url(#shadow)">
    <rect width="280" height="100" rx="10" fill="#1e293b" stroke="#334155" stroke-width="1"/>
    <text x="20" y="35" fill="#3b82f6" font-size="14" font-weight="600">Test Coverage</text>
    <text x="240" y="35" text-anchor="end" fill="#3b82f6" font-size="20" font-weight="700">7/10</text>
    <rect x="20" y="50" width="240" height="8" rx="4" fill="#334155"/>
    <rect x="20" y="50" width="168" height="8" rx="4" fill="url(#blueGrad)"/>
    <text x="20" y="80" fill="#94a3b8" font-size="11">Good coverage, some gaps in edge cases</text>
  </g>

  <!-- Row 3: Technical Debt Summary -->
  <text x="500" y="445" text-anchor="middle" fill="#e2e8f0" font-size="20" font-weight="600">
    Technical Debt
  </text>

  <!-- Debt Cards -->
  <g transform="translate(50, 465)" filter="url(#shadow)">
    <rect width="200" height="90" rx="10" fill="#1e293b" stroke="#ef4444" stroke-width="2"/>
    <circle cx="30" cy="30" r="12" fill="#ef4444"/>
    <text x="30" y="35" text-anchor="middle" fill="#ffffff" font-size="12" font-weight="700">P0</text>
    <text x="55" y="35" fill="#ffffff" font-size="14" font-weight="600">Critical</text>
    <text x="180" y="35" text-anchor="end" fill="#ef4444" font-size="24" font-weight="700">1</text>
    <text x="20" y="60" fill="#94a3b8" font-size="11">LSP Violation</text>
    <text x="20" y="75" fill="#94a3b8" font-size="11">LMStudio Provider</text>
  </g>

  <g transform="translate(275, 465)" filter="url(#shadow)">
    <rect width="200" height="90" rx="10" fill="#1e293b" stroke="#f59e0b" stroke-width="2"/>
    <circle cx="30" cy="30" r="12" fill="#f59e0b"/>
    <text x="30" y="35" text-anchor="middle" fill="#ffffff" font-size="12" font-weight="700">P1</text>
    <text x="55" y="35" fill="#ffffff" font-size="14" font-weight="600">High</text>
    <text x="180" y="35" text-anchor="end" fill="#f59e0b" font-size="24" font-weight="700">3</text>
    <text x="20" y="60" fill="#94a3b8" font-size="11">God Class, Factory Bloat</text>
    <text x="20" y="75" fill="#94a3b8" font-size="11">Generic Exceptions</text>
  </g>

  <g transform="translate(500, 465)" filter="url(#shadow)">
    <rect width="200" height="90" rx="10" fill="#1e293b" stroke="#3b82f6" stroke-width="2"/>
    <circle cx="30" cy="30" r="12" fill="#3b82f6"/>
    <text x="30" y="35" text-anchor="middle" fill="#ffffff" font-size="12" font-weight="700">P2</text>
    <text x="55" y="35" fill="#ffffff" font-size="14" font-weight="600">Medium</text>
    <text x="180" y="35" text-anchor="end" fill="#3b82f6" font-size="24" font-weight="700">3</text>
    <text x="20" y="60" fill="#94a3b8" font-size="11">Missing Adapters</text>
    <text x="20" y="75" fill="#94a3b8" font-size="11">Stubbed Features</text>
  </g>

  <g transform="translate(725, 465)" filter="url(#shadow)">
    <rect width="200" height="90" rx="10" fill="#1e293b" stroke="#22c55e" stroke-width="2"/>
    <circle cx="30" cy="30" r="12" fill="#22c55e"/>
    <text x="30" y="35" text-anchor="middle" fill="#ffffff" font-size="12" font-weight="700">P3</text>
    <text x="55" y="35" fill="#ffffff" font-size="14" font-weight="600">Low</text>
    <text x="180" y="35" text-anchor="end" fill="#22c55e" font-size="24" font-weight="700">3</text>
    <text x="20" y="60" fill="#94a3b8" font-size="11">Protocol Improvements</text>
    <text x="20" y="75" fill="#94a3b8" font-size="11">Test Coverage Gaps</text>
  </g>

  <!-- Row 4: Vertical Completion -->
  <text x="500" y="610" text-anchor="middle" fill="#e2e8f0" font-size="20" font-weight="600">
    Vertical Completion Status
  </text>

  <g transform="translate(50, 630)">
    <!-- Coding -->
    <text x="0" y="15" fill="#ffffff" font-size="12" font-weight="500">Coding</text>
    <rect x="80" y="5" width="100" height="14" rx="7" fill="#334155"/>
    <rect x="80" y="5" width="90" height="14" rx="7" fill="url(#greenGrad)"/>
    <text x="190" y="16" fill="#22c55e" font-size="12" font-weight="600">90%</text>

    <!-- Research -->
    <text x="230" y="15" fill="#ffffff" font-size="12" font-weight="500">Research</text>
    <rect x="310" y="5" width="100" height="14" rx="7" fill="#334155"/>
    <rect x="310" y="5" width="80" height="14" rx="7" fill="url(#blueGrad)"/>
    <text x="420" y="16" fill="#3b82f6" font-size="12" font-weight="600">80%</text>

    <!-- DevOps -->
    <text x="460" y="15" fill="#ffffff" font-size="12" font-weight="500">DevOps</text>
    <rect x="530" y="5" width="100" height="14" rx="7" fill="#334155"/>
    <rect x="530" y="5" width="75" height="14" rx="7" fill="url(#amberGrad)"/>
    <text x="640" y="16" fill="#f59e0b" font-size="12" font-weight="600">75%</text>

    <!-- Data Analysis -->
    <text x="680" y="15" fill="#ffffff" font-size="12" font-weight="500">Data</text>
    <rect x="720" y="5" width="100" height="14" rx="7" fill="#334155"/>
    <rect x="720" y="5" width="75" height="14" rx="7" fill="url(#amberGrad)"/>
    <text x="830" y="16" fill="#f59e0b" font-size="12" font-weight="600">75%</text>

    <!-- RAG -->
    <text x="870" y="15" fill="#ffffff" font-size="12" font-weight="500">RAG</text>
    <rect x="900" y="5" width="50" height="14" rx="7" fill="#334155"/>
    <rect x="900" y="5" width="35" height="14" rx="7" fill="url(#purpleGrad)"/>
  </g>

  <!-- Footer -->
  <text x="500" y="685" text-anchor="middle" fill="#64748b" font-size="11">
    Generated from codebase analysis | See docs/CODEBASE_REVIEW_REPORT.md for details
  </text>
</svg>
